<svg width="88" height="88" viewBox="0 0 88 88" fill="none" xmlns="http://www.w3.org/2000/svg">
<path d="M67.6235 32.9434L67.6222 32.9421C67.4418 32.7659 67.2983 32.5558 67.1997 32.3238C67.1012 32.0918 67.0496 31.8425 67.0481 31.5904C67.0465 31.3384 67.095 31.0885 67.1907 30.8553C67.2864 30.6221 67.4274 30.4102 67.6055 30.2318C67.7836 30.0535 67.9954 29.9122 68.2285 29.8163C68.4616 29.7204 68.7114 29.6716 68.9635 29.6729C69.2156 29.6741 69.4649 29.7254 69.697 29.8237C69.9291 29.922 70.1394 30.0653 70.3158 30.2454V30.2455L70.3172 30.2469C71.0096 30.9383 71.559 31.7594 71.9338 32.6634C72.3086 33.5673 72.5015 34.5362 72.5015 35.5148C72.5015 36.4933 72.3086 37.4623 71.9338 38.3662C71.559 39.2701 71.0096 40.0913 70.3172 40.7827L70.3158 40.7841C70.1394 40.9643 69.9291 41.1076 69.697 41.2059C69.4649 41.3042 69.2156 41.3554 68.9635 41.3567C68.7114 41.358 68.4616 41.3092 68.2285 41.2133C67.9954 41.1173 67.7836 40.9761 67.6055 40.7978C67.4274 40.6194 67.2864 40.4075 67.1907 40.1743C67.095 39.9411 67.0465 39.6912 67.0481 39.4392C67.0496 39.1871 67.1012 38.9378 67.1997 38.7058C67.2983 38.4738 67.4418 38.2636 67.6222 38.0875L67.6235 38.0862C67.9616 37.7487 68.2297 37.3479 68.4127 36.9066C68.5957 36.4654 68.6898 35.9924 68.6898 35.5148C68.6898 35.0371 68.5957 34.5642 68.4127 34.1229C68.2297 33.6817 67.9616 33.2809 67.6235 32.9434Z" fill="#00A4AD" stroke="white" stroke-width="0.35"/>
<path d="M76.203 24.3672C77.6682 25.8304 78.8305 27.5679 79.6236 29.4807C80.4167 31.3934 80.8249 33.4438 80.8249 35.5145C80.8249 37.5852 80.4167 39.6356 79.6236 41.5484C78.8305 43.4611 77.6682 45.1988 76.203 46.662L76.2025 46.6624C76.0256 46.84 75.8154 46.9811 75.584 47.0774C75.3525 47.1737 75.1043 47.2234 74.8536 47.2236C74.6029 47.2238 74.3547 47.1746 74.123 47.0787C73.8914 46.9828 73.6808 46.8422 73.5036 46.6648C73.3264 46.4874 73.1859 46.2769 73.0903 46.0451C72.9946 45.8134 72.9456 45.5651 72.946 45.3143C72.9464 45.0636 72.9965 44.8155 73.093 44.5841C73.1895 44.3527 73.3306 44.1426 73.5084 43.9659L73.5087 43.9656C74.6196 42.8564 75.501 41.5391 76.1024 40.089C76.7037 38.6389 77.0131 37.0845 77.0131 35.5147C77.0131 33.9449 76.7037 32.3904 76.1024 30.9403C75.501 29.4902 74.6196 28.1729 73.5087 27.0638C73.1511 26.7065 72.9501 26.2218 72.9499 25.7164C72.9497 25.2109 73.1502 24.726 73.5075 24.3684C73.8647 24.0108 74.3494 23.8098 74.8549 23.8096C75.3604 23.8093 75.8454 24.0099 76.203 24.3672Z" fill="#00A4AD" stroke="white" stroke-width="0.35"/>
<path d="M20.8125 32.3212C20.7109 32.5542 20.5636 32.7644 20.3795 32.9397C20.0864 33.2931 19.5 34.3 19.5 35.5C19.5 35.9776 19.4044 36.4647 19.5873 36.9059C19.7703 37.3471 20.0385 37.7479 20.3765 38.0854C20.5536 38.2623 20.6942 38.4723 20.7902 38.7035C20.8862 38.9347 20.9357 39.1825 20.9359 39.4329C20.9361 39.6832 20.887 39.9311 20.7914 40.1625C20.6958 40.3938 20.5555 40.6041 20.3786 40.7812C20.2018 40.9584 19.9917 41.0989 19.7605 41.1949C19.5293 41.2909 19.2815 41.3404 19.0312 41.3406C18.7809 41.3408 18.5329 41.2917 18.3016 41.1961C17.1345 40.7101 16.3251 39.1074 16.0662 38.3669C15.6914 37.4629 15.4985 36.494 15.4985 35.5154C15.4985 34.5369 15.6914 33.5679 16.0662 32.664C16.441 31.7601 16.9905 30.9389 17.6829 30.2475C17.7735 30.1551 18.1352 29.9185 18.3047 29.8118C18.5378 29.7103 18.7888 29.6565 19.043 29.6535C19.2971 29.6504 19.5494 29.6983 19.7848 29.7942C20.0202 29.8901 20.234 30.0322 20.4137 30.212C20.5934 30.3918 20.7353 30.6057 20.831 30.8412C20.9268 31.0766 20.9745 31.3289 20.9713 31.5831C20.9681 31.8372 20.9141 32.0882 20.8125 32.3212Z" fill="#00A4AD" stroke="white" stroke-width="0.35"/>
<path d="M11.797 24.3676C11.9741 24.1907 12.1843 24.0504 12.4155 23.9548C12.6468 23.8591 12.8947 23.8099 13.145 23.8101C13.3953 23.8102 13.6431 23.8596 13.8743 23.9555C14.1055 24.0514 14.3155 24.1919 14.4924 24.369C14.8495 24.7266 15.0501 25.2114 15.0498 25.7168C15.0496 26.2222 14.8486 26.7068 14.4911 27.064C13.3802 28.1732 12.4989 29.4905 11.8976 30.9406C11.2963 32.3907 10.9868 33.9451 10.9868 35.5149C10.9868 37.0848 11.2963 38.6392 11.8976 40.0893C12.4989 41.5394 13.3802 42.8567 14.4911 43.9658C14.6682 44.1427 14.8087 44.3528 14.9046 44.584C15.0005 44.8151 15.0499 45.063 15.05 45.3133C15.0502 45.5636 15.001 45.8114 14.9053 46.0427C14.8096 46.274 14.6694 46.4842 14.4925 46.6613C14.3156 46.8384 14.1055 46.9788 13.8743 47.0747C13.6431 47.1706 13.3953 47.2201 13.145 47.2202C12.8947 47.2203 12.6469 47.1711 12.4156 47.0755C12.1843 46.9798 11.9741 46.8395 11.797 46.6626C10.3318 45.1994 9.16943 43.4617 8.37635 41.549C7.58327 39.6362 7.17505 37.5858 7.17505 35.5151C7.17505 33.4444 7.58327 31.394 8.37635 29.4813C9.16943 27.5685 10.3318 25.8308 11.797 24.3676Z" fill="#00A4AD" stroke="white" stroke-width="0.35"/>
<mask id="mask0" mask-type="alpha" maskUnits="userSpaceOnUse" x="19" y="0" width="55" height="88">
<path d="M67.5831 52.944C66.6261 52.9432 65.682 53.1638 64.8244 53.5885C64.0824 52.1227 62.7919 51.009 61.2333 50.4895C59.6747 49.9699 57.974 50.0866 56.501 50.8141C55.8163 49.4618 54.6625 48.4052 53.2554 47.8418C51.8483 47.2784 50.2841 47.2468 48.8554 47.7529V41.4873L57.0014 45.7688C57.3451 45.9495 57.7325 46.0303 58.1197 46.0023C58.5069 45.9743 58.8786 45.8385 59.1927 45.6102C59.5068 45.382 59.7508 45.0704 59.897 44.7108C60.0433 44.3512 60.086 43.9578 60.0204 43.5751L57.5367 29.0989L68.0558 18.8462C68.3336 18.5751 68.53 18.2317 68.6229 17.8549C68.7158 17.4781 68.7014 17.0828 68.5815 16.7137C68.4615 16.3446 68.2407 16.0164 67.944 15.7662C67.6473 15.516 67.2865 15.3537 66.9025 15.2978L52.3124 13.1765L45.8258 1.31161C45.6466 0.983922 45.3826 0.710489 45.0613 0.520004C44.7401 0.329519 44.3735 0.229004 44 0.229004C43.6266 0.229004 43.26 0.329519 42.9387 0.520004C42.6175 0.710489 42.3534 0.983922 42.1742 1.31161L35.6877 13.1765L21.0976 15.2978C20.7133 15.3536 20.3524 15.5158 20.0555 15.7661C19.7587 16.0163 19.5378 16.3447 19.4178 16.7139C19.2978 17.0832 19.2835 17.4787 19.3765 17.8556C19.4696 18.2326 19.6662 18.576 19.9443 18.847L30.4633 29.0998L27.9797 43.576C27.6424 45.215 29.5471 46.5958 30.9988 45.7697L36.3702 42.9448V66.0284C35.8424 65.3369 35.3603 64.7163 34.9278 64.1721C31.805 60.2452 27.9656 59.8776 25.2945 60.2606C23.5675 60.5139 21.9071 61.104 20.4076 61.9975C20.1645 62.1542 19.9565 62.3595 19.7967 62.6006C19.6369 62.8417 19.5288 63.1133 19.4792 63.3982C19.4296 63.6831 19.4395 63.9753 19.5084 64.2562C19.5773 64.5371 19.7036 64.8007 19.8794 65.0303L36.8072 86.8204C37.1458 87.2562 37.6436 87.5397 38.1912 87.6085C38.7388 87.6773 39.2913 87.5257 39.7272 87.1871C40.163 86.8486 40.4465 86.3507 40.5153 85.8031C40.5841 85.2555 40.4325 84.703 40.0939 84.2672L24.8195 64.6053C25.208 64.4968 25.6036 64.4162 26.0035 64.3641C28.2991 64.0712 30.1536 64.8552 31.6702 66.7623C32.9413 68.3611 34.6565 70.6439 36.7684 73.5476C37.9246 75.1632 40.5486 74.309 40.5321 72.3237V38.378C40.5321 37.8261 40.7513 37.2968 41.1416 36.9066C41.5318 36.5163 42.0611 36.2971 42.613 36.2971C43.1648 36.2971 43.6941 36.5163 44.0844 36.9066C44.4746 37.2968 44.6938 37.8261 44.6938 38.378C44.6938 38.378 44.6975 60.7165 44.7046 60.7866C44.7569 61.2992 44.9976 61.7742 45.38 62.1196C45.7624 62.465 46.2594 62.6562 46.7747 62.6562C47.29 62.6562 47.787 62.465 48.1694 62.1196C48.5518 61.7742 48.7925 61.2992 48.8448 60.7866C48.8519 60.7172 48.8555 53.6376 48.8555 53.6376C48.8555 53.0857 49.0748 52.5565 49.465 52.1662C49.8552 51.776 50.3845 51.5567 50.9364 51.5567C51.4883 51.5567 52.0176 51.776 52.4078 52.1662C52.798 52.5565 53.0173 53.0857 53.0173 53.6376V61.961C53.0173 62.5129 53.2365 63.0422 53.6267 63.4324C54.017 63.8227 54.5462 64.0419 55.0981 64.0419C55.65 64.0419 56.1793 63.8227 56.5695 63.4324C56.9597 63.0422 57.179 62.5129 57.179 61.961V56.4121C57.179 55.8602 57.3982 55.3309 57.7885 54.9407C58.1787 54.5505 58.708 54.3312 59.2598 54.3312C59.8117 54.3312 60.341 54.5505 60.7312 54.9407C61.1215 55.3309 61.3407 55.8602 61.3407 56.4121V63.3483C61.3407 63.9002 61.5599 64.4294 61.9502 64.8197C62.3404 65.2099 62.8697 65.4291 63.4216 65.4291C63.9734 65.4291 64.5027 65.2099 64.8929 64.8197C65.2832 64.4294 65.5024 63.9002 65.5024 63.3483V59.1866C65.5024 58.6347 65.7217 58.1054 66.1119 57.7152C66.5021 57.3249 67.0314 57.1057 67.5833 57.1057C68.1352 57.1057 68.6644 57.3249 69.0547 57.7152C69.4449 58.1054 69.6641 58.6347 69.6641 59.1866V85.5441C69.6641 86.096 69.8834 86.6253 70.2736 87.0155C70.6638 87.4057 71.1931 87.625 71.745 87.625C72.2969 87.625 72.8261 87.4057 73.2164 87.0155C73.6066 86.6253 73.8259 86.096 73.8259 85.5441V59.1866C73.824 57.5315 73.1657 55.9447 71.9954 54.7744C70.825 53.604 69.2382 52.9458 67.5831 52.944ZM42.6128 32.1354C40.9817 32.1375 39.416 32.7772 38.2502 33.9181C37.0844 35.059 36.411 36.6104 36.3737 38.2412L32.7946 40.1229L34.7501 28.7243C34.8071 28.3918 34.7825 28.0504 34.6782 27.7295C34.574 27.4086 34.3933 27.1179 34.1517 26.8824L25.8685 18.8089L37.3144 17.1456C37.6336 17.0991 37.9376 16.979 38.2024 16.7949C38.4673 16.6107 38.6857 16.3675 38.8404 16.0845L44 6.64763L49.159 16.0845C49.3137 16.3675 49.5321 16.6107 49.7969 16.7949C50.0618 16.979 50.3658 17.0991 50.685 17.1456L62.1309 18.8089L53.8477 26.8824C53.6061 27.1179 53.4254 27.4086 53.3211 27.7295C53.2169 28.0504 53.1922 28.3918 53.2493 28.7243L55.2049 40.1235L48.6126 36.6581C48.2377 35.3559 47.4499 34.2108 46.3678 33.3951C45.2857 32.5794 43.9679 32.1373 42.6128 32.1354Z" fill="white"/>
</mask>
<g mask="url(#mask0)">
<path d="M67.5831 52.944C66.6261 52.9432 65.682 53.1638 64.8244 53.5885C64.0824 52.1227 62.7919 51.009 61.2333 50.4895C59.6747 49.9699 57.974 50.0866 56.501 50.8141C55.8163 49.4618 54.6625 48.4052 53.2554 47.8418C51.8483 47.2784 50.2841 47.2468 48.8554 47.7529V41.4873L57.0014 45.7688C57.3451 45.9495 57.7325 46.0303 58.1197 46.0023C58.5069 45.9743 58.8786 45.8385 59.1927 45.6102C59.5068 45.382 59.7508 45.0704 59.897 44.7108C60.0433 44.3512 60.086 43.9578 60.0204 43.5751L57.5367 29.0989L68.0558 18.8462C68.3336 18.5751 68.53 18.2317 68.6229 17.8549C68.7158 17.4781 68.7014 17.0828 68.5815 16.7137C68.4615 16.3446 68.2407 16.0164 67.944 15.7662C67.6473 15.516 67.2865 15.3537 66.9025 15.2978L52.3124 13.1765L45.8258 1.31161C45.6466 0.983922 45.3826 0.710489 45.0613 0.520004C44.7401 0.329519 44.3735 0.229004 44 0.229004C43.6266 0.229004 43.26 0.329519 42.9387 0.520004C42.6175 0.710489 42.3534 0.983922 42.1742 1.31161L35.6877 13.1765L21.0976 15.2978C20.7133 15.3536 20.3524 15.5158 20.0555 15.7661C19.7587 16.0163 19.5378 16.3447 19.4178 16.7139C19.2978 17.0832 19.2835 17.4787 19.3765 17.8556C19.4696 18.2326 19.6662 18.576 19.9443 18.847L30.4633 29.0998L27.9797 43.576C27.6424 45.215 29.5471 46.5958 30.9988 45.7697L36.3702 42.9448V66.0284C35.8424 65.3369 35.3603 64.7163 34.9278 64.1721C31.805 60.2452 27.9656 59.8776 25.2945 60.2606C23.5675 60.5139 21.9071 61.104 20.4076 61.9975C20.1645 62.1542 19.9565 62.3595 19.7967 62.6006C19.6369 62.8417 19.5288 63.1133 19.4792 63.3982C19.4296 63.6831 19.4395 63.9753 19.5084 64.2562C19.5773 64.5371 19.7036 64.8007 19.8794 65.0303L36.8072 86.8204C37.1458 87.2562 37.6436 87.5397 38.1912 87.6085C38.7388 87.6773 39.2913 87.5257 39.7272 87.1871C40.163 86.8486 40.4465 86.3507 40.5153 85.8031C40.5841 85.2555 40.4325 84.703 40.0939 84.2672L24.8195 64.6053C25.208 64.4968 25.6036 64.4162 26.0035 64.3641C28.2991 64.0712 30.1536 64.8552 31.6702 66.7623C32.9413 68.3611 34.6565 70.6439 36.7684 73.5476C37.9246 75.1632 40.5486 74.309 40.5321 72.3237V38.378C40.5321 37.8261 40.7513 37.2968 41.1416 36.9066C41.5318 36.5163 42.0611 36.2971 42.613 36.2971C43.1648 36.2971 43.6941 36.5163 44.0844 36.9066C44.4746 37.2968 44.6938 37.8261 44.6938 38.378C44.6938 38.378 44.6975 60.7165 44.7046 60.7866C44.7569 61.2992 44.9976 61.7742 45.38 62.1196C45.7624 62.465 46.2594 62.6562 46.7747 62.6562C47.29 62.6562 47.787 62.465 48.1694 62.1196C48.5518 61.7742 48.7925 61.2992 48.8448 60.7866C48.8519 60.7172 48.8555 53.6376 48.8555 53.6376C48.8555 53.0857 49.0748 52.5565 49.465 52.1662C49.8552 51.776 50.3845 51.5567 50.9364 51.5567C51.4883 51.5567 52.0176 51.776 52.4078 52.1662C52.798 52.5565 53.0173 53.0857 53.0173 53.6376V61.961C53.0173 62.5129 53.2365 63.0422 53.6267 63.4324C54.017 63.8227 54.5462 64.0419 55.0981 64.0419C55.65 64.0419 56.1793 63.8227 56.5695 63.4324C56.9597 63.0422 57.179 62.5129 57.179 61.961V56.4121C57.179 55.8602 57.3982 55.3309 57.7885 54.9407C58.1787 54.5505 58.708 54.3312 59.2598 54.3312C59.8117 54.3312 60.341 54.5505 60.7312 54.9407C61.1215 55.3309 61.3407 55.8602 61.3407 56.4121V63.3483C61.3407 63.9002 61.5599 64.4294 61.9502 64.8197C62.3404 65.2099 62.8697 65.4291 63.4216 65.4291C63.9734 65.4291 64.5027 65.2099 64.8929 64.8197C65.2832 64.4294 65.5024 63.9002 65.5024 63.3483V59.1866C65.5024 58.6347 65.7217 58.1054 66.1119 57.7152C66.5021 57.3249 67.0314 57.1057 67.5833 57.1057C68.1352 57.1057 68.6644 57.3249 69.0547 57.7152C69.4449 58.1054 69.6641 58.6347 69.6641 59.1866V85.5441C69.6641 86.096 69.8834 86.6253 70.2736 87.0155C70.6638 87.4057 71.1931 87.625 71.745 87.625C72.2969 87.625 72.8261 87.4057 73.2164 87.0155C73.6066 86.6253 73.8259 86.096 73.8259 85.5441V59.1866C73.824 57.5315 73.1657 55.9447 71.9954 54.7744C70.825 53.604 69.2382 52.9458 67.5831 52.944ZM42.6128 32.1354C40.9817 32.1375 39.416 32.7772 38.2502 33.9181C37.0844 35.059 36.411 36.6104 36.3737 38.2412L32.7946 40.1229L34.7501 28.7243C34.8071 28.3918 34.7825 28.0504 34.6782 27.7295C34.574 27.4086 34.3933 27.1179 34.1517 26.8824L25.8685 18.8089L37.3144 17.1456C37.6336 17.0991 37.9376 16.979 38.2024 16.7949C38.4673 16.6107 38.6857 16.3675 38.8404 16.0845L44 6.64763L49.159 16.0845C49.3137 16.3675 49.5321 16.6107 49.7969 16.7949C50.0618 16.979 50.3658 17.0991 50.685 17.1456L62.1309 18.8089L53.8477 26.8824C53.6061 27.1179 53.4254 27.4086 53.3211 27.7295C53.2169 28.0504 53.1922 28.3918 53.2493 28.7243L55.2049 40.1235L48.6126 36.6581C48.2377 35.3559 47.4499 34.2108 46.3678 33.3951C45.2857 32.5794 43.9679 32.1373 42.6128 32.1354Z" fill="#00A4AD" stroke="white" stroke-width="0.7"/>
</g>
</svg>
