<svg width="48" height="64" viewBox="0 0 48 64" fill="none" xmlns="http://www.w3.org/2000/svg">
<path fill-rule="evenodd" clip-rule="evenodd" d="M48 24.1733C48 10.8427 37.232 0 24 0C10.768 0 0 10.8427 0 24.1733C0 43.1147 21.744 62.672 22.6693 63.496C23.0507 63.832 23.5253 64 24 64C24.4747 64 24.9493 63.832 25.3307 63.4933C26.256 62.672 48 43.1147 48 24.1733Z" fill="#00A4AD"/>
<path fill-rule="evenodd" clip-rule="evenodd" d="M11.5449 13.0125C12.9489 13.0125 14.0878 14.1156 14.0878 15.4755V21.2249C14.0878 23.3289 14.0884 25.433 14.0833 27.537C14.0833 28.3996 14.8059 29.0995 15.6964 29.0995C16.5876 29.0995 17.3095 28.3996 17.3095 27.537C17.3095 27.4772 17.3063 27.418 17.2992 27.36V21.2249V19.4811V19.468C17.2992 16.4253 19.465 13.8713 22.385 13.1745C22.7653 13.0835 23.1584 13.0243 23.5619 13H24.4202C25.8281 13.0866 27.1182 13.5946 28.1567 14.3961C29.2962 13.5254 30.735 13.005 32.2985 13.005C35.9938 13.005 38.9903 15.9074 38.9903 19.4867C38.9903 23.2622 38.9961 27.0384 39 30.814L38.9955 31.537C38.9955 32.8944 37.8617 33.9956 36.461 34H36.4526H36.4442C35.0441 33.9956 33.9097 32.8944 33.9097 31.537C33.9104 27.5264 33.9149 23.5159 33.9149 19.5054C33.9149 18.6422 33.1923 17.9429 32.3017 17.9429C31.4177 17.9429 30.6989 18.6328 30.6886 19.4867C30.6661 21.5826 30.6925 23.6835 30.6925 25.7801V31.5426C30.6925 32.8458 29.6475 33.9127 28.3246 34H27.9752C26.6523 33.9127 25.6074 32.8458 25.6074 31.5426V25.7595V19.4786C25.6029 18.6197 24.8822 17.9242 23.9942 17.9242C23.1423 17.9242 22.4448 18.5636 22.385 19.3745C22.3798 19.4493 22.3798 19.5247 22.385 19.5995V25.7614V27.4996V27.5183V27.537C22.3747 31.1007 19.3923 33.9894 15.7125 34H15.6932H15.6745C11.9927 33.9894 9.00908 31.0982 9.002 27.5314C8.9975 23.5103 9.002 19.4892 9.002 15.468C9.00651 14.1112 10.1435 13.0125 11.5449 13.0125Z" fill="white"/>
</svg>
