<svg width="76" height="88" viewBox="0 0 76 88" fill="none" xmlns="http://www.w3.org/2000/svg">
<mask id="path-1-inside-1" fill="white">
<path d="M74.0103 28.4886C70.4848 28.4886 67.4374 29.4752 65.1979 31.3416C64.9914 31.5138 64.7805 31.7046 64.5684 31.9128V5.05877C64.5649 3.85416 64.0849 2.69988 63.2331 1.84808C62.3813 0.996287 61.227 0.516201 60.0224 0.512695H18.0586C16.854 0.516201 15.6997 0.996287 14.8479 1.84808C13.9961 2.69988 13.516 3.85416 13.5125 5.05877V9.70976L13.2958 9.49312C11.9186 8.11585 10.0506 7.3421 8.10283 7.3421C6.15507 7.3421 4.28708 8.11585 2.90981 9.49312C1.53253 10.8704 0.758789 12.7384 0.758789 14.6861C0.758789 16.6339 1.53253 18.5019 2.90981 19.8792L10.4762 27.4456C9.25158 27.8027 8.14103 28.4726 7.25388 29.3893C6.36674 30.306 5.73357 31.4379 5.41671 32.6736C5.09984 33.9093 5.11019 35.2062 5.44674 36.4366C5.7833 37.6671 6.43445 38.7887 7.33612 39.6912L11.6402 43.9952C10.2736 44.1615 8.98132 44.7087 7.91078 45.5742C6.84025 46.4398 6.03461 47.5888 5.58582 48.8903C5.13702 50.1917 5.06316 51.5931 5.37264 52.9346C5.68213 54.276 6.36251 55.5034 7.33612 56.4767L10.2411 59.3821C8.87448 59.5484 7.58217 60.0956 6.51164 60.9611C5.4411 61.8267 4.63547 62.9757 4.18667 64.2772C3.73788 65.5786 3.66401 66.98 3.9735 68.3215C4.28299 69.6629 4.96336 70.8903 5.93697 71.8636L13.5125 79.4396V83.3912C13.5138 84.5965 13.9932 85.752 14.8455 86.6043C15.6978 87.4566 16.8533 87.9359 18.0586 87.9373H51.6296C52.0933 87.9373 52.5381 87.7531 52.866 87.4252C53.1939 87.0973 53.3781 86.6525 53.3781 86.1888V69.4033C53.3816 67.9381 53.7244 66.4936 54.3797 65.1831C55.0349 63.8726 55.9848 62.7317 57.1548 61.8498L63.869 56.8141C64.0852 56.6503 64.2607 56.4389 64.3819 56.1963C64.5032 55.9538 64.567 55.6865 64.5684 55.4153V41.4274C64.5684 34.4637 68.819 32.5215 72.2618 32.0905V86.1888C72.2618 86.6525 72.446 87.0973 72.7739 87.4252C73.1018 87.7531 73.5466 87.9373 74.0103 87.9373C74.474 87.9373 74.9188 87.7531 75.2467 87.4252C75.5746 87.0973 75.7588 86.6525 75.7588 86.1888V30.2371C75.7588 29.7733 75.5746 29.3286 75.2467 29.0007C74.9188 28.6728 74.474 28.4886 74.0103 28.4886ZM18.0586 4.00968H60.0224C60.3005 4.00996 60.5672 4.12057 60.7639 4.31726C60.9606 4.51394 61.0712 4.78062 61.0715 5.05877V10.2966H17.0095V5.05877C17.0098 4.78062 17.1204 4.51394 17.3171 4.31726C17.5137 4.12057 17.7804 4.00996 18.0586 4.00968ZM4.2551 14.686C4.22013 11.2988 8.4534 9.54803 10.8231 11.9655L13.5125 14.655V25.5368L5.382 17.4063C5.02361 17.0499 4.73948 16.626 4.54604 16.159C4.35261 15.6921 4.25372 15.1914 4.2551 14.686ZM9.80848 31.7785C11.2405 30.2862 13.8167 30.2862 15.2486 31.7785L23.1614 39.6913C26.6361 43.4231 21.4388 48.6074 17.7213 45.1314L9.80848 37.2186C9.08823 36.4966 8.68374 35.5184 8.68374 34.4986C8.68374 33.4787 9.08823 32.5005 9.80848 31.7785ZM25.6341 37.2186L23.7336 35.318C24.0953 31.8417 25.6561 28.5998 28.1481 26.1491C30.64 23.6984 33.9076 22.192 37.3894 21.8884C40.8713 21.5849 44.3502 22.5032 47.2286 24.4857C50.1071 26.4682 52.2053 29.3912 53.163 32.7525C54.1208 36.1138 53.8782 39.7037 52.477 42.9056C51.0757 46.1074 48.6033 48.7215 45.4843 50.2987C42.3654 51.8759 38.7945 52.3179 35.3851 51.5487C31.9758 50.7795 28.9406 48.8471 26.801 46.0835C27.6073 44.6828 27.9299 43.0557 27.719 41.4534C27.508 39.8511 26.7754 38.3629 25.6341 37.2186ZM9.80848 48.564C11.2405 47.0717 13.8167 47.0717 15.2486 48.564L23.1614 56.4768C26.6361 60.2086 21.4388 65.3929 17.7213 61.9169L9.80848 54.0041C9.08823 53.2821 8.68374 52.3039 8.68374 51.2841C8.68374 50.2643 9.08823 49.2861 9.80848 48.564ZM8.40969 63.9508C9.8417 62.4584 12.4179 62.4584 13.8498 63.9508L21.7626 71.8636C25.2373 75.5954 20.04 80.7796 16.3225 77.3036L8.40969 69.3909C7.68944 68.6688 7.28495 67.6907 7.28495 66.6708C7.28495 65.651 7.68944 64.6728 8.40969 63.9508ZM17.0095 83.3912V81.6427C17.6705 81.8323 18.3548 81.9284 19.0424 81.9282C20.0596 81.9286 21.0658 81.7175 21.997 81.3083C22.9282 80.899 23.7642 80.3006 24.4518 79.5511C25.1394 78.8015 25.6637 77.9172 25.9912 76.9542C26.3188 75.9912 26.4426 74.9706 26.3546 73.9572H49.8811V84.4403H18.0586C17.7804 84.44 17.5137 84.3294 17.3171 84.1327C17.1204 83.936 17.0098 83.6693 17.0095 83.3912ZM55.0566 59.0522C53.4532 60.2607 52.1515 61.8242 51.2536 63.6201C50.3556 65.416 49.8859 67.3954 49.8811 69.4033V70.4594H25.1174C24.8577 70.0762 24.5624 69.7184 24.2353 69.3909L21.33 66.4856C22.6966 66.3193 23.9889 65.7721 25.0594 64.9066C26.1299 64.041 26.9356 62.892 27.3844 61.5905C27.8332 60.2891 27.907 58.8877 27.5976 57.5462C27.2881 56.2048 26.6077 54.9774 25.6341 54.0041L21.33 49.7C22.4058 49.5721 23.4393 49.2051 24.3549 48.6259C26.9975 51.8476 30.649 54.0844 34.7195 54.9751C38.7901 55.8658 43.042 55.3584 46.7887 53.5348C50.5353 51.7113 53.5578 48.678 55.3682 44.925C57.1785 41.1719 57.6709 36.9182 56.7658 32.8508C55.8607 28.7835 53.611 25.1399 50.3801 22.5087C47.1491 19.8774 43.1255 18.4121 38.9591 18.3493C34.7928 18.2866 30.7269 19.6301 27.4181 22.1628C24.1094 24.6956 21.751 28.2697 20.7238 32.308C20.7238 32.308 17.2574 28.8732 17.0095 28.6809V13.7935H61.0715V54.5411L55.0566 59.0522Z"/>
</mask>
<path d="M74.0103 28.4886C70.4848 28.4886 67.4374 29.4752 65.1979 31.3416C64.9914 31.5138 64.7805 31.7046 64.5684 31.9128V5.05877C64.5649 3.85416 64.0849 2.69988 63.2331 1.84808C62.3813 0.996287 61.227 0.516201 60.0224 0.512695H18.0586C16.854 0.516201 15.6997 0.996287 14.8479 1.84808C13.9961 2.69988 13.516 3.85416 13.5125 5.05877V9.70976L13.2958 9.49312C11.9186 8.11585 10.0506 7.3421 8.10283 7.3421C6.15507 7.3421 4.28708 8.11585 2.90981 9.49312C1.53253 10.8704 0.758789 12.7384 0.758789 14.6861C0.758789 16.6339 1.53253 18.5019 2.90981 19.8792L10.4762 27.4456C9.25158 27.8027 8.14103 28.4726 7.25388 29.3893C6.36674 30.306 5.73357 31.4379 5.41671 32.6736C5.09984 33.9093 5.11019 35.2062 5.44674 36.4366C5.7833 37.6671 6.43445 38.7887 7.33612 39.6912L11.6402 43.9952C10.2736 44.1615 8.98132 44.7087 7.91078 45.5742C6.84025 46.4398 6.03461 47.5888 5.58582 48.8903C5.13702 50.1917 5.06316 51.5931 5.37264 52.9346C5.68213 54.276 6.36251 55.5034 7.33612 56.4767L10.2411 59.3821C8.87448 59.5484 7.58217 60.0956 6.51164 60.9611C5.4411 61.8267 4.63547 62.9757 4.18667 64.2772C3.73788 65.5786 3.66401 66.98 3.9735 68.3215C4.28299 69.6629 4.96336 70.8903 5.93697 71.8636L13.5125 79.4396V83.3912C13.5138 84.5965 13.9932 85.752 14.8455 86.6043C15.6978 87.4566 16.8533 87.9359 18.0586 87.9373H51.6296C52.0933 87.9373 52.5381 87.7531 52.866 87.4252C53.1939 87.0973 53.3781 86.6525 53.3781 86.1888V69.4033C53.3816 67.9381 53.7244 66.4936 54.3797 65.1831C55.0349 63.8726 55.9848 62.7317 57.1548 61.8498L63.869 56.8141C64.0852 56.6503 64.2607 56.4389 64.3819 56.1963C64.5032 55.9538 64.567 55.6865 64.5684 55.4153V41.4274C64.5684 34.4637 68.819 32.5215 72.2618 32.0905V86.1888C72.2618 86.6525 72.446 87.0973 72.7739 87.4252C73.1018 87.7531 73.5466 87.9373 74.0103 87.9373C74.474 87.9373 74.9188 87.7531 75.2467 87.4252C75.5746 87.0973 75.7588 86.6525 75.7588 86.1888V30.2371C75.7588 29.7733 75.5746 29.3286 75.2467 29.0007C74.9188 28.6728 74.474 28.4886 74.0103 28.4886ZM18.0586 4.00968H60.0224C60.3005 4.00996 60.5672 4.12057 60.7639 4.31726C60.9606 4.51394 61.0712 4.78062 61.0715 5.05877V10.2966H17.0095V5.05877C17.0098 4.78062 17.1204 4.51394 17.3171 4.31726C17.5137 4.12057 17.7804 4.00996 18.0586 4.00968ZM4.2551 14.686C4.22013 11.2988 8.4534 9.54803 10.8231 11.9655L13.5125 14.655V25.5368L5.382 17.4063C5.02361 17.0499 4.73948 16.626 4.54604 16.159C4.35261 15.6921 4.25372 15.1914 4.2551 14.686ZM9.80848 31.7785C11.2405 30.2862 13.8167 30.2862 15.2486 31.7785L23.1614 39.6913C26.6361 43.4231 21.4388 48.6074 17.7213 45.1314L9.80848 37.2186C9.08823 36.4966 8.68374 35.5184 8.68374 34.4986C8.68374 33.4787 9.08823 32.5005 9.80848 31.7785ZM25.6341 37.2186L23.7336 35.318C24.0953 31.8417 25.6561 28.5998 28.1481 26.1491C30.64 23.6984 33.9076 22.192 37.3894 21.8884C40.8713 21.5849 44.3502 22.5032 47.2286 24.4857C50.1071 26.4682 52.2053 29.3912 53.163 32.7525C54.1208 36.1138 53.8782 39.7037 52.477 42.9056C51.0757 46.1074 48.6033 48.7215 45.4843 50.2987C42.3654 51.8759 38.7945 52.3179 35.3851 51.5487C31.9758 50.7795 28.9406 48.8471 26.801 46.0835C27.6073 44.6828 27.9299 43.0557 27.719 41.4534C27.508 39.8511 26.7754 38.3629 25.6341 37.2186ZM9.80848 48.564C11.2405 47.0717 13.8167 47.0717 15.2486 48.564L23.1614 56.4768C26.6361 60.2086 21.4388 65.3929 17.7213 61.9169L9.80848 54.0041C9.08823 53.2821 8.68374 52.3039 8.68374 51.2841C8.68374 50.2643 9.08823 49.2861 9.80848 48.564ZM8.40969 63.9508C9.8417 62.4584 12.4179 62.4584 13.8498 63.9508L21.7626 71.8636C25.2373 75.5954 20.04 80.7796 16.3225 77.3036L8.40969 69.3909C7.68944 68.6688 7.28495 67.6907 7.28495 66.6708C7.28495 65.651 7.68944 64.6728 8.40969 63.9508ZM17.0095 83.3912V81.6427C17.6705 81.8323 18.3548 81.9284 19.0424 81.9282C20.0596 81.9286 21.0658 81.7175 21.997 81.3083C22.9282 80.899 23.7642 80.3006 24.4518 79.5511C25.1394 78.8015 25.6637 77.9172 25.9912 76.9542C26.3188 75.9912 26.4426 74.9706 26.3546 73.9572H49.8811V84.4403H18.0586C17.7804 84.44 17.5137 84.3294 17.3171 84.1327C17.1204 83.936 17.0098 83.6693 17.0095 83.3912ZM55.0566 59.0522C53.4532 60.2607 52.1515 61.8242 51.2536 63.6201C50.3556 65.416 49.8859 67.3954 49.8811 69.4033V70.4594H25.1174C24.8577 70.0762 24.5624 69.7184 24.2353 69.3909L21.33 66.4856C22.6966 66.3193 23.9889 65.7721 25.0594 64.9066C26.1299 64.041 26.9356 62.892 27.3844 61.5905C27.8332 60.2891 27.907 58.8877 27.5976 57.5462C27.2881 56.2048 26.6077 54.9774 25.6341 54.0041L21.33 49.7C22.4058 49.5721 23.4393 49.2051 24.3549 48.6259C26.9975 51.8476 30.649 54.0844 34.7195 54.9751C38.7901 55.8658 43.042 55.3584 46.7887 53.5348C50.5353 51.7113 53.5578 48.678 55.3682 44.925C57.1785 41.1719 57.6709 36.9182 56.7658 32.8508C55.8607 28.7835 53.611 25.1399 50.3801 22.5087C47.1491 19.8774 43.1255 18.4121 38.9591 18.3493C34.7928 18.2866 30.7269 19.6301 27.4181 22.1628C24.1094 24.6956 21.751 28.2697 20.7238 32.308C20.7238 32.308 17.2574 28.8732 17.0095 28.6809V13.7935H61.0715V54.5411L55.0566 59.0522Z" fill="#00A4AD" stroke="white" stroke-width="0.7" mask="url(#path-1-inside-1)"/>
<path d="M40.0957 38.4553L40.0957 38.4552H40.0895H37.1172C37.1171 38.4552 37.1171 38.4552 37.1171 38.4552C35.6021 38.4548 34.148 37.8584 33.069 36.7948C31.99 35.7313 31.3727 34.2859 31.3504 32.7711C31.3281 31.2562 31.9027 29.7933 32.9499 28.6985C33.9972 27.6037 35.4331 26.9648 36.9475 26.9198L37.1173 26.9147V26.7448V25.6914C37.1173 25.274 37.283 24.8738 37.5781 24.5787C37.8732 24.2836 38.2734 24.1179 38.6907 24.1179C39.1081 24.1179 39.5083 24.2836 39.8034 24.5787C40.0985 24.8738 40.2642 25.274 40.2642 25.6914V26.7405V26.9155H40.4392H41.4553C41.4553 26.9155 41.4553 26.9155 41.4553 26.9155C42.0335 26.9155 42.6057 27.0326 43.1374 27.2596C43.6692 27.4866 44.1495 27.8189 44.5494 28.2365C44.9493 28.654 45.2606 29.1482 45.4646 29.6892C45.6685 30.2303 45.7608 30.807 45.736 31.3846C45.718 31.8016 45.5352 32.1943 45.2277 32.4764C44.9201 32.7586 44.5132 32.907 44.0962 32.889C43.6793 32.8711 43.2865 32.6883 43.0044 32.3807C42.8647 32.2285 42.7564 32.0502 42.6856 31.8561C42.6148 31.6619 42.5829 31.4558 42.5918 31.2493L42.5921 31.242L42.5918 31.2346C42.578 30.8974 42.4824 30.6133 42.284 30.406C42.0855 30.1988 41.8059 30.0911 41.4698 30.063L41.4626 30.0624H41.4553H37.1171C36.4215 30.0624 35.7543 30.3388 35.2624 30.8307C34.7706 31.3226 34.4942 31.9897 34.4942 32.6853C34.4942 33.381 34.7706 34.0481 35.2624 34.54C35.7543 35.0319 36.4215 35.3082 37.1171 35.3082H40.0882C41.5975 35.3308 43.0398 35.9348 44.1147 36.9945C45.1899 38.0544 45.8145 39.4885 45.8583 40.9977C45.9021 42.5069 45.3617 43.9748 44.3497 45.0953C43.3378 46.2158 41.9324 46.9025 40.4265 47.0123L40.2642 47.0241V47.1868V48.2469C40.2642 48.6642 40.0985 49.0644 39.8034 49.3595C39.5083 49.6546 39.1081 49.8204 38.6907 49.8204C38.2734 49.8204 37.8732 49.6546 37.5781 49.3595C37.283 49.0644 37.1173 48.6642 37.1173 48.2469V47.1978V47.0228H36.9423H35.6818C35.1125 47.0229 34.5489 46.9095 34.0239 46.6893C33.499 46.4691 33.0231 46.1465 32.6242 45.7404C32.2253 45.3342 31.9113 44.8527 31.7006 44.3239C31.4898 43.795 31.3866 43.2295 31.3969 42.6604C31.3969 42.6603 31.3969 42.6603 31.3969 42.6603L31.4002 42.4792L31.4002 42.4791C31.4077 42.0618 31.5806 41.6646 31.881 41.3747C32.1813 41.0849 32.5845 40.9263 33.0019 40.9338C33.4192 40.9413 33.8165 41.1142 34.1063 41.4146C34.3935 41.7123 34.5519 42.1111 34.5474 42.5245C34.4522 43.1932 34.9527 43.8912 35.6837 43.8758H40.0895V43.8759L40.0957 43.8757C40.798 43.851 41.4632 43.5546 41.9513 43.049C42.4393 42.5435 42.7121 41.8682 42.7121 41.1655C42.7121 40.4628 42.4393 39.7875 41.9513 39.282C41.4632 38.7764 40.798 38.4801 40.0957 38.4553Z" fill="#00A4AD" stroke="white" stroke-width="0.35"/>
</svg>
