<svg width="1221" height="88" viewBox="0 0 1221 88" fill="none" xmlns="http://www.w3.org/2000/svg">
<path d="M83.875 42.625H82.4656C82.107 32.9023 78.0842 23.6751 71.2045 16.7955C64.3249 9.91581 55.0977 5.89296 45.375 5.53438V4.125C45.375 3.76033 45.2301 3.41059 44.9723 3.15273C44.7144 2.89487 44.3647 2.75 44 2.75C43.6353 2.75 43.2856 2.89487 43.0277 3.15273C42.7699 3.41059 42.625 3.76033 42.625 4.125V5.53438C32.9023 5.89296 23.6751 9.91581 16.7955 16.7955C9.91581 23.6751 5.89296 32.9023 5.53438 42.625H4.125C3.76033 42.625 3.41059 42.7699 3.15273 43.0277C2.89487 43.2856 2.75 43.6353 2.75 44C2.75 44.3647 2.89487 44.7144 3.15273 44.9723C3.41059 45.2301 3.76033 45.375 4.125 45.375H5.53438C5.89296 55.0977 9.91581 64.3249 16.7955 71.2045C23.6751 78.0842 32.9023 82.107 42.625 82.4656V83.875C42.625 84.2397 42.7699 84.5894 43.0277 84.8473C43.2856 85.1051 43.6353 85.25 44 85.25C44.3647 85.25 44.7144 85.1051 44.9723 84.8473C45.2301 84.5894 45.375 84.2397 45.375 83.875V82.4656C55.0977 82.107 64.3249 78.0842 71.2045 71.2045C78.0842 64.3249 82.107 55.0977 82.4656 45.375H83.875C84.2397 45.375 84.5894 45.2301 84.8473 44.9723C85.1051 44.7144 85.25 44.3647 85.25 44C85.25 43.6353 85.1051 43.2856 84.8473 43.0277C84.5894 42.7699 84.2397 42.625 83.875 42.625ZM45.375 79.7156V78.375C45.375 78.0103 45.2301 77.6606 44.9723 77.4027C44.7144 77.1449 44.3647 77 44 77C43.6353 77 43.2856 77.1449 43.0277 77.4027C42.7699 77.6606 42.625 78.0103 42.625 78.375V79.7156C33.6314 79.3589 25.1025 75.6264 18.7381 69.2619C12.3736 62.8975 8.64111 54.3686 8.28438 45.375H9.625C9.98967 45.375 10.3394 45.2301 10.5973 44.9723C10.8551 44.7144 11 44.3647 11 44C11 43.6353 10.8551 43.2856 10.5973 43.0277C10.3394 42.7699 9.98967 42.625 9.625 42.625H8.28438C8.64111 33.6314 12.3736 25.1025 18.7381 18.7381C25.1025 12.3736 33.6314 8.64111 42.625 8.28438V9.625C42.625 9.98967 42.7699 10.3394 43.0277 10.5973C43.2856 10.8551 43.6353 11 44 11C44.3647 11 44.7144 10.8551 44.9723 10.5973C45.2301 10.3394 45.375 9.98967 45.375 9.625V8.28438C54.3686 8.64111 62.8975 12.3736 69.2619 18.7381C75.6264 25.1025 79.3589 33.6314 79.7156 42.625H78.375C78.0103 42.625 77.6606 42.7699 77.4027 43.0277C77.1449 43.2856 77 43.6353 77 44C77 44.3647 77.1449 44.7144 77.4027 44.9723C77.6606 45.2301 78.0103 45.375 78.375 45.375H79.7156C79.3589 54.3686 75.6264 62.8975 69.2619 69.2619C62.8975 75.6264 54.3686 79.3589 45.375 79.7156V79.7156Z" fill="#00A4AD"/>
<path d="M44 12.375C37.7452 12.375 31.6308 14.2298 26.4301 17.7048C21.2294 21.1798 17.1759 26.1189 14.7823 31.8976C12.3887 37.6763 11.7624 44.0351 12.9827 50.1697C14.2029 56.3044 17.2149 61.9394 21.6378 66.3622C26.0606 70.7851 31.6956 73.7971 37.8303 75.0173C43.9649 76.2376 50.3237 75.6113 56.1024 73.2177C61.8811 70.8241 66.8202 66.7706 70.2952 61.5699C73.7702 56.3692 75.625 50.2548 75.625 44C75.6155 35.6154 72.2806 27.577 66.3518 21.6482C60.423 15.7194 52.3846 12.3845 44 12.375V12.375ZM44 72.875C38.2891 72.875 32.7064 71.1815 27.9579 68.0087C23.2095 64.8359 19.5085 60.3262 17.323 55.05C15.1375 49.7738 14.5657 43.968 15.6798 38.3668C16.794 32.7656 19.5441 27.6205 23.5823 23.5823C27.6205 19.544 32.7656 16.794 38.3668 15.6798C43.968 14.5657 49.7738 15.1375 55.05 17.323C60.3262 19.5085 64.8359 23.2094 68.0087 27.9579C71.1815 32.7064 72.875 38.2891 72.875 44C72.8666 51.6556 69.8218 58.9952 64.4085 64.4085C58.9952 69.8218 51.6556 72.8666 44 72.875V72.875Z" fill="#00A4AD"/>
<path d="M44 20.625C39.3769 20.625 34.8576 21.9959 31.0136 24.5644C27.1696 27.1329 24.1735 30.7835 22.4043 35.0548C20.6351 39.326 20.1722 44.0259 21.0742 48.5602C21.9761 53.0945 24.2023 57.2596 27.4714 60.5286C30.7404 63.7977 34.9055 66.0239 39.4398 66.9259C43.9741 67.8278 48.674 67.3649 52.9452 65.5957C57.2165 63.8265 60.8671 60.8305 63.4356 56.9865C66.0041 53.1425 67.375 48.6231 67.375 44C67.3681 37.8027 64.9032 31.8612 60.521 27.479C56.1388 23.0969 50.1973 20.6319 44 20.625V20.625ZM30.25 59.3299V53.625C30.2528 51.3106 31.0894 49.0747 32.6066 47.3269C34.1238 45.5791 36.2199 44.4366 38.511 44.1086C38.5322 44.8862 38.7729 45.642 39.2052 46.2886C39.6376 46.9353 40.2439 47.4465 40.9544 47.7634L38.5413 57.4159C38.4915 57.6143 38.4867 57.8213 38.5272 58.0218C38.5676 58.2224 38.6523 58.4113 38.775 58.575L42.9 64.075C43.0281 64.2458 43.1942 64.3844 43.3851 64.4798C43.576 64.5753 43.7865 64.625 44 64.625C44.2135 64.625 44.424 64.5753 44.6149 64.4798C44.8059 64.3844 44.9719 64.2458 45.1 64.075L49.225 58.575C49.3477 58.4113 49.4324 58.2224 49.4728 58.0218C49.5133 57.8213 49.5085 57.6143 49.4588 57.4159L47.0456 47.7647C47.7563 47.4478 48.3628 46.9364 48.7951 46.2894C49.2275 45.6425 49.468 44.8864 49.489 44.1086C51.7801 44.4366 53.8762 45.5791 55.3934 47.3269C56.9106 49.0747 57.7472 51.3106 57.75 53.625V59.3299C53.9813 62.738 49.0812 64.6251 44 64.6251C38.9188 64.6251 34.0187 62.738 30.25 59.3299V59.3299ZM43.6989 48.125H44.3011L46.6386 57.4489L44 60.9579L41.3669 57.4489L43.6989 48.125ZM45.375 45.375H42.625C42.2603 45.375 41.9106 45.2301 41.6527 44.9723C41.3949 44.7144 41.25 44.3647 41.25 44H46.75C46.75 44.3647 46.6051 44.7144 46.3473 44.9723C46.0894 45.2301 45.7397 45.375 45.375 45.375ZM44 39.875C42.9122 39.875 41.8488 39.5524 40.9444 38.9481C40.0399 38.3437 39.335 37.4848 38.9187 36.4798C38.5024 35.4748 38.3935 34.3689 38.6057 33.302C38.8179 32.2351 39.3417 31.2551 40.1109 30.4859C40.8801 29.7167 41.8601 29.1929 42.927 28.9807C43.9939 28.7685 45.0998 28.8774 46.1048 29.2937C47.1098 29.7099 47.9687 30.4149 48.5731 31.3194C49.1774 32.2238 49.5 33.2872 49.5 34.375C49.5 35.8337 48.9205 37.2326 47.8891 38.2641C46.8576 39.2955 45.4587 39.875 44 39.875V39.875ZM60.5 56.3227V53.625C60.4966 50.4133 59.2447 47.3287 57.0089 45.023C54.773 42.7174 51.7283 41.3713 48.5183 41.2692C50.0047 40.2963 51.1374 38.8694 51.7478 37.201C52.3582 35.5325 52.4137 33.7116 51.906 32.0091C51.3984 30.3066 50.3547 28.8134 48.9302 27.7517C47.5057 26.69 45.7766 26.1165 44 26.1165C42.2234 26.1165 40.4943 26.69 39.0698 27.7517C37.6453 28.8134 36.6017 30.3066 36.094 32.0091C35.5863 33.7116 35.6418 35.5325 36.2522 37.201C36.8626 38.8694 37.9953 40.2963 39.4818 41.2692C36.2722 41.373 33.2286 42.7196 30.9931 45.0249C28.7576 47.3302 27.5051 50.4138 27.5 53.625V56.3227C25.2018 53.2585 23.8023 49.6148 23.4583 45.8C23.1144 41.9852 23.8395 38.1499 25.5524 34.724C27.2654 31.298 29.8985 28.4168 33.1568 26.4031C36.4151 24.3894 40.1697 23.3227 44 23.3227C47.8303 23.3227 51.585 24.3894 54.8432 26.4031C58.1015 28.4168 60.7346 31.298 62.4476 34.724C64.1605 38.1499 64.8856 41.9852 64.5417 45.8C64.1977 49.6148 62.7982 53.2585 60.5 56.3227V56.3227Z" fill="#00A4AD"/>
<path d="M396.158 31.7819L389.959 9.76032C389.872 9.45097 389.722 9.16096 389.517 8.90686C389.313 8.65275 389.057 8.43953 388.766 8.27938C388.474 8.11923 388.152 8.01529 387.818 7.97349C387.485 7.93169 387.146 7.95286 386.82 8.03578L383.333 8.92547C383.036 8.99894 382.756 9.12281 382.506 9.2911L375.001 14.3964L368.518 9.11194C367.817 8.53988 366.925 8.22537 366.001 8.22537C365.078 8.22537 364.185 8.53988 363.485 9.11194L328.891 37.4723C328.473 37.8165 328.138 38.2425 327.908 38.7212C327.679 39.1999 327.561 39.7201 327.563 40.2461V76.9061C327.563 77.8758 327.967 78.8058 328.688 79.4915C329.409 80.1772 330.387 80.5624 331.406 80.5624H400.594C401.613 80.5624 402.591 80.1772 403.312 79.4915C404.033 78.8058 404.438 77.8758 404.438 76.9061V40.2461C404.439 39.7196 404.321 39.1989 404.092 38.7197C403.862 38.2405 403.526 37.8142 403.108 37.4698L396.158 31.7819ZM401.848 77.0353L378.463 59.2343L401.875 41.4125V76.9061C401.869 76.9496 401.86 76.9928 401.848 77.0353V77.0353ZM330.125 76.9061V41.4113L353.544 59.2343L330.152 77.0353C330.14 76.9928 330.131 76.9497 330.125 76.9061V76.9061ZM365.195 53.4854C365.425 53.3149 365.707 53.2223 365.998 53.2223C366.289 53.2223 366.572 53.3149 366.801 53.4854L399.177 78.1249H332.822L365.195 53.4854ZM387.48 10.3904L394.112 33.9354L391.637 34.5655L385.005 11.0217L387.48 10.3904ZM364.719 23.7686L367.371 33.1871L359.94 35.0798C358.626 35.4144 357.226 35.2388 356.048 34.5916C354.871 33.9444 354.011 32.8787 353.66 31.629C353.308 30.3792 353.493 29.0477 354.173 27.9274C354.853 26.8071 355.974 25.9898 357.288 25.6553L364.719 23.7686ZM366.797 35.8562L369.119 44.0974C369.206 44.4095 369.16 44.7419 368.99 45.0216C368.82 45.3013 368.541 45.5054 368.213 45.5891V45.5891C367.885 45.6725 367.535 45.6286 367.241 45.467C366.947 45.3055 366.732 45.0395 366.644 44.7275L364.323 36.4875L366.797 35.8562ZM369.949 32.9166L367.093 22.7766L382.677 12.1734L389.015 34.6752L369.949 32.9166ZM365.161 10.9547C365.394 10.7613 365.693 10.6547 366.003 10.6547C366.312 10.6547 366.611 10.7613 366.844 10.9547L372.853 15.8528L365.066 21.1471L356.93 23.219C355.029 23.6736 353.373 24.7845 352.285 26.3358C351.197 27.8871 350.754 29.7679 351.043 31.6125C351.226 32.6131 351.626 33.5665 352.217 34.412C352.809 35.2574 353.58 35.9763 354.479 36.5229C355.379 37.0694 356.389 37.4317 357.444 37.5866C358.5 37.7414 359.577 37.6855 360.609 37.4223L361.846 37.1078L364.133 45.2284C364.33 45.9838 364.765 46.6641 365.379 47.1784C365.853 47.5639 366.42 47.8336 367.029 47.9642C367.638 48.0948 368.271 48.0824 368.874 47.9279V47.9279C369.478 47.7748 370.034 47.4838 370.493 47.08C370.953 46.6763 371.301 46.172 371.509 45.6111C371.767 44.8737 371.783 44.0793 371.554 43.3332L369.293 35.2992L390.375 37.2492C390.68 37.2783 390.989 37.2544 391.286 37.1785L394.776 36.2888C395.103 36.2059 395.409 36.0618 395.677 35.8649C395.944 35.6679 396.168 35.4222 396.335 35.142L400.997 38.9579L376.413 57.6767L368.399 51.5768C367.717 51.0586 366.871 50.7762 365.998 50.7762C365.126 50.7762 364.279 51.0586 363.598 51.5768L355.594 57.6706L331.001 38.9579L365.161 10.9547Z" fill="#00A4AD"/>
<path d="M395.745 20.9009C395.817 21.1603 395.978 21.3895 396.202 21.553C396.426 21.7165 396.7 21.8052 396.982 21.8052C397.094 21.8053 397.206 21.791 397.314 21.7626L402.265 20.5012C402.593 20.4175 402.873 20.2131 403.043 19.9332C403.213 19.6532 403.259 19.3205 403.171 19.0082C403.083 18.696 402.868 18.4298 402.574 18.2682C402.279 18.1066 401.929 18.0628 401.601 18.1466L396.65 19.4092C396.322 19.4929 396.043 19.697 395.873 19.9767C395.703 20.2564 395.657 20.5889 395.745 20.9009V20.9009Z" fill="#00A4AD"/>
<path d="M394.242 14.9328C394.41 14.9329 394.577 14.9014 394.733 14.8402C394.889 14.7789 395.03 14.689 395.149 14.5757L398.772 11.1291C398.895 11.0166 398.992 10.8822 399.06 10.7335C399.127 10.5848 399.162 10.4249 399.164 10.263C399.165 10.1012 399.133 9.94072 399.068 9.79094C399.004 9.64116 398.909 9.50509 398.788 9.39065C398.668 9.27622 398.525 9.18573 398.367 9.12445C398.21 9.06317 398.041 9.03233 397.871 9.03374C397.701 9.03514 397.533 9.06876 397.377 9.13264C397.22 9.19651 397.079 9.28936 396.961 9.40576L393.336 12.8524C393.157 13.0228 393.035 13.24 392.986 13.4763C392.936 13.7127 392.961 13.9577 393.058 14.1804C393.155 14.4031 393.32 14.5934 393.53 14.7273C393.741 14.8612 393.989 14.9327 394.242 14.9328Z" fill="#00A4AD"/>
<path d="M396.983 27.5249C396.94 27.6795 396.928 27.8407 396.95 27.9994C396.972 28.1581 397.027 28.3112 397.111 28.4498C397.195 28.5885 397.307 28.71 397.441 28.8074C397.574 28.9049 397.726 28.9764 397.889 29.0178L402.84 30.2792C402.948 30.3076 403.059 30.3219 403.172 30.3219C403.483 30.322 403.783 30.2146 404.017 30.0197C404.251 29.8247 404.402 29.5555 404.442 29.2623C404.483 28.9691 404.41 28.6718 404.237 28.4259C404.065 28.18 403.804 28.0023 403.503 27.9258L398.553 26.6632C398.39 26.6217 398.221 26.6111 398.054 26.632C397.887 26.6528 397.726 26.7048 397.58 26.7848C397.435 26.8648 397.307 26.9713 397.204 27.0983C397.102 27.2253 397.027 27.3702 396.983 27.5249V27.5249Z" fill="#00A4AD"/>
<path d="M704.375 29.5625H699.449C699.374 29.3735 699.3 29.1911 699.221 29.0126L702.704 25.5292C702.95 25.2831 703.088 24.9493 703.088 24.6012C703.088 24.2532 702.95 23.9194 702.704 23.6733L697.139 18.1083C696.893 17.8623 696.559 17.724 696.211 17.724C695.863 17.724 695.529 17.8623 695.283 18.1083L691.8 21.5917C691.621 21.5143 691.439 21.4381 691.25 21.3633V16.4375C691.25 16.0894 691.112 15.7556 690.866 15.5094C690.619 15.2633 690.286 15.125 689.938 15.125H682.062C681.714 15.125 681.381 15.2633 681.134 15.5094C680.888 15.7556 680.75 16.0894 680.75 16.4375V21.3633C680.561 21.4381 680.379 21.5143 680.2 21.5917L676.717 18.1083C676.466 17.8712 676.134 17.7391 675.789 17.7391C675.444 17.7391 675.112 17.8712 674.861 18.1083L669.296 23.6733C669.05 23.9194 668.912 24.2532 668.912 24.6012C668.912 24.9493 669.05 25.2831 669.296 25.5292L672.779 29.0126C672.7 29.1911 672.626 29.3735 672.551 29.5625H667.625C667.277 29.5625 666.943 29.7008 666.697 29.9469C666.451 30.1931 666.312 30.5269 666.312 30.875V38.75C666.312 39.0981 666.451 39.4319 666.697 39.6781C666.943 39.9242 667.277 40.0625 667.625 40.0625H672.551C672.626 40.2515 672.7 40.4339 672.779 40.6111L669.296 44.0958C669.05 44.3419 668.912 44.6757 668.912 45.0237C668.912 45.3718 669.05 45.7056 669.296 45.9517L674.861 51.5167C675.107 51.7627 675.441 51.901 675.789 51.901C676.137 51.901 676.471 51.7627 676.717 51.5167L680.2 48.0333C680.379 48.1108 680.561 48.1869 680.75 48.2617V53.1875C680.75 53.5356 680.888 53.8694 681.134 54.1156C681.381 54.3617 681.714 54.5 682.062 54.5H689.938C690.286 54.5 690.619 54.3617 690.866 54.1156C691.112 53.8694 691.25 53.5356 691.25 53.1875V48.2617C691.439 48.1869 691.621 48.1108 691.8 48.0333L695.283 51.5167C695.534 51.7538 695.866 51.8859 696.211 51.8859C696.556 51.8859 696.888 51.7538 697.139 51.5167L702.704 45.9517C702.95 45.7056 703.088 45.3718 703.088 45.0237C703.088 44.6757 702.95 44.3419 702.704 44.0958L699.221 40.6111C699.3 40.4339 699.374 40.2515 699.449 40.0625H704.375C704.723 40.0625 705.057 39.9242 705.303 39.6781C705.549 39.4319 705.688 39.0981 705.688 38.75V30.875C705.688 30.5269 705.549 30.1931 705.303 29.9469C705.057 29.7008 704.723 29.5625 704.375 29.5625ZM703.062 37.4375H698.521C698.243 37.4375 697.973 37.5257 697.748 37.6894C697.524 37.8531 697.357 38.0838 697.272 38.3484C697.068 39.0048 696.802 39.6403 696.478 40.2462C696.341 40.4952 696.29 40.7815 696.33 41.0624C696.37 41.3432 696.5 41.6035 696.701 41.8042L699.919 45.0237L696.211 48.7329L692.992 45.5133C692.791 45.3124 692.53 45.1821 692.249 45.1418C691.968 45.1016 691.681 45.1537 691.432 45.2902C690.827 45.6155 690.191 45.8814 689.535 46.0843C689.27 46.1695 689.04 46.3364 688.876 46.5609C688.713 46.7855 688.625 47.056 688.625 47.3338V51.875H683.375V47.3338C683.375 47.056 683.287 46.7855 683.124 46.5609C682.96 46.3364 682.73 46.1695 682.465 46.0843C681.809 45.8814 681.173 45.6155 680.568 45.2902C680.319 45.1537 680.032 45.1016 679.751 45.1418C679.47 45.1821 679.209 45.3124 679.008 45.5133L675.789 48.7329L672.087 45.0237L675.306 41.8042C675.506 41.6035 675.637 41.3432 675.677 41.0624C675.717 40.7815 675.665 40.4952 675.529 40.2462C675.204 39.6403 674.938 39.0048 674.735 38.3484C674.649 38.0828 674.482 37.8513 674.256 37.6875C674.03 37.5237 673.758 37.4361 673.479 37.4375H668.938V32.1875H673.479C673.757 32.1875 674.027 32.0993 674.252 31.9356C674.476 31.7719 674.643 31.5412 674.728 31.2766C674.932 30.6202 675.198 29.9847 675.522 29.3788C675.659 29.1298 675.71 28.8435 675.67 28.5626C675.63 28.2818 675.5 28.0215 675.299 27.8208L672.087 24.6012L675.795 20.8921L679.015 24.1117C679.216 24.3126 679.476 24.4429 679.757 24.4832C680.038 24.5234 680.325 24.4713 680.574 24.3348C681.18 24.0095 681.815 23.7436 682.472 23.5408C682.735 23.4544 682.964 23.287 683.126 23.0625C683.288 22.8381 683.376 22.5681 683.375 22.2913V17.75H688.625V22.2913C688.625 22.569 688.713 22.8395 688.876 23.0641C689.04 23.2886 689.27 23.4555 689.535 23.5408C690.191 23.7436 690.827 24.0095 691.432 24.3348C691.681 24.4713 691.968 24.5234 692.249 24.4832C692.53 24.4429 692.791 24.3126 692.992 24.1117L696.211 20.8921L699.919 24.6012L696.701 27.8208C696.5 28.0215 696.37 28.2818 696.33 28.5626C696.29 28.8435 696.341 29.1298 696.478 29.3788C696.802 29.9847 697.068 30.6202 697.272 31.2766C697.357 31.5412 697.524 31.7719 697.748 31.9356C697.973 32.0993 698.243 32.1875 698.521 32.1875H703.062V37.4375Z" fill="#00A4AD"/>
<path d="M686 26.9375C684.442 26.9375 682.92 27.3994 681.625 28.2647C680.33 29.13 679.32 30.3599 678.724 31.7989C678.128 33.2378 677.972 34.8212 678.276 36.3488C678.58 37.8764 679.33 39.2796 680.432 40.381C681.533 41.4823 682.936 42.2323 684.464 42.5362C685.991 42.84 687.575 42.6841 689.014 42.088C690.453 41.492 691.683 40.4826 692.548 39.1876C693.413 37.8926 693.875 36.37 693.875 34.8125C693.873 32.7246 693.043 30.7227 691.566 29.2463C690.09 27.7699 688.088 26.9396 686 26.9375V26.9375ZM686 40.0625C684.962 40.0625 683.947 39.7546 683.083 39.1777C682.22 38.6008 681.547 37.7809 681.15 36.8216C680.752 35.8623 680.648 34.8067 680.851 33.7883C681.053 32.7699 681.553 31.8344 682.288 31.1002C683.022 30.366 683.957 29.8659 684.976 29.6634C685.994 29.4608 687.05 29.5648 688.009 29.9621C688.968 30.3595 689.788 31.0324 690.365 31.8958C690.942 32.7591 691.25 33.7741 691.25 34.8125C691.25 36.2049 690.697 37.5402 689.712 38.5248C688.728 39.5094 687.392 40.0625 686 40.0625V40.0625Z" fill="#00A4AD"/>
<path d="M718.813 51.8753C717.527 51.8755 716.27 52.2559 715.199 52.9686L710.225 47.9942C712.345 44.0959 713.49 39.7428 713.563 35.3063C713.634 30.5542 712.457 25.8665 710.15 21.7114L715.205 16.6569C716.565 17.5574 718.212 17.9206 719.825 17.6759C721.438 17.4312 722.903 16.5962 723.935 15.3327C724.967 14.0693 725.493 12.4675 725.412 10.838C725.33 9.2085 724.646 7.66749 723.492 6.51382C722.338 5.36015 720.797 4.67606 719.168 4.59423C717.538 4.51239 715.937 5.03865 714.673 6.07093C713.41 7.1032 712.575 8.56792 712.33 10.181C712.085 11.7941 712.448 13.4405 713.349 14.8011L708.737 19.4132C706.369 15.9001 703.224 12.9793 699.546 10.8771C695.868 8.77494 691.755 7.54786 687.527 7.29094C683.78 7.06714 680.027 7.61845 676.503 8.91041C672.978 10.2024 669.758 12.2072 667.044 14.7998C665.601 16.1697 664.31 17.6904 663.192 19.3358L658.657 14.8011C659.557 13.4405 659.921 11.7941 659.676 10.181C659.431 8.56792 658.596 7.1032 657.333 6.07093C656.069 5.03865 654.467 4.51239 652.838 4.59423C651.209 4.67606 649.667 5.36015 648.514 6.51382C647.36 7.66749 646.676 9.2085 646.594 10.838C646.512 12.4675 647.039 14.0693 648.071 15.3327C649.103 16.5962 650.568 17.4312 652.181 17.6759C653.794 17.9206 655.441 17.5574 656.801 16.6569L661.779 21.6353C659.582 25.6761 658.433 30.2034 658.438 34.803C658.442 39.4026 659.6 43.9276 661.806 47.964L656.801 52.9686C655.441 52.0681 653.794 51.7049 652.181 51.9496C650.568 52.1943 649.103 53.0293 648.071 54.2928C647.039 55.5562 646.512 57.158 646.594 58.7875C646.676 60.417 647.36 61.958 648.514 63.1117C649.667 64.2653 651.209 64.9494 652.838 65.0313C654.467 65.1131 656.069 64.5869 657.333 63.5546C658.596 62.5223 659.431 61.0576 659.676 59.4445C659.921 57.8314 659.557 56.185 658.657 54.8244L663.203 50.2779C665.55 53.7497 668.657 56.6401 672.29 58.7291C673.272 59.304 674.086 60.1274 674.65 61.1164C675.213 62.1055 675.507 63.2254 675.5 64.3637V65.0003H672.875C672.527 65.0003 672.193 65.1385 671.947 65.3847C671.701 65.6308 671.563 65.9647 671.563 66.3128V76.8128C671.563 77.1608 671.701 77.4947 671.947 77.7408C672.193 77.987 672.527 78.1253 672.875 78.1253H678.125V79.4378C678.125 80.482 678.54 81.4836 679.279 82.222C680.017 82.9604 681.018 83.3753 682.063 83.3753H689.938C690.982 83.3753 691.984 82.9604 692.722 82.222C693.46 81.4836 693.875 80.482 693.875 79.4378V78.1253H699.125C699.473 78.1253 699.807 77.987 700.053 77.7408C700.299 77.4947 700.438 77.1608 700.438 76.8128V66.3128C700.438 65.9647 700.299 65.6308 700.053 65.3847C699.807 65.1385 699.473 65.0003 699.125 65.0003H696.5V64.3663C696.513 63.1891 696.837 62.0363 697.438 61.0243C698.04 60.0123 698.898 59.1771 699.926 58.6031C703.473 56.5344 706.514 53.7006 708.827 50.3081L713.344 54.8244C712.539 56.0446 712.164 57.4986 712.28 58.9558C712.395 60.413 712.994 61.7899 713.981 62.8682C714.967 63.9466 716.286 64.6645 717.727 64.9083C719.169 65.1521 720.65 64.9077 721.936 64.214C723.223 63.5202 724.241 62.4167 724.829 61.0786C725.418 59.7404 725.542 58.2442 725.184 56.8272C724.825 55.4101 724.003 54.1534 722.849 53.2564C721.695 52.3593 720.274 51.8732 718.813 51.8753ZM718.813 7.25025C719.592 7.25025 720.353 7.48118 721 7.91384C721.648 8.3465 722.153 8.96145 722.451 9.68093C722.749 10.4004 722.827 11.1921 722.675 11.9559C722.523 12.7197 722.148 13.4213 721.597 13.972C721.046 14.5227 720.345 14.8977 719.581 15.0496C718.817 15.2015 718.025 15.1235 717.306 14.8255C716.586 14.5275 715.972 14.0228 715.539 13.3753C715.106 12.7278 714.875 11.9665 714.875 11.1878C714.875 10.1435 715.29 9.14194 716.029 8.40352C716.767 7.66509 717.768 7.25025 718.813 7.25025V7.25025ZM653.188 15.1253C652.409 15.1253 651.648 14.8943 651 14.4617C650.353 14.029 649.848 13.4141 649.55 12.6946C649.252 11.9751 649.174 11.1834 649.326 10.4196C649.478 9.65578 649.853 8.95419 650.404 8.40352C650.954 7.85285 651.656 7.47784 652.42 7.32591C653.183 7.17398 653.975 7.25195 654.695 7.54997C655.414 7.84799 656.029 8.35267 656.462 9.00019C656.894 9.64771 657.125 10.409 657.125 11.1878C657.125 12.232 656.71 13.2336 655.972 13.972C655.234 14.7104 654.232 15.1253 653.188 15.1253V15.1253ZM653.188 62.3753C652.409 62.3753 651.648 62.1443 651 61.7117C650.353 61.279 649.848 60.664 649.55 59.9446C649.252 59.2251 649.174 58.4334 649.326 57.6696C649.478 56.9058 649.853 56.2042 650.404 55.6535C650.954 55.1029 651.656 54.7278 652.42 54.5759C653.183 54.424 653.975 54.502 654.695 54.8C655.414 55.098 656.029 55.6027 656.462 56.2502C656.894 56.8977 657.125 57.659 657.125 58.4378C657.125 59.482 656.71 60.4836 655.972 61.222C655.234 61.9604 654.232 62.3753 653.188 62.3753ZM691.25 79.4378C691.25 79.7858 691.112 80.1197 690.866 80.3658C690.62 80.612 690.286 80.7503 689.938 80.7503H682.063C681.715 80.7503 681.381 80.612 681.135 80.3658C680.889 80.1197 680.75 79.7858 680.75 79.4378V78.1253H691.25V79.4378ZM697.813 67.6253V75.5003H674.188V67.6253H697.813ZM698.6 56.3378C697.175 57.1411 695.988 58.3067 695.158 59.7166C694.328 61.1264 693.886 62.7305 693.875 64.3663V65.0003H678.125V64.3637C678.131 62.7636 677.716 61.1901 676.921 59.8013C676.126 58.4125 674.98 57.2574 673.597 56.4519C669.793 54.2622 666.632 51.1098 664.431 47.3113C662.231 43.5129 661.069 39.2024 661.063 34.8128C661.063 31.421 661.754 28.0649 663.095 24.9497C664.437 21.8344 666.399 19.0255 668.863 16.6947C671.327 14.3639 674.241 12.5602 677.426 11.394C680.61 10.2278 684 9.72349 687.386 9.912C693.811 10.3183 699.835 13.1738 704.217 17.8898C708.598 22.6059 711.004 28.8232 710.938 35.2603C710.878 39.5402 709.71 43.7314 707.548 47.4254C705.385 51.1194 702.303 54.19 698.6 56.3378ZM718.813 62.3753C718.034 62.3753 717.273 62.1443 716.625 61.7117C715.978 61.279 715.473 60.664 715.175 59.9446C714.877 59.2251 714.799 58.4334 714.951 57.6696C715.103 56.9058 715.478 56.2042 716.029 55.6535C716.579 55.1029 717.281 54.7278 718.045 54.5759C718.808 54.424 719.6 54.502 720.32 54.8C721.039 55.098 721.654 55.6027 722.087 56.2502C722.519 56.8977 722.75 57.659 722.75 58.4378C722.75 59.482 722.335 60.4836 721.597 61.222C720.859 61.9604 719.857 62.3753 718.813 62.3753Z" fill="#00A4AD"/>
<path d="M1217.26 60.9313C1216.91 60.3341 1216.46 59.8104 1215.91 59.3903C1215.36 58.9701 1214.74 58.6617 1214.07 58.4827C1213.41 58.3036 1212.72 58.2574 1212.03 58.3467C1211.35 58.436 1210.69 58.6591 1210.09 59.0032L1197.29 66.3913C1196.6 65.3434 1195.54 64.5838 1194.33 64.2532L1174.75 59.0032C1173.24 58.599 1171.65 58.5855 1170.14 58.9638L1163.25 60.6937V58.4375C1163.25 58.0894 1163.11 57.7556 1162.87 57.5094C1162.62 57.2633 1162.29 57.125 1161.94 57.125H1151.44C1151.09 57.125 1150.76 57.2633 1150.51 57.5094C1150.26 57.7556 1150.12 58.0894 1150.12 58.4375V59.75H1140.94C1140.59 59.75 1140.26 59.8883 1140.01 60.1344C1139.76 60.3806 1139.62 60.7144 1139.62 61.0625V79.4375C1139.62 79.7856 1139.76 80.1194 1140.01 80.3656C1140.26 80.6117 1140.59 80.75 1140.94 80.75H1150.12V82.0625C1150.12 82.4106 1150.26 82.7444 1150.51 82.9906C1150.76 83.2367 1151.09 83.375 1151.44 83.375H1161.94C1162.29 83.375 1162.62 83.2367 1162.87 82.9906C1163.11 82.7444 1163.25 82.4106 1163.25 82.0625V80.2486L1164.94 81.0926C1166.21 81.7291 1167.62 82.0611 1169.05 82.0625H1188.7C1190.32 82.0618 1191.9 81.6372 1193.3 80.8314L1215.35 68.1001C1216.55 67.3992 1217.42 66.2522 1217.78 64.9092C1218.14 63.5663 1217.95 62.1363 1217.26 60.9313V60.9313ZM1142.25 78.125V62.375H1150.12V78.125H1142.25ZM1160.62 80.75H1152.75V59.75H1160.62V80.75ZM1214.03 65.8321L1191.98 78.5634C1190.98 79.1394 1189.85 79.4427 1188.7 79.4428H1169.05C1168.03 79.4412 1167.02 79.204 1166.11 78.7498L1163.25 77.3139V63.4014L1170.78 61.5192C1171.86 61.2501 1172.99 61.2595 1174.07 61.5468L1193.65 66.7968C1193.99 66.8806 1194.31 67.0311 1194.59 67.2395C1194.87 67.4479 1195.1 67.71 1195.28 68.0106C1195.46 68.3111 1195.57 68.644 1195.62 68.9898C1195.67 69.3356 1195.65 69.6873 1195.56 70.0244C1195.47 70.3615 1195.31 70.6772 1195.09 70.9531C1194.88 71.2289 1194.61 71.4594 1194.31 71.631C1194.01 71.8025 1193.67 71.9118 1193.32 71.9523C1192.98 71.9928 1192.63 71.9638 1192.29 71.867L1176.64 67.6696C1176.3 67.5815 1175.94 67.6299 1175.64 67.8042C1175.34 67.9785 1175.13 68.2646 1175.04 68.5998C1174.95 68.935 1174.99 69.2922 1175.17 69.5931C1175.34 69.8939 1175.62 70.1141 1175.96 70.2054L1191.61 74.4054C1192.06 74.525 1192.52 74.5859 1192.98 74.5865C1193.7 74.592 1194.42 74.4455 1195.09 74.1564C1195.75 73.8674 1196.35 73.4422 1196.84 72.9084C1197.33 72.3745 1197.7 71.7438 1197.93 71.0569C1198.16 70.37 1198.25 69.6422 1198.18 68.9204L1211.4 61.2883C1212.01 60.9547 1212.72 60.8684 1213.38 61.0475C1214.05 61.2267 1214.62 61.6573 1214.98 62.249C1215.32 62.8509 1215.42 63.5647 1215.24 64.2356C1215.06 64.9064 1214.63 65.4801 1214.03 65.8321V65.8321Z" fill="#00A4AD"/>
<path d="M1057.26 60.9313C1056.91 60.3341 1056.46 59.8104 1055.91 59.3903C1055.36 58.9701 1054.74 58.6617 1054.07 58.4827C1053.41 58.3036 1052.72 58.2574 1052.03 58.3467C1051.35 58.436 1050.69 58.6591 1050.09 59.0032L1037.29 66.3913C1036.6 65.3434 1035.54 64.5838 1034.33 64.2532L1014.75 59.0032C1013.24 58.599 1011.65 58.5855 1010.14 58.9638L1003.25 60.6937V58.4375C1003.25 58.0894 1003.11 57.7556 1002.87 57.5094C1002.62 57.2633 1002.29 57.125 1001.94 57.125H991.438C991.089 57.125 990.756 57.2633 990.509 57.5094C990.263 57.7556 990.125 58.0894 990.125 58.4375V59.75H980.938C980.589 59.75 980.256 59.8883 980.009 60.1344C979.763 60.3806 979.625 60.7144 979.625 61.0625V79.4375C979.625 79.7856 979.763 80.1194 980.009 80.3656C980.256 80.6117 980.589 80.75 980.938 80.75H990.125V82.0625C990.125 82.4106 990.263 82.7444 990.509 82.9906C990.756 83.2367 991.089 83.375 991.438 83.375H1001.94C1002.29 83.375 1002.62 83.2367 1002.87 82.9906C1003.11 82.7444 1003.25 82.4106 1003.25 82.0625V80.2486L1004.94 81.0926C1006.21 81.7291 1007.62 82.0611 1009.05 82.0625H1028.7C1030.32 82.0618 1031.9 81.6372 1033.3 80.8314L1055.35 68.1001C1056.55 67.3992 1057.42 66.2522 1057.78 64.9092C1058.14 63.5663 1057.95 62.1363 1057.26 60.9313V60.9313ZM982.25 78.125V62.375H990.125V78.125H982.25ZM1000.62 80.75H992.75V59.75H1000.62V80.75ZM1054.03 65.8321L1031.98 78.5634C1030.98 79.1394 1029.85 79.4427 1028.7 79.4428H1009.05C1008.03 79.4412 1007.02 79.204 1006.11 78.7498L1003.25 77.3139V63.4014L1010.78 61.5192C1011.86 61.2501 1012.99 61.2595 1014.07 61.5468L1033.65 66.7968C1033.99 66.8806 1034.31 67.0311 1034.59 67.2395C1034.87 67.4479 1035.1 67.71 1035.28 68.0106C1035.46 68.3111 1035.57 68.644 1035.62 68.9898C1035.67 69.3356 1035.65 69.6873 1035.56 70.0244C1035.47 70.3615 1035.31 70.6772 1035.09 70.9531C1034.88 71.2289 1034.61 71.4594 1034.31 71.631C1034.01 71.8025 1033.67 71.9118 1033.32 71.9523C1032.98 71.9928 1032.63 71.9638 1032.29 71.867L1016.64 67.6696C1016.3 67.5815 1015.94 67.6299 1015.64 67.8042C1015.34 67.9785 1015.13 68.2646 1015.04 68.5998C1014.95 68.935 1014.99 69.2922 1015.17 69.5931C1015.34 69.8939 1015.62 70.1141 1015.96 70.2054L1031.61 74.4054C1032.06 74.525 1032.52 74.5859 1032.98 74.5865C1033.7 74.592 1034.42 74.4455 1035.09 74.1564C1035.75 73.8674 1036.35 73.4422 1036.84 72.9084C1037.33 72.3745 1037.7 71.7438 1037.93 71.0569C1038.16 70.37 1038.25 69.6422 1038.18 68.9204L1051.4 61.2883C1052.01 60.9547 1052.72 60.8684 1053.38 61.0475C1054.05 61.2267 1054.62 61.6573 1054.98 62.249C1055.32 62.8509 1055.42 63.5647 1055.24 64.2356C1055.06 64.9064 1054.63 65.4801 1054.03 65.8321V65.8321Z" fill="#00A4AD"/>
<path d="M1027.9 34.4435H1027.9L1027.9 34.4539C1028 35.4142 1028.61 36.2244 1029.47 36.5076L1029.6 36.5511V36.4126V31.9444V31.8599L1029.52 31.8458C1027.1 31.4359 1025.26 29.2424 1025.1 26.5565C1025.26 23.8711 1027.1 21.6784 1029.52 21.2687L1029.6 21.2546V21.1701V20.6428C1029.6 19.7819 1030.24 19.1 1031 19.1C1031.76 19.1 1032.4 19.7819 1032.4 20.6428V21.1701V21.2546L1032.48 21.2687C1034.9 21.6785 1036.74 23.8725 1036.9 26.5594C1036.9 27.4189 1036.26 28.0993 1035.5 28.0993C1034.74 28.0993 1034.1 27.4174 1034.1 26.5565H1034.1L1034.1 26.5461C1034 25.5856 1033.39 24.7754 1032.53 24.4921L1032.4 24.4485V24.587V29.0556V29.1401L1032.48 29.1542C1034.9 29.5641 1036.74 31.7576 1036.9 34.4435C1036.74 37.1289 1034.9 39.3216 1032.48 39.7313L1032.4 39.7454V39.8299V40.3572C1032.4 41.2181 1031.76 41.9 1031 41.9C1030.24 41.9 1029.6 41.2181 1029.6 40.3572V39.8299V39.7454L1029.52 39.7313C1027.1 39.3215 1025.26 37.1275 1025.1 34.4406C1025.1 33.5811 1025.74 32.9007 1026.5 32.9007C1027.26 32.9007 1027.9 33.5826 1027.9 34.4435ZM1032.53 32.378L1032.4 32.3343V32.4729V36.4128V36.5513L1032.53 36.5077C1033.39 36.2244 1034 35.414 1034.1 34.4537L1034.1 34.4433L1034.1 34.433C1034 33.4725 1033.39 32.6619 1032.53 32.378ZM1027.9 26.5461L1027.9 26.5565L1027.9 26.5668C1028 27.5275 1028.61 28.3381 1029.47 28.622L1029.6 28.6657V28.5271V24.5872V24.4487L1029.47 24.4922C1028.61 24.7754 1028 25.5858 1027.9 26.5461Z" fill="#00A4AD" stroke="#F6F6F6" stroke-width="0.2"/>
<circle cx="1031" cy="31" r="18.75" stroke="#00A4AD" stroke-width="2.5"/>
</svg>
