<svg width="659" height="226" viewBox="0 0 659 226" fill="none" xmlns="http://www.w3.org/2000/svg">
<g clip-path="url(#clip0)">
<path d="M57.8368 60.9677C58.5247 60.9677 59.0072 60.2892 58.7813 59.6394L56.5173 53.1255C55.5648 50.3875 53.1346 48.3666 50.1722 47.8495L42.6425 46.5357C42.4465 46.5015 42.3035 46.3314 42.3035 46.1324V46.1324C42.3035 45.9839 42.3843 45.8474 42.5126 45.7725C43.6519 45.1078 44.6623 44.2625 45.5052 43.2787C45.7047 43.0457 45.9925 42.9032 46.2992 42.9032H48.1906C50.138 42.9032 51.7228 41.3835 51.7228 39.5161V25.9677C51.7228 17.8748 44.8561 11.2903 36.4164 11.2903C27.9766 11.2903 21.1099 17.8748 21.1099 25.9677V33.8709C21.1099 35.8241 22.4096 37.4909 24.2229 38.1194C24.6037 38.2514 24.9129 38.5517 25.0175 38.9409C25.7924 41.8252 27.7297 44.2621 30.3201 45.7726C30.4484 45.8474 30.5293 45.9839 30.5293 46.1324V46.1324C30.5293 46.3314 30.3863 46.5015 30.1903 46.5357L22.6594 47.8495C19.6982 48.3666 17.2668 50.3875 16.3155 53.1255L15.8445 54.4814L11.8342 50.6359C11.375 50.1956 11.375 49.4787 11.8342 49.0384L15.7321 45.3016C16.1427 44.908 16.1428 44.2516 15.7322 43.8579L8.44777 36.8728C8.06091 36.5019 7.45038 36.5019 7.06353 36.8728L2.49965 41.2492C0.943099 42.7417 0.0859375 44.7266 0.0859375 46.8379C0.0859375 48.9492 0.943099 50.9329 2.49965 52.4254L18.4125 67.6843C19.969 69.1769 22.0389 70 24.2407 70C26.4425 70 28.5112 69.1769 30.0312 67.7182L34.9472 63.3991C35.3878 63.012 35.4023 62.3308 34.9786 61.9254L33.978 60.9677H57.8368ZM49.368 39.5161C49.368 40.1393 48.8393 40.6451 48.1906 40.6451H47.2004C47.451 40.0973 47.6572 39.5276 47.8153 38.9396C47.9198 38.551 48.2286 38.2512 48.6065 38.1127C48.8714 38.0156 49.1247 37.8953 49.368 37.7593V39.5161ZM48.1906 35.8151V31.9267C48.8911 32.3185 49.368 33.0388 49.368 33.8709C49.368 34.703 48.8911 35.4233 48.1906 35.8151ZM24.6422 35.8151C23.9416 35.4233 23.4648 34.703 23.4648 33.8709C23.4648 33.0388 23.9416 32.3185 24.6422 31.9267V35.8151ZM25.3664 28.2258C24.9664 28.2258 24.6422 28.55 24.6422 28.95V29.1163C24.6422 29.3507 24.477 29.5537 24.2552 29.6295V29.6295C23.8858 29.7557 23.4648 29.5012 23.4648 29.1108V25.9677C23.4648 19.1201 29.2753 13.5483 36.4164 13.5483C43.5574 13.5483 49.368 19.1201 49.368 25.9677V29.1115C49.368 29.5015 48.9473 29.7554 48.5782 29.6292V29.6292C48.3562 29.5533 48.1906 29.3503 48.1906 29.1156V28.9491C48.1906 28.5496 47.8667 28.2258 47.4672 28.2258H47.0132C43.5315 28.2258 40.2583 26.9251 37.7951 24.5643L37.1085 23.9059C36.7217 23.5349 36.1111 23.5349 35.7243 23.9059L35.0376 24.5643C32.5745 26.9251 29.3012 28.2258 25.8196 28.2258H25.3664ZM26.997 36.129V30.4409C30.225 30.208 33.2537 29.0218 35.7249 27.0225C36.1265 26.6975 36.7063 26.6975 37.1079 27.0225C39.5791 29.022 42.6078 30.209 45.8357 30.4409V36.129C45.8357 37.5764 45.4735 38.9417 44.8385 40.1544C44.6763 40.4643 44.3481 40.6451 43.9983 40.6451H37.4164C36.8641 40.6451 36.4164 41.0928 36.4164 41.6451V41.9032C36.4164 42.4555 36.8641 42.9032 37.4164 42.9032H42.6261C40.9659 44.3043 38.796 45.1613 36.4164 45.1613C31.2228 45.1613 26.997 41.1092 26.997 36.129ZM39.9101 46.9104C39.9293 46.9047 39.9487 46.9191 39.9487 46.9391V46.9391C39.9487 46.9473 39.9453 46.9551 39.9394 46.9607L36.4164 50.339L32.8933 46.9607C32.8875 46.9551 32.8841 46.9473 32.8841 46.9391V46.9391C32.8841 46.9191 32.9035 46.9047 32.9227 46.9104C34.0276 47.2395 35.2002 47.4193 36.4164 47.4193C37.6326 47.4193 38.8051 47.2395 39.9101 46.9104ZM18.5479 53.839C19.2272 51.8835 20.9639 50.4395 23.0798 50.0692L30.8114 48.7221C31.1248 48.6675 31.4455 48.7653 31.6752 48.9855L35.7243 52.8682C36.1111 53.2392 36.7217 53.2392 37.1085 52.8682L41.1564 48.9867C41.3861 48.7665 41.7068 48.6687 42.0202 48.7233L49.7507 50.0703C51.8665 50.4406 53.6032 51.8835 54.2826 53.8401L55.5146 57.381C55.7407 58.0309 55.2582 58.7096 54.5701 58.7096H32.0251C31.7671 58.7096 31.5192 58.61 31.333 58.4314L27.6954 54.9434C27.3224 54.5857 26.7384 54.5711 26.348 54.9097L21.9412 58.7322C21.4973 59.1601 20.7214 59.1601 20.2763 58.7322L18.1678 56.7104C17.8857 56.4398 17.787 56.0297 17.9153 55.6605L18.5479 53.839ZM7.75447 39.4021L13.1541 44.5798L11.8754 45.8059L6.47579 40.6282L7.75447 39.4021ZM28.4005 66.0901C27.289 67.1537 25.8102 67.7419 24.2383 67.7419C22.6665 67.7419 21.1876 67.1537 20.075 66.0879L4.16216 50.8301C3.05068 49.7643 2.43842 48.3463 2.43842 46.839C2.43842 45.3306 3.05068 43.9125 4.16216 42.8467L4.80974 42.2258L10.167 47.3629C10.1901 47.385 10.1901 47.422 10.167 47.4442V47.4442C8.7906 48.7651 8.7906 50.9137 10.167 52.2346L18.6103 60.3309C19.2779 60.97 20.1645 61.3234 21.1088 61.3234C22.053 61.3234 22.9396 60.9711 23.5637 60.3704V60.3704C23.6138 60.3275 23.6883 60.3296 23.7359 60.3753L28.427 64.8736C28.7763 65.2085 28.7641 65.7707 28.4005 66.0901V66.0901ZM30.8142 63.9675L25.4016 58.7774L26.957 57.4293L32.3602 62.6105L30.8142 63.9675Z" fill="#FF7369"/>
<path d="M69.3833 0H52.8994C50.952 0 49.3672 1.51968 49.3672 3.3871V12.4194C49.3672 14.2868 50.952 15.8065 52.8994 15.8065H56.0443L55.2137 20.4521C55.0627 21.2969 55.976 21.927 56.7122 21.4858L65.9516 15.9487C66.107 15.8556 66.2846 15.8065 66.4657 15.8065H69.3833C71.3308 15.8065 72.9156 14.2868 72.9156 12.4194V3.3871C72.9156 1.51968 71.3308 0 69.3833 0ZM70.5607 12.4194C70.5607 13.0415 70.0321 13.5484 69.3833 13.5484H65.7898C65.6088 13.5484 65.4311 13.5975 65.2758 13.6906L58.0354 18.0295L58.8372 13.5484H52.8994C52.2507 13.5484 51.722 13.0415 51.722 12.4194V3.3871C51.722 2.765 52.2507 2.25806 52.8994 2.25806H69.3833C70.0321 2.25806 70.5607 2.765 70.5607 3.3871V12.4194Z" fill="#FF7369"/>
<path d="M67.2071 4.51611H55.0781C54.5258 4.51611 54.0781 4.96383 54.0781 5.51611V5.77418C54.0781 6.32646 54.5258 6.77418 55.0781 6.77418H67.2071C67.7594 6.77418 68.2071 6.32646 68.2071 5.77418V5.51611C68.2071 4.96383 67.7594 4.51611 67.2071 4.51611Z" fill="#FF7369"/>
<path d="M62.4975 9.03223H55.0781C54.5258 9.03223 54.0781 9.47994 54.0781 10.0322V10.2903C54.0781 10.8426 54.5258 11.2903 55.0781 11.2903H62.4975C63.0498 11.2903 63.4975 10.8426 63.4975 10.2903V10.0322C63.4975 9.47994 63.0498 9.03223 62.4975 9.03223Z" fill="#FF7369"/>
<path d="M36.4176 3.38721C21.0334 3.38721 7.78155 13.5914 4.33642 27.8251L2.61633 25.0755C2.33105 24.6195 1.73612 24.4709 1.26986 24.7391L0.985507 24.9027C0.494183 25.1854 0.335809 25.8195 0.636529 26.3L3.71333 31.2162C3.99869 31.6721 4.59359 31.8207 5.05978 31.5524L10.2214 28.582C10.7126 28.2993 10.871 27.6653 10.5703 27.1848L10.4203 26.9451C10.135 26.4891 9.5401 26.3405 9.07388 26.6087L6.71834 27.964C10.0551 14.9429 22.2662 5.64527 36.4176 5.64527C39.1808 5.64527 41.9112 5.99669 44.5482 6.69148C45.0733 6.82983 45.6217 6.5425 45.7887 6.02582L45.8705 5.7728C46.0432 5.23847 45.7426 4.66526 45.1997 4.52166C42.3508 3.76807 39.4017 3.38721 36.4176 3.38721Z" fill="#FF7369"/>
<path d="M71.7915 25.8787C72.0922 25.3982 71.9338 24.7642 71.4426 24.4815L66.2812 21.5113C65.8149 21.2429 65.2199 21.3916 64.9346 21.8476L61.8586 26.7647C61.5581 27.2452 61.7165 27.8792 62.2077 28.1618L62.4923 28.3256C62.9585 28.5938 63.5535 28.4452 63.8388 27.9892L65.3881 25.5128C66.4725 28.5555 67.0271 31.7383 67.0271 35C67.0271 41.3716 64.8429 47.608 60.8579 52.6749C60.5065 53.1217 60.5729 53.773 61.0215 54.122L61.2703 54.3156C61.6936 54.6449 62.3028 54.5826 62.6365 54.1628C66.9934 48.6829 69.3819 41.9148 69.3819 35C69.3819 31.5463 68.8014 28.1739 67.6699 24.9449L70.2951 26.4549C70.7614 26.7231 71.3562 26.5745 71.6415 26.1185L71.7915 25.8787Z" fill="#FF7369"/>
</g>
<path d="M28.4844 177.742C28.4844 177.19 28.9321 176.742 29.4844 176.742H29.7747C30.327 176.742 30.7747 177.19 30.7747 177.742V177.935C30.7747 178.488 30.327 178.935 29.7747 178.935H29.4844C28.9321 178.935 28.4844 178.488 28.4844 177.935V177.742Z" fill="#FF7369"/>
<path d="M33.0664 177.742C33.0664 177.19 33.5141 176.742 34.0664 176.742H34.3567C34.909 176.742 35.3567 177.19 35.3567 177.742V177.935C35.3567 178.488 34.909 178.935 34.3567 178.935H34.0664C33.5141 178.935 33.0664 178.488 33.0664 177.935V177.742Z" fill="#FF7369"/>
<path d="M42.2266 190.903C42.2266 190.351 42.6743 189.903 43.2266 189.903H43.5169C44.0692 189.903 44.5169 190.351 44.5169 190.903V191.097C44.5169 191.649 44.0692 192.097 43.5169 192.097H43.2266C42.6743 192.097 42.2266 191.649 42.2266 191.097V190.903Z" fill="#FF7369"/>
<path d="M37.6445 190.903C37.6445 190.351 38.0922 189.903 38.6445 189.903H38.9349C39.4871 189.903 39.9349 190.351 39.9349 190.903V191.097C39.9349 191.649 39.4871 192.097 38.9349 192.097H38.6445C38.0922 192.097 37.6445 191.649 37.6445 191.097V190.903Z" fill="#FF7369"/>
<path d="M42.2266 204.064C42.2266 203.512 42.6743 203.064 43.2266 203.064H43.5169C44.0692 203.064 44.5169 203.512 44.5169 204.064V204.258C44.5169 204.81 44.0692 205.258 43.5169 205.258H43.2266C42.6743 205.258 42.2266 204.81 42.2266 204.258V204.064Z" fill="#FF7369"/>
<path d="M37.6445 204.064C37.6445 203.512 38.0922 203.064 38.6445 203.064H38.9349C39.4871 203.064 39.9349 203.512 39.9349 204.064V204.258C39.9349 204.81 39.4871 205.258 38.9349 205.258H38.6445C38.0922 205.258 37.6445 204.81 37.6445 204.258V204.064Z" fill="#FF7369"/>
<path d="M57.1129 189.903C60.2699 189.903 62.8387 187.443 62.8387 184.419V172.355H71C71.5523 172.355 72 171.907 72 171.355V158C72 157.448 71.5523 157 71 157H52.3871C51.8348 157 51.3871 157.448 51.3871 158V171.355C51.3871 171.907 51.8348 172.355 52.3871 172.355H60.5484V184.419C60.5484 186.233 59.0068 187.71 57.1129 187.71H48.886C48.5404 186.781 47.7766 186.049 46.8065 185.718V183.12C48.1361 182.665 49.0968 181.459 49.0968 180.031V175.644C49.0968 173.83 47.5552 172.354 45.6613 172.354H27.3387C25.4448 172.354 23.9032 173.83 23.9032 175.644V180.031C23.9032 181.459 24.8639 182.665 26.1935 183.12V185.718C25.2234 186.049 24.4596 186.781 24.114 187.71H15.8871C13.9932 187.71 12.4516 186.233 12.4516 184.419V172.355H20.6129C21.1652 172.355 21.6129 171.907 21.6129 171.355V158C21.6129 157.448 21.1652 157 20.6129 157H2C1.44772 157 1 157.448 1 158V171.355C1 171.907 1.44772 172.355 2 172.355H10.1613V184.419C10.1613 187.443 12.7301 189.903 15.8871 189.903H23.9032V192.097H15.8871C12.7301 192.097 10.1613 194.557 10.1613 197.581V209.645H2C1.44772 209.645 1 210.093 1 210.645V224C1 224.552 1.44772 225 2 225H20.6129C21.1652 225 21.6129 224.552 21.6129 224V210.645C21.6129 210.093 21.1652 209.645 20.6129 209.645H12.4516V197.581C12.4516 195.767 13.9932 194.29 15.8871 194.29H24.114C24.4596 195.219 25.2234 195.951 26.1935 196.282V198.88C24.8639 199.335 23.9032 200.541 23.9032 201.969V206.356C23.9032 208.17 25.4448 209.646 27.3387 209.646H45.6613C47.5552 209.646 49.0968 208.17 49.0968 206.356V201.969C49.0968 200.541 48.1361 199.335 46.8065 198.88V196.282C47.7766 195.951 48.5404 195.219 48.886 194.29H57.1129C59.0068 194.29 60.5484 195.767 60.5484 197.581V209.645H52.3871C51.8348 209.645 51.3871 210.093 51.3871 210.645V224C51.3871 224.552 51.8348 225 52.3871 225H71C71.5523 225 72 224.552 72 224V210.645C72 210.093 71.5523 209.645 71 209.645H62.8387V197.581C62.8387 194.557 60.2699 192.097 57.1129 192.097H49.0968V189.903H57.1129ZM53.6774 159.194H69.7097V170.161H53.6774V159.194ZM3.29032 159.194H19.3226V170.161H3.29032V159.194ZM19.3226 222.806H3.29032V211.839H19.3226V222.806ZM69.7097 222.806H53.6774V211.839H69.7097V222.806ZM44.5161 183.323V185.516H28.4839V183.323H44.5161ZM26.1935 175.645C26.1935 175.041 26.7069 174.548 27.3387 174.548H45.6613C46.2931 174.548 46.8065 175.041 46.8065 175.645V180.032C46.8065 180.636 46.2931 181.129 45.6613 181.129H27.3387C26.7069 181.129 26.1935 180.636 26.1935 180.032V175.645ZM28.4839 198.677V196.484H44.5161V198.677H28.4839ZM46.8065 206.355C46.8065 206.96 46.2931 207.452 45.6613 207.452H27.3387C26.7069 207.452 26.1935 206.96 26.1935 206.355V201.968C26.1935 201.363 26.7069 200.871 27.3387 200.871H45.6613C46.2931 200.871 46.8065 201.363 46.8065 201.968V206.355ZM46.8065 193.194C46.8065 193.799 46.2931 194.29 45.6613 194.29H27.3387C26.7069 194.29 26.1935 193.799 26.1935 193.194V188.806C26.1935 188.202 26.7069 187.71 27.3387 187.71H45.6613C46.2931 187.71 46.8065 188.202 46.8065 188.806V193.194Z" fill="#FF7369"/>
<path d="M650.274 18.5484H646.839V2C646.839 1.44771 646.391 1 645.839 1H595.161C594.609 1 594.161 1.44772 594.161 2V18.5484H590.726C587.569 18.5484 585 21.0086 585 24.0323V56.9355C585 59.9591 587.569 62.4194 590.726 62.4194H605.613V66.8065H602.032C601.48 66.8065 601.032 67.2542 601.032 67.8065V68C601.032 68.5523 601.48 69 602.032 69H638.968C639.52 69 639.968 68.5523 639.968 68V67.8065C639.968 67.2542 639.52 66.8065 638.968 66.8065H635.387V62.4194H650.274C653.431 62.4194 656 59.9591 656 56.9355V24.0323C656 21.0086 653.431 18.5484 650.274 18.5484ZM630.284 35.5055L631.611 32.9666L627.204 28.746L624.553 30.0163L623.616 27.3226H617.385L616.448 30.0163L613.797 28.746L609.391 32.9666L610.717 35.5055L607.903 36.4026V38.2903H596.452V11.9677H644.548V38.2903H633.097V36.4026L630.284 35.5055ZM628.824 45.3754L626.753 47.3596L624.277 46.1739L623.781 46.3865C623.639 46.447 623.496 46.5017 623.348 46.5558L622.841 46.74L621.964 49.2581H619.034L618.158 46.74L617.651 46.5558C617.503 46.5017 617.36 46.446 617.218 46.3865L616.722 46.1739L614.246 47.3596L612.175 45.3754L613.413 43.0041L613.191 42.5296C613.127 42.3936 613.07 42.2565 613.014 42.1146L612.822 41.6288L610.194 40.7897V37.9835L612.823 37.1443L613.015 36.6586C613.072 36.5166 613.13 36.3795 613.192 36.2435L613.414 35.769L612.176 33.3977L614.247 31.4135L616.723 32.5992L617.219 32.3866C617.361 32.3261 617.504 32.2715 617.652 32.2174L618.159 32.0331L619.036 29.5161H621.966L622.842 32.0342L623.349 32.2184C623.497 32.2725 623.64 32.3282 623.782 32.3877L624.278 32.6003L626.754 31.4146L628.825 33.3988L627.587 35.7701L627.809 36.2446C627.873 36.3806 627.93 36.5177 627.986 36.6596L628.178 37.1453L630.806 37.9845V40.7907L628.177 41.6299L627.985 42.1156C627.928 42.2576 627.87 42.3947 627.808 42.5307L627.586 43.0052L628.824 45.3754ZM644.548 3.19355V9.77419H596.452V3.19355H644.548ZM590.726 20.7419H594.161V39.4839C594.161 40.0362 594.609 40.4839 595.161 40.4839H607.903V42.3716L610.716 43.2686L609.389 45.8076L613.796 50.0282L616.447 48.7579L617.384 51.4516H623.615L624.552 48.7579L627.203 50.0282L631.609 45.8076L630.283 43.2686L633.097 42.3716V40.4839H645.839C646.391 40.4839 646.839 40.0362 646.839 39.4839V20.7419H650.274C652.168 20.7419 653.71 22.2184 653.71 24.0323V53.6452H587.29V24.0323C587.29 22.2184 588.832 20.7419 590.726 20.7419ZM633.097 66.8065H607.903V62.4194H633.097V66.8065ZM650.274 60.2258H590.726C588.832 60.2258 587.29 58.7493 587.29 56.9355V55.8387H653.71V56.9355C653.71 58.7493 652.168 60.2258 650.274 60.2258Z" fill="#FF7369"/>
<path d="M598.742 6.38696C598.742 5.83468 599.19 5.38696 599.742 5.38696H600.033C600.585 5.38696 601.033 5.83468 601.033 6.38696V6.58051C601.033 7.1328 600.585 7.58051 600.033 7.58051H599.742C599.19 7.58051 598.742 7.1328 598.742 6.58051V6.38696Z" fill="#FF7369"/>
<path d="M603.324 6.38696C603.324 5.83468 603.772 5.38696 604.324 5.38696H604.615C605.167 5.38696 605.615 5.83468 605.615 6.38696V6.58051C605.615 7.1328 605.167 7.58051 604.615 7.58051H604.324C603.772 7.58051 603.324 7.1328 603.324 6.58051V6.38696Z" fill="#FF7369"/>
<path d="M620.499 33.9031C617.342 33.9031 614.773 36.3633 614.773 39.3869C614.773 42.4106 617.342 44.8708 620.499 44.8708C623.656 44.8708 626.225 42.4106 626.225 39.3869C626.225 36.3633 623.656 33.9031 620.499 33.9031ZM620.499 42.6773C618.605 42.6773 617.064 41.2008 617.064 39.3869C617.064 37.5731 618.605 36.0966 620.499 36.0966C622.393 36.0966 623.935 37.5731 623.935 39.3869C623.935 41.2008 622.393 42.6773 620.499 42.6773Z" fill="#FF7369"/>
<g clip-path="url(#clip1)">
<path d="M658.215 211.283C658.673 211.182 659 210.776 659 210.306V203.307C659 202.838 658.673 202.432 658.215 202.331L655.468 201.726C655.124 201.65 654.847 201.398 654.724 201.068C654.644 200.851 654.56 200.637 654.471 200.426C654.34 200.115 654.36 199.76 654.539 199.474L656.121 196.937C656.363 196.55 656.311 196.047 655.995 195.717L651.293 190.804C650.955 190.451 650.411 190.394 650.008 190.669L647.697 192.243C647.396 192.447 647.01 192.47 646.679 192.32C646.499 192.238 646.317 192.159 646.134 192.085C645.811 191.953 645.568 191.674 645.499 191.332L644.91 188.415C644.816 187.949 644.406 187.613 643.93 187.613H641.71V157C641.71 156.448 641.262 156 640.71 156H601.705C601.433 156 601.172 156.111 600.983 156.309L592.278 165.404C592.099 165.59 592 165.838 592 166.095V213.71C592 214.262 592.448 214.71 593 214.71H626.364L625.137 216.677C624.895 217.064 624.947 217.567 625.263 217.897L629.965 222.809C630.303 223.162 630.847 223.219 631.25 222.944L633.561 221.371C633.862 221.167 634.248 221.144 634.579 221.294C634.759 221.376 634.94 221.454 635.123 221.528C635.447 221.66 635.691 221.939 635.76 222.282L636.348 225.198C636.442 225.664 636.852 226 637.328 226H643.929C644.405 226 644.815 225.664 644.909 225.198L645.497 222.281C645.566 221.939 645.81 221.66 646.133 221.528C646.317 221.454 646.498 221.376 646.678 221.294C647.009 221.144 647.395 221.167 647.696 221.371L650.007 222.944C650.41 223.219 650.954 223.162 651.292 222.809L655.994 217.897C656.31 217.567 656.362 217.064 656.12 216.677L654.537 214.14C654.359 213.854 654.339 213.499 654.47 213.188C654.559 212.977 654.643 212.763 654.723 212.547C654.846 212.216 655.123 211.964 655.468 211.888L658.215 211.283ZM600.645 159.855V165.032H595.689L600.645 159.855ZM594.161 167.29H601.806C602.359 167.29 602.806 166.843 602.806 166.29V158.258H639.548V187.613H637.328C636.852 187.613 636.442 187.949 636.348 188.415L635.76 191.332C635.691 191.674 635.447 191.953 635.124 192.085C634.941 192.159 634.759 192.237 634.58 192.319C634.249 192.469 633.861 192.447 633.56 192.242L631.25 190.669C630.847 190.394 630.303 190.451 629.965 190.804L625.263 195.717C624.947 196.047 624.895 196.55 625.137 196.937L626.72 199.474C626.898 199.76 626.918 200.115 626.787 200.426C626.699 200.637 626.614 200.851 626.534 201.067C626.411 201.398 626.134 201.65 625.789 201.726L623.043 202.33C622.585 202.431 622.258 202.837 622.258 203.307V210.305C622.258 210.775 622.585 211.181 623.043 211.282L625.88 211.907C626.169 211.97 626.419 212.175 626.52 212.452V212.452H594.161V167.29ZM653.352 216.375C653.594 216.763 653.542 217.266 653.226 217.596L651.003 219.918C650.665 220.271 650.122 220.328 649.718 220.053L647.842 218.774C647.528 218.561 647.12 218.543 646.789 218.729L646.765 218.742C646.011 219.167 645.205 219.515 644.37 219.775L644.319 219.792C643.971 219.901 643.711 220.191 643.639 220.548L643.155 222.94C643.061 223.406 642.651 223.742 642.175 223.742H639.082C638.606 223.742 638.196 223.406 638.102 222.94L637.619 220.548C637.547 220.191 637.287 219.901 636.939 219.792L636.888 219.775C636.054 219.515 635.247 219.167 634.493 218.742L634.469 218.729C634.138 218.543 633.73 218.561 633.416 218.774L631.54 220.052C631.136 220.327 630.593 220.27 630.255 219.917L628.032 217.595C627.716 217.264 627.664 216.762 627.906 216.374L629.207 214.289C629.394 213.99 629.409 213.615 629.248 213.302L629.205 213.217C628.798 212.429 628.465 211.588 628.216 210.715L628.195 210.644C628.094 210.292 627.808 210.024 627.45 209.945L625.204 209.45C624.746 209.349 624.419 208.943 624.419 208.473V205.139C624.419 204.669 624.746 204.263 625.204 204.162L627.45 203.668C627.808 203.589 628.094 203.321 628.195 202.968L628.216 202.898C628.465 202.026 628.798 201.184 629.205 200.396L629.248 200.311C629.409 199.998 629.394 199.623 629.207 199.324L627.906 197.239C627.664 196.851 627.715 196.348 628.032 196.018L630.255 193.696C630.593 193.343 631.136 193.286 631.54 193.561L633.416 194.839C633.73 195.052 634.138 195.07 634.469 194.884L634.493 194.871C635.247 194.446 636.053 194.098 636.888 193.837L636.94 193.821C637.287 193.712 637.547 193.422 637.62 193.065L638.103 190.673C638.197 190.206 638.607 189.871 639.083 189.871H642.176C642.652 189.871 643.062 190.207 643.156 190.673L643.639 193.065C643.711 193.422 643.971 193.712 644.319 193.821L644.37 193.837C645.204 194.098 646.011 194.446 646.765 194.871L646.789 194.884C647.12 195.07 647.528 195.052 647.842 194.839L649.718 193.561C650.122 193.286 650.665 193.343 651.003 193.696L653.226 196.018C653.543 196.348 653.595 196.851 653.352 197.239L652.051 199.324C651.864 199.623 651.849 199.998 652.01 200.311L652.053 200.396C652.46 201.184 652.793 202.025 653.042 202.898L653.063 202.969C653.164 203.321 653.45 203.589 653.808 203.668L656.054 204.163C656.512 204.264 656.839 204.67 656.839 205.14V208.474C656.839 208.943 656.512 209.35 656.054 209.451L653.808 209.945C653.45 210.024 653.164 210.292 653.063 210.644L653.042 210.715C652.793 211.587 652.46 212.429 652.053 213.217L652.01 213.302C651.849 213.615 651.864 213.99 652.051 214.289L653.352 216.375Z" fill="#FF7369"/>
<path d="M640.631 195.516C634.672 195.516 629.824 200.581 629.824 206.806C629.824 213.032 634.672 218.097 640.631 218.097C646.59 218.097 651.437 213.032 651.437 206.806C651.437 200.581 646.59 195.516 640.631 195.516ZM640.631 215.839C635.864 215.839 631.986 211.787 631.986 206.806C631.986 201.826 635.864 197.774 640.631 197.774C645.398 197.774 649.276 201.826 649.276 206.806C649.276 211.787 645.398 215.839 640.631 215.839Z" fill="#FF7369"/>
<path d="M640.628 200.032C637.052 200.032 634.145 203.07 634.145 206.806C634.145 210.542 637.052 213.581 640.628 213.581C644.204 213.581 647.112 210.542 647.112 206.806C647.112 203.07 644.204 200.032 640.628 200.032ZM640.628 211.323C638.244 211.323 636.306 209.297 636.306 206.806C636.306 204.316 638.244 202.29 640.628 202.29C643.012 202.29 644.951 204.316 644.951 206.806C644.951 209.297 643.012 211.323 640.628 211.323Z" fill="#FF7369"/>
<path d="M625.5 185.355C632.054 185.355 637.387 179.783 637.387 172.935C637.387 166.088 632.054 160.516 625.5 160.516C618.946 160.516 613.613 166.088 613.613 172.935C613.613 179.783 618.946 185.355 625.5 185.355ZM626.581 183.03V174.064H635.162C634.662 178.766 631.082 182.507 626.581 183.03V183.03ZM635.162 171.806H626.581V162.841C631.082 163.364 634.662 167.105 635.162 171.806ZM624.42 162.841V183.03C619.564 182.466 615.775 178.156 615.775 172.935C615.775 167.715 619.564 163.404 624.42 162.841Z" fill="#FF7369"/>
<path d="M598.797 197.58C598.797 197.027 599.245 196.58 599.797 196.58H612.926C613.478 196.58 613.926 197.027 613.926 197.58V197.838C613.926 198.39 613.478 198.838 612.926 198.838H599.797C599.245 198.838 598.797 198.39 598.797 197.838V197.58Z" fill="#FF7369"/>
<path d="M598.797 202.096C598.797 201.544 599.245 201.096 599.797 201.096H612.926C613.478 201.096 613.926 201.544 613.926 202.096V202.354C613.926 202.906 613.478 203.354 612.926 203.354H599.797C599.245 203.354 598.797 202.906 598.797 202.354V202.096Z" fill="#FF7369"/>
<path d="M598.797 206.612C598.797 206.059 599.245 205.612 599.797 205.612H612.926C613.478 205.612 613.926 206.059 613.926 206.612V206.87C613.926 207.422 613.478 207.87 612.926 207.87H599.797C599.245 207.87 598.797 207.422 598.797 206.87V206.612Z" fill="#FF7369"/>
</g>
<defs>
<clipPath id="clip0">
<rect width="73" height="70" fill="white"/>
</clipPath>
<clipPath id="clip1">
<rect width="67" height="70" fill="white" transform="translate(592 156)"/>
</clipPath>
</defs>
</svg>
