<svg width="657" height="226" viewBox="0 0 657 226" fill="none" xmlns="http://www.w3.org/2000/svg">
<path d="M24.4208 1.77277H24.4213H59.1963C60.4529 1.77277 61.6563 2.2509 62.5423 3.09941C63.4279 3.94764 63.9238 5.09619 63.9238 6.29187V62.9211C63.9238 64.1168 63.4279 65.2653 62.5423 66.1136C61.6563 66.9621 60.4529 67.4402 59.1963 67.4402H13.2063C11.9498 67.4402 10.7464 66.9621 9.8604 66.1136C8.97471 65.2653 8.47883 64.1168 8.47883 62.9211L8.47883 17.0341L8.47883 17.0335C8.47686 16.441 8.59775 15.8538 8.83474 15.3059C9.07173 14.7579 9.42023 14.2599 9.86046 13.841L9.86092 13.8406L21.0759 3.09991L21.0764 3.09947C21.5136 2.67803 22.0343 2.34346 22.6085 2.11556C23.1827 1.88766 23.7987 1.77108 24.4208 1.77277ZM21.6188 6.94311V6.47464L21.2805 6.79867L13.748 14.0126L13.3883 14.357H13.8863H19.7763C20.2623 14.357 20.73 14.1722 21.0761 13.8408C21.4225 13.509 21.6188 13.0571 21.6188 12.584V6.94311ZM11.5638 17.1031H11.3638V17.3031V62.9211C11.3638 63.3942 11.5601 63.8461 11.9066 64.1778C12.2527 64.5093 12.7204 64.6941 13.2063 64.6941H59.1963C59.6823 64.6941 60.15 64.5093 60.4961 64.1778C60.8425 63.8461 61.0388 63.3942 61.0388 62.9211V6.29187C61.0388 5.81878 60.8425 5.3669 60.4961 5.03513C60.15 4.70363 59.6823 4.51884 59.1963 4.51884H24.7038H24.5038V4.71884V12.584C24.5038 13.7797 24.008 14.9282 23.1223 15.7765C22.2363 16.625 21.0329 17.1031 19.7763 17.1031H11.5638Z" fill="#FF7369" stroke="#1A1A1A" stroke-width="0.4"/>
<path d="M40.2241 18.5639L40.3902 18.3825C41.263 17.4293 41.7452 16.2077 41.7503 14.9431C41.7501 13.539 41.1678 12.1906 40.1282 11.195C39.0882 10.199 37.6759 9.63799 36.2015 9.63799C34.7272 9.63799 33.3149 10.199 32.2749 11.195C31.2353 12.1906 30.6529 13.5391 30.6528 14.9432C30.6579 16.2078 31.1402 17.4294 32.0128 18.3825L32.179 18.5639L31.9674 18.6895C30.8134 19.3746 29.8615 20.3294 29.2008 21.463C28.5402 22.5964 28.1922 23.8717 28.189 25.1686V26.7414C28.189 27.5198 28.5119 28.2683 29.0895 28.8215C29.6675 29.375 30.4531 29.6874 31.274 29.6874H41.129C41.95 29.6874 42.7356 29.375 43.3136 28.8215C43.8912 28.2683 44.214 27.5198 44.214 26.7414L44.214 25.1688L44.214 25.1683M40.2241 18.5639L44.414 25.1683H44.214M40.2241 18.5639L40.4356 18.6895C41.5897 19.3746 42.5416 20.3294 43.2023 21.463C43.8628 22.5963 44.2108 23.8715 44.214 25.1683M40.2241 18.5639L44.214 25.1683M41.129 26.9414H41.329V26.7414V25.1683C41.329 23.8608 40.7866 22.6088 39.8241 21.687C38.862 20.7655 37.5587 20.2492 36.2015 20.2492C34.8444 20.2492 33.5411 20.7655 32.5789 21.687C31.6165 22.6088 31.074 23.8608 31.074 25.1683V26.7414V26.9414H31.274H41.129ZM33.989 13.5183C33.6952 13.9394 33.5378 14.4354 33.5378 14.9436C33.5378 15.6253 33.8206 16.2772 34.3211 16.7565C34.8212 17.2355 35.4978 17.5032 36.2015 17.5032C36.7265 17.5032 37.2403 17.3541 37.6781 17.074C38.116 16.7938 38.4586 16.3946 38.6613 15.926C38.8641 15.4572 38.9173 14.9409 38.8138 14.4426C38.7103 13.9444 38.4551 13.4881 38.082 13.1307C37.709 12.7734 37.2347 12.531 36.7196 12.4329C36.2046 12.3348 35.6706 12.3851 35.185 12.5778C34.6992 12.7704 34.2827 13.0973 33.989 13.5183Z" fill="#FF7369" stroke="#1A1A1A" stroke-width="0.4"/>
<path d="M18.1339 39.5257H54.2689C54.6542 39.5257 55.0221 39.6723 55.292 39.9309C55.5617 40.1891 55.7114 40.5374 55.7114 40.8987C55.7114 41.26 55.5617 41.6084 55.292 41.8666C55.0221 42.1251 54.6542 42.2718 54.2689 42.2718H18.1339C17.7486 42.2718 17.3808 42.1251 17.1108 41.8666C16.8412 41.6084 16.6914 41.26 16.6914 40.8987C16.6914 40.5374 16.8412 40.1891 17.1108 39.9309C17.3808 39.6723 17.7486 39.5257 18.1339 39.5257Z" fill="#FF7369" stroke="#1A1A1A" stroke-width="0.4"/>
<path d="M18.1339 52.1099H54.2689C54.6542 52.1099 55.0221 52.2566 55.292 52.5151C55.5617 52.7733 55.7114 53.1217 55.7114 53.4829C55.7114 53.8442 55.5617 54.1926 55.292 54.4508C55.0221 54.7093 54.6542 54.856 54.2689 54.856H18.1339C17.7486 54.856 17.3808 54.7093 17.1108 54.4508C16.8412 54.1926 16.6914 53.8442 16.6914 53.4829C16.6914 53.1217 16.8412 52.7733 17.1108 52.5151C17.3808 52.2566 17.7486 52.1099 18.1339 52.1099Z" fill="#FF7369" stroke="#1A1A1A" stroke-width="0.4"/>
<mask id="path-5-inside-1" fill="white">
<path d="M67.2229 200.529H60.2205V196.525C60.2205 195.463 59.7778 194.444 58.9899 193.693C58.202 192.943 57.1333 192.521 56.019 192.521H37.8128V185.847H47.9663C49.3431 185.86 50.6692 185.352 51.6537 184.434C52.6381 183.517 53.2007 182.265 53.2181 180.953V166.717C53.2007 165.404 52.6381 164.152 51.6537 163.235C50.6692 162.317 49.3431 161.809 47.9663 161.822H38.1237C36.7815 161.817 35.4877 162.299 34.5049 163.17L32.7235 164.748C32.2585 165.158 31.6472 165.385 31.0135 165.382H24.8584C23.4817 165.369 22.1559 165.877 21.1715 166.794C20.187 167.711 19.6243 168.963 19.6066 170.275V180.953C19.6239 182.265 20.1865 183.517 21.171 184.434C22.1555 185.352 23.4815 185.86 24.8584 185.847H35.0118V192.521H16.8056C15.6913 192.521 14.6227 192.943 13.8347 193.693C13.0468 194.444 12.6042 195.463 12.6042 196.525V201.445C12.0174 201.901 11.8927 202.071 11.0468 202.829C10.7873 203.065 10.4423 203.197 10.0833 203.198H5.60177C4.48748 203.198 3.41883 203.62 2.6309 204.371C1.84298 205.122 1.40033 206.141 1.40033 207.203V215.211C1.40033 216.273 1.84298 217.291 2.6309 218.042C3.41883 218.793 4.48748 219.215 5.60177 219.215H22.4075C23.5218 219.215 24.5905 218.793 25.3784 218.042C26.1663 217.291 26.609 216.273 26.609 215.211V204.533C26.609 203.471 26.1663 202.453 25.3784 201.702C24.5905 200.951 23.5218 200.529 22.4075 200.529H15.4051V196.525C15.4051 196.171 15.5527 195.831 15.8153 195.581C16.078 195.331 16.4342 195.19 16.8056 195.19H56.019C56.3905 195.19 56.7467 195.331 57.0093 195.581C57.272 195.831 57.4195 196.171 57.4195 196.525V201.445C56.8327 201.901 56.7081 202.071 55.8622 202.829C55.6026 203.065 55.2577 203.197 54.8987 203.198H50.4171C49.3028 203.198 48.2342 203.62 47.4463 204.371C46.6583 205.122 46.2157 206.141 46.2157 207.203V215.211C46.2157 216.273 46.6583 217.291 47.4463 218.042C48.2342 218.793 49.3028 219.215 50.4171 219.215H67.2229C68.3372 219.215 69.4058 218.793 70.1937 218.042C70.9817 217.291 71.4243 216.273 71.4243 215.211V204.533C71.4243 203.471 70.9817 202.453 70.1937 201.702C69.4058 200.951 68.3372 200.529 67.2229 200.529ZM22.4075 180.953V170.275C22.424 169.671 22.6913 169.097 23.1507 168.68C23.6101 168.264 24.2242 168.037 24.8584 168.051H31.0135C32.3557 168.055 33.6494 167.573 34.6323 166.702L36.4123 165.124C36.8777 164.714 37.4896 164.488 38.1237 164.492H47.9663C48.6006 164.478 49.2146 164.705 49.674 165.122C50.1334 165.539 50.4006 166.112 50.4171 166.717V180.953C50.4006 181.557 50.1334 182.131 49.674 182.548C49.2146 182.965 48.6006 183.191 47.9663 183.178H24.8584C24.2241 183.191 23.61 182.965 23.1506 182.548C22.6913 182.131 22.424 181.557 22.4075 180.953ZM23.808 204.533V215.211C23.808 215.565 23.6605 215.904 23.3978 216.155C23.1352 216.405 22.779 216.546 22.4075 216.546H5.60177C5.23034 216.546 4.87412 216.405 4.61148 216.155C4.34884 215.904 4.20129 215.565 4.20129 215.211V207.203C4.20129 206.849 4.34884 206.509 4.61148 206.259C4.87412 206.008 5.23034 205.868 5.60177 205.868H10.0833C11.1679 205.87 12.2111 205.471 12.9921 204.753C14.0747 203.866 14.3604 203.198 15.2497 203.198H22.4075C22.779 203.198 23.1352 203.339 23.3978 203.589C23.6605 203.84 23.808 204.179 23.808 204.533ZM68.6234 215.211C68.6234 215.565 68.4758 215.904 68.2132 216.155C67.9505 216.405 67.5943 216.546 67.2229 216.546H50.4171C50.0457 216.546 49.6895 216.405 49.4268 216.155C49.1642 215.904 49.0166 215.565 49.0166 215.211V207.203C49.0166 206.849 49.1642 206.509 49.4268 206.259C49.6895 206.008 50.0457 205.868 50.4171 205.868H54.8987C55.9833 205.87 57.0264 205.471 57.8074 204.753C58.89 203.866 59.1757 203.198 60.065 203.198H67.2229C67.5943 203.198 67.9505 203.339 68.2132 203.589C68.4758 203.84 68.6234 204.179 68.6234 204.533V215.211Z"/>
</mask>
<path d="M67.2229 200.529H60.2205V196.525C60.2205 195.463 59.7778 194.444 58.9899 193.693C58.202 192.943 57.1333 192.521 56.019 192.521H37.8128V185.847H47.9663C49.3431 185.86 50.6692 185.352 51.6537 184.434C52.6381 183.517 53.2007 182.265 53.2181 180.953V166.717C53.2007 165.404 52.6381 164.152 51.6537 163.235C50.6692 162.317 49.3431 161.809 47.9663 161.822H38.1237C36.7815 161.817 35.4877 162.299 34.5049 163.17L32.7235 164.748C32.2585 165.158 31.6472 165.385 31.0135 165.382H24.8584C23.4817 165.369 22.1559 165.877 21.1715 166.794C20.187 167.711 19.6243 168.963 19.6066 170.275V180.953C19.6239 182.265 20.1865 183.517 21.171 184.434C22.1555 185.352 23.4815 185.86 24.8584 185.847H35.0118V192.521H16.8056C15.6913 192.521 14.6227 192.943 13.8347 193.693C13.0468 194.444 12.6042 195.463 12.6042 196.525V201.445C12.0174 201.901 11.8927 202.071 11.0468 202.829C10.7873 203.065 10.4423 203.197 10.0833 203.198H5.60177C4.48748 203.198 3.41883 203.62 2.6309 204.371C1.84298 205.122 1.40033 206.141 1.40033 207.203V215.211C1.40033 216.273 1.84298 217.291 2.6309 218.042C3.41883 218.793 4.48748 219.215 5.60177 219.215H22.4075C23.5218 219.215 24.5905 218.793 25.3784 218.042C26.1663 217.291 26.609 216.273 26.609 215.211V204.533C26.609 203.471 26.1663 202.453 25.3784 201.702C24.5905 200.951 23.5218 200.529 22.4075 200.529H15.4051V196.525C15.4051 196.171 15.5527 195.831 15.8153 195.581C16.078 195.331 16.4342 195.19 16.8056 195.19H56.019C56.3905 195.19 56.7467 195.331 57.0093 195.581C57.272 195.831 57.4195 196.171 57.4195 196.525V201.445C56.8327 201.901 56.7081 202.071 55.8622 202.829C55.6026 203.065 55.2577 203.197 54.8987 203.198H50.4171C49.3028 203.198 48.2342 203.62 47.4463 204.371C46.6583 205.122 46.2157 206.141 46.2157 207.203V215.211C46.2157 216.273 46.6583 217.291 47.4463 218.042C48.2342 218.793 49.3028 219.215 50.4171 219.215H67.2229C68.3372 219.215 69.4058 218.793 70.1937 218.042C70.9817 217.291 71.4243 216.273 71.4243 215.211V204.533C71.4243 203.471 70.9817 202.453 70.1937 201.702C69.4058 200.951 68.3372 200.529 67.2229 200.529ZM22.4075 180.953V170.275C22.424 169.671 22.6913 169.097 23.1507 168.68C23.6101 168.264 24.2242 168.037 24.8584 168.051H31.0135C32.3557 168.055 33.6494 167.573 34.6323 166.702L36.4123 165.124C36.8777 164.714 37.4896 164.488 38.1237 164.492H47.9663C48.6006 164.478 49.2146 164.705 49.674 165.122C50.1334 165.539 50.4006 166.112 50.4171 166.717V180.953C50.4006 181.557 50.1334 182.131 49.674 182.548C49.2146 182.965 48.6006 183.191 47.9663 183.178H24.8584C24.2241 183.191 23.61 182.965 23.1506 182.548C22.6913 182.131 22.424 181.557 22.4075 180.953ZM23.808 204.533V215.211C23.808 215.565 23.6605 215.904 23.3978 216.155C23.1352 216.405 22.779 216.546 22.4075 216.546H5.60177C5.23034 216.546 4.87412 216.405 4.61148 216.155C4.34884 215.904 4.20129 215.565 4.20129 215.211V207.203C4.20129 206.849 4.34884 206.509 4.61148 206.259C4.87412 206.008 5.23034 205.868 5.60177 205.868H10.0833C11.1679 205.87 12.2111 205.471 12.9921 204.753C14.0747 203.866 14.3604 203.198 15.2497 203.198H22.4075C22.779 203.198 23.1352 203.339 23.3978 203.589C23.6605 203.84 23.808 204.179 23.808 204.533ZM68.6234 215.211C68.6234 215.565 68.4758 215.904 68.2132 216.155C67.9505 216.405 67.5943 216.546 67.2229 216.546H50.4171C50.0457 216.546 49.6895 216.405 49.4268 216.155C49.1642 215.904 49.0166 215.565 49.0166 215.211V207.203C49.0166 206.849 49.1642 206.509 49.4268 206.259C49.6895 206.008 50.0457 205.868 50.4171 205.868H54.8987C55.9833 205.87 57.0264 205.471 57.8074 204.753C58.89 203.866 59.1757 203.198 60.065 203.198H67.2229C67.5943 203.198 67.9505 203.339 68.2132 203.589C68.4758 203.84 68.6234 204.179 68.6234 204.533V215.211Z" fill="#FF7369" stroke="#1A1A1A" stroke-width="0.8" mask="url(#path-5-inside-1)"/>
<path d="M618.558 62.0729L618.929 61.7267C620.393 60.3592 621.395 58.5746 621.795 56.6191L624.301 44.0424L624.694 44.0424L626.577 53.4937L618.558 62.0729ZM618.558 62.0729H619.065M618.558 62.0729H619.065M619.065 62.0729H631.686H632.292M619.065 62.0729H632.292M632.292 62.0729L631.805 61.7122M632.292 62.0729L631.805 61.7122M631.805 61.7122C629.1 59.707 627.238 56.7797 626.577 53.4941L631.805 61.7122ZM646.846 62.0729H646.846H654.024C654.343 62.0729 654.648 62.1986 654.873 62.4219C655.098 62.6452 655.224 62.9477 655.224 63.2628C655.224 63.5779 655.098 63.8804 654.873 64.1037C654.648 64.327 654.343 64.4528 654.024 64.4528H589.602C588.54 64.4528 587.522 64.0341 586.772 63.2895C586.022 62.5449 585.6 61.5353 585.6 60.4829V7.66485C585.6 7.34975 585.726 7.04724 585.951 6.82396C586.176 6.60064 586.482 6.4749 586.801 6.4749C587.12 6.4749 587.425 6.60064 587.65 6.82396C587.875 7.04724 588.001 7.34975 588.001 7.66485V60.4829C588.001 60.9051 588.17 61.3097 588.471 61.6077C588.771 61.9057 589.178 62.0729 589.602 62.0729H589.602C592.217 62.0677 594.749 61.1649 596.77 59.5174C598.791 57.8699 600.175 55.579 600.688 53.0334L600.688 53.0329L606.381 24.4625L606.381 24.4625C606.766 22.5268 607.817 20.7835 609.353 19.5304C610.89 18.2773 612.817 17.5921 614.806 17.5921C616.795 17.5921 618.723 18.2773 620.259 19.5304C621.796 20.7835 622.846 22.5268 623.231 24.4625L623.231 24.4626L624.944 33.0511L625.014 33.402L625.276 33.1585C626.092 32.4017 627.097 31.8756 628.187 31.6352C629.277 31.3948 630.412 31.4489 631.473 31.7918C632.535 32.1348 633.485 32.754 634.223 33.5848C634.961 34.4155 635.461 35.4274 635.672 36.515L635.672 36.5163L639.593 56.1576L639.593 56.1579C639.929 57.8238 640.834 59.3228 642.157 60.4009C643.479 61.4789 645.135 62.0695 646.846 62.0729ZM629.516 33.8739L629.515 33.8739C628.632 33.8766 627.776 34.1777 627.089 34.7277C626.401 35.2778 625.923 36.0442 625.732 36.9007L625.723 36.9419L625.731 36.9832L628.933 53.0358L628.933 53.0361C629.444 55.5726 630.82 57.8562 632.83 59.5022C634.84 61.1482 637.359 62.056 639.965 62.0729L640.476 62.0762L640.102 61.7268C638.639 60.3587 637.639 58.5743 637.24 56.6192L633.319 36.9772L633.319 36.977C633.143 36.1029 632.668 35.3164 631.975 34.7509C631.282 34.1854 630.413 33.8756 629.516 33.8739ZM623.261 36.9651L623.269 36.9261L623.261 36.887L620.88 24.9223C620.602 23.5265 619.845 22.2699 618.738 21.3669C617.631 20.464 616.243 19.9706 614.81 19.9706C613.378 19.9706 611.99 20.464 610.883 21.3669C609.776 22.2699 609.018 23.5265 608.741 24.9223C608.741 24.9223 608.741 24.9223 608.741 24.9223L603.044 53.4937C602.383 56.7795 600.521 59.7069 597.816 61.7122L597.329 62.0729H597.935H612.184H612.185C613.896 62.0696 615.553 61.479 616.875 60.401C618.197 59.323 619.103 57.8239 619.439 56.158L619.439 56.1575L623.261 36.9651Z" fill="#FF7369" stroke="#1A1A1A" stroke-width="0.4"/>
<path d="M608.715 214.366L608.754 214.133H608.518H590.618C589.355 214.133 588.143 213.628 587.25 212.728C586.357 211.828 585.854 210.607 585.854 209.333V162.667C585.854 161.393 586.357 160.172 587.25 159.272C588.143 158.372 589.355 157.867 590.618 157.867H650.176C651.438 157.867 652.65 158.372 653.543 159.272C654.437 160.172 654.939 161.393 654.939 162.667V209.333C654.939 210.607 654.437 211.828 653.543 212.728C652.65 213.628 651.438 214.133 650.176 214.133H632.275H632.039L632.078 214.366L633.181 221.033L633.209 221.2H633.379H638.595C638.98 221.2 639.35 221.354 639.623 221.629C639.896 221.904 640.049 222.277 640.049 222.667C640.049 223.056 639.896 223.429 639.623 223.704C639.35 223.979 638.98 224.133 638.595 224.133H602.198C601.813 224.133 601.443 223.979 601.17 223.704C600.898 223.429 600.744 223.056 600.744 222.667C600.744 222.277 600.898 221.904 601.17 221.629C601.443 221.354 601.813 221.2 602.198 221.2H607.415H607.584L607.612 221.033L608.715 214.366ZM651.83 197.867H652.03V197.667V162.667C652.03 162.172 651.835 161.698 651.487 161.347C651.14 160.997 650.668 160.8 650.176 160.8H590.618C590.125 160.8 589.653 160.997 589.306 161.347C588.958 161.698 588.763 162.172 588.763 162.667V197.667V197.867H588.963H651.83ZM630.024 221.2H630.259L630.221 220.967L629.119 214.301L629.091 214.133H628.922H611.872H611.702L611.674 214.301L610.572 220.967L610.534 221.2H610.77H630.024ZM588.963 200.8H588.763V201V209.333C588.763 209.828 588.958 210.303 589.306 210.653C589.653 211.003 590.125 211.2 590.618 211.2H650.176C650.668 211.2 651.14 211.003 651.487 210.653C651.835 210.303 652.03 209.828 652.03 209.333V201V200.8H651.83H588.963Z" fill="#FF7369" stroke="#1A1A1A" stroke-width="0.4"/>
<path d="M617.088 204.533H623.705C624.091 204.533 624.46 204.688 624.733 204.963L624.875 204.822L624.733 204.963C625.006 205.237 625.16 205.611 625.16 206C625.16 206.39 625.006 206.763 624.733 207.038C624.46 207.313 624.091 207.467 623.705 207.467H617.088C616.703 207.467 616.333 207.313 616.06 207.038C615.787 206.763 615.633 206.39 615.633 206C615.633 205.611 615.787 205.237 616.06 204.963C616.333 204.688 616.703 204.533 617.088 204.533Z" fill="#FF7369" stroke="#1A1A1A" stroke-width="0.4"/>
</svg>
