<svg width="1263" height="94" viewBox="0 0 1263 94" fill="none" xmlns="http://www.w3.org/2000/svg">
<path d="M29.5312 38.9102H36.5625V41.793H33.75V44.6758H56.25V41.793H53.4375V38.9102H60.4688C62.7947 38.9102 64.6875 36.97 64.6875 34.5859V14.4062C64.6875 12.0222 62.7947 10.082 60.4688 10.082H51.8892C51.2353 6.79707 48.3947 4.31641 45 4.31641C41.6053 4.31641 38.7647 6.79707 38.1108 10.082H29.5312C27.2053 10.082 25.3125 12.0222 25.3125 14.4062V34.5859C25.3125 36.97 27.2053 38.9102 29.5312 38.9102ZM50.625 41.793H39.375V38.9102H50.625V41.793ZM60.4688 36.0273H29.5312C28.7564 36.0273 28.125 35.3802 28.125 34.5859V33.1445H61.875V34.5859C61.875 35.3802 61.2436 36.0273 60.4688 36.0273ZM33.75 30.2617C33.75 23.9037 38.797 18.7305 45 18.7305C51.203 18.7305 56.25 23.9037 56.25 30.2617H33.75ZM51.8892 12.9648H60.4688C61.2436 12.9648 61.875 13.612 61.875 14.4062V30.2617H59.0625C59.0625 24.0521 55.2052 18.7636 49.8248 16.7399C50.8514 15.741 51.5953 14.4394 51.8892 12.9648ZM45 7.19922C47.3259 7.19922 49.2188 9.13935 49.2188 11.5234C49.2188 13.9075 47.3259 15.8477 45 15.8477C42.6741 15.8477 40.7812 13.9075 40.7812 11.5234C40.7812 9.13935 42.6741 7.19922 45 7.19922ZM29.5312 12.9648H38.1108C38.4047 14.4394 39.1486 15.741 40.1752 16.7399C34.7948 18.7636 30.9375 24.0521 30.9375 30.2617H28.125V14.4062C28.125 13.612 28.7564 12.9648 29.5312 12.9648Z" fill="#00A4AD"/>
<path d="M36.5625 59.0898H27.983C27.3291 55.8049 24.4898 53.3242 21.0938 53.3242C17.6977 53.3242 14.8584 55.8049 14.2045 59.0898H5.625C3.29906 59.0898 1.40625 61.03 1.40625 63.4141V83.5938C1.40625 85.9778 3.29906 87.918 5.625 87.918H12.6562V90.8008H9.84375V93.6836H32.3438V90.8008H29.5312V87.918H36.5625C38.8884 87.918 40.7812 85.9778 40.7812 83.5938V63.4141C40.7812 61.03 38.8884 59.0898 36.5625 59.0898ZM27.983 61.9727H36.5625C37.3373 61.9727 37.9688 62.6198 37.9688 63.4141V79.2695H35.1562C35.1562 73.06 31.2989 67.7714 25.9186 65.7477C26.9452 64.7488 27.6891 63.4472 27.983 61.9727ZM9.84375 79.2695C9.84375 72.9115 14.8908 67.7383 21.0938 67.7383C27.2967 67.7383 32.3438 72.9115 32.3438 79.2695H9.84375ZM21.0938 56.207C23.4197 56.207 25.3125 58.1472 25.3125 60.5312C25.3125 62.9153 23.4197 64.8555 21.0938 64.8555C18.7678 64.8555 16.875 62.9153 16.875 60.5312C16.875 58.1472 18.7678 56.207 21.0938 56.207V56.207ZM5.625 61.9727H14.2045C14.4984 63.4472 15.2423 64.7488 16.2689 65.7477C10.8886 67.7714 7.03125 73.06 7.03125 79.2695H4.21875V63.4141C4.21875 62.6198 4.85016 61.9727 5.625 61.9727V61.9727ZM26.7188 90.8008H15.4688V87.918H26.7188V90.8008ZM36.5625 85.0352H5.625C4.85016 85.0352 4.21875 84.388 4.21875 83.5938V82.1523H37.9688V83.5938C37.9688 84.388 37.3373 85.0352 36.5625 85.0352Z" fill="#00A4AD"/>
<path d="M84.375 59.0898H75.7955C75.1416 55.8049 72.3023 53.3242 68.9062 53.3242C65.5102 53.3242 62.6709 55.8049 62.017 59.0898H53.4375C51.1116 59.0898 49.2188 61.03 49.2188 63.4141V83.5938C49.2188 85.9778 51.1116 87.918 53.4375 87.918H60.4688V90.8008H57.6562V93.6836H80.1562V90.8008H77.3438V87.918H84.375C86.7009 87.918 88.5938 85.9778 88.5938 83.5938V63.4141C88.5938 61.03 86.7009 59.0898 84.375 59.0898ZM75.7955 61.9727H84.375C85.1498 61.9727 85.7812 62.6198 85.7812 63.4141V79.2695H82.9688C82.9688 73.06 79.1114 67.7714 73.7311 65.7477C74.7577 64.7488 75.5016 63.4472 75.7955 61.9727ZM57.6562 79.2695C57.6562 72.9115 62.7033 67.7383 68.9062 67.7383C75.1092 67.7383 80.1562 72.9115 80.1562 79.2695H57.6562ZM68.9062 56.207C71.2322 56.207 73.125 58.1472 73.125 60.5312C73.125 62.9153 71.2322 64.8555 68.9062 64.8555C66.5803 64.8555 64.6875 62.9153 64.6875 60.5312C64.6875 58.1472 66.5803 56.207 68.9062 56.207ZM53.4375 61.9727H62.017C62.3109 63.4472 63.0548 64.7488 64.0814 65.7477C58.7011 67.7714 54.8438 73.06 54.8438 79.2695H52.0312V63.4141C52.0312 62.6198 52.6627 61.9727 53.4375 61.9727ZM74.5312 90.8008H63.2812V87.918H74.5312V90.8008ZM84.375 85.0352H53.4375C52.6627 85.0352 52.0312 84.388 52.0312 83.5938V82.1523H85.7812V83.5938C85.7812 84.388 85.1498 85.0352 84.375 85.0352Z" fill="#00A4AD"/>
<path d="M9.84375 48.9998C9.84375 40.3759 12.787 32.2189 18.1744 25.7182L18.7481 29.8377L21.5311 29.4298L20.3878 21.2253L12.3834 20.0535L11.9855 22.906L16.2956 23.5373C10.3092 30.6103 7.03125 39.5442 7.03125 48.9998H9.84375Z" fill="#00A4AD"/>
<path d="M76.7814 43.5228L75.0939 45.829L81.5627 50.8019L88.0314 45.829L86.3439 43.5228L82.862 46.1995C82.1997 36.5132 78.1159 27.5808 71.1775 20.8105L69.2383 22.8977C75.5706 29.077 79.3338 37.2008 80.0284 46.0193L76.7814 43.5228Z" fill="#00A4AD"/>
<path d="M712.343 76.6532C711.109 72.3528 707.171 69.3226 702.581 69.3226C701.673 69.3226 700.784 69.4315 699.931 69.6673C698.806 67.254 696.974 65.2399 694.651 63.8972C697.482 60.1593 699.278 55.5686 699.587 50.5423C701.456 48.0927 702.581 45.0444 702.581 41.7419C702.581 37.7137 700.929 34.0665 698.28 31.4355L709.421 17.6633C710.419 18.1895 711.544 18.5161 712.742 18.5161C716.752 18.5161 720 15.2681 720 11.2581C720 7.24798 716.752 4 712.742 4C709.24 4 706.3 6.50403 705.629 9.80645H682.113C681.442 6.50403 678.502 4 675 4C670.99 4 667.742 7.24798 667.742 11.2581C667.742 15.2681 670.99 18.5161 675 18.5161C675.508 18.5161 675.998 18.4617 676.47 18.371L679.173 24.6855C677.794 24.4496 676.397 24.3226 675 24.3226C661.391 24.3226 650.323 35.3911 650.323 49C650.323 53.7903 651.72 58.254 654.097 62.0464L650.323 65.8206L648.871 64.369L632.232 81.0081C630.798 82.4415 630 84.3468 630 86.3972C630 90.5887 633.411 94 637.603 94C639.635 94 641.54 93.2016 642.992 91.7682L659.631 75.129L658.179 73.6774L661.954 69.9032C665.746 72.2802 670.21 73.6774 675 73.6774C675.036 73.6774 675.073 73.6774 675.091 73.6774C675.036 74.1673 675 74.6573 675 75.129C675 75.6552 675.036 76.1815 675.091 76.6895C670.935 77.3427 667.742 80.9355 667.742 85.2903C667.742 90.0988 671.643 94 676.452 94H711.29C716.099 94 720 90.0988 720 85.2903C720 80.8448 716.643 77.1613 712.343 76.6532ZM712.742 6.90323C715.137 6.90323 717.097 8.8629 717.097 11.2581C717.097 13.6532 715.137 15.6129 712.742 15.6129C710.347 15.6129 708.387 13.6532 708.387 11.2581C708.387 8.8629 710.347 6.90323 712.742 6.90323ZM699.677 41.7419C699.677 48.1472 694.47 53.3548 688.065 53.3548C681.659 53.3548 676.452 48.1472 676.452 41.7419C676.452 35.3367 681.659 30.129 688.065 30.129C694.47 30.129 699.677 35.3367 699.677 41.7419ZM675 15.6129C672.605 15.6129 670.645 13.6532 670.645 11.2581C670.645 8.8629 672.605 6.90323 675 6.90323C677.395 6.90323 679.355 8.8629 679.355 11.2581C679.355 13.6532 677.395 15.6129 675 15.6129ZM679.137 17.2097C680.643 16.1573 681.732 14.5605 682.113 12.7097H705.629C705.865 13.8891 706.427 14.9415 707.153 15.8488L696.012 29.621C693.726 28.1149 691.004 27.244 688.065 27.244C686.54 27.244 685.089 27.4798 683.71 27.9153L679.137 17.2097ZM640.942 89.7177C640.052 90.6069 638.873 91.0968 637.621 91.0968C635.008 91.0968 632.903 88.9919 632.903 86.3972C632.903 85.1452 633.393 83.9657 634.282 83.0766L648.871 68.4879L655.53 75.1472L640.942 89.7177ZM656.129 71.627L652.373 67.871L655.784 64.4597C656.891 65.8387 658.161 67.0907 659.54 68.2157L656.129 71.627ZM675 70.7742C662.988 70.7742 653.226 61.0121 653.226 49C653.226 36.9879 662.988 27.2258 675 27.2258C676.887 27.2258 678.774 27.4798 680.589 27.9698L681.042 29.0403C680.244 29.4758 679.5 29.9839 678.81 30.5645C677.649 31.5262 676.724 32.7238 676.306 33.2863C676.234 33.377 676.161 33.4677 676.107 33.5766C675.998 33.7218 675.907 33.8851 675.798 34.0302C674.383 36.2621 673.567 38.9113 673.567 41.7419C673.567 49.744 680.081 56.2581 688.083 56.2581C688.482 56.2581 688.881 56.2218 689.262 56.2036C690.931 56.0403 692.347 55.6048 692.927 55.4052C694.107 54.9879 695.214 54.4436 696.23 53.754C694.052 63.5524 685.379 70.7742 675 70.7742ZM711.29 91.0968H676.452C673.258 91.0968 670.645 88.4839 670.645 85.2903C670.645 82.0968 673.258 79.4839 676.452 79.4839C677.722 79.4839 678.919 79.8831 679.935 80.6452L681.677 78.3226C680.589 77.5061 679.355 76.9798 678.048 76.744C677.958 76.2177 677.903 75.6734 677.903 75.129C677.903 74.5847 677.976 74.0222 678.067 73.4597C683.8 72.752 688.917 70.0847 692.728 66.129C695.087 67.3448 696.883 69.4315 697.718 71.9536L698.226 73.4778L699.696 72.8427C700.621 72.4435 701.601 72.2258 702.599 72.2258C705.647 72.2258 708.278 74.0948 709.349 76.8347C708.169 77.1069 707.063 77.5968 706.083 78.3226L707.825 80.6452C708.841 79.8831 710.038 79.4839 711.308 79.4839C714.502 79.4839 717.115 82.0968 717.115 85.2903C717.115 88.4839 714.484 91.0968 711.29 91.0968Z" fill="#00A4AD"/>
<path d="M653.226 9.8064H635.807V12.7096H653.226V9.8064Z" fill="#00A4AD"/>
<path d="M661.936 15.613H635.807V18.5163H661.936V15.613Z" fill="#00A4AD"/>
<path d="M650.323 21.4194H635.807V24.3227H650.323V21.4194Z" fill="#00A4AD"/>
<path d="M657.5 49.4473C657.5 53.4138 658.394 56.9764 660.311 60.25L663.117 59.0431C661.466 56.1678 660.536 52.9115 660.536 49.4473C660.536 43.5929 663.212 38.2927 667.5 34.4994C666.722 33.9278 665.906 33.3216 665.128 32.75C660.403 37.0283 657.5 42.9347 657.5 49.4473Z" fill="#00A4AD"/>
<g clip-path="url(#clip0)">
<path d="M358.594 40.9251V70.3254H361.406V40.9251C363.826 40.2727 365.625 38.0073 365.625 35.2938C365.625 32.5803 363.826 30.3149 361.406 29.6625V26.5359H358.594V29.6625C356.174 30.3149 354.375 32.5803 354.375 35.2938C354.375 38.0073 356.174 40.2727 358.594 40.9251ZM360 32.3745C361.551 32.3745 362.812 33.6838 362.812 35.2938C362.812 36.9038 361.551 38.2131 360 38.2131C358.449 38.2131 357.188 36.9038 357.188 35.2938C357.188 33.6838 358.449 32.3745 360 32.3745Z" fill="#00A4AD"/>
<path d="M348.75 52.6023V67.4061H351.562V52.6023C353.983 51.9498 355.781 49.6845 355.781 46.971C355.781 44.2575 353.983 41.9921 351.562 41.3396V30.9148H348.75V41.3396C346.33 41.9921 344.531 44.2575 344.531 46.971C344.531 49.6845 346.33 51.9498 348.75 52.6023V52.6023ZM350.156 44.0517C351.707 44.0517 352.969 45.361 352.969 46.971C352.969 48.581 351.707 49.8903 350.156 49.8903C348.605 49.8903 347.344 48.581 347.344 46.971C347.344 45.361 348.605 44.0517 350.156 44.0517V44.0517Z" fill="#00A4AD"/>
<path d="M368.438 61.3602V67.4061H371.25V61.3602C373.67 60.7078 375.469 58.4424 375.469 55.7289C375.469 53.0154 373.67 50.75 371.25 50.0975V30.9148H368.438V50.0975C366.017 50.75 364.219 53.0154 364.219 55.7289C364.219 58.4424 366.017 60.7078 368.438 61.3602ZM369.844 52.8096C371.395 52.8096 372.656 54.1189 372.656 55.7289C372.656 57.3389 371.395 58.6482 369.844 58.6482C368.293 58.6482 367.031 57.3389 367.031 55.7289C367.031 54.1189 368.293 52.8096 369.844 52.8096Z" fill="#00A4AD"/>
<path d="M403.594 64.4868V33.8341C403.594 29.8098 400.44 26.5358 396.562 26.5358C393.936 26.5358 391.669 28.0568 390.461 30.2769C390.008 29.4566 389.544 28.645 389.036 27.87L391.6 23.4326L384.082 15.6293L379.807 18.2888C375.815 15.46 371.257 13.4982 366.524 12.5728L365.316 7.56036H354.684L353.475 12.5743C351.166 13.0253 348.899 13.7376 346.7 14.6747C345.431 10.322 342.359 6.71376 338.064 4.76367L336.094 3.87036V18.8274L327.656 16.6379V3.87036L325.687 4.76367C319.961 7.36185 316.406 12.9085 316.406 19.2376C316.406 25.2908 319.688 30.8009 324.844 33.5349V64.4868C324.844 67.6776 326.841 70.3692 329.595 71.3574L328.399 73.4286L335.917 81.2319L340.192 78.5724C344.184 81.4012 348.742 83.363 353.475 84.2884L354.684 89.3009H365.317L366.525 84.287C371.258 83.3615 375.816 81.3998 379.808 78.571L384.083 81.2305L391.601 73.4272L389.038 68.9898C389.969 67.571 390.777 66.0501 391.517 64.4853H392.344V79.9372L390.852 81.4859L392.531 93.6798H400.594L402.272 81.4859L400.781 79.9387V64.4868H403.594ZM327.656 64.4868V31.6563L326.812 31.2739C322.2 29.1807 319.219 24.4544 319.219 19.2376C319.219 14.8528 321.327 10.9249 324.844 8.54125V18.9179L338.906 22.567V8.54125C342.423 10.9249 344.531 14.8528 344.531 19.2376C344.531 24.4544 341.55 29.1807 336.938 31.2739L336.094 31.6563V64.4868C336.094 66.9011 334.201 68.8657 331.875 68.8657C329.549 68.8657 327.656 66.9011 327.656 64.4868ZM360 23.6165C373.182 23.6165 383.906 34.7478 383.906 48.4306C383.906 62.1134 373.182 73.2447 360 73.2447C351.127 73.2447 343.079 68.1958 338.906 60.0538V33.5349C340.408 32.7379 341.727 31.684 342.876 30.4725L342.897 30.4944C347.199 26.1884 353.593 23.6165 360 23.6165V23.6165ZM389.531 62.0813C388.616 64.2109 387.506 66.2267 386.221 68.0732L385.677 68.8526L388.059 72.9747L383.645 77.5565L379.673 75.0839L378.923 75.6487C374.853 78.7038 370.095 80.7517 365.158 81.5735L364.243 81.7253L363.122 86.3816H356.878L355.756 81.7253L354.84 81.5735C349.903 80.7532 345.144 78.7038 341.076 75.6487L340.325 75.0839L336.354 77.5565L331.94 72.9747L332.677 71.7004C335.912 71.3121 338.462 68.6599 338.828 65.2998C343.831 72.093 351.579 76.164 360 76.164C374.733 76.164 386.719 63.7234 386.719 48.4306C386.719 33.1378 374.733 20.6972 360 20.6972C355.289 20.6972 350.591 21.9788 346.546 24.2281C347.048 22.64 347.344 20.9673 347.344 19.2376C347.344 18.6858 347.307 18.1443 347.254 17.6071C349.703 16.5124 352.247 15.7213 354.84 15.2892L355.756 15.1374L356.878 10.4797H363.12L364.243 15.136L365.158 15.2878C370.095 16.1081 374.854 18.1574 378.923 21.2125L379.673 21.7774L383.645 19.3047L388.059 23.8866L385.677 28.0086L386.221 28.7881C387.506 30.6345 388.616 32.6503 389.531 34.78V62.0813ZM400.781 55.7289H397.969V38.2131H400.781V55.7289ZM392.344 33.8341C392.344 31.4198 394.237 29.4551 396.562 29.4551C398.888 29.4551 400.781 31.4198 400.781 33.8341V35.2937H392.344V33.8341ZM392.344 38.2131H395.156V55.7289H392.344V38.2131ZM398.156 90.7605H394.969L393.834 82.5193L395.156 81.1473V64.4868H397.969V81.1473L399.289 82.5179L398.156 90.7605ZM392.344 61.5675V58.6482H400.781V61.5675H392.344Z" fill="#00A4AD"/>
</g>
<path d="M1012.5 27.2732C1012.5 24.6248 1010.69 22.4111 1008.28 21.8196V18.7739H1005.47V21.821C1003.06 22.4126 1001.25 24.6248 1001.25 27.2747C1001.25 29.6985 1002.76 31.8417 1005 32.6074L1007.85 33.5804C1008.95 33.9546 1009.69 35.001 1009.69 36.1842C1009.69 37.6955 1008.49 38.9247 1007.01 38.9247H1006.74C1005.26 38.9247 1004.06 37.6955 1004.06 36.1827V34.6066H1001.25V36.1827C1001.25 38.8311 1003.06 41.0448 1005.47 41.6364V44.682H1008.28V41.6349C1010.69 41.0434 1012.5 38.8311 1012.5 36.1813C1012.5 33.7574 1010.99 31.6143 1008.75 30.8485L1005.9 29.8755C1004.8 29.5028 1004.06 28.4564 1004.06 27.2732C1004.06 25.7605 1005.26 24.5313 1006.74 24.5313H1007.01C1008.49 24.5313 1009.69 25.7605 1009.69 27.2732V27.41L1012.5 27.2732Z" fill="#00A4AD"/>
<path d="M1033.59 31.728C1033.59 16.6481 1021.61 4.38062 1006.88 4.38062C992.142 4.38062 980.156 16.6481 980.156 31.728C980.156 34.8082 980.679 37.7589 981.6 40.5238L979.561 41.3587L975.049 29.0394C978.09 27.3237 980.156 24.0117 980.156 20.2133C980.156 14.6589 975.741 10.138 970.312 10.138C964.884 10.138 960.469 14.6589 960.469 20.2133C960.469 23.5656 962.083 26.5335 964.553 28.3672L956.119 44.8447C955.709 44.7469 955.284 44.6821 954.844 44.6821C951.742 44.6821 949.219 47.2643 949.219 50.4394C949.219 53.6146 951.742 56.1968 954.844 56.1968C957.946 56.1968 960.469 53.6146 960.469 50.4394C960.469 48.7497 959.742 47.2441 958.605 46.1905L967.042 29.7058C968.067 30.0757 969.165 30.2887 970.312 30.2887C971.034 30.2887 971.737 30.2038 972.415 30.0512L977.937 45.1254L982.651 43.1952C986.136 50.8712 992.977 56.63 1001.25 58.4537V90.7409H995.625V76.3475H996.162C998.193 76.3475 999.844 74.6563 999.844 72.5793C999.844 71.9978 999.709 71.4135 999.456 70.8939L994.7 61.1582C994.072 59.8743 992.81 59.0755 991.406 59.0755C990.003 59.0755 988.74 59.8743 988.113 61.1582L983.357 70.8939C983.104 71.4135 982.969 71.9978 982.969 72.5793C982.969 74.6563 984.62 76.3475 986.65 76.3475H987.188V90.7409H977.344V66.2722H977.881C979.912 66.2722 981.562 64.5809 981.562 62.504C981.562 61.9225 981.428 61.3381 981.174 60.8185L976.418 51.0828C975.791 49.7989 974.528 49.0001 973.125 49.0001C971.722 49.0001 970.459 49.7989 969.832 51.0828L965.076 60.8185C964.823 61.3381 964.688 61.9225 964.688 62.504C964.688 64.5809 966.338 66.2722 968.369 66.2722H968.906V90.7409H959.062V79.2262H959.6C961.63 79.2262 963.281 77.535 963.281 75.458C963.281 74.8765 963.146 74.2921 962.893 73.7725L958.137 64.0369C957.51 62.753 956.247 61.9541 954.844 61.9541C953.44 61.9541 952.178 62.753 951.55 64.0369L946.794 73.7725C946.541 74.2921 946.406 74.8765 946.406 75.458C946.406 77.535 948.057 79.2262 950.088 79.2262H950.625V93.6196H1012.5V58.4537C1024.54 55.801 1033.59 44.8318 1033.59 31.728V31.728ZM954.844 53.3181C953.293 53.3181 952.031 52.027 952.031 50.4394C952.031 48.8518 953.293 47.5608 954.844 47.5608C956.395 47.5608 957.656 48.8518 957.656 50.4394C957.656 52.027 956.395 53.3181 954.844 53.3181ZM963.281 20.2133C963.281 16.2451 966.435 13.0166 970.312 13.0166C974.19 13.0166 977.344 16.2451 977.344 20.2133C977.344 24.1816 974.19 27.41 970.312 27.41C966.435 27.41 963.281 24.1816 963.281 20.2133ZM956.25 90.7409H953.438V76.3475H950.088C949.608 76.3475 949.219 75.9488 949.219 75.458C949.219 75.3198 949.25 75.1831 949.31 75.0608L954.066 65.3251C954.363 64.7177 955.325 64.7177 955.62 65.3251L960.376 75.0608C960.438 75.1817 960.469 75.3198 960.469 75.458C960.469 75.9488 960.079 76.3475 959.6 76.3475H956.25V90.7409ZM1025.08 30.2887C1024.78 26.2111 1023.2 22.5004 1020.74 19.57L1024.72 15.5009C1028.18 19.4879 1030.38 24.6278 1030.71 30.2887H1025.08ZM1006.88 47.5608C998.346 47.5608 991.406 40.4576 991.406 31.728C991.406 22.9985 998.346 15.8953 1006.88 15.8953C1015.4 15.8953 1022.34 22.9985 1022.34 31.728C1022.34 40.4576 1015.4 47.5608 1006.88 47.5608ZM1018.75 17.5347C1015.89 15.0202 1012.27 13.4024 1008.28 13.0901V7.3327C1013.81 7.66519 1018.84 9.91919 1022.73 13.4657L1018.75 17.5347ZM1005.47 13.0901C1001.48 13.4024 997.86 15.0202 994.996 17.5347L991.021 13.4657C994.916 9.91919 999.938 7.66519 1005.47 7.3327V13.0901H1005.47ZM993.008 19.57C990.551 22.5004 988.971 26.2125 988.665 30.2887H983.04C983.364 24.6278 985.568 19.4865 989.033 15.5009L993.008 19.57ZM988.665 33.1674C988.971 37.245 990.551 40.9556 993.008 43.8861L989.033 47.9551C985.568 43.9682 983.365 38.8283 983.04 33.1674H988.665ZM994.996 45.9214C997.86 48.4359 1001.49 50.0537 1005.47 50.366V56.1234C999.938 55.7909 994.915 53.5369 991.02 49.9904L994.996 45.9214ZM1008.28 50.366C1012.27 50.0537 1015.89 48.4359 1018.75 45.9214L1022.73 49.9904C1018.83 53.5369 1013.81 55.7909 1008.28 56.1234V50.366H1008.28ZM1020.74 43.8861C1023.2 40.9556 1024.78 37.2436 1025.08 33.1674H1030.71C1030.39 38.8283 1028.18 43.9696 1024.72 47.9551L1020.74 43.8861ZM986.65 73.4688C986.171 73.4688 985.781 73.0702 985.781 72.5793C985.781 72.4412 985.812 72.3044 985.873 72.1821L990.629 62.4464C990.925 61.839 991.887 61.839 992.182 62.4464L996.938 72.1821C997 72.303 997.031 72.4412 997.031 72.5793C997.031 73.0702 996.642 73.4688 996.162 73.4688H992.812V90.7409H990V73.4688H986.65ZM968.369 63.3935C967.89 63.3935 967.5 62.9948 967.5 62.504C967.5 62.3658 967.531 62.2291 967.591 62.1067L972.347 52.371C972.644 51.7636 973.606 51.7636 973.901 52.371L978.657 62.1067C978.719 62.2276 978.75 62.3658 978.75 62.504C978.75 62.9948 978.36 63.3935 977.881 63.3935H974.531V90.7409H971.719V63.3935H968.369ZM1009.69 90.7409H1004.06V58.9215C1004.99 59.0208 1005.92 59.0755 1006.88 59.0755C1007.83 59.0755 1008.76 59.0208 1009.69 58.9215V90.7409Z" fill="#00A4AD"/>
<path d="M1240.5 23.2732C1240.5 20.6248 1238.69 18.4111 1236.28 17.8196V14.7739H1233.47V17.821C1231.06 18.4126 1229.25 20.6248 1229.25 23.2747C1229.25 25.6985 1230.76 27.8417 1233 28.6074L1235.85 29.5804C1236.95 29.9546 1237.69 31.001 1237.69 32.1842C1237.69 33.6955 1236.49 34.9247 1235.01 34.9247H1234.74C1233.26 34.9247 1232.06 33.6955 1232.06 32.1827V30.6066H1229.25V32.1827C1229.25 34.8311 1231.06 37.0448 1233.47 37.6364V40.682H1236.28V37.6349C1238.69 37.0434 1240.5 34.8311 1240.5 32.1813C1240.5 29.7574 1238.99 27.6143 1236.75 26.8485L1233.9 25.8755C1232.8 25.5028 1232.06 24.4564 1232.06 23.2732C1232.06 21.7605 1233.26 20.5313 1234.74 20.5313H1235.01C1236.49 20.5313 1237.69 21.7605 1237.69 23.2732V23.41L1240.5 23.2732Z" fill="#00A4AD"/>
<path d="M1261.59 27.728C1261.59 12.6481 1249.61 0.380615 1234.88 0.380615C1220.14 0.380615 1208.16 12.6481 1208.16 27.728C1208.16 30.8082 1208.68 33.7589 1209.6 36.5238L1207.56 37.3587L1203.05 25.0394C1206.09 23.3237 1208.16 20.0117 1208.16 16.2133C1208.16 10.6589 1203.74 6.13797 1198.31 6.13797C1192.88 6.13797 1188.47 10.6589 1188.47 16.2133C1188.47 19.5656 1190.08 22.5335 1192.55 24.3672L1184.12 40.8447C1183.71 40.7469 1183.28 40.6821 1182.84 40.6821C1179.74 40.6821 1177.22 43.2643 1177.22 46.4394C1177.22 49.6146 1179.74 52.1968 1182.84 52.1968C1185.95 52.1968 1188.47 49.6146 1188.47 46.4394C1188.47 44.7497 1187.74 43.2441 1186.61 42.1905L1195.04 25.7058C1196.07 26.0757 1197.17 26.2887 1198.31 26.2887C1199.03 26.2887 1199.74 26.2038 1200.41 26.0512L1205.94 41.1254L1210.65 39.1952C1214.14 46.8712 1220.98 52.63 1229.25 54.4537V86.7409H1223.62V72.3475H1224.16C1226.19 72.3475 1227.84 70.6563 1227.84 68.5793C1227.84 67.9978 1227.71 67.4135 1227.46 66.8939L1222.7 57.1582C1222.07 55.8743 1220.81 55.0755 1219.41 55.0755C1218 55.0755 1216.74 55.8743 1216.11 57.1582L1211.36 66.8939C1211.1 67.4135 1210.97 67.9978 1210.97 68.5793C1210.97 70.6563 1212.62 72.3475 1214.65 72.3475H1215.19V86.7409H1205.34V62.2722H1205.88C1207.91 62.2722 1209.56 60.5809 1209.56 58.504C1209.56 57.9225 1209.43 57.3381 1209.17 56.8185L1204.42 47.0828C1203.79 45.7989 1202.53 45.0001 1201.12 45.0001C1199.72 45.0001 1198.46 45.7989 1197.83 47.0828L1193.08 56.8185C1192.82 57.3381 1192.69 57.9225 1192.69 58.504C1192.69 60.5809 1194.34 62.2722 1196.37 62.2722H1196.91V86.7409H1187.06V75.2262H1187.6C1189.63 75.2262 1191.28 73.535 1191.28 71.458C1191.28 70.8765 1191.15 70.2921 1190.89 69.7725L1186.14 60.0369C1185.51 58.753 1184.25 57.9541 1182.84 57.9541C1181.44 57.9541 1180.18 58.753 1179.55 60.0369L1174.79 69.7725C1174.54 70.2921 1174.41 70.8765 1174.41 71.458C1174.41 73.535 1176.06 75.2262 1178.09 75.2262H1178.62V89.6196H1240.5V54.4537C1252.54 51.801 1261.59 40.8318 1261.59 27.728V27.728ZM1182.84 49.3181C1181.29 49.3181 1180.03 48.027 1180.03 46.4394C1180.03 44.8518 1181.29 43.5608 1182.84 43.5608C1184.39 43.5608 1185.66 44.8518 1185.66 46.4394C1185.66 48.027 1184.39 49.3181 1182.84 49.3181ZM1191.28 16.2133C1191.28 12.2451 1194.44 9.01664 1198.31 9.01664C1202.19 9.01664 1205.34 12.2451 1205.34 16.2133C1205.34 20.1816 1202.19 23.41 1198.31 23.41C1194.44 23.41 1191.28 20.1816 1191.28 16.2133ZM1184.25 86.7409H1181.44V72.3475H1178.09C1177.61 72.3475 1177.22 71.9488 1177.22 71.458C1177.22 71.3198 1177.25 71.1831 1177.31 71.0608L1182.07 61.3251C1182.36 60.7177 1183.32 60.7177 1183.62 61.3251L1188.38 71.0608C1188.44 71.1817 1188.47 71.3198 1188.47 71.458C1188.47 71.9488 1188.08 72.3475 1187.6 72.3475H1184.25V86.7409ZM1253.08 26.2887C1252.78 22.2111 1251.2 18.5004 1248.74 15.57L1252.72 11.5009C1256.18 15.4879 1258.38 20.6278 1258.71 26.2887H1253.08ZM1234.88 43.5608C1226.35 43.5608 1219.41 36.4576 1219.41 27.728C1219.41 18.9985 1226.35 11.8953 1234.88 11.8953C1243.4 11.8953 1250.34 18.9985 1250.34 27.728C1250.34 36.4576 1243.4 43.5608 1234.88 43.5608ZM1246.75 13.5347C1243.89 11.0202 1240.27 9.40239 1236.28 9.09005V3.3327C1241.81 3.66519 1246.84 5.91919 1250.73 9.46572L1246.75 13.5347ZM1233.47 9.09005C1229.48 9.40239 1225.86 11.0202 1223 13.5347L1219.02 9.46572C1222.92 5.91919 1227.94 3.66519 1233.47 3.3327V9.09005H1233.47ZM1221.01 15.57C1218.55 18.5004 1216.97 22.2125 1216.67 26.2887H1211.04C1211.36 20.6278 1213.57 15.4865 1217.03 11.5009L1221.01 15.57ZM1216.67 29.1674C1216.97 33.245 1218.55 36.9556 1221.01 39.8861L1217.03 43.9551C1213.57 39.9682 1211.37 34.8283 1211.04 29.1674H1216.67ZM1223 41.9214C1225.86 44.4359 1229.49 46.0537 1233.47 46.366V52.1234C1227.94 51.7909 1222.91 49.5369 1219.02 45.9904L1223 41.9214ZM1236.28 46.366C1240.27 46.0537 1243.89 44.4359 1246.75 41.9214L1250.73 45.9904C1246.83 49.5369 1241.81 51.7909 1236.28 52.1234V46.366H1236.28ZM1248.74 39.8861C1251.2 36.9556 1252.78 33.2436 1253.08 29.1674H1258.71C1258.39 34.8283 1256.18 39.9696 1252.72 43.9551L1248.74 39.8861ZM1214.65 69.4688C1214.17 69.4688 1213.78 69.0702 1213.78 68.5793C1213.78 68.4412 1213.81 68.3044 1213.87 68.1821L1218.63 58.4464C1218.93 57.839 1219.89 57.839 1220.18 58.4464L1224.94 68.1821C1225 68.303 1225.03 68.4412 1225.03 68.5793C1225.03 69.0702 1224.64 69.4688 1224.16 69.4688H1220.81V86.7409H1218V69.4688H1214.65ZM1196.37 59.3935C1195.89 59.3935 1195.5 58.9948 1195.5 58.504C1195.5 58.3658 1195.53 58.2291 1195.59 58.1067L1200.35 48.371C1200.64 47.7636 1201.61 47.7636 1201.9 48.371L1206.66 58.1067C1206.72 58.2276 1206.75 58.3658 1206.75 58.504C1206.75 58.9948 1206.36 59.3935 1205.88 59.3935H1202.53V86.7409H1199.72V59.3935H1196.37ZM1237.69 86.7409H1232.06V54.9215C1232.99 55.0208 1233.92 55.0755 1234.88 55.0755C1235.83 55.0755 1236.76 55.0208 1237.69 54.9215V86.7409Z" fill="#00A4AD"/>
<defs>
<clipPath id="clip0">
<rect width="90" height="90" fill="white" transform="translate(315 4)"/>
</clipPath>
</defs>
</svg>
