<svg width="922" height="221" viewBox="0 0 922 221" fill="none" xmlns="http://www.w3.org/2000/svg">
<path d="M487.867 40.1748V28.4333V22.3333V17.25C487.867 14.447 485.474 12.1667 482.533 12.1667H468.667V7.08333C468.667 4.28038 466.274 2 463.333 2H450.533C447.593 2 445.2 4.28038 445.2 7.08333V12.1667H431.333C428.393 12.1667 426 14.447 426 17.25V19.2833V28.4333V52.8333C426 55.6363 428.393 57.9167 431.333 57.9167H462.108C465.039 61.0287 469.277 63 474 63C482.822 63 490 56.1588 490 47.75C490 44.9918 489.216 42.4094 487.867 40.1748ZM447.333 7.08333C447.333 5.40177 448.769 4.03333 450.533 4.03333H463.333C465.098 4.03333 466.533 5.40177 466.533 7.08333V12.1667H464.4V7.08333C464.4 6.52213 463.923 6.06667 463.333 6.06667H450.533C449.943 6.06667 449.467 6.52213 449.467 7.08333V12.1667H447.333V7.08333ZM462.267 8.1V12.1667H451.6V8.1H462.267ZM428.133 19.2833V17.25C428.133 15.5684 429.569 14.2 431.333 14.2H482.533C484.298 14.2 485.733 15.5684 485.733 17.25V22.3333V28.4333C485.733 31.2363 483.341 33.5167 480.4 33.5167H479.697C477.924 32.8701 476.009 32.5 474 32.5C471.991 32.5 470.076 32.8701 468.303 33.5167H463.333V30.4667C463.333 29.9055 462.857 29.45 462.267 29.45H451.6C451.01 29.45 450.533 29.9055 450.533 30.4667V33.5167H439.867H434.533H433.467C430.526 33.5167 428.133 31.2363 428.133 28.4333V19.2833ZM485.733 33.4038V37.4166C484.897 36.5545 483.971 35.7737 482.948 35.1138C484.009 34.7448 484.959 34.1592 485.733 33.4038ZM461.2 31.4833V33.5167H452.667V31.4833H461.2ZM438.8 35.55V38.6H435.6V35.55H438.8ZM431.333 55.8833C429.569 55.8833 428.133 54.5149 428.133 52.8333V33.4038C429.49 34.7265 431.378 35.55 433.467 35.55V39.6167C433.467 40.1779 433.943 40.6333 434.533 40.6333H439.867C440.457 40.6333 440.933 40.1779 440.933 39.6167V35.55H451.6H462.267H464.441C460.54 38.3336 458 42.7592 458 47.75C458 50.741 458.922 53.5257 460.49 55.8833H431.333ZM487.812 48.7667C487.292 55.2428 481.861 60.4187 475.067 60.9148V58.9333H472.933V60.9148C469.083 60.6332 465.665 58.8571 463.333 56.1832V55.8833H463.092C461.452 53.8886 460.402 51.4405 460.187 48.7667H462.267V46.7333H460.188C460.708 40.2572 466.139 35.0813 472.933 34.5852V36.5667H475.067V34.5852C481.861 35.0813 487.292 40.2572 487.812 46.7333H485.733V48.7667H487.812Z" fill="#FF7369"/>
<path d="M475.067 47.3292V38.6001H472.934V47.7501C472.934 48.0195 473.046 48.2788 473.246 48.4689L479.646 54.5689L481.154 53.1313L475.067 47.3292Z" fill="#FF7369"/>
<path d="M475.067 28.4331H472.934V30.4664H475.067V28.4331Z" fill="#FF7369"/>
<path d="M479.333 28.4331H477.199V30.4664H479.333V28.4331Z" fill="#FF7369"/>
<path d="M470.801 28.4331H468.668V30.4664H470.801V28.4331Z" fill="#FF7369"/>
<path d="M64.6 31.4165V7.58317C64.6 4.59642 62.0579 2.1665 58.9333 2.1665H9.06667C5.94207 2.1665 3.4 4.59642 3.4 7.58317V23.8332C1.52547 23.8332 0 25.2913 0 27.0832V59.5832C0 61.375 1.52547 62.8332 3.4 62.8332H28.3333C30.2079 62.8332 31.7333 61.375 31.7333 59.5832H41.2318C42.3005 59.5832 43.2854 59.1173 43.9337 58.3059C44.5819 57.4945 44.7927 56.4632 44.5117 55.4784L42.2835 47.6665H48.7333V59.5832C48.7333 61.375 50.2588 62.8332 52.1333 62.8332H64.6C66.4745 62.8332 68 61.375 68 59.5832V34.6665C68 32.8747 66.4745 31.4165 64.6 31.4165ZM29.4667 59.5832C29.4667 60.1801 28.9578 60.6665 28.3333 60.6665H3.4C2.77553 60.6665 2.26667 60.1801 2.26667 59.5832V57.4165H29.4667V59.5832ZM29.4667 55.2498H2.26667V31.4165H29.4667V55.2498ZM29.4667 29.2498H2.26667V27.0832C2.26667 26.4862 2.77553 25.9998 3.4 25.9998H28.3333C28.9578 25.9998 29.4667 26.4862 29.4667 27.0832V29.2498ZM42.3255 56.0482C42.4195 56.3765 42.3493 56.7199 42.1328 56.9907C41.9163 57.2616 41.5888 57.4165 41.2318 57.4165H31.7333V55.2498H42.0977L42.3255 56.0482ZM31.7333 53.0832V47.6665H39.9341L41.48 53.0832H31.7333ZM48.7333 45.4998H31.7333V38.9998H48.7333V45.4998ZM48.7333 34.6665V36.8332H31.7333V27.0832C31.7333 25.2913 30.2079 23.8332 28.3333 23.8332H5.66667V7.58317C5.66667 5.79134 7.19213 4.33317 9.06667 4.33317H58.9333C60.8079 4.33317 62.3333 5.79134 62.3333 7.58317V31.4165H52.1333C50.2588 31.4165 48.7333 32.8747 48.7333 34.6665ZM65.7333 59.5832C65.7333 60.1801 65.2245 60.6665 64.6 60.6665H52.1333C51.5089 60.6665 51 60.1801 51 59.5832V57.4165H65.7333V59.5832ZM65.7333 55.2498H51V38.9998H65.7333V55.2498ZM65.7333 36.8332H51V34.6665C51 34.0696 51.5089 33.5832 52.1333 33.5832H64.6C65.2245 33.5832 65.7333 34.0696 65.7333 34.6665V36.8332Z" fill="#FF7369"/>
<path d="M10.5295 42.5665L5.99609 46.8999L7.59885 48.432L12.1323 44.0985L10.5295 42.5665Z" fill="#FF7369"/>
<path d="M24.1314 37.1493L10.5312 50.1494L12.134 51.6815L25.7341 38.6813L24.1314 37.1493Z" fill="#FF7369"/>
<path d="M19.5965 33.9013L12.7969 40.4009L14.3996 41.9329L21.1992 35.4333L19.5965 33.9013Z" fill="#FF7369"/>
<path d="M59.2633 41.4852L53.5977 46.9009L55.2004 48.4329L60.8661 43.0172L59.2633 41.4852Z" fill="#FF7369"/>
<path d="M61.5289 45.8231L55.8633 51.2388L57.466 52.7708L63.1317 47.3551L61.5289 45.8231Z" fill="#FF7369"/>
<path d="M36.5965 14.4012L29.7969 20.9009L31.3996 22.4329L38.1992 15.9333L36.5965 14.4012Z" fill="#FF7369"/>
<path d="M46.7996 12.2343L40 18.7339L41.6028 20.2659L48.4024 13.7663L46.7996 12.2343Z" fill="#FF7369"/>
<path d="M37.7287 20.902L33.1953 25.2354L34.7981 26.7674L39.3315 22.434L37.7287 20.902Z" fill="#FF7369"/>
<path d="M43.4001 7.90392L38.8555 12.248L40.4582 13.7801L45.0028 9.43597L43.4001 7.90392Z" fill="#FF7369"/>
<path d="M10.2003 6.5H7.93359V8.66667H10.2003V6.5Z" fill="#FF7369"/>
<path d="M14.7315 6.5H12.4648V8.66667H14.7315V6.5Z" fill="#FF7369"/>
<path d="M19.2667 6.5H17V8.66667H19.2667V6.5Z" fill="#FF7369"/>
<g clip-path="url(#clip0)">
<path d="M864.087 6.45947H861.906V8.53798H864.087V6.45947Z" fill="#FF7369"/>
<path d="M868.45 6.45947H866.27V8.53798H868.45V6.45947Z" fill="#FF7369"/>
<path d="M872.81 6.45947H870.629V8.53798H872.81V6.45947Z" fill="#FF7369"/>
<path d="M909.885 15.8125H907.705C907.705 17.5314 906.237 18.9303 904.434 18.9303V21.0088C906.237 21.0088 907.705 22.4076 907.705 24.1265H909.885C909.885 22.4076 911.353 21.0088 913.157 21.0088V18.9303C911.353 18.9303 909.885 17.5314 909.885 15.8125ZM908.795 21.041C908.477 20.6326 908.099 20.273 907.671 19.9695C908.099 19.6661 908.477 19.3065 908.795 18.898C909.113 19.3065 909.491 19.6661 909.919 19.9695C909.491 20.273 909.113 20.6326 908.795 21.041Z" fill="#FF7369"/>
<path d="M916.424 4.38086H914.244C914.244 6.09979 912.776 7.49862 910.973 7.49862V9.57714C912.776 9.57714 914.244 10.976 914.244 12.6949H916.424C916.424 10.976 917.892 9.57714 919.696 9.57714V7.49862C917.892 7.49862 916.424 6.09979 916.424 4.38086ZM915.334 9.60935C915.016 9.20092 914.638 8.84134 914.21 8.53788C914.638 8.23442 915.016 7.87484 915.334 7.46641C915.653 7.87484 916.03 8.23442 916.458 8.53788C916.03 8.84134 915.653 9.20092 915.334 9.60935Z" fill="#FF7369"/>
<path d="M895.076 60.8166C884.12 59.9332 871.593 56.0183 861.568 50.3409L858.594 48.6583C859.037 47.671 859.293 46.639 859.543 45.6341C859.617 45.3327 859.692 45.0323 859.771 44.7351C860.001 43.8757 860.256 42.4747 860.551 40.8545C860.977 38.5214 861.505 35.6177 861.983 34.4506L868.514 18.496C868.657 18.1478 868.787 17.7727 868.92 17.3892C869.273 16.3645 869.639 15.3034 870.324 14.7297C870.71 14.4055 871.213 14.1644 871.698 13.9513C871.755 13.9274 871.808 13.8983 871.857 13.8651L884.781 4.43176C885.429 3.95682 886.328 3.96305 886.967 4.45254L893.448 9.3942C893.858 9.70702 894.1 10.1736 894.111 10.6746C894.121 11.1755 893.902 11.6515 893.507 11.9819L889.372 15.4292C888.67 16.0143 887.61 15.9779 886.952 15.3533C886.575 14.9937 886.39 14.499 886.442 13.9929C886.495 13.4878 886.78 13.0358 887.224 12.7541L887.59 12.5203L886.379 10.793L886.014 11.0258C885.025 11.6535 884.39 12.6606 884.272 13.7882C884.154 14.9158 884.57 16.0215 885.411 16.8228C886.877 18.2216 889.249 18.2965 890.807 16.9943L894.284 14.0948L895.354 15.6245L888.821 20.9622L881.017 20.032C881.136 19.4999 881.273 18.9709 881.432 18.4472L879.338 17.8683C878.607 20.2679 878.269 22.7507 878.329 25.2501C878.361 26.5918 878.512 27.9283 878.658 29.2211C878.828 30.7405 878.989 32.1757 878.98 33.6296C878.95 37.9831 877.18 42.0476 874.246 44.4992L875.683 46.0622C877.761 44.3267 879.299 41.9853 880.211 39.3071C880.54 39.2021 880.959 39.2094 881.37 39.2427C882.801 39.3642 884.192 39.7384 885.497 40.2985C884.965 41.1133 884.531 41.9832 884.208 42.8998L886.275 43.5618C886.557 42.7626 886.943 42.006 887.417 41.2983C887.443 41.3149 887.471 41.3274 887.496 41.344L888.542 39.8901C890.596 37.6973 893.623 36.1685 897.144 35.6666C902.416 34.9131 907.317 36.6362 909.957 40.153L911.731 38.9433C910.636 37.4853 909.217 36.2932 907.579 35.3891C910.738 32.8835 915.309 31.9814 919.208 33.2721L919.923 31.309C915.007 29.6773 909.189 30.9972 905.453 34.4205C902.858 33.4779 899.885 33.1724 896.822 33.6109C892.745 34.1908 889.232 35.9929 886.841 38.5858C885.19 37.8158 883.399 37.3304 881.56 37.1735C881.319 37.1527 881.061 37.1434 880.797 37.1454C881.024 36.0158 881.152 34.8456 881.159 33.6442C881.17 32.0708 880.995 30.5098 880.824 28.9998C880.684 27.7495 880.539 26.4567 880.508 25.2013C880.482 24.1579 880.543 23.1176 880.67 22.0856L889.028 23.0812C889.076 23.0843 889.122 23.0874 889.167 23.0874C889.425 23.0874 889.678 22.9991 889.876 22.837L897.508 16.6014C897.928 16.2595 898.012 15.6734 897.707 15.2369L895.794 12.5016C896.12 11.9321 896.308 11.295 896.292 10.6278C896.267 9.50956 895.725 8.46719 894.811 7.76881L888.331 2.82715C886.904 1.74008 884.898 1.72346 883.452 2.7835L871.106 11.8375L870.703 12.1004C870.119 12.3592 869.456 12.6897 868.886 13.1677C867.756 14.1145 867.273 15.5081 866.849 16.7386C866.73 17.0847 866.613 17.4245 866.484 17.7405L859.953 33.6951C859.396 35.0565 858.891 37.8241 858.403 40.4991C858.127 42.0112 857.868 43.4402 857.659 44.2228C857.576 44.5314 857.498 44.8432 857.421 45.155C857.116 46.3875 856.827 47.5505 856.225 48.5398C855.926 49.0324 856.098 49.6633 856.611 49.9532L860.452 52.1284C870.748 57.9576 883.622 61.9795 894.891 62.8878C895.765 62.9585 896.865 63 898.121 63C904.389 63 914.502 61.9545 919.299 58.1852L917.913 56.5816C912.959 60.4746 900.593 61.2593 895.076 60.8166Z" fill="#FF7369"/>
</g>
<g clip-path="url(#clip1)">
<path d="M489.645 184.694L481.467 177.705V161.052C481.467 160.49 480.989 160.035 480.4 160.035H468.667C468.078 160.035 467.6 160.49 467.6 161.052V165.856L458.712 158.261C458.307 157.914 457.693 157.914 457.288 158.261L426.355 184.694C426.026 184.975 425.913 185.421 426.07 185.814C426.229 186.209 426.625 186.468 427.068 186.468H431.334V213.917C431.334 216.72 433.727 219.001 436.668 219.001H447.334H468.667H479.334C482.274 219.001 484.667 216.72 484.667 213.917V186.468H488.933C489.376 186.468 489.772 186.209 489.93 185.814C490.087 185.421 489.974 184.975 489.645 184.694ZM469.734 162.068H479.334V175.883L469.734 167.679V162.068ZM456.934 216.967H448.401V209.851H456.934V216.967ZM456.934 207.818H448.401V199.684H456.934V207.818ZM456.934 197.651H448.401V190.535H456.934V197.651ZM467.6 216.967H459.067V209.851H467.6V216.967ZM467.6 207.818H459.067V199.684H467.6V207.818ZM467.6 197.651H459.067V190.535H467.6V197.651ZM483.6 184.435C483.011 184.435 482.533 184.89 482.533 185.451V213.917C482.533 215.599 481.098 216.967 479.334 216.967H469.734V189.518C469.734 188.957 469.256 188.501 468.667 188.501H447.334C446.745 188.501 446.267 188.957 446.267 189.518V216.967H436.668C434.903 216.967 433.468 215.599 433.468 213.917V185.451C433.468 184.89 432.99 184.435 432.401 184.435H429.855L458.001 160.384L486.146 184.435H483.6Z" fill="#FF7369"/>
<path d="M465.465 202.733H463.332V204.767H465.465V202.733Z" fill="#FF7369"/>
<path d="M458.001 167.151C455.06 167.151 452.668 169.431 452.668 172.234V179.351C452.668 179.912 453.146 180.367 453.735 180.367H462.268C462.857 180.367 463.334 179.912 463.334 179.351V172.234C463.334 169.431 460.942 167.151 458.001 167.151ZM456.935 178.334H454.801V175.284H456.935V178.334ZM456.935 173.251H454.801V172.234C454.801 170.91 455.696 169.792 456.935 169.371V173.251ZM461.201 178.334H459.068V175.284H461.201V178.334ZM461.201 173.251H459.068V169.371C460.306 169.792 461.201 170.91 461.201 172.234V173.251Z" fill="#FF7369"/>
<path d="M454.801 182.401H452.668V184.434H454.801V182.401Z" fill="#FF7369"/>
<path d="M459.067 182.401H456.934V184.434H459.067V182.401Z" fill="#FF7369"/>
<path d="M463.333 182.401H461.199V184.434H463.333V182.401Z" fill="#FF7369"/>
</g>
<path d="M67.7157 165.737C67.7157 160.367 63.1467 156 57.5297 156C54.7422 156 52.0837 157.107 50.1733 159.014C48.2628 157.107 45.6043 156 42.8168 156C37.1998 156 32.6309 160.367 32.6309 165.737C32.6309 169.084 34.393 172.141 37.3526 173.943L38.9529 175.473L19.0496 194.498L15.3227 190.936C14.8802 190.513 14.1649 190.513 13.7224 190.936L9.19534 195.263C8.75281 195.686 8.75281 196.37 9.19534 196.793L12.9222 200.355L11.1273 202.071L7.40035 198.509C6.95783 198.086 6.24255 198.086 5.80003 198.509L1.13149 202.971C0.688969 203.394 0.688969 204.078 1.13149 204.501L4.8584 208.063L0.613141 212.121C0.17062 212.544 0.17062 213.228 0.613141 213.651L7.96963 220.683C8.19033 220.894 8.48006 221 8.76979 221C9.05952 221 9.34926 220.894 9.56995 220.683L16.7861 213.785L20.513 217.348C20.9555 217.771 21.6708 217.771 22.1133 217.348L27.7722 211.939C28.2147 211.516 28.2147 210.832 27.7722 210.409L24.0453 206.846L47.9097 184.035L48.9442 185.024C50.8297 187.853 54.0281 189.537 57.5297 189.537C63.1467 189.537 67.7157 185.17 67.7157 179.8C67.7157 177.136 66.5579 174.595 64.5625 172.768C66.5579 170.942 67.7157 168.401 67.7157 165.737ZM65.4521 179.8C65.4521 183.975 61.8972 187.373 57.5297 187.373C54.7728 187.373 52.2568 186.029 50.798 183.776C50.7516 183.706 50.6973 183.64 50.635 183.58L48.7099 181.74C48.2674 181.317 47.5521 181.317 47.1096 181.74L21.6448 206.081C21.2023 206.504 21.2023 207.188 21.6448 207.611L25.3717 211.174L21.3132 215.053L17.5863 211.491C17.1437 211.068 16.4285 211.068 15.9859 211.491L8.76979 218.388L3.01362 212.886L7.25888 208.828C7.7014 208.405 7.7014 207.722 7.25888 207.299L3.53197 203.736L6.60019 200.803L10.3271 204.366C10.7696 204.789 11.4849 204.789 11.9274 204.366L15.3227 201.12C15.7652 200.697 15.7652 200.013 15.3227 199.59L11.5958 196.028L14.5226 193.23L18.2495 196.793C18.692 197.216 19.4073 197.216 19.8498 196.793L41.3534 176.238C41.7959 175.815 41.7959 175.131 41.3534 174.708L38.8624 172.327C38.8001 172.268 38.7322 172.216 38.6575 172.171C36.3012 170.777 34.8944 168.372 34.8944 165.737C34.8944 161.562 38.4493 158.164 42.8168 158.164C45.3576 158.164 47.7637 159.349 49.2543 161.336C49.6787 161.901 50.669 161.901 51.0934 161.336C52.5828 159.349 54.9889 158.164 57.5297 158.164C61.8972 158.164 65.4521 161.562 65.4521 165.737C65.4521 168.165 64.2117 170.465 62.1338 171.89C61.8373 172.093 61.6618 172.42 61.6618 172.768C61.6618 173.117 61.8373 173.445 62.1338 173.647C64.2117 175.072 65.4521 177.372 65.4521 179.8Z" fill="#FF7369"/>
<path d="M44.2783 179.038L27.3047 195.263L28.9052 196.793L45.8788 180.568L44.2783 179.038Z" fill="#FF7369"/>
<path d="M25.0405 197.425L22.7773 199.588L24.3779 201.118L26.6411 198.954L25.0405 197.425Z" fill="#FF7369"/>
<path d="M57.531 161.409C55.0343 161.409 53.0039 163.35 53.0039 165.737C53.0039 168.123 55.0343 170.064 57.531 170.064C60.0277 170.064 62.0581 168.123 62.0581 165.737C62.0581 163.35 60.0277 161.409 57.531 161.409ZM57.531 167.9C56.2826 167.9 55.2674 166.93 55.2674 165.737C55.2674 164.543 56.2826 163.573 57.531 163.573C58.7793 163.573 59.7945 164.543 59.7945 165.737C59.7945 166.93 58.7793 167.9 57.531 167.9Z" fill="#FF7369"/>
<path d="M44.749 168.216L43.1484 169.746L45.4116 171.909L47.0122 170.379L44.749 168.216Z" fill="#FF7369"/>
<path d="M49.2763 172.543L47.6758 174.073L49.9389 176.236L51.5395 174.706L49.2763 172.543Z" fill="#FF7369"/>
<path d="M53.8037 176.87L52.2031 178.4L54.4663 180.563L56.0668 179.033L53.8037 176.87Z" fill="#FF7369"/>
<path d="M66.5872 202.519H64.602C64.5398 202.368 64.4753 202.219 64.4051 202.069L65.8096 200.726C66.2522 200.303 66.2522 199.619 65.8096 199.196L61.0087 194.607C60.5662 194.184 59.8509 194.184 59.4084 194.607L58.0038 195.95C57.8465 195.883 57.6903 195.821 57.533 195.762V193.864C57.533 193.266 57.0271 192.782 56.4013 192.782H49.6106C48.9848 192.782 48.4789 193.266 48.4789 193.864V195.762C48.3216 195.821 48.1654 195.883 48.0081 195.95L46.6035 194.607C46.161 194.184 45.4457 194.184 45.0032 194.607L40.2023 199.196C39.7597 199.619 39.7597 200.303 40.2023 200.726L41.6068 202.069C41.5366 202.219 41.4721 202.368 41.4099 202.519H39.4247C38.7989 202.519 38.293 203.002 38.293 203.601V210.092C38.293 210.69 38.7989 211.173 39.4247 211.173H41.4099C41.4721 211.324 41.5366 211.473 41.6068 211.623L40.2023 212.966C39.7597 213.389 39.7597 214.073 40.2023 214.496L45.0032 219.085C45.4457 219.508 46.161 219.508 46.6035 219.085L48.0081 217.742C48.1654 217.809 48.3216 217.871 48.4789 217.931V219.828C48.4789 220.426 48.9848 220.91 49.6106 220.91H56.4013C57.0271 220.91 57.533 220.426 57.533 219.828V217.931C57.6903 217.871 57.8465 217.809 58.0038 217.742L59.4084 219.085C59.8509 219.508 60.5662 219.508 61.0087 219.085L65.8096 214.496C66.2522 214.073 66.2522 213.389 65.8096 212.966L64.4051 211.623C64.4753 211.473 64.5398 211.324 64.602 211.173H66.5872C67.213 211.173 67.7189 210.69 67.7189 210.092V203.601C67.7189 203.002 67.213 202.519 66.5872 202.519ZM65.4554 209.01H63.8042C63.3096 209.01 62.8738 209.316 62.7244 209.766C62.5524 210.289 62.3204 210.821 62.0341 211.344C61.8054 211.764 61.8881 212.276 62.2378 212.61L63.4103 213.731L60.2097 216.79L59.0371 215.67C58.6874 215.335 58.1521 215.256 57.713 215.475C57.1652 215.749 56.6084 215.97 56.0617 216.135C55.5898 216.279 55.2695 216.695 55.2695 217.168V218.746H50.7424V217.168C50.7424 216.695 50.4221 216.279 49.9513 216.136C49.4047 215.971 48.8478 215.75 48.3001 215.476C47.8609 215.257 47.3267 215.336 46.9759 215.671L45.8034 216.791L42.6027 213.732L43.7753 212.611C44.125 212.277 44.2076 211.765 43.979 211.345C43.6926 210.822 43.4606 210.29 43.2886 209.767C43.1381 209.316 42.7023 209.01 42.2078 209.01H40.5565V204.682H42.2078C42.7023 204.682 43.1381 204.376 43.2875 203.926C43.4595 203.404 43.6915 202.871 43.9778 202.348C44.2065 201.928 44.1238 201.416 43.7741 201.082L42.6016 199.961L45.8022 196.902L46.9748 198.023C47.3256 198.358 47.8598 198.435 48.2989 198.217C48.8467 197.944 49.4035 197.722 49.9502 197.557C50.4221 197.414 50.7424 196.997 50.7424 196.524V194.946H55.2695V196.524C55.2695 196.997 55.5898 197.414 56.0606 197.556C56.6072 197.721 57.1641 197.943 57.7118 198.216C58.151 198.434 58.6863 198.357 59.036 198.022L60.2085 196.901L63.4092 199.96L62.2367 201.081C61.8869 201.415 61.8043 201.927 62.0329 202.347C62.3193 202.87 62.5513 203.403 62.7233 203.925C62.8738 204.376 63.3096 204.682 63.8042 204.682H65.4554V209.01Z" fill="#FF7369"/>
<path d="M53.0054 200.355C49.2604 200.355 46.2148 203.267 46.2148 206.846C46.2148 210.426 49.2604 213.338 53.0054 213.338C56.7505 213.338 59.7961 210.426 59.7961 206.846C59.7961 203.267 56.7505 200.355 53.0054 200.355ZM53.0054 211.174C50.5088 211.174 48.4784 209.233 48.4784 206.846C48.4784 204.46 50.5088 202.519 53.0054 202.519C55.5021 202.519 57.5325 204.46 57.5325 206.846C57.5325 209.233 55.5021 211.174 53.0054 211.174Z" fill="#FF7369"/>
<path d="M7.73306 178.718H5.46952C5.46952 180.508 3.94616 181.964 2.07422 181.964V184.127C3.94616 184.127 5.46952 185.584 5.46952 187.373H7.73306C7.73306 185.584 9.25642 184.127 11.1284 184.127V181.964C9.25642 181.964 7.73306 180.508 7.73306 178.718ZM6.60129 184.161C6.27081 183.736 5.87922 183.362 5.43444 183.046C5.87922 182.73 6.27081 182.355 6.60129 181.93C6.93176 182.355 7.32336 182.73 7.76814 183.046C7.32336 183.362 6.93176 183.736 6.60129 184.161Z" fill="#FF7369"/>
<path d="M21.3151 172.228H19.0516C19.0516 174.017 17.5282 175.473 15.6562 175.473V177.637C17.5282 177.637 19.0516 179.093 19.0516 180.882H21.3151C21.3151 179.093 22.8385 177.637 24.7104 177.637V175.473C22.8385 175.473 21.3151 174.017 21.3151 172.228ZM20.1833 177.67C19.8528 177.245 19.4613 176.871 19.0165 176.555C19.4613 176.239 19.8528 175.865 20.1833 175.44C20.5138 175.865 20.9054 176.239 21.3502 176.555C20.9054 176.871 20.5138 177.245 20.1833 177.67Z" fill="#FF7369"/>
<path d="M9.99868 162.491H7.73515C7.73515 164.28 6.21179 165.736 4.33984 165.736V167.9C6.21179 167.9 7.73515 169.356 7.73515 171.145H9.99868C9.99868 169.356 11.522 167.9 13.394 167.9V165.736C11.522 165.736 9.99868 164.28 9.99868 162.491ZM8.86691 167.933C8.53644 167.508 8.14485 167.134 7.70006 166.818C8.14485 166.502 8.53644 166.128 8.86691 165.703C9.19739 166.128 9.58898 166.502 10.0338 166.818C9.58898 167.134 9.19739 167.508 8.86691 167.933Z" fill="#FF7369"/>
<path d="M862.503 173.675C860.671 173.675 859.18 175.1 859.18 176.852C859.18 178.603 860.671 180.028 862.503 180.028C864.335 180.028 865.826 178.603 865.826 176.852C865.826 175.1 864.335 173.675 862.503 173.675ZM862.503 177.911C861.893 177.911 861.395 177.435 861.395 176.852C861.395 176.268 861.893 175.793 862.503 175.793C863.113 175.793 863.611 176.268 863.611 176.852C863.611 177.435 863.113 177.911 862.503 177.911Z" fill="#FF7369"/>
<path d="M922 182.895L920.434 181.398L904.581 196.551C904.521 196.487 904.474 196.414 904.409 196.351L895.088 187.441L896.521 186.072L894.954 184.575L891.665 187.719C889.903 189.402 887.174 189.635 885.144 188.417L893.194 180.782C893.195 180.781 893.195 180.78 893.196 180.779L914.244 160.659L912.678 159.162L892.414 178.531L890.982 177.162C890.774 176.963 890.492 176.852 890.198 176.852H886.226L884.335 175.044L868.826 160.219L867.259 161.717L877.554 171.557L863.385 185.101L855.498 178.189L854 179.751L866.935 191.084V193.795C866.935 194.075 867.051 194.345 867.259 194.543L872.05 199.123C871.613 199.688 871.366 200.363 871.366 201.079C871.366 202.862 872.853 204.31 874.701 204.372C874.766 206.101 876.217 207.488 878.025 207.549C878.089 209.277 879.54 210.665 881.348 210.726C881.414 212.493 882.929 213.914 884.793 213.914C885.264 213.914 885.721 213.822 886.142 213.652L886.226 213.732C887.062 214.533 888.176 214.973 889.36 214.973C890.544 214.973 891.656 214.533 892.493 213.732L904.409 202.341C905.247 201.541 905.708 200.478 905.708 199.347C905.708 199.076 905.678 198.809 905.626 198.547L922 182.895ZM865.02 186.534L879.12 173.055L881.985 175.793L868.009 189.152L865.02 186.534ZM875.702 201.919C875.467 202.142 875.156 202.266 874.823 202.266C874.139 202.266 873.581 201.734 873.581 201.079C873.581 200.761 873.711 200.464 873.945 200.239L879.216 195.201C879.451 194.978 879.762 194.854 880.094 194.854C880.779 194.854 881.336 195.386 881.336 196.041C881.336 196.358 881.206 196.656 880.973 196.881L875.702 201.919ZM879.025 205.096C878.79 205.319 878.479 205.443 878.147 205.443C877.462 205.443 876.905 204.91 876.905 204.256C876.905 203.938 877.034 203.641 877.268 203.416L882.539 198.378C882.774 198.154 883.085 198.031 883.418 198.031C884.102 198.031 884.659 198.563 884.659 199.218C884.659 199.535 884.53 199.833 884.296 200.057L879.025 205.096ZM882.349 208.272C882.114 208.496 881.802 208.62 881.47 208.62C880.785 208.62 880.228 208.087 880.228 207.433C880.228 207.115 880.358 206.817 880.592 206.593L885.863 201.555C886.097 201.331 886.409 201.207 886.741 201.207C887.426 201.207 887.983 201.74 887.983 202.394C887.983 202.712 887.853 203.01 887.619 203.234L882.349 208.272ZM885.672 211.449C885.437 211.673 885.126 211.797 884.793 211.797C884.109 211.797 883.552 211.264 883.552 210.609C883.552 210.292 883.681 209.994 883.915 209.77L889.186 204.731C889.421 204.508 889.732 204.384 890.064 204.384C890.749 204.384 891.306 204.917 891.306 205.571C891.306 205.889 891.177 206.186 890.943 206.411L885.672 211.449ZM902.843 200.844L890.926 212.235C890.121 213.005 888.747 213.026 887.899 212.316L892.51 207.908C893.162 207.284 893.522 206.454 893.522 205.571C893.522 203.788 892.035 202.34 890.186 202.278C890.122 200.55 888.671 199.163 886.863 199.101C886.799 197.373 885.347 195.986 883.539 195.924C883.474 194.157 881.959 192.736 880.094 192.736C879.17 192.736 878.302 193.08 877.649 193.704L873.581 197.592L869.15 193.356V191.056L883.552 177.29L884.984 178.66C885.191 178.859 885.474 178.97 885.767 178.97H889.74L890.844 180.026L882.702 187.748C882.493 187.947 882.374 188.22 882.375 188.502C882.376 188.785 882.495 189.056 882.705 189.254C885.618 191.997 890.341 191.98 893.232 189.215L893.522 188.939L902.843 197.848C903.262 198.249 903.492 198.78 903.492 199.347C903.492 199.913 903.262 200.444 902.843 200.844Z" fill="#FF7369"/>
<path d="M861.725 202.201L859.781 203.218C860.146 203.854 860.54 204.488 860.953 205.102L862.817 203.956C862.431 203.384 862.064 202.794 861.725 202.201Z" fill="#FF7369"/>
<path d="M877.53 215.297L876.754 217.28C877.464 217.534 878.196 217.767 878.932 217.973L879.554 215.941C878.871 215.749 878.191 215.533 877.53 215.297Z" fill="#FF7369"/>
<path d="M870.057 211.389L868.727 213.083C869.336 213.52 869.971 213.942 870.611 214.336L871.81 212.555C871.214 212.187 870.623 211.795 870.057 211.389Z" fill="#FF7369"/>
<path d="M873.646 213.6L872.582 215.457C873.249 215.805 873.939 216.137 874.634 216.441L875.556 214.516C874.91 214.232 874.267 213.924 873.646 213.6Z" fill="#FF7369"/>
<path d="M866.829 208.713L865.262 210.21C865.8 210.725 866.365 211.228 866.94 211.705L868.392 210.105C867.856 209.661 867.331 209.192 866.829 208.713Z" fill="#FF7369"/>
<path d="M864.034 205.63L862.262 206.901C862.72 207.485 863.204 208.059 863.701 208.607L865.375 207.218C864.914 206.709 864.463 206.174 864.034 205.63Z" fill="#FF7369"/>
<path d="M858.148 190.545L855.938 190.695C855.991 191.421 856.073 192.153 856.18 192.875L858.374 192.576C858.274 191.904 858.197 191.221 858.148 190.545Z" fill="#FF7369"/>
<path d="M855.936 186.312C855.882 187.032 855.855 187.768 855.855 188.5V188.503L858.071 188.5C858.071 187.818 858.097 187.132 858.146 186.462L855.936 186.312Z" fill="#FF7369"/>
<path d="M858.751 194.583L856.586 195.033C856.748 195.745 856.938 196.46 857.152 197.157L859.278 196.562C859.08 195.913 858.902 195.246 858.751 194.583Z" fill="#FF7369"/>
<path d="M859.951 198.497L857.875 199.238C858.141 199.918 858.436 200.599 858.752 201.26L860.767 200.38C860.473 199.763 860.198 199.13 859.951 198.497Z" fill="#FF7369"/>
<path d="M915.198 200.379C914.901 200.997 914.578 201.611 914.238 202.206L916.182 203.222C916.547 202.585 916.894 201.925 917.212 201.261L915.198 200.379Z" fill="#FF7369"/>
<path d="M913.147 203.961C912.761 204.533 912.35 205.097 911.926 205.638L913.698 206.909C914.155 206.329 914.596 205.722 915.01 205.108L913.147 203.961Z" fill="#FF7369"/>
<path d="M910.585 207.226C910.12 207.739 909.631 208.242 909.129 208.72L910.694 210.219C911.234 209.704 911.76 209.164 912.258 208.614L910.585 207.226Z" fill="#FF7369"/>
<path d="M916.689 196.556C916.489 197.207 916.263 197.859 916.016 198.492L918.091 199.233C918.358 198.552 918.6 197.851 918.815 197.151L916.689 196.556Z" fill="#FF7369"/>
<path d="M917.593 192.57C917.492 193.244 917.364 193.919 917.215 194.579L919.381 195.027C919.541 194.319 919.677 193.593 919.785 192.869L917.593 192.57Z" fill="#FF7369"/>
<path d="M907.565 210.113C907.031 210.555 906.472 210.986 905.902 211.395L907.232 213.089C907.842 212.652 908.443 212.189 909.016 211.714L907.565 210.113Z" fill="#FF7369"/>
<path d="M881.625 216.445L881.156 218.514C881.897 218.668 882.656 218.798 883.414 218.901L883.726 216.805C883.022 216.709 882.315 216.587 881.625 216.445Z" fill="#FF7369"/>
<path d="M917.895 188.5C917.895 189.181 917.87 189.868 917.82 190.541L920.03 190.69C920.084 189.967 920.11 189.23 920.11 188.5H917.895Z" fill="#FF7369"/>
<path d="M892.246 216.803C891.544 216.899 890.829 216.972 890.121 217.019L890.278 219.132C891.037 219.081 891.804 219.003 892.558 218.9L892.246 216.803Z" fill="#FF7369"/>
<path d="M887.984 217.091C887.272 217.091 886.555 217.068 885.852 217.02L885.695 219.133C886.451 219.183 887.222 219.209 887.985 219.209L887.984 217.091Z" fill="#FF7369"/>
<path d="M904.151 212.559C903.557 212.924 902.94 213.275 902.316 213.601L903.38 215.459C904.049 215.109 904.711 214.733 905.35 214.34L904.151 212.559Z" fill="#FF7369"/>
<path d="M900.411 214.515C899.765 214.796 899.103 215.06 898.441 215.295L899.216 217.28C899.927 217.025 900.639 216.744 901.332 216.441L900.411 214.515Z" fill="#FF7369"/>
<path d="M896.414 215.94C895.735 216.129 895.039 216.299 894.344 216.444L894.815 218.513C895.56 218.359 896.308 218.176 897.037 217.972L896.414 215.94Z" fill="#FF7369"/>
<path d="M900.906 160.477L899.93 162.379C900.545 162.667 901.177 162.992 901.81 163.345L902.926 161.515C902.247 161.137 901.567 160.787 900.906 160.477Z" fill="#FF7369"/>
<path d="M887.983 157.791L887.52 157.794L887.552 159.912L887.983 159.909C888.568 159.909 889.139 159.922 889.697 159.947L889.802 157.831C889.209 157.805 888.604 157.791 887.983 157.791Z" fill="#FF7369"/>
<path d="M896.606 158.875L895.984 160.908C896.655 161.095 897.328 161.314 897.986 161.56L898.794 159.588C898.075 159.319 897.339 159.08 896.606 158.875Z" fill="#FF7369"/>
<path d="M892.085 158.008L891.828 160.111C892.544 160.192 893.251 160.298 893.929 160.427L894.361 158.349C893.626 158.209 892.861 158.095 892.085 158.008Z" fill="#FF7369"/>
<path d="M876.32 159.877C875.61 160.142 874.902 160.434 874.215 160.747L875.164 162.66C875.805 162.37 876.465 162.097 877.126 161.85L876.32 159.877Z" fill="#FF7369"/>
<path d="M880.699 158.584C879.956 158.75 879.21 158.941 878.484 159.156L879.139 161.18C879.814 160.98 880.507 160.801 881.2 160.647L880.699 158.584Z" fill="#FF7369"/>
<path d="M885.231 157.902C884.47 157.965 883.703 158.053 882.953 158.166L883.299 160.258C883.996 160.153 884.709 160.07 885.418 160.013L885.231 157.902Z" fill="#FF7369"/>
<defs>
<clipPath id="clip0">
<rect width="64" height="61" fill="white" transform="translate(856 2)"/>
</clipPath>
<clipPath id="clip1">
<rect width="64" height="61" fill="white" transform="translate(426 158)"/>
</clipPath>
</defs>
</svg>
