<svg width="1192" height="258" viewBox="0 0 1192 258" fill="none" xmlns="http://www.w3.org/2000/svg">
<circle cx="2" cy="2" r="2" fill="#00A4AD"/>
<circle cx="34" cy="2" r="2" fill="#00A4AD"/>
<circle cx="66" cy="2" r="2" fill="#00A4AD"/>
<circle cx="98" cy="2" r="2" fill="#00A4AD"/>
<circle cx="130" cy="2" r="2" fill="#00A4AD"/>
<circle cx="162" cy="2" r="2" fill="#00A4AD"/>
<circle cx="194" cy="2" r="2" fill="#00A4AD"/>
<circle cx="226" cy="2" r="2" fill="#00A4AD"/>
<circle cx="162" cy="2" r="2" fill="#00A4AD"/>
<circle cx="194" cy="2" r="2" fill="#00A4AD"/>
<circle cx="226" cy="2" r="2" fill="#00A4AD"/>
<circle cx="258" cy="2" r="2" fill="#00A4AD"/>
<circle cx="290" cy="2" r="2" fill="#00A4AD"/>
<circle cx="322" cy="2" r="2" fill="#00A4AD"/>
<circle cx="354" cy="2" r="2" fill="#00A4AD"/>
<circle cx="386" cy="2" r="2" fill="#00A4AD"/>
<circle cx="413" cy="2" r="2" fill="#00A4AD"/>
<circle cx="477" cy="2" r="2" fill="#00A4AD"/>
<circle cx="509" cy="2" r="2" fill="#00A4AD"/>
<circle cx="541" cy="2" r="2" fill="#00A4AD"/>
<circle cx="573" cy="2" r="2" fill="#00A4AD"/>
<circle cx="605" cy="2" r="2" fill="#00A4AD"/>
<circle cx="637" cy="2" r="2" fill="#00A4AD"/>
<circle cx="669" cy="2" r="2" fill="#00A4AD"/>
<circle cx="701" cy="2" r="2" fill="#00A4AD"/>
<circle cx="966" cy="2" r="2" fill="#00A4AD"/>
<circle cx="998" cy="2" r="2" fill="#00A4AD"/>
<circle cx="1030" cy="2" r="2" fill="#00A4AD"/>
<circle cx="1062" cy="2" r="2" fill="#00A4AD"/>
<circle cx="1094" cy="2" r="2" fill="#00A4AD"/>
<circle cx="1126" cy="2" r="2" fill="#00A4AD"/>
<circle cx="1158" cy="2" r="2" fill="#00A4AD"/>
<circle cx="1190" cy="2" r="2" fill="#00A4AD"/>
<circle cx="637" cy="2" r="2" fill="#00A4AD"/>
<circle cx="669" cy="2" r="2" fill="#00A4AD"/>
<circle cx="701" cy="2" r="2" fill="#00A4AD"/>
<circle cx="733" cy="2" r="2" fill="#00A4AD"/>
<circle cx="765" cy="2" r="2" fill="#00A4AD"/>
<circle cx="797" cy="2" r="2" fill="#00A4AD"/>
<circle cx="829" cy="2" r="2" fill="#00A4AD"/>
<circle cx="861" cy="2" r="2" fill="#00A4AD"/>
<circle cx="893" cy="2" r="2" fill="#00A4AD"/>
<circle cx="2" cy="256" r="2" fill="#00A4AD"/>
<circle cx="34" cy="256" r="2" fill="#00A4AD"/>
<circle cx="66" cy="256" r="2" fill="#00A4AD"/>
<circle cx="98" cy="256" r="2" fill="#00A4AD"/>
<circle cx="130" cy="256" r="2" fill="#00A4AD"/>
<circle cx="162" cy="256" r="2" fill="#00A4AD"/>
<circle cx="194" cy="256" r="2" fill="#00A4AD"/>
<circle cx="226" cy="256" r="2" fill="#00A4AD"/>
<circle cx="162" cy="256" r="2" fill="#00A4AD"/>
<circle cx="194" cy="256" r="2" fill="#00A4AD"/>
<circle cx="226" cy="256" r="2" fill="#00A4AD"/>
<circle cx="258" cy="256" r="2" fill="#00A4AD"/>
<circle cx="290" cy="256" r="2" fill="#00A4AD"/>
<circle cx="322" cy="256" r="2" fill="#00A4AD"/>
<circle cx="354" cy="256" r="2" fill="#00A4AD"/>
<circle cx="386" cy="256" r="2" fill="#00A4AD"/>
<circle cx="413" cy="256" r="2" fill="#00A4AD"/>
<circle cx="477" cy="256" r="2" fill="#00A4AD"/>
<circle cx="509" cy="256" r="2" fill="#00A4AD"/>
<circle cx="541" cy="256" r="2" fill="#00A4AD"/>
<circle cx="573" cy="256" r="2" fill="#00A4AD"/>
<circle cx="605" cy="256" r="2" fill="#00A4AD"/>
<circle cx="637" cy="256" r="2" fill="#00A4AD"/>
<circle cx="669" cy="256" r="2" fill="#00A4AD"/>
<circle cx="701" cy="256" r="2" fill="#00A4AD"/>
<circle cx="966" cy="256" r="2" fill="#00A4AD"/>
<circle cx="998" cy="256" r="2" fill="#00A4AD"/>
<circle cx="1030" cy="256" r="2" fill="#00A4AD"/>
<circle cx="1062" cy="256" r="2" fill="#00A4AD"/>
<circle cx="1094" cy="256" r="2" fill="#00A4AD"/>
<circle cx="1126" cy="256" r="2" fill="#00A4AD"/>
<circle cx="1158" cy="256" r="2" fill="#00A4AD"/>
<circle cx="1190" cy="256" r="2" fill="#00A4AD"/>
<circle cx="637" cy="256" r="2" fill="#00A4AD"/>
<circle cx="669" cy="256" r="2" fill="#00A4AD"/>
<circle cx="701" cy="256" r="2" fill="#00A4AD"/>
<circle cx="733" cy="256" r="2" fill="#00A4AD"/>
<circle cx="765" cy="256" r="2" fill="#00A4AD"/>
<circle cx="797" cy="256" r="2" fill="#00A4AD"/>
<circle cx="829" cy="256" r="2" fill="#00A4AD"/>
<circle cx="861" cy="256" r="2" fill="#00A4AD"/>
<circle cx="893" cy="256" r="2" fill="#00A4AD"/>
</svg>
