<svg width="125" height="39" viewBox="0 0 125 39" fill="none" xmlns="http://www.w3.org/2000/svg">
<path d="M93.7443 29.552V28.8181C94.4164 28.8025 94.9715 28.6377 95.4013 28.3173C95.8317 28.0033 96.0507 27.3004 96.0507 26.2058V12.0556H91.1565V20.2658C91.1565 24.0101 91.5005 30.2859 85.9263 29.8723C84.8474 29.8723 83.9953 29.552 83.3463 28.902C82.6976 28.2552 82.3692 27.5025 82.3692 26.6691C82.3692 25.8481 82.6114 25.1825 83.0804 24.6726C83.5652 24.1501 84.175 23.9013 84.9178 23.9013C86.3483 23.9013 87.0676 24.7689 87.0676 26.5043C87.0676 27.2942 87.2162 27.6922 87.5288 27.6922C88.1151 27.6922 88.5688 27.1978 88.8891 26.2213C89.2098 25.2448 89.3739 23.2575 89.3739 20.2658V14.8078C89.3739 13.5794 89.2098 12.7366 88.8736 12.2826C88.5452 11.8223 87.9667 11.5797 87.1457 11.5393V10.796H103.673V11.5393C102.344 11.5642 101.679 12.407 101.679 14.0646V26.1187C101.679 27.0516 101.812 27.714 102.094 28.137C102.375 28.56 102.899 28.787 103.673 28.8181V29.552H93.7443ZM9.88954 10.796L13.7359 22.9527H14.0329L18.1374 10.796H24.7749V11.6015H24.0401C23.6021 11.6015 23.3285 11.6886 23.1957 11.869C23.0704 12.04 23.0079 12.2359 23.0079 12.4536C23.0079 12.5096 23.0079 12.5718 23.0079 12.6278C23.0079 12.69 23.016 12.7428 23.0392 12.8051L25.1267 27.0205C25.2439 27.8229 25.4314 28.333 25.6973 28.5443C25.9632 28.7621 26.5261 28.8554 27.3938 28.8398V29.5987H18.9506V28.8398C19.0442 28.8398 19.1304 28.8398 19.2085 28.8398C19.2943 28.8398 19.3648 28.8398 19.4507 28.8398C19.6619 28.8398 19.8338 28.8336 19.9589 28.8087C20.0919 28.7932 20.1933 28.7714 20.2717 28.7558C20.3657 28.7155 20.4515 28.6532 20.5062 28.56C20.5687 28.4729 20.5921 28.333 20.5921 28.137C20.5921 28.0997 20.5921 28.0437 20.5921 27.9877C20.5921 27.9255 20.5843 27.8726 20.5687 27.8074L18.6847 14.9571H18.3563L13.4856 29.5987H11.117L6.38713 14.9571H6.09013L4.44065 26.6909C4.44065 26.7157 4.44065 26.7375 4.43254 26.7686C4.41703 26.7935 4.40927 26.8246 4.40927 26.8401V26.9241C4.40927 26.9645 4.40927 27.0112 4.40143 27.0579C4.38565 27.1139 4.38565 27.1667 4.38565 27.2226C4.36229 27.3781 4.34677 27.4964 4.32341 27.5741C4.30754 27.6519 4.29978 27.7296 4.29978 27.8074V27.9037C4.29978 28.2707 4.40143 28.5195 4.6204 28.6532C4.83127 28.7776 5.12051 28.8398 5.47252 28.8398H6.29324V29.5987H0V28.8398H0.734867C1.53999 28.8398 2.0482 28.6221 2.26709 28.1775C2.47831 27.7389 2.62659 27.2382 2.70496 26.6909L4.47178 14.2449C4.47178 14.2045 4.47178 14.1734 4.47178 14.1423C4.47178 14.1112 4.47953 14.0801 4.50316 14.0428C4.50316 14.0428 4.50316 14.0334 4.50316 14.0117C4.50316 13.9962 4.50316 13.9868 4.50316 13.9868C4.50316 13.9091 4.51091 13.822 4.53428 13.7287C4.54979 13.6416 4.57342 13.5328 4.58902 13.3928C4.61265 13.3368 4.62816 13.2684 4.63592 13.1907C4.64377 13.1129 4.65152 13.0321 4.65152 12.9543C4.66704 12.8393 4.68291 12.7211 4.69067 12.6029C4.70627 12.4847 4.70627 12.3915 4.70627 12.3386C4.70627 12.2981 4.70627 12.2577 4.69067 12.2203C4.68291 12.18 4.66704 12.1426 4.65152 12.1022C4.58902 11.984 4.44066 11.869 4.20581 11.7663C3.97141 11.6575 3.58043 11.6015 3.03343 11.6015H2.53271V10.796H9.88954ZM50.5114 29.5987V28.8554C51.3166 28.8554 51.8714 28.6439 52.1765 28.2303C52.4735 27.8166 52.6221 26.9895 52.6221 25.7517V12.0648H50.7537C49.4404 12.0648 48.5335 12.2919 48.0251 12.7677C47.5091 13.2373 47.1104 14.2138 46.8134 15.7066H46.063V10.796H64.8099V15.7066H64.0675C63.825 14.3631 63.4732 13.4177 62.9961 12.8766C62.5349 12.3386 61.5893 12.0648 60.1665 12.0648H58.2588V25.7517C58.2588 27.0361 58.4072 27.8634 58.7123 28.2552C59.0093 28.6377 59.5644 28.8398 60.3618 28.8554V29.5987H50.5114ZM29.1136 29.5987V28.8554C30.0048 28.8554 30.6226 28.6439 30.9587 28.2303C31.2949 27.8166 31.4513 26.9895 31.4513 25.7517V13.8469C31.3966 13.0414 31.2402 12.4847 30.9821 12.1644C30.6462 11.7507 30.0363 11.5393 29.145 11.5393V10.796H44.2804V15.7066H43.4441C43.1782 14.3631 42.7951 13.4177 42.2636 12.8766C41.7473 12.3386 40.7 12.0648 39.1207 12.0648H37.01V19.6251C38.2139 19.6003 39.0345 19.3638 39.4488 18.9285C39.8945 18.4682 40.231 17.6627 40.4573 16.5121H41.1689V23.8857H40.4573C40.231 22.7351 39.8945 21.9296 39.4488 21.4693C39.0345 21.0308 38.2139 20.7975 37.01 20.7727V28.333H39.1207C40.7 28.333 41.7473 28.0592 42.2636 27.5181C42.7951 26.9801 43.1782 26.0347 43.4441 24.6881H44.2804V29.5987H29.1136ZM72.2607 22.0944L70.4858 17.0439L68.6801 22.0944H72.2607ZM67.2259 26.1435C67.0851 26.5976 67.007 26.9956 67.007 27.3564C67.007 27.8011 67.1398 28.1681 67.3899 28.4511C67.648 28.731 67.9683 28.871 68.3673 28.871V29.5987H62.4414V28.871C62.887 28.8336 63.3012 28.6128 63.6999 28.2241C64.0986 27.8322 64.4973 27.1294 64.8882 26.1031C66.4752 22.0322 68.0703 17.9519 69.6573 13.8687C69.6729 13.822 69.6884 13.7753 69.704 13.7287C69.7354 13.6416 69.7742 13.5328 69.8215 13.3928C69.8448 13.3368 69.8762 13.2684 69.8996 13.1907C69.9229 13.1129 69.9387 13.0321 69.9543 12.9543C69.9932 12.8393 70.0246 12.7211 70.0557 12.6029C70.0875 12.4847 70.103 12.3915 70.1107 12.3386C70.1185 12.2981 70.1185 12.2577 70.1185 12.2203C70.1185 12.18 70.1107 12.1426 70.0952 12.1022C70.0557 11.984 69.9229 11.869 69.7117 11.7663C69.5086 11.6637 69.1647 11.6108 68.6724 11.6015V10.796H74.4575C76.5371 16.3566 78.6245 21.9078 80.696 27.4559C80.8761 27.9504 81.0714 28.2925 81.2667 28.4822C81.4701 28.6781 81.7046 28.8087 81.986 28.871V29.5987H73.48V28.871C74.0429 28.871 74.3244 28.6439 74.3244 28.193C74.3244 28.0126 74.27 27.7451 74.1369 27.3937L74.0429 27.12C73.6679 26.0813 73.3006 25.0333 72.9249 23.9852L72.8391 23.752H68.0781L67.7574 24.6508L67.2259 26.1435ZM115.072 29.6079V28.8647C115.744 28.8554 116.299 28.6937 116.729 28.3733C117.159 28.0592 117.378 27.3564 117.378 26.2617V12.1116H112.484V20.3187C112.484 24.0568 112.827 30.3326 107.254 29.9283C106.174 29.9283 105.314 29.6079 104.666 28.958C104.025 28.308 103.696 27.5585 103.696 26.7157C103.696 25.9009 103.939 25.2354 104.408 24.7223C104.885 24.206 105.495 23.9479 106.245 23.9479C107.676 23.9479 108.395 24.8218 108.395 26.5572C108.395 27.347 108.543 27.7451 108.856 27.7451C109.442 27.7451 109.896 27.2538 110.216 26.2773C110.537 25.3008 110.701 23.3135 110.701 20.3187V14.8638C110.701 13.6261 110.529 12.7895 110.193 12.3386C109.865 11.8752 109.294 11.6326 108.465 11.586V10.852H125V11.586C123.663 11.617 122.999 12.463 122.999 14.1205V26.1746C122.999 27.0982 123.139 27.77 123.421 28.193C123.702 28.6128 124.226 28.8399 125 28.8647V29.6079H115.072Z" fill="#0E4F95"/>
<path d="M8.82792 8.10308H6.36292V7.82204C6.45125 7.8194 6.5663 7.81005 6.70682 7.79533C6.84602 7.7792 6.94237 7.75645 6.99455 7.72842C7.07619 7.67888 7.13508 7.62131 7.17254 7.55705C7.21133 7.49287 7.23011 7.41256 7.23011 7.31621V3.27208H7.17122L5.27896 8.01475H5.08493L3.28233 3.1744H3.23147V6.49319C3.23147 6.81434 3.25157 7.05923 3.29168 7.22655C3.3332 7.39378 3.39473 7.51429 3.47768 7.58649C3.53525 7.64141 3.65435 7.6936 3.83498 7.74305C4.01437 7.79392 4.13206 7.8194 4.18698 7.82204V8.10308H1.94678V7.82204C2.06455 7.81138 2.18762 7.7926 2.31615 7.76315C2.44591 7.73503 2.545 7.69087 2.61588 7.63339C2.70685 7.5611 2.7698 7.44871 2.80321 7.29743C2.83671 7.14624 2.85407 6.892 2.85407 6.53735V3.69363C2.85407 3.52905 2.83406 3.39382 2.79518 3.28944C2.75639 3.18506 2.70015 3.10079 2.62663 3.0352C2.545 2.96432 2.44591 2.91205 2.32814 2.87864C2.21036 2.84382 2.09399 2.82513 1.97886 2.81975V2.53871H3.87385L5.45563 6.71799L6.81525 3.22253C6.86611 3.09409 6.90755 2.95895 6.94369 2.81975C6.97851 2.67923 6.99861 2.58552 6.99993 2.53871H8.8199V2.81975C8.74629 2.8224 8.65399 2.83447 8.54018 2.85457C8.42646 2.876 8.34351 2.896 8.29264 2.91346C8.20299 2.94555 8.14278 2.99774 8.11201 3.07002C8.08125 3.14363 8.06512 3.22394 8.06512 3.30954V7.31621C8.06512 7.40851 8.08125 7.48485 8.11201 7.5477C8.14278 7.61064 8.20299 7.66548 8.29264 7.71229C8.33945 7.73909 8.4225 7.76315 8.54292 7.78458C8.66202 7.80732 8.75705 7.8194 8.82792 7.82204V8.10308ZM18.0406 8.10308H15.7281V7.82204C15.9329 7.80864 16.1015 7.78325 16.2367 7.74305C16.3705 7.70427 16.4374 7.65613 16.4374 7.59857C16.4374 7.5745 16.4361 7.54638 16.4307 7.51288C16.4253 7.47815 16.4173 7.4487 16.4066 7.4219L15.9463 6.17601H13.9938C13.9202 6.35937 13.8613 6.51858 13.8144 6.65381C13.7689 6.79027 13.7275 6.91475 13.6914 7.02979C13.6579 7.14227 13.6338 7.23457 13.6204 7.30413C13.607 7.37509 13.6004 7.43266 13.6004 7.47682C13.6004 7.5812 13.6833 7.66283 13.8479 7.72031C14.0125 7.77788 14.1985 7.81138 14.4046 7.82204V8.10308H12.3076V7.82204C12.3759 7.81666 12.4602 7.80194 12.5632 7.77655C12.665 7.75249 12.7479 7.71899 12.8135 7.67755C12.9179 7.60659 12.9995 7.53298 13.057 7.4554C13.1146 7.37774 13.1708 7.27204 13.2256 7.13557C13.5054 6.43835 13.8131 5.65413 14.1504 4.78297C14.4876 3.91306 14.7887 3.13825 15.0523 2.4584H15.3669L17.2216 7.25732C17.2604 7.35905 17.3046 7.442 17.3541 7.50486C17.4036 7.5678 17.4732 7.62801 17.5629 7.68822C17.6217 7.72569 17.7007 7.75646 17.797 7.78061C17.8947 7.806 17.975 7.8194 18.0406 7.82204V8.10308ZM15.8045 5.83079L14.96 3.66957L14.129 5.83079H15.8045ZM25.7491 4.09642H25.452C25.4266 3.99468 25.3905 3.88634 25.3463 3.77121C25.3021 3.65617 25.2352 3.52631 25.1469 3.38051C25.0626 3.24395 24.9783 3.13288 24.8899 3.04323C24.803 2.95489 24.7013 2.9027 24.5876 2.88666C24.4979 2.87458 24.3895 2.86524 24.2597 2.85986C24.1312 2.85457 24.0081 2.85184 23.8903 2.85184H23.0914V7.3095C23.0914 7.39784 23.1128 7.47541 23.1543 7.54233C23.1958 7.60791 23.2587 7.66283 23.3417 7.70427C23.3939 7.72842 23.4875 7.75249 23.624 7.7792C23.7618 7.80468 23.8729 7.8194 23.9586 7.82204V8.10308H21.4614V7.82204C21.5404 7.81666 21.6448 7.80864 21.7759 7.79665C21.907 7.78458 21.9927 7.76985 22.0315 7.75116C22.1105 7.71767 22.168 7.6668 22.2028 7.60121C22.2389 7.5343 22.2564 7.45408 22.2564 7.36037V3.34833C22.2564 3.26273 22.2417 3.18639 22.2135 3.11948C22.1841 3.05257 22.1239 2.99906 22.0315 2.95621C21.9606 2.9228 21.8656 2.89336 21.7465 2.86656C21.6274 2.84117 21.5324 2.82513 21.4614 2.81975V2.53871H25.7491V4.09642ZM35.2294 8.10308H32.9169V7.82204C32.9799 7.81666 33.0695 7.80864 33.1873 7.79798C33.305 7.78863 33.3866 7.7725 33.4308 7.75116C33.5085 7.72031 33.5646 7.67218 33.6008 7.60791C33.6369 7.54506 33.6557 7.4621 33.6557 7.36037V5.3811H31.0461V7.31621C31.0461 7.40851 31.0608 7.48485 31.0916 7.5477C31.1224 7.61064 31.1826 7.66548 31.2723 7.71229C31.3178 7.73645 31.3981 7.75919 31.5131 7.78325C31.6283 7.806 31.7192 7.8194 31.7848 7.82204V8.10308H29.4723V7.82204C29.5352 7.81666 29.6249 7.80864 29.7426 7.79798C29.8604 7.78863 29.942 7.7725 29.9862 7.75116C30.0639 7.72031 30.12 7.67218 30.1562 7.60791C30.1923 7.54506 30.2111 7.4621 30.2111 7.36037V3.34833C30.2111 3.26538 30.1936 3.18912 30.1602 3.11948C30.1267 3.04992 30.0678 2.99641 29.9862 2.95621C29.9153 2.9228 29.831 2.89336 29.7306 2.86656C29.6315 2.84117 29.5446 2.82513 29.4723 2.81975V2.53871H31.7848V2.81975C31.7112 2.8224 31.6202 2.83447 31.5131 2.85457C31.4061 2.876 31.3258 2.896 31.2723 2.91346C31.1826 2.94555 31.1224 2.99774 31.0916 3.07135C31.0608 3.14363 31.0461 3.22394 31.0461 3.30954V5.03589H33.6557V3.34965C33.6557 3.26537 33.6382 3.18912 33.6048 3.11948C33.5713 3.04992 33.5124 2.99642 33.4308 2.95763C33.3599 2.92281 33.2756 2.89336 33.1752 2.86656C33.0762 2.84117 32.9892 2.82513 32.9169 2.81975V2.53871H35.2294V2.81975C35.1558 2.8224 35.0648 2.83447 34.9577 2.85457C34.8507 2.876 34.7704 2.896 34.7169 2.91346C34.6272 2.94555 34.567 2.99774 34.5362 3.07002C34.5054 3.14363 34.4907 3.22394 34.4907 3.30954V7.31621C34.4907 7.40851 34.5054 7.48485 34.5362 7.5477C34.567 7.61064 34.6272 7.66548 34.7169 7.71229C34.7624 7.73645 34.8427 7.75919 34.9577 7.78325C35.0729 7.806 35.1638 7.8194 35.2294 7.82204V8.10308ZM45.067 8.10308H42.7546V7.82204C42.8175 7.81666 42.9098 7.80864 43.0316 7.79798C43.1534 7.78863 43.2363 7.7725 43.2818 7.75116C43.3595 7.72031 43.417 7.67218 43.4545 7.60791C43.4906 7.54506 43.5093 7.4621 43.5093 7.35905V3.89163L40.8276 7.24797V7.33763C40.8276 7.42861 40.8436 7.50221 40.873 7.55846C40.9038 7.61461 40.9627 7.66548 41.0523 7.71229C41.0965 7.73645 41.1795 7.75919 41.2999 7.78325C41.4204 7.806 41.514 7.8194 41.5823 7.82204V8.10308H39.2859V7.82204C39.3487 7.81666 39.4385 7.80864 39.5562 7.79798C39.674 7.78863 39.7556 7.7725 39.7997 7.75116C39.8774 7.72031 39.9336 7.67218 39.9697 7.60791C40.0059 7.54506 40.0246 7.4621 40.0246 7.36037V3.34833C40.0246 3.26538 40.0072 3.18912 39.9738 3.11948C39.9403 3.04992 39.8814 2.99641 39.7997 2.95621C39.7289 2.9228 39.6445 2.89336 39.5442 2.86656C39.4451 2.84117 39.3582 2.82513 39.2859 2.81975V2.53871H41.5823V2.81975C41.5087 2.8224 41.4177 2.83447 41.3093 2.85457C41.2009 2.876 41.1206 2.896 41.0671 2.91346C40.9787 2.94555 40.9185 2.99774 40.8891 3.07002C40.8583 3.14363 40.8436 3.22394 40.8436 3.30954V6.69127L43.5254 3.33898C43.5254 3.24528 43.508 3.1677 43.4745 3.10617C43.4398 3.04596 43.3809 2.99509 43.2965 2.95621C43.231 2.92545 43.1414 2.89601 43.0262 2.86797C42.9098 2.84117 42.8201 2.82513 42.7546 2.81975V2.53871H45.067V2.81975C44.9934 2.8224 44.9025 2.83447 44.7953 2.85457C44.6883 2.876 44.608 2.896 44.5545 2.91346C44.4649 2.94555 44.4046 2.99774 44.3739 3.07002C44.3431 3.14363 44.3284 3.22394 44.3284 3.30954V7.31621C44.3284 7.40851 44.3431 7.48485 44.3739 7.5477C44.4046 7.61064 44.4649 7.66548 44.5545 7.71229C44.6 7.73645 44.6803 7.75919 44.7953 7.78325C44.9105 7.806 45.0014 7.8194 45.067 7.82204V8.10308ZM53.6387 4.04828H53.3656C53.3416 3.95457 53.3001 3.84218 53.2385 3.71232C53.177 3.58388 53.1088 3.46073 53.0324 3.34569C52.9535 3.22527 52.8678 3.12089 52.7755 3.02983C52.6818 2.94017 52.5922 2.88798 52.5066 2.87458C52.4249 2.86524 52.3232 2.85722 52.2001 2.85184C52.077 2.84655 51.9632 2.84382 51.8588 2.84382H51.6314V7.29346C51.6314 7.37906 51.65 7.45805 51.6862 7.53034C51.7223 7.60262 51.7866 7.65746 51.8776 7.69624C51.9244 7.71502 52.0234 7.73909 52.1733 7.77118C52.3232 7.80194 52.4397 7.8194 52.5226 7.82204V8.10308H49.897V7.82204C49.9706 7.81666 50.0817 7.806 50.2329 7.79128C50.3827 7.77523 50.4871 7.75513 50.5447 7.73239C50.6317 7.69757 50.6945 7.64943 50.736 7.58517C50.7762 7.52099 50.7963 7.43531 50.7963 7.32829V2.84382H50.5687C50.4871 2.84382 50.3868 2.84514 50.2664 2.84919C50.1458 2.85325 50.0308 2.8626 49.9211 2.87458C49.8355 2.88534 49.7458 2.93753 49.6521 3.02983C49.5597 3.12353 49.4741 3.22791 49.3951 3.34569C49.3175 3.46346 49.2479 3.58926 49.1877 3.72035C49.1275 3.85285 49.086 3.96127 49.0619 4.04828H48.789V2.53871H53.6387V4.04828ZM61.8463 3.19582C62.0925 3.45139 62.2839 3.76054 62.4231 4.12322C62.5609 4.48589 62.6305 4.88735 62.6305 5.32627C62.6305 5.76917 62.5595 6.17072 62.419 6.53198C62.2772 6.89333 62.0818 7.20108 61.8302 7.45408C61.588 7.70559 61.3056 7.89971 60.9845 8.03485C60.662 8.17132 60.3208 8.23954 59.9568 8.23954C59.5699 8.23954 59.2126 8.16735 58.8848 8.02145C58.5569 7.87696 58.2746 7.67482 58.039 7.41521C57.8049 7.16096 57.6188 6.85321 57.485 6.49054C57.3498 6.12787 57.2829 5.73981 57.2829 5.32627C57.2829 4.87395 57.3539 4.46976 57.4944 4.1152C57.6362 3.76055 57.8303 3.45412 58.0791 3.19582C58.324 2.93885 58.6104 2.74217 58.9357 2.60694C59.2609 2.47048 59.6008 2.40225 59.9568 2.40225C60.3247 2.40225 60.6727 2.4718 60.9992 2.60968C61.3257 2.74878 61.6081 2.94423 61.8463 3.19582ZM61.2629 7.14757C61.41 6.90805 61.5158 6.63908 61.5827 6.33662C61.6496 6.03548 61.683 5.69961 61.683 5.32627C61.683 4.9435 61.6456 4.59291 61.5706 4.27308C61.497 3.95325 61.3873 3.68023 61.2441 3.45544C61.0996 3.23196 60.9189 3.05927 60.7021 2.93488C60.4853 2.81041 60.2364 2.74746 59.9568 2.74746C59.6422 2.74746 59.3759 2.81975 59.1565 2.96432C58.937 3.10749 58.7577 3.3002 58.6185 3.54236C58.4887 3.77254 58.391 4.04291 58.3268 4.35207C58.2625 4.66114 58.2304 4.98635 58.2304 5.32627C58.2304 5.70367 58.2638 6.04492 58.3321 6.3487C58.4004 6.65381 58.5074 6.92277 58.6546 7.15964C58.7951 7.38981 58.9731 7.57045 59.1872 7.7003C59.4027 7.83006 59.6583 7.89433 59.9568 7.89433C60.2364 7.89433 60.4893 7.82874 60.7142 7.69757C60.939 7.56648 61.1223 7.38312 61.2629 7.14757ZM70.8395 4.09642H70.5424C70.517 3.99468 70.4808 3.88634 70.4367 3.77121C70.3925 3.65617 70.3256 3.52631 70.2373 3.38051C70.153 3.24395 70.0686 3.13288 69.9803 3.04323C69.8934 2.95489 69.7916 2.9027 69.6779 2.88666C69.5883 2.87458 69.4798 2.86524 69.3501 2.85986C69.2215 2.85457 69.0985 2.85184 68.9807 2.85184H68.1817V7.3095C68.1817 7.39784 68.2032 7.47541 68.2447 7.54233C68.2861 7.60791 68.3491 7.66283 68.432 7.70427C68.4842 7.72842 68.5778 7.75249 68.7144 7.7792C68.8522 7.80468 68.9632 7.8194 69.0489 7.82204V8.10308H66.5518V7.82204C66.6307 7.81666 66.7351 7.80864 66.8663 7.79665C66.9974 7.78458 67.0831 7.76985 67.1219 7.75116C67.2008 7.71767 67.2584 7.6668 67.2931 7.60121C67.3293 7.5343 67.3467 7.45408 67.3467 7.36037V3.34833C67.3467 3.26273 67.332 3.18639 67.3039 3.11948C67.2745 3.05257 67.2142 2.99906 67.1219 2.95621C67.051 2.9228 66.9559 2.89336 66.8369 2.86656C66.7178 2.84117 66.6227 2.82513 66.5518 2.81975V2.53871H70.8395V4.09642ZM79.0458 3.19582C79.292 3.45139 79.4834 3.76054 79.6226 4.12322C79.7603 4.48589 79.83 4.88735 79.83 5.32627C79.83 5.76917 79.759 6.17072 79.6185 6.53198C79.4767 6.89333 79.2813 7.20108 79.0297 7.45408C78.7875 7.70559 78.5051 7.89971 78.184 8.03485C77.8615 8.17132 77.5202 8.23954 77.1562 8.23954C76.7694 8.23954 76.4121 8.16735 76.0843 8.02145C75.7564 7.87696 75.4741 7.67482 75.2385 7.41521C75.0044 7.16096 74.8183 6.85321 74.6844 6.49054C74.5493 6.12787 74.4824 5.73981 74.4824 5.32627C74.4824 4.87395 74.5534 4.46976 74.6939 4.1152C74.8357 3.76055 75.0297 3.45412 75.2786 3.19582C75.5235 2.93885 75.8099 2.74217 76.1351 2.60694C76.4603 2.47048 76.8003 2.40225 77.1562 2.40225C77.5242 2.40225 77.8721 2.4718 78.1987 2.60968C78.5252 2.74878 78.8076 2.94423 79.0458 3.19582ZM78.4623 7.14757C78.6095 6.90805 78.7153 6.63908 78.7822 6.33662C78.8491 6.03548 78.8825 5.69961 78.8825 5.32627C78.8825 4.9435 78.845 4.59291 78.7701 4.27308C78.6965 3.95325 78.5867 3.68023 78.4436 3.45544C78.2991 3.23196 78.1184 3.05927 77.9016 2.93488C77.6848 2.81041 77.4359 2.74746 77.1562 2.74746C76.8417 2.74746 76.5754 2.81975 76.356 2.96432C76.1365 3.10749 75.9571 3.3002 75.8179 3.54236C75.6882 3.77254 75.5905 4.04291 75.5262 4.35207C75.462 4.66114 75.4299 4.98635 75.4299 5.32627C75.4299 5.70367 75.4633 6.04492 75.5316 6.3487C75.5999 6.65381 75.7069 6.92277 75.8541 7.15964C75.9946 7.38981 76.1726 7.57045 76.3867 7.7003C76.6022 7.83006 76.8577 7.89433 77.1562 7.89433C77.4359 7.89433 77.6888 7.82874 77.9137 7.69757C78.1385 7.56648 78.3218 7.38312 78.4623 7.14757ZM88.055 3.91173C88.055 4.20212 87.9988 4.45909 87.885 4.68256C87.7713 4.90736 87.6134 5.09205 87.4127 5.23794C87.2146 5.38516 86.9965 5.49218 86.7596 5.56042C86.5214 5.62874 86.2698 5.66215 86.0035 5.66215H85.3812V7.34433C85.3812 7.43663 85.3959 7.51561 85.4267 7.58517C85.4561 7.65481 85.5191 7.707 85.614 7.74305C85.6609 7.76183 85.7439 7.7792 85.863 7.79533C85.9834 7.81005 86.0932 7.8194 86.1922 7.82204V8.10308H83.8075V7.82204C83.8703 7.81666 83.9601 7.80732 84.0778 7.79533C84.1955 7.78193 84.2785 7.76448 84.3241 7.74305C84.403 7.70964 84.4592 7.6601 84.494 7.59451C84.5288 7.52901 84.5462 7.44597 84.5462 7.34433V3.33229C84.5462 3.24131 84.5328 3.15968 84.5073 3.08607C84.4806 3.01246 84.419 2.95763 84.3227 2.92148C84.2237 2.88798 84.126 2.86391 84.0283 2.84919C83.9292 2.83447 83.8463 2.82513 83.7754 2.81975V2.53871H86.3127C86.8292 2.53871 87.2494 2.66319 87.5719 2.91346C87.8945 3.16364 88.055 3.49555 88.055 3.91173ZM86.864 4.85791C86.9537 4.73343 87.0112 4.60358 87.0407 4.46843C87.0687 4.33329 87.0834 4.21287 87.0834 4.10576C87.0834 3.95722 87.0661 3.80603 87.0312 3.65211C86.9952 3.49687 86.9349 3.36305 86.8493 3.24801C86.7569 3.12486 86.6378 3.02982 86.4893 2.96159C86.3394 2.89336 86.1547 2.85986 85.9325 2.85986H85.3812V5.31693H85.78C86.0624 5.31693 86.2913 5.27276 86.4665 5.18576C86.6432 5.09742 86.7757 4.98899 86.864 4.85791ZM94.4173 8.23954C94.0854 8.23954 93.7682 8.17405 93.4645 8.04287C93.1607 7.91302 92.8904 7.72437 92.6562 7.47815C92.4247 7.23193 92.2387 6.93211 92.1008 6.57746C91.963 6.2229 91.8934 5.82277 91.8934 5.37846C91.8934 4.93284 91.9616 4.53006 92.0968 4.16738C92.232 3.80471 92.4206 3.49291 92.6602 3.23056C92.8984 2.97235 93.178 2.77162 93.5019 2.62969C93.8258 2.48917 94.171 2.41829 94.5391 2.41829C94.8134 2.41829 95.061 2.4517 95.2818 2.52002C95.5039 2.58693 95.7153 2.68188 95.9161 2.80503L96.0767 2.53871H96.3898L96.4219 4.52194H96.1007C96.0593 4.32923 95.9964 4.12048 95.9134 3.89436C95.8305 3.66957 95.7328 3.47818 95.6203 3.32162C95.4959 3.14496 95.3474 3.00576 95.1761 2.90544C95.0034 2.80503 94.8067 2.75548 94.5859 2.75548C94.333 2.75548 94.0987 2.81173 93.8806 2.92412C93.6639 3.03652 93.4751 3.20252 93.3172 3.42194C93.166 3.63475 93.047 3.90371 92.9613 4.23156C92.8757 4.55809 92.8328 4.92349 92.8328 5.32627C92.8328 5.68225 92.8783 6.00745 92.968 6.30453C93.0576 6.60162 93.1847 6.86256 93.3521 7.08736C93.518 7.30951 93.7161 7.48352 93.9435 7.60923C94.171 7.73503 94.4253 7.79798 94.7063 7.79798C94.9165 7.79798 95.1105 7.76448 95.2872 7.69757C95.4651 7.63066 95.6177 7.54233 95.7488 7.43266C95.8786 7.31753 95.9924 7.18635 96.0914 7.04054C96.1904 6.89333 96.2707 6.73412 96.3336 6.56142L96.6307 6.70194C96.4059 7.25467 96.1088 7.64811 95.7381 7.88499C95.3688 8.12186 94.9271 8.23954 94.4173 8.23954ZM105.675 8.10308H104.141C104.034 7.7993 103.93 7.52231 103.827 7.27204C103.725 7.02177 103.619 6.7796 103.512 6.54273C103.337 6.14797 103.159 5.88024 102.981 5.74246C102.802 5.60326 102.561 5.5337 102.258 5.5337H101.973V7.31621C101.973 7.40189 101.989 7.47947 102.021 7.5477C102.055 7.61461 102.114 7.67086 102.198 7.71229C102.24 7.73107 102.317 7.75249 102.43 7.7792C102.543 7.80468 102.637 7.8194 102.712 7.82204V8.10308H100.399V7.82204C100.461 7.81666 100.549 7.80864 100.666 7.79798C100.782 7.78863 100.864 7.7725 100.912 7.75116C100.991 7.71767 101.048 7.6668 101.085 7.60121C101.121 7.5343 101.138 7.45408 101.138 7.36037V3.34833C101.138 3.26 101.123 3.18242 101.093 3.11684C101.062 3.05257 101.002 2.99906 100.912 2.95621C100.84 2.9228 100.755 2.89336 100.658 2.86656C100.56 2.84117 100.473 2.82513 100.399 2.81975V2.53871H102.712V2.81975C102.64 2.8224 102.549 2.83447 102.44 2.85457C102.331 2.876 102.25 2.896 102.198 2.91346C102.111 2.94555 102.051 2.99774 102.02 3.07002C101.989 3.14363 101.973 3.22253 101.973 3.30954V5.21246H102.339C102.436 5.21246 102.531 5.19113 102.624 5.14961C102.717 5.10809 102.803 5.04656 102.882 4.96625C102.994 4.85121 103.085 4.71068 103.152 4.54469C103.22 4.37878 103.294 4.17805 103.372 3.94391C103.445 3.72705 103.52 3.52631 103.599 3.34031C103.677 3.15562 103.792 2.98434 103.943 2.82777C104.046 2.7234 104.165 2.64044 104.304 2.58023C104.442 2.52002 104.593 2.49058 104.755 2.49058C104.868 2.49058 104.965 2.50389 105.05 2.53201C105.133 2.55881 105.204 2.5976 105.261 2.64714C105.313 2.69131 105.352 2.7435 105.379 2.80371C105.404 2.86392 105.418 2.9295 105.418 2.99906C105.418 3.05662 105.41 3.11287 105.392 3.1677C105.375 3.22253 105.351 3.26802 105.32 3.30557C105.283 3.34965 105.243 3.38447 105.198 3.40854C105.153 3.43402 105.09 3.44601 105.01 3.44601C104.923 3.44601 104.848 3.43128 104.784 3.40325C104.719 3.37381 104.664 3.33493 104.616 3.28548C104.569 3.23593 104.527 3.17704 104.489 3.11013C104.452 3.04322 104.415 2.97631 104.381 2.90808C104.308 2.95763 104.246 3.01916 104.195 3.09277C104.144 3.16638 104.098 3.24528 104.06 3.32832C104.019 3.4126 103.986 3.50093 103.955 3.59455C103.926 3.68958 103.891 3.79396 103.852 3.90776C103.82 4.00544 103.784 4.11246 103.742 4.23156C103.7 4.35066 103.651 4.46041 103.597 4.56214C103.539 4.6719 103.472 4.78156 103.394 4.89132C103.318 5.00107 103.226 5.10412 103.119 5.20048V5.25531C103.408 5.33562 103.65 5.46406 103.841 5.64205C104.034 5.81871 104.195 6.04756 104.326 6.32728C104.399 6.48649 104.48 6.6591 104.567 6.84378C104.655 7.02847 104.727 7.18503 104.785 7.31356C104.865 7.48881 104.944 7.60527 105.02 7.66415C105.095 7.72304 105.173 7.75778 105.252 7.77118C105.319 7.78193 105.392 7.79127 105.471 7.80062C105.549 7.81005 105.617 7.81666 105.675 7.82204V8.10308ZM115.029 8.10308H112.717V7.82204C112.78 7.81666 112.872 7.80864 112.994 7.79798C113.116 7.78863 113.199 7.7725 113.244 7.75116C113.322 7.72031 113.379 7.67218 113.417 7.60791C113.453 7.54506 113.472 7.4621 113.472 7.35905V3.89163L110.79 7.24797V7.33763C110.79 7.42861 110.806 7.50221 110.835 7.55846C110.866 7.61461 110.925 7.66548 111.015 7.71229C111.059 7.73645 111.142 7.75919 111.262 7.78325C111.383 7.806 111.476 7.8194 111.545 7.82204V8.10308H109.248V7.82204C109.311 7.81666 109.401 7.80864 109.518 7.79798C109.636 7.78863 109.718 7.7725 109.762 7.75116C109.84 7.72031 109.896 7.67218 109.932 7.60791C109.968 7.54506 109.987 7.4621 109.987 7.36037V3.34833C109.987 3.26538 109.969 3.18912 109.936 3.11948C109.903 3.04992 109.844 2.99641 109.762 2.95621C109.691 2.9228 109.607 2.89336 109.506 2.86656C109.407 2.84117 109.32 2.82513 109.248 2.81975V2.53871H111.545V2.81975C111.471 2.8224 111.38 2.83447 111.272 2.85457C111.163 2.876 111.083 2.896 111.029 2.91346C110.941 2.94555 110.881 2.99774 110.851 3.07002C110.821 3.14363 110.806 3.22394 110.806 3.30954V6.69127L113.488 3.33898C113.488 3.24528 113.47 3.1677 113.437 3.10617C113.402 3.04596 113.343 2.99509 113.259 2.95621C113.193 2.92545 113.104 2.89601 112.989 2.86797C112.872 2.84117 112.782 2.82513 112.717 2.81975V2.53871H115.029V2.81975C114.956 2.8224 114.865 2.83447 114.758 2.85457C114.651 2.876 114.57 2.896 114.517 2.91346C114.427 2.94555 114.367 2.99774 114.336 3.07002C114.305 3.14363 114.291 3.22394 114.291 3.30954V7.31621C114.291 7.40851 114.305 7.48485 114.336 7.5477C114.367 7.61064 114.427 7.66548 114.517 7.71229C114.562 7.73645 114.643 7.75919 114.758 7.78325C114.873 7.806 114.964 7.8194 115.029 7.82204V8.10308ZM124.87 8.10308H122.557V7.82204C122.62 7.81666 122.712 7.80864 122.834 7.79798C122.956 7.78863 123.039 7.7725 123.084 7.75116C123.162 7.72031 123.22 7.67218 123.257 7.60791C123.293 7.54506 123.312 7.4621 123.312 7.35905V3.89163L120.63 7.24797V7.33763C120.63 7.42861 120.646 7.50221 120.676 7.55846C120.706 7.61461 120.765 7.66548 120.855 7.71229C120.899 7.73645 120.982 7.75919 121.102 7.78325C121.223 7.806 121.317 7.8194 121.385 7.82204V8.10308H119.088V7.82204C119.151 7.81666 119.241 7.80864 119.359 7.79798C119.476 7.78863 119.558 7.7725 119.602 7.75116C119.68 7.72031 119.736 7.67218 119.772 7.60791C119.808 7.54506 119.827 7.4621 119.827 7.36037V3.34833C119.827 3.26538 119.81 3.18912 119.776 3.11948C119.743 3.04992 119.684 2.99641 119.602 2.95621C119.531 2.9228 119.447 2.89336 119.347 2.86656C119.248 2.84117 119.161 2.82513 119.088 2.81975V2.53871H121.385V2.81975C121.311 2.8224 121.22 2.83447 121.112 2.85457C121.003 2.876 120.923 2.896 120.87 2.91346C120.781 2.94555 120.721 2.99774 120.692 3.07002C120.661 3.14363 120.646 3.22394 120.646 3.30954V6.69127L123.328 3.33898C123.328 3.24528 123.311 3.1677 123.277 3.10617C123.242 3.04596 123.183 2.99509 123.099 2.95621C123.034 2.92545 122.944 2.89601 122.829 2.86797C122.712 2.84117 122.623 2.82513 122.557 2.81975V2.53871H124.87V2.81975C124.796 2.8224 124.705 2.83447 124.598 2.85457C124.491 2.876 124.411 2.896 124.357 2.91346C124.267 2.94555 124.207 2.99774 124.176 3.07002C124.146 3.14363 124.131 3.22394 124.131 3.30954V7.31621C124.131 7.40851 124.146 7.48485 124.176 7.5477C124.207 7.61064 124.267 7.66548 124.357 7.71229C124.403 7.73645 124.483 7.75919 124.598 7.78325C124.713 7.806 124.804 7.8194 124.87 7.82204V8.10308ZM122.856 1.63406C122.831 1.57923 122.802 1.50562 122.769 1.41191C122.735 1.31961 122.718 1.23666 122.718 1.16437C122.718 1.0279 122.762 0.930137 122.849 0.869927C122.936 0.809717 123.031 0.780273 123.133 0.780273C123.248 0.780273 123.341 0.821795 123.414 0.906071C123.484 0.989026 123.521 1.09614 123.521 1.2259C123.521 1.31159 123.494 1.41332 123.44 1.52704C123.387 1.64208 123.306 1.74117 123.199 1.82412C123.074 1.92048 122.924 1.99806 122.747 2.05694C122.572 2.11583 122.328 2.14528 122.018 2.14528C121.741 2.14528 121.505 2.11451 121.311 2.05297C121.116 1.99276 120.962 1.91642 120.847 1.82412C120.734 1.73579 120.653 1.63812 120.602 1.53101C120.551 1.42399 120.526 1.32226 120.526 1.2259C120.526 1.09614 120.562 0.989026 120.633 0.906071C120.705 0.821795 120.797 0.780273 120.91 0.780273C121.014 0.780273 121.111 0.808397 121.197 0.865962C121.284 0.923528 121.329 1.02253 121.329 1.16437C121.329 1.24468 121.313 1.32631 121.282 1.40794C121.25 1.4909 121.22 1.56583 121.191 1.63406C121.301 1.73844 121.432 1.80535 121.583 1.83479C121.734 1.86556 121.879 1.88028 122.018 1.88028C122.145 1.88028 122.289 1.86423 122.451 1.83082C122.613 1.79864 122.748 1.73315 122.856 1.63406Z" fill="#0E4F95"/>
<path d="M73.0258 35.5235H72.8374C72.8214 35.4589 72.7985 35.3903 72.7705 35.3173C72.7424 35.2443 72.7 35.1619 72.644 35.0695C72.5905 34.9829 72.5371 34.9125 72.4811 34.8556C72.4259 34.7996 72.3614 34.7666 72.2893 34.7564C72.2324 34.7488 72.1638 34.7428 72.0814 34.7394C72 34.736 71.9219 34.7343 71.8472 34.7343H71.3407V37.5608C71.3407 37.6168 71.3542 37.6661 71.3805 37.7085C71.4069 37.7501 71.4467 37.7848 71.4993 37.8112C71.5324 37.8264 71.5918 37.8417 71.6784 37.8587C71.7657 37.8748 71.8362 37.8841 71.8905 37.8859V38.064H70.3071V37.8859C70.3572 37.8824 70.4233 37.8773 70.5065 37.8697C70.5897 37.8621 70.644 37.8527 70.6686 37.8408C70.7186 37.8197 70.7551 37.7874 70.7772 37.7458C70.8001 37.7034 70.8111 37.6525 70.8111 37.5931V35.0491C70.8111 34.9948 70.8018 34.9464 70.784 34.904C70.7654 34.8616 70.7271 34.8277 70.6686 34.8005C70.6236 34.7793 70.5634 34.7606 70.4878 34.7437C70.4123 34.7275 70.3521 34.7173 70.3071 34.7139V34.5357H73.0258V35.5235ZM76.3762 34.9524C76.5323 35.1144 76.6537 35.3105 76.7419 35.5404C76.8293 35.7704 76.8735 36.025 76.8735 36.3033C76.8735 36.5842 76.8284 36.8388 76.7394 37.0678C76.6494 37.2969 76.5255 37.4921 76.366 37.6525C76.2124 37.812 76.0334 37.9351 75.8297 38.0207C75.6252 38.1073 75.4089 38.1506 75.178 38.1506C74.9328 38.1506 74.7063 38.1048 74.4983 38.0123C74.2904 37.9206 74.1114 37.7925 73.962 37.6278C73.8135 37.4667 73.6956 37.2715 73.6108 37.0415C73.5251 36.8116 73.4826 36.5655 73.4826 36.3033C73.4826 36.0164 73.5276 35.7602 73.6167 35.5354C73.7067 35.3105 73.8296 35.1161 73.9875 34.9524C74.1428 34.7895 74.3244 34.6648 74.5306 34.579C74.7368 34.4925 74.9523 34.4492 75.178 34.4492C75.4114 34.4492 75.632 34.4933 75.8391 34.5807C76.0461 34.669 76.2252 34.7928 76.3762 34.9524ZM76.0062 37.4581C76.0996 37.3062 76.1665 37.1357 76.209 36.9439C76.2514 36.753 76.2727 36.54 76.2727 36.3033C76.2727 36.0606 76.2489 35.8383 76.2014 35.6354C76.1547 35.4327 76.0851 35.2595 75.9943 35.117C75.9027 34.9753 75.7881 34.8658 75.6507 34.7869C75.5132 34.708 75.3553 34.6681 75.178 34.6681C74.9786 34.6681 74.8098 34.7139 74.6706 34.8055C74.5314 34.8963 74.4177 35.0185 74.3295 35.1722C74.2471 35.3181 74.1852 35.4895 74.1444 35.6855C74.1037 35.8816 74.0833 36.0878 74.0833 36.3033C74.0833 36.5426 74.1046 36.759 74.1479 36.9516C74.1912 37.145 74.259 37.3156 74.3524 37.4658C74.4414 37.6118 74.5544 37.7263 74.6901 37.8086C74.8267 37.8909 74.9888 37.9316 75.178 37.9316C75.3553 37.9316 75.5158 37.8901 75.6583 37.8069C75.8009 37.7238 75.9171 37.6075 76.0062 37.4581ZM80.2357 35.4063C80.2357 35.5905 80.2001 35.7534 80.1279 35.8951C80.0558 36.0377 79.9557 36.1548 79.8284 36.2472C79.7028 36.3406 79.5645 36.4085 79.4143 36.4518C79.2633 36.495 79.1037 36.5163 78.9349 36.5163H78.5403V37.5829C78.5403 37.6414 78.5497 37.6915 78.5691 37.7357C78.5878 37.7797 78.6277 37.8129 78.688 37.8358C78.7176 37.8476 78.7702 37.8587 78.8458 37.8688C78.9221 37.8782 78.9918 37.8841 79.0545 37.8859V38.064H77.5424V37.8859C77.5822 37.8824 77.6391 37.8765 77.7138 37.8688C77.7884 37.8604 77.8411 37.8494 77.8699 37.8358C77.92 37.8145 77.9557 37.7832 77.9777 37.7416C77.9997 37.7 78.0108 37.6474 78.0108 37.5829V35.0389C78.0108 34.9812 78.0023 34.9295 77.9862 34.8828C77.9692 34.8361 77.9302 34.8013 77.8691 34.7784C77.8063 34.7572 77.7444 34.742 77.6824 34.7326C77.6196 34.7233 77.567 34.7173 77.522 34.7139V34.5357H79.1309C79.4585 34.5357 79.7249 34.6147 79.9294 34.7734C80.1339 34.932 80.2357 35.1425 80.2357 35.4063ZM79.4805 36.0063C79.5374 35.9274 79.5739 35.8451 79.5925 35.7594C79.6103 35.6736 79.6197 35.5973 79.6197 35.5294C79.6197 35.4352 79.6086 35.3393 79.5865 35.2417C79.5636 35.1433 79.5254 35.0585 79.4711 34.9855C79.4126 34.9074 79.3371 34.8471 79.2429 34.8039C79.1479 34.7606 79.0307 34.7394 78.8899 34.7394H78.5403V36.2973H78.7931C78.9722 36.2973 79.1173 36.2694 79.2285 36.2142C79.3405 36.1582 79.4245 36.0894 79.4805 36.0063ZM83.7099 34.9524C83.866 35.1144 83.9874 35.3105 84.0757 35.5404C84.163 35.7704 84.2072 36.025 84.2072 36.3033C84.2072 36.5842 84.1622 36.8388 84.0731 37.0678C83.9831 37.2969 83.8593 37.4921 83.6997 37.6525C83.5461 37.812 83.3671 37.9351 83.1634 38.0207C82.9589 38.1073 82.7426 38.1506 82.5117 38.1506C82.2666 38.1506 82.04 38.1048 81.832 38.0123C81.6242 37.9206 81.4451 37.7925 81.2958 37.6278C81.1472 37.4667 81.0293 37.2715 80.9445 37.0415C80.8588 36.8116 80.8163 36.5655 80.8163 36.3033C80.8163 36.0164 80.8614 35.7602 80.9504 35.5354C81.0404 35.3105 81.1634 35.1161 81.3213 34.9524C81.4765 34.7895 81.6581 34.6648 81.8643 34.579C82.0705 34.4925 82.286 34.4492 82.5117 34.4492C82.7452 34.4492 82.9657 34.4933 83.1728 34.5807C83.3799 34.669 83.5589 34.7928 83.7099 34.9524ZM83.3399 37.4581C83.4333 37.3062 83.5003 37.1357 83.5428 36.9439C83.5852 36.753 83.6064 36.54 83.6064 36.3033C83.6064 36.0606 83.5826 35.8383 83.5351 35.6354C83.4885 35.4327 83.4188 35.2595 83.328 35.117C83.2364 34.9753 83.1218 34.8658 82.9844 34.7869C82.847 34.708 82.6891 34.6681 82.5117 34.6681C82.3123 34.6681 82.1435 34.7139 82.0043 34.8055C81.8652 34.8963 81.7515 35.0185 81.6632 35.1722C81.5809 35.3181 81.5189 35.4895 81.4782 35.6855C81.4375 35.8816 81.4171 36.0878 81.4171 36.3033C81.4171 36.5426 81.4383 36.759 81.4816 36.9516C81.5249 37.145 81.5928 37.3156 81.6861 37.4658C81.7752 37.6118 81.8881 37.7263 82.0239 37.8086C82.1604 37.8909 82.3225 37.9316 82.5117 37.9316C82.6891 37.9316 82.8495 37.8901 82.9921 37.8069C83.1346 37.7238 83.2508 37.6075 83.3399 37.4581ZM87.0553 37.6304V34.7394H86.0726C86.0726 35.3334 85.9988 35.9078 85.8503 36.462C85.7018 37.016 85.5151 37.4811 85.2894 37.8553H86.8253C86.905 37.8553 86.9627 37.8366 87.0001 37.8001C87.0366 37.7637 87.0553 37.7068 87.0553 37.6304ZM85.3759 38.0589C85.3098 38.0675 85.2452 38.1048 85.1833 38.1718C85.1214 38.2388 85.0653 38.3161 85.0161 38.4018C84.9695 38.4815 84.9279 38.5698 84.8923 38.6665C84.8558 38.7633 84.8303 38.8371 84.815 38.8888H84.6267V37.8553H84.9703C85.1715 37.5532 85.3538 37.1408 85.5193 36.6198C85.6848 36.0979 85.7671 35.6338 85.7671 35.2273C85.7671 35.1025 85.7561 35.0075 85.7332 34.9422C85.7111 34.876 85.6687 34.8285 85.605 34.7987C85.5643 34.7784 85.4982 34.7606 85.409 34.7453C85.3191 34.7292 85.2537 34.7191 85.2122 34.7139V34.5357H88.0531V34.7139C88.0064 34.7156 87.9487 34.7233 87.8808 34.736C87.813 34.7496 87.7621 34.7623 87.7281 34.7734C87.6713 34.7937 87.6331 34.8268 87.6135 34.8734C87.5941 34.9201 87.5847 34.9702 87.5847 35.0253V37.6109C87.5847 37.7043 87.6076 37.7687 87.6543 37.8044C87.701 37.84 87.7756 37.8578 87.8791 37.8578H88.0888V38.8888H87.9004C87.8843 38.8244 87.8622 38.7531 87.8359 38.6749C87.8096 38.5969 87.768 38.5061 87.712 38.4018C87.6619 38.3093 87.6102 38.2312 87.5559 38.1684C87.5007 38.1056 87.437 38.0691 87.3649 38.0589H85.3759ZM90.3224 38.1506C90.1119 38.1506 89.9109 38.109 89.7183 38.0259C89.5256 37.9435 89.3543 37.8239 89.2057 37.6678C89.0589 37.5116 88.941 37.3216 88.8535 37.0967C88.7662 36.8718 88.722 36.6181 88.722 36.3364C88.722 36.0538 88.7653 35.7983 88.8511 35.5684C88.9367 35.3384 89.0564 35.1408 89.2083 34.9744C89.3593 34.8106 89.5366 34.6834 89.742 34.5934C89.9474 34.5043 90.1662 34.4594 90.3996 34.4594C90.5736 34.4594 90.7305 34.4806 90.8706 34.5239C91.0114 34.5663 91.1455 34.6265 91.2728 34.7046L91.3746 34.5357H91.5732L91.5936 35.7933H91.3899C91.3636 35.6711 91.3237 35.5387 91.2711 35.3953C91.2185 35.2527 91.1565 35.1314 91.0853 35.0321C91.0064 34.9201 90.9121 34.8319 90.8035 34.7682C90.694 34.7046 90.5693 34.6732 90.4293 34.6732C90.269 34.6732 90.1205 34.7088 89.9822 34.7802C89.8447 34.8514 89.725 34.9566 89.6249 35.0957C89.529 35.2307 89.4535 35.4013 89.3992 35.6092C89.3449 35.8162 89.3178 36.0478 89.3178 36.3033C89.3178 36.529 89.3466 36.7352 89.4034 36.9236C89.4603 37.112 89.5409 37.2774 89.6469 37.42C89.7522 37.5608 89.8778 37.6711 90.022 37.7509C90.1662 37.8307 90.3275 37.8705 90.5057 37.8705C90.6389 37.8705 90.762 37.8494 90.874 37.8069C90.9868 37.7645 91.0836 37.7085 91.1667 37.6389C91.2491 37.5659 91.3212 37.4827 91.3839 37.3903C91.4467 37.2969 91.4977 37.196 91.5375 37.0865L91.7259 37.1756C91.5834 37.526 91.395 37.7755 91.1599 37.9257C90.9257 38.0759 90.6457 38.1506 90.3224 38.1506ZM95.6075 38.064H94.635C94.5672 37.8714 94.5009 37.6957 94.4356 37.537C94.3712 37.3784 94.3041 37.2248 94.2362 37.0746C94.1251 36.8243 94.0122 36.6546 93.8994 36.5672C93.7856 36.4789 93.6329 36.4348 93.4411 36.4348H93.2604V37.5651C93.2604 37.6194 93.2706 37.6686 93.2909 37.7118C93.3122 37.7543 93.3495 37.79 93.403 37.8162C93.4292 37.8281 93.4785 37.8417 93.5497 37.8587C93.6219 37.8748 93.6813 37.8841 93.7288 37.8859V38.064H92.2625V37.8859C92.3016 37.8824 92.3575 37.8773 92.4313 37.8705C92.5052 37.8646 92.5569 37.8544 92.5875 37.8408C92.6375 37.8197 92.674 37.7874 92.6969 37.7458C92.7198 37.7034 92.7309 37.6525 92.7309 37.5931V35.0491C92.7309 34.9931 92.7215 34.9439 92.702 34.9023C92.6826 34.8616 92.6443 34.8277 92.5875 34.8005C92.5417 34.7793 92.4882 34.7606 92.4263 34.7437C92.3643 34.7275 92.3091 34.7173 92.2625 34.7139V34.5357H93.7288V34.7139C93.6829 34.7156 93.6253 34.7233 93.5565 34.736C93.487 34.7496 93.436 34.7623 93.403 34.7734C93.3478 34.7937 93.3096 34.8268 93.2901 34.8726C93.2706 34.9193 93.2604 34.9693 93.2604 35.0245V36.2312H93.4921C93.554 36.2312 93.6143 36.2176 93.6728 36.1913C93.7322 36.165 93.7865 36.1259 93.8366 36.075C93.9078 36.0021 93.9656 35.9129 94.008 35.8077C94.0513 35.7025 94.0979 35.5752 94.1472 35.4267C94.1938 35.2893 94.2413 35.162 94.2914 35.044C94.3406 34.9269 94.4136 34.8183 94.5095 34.7191C94.5748 34.6529 94.6504 34.6002 94.7386 34.5621C94.826 34.5239 94.9219 34.5052 95.0245 34.5052C95.0958 34.5052 95.1578 34.5137 95.2112 34.5315C95.2638 34.5485 95.3088 34.5731 95.3453 34.6045C95.3784 34.6325 95.403 34.6655 95.42 34.7037C95.4361 34.742 95.4446 34.7835 95.4446 34.8277C95.4446 34.8642 95.4395 34.8998 95.4284 34.9346C95.4174 34.9693 95.4021 34.9982 95.3827 35.022C95.3589 35.05 95.3334 35.072 95.3054 35.0873C95.2765 35.1034 95.2367 35.1111 95.1857 35.1111C95.1306 35.1111 95.0831 35.1017 95.0424 35.0839C95.0017 35.0652 94.9669 35.0406 94.9363 35.0093C94.9066 34.9778 94.8795 34.9405 94.8557 34.8981C94.8319 34.8556 94.809 34.8132 94.7869 34.7699C94.7412 34.8013 94.7012 34.8404 94.669 34.8871C94.6368 34.9337 94.6079 34.9838 94.5833 35.0364C94.5578 35.0898 94.5366 35.1458 94.5171 35.2052C94.4985 35.2655 94.4763 35.3317 94.4517 35.4039C94.4314 35.4657 94.4085 35.5336 94.3822 35.6092C94.3551 35.6847 94.3245 35.7543 94.2897 35.8187C94.2532 35.8884 94.2107 35.9579 94.1615 36.0275C94.1132 36.0971 94.0546 36.1624 93.9867 36.2235V36.2583C94.17 36.3092 94.3237 36.3907 94.445 36.5035C94.5672 36.6155 94.669 36.7606 94.7522 36.938C94.7988 37.039 94.8498 37.1484 94.9049 37.2655C94.9609 37.3827 95.0067 37.4819 95.0432 37.5634C95.0941 37.6746 95.1442 37.7483 95.1925 37.7857C95.24 37.823 95.2893 37.8451 95.3394 37.8536C95.3818 37.8604 95.4284 37.8663 95.4785 37.8723C95.5278 37.8782 95.571 37.8824 95.6075 37.8859V38.064ZM99.304 38.064H97.8377V37.8859C97.9676 37.8773 98.0745 37.8612 98.1602 37.8358C98.245 37.8112 98.2875 37.7806 98.2875 37.7441C98.2875 37.7289 98.2866 37.7111 98.2833 37.6898C98.2798 37.6678 98.2747 37.6491 98.2679 37.6322L97.976 36.8421H96.738C96.6913 36.9584 96.654 37.0593 96.6242 37.145C96.5954 37.2316 96.5692 37.3105 96.5462 37.3835C96.525 37.4548 96.5097 37.5133 96.5013 37.5574C96.4927 37.6024 96.4885 37.6389 96.4885 37.6669C96.4885 37.7331 96.5411 37.7848 96.6455 37.8213C96.7499 37.8578 96.8678 37.8791 96.9985 37.8859V38.064H95.6688V37.8859C95.7121 37.8824 95.7655 37.8731 95.8308 37.857C95.8954 37.8417 95.948 37.8205 95.9895 37.7942C96.0557 37.7492 96.1075 37.7025 96.144 37.6533C96.1805 37.6041 96.2161 37.537 96.2509 37.4506C96.4283 37.0085 96.6235 36.5112 96.8372 35.9588C97.0511 35.4072 97.2421 34.9159 97.4092 34.4848H97.6086L98.7847 37.5278C98.8094 37.5922 98.8373 37.6448 98.8687 37.6847C98.9001 37.7246 98.9442 37.7628 99.0011 37.801C99.0384 37.8248 99.0885 37.8443 99.1496 37.8595C99.2115 37.8756 99.2625 37.8841 99.304 37.8859V38.064ZM97.8861 36.6232L97.3507 35.2528L96.8237 36.6232H97.8861ZM102.726 38.064H101.239V37.8859C101.279 37.8824 101.336 37.8765 101.41 37.8688C101.485 37.8604 101.538 37.8494 101.567 37.8358C101.617 37.8145 101.652 37.7832 101.674 37.7416C101.696 37.7 101.707 37.6474 101.707 37.5829V36.4653H101.475C101.285 36.4653 101.138 36.5044 101.034 36.5825C100.93 36.6605 100.82 36.8285 100.704 37.0865C100.629 37.2545 100.563 37.4081 100.506 37.5489C100.448 37.6907 100.383 37.8621 100.31 38.064H99.3399V37.8859C99.3781 37.8808 99.4206 37.8756 99.4681 37.8714C99.5156 37.8663 99.5622 37.8595 99.6089 37.851C99.6768 37.8384 99.7311 37.8129 99.7726 37.7764C99.8142 37.739 99.8592 37.6686 99.9093 37.5642C99.9526 37.47 100.003 37.3614 100.061 37.2384C100.119 37.1162 100.164 37.0195 100.195 36.9498C100.27 36.7861 100.357 36.6605 100.457 36.5748C100.558 36.4882 100.684 36.4195 100.837 36.3686V36.3338C100.72 36.3083 100.609 36.2744 100.506 36.2303C100.402 36.1861 100.312 36.1293 100.232 36.0597C100.153 35.9885 100.09 35.9027 100.044 35.8027C99.9992 35.7025 99.9763 35.5854 99.9763 35.4505C99.9763 35.3019 100.007 35.1696 100.068 35.055C100.129 34.9414 100.212 34.8446 100.317 34.7674C100.416 34.6927 100.534 34.635 100.67 34.5951C100.805 34.5553 100.946 34.5357 101.094 34.5357H102.726V34.7139C102.679 34.7156 102.619 34.7241 102.545 34.7385C102.47 34.7538 102.416 34.7666 102.381 34.7784C102.324 34.798 102.287 34.8319 102.267 34.8802C102.247 34.9286 102.237 34.9796 102.237 35.0347V37.5829C102.237 37.6406 102.246 37.6915 102.264 37.7357C102.283 37.7797 102.321 37.8129 102.381 37.8358C102.411 37.8476 102.463 37.8587 102.537 37.8688C102.611 37.8782 102.675 37.8841 102.726 37.8859V38.064ZM101.707 36.2515V34.7394H101.28C101.065 34.7394 100.894 34.8081 100.767 34.9464C100.641 35.0847 100.577 35.2638 100.577 35.4844C100.577 35.7356 100.65 35.9265 100.796 36.0564C100.941 36.1861 101.135 36.2515 101.375 36.2515H101.707ZM107.334 35.5235H107.146C107.13 35.4589 107.107 35.3903 107.079 35.3173C107.051 35.2443 107.009 35.1619 106.953 35.0695C106.899 34.9829 106.846 34.9125 106.79 34.8556C106.734 34.7996 106.67 34.7666 106.598 34.7564C106.541 34.7488 106.472 34.7428 106.39 34.7394C106.308 34.736 106.23 34.7343 106.156 34.7343H105.649V37.5608C105.649 37.6168 105.663 37.6661 105.689 37.7085C105.715 37.7501 105.755 37.7848 105.808 37.8112C105.841 37.8264 105.9 37.8417 105.987 37.8587C106.074 37.8748 106.145 37.8841 106.199 37.8859V38.064H104.616V37.8859C104.666 37.8824 104.732 37.8773 104.815 37.8697C104.898 37.8621 104.952 37.8527 104.977 37.8408C105.027 37.8197 105.064 37.7874 105.086 37.7458C105.109 37.7034 105.12 37.6525 105.12 37.5931V35.0491C105.12 34.9948 105.11 34.9464 105.092 34.904C105.074 34.8616 105.036 34.8277 104.977 34.8005C104.932 34.7793 104.872 34.7606 104.796 34.7437C104.721 34.7275 104.661 34.7173 104.616 34.7139V34.5357H107.334V35.5235ZM111.126 38.064H109.66V37.8859C109.789 37.8773 109.896 37.8612 109.982 37.8358C110.067 37.8112 110.109 37.7806 110.109 37.7441C110.109 37.7289 110.109 37.7111 110.105 37.6898C110.102 37.6678 110.097 37.6491 110.09 37.6322L109.798 36.8421H108.56C108.513 36.9584 108.476 37.0593 108.446 37.145C108.417 37.2316 108.391 37.3105 108.368 37.3835C108.347 37.4548 108.332 37.5133 108.323 37.5574C108.315 37.6024 108.31 37.6389 108.31 37.6669C108.31 37.7331 108.363 37.7848 108.467 37.8213C108.572 37.8578 108.69 37.8791 108.82 37.8859V38.064H107.491V37.8859C107.534 37.8824 107.587 37.8731 107.653 37.857C107.717 37.8417 107.77 37.8205 107.811 37.7942C107.878 37.7492 107.929 37.7025 107.966 37.6533C108.002 37.6041 108.038 37.537 108.073 37.4506C108.25 37.0085 108.445 36.5112 108.659 35.9588C108.873 35.4072 109.064 34.9159 109.231 34.4848H109.431L110.607 37.5278C110.631 37.5922 110.659 37.6448 110.691 37.6847C110.722 37.7246 110.766 37.7628 110.823 37.801C110.86 37.8248 110.91 37.8443 110.971 37.8595C111.033 37.8756 111.084 37.8841 111.126 37.8859V38.064ZM109.708 36.6232L109.173 35.2528L108.646 36.6232H109.708ZM113.763 36.3737C113.864 36.4433 113.948 36.5306 114.013 36.635C114.077 36.7394 114.11 36.8752 114.11 37.0406C114.11 37.3673 113.968 37.6338 113.685 37.8408C113.402 38.047 113.036 38.1506 112.588 38.1506C112.383 38.1506 112.203 38.126 112.047 38.0776C111.892 38.0284 111.762 37.9664 111.657 37.8901C111.551 37.8103 111.472 37.7204 111.417 37.6203C111.362 37.5201 111.335 37.4157 111.335 37.3062C111.335 37.2138 111.36 37.1323 111.41 37.061C111.46 36.9898 111.532 36.9542 111.627 36.9542C111.735 36.9542 111.815 36.9804 111.867 37.0331C111.92 37.0865 111.946 37.1501 111.946 37.2265C111.946 37.2825 111.934 37.3555 111.911 37.4463C111.888 37.537 111.871 37.5999 111.861 37.6346C111.875 37.6542 111.901 37.6821 111.94 37.7161C111.978 37.7509 112.027 37.784 112.087 37.8154C112.144 37.8485 112.217 37.8773 112.301 37.9011C112.386 37.9248 112.481 37.9367 112.587 37.9367C112.708 37.9367 112.824 37.9198 112.936 37.8859C113.049 37.8519 113.146 37.8001 113.226 37.7305C113.31 37.6575 113.377 37.5667 113.426 37.4581C113.474 37.3495 113.499 37.2147 113.499 37.0542C113.499 36.9694 113.488 36.8828 113.465 36.7946C113.443 36.7055 113.405 36.6291 113.349 36.5646C113.292 36.4967 113.214 36.4416 113.115 36.4C113.017 36.3584 112.89 36.338 112.737 36.338H112.379V36.0733H112.643C112.9 36.0733 113.085 36.008 113.197 35.8765C113.31 35.7458 113.366 35.5523 113.366 35.2952C113.366 35.2069 113.355 35.1255 113.334 35.0508C113.312 34.977 113.278 34.9117 113.232 34.8574C113.184 34.8005 113.121 34.7564 113.045 34.7233C112.968 34.6901 112.873 34.6732 112.76 34.6732C112.603 34.6732 112.468 34.7037 112.357 34.7657C112.246 34.8277 112.15 34.9142 112.071 35.0253C111.997 35.1272 111.936 35.2485 111.89 35.3885C111.843 35.5277 111.804 35.6626 111.773 35.7933H111.569L111.59 34.5357H111.788L111.892 34.7046C111.997 34.6401 112.132 34.5833 112.296 34.5332C112.461 34.4839 112.633 34.4594 112.811 34.4594C112.999 34.4594 113.175 34.4832 113.341 34.5307C113.506 34.5773 113.646 34.6588 113.758 34.7734C113.842 34.8607 113.897 34.9515 113.925 35.0449C113.953 35.1374 113.967 35.2155 113.967 35.2782C113.967 35.3529 113.954 35.4344 113.927 35.5226C113.901 35.6108 113.853 35.6932 113.786 35.7712C113.719 35.8493 113.632 35.9214 113.523 35.9867C113.413 36.0529 113.278 36.1056 113.117 36.1454V36.1769C113.214 36.1802 113.322 36.198 113.441 36.2294C113.559 36.2608 113.666 36.3092 113.763 36.3737ZM117.758 37.0254L117.691 38.064H114.764V37.8859C114.814 37.8824 114.88 37.8756 114.964 37.8646C115.047 37.8536 115.101 37.8426 115.126 37.8316C115.179 37.8061 115.216 37.7738 115.237 37.734C115.258 37.6949 115.268 37.644 115.268 37.5829V35.0491C115.268 34.9948 115.259 34.9464 115.241 34.904C115.222 34.8616 115.184 34.8277 115.126 34.8005C115.081 34.7793 115.02 34.7606 114.945 34.7437C114.869 34.7275 114.809 34.7173 114.764 34.7139V34.5357H117.493V35.386H117.305C117.272 35.2604 117.2 35.1272 117.09 34.9855C116.981 34.8446 116.876 34.7674 116.777 34.7538C116.725 34.7479 116.664 34.7428 116.594 34.7394C116.522 34.736 116.442 34.7343 116.35 34.7343H115.798V36.1344H116.194C116.32 36.1344 116.414 36.1225 116.472 36.0988C116.531 36.0742 116.582 36.0342 116.627 35.9783C116.663 35.9299 116.694 35.8663 116.719 35.7857C116.745 35.7059 116.762 35.6304 116.77 35.5591H116.959V36.9388H116.77C116.763 36.8591 116.746 36.7751 116.717 36.6869C116.688 36.5985 116.658 36.5341 116.627 36.4942C116.576 36.4297 116.517 36.3881 116.452 36.3677C116.387 36.3483 116.301 36.338 116.194 36.338H115.798V37.3963C115.798 37.5023 115.805 37.5854 115.82 37.6465C115.835 37.7076 115.864 37.7543 115.907 37.7857C115.95 37.8171 116.009 37.8375 116.083 37.8468C116.157 37.8562 116.264 37.8604 116.401 37.8604C116.455 37.8604 116.527 37.8604 116.617 37.8604C116.706 37.8604 116.781 37.857 116.842 37.8502C116.905 37.8434 116.97 37.8316 117.037 37.8146C117.104 37.7967 117.152 37.7729 117.18 37.7432C117.256 37.6643 117.336 37.5438 117.419 37.3818C117.503 37.2206 117.557 37.1017 117.58 37.0254H117.758ZM121.208 35.4929H121.034C121.019 35.4335 120.993 35.3622 120.954 35.2799C120.915 35.1984 120.872 35.1204 120.823 35.0474C120.773 34.971 120.719 34.9049 120.66 34.8471C120.601 34.7903 120.544 34.7572 120.49 34.7488C120.438 34.7428 120.373 34.7377 120.295 34.7343C120.217 34.7309 120.145 34.7292 120.079 34.7292H119.935V37.5506C119.935 37.605 119.947 37.655 119.969 37.7008C119.992 37.7467 120.033 37.7815 120.091 37.8061C120.121 37.818 120.183 37.8332 120.278 37.8536C120.373 37.8731 120.447 37.8841 120.5 37.8859V38.064H118.835V37.8859C118.882 37.8824 118.952 37.8756 119.048 37.8663C119.143 37.8562 119.209 37.8434 119.246 37.829C119.301 37.8069 119.341 37.7764 119.367 37.7357C119.392 37.6949 119.405 37.6406 119.405 37.5727V34.7292H119.261C119.209 34.7292 119.145 34.7301 119.069 34.7326C118.993 34.7352 118.92 34.7411 118.85 34.7488C118.796 34.7556 118.739 34.7886 118.68 34.8471C118.621 34.9066 118.567 34.9728 118.517 35.0474C118.467 35.1221 118.423 35.2019 118.385 35.285C118.347 35.369 118.321 35.4378 118.305 35.4929H118.132V34.5357H121.208V35.4929ZM125 38.064H123.534V37.8859C123.663 37.8773 123.77 37.8612 123.856 37.8358C123.941 37.8112 123.983 37.7806 123.983 37.7441C123.983 37.7289 123.983 37.7111 123.979 37.6898C123.976 37.6678 123.971 37.6491 123.964 37.6322L123.672 36.8421H122.434C122.387 36.9584 122.35 37.0593 122.32 37.145C122.291 37.2316 122.265 37.3105 122.242 37.3835C122.221 37.4548 122.206 37.5133 122.197 37.5574C122.189 37.6024 122.184 37.6389 122.184 37.6669C122.184 37.7331 122.237 37.7848 122.341 37.8213C122.446 37.8578 122.564 37.8791 122.694 37.8859V38.064H121.365V37.8859C121.408 37.8824 121.461 37.8731 121.527 37.857C121.591 37.8417 121.644 37.8205 121.685 37.7942C121.752 37.7492 121.803 37.7025 121.84 37.6533C121.876 37.6041 121.912 37.537 121.947 37.4506C122.124 37.0085 122.319 36.5112 122.533 35.9588C122.747 35.4072 122.938 34.9159 123.105 34.4848H123.304L124.481 37.5278C124.505 37.5922 124.533 37.6448 124.565 37.6847C124.596 37.7246 124.64 37.7628 124.697 37.801C124.734 37.8248 124.784 37.8443 124.845 37.8595C124.907 37.8756 124.958 37.8841 125 37.8859V38.064ZM123.582 36.6232L123.047 35.2528L122.52 36.6232H123.582Z" fill="#0E4F95"/>
</svg>
