<svg width="135" height="33" viewBox="0 0 135 33" fill="none" xmlns="http://www.w3.org/2000/svg">
<path d="M49.3131 10.775H46.3042V18.8863H49.3131V10.775ZM57.067 18.8863H60.4232V10.775H57.4142V14.3671L55.4468 10.775H52.0907V18.8863H55.0996V15.2941L57.067 18.8863ZM66.2096 16.4529V13.2084H66.6725C67.5406 13.2084 68.0613 13.7299 68.0613 14.8307C68.0613 15.9315 67.5406 16.4529 66.6725 16.4529H66.2096ZM71.3017 14.8307C71.3017 12.3394 69.7509 10.6591 66.6725 10.6591C64.8208 10.6591 63.2007 10.775 63.2007 10.775V18.8863C63.2007 18.8863 64.8208 19.0022 66.6725 19.0022C69.7509 19.0022 71.3017 17.322 71.3017 14.8307ZM77.7826 16.1632C77.2618 16.1632 76.8567 15.7576 76.8567 15.1204V10.775H73.8478V15.1204C73.8478 17.4379 75.468 19.0601 77.7826 19.0601C80.0972 19.0601 81.7174 17.4379 81.7174 15.1204V10.775H78.7084V15.1204C78.7084 15.7576 78.3034 16.1632 77.7826 16.1632ZM86.9832 16.6847C85.8259 16.6847 85.0157 15.9315 85.0157 15.9315L83.9163 17.6696C83.9163 17.6696 84.9579 19.0601 87.5039 19.0601C89.5292 19.0601 90.8022 17.7855 90.8022 16.4529C90.8022 13.9036 87.6775 13.9036 87.6775 13.3243C87.6775 13.1504 87.8511 12.9766 88.1404 12.9766C88.9505 12.9766 89.6449 13.614 89.6449 13.614L90.7443 11.8758C90.7443 11.8758 89.7028 10.6012 87.6196 10.6012C85.5944 10.6012 84.3214 11.8758 84.3214 13.2084C84.3214 15.7576 87.446 15.7576 87.446 16.3371C87.446 16.5109 87.2725 16.6847 86.9832 16.6847ZM92.4224 10.775V13.4402H94.6213V18.8863H97.6302V13.4402H99.8291V10.775H92.4224ZM110.129 18.8863L108.162 15.7576C108.162 15.7576 109.203 15.1783 109.203 13.4981C109.203 11.8179 108.046 10.6591 105.5 10.6591C103.764 10.6591 102.144 10.775 102.144 10.775V18.8863H105.153V16.2212H105.268L106.657 18.8863H110.129ZM105.153 14.1354V12.8607H105.5C105.905 12.8607 106.194 13.1504 106.194 13.4981C106.194 13.8457 105.905 14.1354 105.5 14.1354H105.153ZM114.99 10.775H111.981V18.8863H114.99V10.775ZM123.496 10.775H119.561L117.189 18.8863H120.545L120.776 17.7276H122.281L122.512 18.8863H125.868C125.868 18.8863 123.507 10.8213 123.496 10.775ZM121.123 15.8735L121.528 13.7878L121.934 15.8735H121.123ZM131.076 10.775H128.067V18.8863H134.201V16.2212H131.076V10.775Z" fill="#333333"/>
<path d="M53.5736 32.514L54.9624 27.9948V32.514H57.9714V24.4027H53.6894L52.3585 28.806L51.0276 24.4027H46.7456V32.514H49.7545V27.9948L51.1433 32.514H53.5736ZM66.4775 24.4027H62.5426L60.1702 32.514H63.5264L63.7578 31.3552H65.2622L65.4937 32.514H68.8499C68.8499 32.514 66.489 24.449 66.4775 24.4027ZM64.105 29.5012L64.51 27.4155L64.9151 29.5012H64.105ZM70.5859 28.4583C70.5859 30.8338 72.4375 32.6878 74.8679 32.6878C77.0667 32.6878 78.1082 31.4132 78.1082 31.4132L76.7195 29.2115C76.7195 29.2115 76.0251 29.8489 75.215 29.8489C74.4049 29.8489 73.8262 29.2694 73.8262 28.4583C73.8262 27.6472 74.4049 27.0678 75.215 27.0678C76.0251 27.0678 76.7195 27.7051 76.7195 27.7051L78.1082 25.5035C78.1082 25.5035 77.0667 24.2289 74.8679 24.2289C72.4375 24.2289 70.5859 26.0828 70.5859 28.4583ZM83.4318 24.4027H80.4229V32.514H83.4318V29.733H85.2835V32.514H88.2924V24.4027H85.2835V27.1837H83.4318V24.4027ZM94.0789 24.4027H91.07V32.514H94.0789V24.4027ZM101.833 32.514H105.189V24.4027H102.18V27.9948L100.213 24.4027H96.8565V32.514H99.8654V28.9218L101.833 32.514ZM110.975 29.6171H113.984V27.2996H110.975V26.7202H114.216V24.4027H107.967V32.514H114.447V30.1965H110.975V29.6171ZM119.366 30.3124C118.209 30.3124 117.398 29.5592 117.398 29.5592L116.299 31.2973C116.299 31.2973 117.341 32.6878 119.887 32.6878C121.912 32.6878 123.185 31.4132 123.185 30.0806C123.185 27.5313 120.06 27.5313 120.06 26.952C120.06 26.7781 120.234 26.6043 120.523 26.6043C121.333 26.6043 122.028 27.2417 122.028 27.2417L123.127 25.5035C123.127 25.5035 122.086 24.2289 120.002 24.2289C117.977 24.2289 116.704 25.5035 116.704 26.8361C116.704 29.3853 119.829 29.3853 119.829 29.9647C119.829 30.1386 119.655 30.3124 119.366 30.3124Z" fill="#333333"/>
<path d="M29.9376 32.2761L33.6188 20.2971V32.2761H41.5947V10.7753H30.2444L26.7166 22.4472L23.1888 10.7753H11.8384V32.2761H19.8143V20.2971L23.4955 32.2761H29.9376Z" fill="#333333"/>
<path d="M13.0742 4.52964H12.331V6.24224H11.7969V2.00932H12.9811C13.3953 2.00932 13.7095 2.11749 13.9225 2.33382C14.1346 2.55008 14.2416 2.86663 14.2416 3.28338C14.2416 3.54432 14.1842 3.77255 14.0682 3.96703C13.9532 4.16247 13.7907 4.30937 13.5796 4.40757L14.3982 6.20753V6.24224H13.8264L13.0742 4.52964ZM12.331 4.07319H12.9751C13.0981 4.07319 13.2041 4.05237 13.2953 4.01066C13.3854 3.96904 13.4617 3.91342 13.5231 3.84303C13.5836 3.77159 13.6302 3.68817 13.6609 3.59294C13.6916 3.49667 13.7075 3.39348 13.7075 3.28338C13.7075 3.16131 13.6936 3.05017 13.6669 2.94996C13.6391 2.85071 13.5965 2.76441 13.539 2.69296C13.4806 2.62152 13.4062 2.56599 13.314 2.52726C13.2219 2.4886 13.1109 2.46875 12.9811 2.46875H12.331V4.07319ZM20.9285 4.2855H19.4331V5.78579H21.1753V6.24224H18.902V2.00932H21.1465V2.46875H19.4331V3.82912H20.9285V4.2855ZM26.334 4.58517V6.24224H25.8029V2.00932H27.1496C27.3528 2.00932 27.5341 2.04203 27.6916 2.1056C27.8493 2.16908 27.9811 2.25933 28.088 2.37449C28.1941 2.48957 28.2754 2.6265 28.3299 2.78425C28.3853 2.94201 28.4131 3.11567 28.4131 3.30323C28.4131 3.50663 28.3853 3.68817 28.3299 3.84793C28.2754 4.00873 28.1941 4.14262 28.0861 4.25079C27.9791 4.35992 27.8463 4.44229 27.6897 4.49983C27.5331 4.5564 27.3528 4.58517 27.1496 4.58517H26.334ZM26.334 4.1288H27.1496C27.2794 4.1288 27.3904 4.10895 27.4826 4.0682C27.5747 4.02754 27.6501 3.97 27.7085 3.89759C27.768 3.82511 27.8115 3.7388 27.8393 3.63859C27.8671 3.53934 27.8819 3.42924 27.8819 3.30918C27.8819 3.20101 27.8671 3.09582 27.8393 2.9936C27.8115 2.89146 27.768 2.8021 27.7085 2.72471C27.6501 2.64732 27.5747 2.5848 27.4826 2.53915C27.3904 2.49254 27.2794 2.46875 27.1496 2.46875H26.334V4.1288ZM34.6173 5.1379H33.1893L32.8613 6.24224H32.3153L33.6769 2.00932H34.1327L35.4973 6.24224H34.9513L34.6173 5.1379ZM33.3281 4.67847H34.4816L33.9038 2.75348L33.3281 4.67847ZM40.5758 6.24224H40.0437V2.00932H40.5758V6.24224ZM46.7335 4.52964H45.9903V6.24224H45.4562V2.00932H46.6404C47.0546 2.00932 47.3688 2.11749 47.5818 2.33382C47.7939 2.55008 47.9009 2.86663 47.9009 3.28338C47.9009 3.54432 47.8434 3.77255 47.7275 3.96703C47.6125 4.16247 47.45 4.30937 47.2389 4.40757L48.0575 6.20753V6.24224H47.4857L46.7335 4.52964ZM45.9903 4.07319H46.6344C46.7573 4.07319 46.8634 4.05237 46.9545 4.01066C47.0447 3.96904 47.121 3.91342 47.1824 3.84303C47.2429 3.77159 47.2895 3.68817 47.3202 3.59294C47.3509 3.49667 47.3668 3.39348 47.3668 3.28338C47.3668 3.16131 47.3529 3.05017 47.3261 2.94996C47.2984 2.85071 47.2558 2.76441 47.1983 2.69296C47.1399 2.62152 47.0655 2.56599 46.9733 2.52726C46.8812 2.4886 46.7702 2.46875 46.6404 2.46875H45.9903V4.07319ZM59.7178 5.17262C59.7178 5.07337 59.7069 4.98602 59.6851 4.91064C59.6623 4.83526 59.6217 4.76575 59.5613 4.70331C59.5018 4.63974 59.4195 4.58124 59.3174 4.52562C59.2144 4.47009 59.0826 4.41352 58.9201 4.35598C58.7457 4.29547 58.5881 4.227 58.4464 4.15057C58.3057 4.07415 58.1847 3.98591 58.0846 3.88562C57.9856 3.78645 57.9083 3.67234 57.8537 3.54432C57.8003 3.4163 57.7725 3.27045 57.7725 3.10578C57.7725 2.94104 57.8012 2.78827 57.8587 2.64732C57.9152 2.50741 57.9964 2.38542 58.1025 2.28119C58.2075 2.178 58.3354 2.09668 58.486 2.03906C58.6356 1.98055 58.8022 1.95178 58.9864 1.95178C59.1916 1.95178 59.373 1.98746 59.5305 2.05891C59.689 2.13035 59.8209 2.22566 59.9289 2.34371C60.0359 2.46176 60.1171 2.5987 60.1707 2.75348C60.2252 2.9093 60.252 3.06906 60.252 3.23372H59.7178C59.7178 3.11567 59.704 3.00557 59.6762 2.90528C59.6475 2.8041 59.6039 2.71683 59.5434 2.64338C59.484 2.56993 59.4076 2.51239 59.3165 2.47173C59.2243 2.43106 59.1143 2.41121 58.9864 2.41121C58.8685 2.41121 58.7664 2.42801 58.6812 2.46281C58.596 2.49849 58.5266 2.54614 58.4712 2.60665C58.4156 2.66821 58.375 2.74062 58.3492 2.82395C58.3235 2.90729 58.3096 2.99762 58.3096 3.09678C58.3096 3.27543 58.374 3.42426 58.5018 3.54432C58.6297 3.66438 58.8269 3.77255 59.0935 3.86681C59.2986 3.93528 59.475 4.0097 59.6227 4.09207C59.7694 4.17541 59.8902 4.26863 59.9834 4.37286C60.0775 4.47805 60.1459 4.59514 60.1895 4.72508C60.2331 4.85511 60.255 5.00193 60.255 5.16667C60.255 5.33929 60.2262 5.49511 60.1677 5.63503C60.1102 5.77389 60.027 5.89299 59.9199 5.99224C59.8119 6.0914 59.6821 6.16686 59.5296 6.22038C59.3769 6.27399 59.2045 6.30075 59.0122 6.30075C58.8457 6.30075 58.6822 6.27302 58.5207 6.21942C58.3592 6.16485 58.2145 6.08345 58.0876 5.97632C57.9608 5.86912 57.8587 5.73419 57.7804 5.57347C57.7021 5.41274 57.6624 5.22719 57.6624 5.01583H58.1967C58.1967 5.16073 58.2184 5.28569 58.261 5.38888C58.3027 5.49311 58.3622 5.57845 58.4365 5.64587C58.5108 5.71434 58.597 5.76401 58.6961 5.79575C58.7952 5.82846 58.9002 5.84437 59.0122 5.84437C59.2471 5.84437 59.4225 5.78386 59.5414 5.6638C59.6593 5.54373 59.7178 5.37996 59.7178 5.17262ZM66.8714 5.1379H65.4434L65.1154 6.24224H64.5694L65.931 2.00932H66.3868L67.7514 6.24224H67.2054L66.8714 5.1379ZM65.5822 4.67847H66.7357L66.1579 2.75348L65.5822 4.67847ZM72.8091 5.78579H74.467V6.24224H72.275V2.00932H72.8091V5.78579ZM81.0756 4.2855H79.5802V5.78579H81.3224V6.24224H79.0491V2.00932H81.2936V2.46875H79.5802V3.82912H81.0756V4.2855ZM93.1065 5.17262C93.1065 5.07337 93.0956 4.98602 93.0738 4.91064C93.051 4.83526 93.0104 4.76575 92.95 4.70331C92.8905 4.63974 92.8082 4.58124 92.7062 4.52562C92.6031 4.47009 92.4713 4.41352 92.3088 4.35598C92.1344 4.29547 91.9768 4.227 91.8351 4.15057C91.6944 4.07415 91.5734 3.98591 91.4733 3.88562C91.3743 3.78645 91.297 3.67234 91.2424 3.54432C91.189 3.4163 91.1612 3.27045 91.1612 3.10578C91.1612 2.94104 91.1899 2.78827 91.2474 2.64732C91.3039 2.50741 91.3851 2.38542 91.4912 2.28119C91.5962 2.178 91.7241 2.09668 91.8747 2.03906C92.0243 1.98055 92.1909 1.95178 92.3752 1.95178C92.5803 1.95178 92.7617 1.98746 92.9192 2.05891C93.0778 2.13035 93.2096 2.22566 93.3176 2.34371C93.4246 2.46176 93.5059 2.5987 93.5594 2.75348C93.6139 2.9093 93.6407 3.06906 93.6407 3.23372H93.1065C93.1065 3.11567 93.0927 3.00557 93.0649 2.90528C93.0362 2.8041 92.9926 2.71683 92.9321 2.64338C92.8727 2.56993 92.7964 2.51239 92.7052 2.47173C92.613 2.43106 92.503 2.41121 92.3752 2.41121C92.2573 2.41121 92.1552 2.42801 92.0699 2.46281C91.9847 2.49849 91.9153 2.54614 91.8599 2.60665C91.8043 2.66821 91.7637 2.74062 91.738 2.82395C91.7122 2.90729 91.6983 2.99762 91.6983 3.09678C91.6983 3.27543 91.7628 3.42426 91.8905 3.54432C92.0184 3.66438 92.2156 3.77255 92.4822 3.86681C92.6874 3.93528 92.8637 4.0097 93.0114 4.09207C93.1581 4.17541 93.279 4.26863 93.3721 4.37286C93.4662 4.47805 93.5346 4.59514 93.5783 4.72508C93.6218 4.85511 93.6437 5.00193 93.6437 5.16667C93.6437 5.33929 93.6149 5.49511 93.5564 5.63503C93.499 5.77389 93.4157 5.89299 93.3087 5.99224C93.2006 6.0914 93.0709 6.16686 92.9183 6.22038C92.7656 6.27399 92.5932 6.30075 92.4009 6.30075C92.2345 6.30075 92.071 6.27302 91.9094 6.21942C91.7479 6.16485 91.6032 6.08345 91.4763 5.97632C91.3495 5.86912 91.2474 5.73419 91.1692 5.57347C91.0908 5.41274 91.0512 5.22719 91.0512 5.01583H91.5854C91.5854 5.16073 91.6071 5.28569 91.6497 5.38888C91.6914 5.49311 91.7509 5.57845 91.8252 5.64587C91.8995 5.71434 91.9857 5.76401 92.0849 5.79575C92.1839 5.82846 92.2889 5.84437 92.4009 5.84437C92.6358 5.84437 92.8112 5.78386 92.9302 5.6638C93.0481 5.54373 93.1065 5.37996 93.1065 5.17262ZM100.316 4.2855H98.8203V5.78579H100.562V6.24224H98.2891V2.00932H100.534V2.46875H98.8203V3.82912H100.316V4.2855ZM106.467 4.52964H105.724V6.24224H105.19V2.00932H106.374C106.788 2.00932 107.103 2.11749 107.316 2.33382C107.528 2.55008 107.635 2.86663 107.635 3.28338C107.635 3.54432 107.577 3.77255 107.461 3.96703C107.346 4.16247 107.184 4.30937 106.973 4.40757L107.791 6.20753V6.24224H107.22L106.467 4.52964ZM105.724 4.07319H106.368C106.491 4.07319 106.597 4.05237 106.688 4.01066C106.779 3.96904 106.855 3.91342 106.916 3.84303C106.977 3.77159 107.023 3.68817 107.054 3.59294C107.085 3.49667 107.101 3.39348 107.101 3.28338C107.101 3.16131 107.087 3.05017 107.06 2.94996C107.032 2.85071 106.99 2.76441 106.932 2.69296C106.874 2.62152 106.799 2.56599 106.707 2.52726C106.615 2.4886 106.504 2.46875 106.374 2.46875H105.724V4.07319ZM113.448 5.4256L114.414 2.00932H114.997L113.682 6.24224H113.218L111.906 2.00932H112.486L113.448 5.4256ZM120.073 6.24224H119.541V2.00932H120.073V6.24224ZM127.604 4.89875C127.592 5.11806 127.556 5.3135 127.495 5.48611C127.434 5.65881 127.347 5.80563 127.235 5.92674C127.123 6.04777 126.984 6.14002 126.818 6.20455C126.653 6.26804 126.461 6.30075 126.242 6.30075C126.029 6.30075 125.838 6.25912 125.668 6.17578C125.497 6.09245 125.352 5.97239 125.232 5.81753C125.112 5.66275 125.02 5.47527 124.954 5.25692C124.89 5.03769 124.857 4.79154 124.857 4.51871V3.73679C124.857 3.46492 124.89 3.2199 124.954 2.99955C125.02 2.77927 125.114 2.59179 125.237 2.43701C125.36 2.28215 125.51 2.16209 125.688 2.07779C125.866 1.99341 126.067 1.95178 126.292 1.95178C126.497 1.95178 126.679 1.98256 126.836 2.045C126.994 2.10656 127.127 2.19785 127.238 2.31791C127.348 2.43797 127.435 2.58584 127.496 2.7624C127.559 2.93903 127.594 3.14147 127.604 3.36969H127.067C127.055 3.20302 127.033 3.06014 127 2.94008C126.967 2.82002 126.919 2.72077 126.858 2.64234C126.795 2.56302 126.718 2.50548 126.625 2.46771C126.533 2.43002 126.421 2.41121 126.292 2.41121C126.136 2.41121 126.004 2.44191 125.891 2.50548C125.779 2.56792 125.686 2.65728 125.612 2.7714C125.539 2.88551 125.484 3.02438 125.448 3.18711C125.412 3.34984 125.394 3.53146 125.394 3.73084V4.51871C125.394 4.70427 125.409 4.87793 125.44 5.03866C125.47 5.19938 125.518 5.34026 125.584 5.46032C125.652 5.58038 125.739 5.67464 125.847 5.74416C125.956 5.81263 126.087 5.84734 126.242 5.84734C126.387 5.84734 126.51 5.82846 126.609 5.79278C126.709 5.75702 126.79 5.70149 126.853 5.6241C126.916 5.54767 126.964 5.45043 126.997 5.33134C127.03 5.21128 127.053 5.06743 127.067 4.89875H127.604ZM134.299 4.2855H132.804V5.78579H134.546V6.24224H132.272V2.00932H134.517V2.46875H132.804V3.82912H134.299V4.2855Z" fill="#333333"/>
<path d="M8.00373 10.7653H0.0205078V32.2855H8.00373V10.7653Z" fill="#333333"/>
<path fill-rule="evenodd" clip-rule="evenodd" d="M4.0697 0H4.53754C6.5187 0 8.13941 1.62275 8.13941 3.60618C8.13941 6.10504 6.09749 8.14978 3.60186 8.14978H0V4.07485C0 1.83379 1.83147 0 4.0697 0Z" fill="#FF8F00"/>
</svg>
