<svg width="65" height="47" viewBox="0 0 65 47" fill="none" xmlns="http://www.w3.org/2000/svg">
<path fill-rule="evenodd" clip-rule="evenodd" d="M28.1318 9.72655C24.0802 9.90497 19.3507 11.2952 16.0379 13.533C15.9084 13.6148 14.7127 14.2839 14.8498 14.9232C14.9336 15.2281 15.7408 15.5403 17.2488 15.8674C20.3027 16.5365 27.1646 15.9641 28.2384 19.8003C28.4136 20.4471 28.4517 21.1831 28.3374 21.9786C26.9971 29.4279 15.0554 30.9222 9.09221 31.1824C5.29952 31.3534 4.15714 28.2086 6.8303 26.1419C7.37864 25.7107 15.0783 21.592 12.5041 24.6847C12.1995 25.0564 12.2452 24.9746 11.7349 25.4504C11.2246 25.9337 10.9581 26.1939 10.9276 26.2385C14.9716 26.0601 19.7011 24.6624 23.014 22.4321C23.1511 22.3428 24.3467 21.6068 24.2097 21.0344C24.1183 20.737 23.3186 20.4247 21.8031 20.0902C19.9219 19.6813 16.7309 19.4137 13.9359 18.6182C11.514 17.9342 10.2955 16.99 10.722 13.9865C12.0548 6.52972 24.004 5.0354 29.9672 4.77519C33.7599 4.61163 34.8947 7.74898 32.2215 9.82319C31.6808 10.247 23.9736 14.3657 26.5477 11.2804C26.86 10.9012 26.8143 10.9904 27.3245 10.5146C27.8272 10.0314 28.1014 9.76372 28.1318 9.72655Z" stroke="#E31E24" stroke-width="5" stroke-linecap="round" stroke-linejoin="round"/>
<path fill-rule="evenodd" clip-rule="evenodd" d="M28.062 9.6378C24.0104 9.81623 19.2809 11.2065 15.968 13.4443C15.8386 13.526 14.6429 14.1951 14.78 14.8345C14.8637 15.1393 15.671 15.4516 17.179 15.7787C20.2329 16.4478 27.0948 15.8753 28.1686 19.7115C28.3438 20.3583 28.3819 21.0943 28.2676 21.8898C26.9272 29.3391 14.9856 30.8335 9.02238 31.0937C5.22969 31.2647 4.08732 28.1199 6.76048 26.0531C7.30882 25.6219 15.0084 21.5032 12.4343 24.596C12.1296 24.9677 12.1753 24.8859 11.6651 25.3617C11.1548 25.8449 10.8883 26.1052 10.8578 26.1498C14.9018 25.9713 19.6313 24.5737 22.9441 22.3433C23.0812 22.2541 24.2769 21.5181 24.1398 20.9456C24.0484 20.6483 23.2488 20.336 21.7332 20.0015C19.8521 19.5926 16.6611 19.3249 13.8661 18.5294C11.4442 17.8455 10.2257 16.9013 10.6522 13.8978C11.9849 6.44098 23.9342 4.94665 29.8974 4.68644C33.6901 4.52289 34.8249 7.66023 32.1517 9.73445C31.611 10.1582 23.9037 14.2769 26.4779 11.1916C26.7901 10.8124 26.7445 10.9017 27.2547 10.4259C27.7574 9.94261 28.0315 9.67497 28.062 9.6378Z" fill="#FFED00"/>
<path fill-rule="evenodd" clip-rule="evenodd" d="M51.2015 14.7042C47.1499 14.8826 42.4205 16.2729 39.1076 18.5107C38.9781 18.5924 37.7824 19.2615 37.9119 19.9009C38.0033 20.2057 38.8106 20.518 40.3185 20.8451C43.3725 21.5142 50.2343 20.9417 51.3006 24.7779C51.4833 25.4247 51.5138 26.1607 51.4072 26.9562C50.0668 34.4056 38.1251 35.8999 32.1543 36.1601C28.3692 36.3311 27.2269 33.1937 29.9 31.1195C30.4484 30.6883 38.148 26.5696 35.5738 29.6624C35.2692 30.0341 35.3149 29.9523 34.797 30.4281C34.2944 30.9114 34.0278 31.1716 33.9897 31.2162C38.0414 31.0377 42.7708 29.6401 46.0837 27.4097C46.2132 27.3205 47.4165 26.5845 47.2794 26.012C47.188 25.7147 46.3807 25.4024 44.8728 25.0679C42.984 24.659 39.793 24.3913 37.0056 23.5958C34.5838 22.9119 33.3652 21.9677 33.7841 18.9642C35.1245 11.5074 47.0661 10.0131 53.037 9.75285C56.822 9.58929 57.9644 12.7266 55.2913 14.8009C54.7429 15.2246 47.0433 19.3433 49.6175 16.258C49.9221 15.8789 49.8764 15.9681 50.3943 15.4923C50.8969 15.009 51.1635 14.7414 51.2015 14.7042Z" stroke="#E31E24" stroke-width="5" stroke-linecap="round" stroke-linejoin="round"/>
<path fill-rule="evenodd" clip-rule="evenodd" d="M50.9999 14.7213C46.9483 14.8997 42.2188 16.29 38.9059 18.5277C38.7765 18.6095 37.5808 19.2786 37.7102 19.918C37.8016 20.2228 38.6089 20.5351 40.1168 20.8622C43.1708 21.5313 50.0327 20.9588 51.0989 24.795C51.2817 25.4418 51.3121 26.1778 51.2055 26.9733C49.8651 34.4226 37.9235 35.917 31.9527 36.1772C28.1676 36.3482 27.0252 33.2108 29.6984 31.1366C30.2467 30.7054 37.9463 26.5867 35.3722 29.6795C35.0675 30.0512 35.1132 29.9694 34.5954 30.4452C34.0927 30.9284 33.8262 31.1886 33.7881 31.2333C37.8397 31.0548 42.5691 29.6571 45.882 27.4268C46.0115 27.3376 47.2148 26.6016 47.0777 26.0291C46.9863 25.7317 46.1791 25.4195 44.6711 25.0849C42.7824 24.6761 39.5913 24.4084 36.804 23.6129C34.3821 22.929 33.1636 21.9848 33.5824 18.9812C34.9228 11.5245 46.8645 10.0301 52.8353 9.76994C56.6204 9.60638 57.7628 12.7437 55.0896 14.8179C54.5413 15.2417 46.8416 19.3604 49.4158 16.2751C49.7204 15.8959 49.6747 15.9852 50.1926 15.5094C50.6953 15.0261 50.9618 14.7585 50.9999 14.7213Z" fill="#FFED00"/>
<path fill-rule="evenodd" clip-rule="evenodd" d="M39.5612 6.26547C38.1904 6.64463 37.1089 5.42538 37.3831 4.13178C37.642 2.90509 38.8758 2.11704 40.14 2.36981C41.2748 2.60028 42.1278 3.67828 41.9831 4.81575C41.8384 6.30265 39.6755 8.51812 38.0152 8.25791L37.84 8.23561C37.8705 8.191 38.0761 7.99771 38.4493 7.64829C38.8225 7.29887 39.4622 6.4662 39.5612 6.26547Z" stroke="#E31E24" stroke-width="4" stroke-linecap="round" stroke-linejoin="round"/>
<path fill-rule="evenodd" clip-rule="evenodd" d="M39.5612 6.26547C38.1904 6.64463 37.1089 5.42538 37.3831 4.13178C37.642 2.90509 38.8758 2.11704 40.14 2.36981C41.2748 2.60028 42.1278 3.67828 41.9831 4.81575C41.8384 6.30265 39.6755 8.51812 38.0152 8.25791L37.84 8.23561C37.8705 8.191 38.0761 7.99771 38.4493 7.64829C38.8225 7.29887 39.4622 6.46621 39.5612 6.26547Z" fill="#FFED00"/>
<path fill-rule="evenodd" clip-rule="evenodd" d="M3.86477 36.5767C3.61345 36.1529 3.56014 35.7217 3.82669 35.2757C4.16179 34.8147 4.68728 34.5768 5.23562 34.3612C5.34986 34.3241 5.45648 34.2869 5.5631 34.2497C5.71542 33.8408 5.84489 33.4096 6.11144 33.0528C6.40085 32.6959 6.78925 32.4803 7.29951 32.4655C7.83262 32.4655 8.40381 32.5918 8.89123 32.7777C9.38626 32.971 9.90413 33.2535 10.1098 33.7144C10.3382 33.6996 10.5667 33.6996 10.7952 33.7144C12.6991 33.878 14.1081 35.3277 14.1842 36.9707C14.1995 37.5432 14.0624 38.0785 13.8111 38.6063C14.4736 37.4242 15.1591 36.2273 16.0044 35.1344C16.4766 34.5397 17.1468 33.759 18.0455 33.707C17.5885 33.4022 17.2153 33.0156 17.0783 32.5175C16.9412 31.9004 17.2382 31.328 17.6266 30.8224C18.0835 30.2351 18.7004 29.6478 19.5915 29.6552L21.7087 30.7853L22.1199 31.7666L21.6097 32.8892L19.561 34.2646L19.9799 34.6884L21.7772 34.0416C22.7368 33.9226 23.704 33.826 24.6713 33.7367C24.8921 33.7144 25.113 33.6921 25.3338 33.6773C26.362 33.5955 27.7024 33.4914 28.3878 34.3389C28.5096 34.4876 28.6163 34.6438 28.7305 34.7999C28.9742 34.4058 29.4769 34.22 29.949 34.1382C30.4593 34.049 30.9772 33.997 31.495 33.9449C32.3861 33.8483 33.2695 33.7516 34.1682 33.6773C35.1963 33.5955 36.5367 33.4914 37.2222 34.3389C37.4354 34.5991 37.6334 34.8817 37.801 35.1716C37.9609 35.4541 38.0447 35.6846 38.0523 36.0043L38.0066 36.2273C37.9076 36.428 37.8086 36.5693 37.6639 36.7403C37.2983 37.1194 36.8795 37.4614 36.4682 37.796C35.5086 38.5766 34.5109 39.3349 33.5132 40.0858C33.8179 40.0858 34.1149 40.0932 34.4119 40.1155C34.8689 40.1527 35.341 40.2196 35.7447 40.4203C35.7904 39.4762 36.1788 38.6286 36.7728 37.848C37.6182 36.77 38.7453 35.8407 39.9715 35.0973C40.6188 34.7107 41.3043 34.3612 42.0201 34.0862C42.5837 33.878 43.1778 33.7144 43.8023 33.7293C44.1297 33.7442 44.4115 33.826 44.7085 33.9598C45.1122 33.5434 45.691 33.2981 46.3231 33.3502C46.9324 33.4096 47.534 33.7293 47.991 34.0639C48.2728 34.272 48.4784 34.4951 48.6078 34.7999C48.783 35.3054 48.6155 35.7292 48.3108 36.1529C48.0062 36.5841 47.6559 37.0005 47.3665 37.454C46.9095 38.1826 46.5135 38.9483 46.1708 39.7289C45.8357 40.4947 45.6529 41.2827 45.6301 42.1005C45.6301 42.4425 45.6148 42.7696 45.5158 43.0967C45.3102 43.7064 44.7618 44.0335 44.046 44.0484C42.9874 44.0409 41.845 43.9368 41.1367 43.1711C40.2761 43.58 39.3394 43.8179 38.3569 43.6395C37.5725 43.4833 36.8947 43.0819 36.4301 42.5094C36.3235 42.7102 36.1559 42.8737 35.9732 43.0224C35.303 43.5428 34.4043 43.5502 33.5666 43.4759C32.9801 43.4239 32.3709 43.4313 31.7845 43.4462C31.0153 43.461 30.246 43.5056 29.4997 43.6692C29.1265 43.7584 28.7838 43.9145 28.403 43.9889C28.2888 44.0112 28.1669 44.0261 28.0451 44.0335C27.413 44.0558 26.8646 43.7882 26.461 43.3718C25.9203 43.5428 25.2958 43.5205 24.7322 43.4759C24.1381 43.4239 23.5365 43.4313 22.9501 43.4462C22.1809 43.461 21.4117 43.5056 20.6653 43.6692C20.2921 43.7584 19.9494 43.9145 19.5686 43.9889C19.0812 44.0855 18.6395 44.0261 18.1978 43.803C17.6951 43.5205 17.3448 43.0967 17.0859 42.6358C17.063 42.5838 17.0326 42.5392 17.0097 42.4871C16.7279 43.0967 16.4004 43.7138 15.5779 43.8551C15.0829 43.9071 14.5726 43.7435 14.1157 43.58C13.7349 43.4387 13.3693 43.2677 13.0419 43.0447C12.5088 42.6655 12.265 42.212 12.3793 41.6024C12.4402 41.3719 12.5164 41.1563 12.6078 40.9407C12.8819 40.3088 13.2094 39.6918 13.5445 39.0747C13.0266 39.8999 12.2955 40.6508 11.5187 41.305C10.6505 42.0187 9.70612 42.6581 8.66275 43.1785C7.94686 43.5279 7.12435 43.8774 6.30184 43.5949C6.11144 43.5279 5.94389 43.4387 5.79158 43.3123C5.31178 44.1376 4.89291 44.9851 4.41311 45.8029C4.1694 46.2192 3.87239 46.4943 3.34689 46.643C2.66147 46.7694 2.0522 46.5166 1.48101 46.2118C1.25254 46.0928 1.03929 45.959 0.833664 45.8178C0.361482 45.4906 -0.0421581 45.1561 0.00353697 44.5762C0.0568479 44.0335 0.384329 43.5577 0.688963 43.0893C1.87703 41.2604 3.16411 39.4687 4.14656 37.5432C3.96378 37.3202 3.91808 37.112 3.89523 36.8518C3.89523 36.7923 3.88762 36.7254 3.88762 36.6659C3.88 36.6436 3.88 36.599 3.86477 36.5767ZM8.86736 37.6937C8.60842 38.1844 8.34187 38.6751 8.07531 39.1657C8.78359 38.7048 9.39285 38.1398 9.78126 37.4409C9.81934 37.374 9.8498 37.3071 9.88027 37.2402C9.59087 37.2402 9.29385 37.2923 9.03491 37.3889C8.9816 37.493 8.92829 37.5896 8.86736 37.6937ZM20.0091 36.5561C19.6664 37.0691 19.2932 37.5597 18.9658 38.0802C18.5774 38.7046 18.2346 39.3291 17.9376 39.9834C17.9072 40.0354 17.8843 40.0875 17.8615 40.1395C17.8005 40.2733 17.7625 40.4146 17.7244 40.5484C18.3184 40.0057 18.9962 39.5224 19.6588 39.0392C20.3214 38.5708 20.984 38.1025 21.6465 37.6266C21.5247 37.6341 21.4105 37.6415 21.2886 37.6341C20.6108 37.5746 20.1919 37.2475 20.0396 36.6825C20.032 36.6379 20.0168 36.5933 20.0091 36.5561ZM27.0336 38.2796C26.2568 38.8892 25.4724 39.4914 24.6803 40.0862C25.023 40.0862 25.3581 40.0936 25.7008 40.1308C26.0664 40.1605 26.4396 40.22 26.7747 40.3538C27.1174 40.0638 27.4753 39.7962 27.8333 39.5211C28.7015 38.8743 29.6001 38.2573 30.4836 37.6253C30.3617 37.6328 30.2475 37.6402 30.1256 37.6328C29.4554 37.5733 29.029 37.2462 28.8766 36.6812C28.8005 36.7704 28.7167 36.8522 28.6329 36.9339C28.1303 37.4097 27.5819 37.8484 27.0336 38.2796ZM41.2583 39.2911C41.464 39.0383 41.6391 38.7707 41.8143 38.503C41.5325 38.7037 41.2812 38.9342 41.0527 39.1796C40.8547 39.4026 40.6567 39.6554 40.5501 39.923C40.5881 39.9007 40.6186 39.8784 40.6567 39.8561C40.8852 39.6851 41.0832 39.4918 41.2583 39.2911Z" fill="#2B2A29"/>
<path fill-rule="evenodd" clip-rule="evenodd" d="M5.7064 41.5446C5.2723 42.1988 4.81535 42.9571 4.35078 43.8344C3.8786 44.7042 3.57397 45.2469 3.4445 45.4625C3.31503 45.6707 3.16271 45.7748 2.97993 45.7748C2.79715 45.7748 2.54583 45.7004 2.24119 45.5518C1.93656 45.4105 1.66239 45.2469 1.41107 45.0611C1.15974 44.8827 1.03027 44.7563 1.03027 44.7042C1.03027 44.5184 1.12928 44.273 1.31968 43.9608C1.51007 43.6485 1.9061 43.0463 2.51536 42.1468C3.11701 41.2398 3.65774 40.3997 4.14515 39.6116C4.62495 38.831 5.05906 38.0206 5.44746 37.188C5.26468 37.1731 5.13521 37.1359 5.05906 37.0839C4.9829 37.0244 4.94482 36.9724 4.9372 36.9203C4.9372 36.8683 4.92959 36.7568 4.91435 36.5783C4.89912 36.4148 4.86104 36.281 4.7925 36.162C4.71634 36.0505 4.68588 35.9464 4.68588 35.8572C4.68588 35.597 5.25707 35.2922 6.40706 34.9428C6.51368 34.6305 6.63554 34.2885 6.78024 33.9242C6.91732 33.5525 7.09249 33.3741 7.31335 33.3741C7.50374 33.3741 7.75506 33.4038 8.05208 33.4782C8.35672 33.5525 8.61565 33.6492 8.83651 33.783C9.06499 33.9019 9.17923 34.0358 9.17923 34.1844C9.17923 34.3331 9.11068 34.5562 8.98883 34.861C9.43817 34.6974 9.9332 34.6082 10.4739 34.6082C10.9613 34.6082 11.4031 34.7272 11.8143 34.9576C12.2256 35.1881 12.553 35.4929 12.7891 35.8795C13.0252 36.2587 13.1471 36.6601 13.1471 37.0765C13.1471 37.6861 12.8958 38.3254 12.3931 38.9945C11.8905 39.6711 11.2736 40.2881 10.5348 40.868C9.80373 41.4405 9.09545 41.9014 8.40241 42.2657C7.71699 42.6226 7.22195 42.801 6.91732 42.801C6.70408 42.801 6.5213 42.7118 6.36136 42.5259C6.20905 42.3401 5.98819 42.0129 5.7064 41.5446ZM6.10264 40.8302C7.00893 40.7187 7.83144 40.4288 8.57779 39.9604C9.32415 39.4995 9.91057 38.979 10.3294 38.4215C10.7559 37.8564 10.9616 37.4029 10.9616 37.0461C10.9616 36.89 10.8854 36.7338 10.7178 36.5703C10.5579 36.4141 10.2761 36.3324 9.87249 36.3324C9.32415 36.3324 8.77581 36.4588 8.2427 36.719C7.93045 37.3063 7.64105 37.8639 7.35926 38.3694C7.07747 38.8824 6.87185 39.269 6.74999 39.5143C6.62052 39.7597 6.40728 40.1983 6.10264 40.8302ZM15.3837 42.9643C15.2314 42.9643 14.9953 42.9123 14.6678 42.8008C14.3404 42.6967 14.0433 42.5629 13.7768 42.3993C13.5102 42.2357 13.3808 42.0722 13.3808 41.9086C13.3808 41.5072 14.0509 40.1615 15.3837 37.8866C16.6632 35.7008 17.5847 34.608 18.1483 34.608C18.3082 34.608 18.4834 34.6749 18.6738 34.8013C18.8565 34.9202 19.0165 35.0689 19.1383 35.225C19.2678 35.3886 19.3287 35.5298 19.3287 35.6339C19.3287 35.7306 19.2526 35.8867 19.0926 36.1246C18.9251 36.3551 18.7195 36.6525 18.4681 37.0167C18.2168 37.381 17.9503 37.8048 17.6609 38.288C17.3791 38.7787 17.1125 39.3214 16.846 39.9236C16.747 40.2136 16.6251 40.5927 16.4728 41.0611C16.3129 41.5369 16.1377 41.9681 15.9397 42.3696C15.7493 42.7636 15.5589 42.9643 15.3837 42.9643ZM19.543 30.5635C19.741 30.5635 19.9542 30.6304 20.1979 30.7716C20.434 30.9129 20.6397 31.069 20.8148 31.2623C20.99 31.4482 21.0814 31.5969 21.0814 31.7084C21.0814 31.9017 20.891 32.2214 20.5178 32.6749C20.137 33.1284 19.8095 33.3588 19.543 33.3588C19.3145 33.3588 19.0099 33.225 18.6367 32.9648C18.2635 32.6972 18.0731 32.4444 18.0731 32.2214C18.0731 31.9389 18.2483 31.5969 18.6062 31.1805C18.9489 30.7716 19.2688 30.5635 19.543 30.5635ZM25.498 36.0729L25.4523 35.954C25.1934 36.0432 24.7898 36.1547 24.2262 36.2737C23.6702 36.4001 23.1219 36.5041 22.5659 36.5934C22.0252 36.69 21.6444 36.7346 21.4312 36.7346C21.2408 36.7346 21.1265 36.69 21.0885 36.5934C21.0504 36.5041 21.0123 36.3406 20.9666 36.0878C20.9514 35.9391 20.9057 35.8053 20.8371 35.6789C20.7686 35.5451 20.7381 35.4633 20.7381 35.4261C20.7381 35.2254 20.9133 35.099 21.2484 35.0396C21.5911 34.9801 22.1471 34.9057 22.9239 34.8314C24.6984 34.6307 25.8408 34.534 26.3663 34.534C26.709 34.534 26.9679 34.5637 27.1431 34.6232C27.3182 34.6827 27.4401 34.7422 27.4934 34.8091C27.5543 34.876 27.6762 35.0396 27.8513 35.2923C28.0646 35.6046 28.1712 35.8202 28.1712 35.9317C28.1712 36.2068 25.9931 37.9464 21.6368 41.1507C22.8401 41.0466 23.8302 40.9946 24.6222 40.9946C25.3686 40.9946 25.9017 41.0392 26.2368 41.1433C26.5643 41.2473 26.7318 41.4852 26.7318 41.8718C26.7318 42.0428 26.6252 42.2064 26.4196 42.3699C26.2139 42.5186 25.9093 42.6004 25.498 42.6004C25.2086 42.6004 24.9421 42.593 24.7212 42.5632C24.5004 42.5409 24.0967 42.5335 23.5255 42.5335C21.8577 42.5335 20.6163 42.6748 19.8014 42.9647C19.5196 43.0762 19.2911 43.1283 19.1312 43.1283C18.7352 43.1283 18.3696 42.8457 18.0345 42.2733C17.9584 42.1395 17.9203 42.0354 17.9203 41.9536C17.9203 41.7603 18.1183 41.4927 18.4991 41.1507C18.8799 40.8013 19.4891 40.3329 20.3117 39.7456C21.1418 39.1508 22.8706 37.9241 25.498 36.0729ZM34.3375 36.0729L34.2918 35.954C34.0329 36.0432 33.6292 36.1547 33.0657 36.2737C32.5097 36.4001 31.9614 36.5041 31.4054 36.5934C30.8647 36.69 30.4839 36.7346 30.2707 36.7346C30.0803 36.7346 29.966 36.69 29.9279 36.5934C29.8899 36.5041 29.8518 36.3406 29.8061 36.0878C29.7909 35.9391 29.7452 35.8053 29.6766 35.6789C29.6081 35.5451 29.5776 35.4633 29.5776 35.4261C29.5776 35.2254 29.7528 35.099 30.0879 35.0396C30.4306 34.9801 30.9865 34.9057 31.7634 34.8314C33.5379 34.6307 34.6878 34.534 35.2057 34.534C35.5484 34.534 35.8074 34.5637 35.9825 34.6232C36.1577 34.6827 36.2796 34.7422 36.3329 34.8091C36.3938 34.876 36.5156 35.0396 36.6908 35.2923C36.9041 35.6046 37.0107 35.8202 37.0107 35.9317C37.0107 36.2068 34.8325 37.9464 30.4763 41.1507C31.6796 41.0466 32.6696 40.9946 33.4617 40.9946C34.208 40.9946 34.7412 41.0392 35.0763 41.1433C35.4037 41.2473 35.5713 41.4852 35.5713 41.8718C35.5713 42.0428 35.4647 42.2064 35.259 42.3699C35.0534 42.5186 34.7488 42.6004 34.3375 42.6004C34.0481 42.6004 33.7816 42.593 33.5607 42.5632C33.3398 42.5409 32.9362 42.5335 32.365 42.5335C30.6971 42.5335 29.4558 42.6748 28.6409 42.9647C28.3591 43.0762 28.1306 43.1283 27.9707 43.1283C27.5746 43.1283 27.2091 42.8457 26.874 42.2733C26.7978 42.1395 26.7598 42.0354 26.7598 41.9536C26.7598 41.7603 26.9578 41.4927 27.3386 41.1507C27.7193 40.8013 28.3286 40.3329 29.1511 39.7456C29.9813 39.1508 31.7101 37.9241 34.3375 36.0729ZM41.868 41.6709H41.7309C41.3805 41.9832 40.9464 42.2508 40.4286 42.4664C39.9183 42.6894 39.4537 42.801 39.0349 42.801C38.616 42.801 38.2352 42.6969 37.8925 42.5036C37.5498 42.3103 37.2756 42.0426 37.0776 41.7007C36.8796 41.3661 36.7806 40.987 36.7806 40.5706C36.7806 39.6636 37.2071 38.7492 38.0753 37.8347C38.9359 36.9203 39.9412 36.1545 41.0835 35.5449C42.2259 34.9353 43.1093 34.6305 43.7338 34.6305C43.8633 34.6305 44.0156 34.6677 44.1832 34.7494C44.3583 34.8238 44.5259 34.913 44.6934 35.0171C44.8686 35.1212 44.9752 35.1881 45.0361 35.2252C45.3636 34.571 45.7368 34.2513 46.1557 34.2513C46.3765 34.2513 46.6812 34.3628 47.0696 34.5859C47.4504 34.8163 47.6408 35.0171 47.6408 35.1955C47.6408 35.2996 47.6103 35.4037 47.5418 35.5152C47.4732 35.6193 47.3285 35.82 47.1077 36.1099C46.8868 36.3999 46.7192 36.6378 46.5898 36.8088C46.1176 37.5374 45.6683 38.37 45.2418 39.3142C44.8077 40.2584 44.5944 41.2174 44.5944 42.1839C44.5944 42.4813 44.564 42.7118 44.503 42.8827C44.4421 43.0612 44.2822 43.143 44.0385 43.143C42.5305 43.143 41.7842 42.8084 41.7842 42.1244C41.7842 41.9683 41.8146 41.8196 41.868 41.6709ZM44.31 36.4151C43.4647 36.5787 42.6726 36.876 41.9111 37.3072C41.1571 37.7459 40.5478 38.2366 40.1061 38.7718C39.6568 39.3146 39.4283 39.8052 39.4283 40.2513C39.4283 40.452 39.4968 40.623 39.6263 40.7568C39.7558 40.8981 39.9005 40.965 40.0528 40.965C40.5402 40.965 40.9819 40.8089 41.3856 40.5041C41.7816 40.1918 42.1167 39.835 42.3985 39.4261C42.6803 39.0097 43.0154 38.467 43.419 37.7979C43.815 37.1288 44.112 36.6679 44.31 36.4151Z" fill="#FEFEFE"/>
<path fill-rule="evenodd" clip-rule="evenodd" d="M61.0143 2.04461L61.7759 2C61.4865 2.54272 61.1742 3.01109 60.8468 3.41255L60.3365 3.45716C60.603 2.99622 60.8239 2.52785 61.0143 2.04461ZM44.1909 5.42176L44.4879 4.79727C44.7316 4.94596 45.0134 5.0203 45.3257 5.0203C45.4856 5.0203 45.6227 4.99057 45.7369 4.91622C45.8512 4.84188 45.9121 4.74523 45.9273 4.61884C45.9273 4.52219 45.8969 4.43298 45.8283 4.35864C45.7598 4.29173 45.6379 4.20251 45.4704 4.1133C45.3714 4.06126 45.28 4.00178 45.2038 3.9423C45.1277 3.89026 45.0515 3.82335 44.983 3.74901C44.9144 3.67466 44.8611 3.58545 44.8306 3.4888C44.7926 3.39959 44.7773 3.29551 44.785 3.18399C44.8002 2.95352 44.8763 2.75279 45.021 2.57436C45.1581 2.39594 45.3409 2.26955 45.5542 2.1729C45.775 2.08369 46.0187 2.03908 46.2777 2.03908C46.6204 2.03908 46.9022 2.09856 47.1154 2.21751L46.8336 2.842C46.7651 2.80483 46.6661 2.76766 46.5518 2.73049C46.4376 2.70075 46.3081 2.68588 46.1787 2.68588C46.0035 2.68588 45.8664 2.72305 45.7674 2.7974C45.6608 2.86431 45.6075 2.95352 45.5998 3.05017C45.5998 3.14682 45.6303 3.2286 45.7141 3.29551C45.7902 3.36985 45.9197 3.45163 46.0949 3.55571C46.5594 3.79362 46.7727 4.10586 46.7498 4.48502C46.7346 4.67832 46.6889 4.84931 46.5975 4.998C46.5138 5.15412 46.3995 5.27308 46.2548 5.36972C46.1177 5.46637 45.9578 5.54072 45.775 5.59276C45.5998 5.6448 45.4095 5.67454 45.2038 5.67454C44.9753 5.6671 44.7697 5.6448 44.5946 5.59276C44.4194 5.54815 44.2823 5.48867 44.1909 5.42176ZM49.1518 4.92131L49.1671 5.46403C48.8777 5.59785 48.5502 5.67219 48.177 5.67219C47.8114 5.67219 47.5373 5.57555 47.3545 5.38225C47.1717 5.19639 47.0956 4.92875 47.1184 4.58676C47.126 4.39346 47.1793 4.20017 47.2631 4.01431C47.3469 3.82101 47.4535 3.65002 47.5906 3.50133C47.7353 3.35264 47.9028 3.23369 48.1008 3.13704C48.3065 3.04783 48.5197 3.00322 48.7482 3.00322C49.0147 3.00322 49.228 3.07013 49.3879 3.21138C49.5479 3.3452 49.6164 3.53107 49.6012 3.76897C49.5631 4.36373 48.9767 4.65367 47.8495 4.62393C47.8495 4.72802 47.8724 4.80979 47.9181 4.88414C48.0095 5.01796 48.177 5.08487 48.4055 5.08487C48.672 5.08487 48.9157 5.02539 49.1518 4.92131ZM48.8227 3.60709C48.8685 3.65174 48.8913 3.70384 48.8913 3.76338C48.8837 3.88245 48.8075 3.96432 48.655 4.00897C48.5101 4.06106 48.2738 4.08339 47.9612 4.07595C47.9993 3.94199 48.0832 3.82291 48.1976 3.71128C48.3119 3.60709 48.4568 3.54755 48.6169 3.54755C48.7084 3.54755 48.777 3.56988 48.8227 3.60709ZM50.4281 5.61272H49.6589L50.0473 4.08865C50.0778 3.97713 50.1082 3.85075 50.1311 3.72436C50.1369 3.69211 50.1427 3.65888 50.1487 3.62494C50.1661 3.52588 50.1846 3.42067 50.2072 3.31547C50.2143 3.26982 50.2206 3.23047 50.2259 3.19701L50.226 3.19644L50.226 3.1963L50.226 3.19619L50.2261 3.19608C50.2381 3.1211 50.2453 3.07578 50.2453 3.05526H50.9155C50.9079 3.09987 50.9003 3.15191 50.8927 3.21882C50.8883 3.26161 50.8814 3.29947 50.8749 3.33524L50.8749 3.33525C50.87 3.36163 50.8654 3.38687 50.8622 3.41211C50.8546 3.47159 50.847 3.52363 50.8317 3.57567H50.847C50.9612 3.40468 51.0907 3.26342 51.243 3.15934C51.3877 3.05526 51.5552 3.00322 51.7228 3.00322H51.8675L51.6695 3.73923C51.6466 3.7318 51.6086 3.7318 51.5476 3.7318C51.4334 3.7318 51.3192 3.7541 51.2278 3.80614C51.1288 3.85075 51.045 3.92509 50.9688 4.00687C50.9003 4.09609 50.8394 4.19273 50.7937 4.30425C50.748 4.40833 50.7023 4.52729 50.6718 4.66111L50.4281 5.61272ZM51.7764 5.96214L51.5631 6.54203C51.7535 6.64611 52.0353 6.69815 52.4009 6.69815C52.8273 6.69815 53.1701 6.60894 53.4366 6.41564C53.5889 6.29669 53.7108 6.148 53.8098 5.9547C53.9088 5.76884 53.9926 5.53837 54.0611 5.27817L54.5942 3.18165C54.2972 3.06269 53.9773 3.00322 53.6346 3.00322C53.4138 3.00322 53.2081 3.03296 53.0101 3.09243C52.8197 3.15191 52.6446 3.24112 52.4999 3.3452C52.3552 3.45672 52.2333 3.57567 52.1267 3.72436C52.0124 3.86562 51.9287 4.01431 51.8754 4.17787C51.8144 4.34142 51.784 4.50498 51.7687 4.67597C51.7611 4.93618 51.822 5.15178 51.9591 5.33021C52.1038 5.5012 52.3018 5.59042 52.5532 5.59042C52.8502 5.59042 53.1091 5.46403 53.33 5.20382H53.3376L53.2767 5.42686C53.2081 5.67219 53.1091 5.84319 52.9644 5.94727C52.8273 6.05135 52.6598 6.10339 52.4542 6.10339C52.3399 6.10339 52.2105 6.09596 52.081 6.06622C51.9439 6.03648 51.8449 6.00675 51.7764 5.96214ZM53.5485 4.30427L53.7237 3.6203C53.6551 3.59056 53.5637 3.57569 53.4495 3.57569C53.3048 3.57569 53.1601 3.6203 53.0306 3.72438C52.9012 3.82103 52.8022 3.94742 52.726 4.09611C52.6498 4.2448 52.6041 4.40092 52.5889 4.55704C52.5813 4.69086 52.6041 4.80238 52.6651 4.88416C52.7184 4.96594 52.8022 5.01055 52.9164 5.01055C53.0382 5.01055 53.1677 4.94364 53.2819 4.81725C53.4038 4.68343 53.4952 4.51244 53.5485 4.30427ZM56.8128 5.46403L56.7976 4.92131C56.5615 5.02539 56.3178 5.08487 56.0512 5.08487C55.8227 5.08487 55.6552 5.01796 55.5638 4.88414C55.5181 4.80979 55.4953 4.72802 55.4953 4.62393C56.6224 4.65367 57.2088 4.36373 57.2469 3.76897C57.2621 3.53107 57.1936 3.3452 57.0337 3.21138C56.8737 3.07013 56.6605 3.00322 56.3939 3.00322C56.1654 3.00322 55.9522 3.04783 55.7466 3.13704C55.5486 3.23369 55.3734 3.35264 55.2363 3.50133C55.0992 3.65002 54.9926 3.82101 54.9088 4.01431C54.8251 4.20017 54.7717 4.39346 54.7641 4.58676C54.7413 4.92875 54.8174 5.19639 55.0002 5.38225C55.183 5.57555 55.4572 5.67219 55.8227 5.67219C56.1959 5.67219 56.5234 5.59785 56.8128 5.46403ZM56.5288 3.76338C56.5288 3.70384 56.5059 3.65174 56.4602 3.60709C56.4144 3.56988 56.3458 3.54755 56.2543 3.54755C56.0942 3.54755 55.9494 3.60709 55.835 3.71128C55.7207 3.82291 55.6368 3.94199 55.5987 4.07595C55.9113 4.08339 56.1476 4.06106 56.2925 4.00897C56.4449 3.96432 56.5212 3.88245 56.5288 3.76338ZM58.4311 3.05563H57.6239L57.9894 5.37518C57.997 5.42722 57.9894 5.46439 57.9666 5.50157C57.8599 5.67256 57.7076 5.82125 57.5096 5.94763C57.3801 6.02941 57.2278 6.09632 57.0527 6.14093L57.1821 6.78773C57.2888 6.77286 57.4258 6.72825 57.5858 6.65391C57.7533 6.57956 57.9056 6.48292 58.0503 6.3491C58.3931 6.05172 58.7662 5.56848 59.1546 4.89194L60.2056 3.05563H59.3983L58.8424 4.18566C58.8424 4.19587 58.7993 4.29019 58.7156 4.47342L58.7156 4.47344C58.6774 4.55709 58.6307 4.65926 58.5758 4.78042H58.5682C58.5606 4.72095 58.553 4.63173 58.5454 4.49791C58.5378 4.35666 58.5301 4.25257 58.5225 4.1708L58.4311 3.05563ZM61.547 4.79575L61.2576 5.42025C61.349 5.48716 61.4785 5.54663 61.6536 5.59124C61.8288 5.64328 62.0344 5.66558 62.2705 5.67302C62.4685 5.67302 62.6589 5.64328 62.8417 5.59124C63.0169 5.5392 63.1768 5.46485 63.3215 5.36821C63.4586 5.27156 63.5728 5.15261 63.6642 4.99648C63.748 4.84779 63.8013 4.6768 63.8089 4.4835C63.8394 4.10435 63.6185 3.7921 63.154 3.55419C62.9788 3.45011 62.8493 3.36833 62.7732 3.29399C62.697 3.22708 62.6589 3.1453 62.6665 3.04865C62.6742 2.952 62.7275 2.86279 62.8265 2.79588C62.9255 2.72153 63.0626 2.68436 63.2377 2.68436C63.3748 2.68436 63.4967 2.69923 63.6109 2.72897C63.7328 2.76614 63.8242 2.80331 63.9003 2.84049L64.1821 2.21599C63.9612 2.09704 63.6871 2.03756 63.3444 2.03756C63.0778 2.03756 62.8341 2.08217 62.6208 2.17138C62.4 2.26803 62.2172 2.39442 62.0801 2.57284C61.943 2.75127 61.8669 2.952 61.8517 3.18247C61.844 3.29399 61.8517 3.39807 61.8897 3.48728C61.9202 3.58393 61.9735 3.67315 62.042 3.74749C62.1182 3.82184 62.1867 3.88875 62.2629 3.94079C62.3467 4.00026 62.4305 4.05974 62.5295 4.11178C62.7046 4.20099 62.8189 4.29021 62.8874 4.35712C62.9636 4.43146 62.994 4.52068 62.9864 4.61732C62.9788 4.74371 62.9179 4.84036 62.8036 4.9147C62.6818 4.98905 62.5447 5.01879 62.3848 5.01879C62.0725 5.01879 61.7983 4.94444 61.547 4.79575Z" fill="#2B2A29"/>
</svg>
