<svg width="180" height="23" viewBox="0 0 180 23" fill="none" xmlns="http://www.w3.org/2000/svg">
<g clip-path="url(#clip0)">
<path d="M149.809 6.81946C146.289 6.81946 144.097 9.04566 144.097 12.6418C144.097 16.0667 146.577 18.4534 150.141 18.4534C151.835 18.4534 153.462 17.7577 154.392 16.6447L154.502 16.5055C154.591 16.3985 154.58 16.238 154.48 16.1309L154.07 15.7242C154.015 15.6707 153.937 15.6386 153.86 15.6386C153.783 15.6386 153.705 15.6814 153.65 15.7349L153.517 15.8847C152.753 16.7303 151.469 17.2654 150.163 17.2654C147.307 17.2654 145.525 15.6279 145.348 12.8559H154.734C154.89 12.8559 155.023 12.7274 155.023 12.5776V12.3849C155.023 12.2993 155.023 12.2244 155.034 12.1388C155.044 12.0425 155.044 11.9568 155.044 11.8498C155.011 8.89582 152.864 6.81946 149.809 6.81946ZM145.348 11.7106C145.68 9.36672 147.296 7.98604 149.698 7.98604C150.927 7.98604 151.956 8.36068 152.676 9.07773C153.34 9.73064 153.716 10.6297 153.783 11.7106H145.348Z" fill="#4F78BB"/>
<path d="M173.962 6.81946C172.634 6.81946 171.206 7.2797 170.155 8.02887V7.2797C170.155 7.12985 170.022 7.00142 169.867 7.00142H169.236C169.081 7.00142 168.948 7.12985 168.948 7.2797V22.5847C168.948 22.7346 169.081 22.863 169.236 22.863H169.867C170.022 22.863 170.155 22.7346 170.155 22.5847V17.6935C171.14 18.1858 172.368 18.4534 173.675 18.4534C177.139 18.4534 179.552 15.9917 179.552 12.4705C179.541 9.03496 177.35 6.81946 173.962 6.81946ZM178.346 12.5348C178.334 15.3282 176.431 17.2761 173.696 17.2761C172.324 17.2761 171.162 16.955 170.155 16.2807V9.57009C170.83 8.77809 172.413 7.97539 173.962 7.97539C176.663 7.98604 178.346 9.73064 178.346 12.5348Z" fill="#4F78BB"/>
<path d="M161.93 6.81946C158.41 6.81946 156.219 9.04566 156.219 12.6418C156.219 16.0667 158.698 18.4534 162.262 18.4534C163.945 18.4534 165.572 17.7577 166.513 16.6447L166.623 16.5055C166.712 16.3985 166.701 16.238 166.602 16.1309L166.181 15.7242C166.125 15.6707 166.037 15.6279 165.971 15.6386C165.893 15.6386 165.815 15.6814 165.76 15.7349L165.627 15.8847C164.864 16.7303 163.58 17.2654 162.274 17.2654C159.418 17.2654 157.635 15.6279 157.459 12.8559H166.845C167 12.8559 167.132 12.7274 167.132 12.5776V12.3849C167.132 12.31 167.132 12.2351 167.144 12.1495C167.155 12.0531 167.155 11.9568 167.155 11.8498C167.155 10.4049 166.634 9.10985 165.693 8.20013C164.742 7.31177 163.414 6.81946 161.93 6.81946ZM157.491 11.7106C157.824 9.36672 159.429 7.98604 161.842 7.98604C163.07 7.98604 164.1 8.36068 164.819 9.07773C165.473 9.71994 165.86 10.6297 165.926 11.7106H157.491Z" fill="#4F78BB"/>
<path d="M144.044 16.6551C144 16.5909 143.933 16.5481 143.856 16.5374C143.778 16.5267 143.701 16.5374 143.634 16.5909L143.468 16.7086C143.169 16.9334 142.583 17.1688 142.007 17.1688C141.077 17.1688 140.568 16.805 140.568 14.8999V1.53206C140.568 1.38222 140.436 1.25378 140.28 1.25378H139.649C139.495 1.25378 139.362 1.38222 139.362 1.53206V15.2424C139.362 17.3187 140.225 18.3248 142.007 18.3248C142.771 18.3248 143.59 18.0786 144.188 17.6612L144.342 17.5542C144.475 17.4685 144.498 17.2973 144.42 17.1688L144.044 16.6551Z" fill="#4F78BB"/>
<path d="M134.313 12.0425C134.302 12.0318 134.28 12.0318 134.269 12.0211C132.808 11.5609 131.546 11.1649 131.546 9.72003C131.546 8.73535 132.553 7.98618 133.882 7.98618C134.878 7.98618 135.719 8.28582 136.261 8.82096L136.416 8.9708C136.471 9.02434 136.538 9.05646 136.627 9.05646C136.704 9.05646 136.781 9.02434 136.837 8.9601L137.258 8.4892C137.357 8.38218 137.346 8.22163 137.258 8.11461L137.147 7.99689C136.494 7.27978 135.21 6.80884 133.937 6.80884C131.789 6.80884 130.339 7.98618 130.339 9.74144C130.339 12.0318 132.299 12.6419 133.871 13.1449C135.475 13.648 136.471 14.0225 136.471 15.2534C136.471 16.6555 135.11 17.2869 133.76 17.2869C132.874 17.2869 131.624 16.8909 131.136 16.2487L131.025 16.0989C130.937 15.9705 130.76 15.9383 130.627 16.024L130.096 16.3665C130.029 16.4093 129.985 16.4735 129.974 16.5484C129.963 16.6233 129.974 16.6982 130.018 16.7625L130.129 16.9123C130.749 17.8327 132.52 18.4535 133.782 18.4535C136.15 18.4535 137.689 17.1906 137.689 15.232C137.667 13.0914 135.863 12.5241 134.313 12.0425Z" fill="#4F78BB"/>
<path d="M78.6714 6.81946C75.1513 6.81946 72.96 9.04566 72.96 12.6311C72.96 16.056 75.4395 18.4427 79.0036 18.4427C80.6969 18.4427 82.3245 17.747 83.2538 16.634L83.3646 16.4948C83.4536 16.3877 83.4424 16.2272 83.3428 16.1202L82.9333 15.7242C82.8777 15.6707 82.8003 15.6279 82.7229 15.6386C82.6451 15.6386 82.5677 15.6814 82.5126 15.7349L82.3796 15.8954C81.6156 16.741 80.3319 17.2761 79.0259 17.2761C76.1701 17.2761 74.3878 15.6386 74.2109 12.8665H83.586C83.7413 12.8665 83.8737 12.7381 83.8737 12.5882V12.3956C83.8737 12.3207 83.8737 12.2458 83.8849 12.1602C83.896 12.0638 83.896 11.9675 83.896 11.8605C83.8737 8.89582 81.7375 6.81946 78.6714 6.81946ZM74.222 11.7106C74.5537 9.36672 76.1701 7.98604 78.5718 7.98604C79.8005 7.98604 80.8299 8.36068 81.5494 9.07773C82.2138 9.73064 82.59 10.6404 82.6562 11.7106H74.222Z" fill="#4F78BB"/>
<path d="M66.4411 6.81966C65.1679 6.81966 63.7067 7.31197 62.6333 8.09331V1.54316C62.6333 1.39333 62.5003 1.26489 62.3456 1.26489H61.7034C61.5487 1.26489 61.4157 1.39333 61.4157 1.54316V16.7947C61.4157 16.8803 61.4486 16.9552 61.5153 17.0087L61.5816 17.0622C62.7106 18.0041 64.1274 18.4643 65.9097 18.4643C69.5623 18.4643 72.0196 16.0669 72.0196 12.4814C72.0307 9.04581 69.8393 6.81966 66.4411 6.81966ZM62.6333 9.6559C63.3194 8.84248 64.9353 7.99695 66.4411 7.99695C69.1416 7.99695 70.8132 9.7415 70.8132 12.5564C70.8132 13.937 70.3485 15.1143 69.4515 15.9812C68.5662 16.8375 67.3487 17.2977 65.9319 17.2977C65.0021 17.2977 63.8953 17.1907 62.6221 16.3772V9.6559H62.6333Z" fill="#4F78BB"/>
<path d="M105.338 7.00159H104.707C104.552 7.00159 104.42 7.13002 104.42 7.27986V15.414C103.777 16.1953 102.139 17.287 100.468 17.287C97.933 17.287 96.848 16.0562 96.848 13.1878V7.27986C96.848 7.13002 96.7155 7.00159 96.5603 7.00159H95.9293C95.7745 7.00159 95.6416 7.13002 95.6416 7.27986V13.252C95.6416 16.7518 97.2024 18.4536 100.424 18.4536C101.984 18.4536 103.456 17.7365 104.431 16.998V17.9934C104.431 18.1432 104.563 18.2716 104.718 18.2716H105.349C105.504 18.2716 105.637 18.1432 105.637 17.9934V7.29057C105.637 7.13002 105.504 7.00159 105.338 7.00159Z" fill="#4F78BB"/>
<path d="M120.403 17.9826L124.908 7.38682C124.941 7.30121 124.93 7.2049 124.886 7.12996C124.83 7.05506 124.742 7.00152 124.642 7.00152H123.945C123.823 7.00152 123.724 7.06576 123.679 7.17278L119.783 16.4414L114.879 7.15137C114.835 7.05506 114.735 7.00152 114.625 7.00152H113.916C113.906 7.00152 113.906 7.00152 113.894 7.00152H108.902V4.41145C108.902 4.26161 108.77 4.13318 108.614 4.13318H107.983C107.829 4.13318 107.696 4.26161 107.696 4.41145V13.8727C107.696 16.8481 108.98 18.3572 111.526 18.3572C112.289 18.3572 113.108 18.111 113.706 17.6936L113.861 17.5866C113.994 17.501 114.027 17.3297 113.938 17.2013L113.573 16.6662C113.529 16.6019 113.463 16.5592 113.374 16.5484C113.296 16.5377 113.208 16.5592 113.153 16.6019L112.997 16.7197C112.688 16.9444 112.112 17.1799 111.537 17.1799C109.677 17.1799 108.913 16.1632 108.913 13.6587V8.17882H114.071L119.196 17.8221L119.041 18.1753C117.957 20.7225 117.093 21.7179 115.975 21.7179C115.665 21.7179 115.3 21.6216 114.791 21.4075L114.614 21.3326C114.47 21.2684 114.304 21.3326 114.237 21.4717L113.983 22.0283C113.95 22.0925 113.95 22.1781 113.972 22.2423C114.005 22.3172 114.06 22.3708 114.127 22.4029L114.315 22.4778C114.924 22.7347 115.488 22.8631 116.031 22.8631C117.746 22.8631 118.864 21.6323 120.403 17.9826Z" fill="#4F78BB"/>
<path d="M89.1444 6.81946C87.9158 6.81946 86.8863 7.11915 85.7022 7.83625L85.5358 7.93256C85.4696 7.97539 85.4251 8.02887 85.4033 8.10382C85.3811 8.17872 85.4033 8.25361 85.4362 8.31785L85.7573 8.82087C85.8346 8.9493 86.0121 8.99213 86.1446 8.91723L86.3109 8.82087C87.2736 8.26432 87.938 7.99675 89.0782 7.99675C91.7236 7.99675 92.1109 9.17409 92.1442 12.0317C91.0374 11.5394 89.8528 11.4538 89.2 11.4538C86.4434 11.4538 84.6505 12.8559 84.6505 15.0178C84.6505 17.0192 86.178 18.3571 88.4583 18.3571C89.9413 18.3571 91.1588 17.9397 92.1442 17.0727V17.9825C92.1442 18.1323 92.2772 18.2608 92.4319 18.2608H93.0629C93.2177 18.2608 93.3506 18.1323 93.3506 17.9825V11.3361C93.384 8.29644 92.0001 6.81946 89.1444 6.81946ZM92.1776 13.391V15.3282C91.4581 16.2593 90.4504 17.1905 88.4694 17.1905C86.9308 17.1905 85.8903 16.3129 85.8903 14.9964C85.8903 14.4077 86.0895 13.9047 86.499 13.5087C87.0855 12.9415 88.0599 12.6204 89.1778 12.6204C90.3291 12.6204 91.3363 12.8879 92.1776 13.391Z" fill="#4F78BB"/>
<path d="M149.809 6.81958C146.289 6.81958 144.097 9.04579 144.097 12.642C144.097 16.0668 146.577 18.4536 150.141 18.4536C151.835 18.4536 153.462 17.7579 154.392 16.6448L154.502 16.5056C154.591 16.3986 154.58 16.2381 154.48 16.1311L154.07 15.7243C154.015 15.6708 153.937 15.6387 153.86 15.6387C153.783 15.6387 153.705 15.6815 153.65 15.7351L153.517 15.8849C152.753 16.7304 151.469 17.2656 150.163 17.2656C147.307 17.2656 145.525 15.628 145.348 12.856H154.735C154.89 12.856 155.023 12.7276 155.023 12.5777V12.385C155.023 12.2994 155.023 12.2245 155.034 12.1389C155.045 12.0426 155.045 11.957 155.045 11.8499C155.011 8.89594 152.864 6.81958 149.809 6.81958ZM145.348 11.7108C145.68 9.36689 147.296 7.98622 149.698 7.98622C150.927 7.98622 151.956 8.3608 152.676 9.07791C153.34 9.73077 153.716 10.6298 153.783 11.7108H145.348Z" fill="#4F6FC1"/>
<path d="M173.962 6.81958C172.634 6.81958 171.206 7.27982 170.155 8.02904V7.27982C170.155 7.12998 170.022 7.00154 169.867 7.00154H169.236C169.081 7.00154 168.948 7.12998 168.948 7.27982V22.5848C168.948 22.7347 169.081 22.8631 169.236 22.8631H169.867C170.022 22.8631 170.155 22.7347 170.155 22.5848V17.6936C171.14 18.186 172.368 18.4536 173.675 18.4536C177.139 18.4536 179.552 15.9919 179.552 12.4707C179.541 9.03508 177.35 6.81958 173.962 6.81958ZM178.346 12.5349C178.334 15.3283 176.431 17.2762 173.696 17.2762C172.324 17.2762 171.162 16.9552 170.155 16.2809V9.57022C170.83 8.77822 172.413 7.97551 173.962 7.97551C176.663 7.98622 178.346 9.73077 178.346 12.5349Z" fill="#4F6FC1"/>
<path d="M161.93 6.81958C158.411 6.81958 156.219 9.04579 156.219 12.642C156.219 16.0668 158.698 18.4536 162.262 18.4536C163.945 18.4536 165.572 17.7579 166.513 16.6448L166.623 16.5056C166.712 16.3986 166.701 16.2381 166.602 16.1311L166.181 15.7243C166.125 15.6708 166.037 15.628 165.971 15.6387C165.893 15.6387 165.815 15.6815 165.76 15.7351L165.627 15.8849C164.864 16.7304 163.58 17.2656 162.274 17.2656C159.418 17.2656 157.635 15.628 157.459 12.856H166.845C167 12.856 167.132 12.7276 167.132 12.5777V12.385C167.132 12.3101 167.132 12.2352 167.144 12.1496C167.155 12.0533 167.155 11.957 167.155 11.8499C167.155 10.405 166.634 9.11003 165.694 8.20025C164.742 7.31194 163.414 6.81958 161.93 6.81958ZM157.491 11.7108C157.824 9.36689 159.429 7.98622 161.842 7.98622C163.07 7.98622 164.1 8.3608 164.819 9.07791C165.473 9.72006 165.86 10.6298 165.926 11.7108H157.491Z" fill="#4F6FC1"/>
<path d="M144.044 16.6553C144 16.591 143.933 16.5482 143.856 16.5375C143.778 16.5268 143.701 16.5375 143.634 16.591L143.468 16.7088C143.169 16.9335 142.583 17.169 142.007 17.169C141.077 17.169 140.568 16.8051 140.568 14.9V1.53218C140.568 1.38234 140.436 1.25391 140.28 1.25391H139.649C139.495 1.25391 139.362 1.38234 139.362 1.53218V15.2425C139.362 17.3188 140.225 18.3249 142.007 18.3249C142.771 18.3249 143.59 18.0787 144.188 17.6613L144.342 17.5543C144.475 17.4687 144.498 17.2974 144.42 17.169L144.044 16.6553Z" fill="#4F6FC1"/>
<path d="M134.313 12.0425C134.302 12.0318 134.28 12.0318 134.269 12.0211C132.808 11.5609 131.546 11.1649 131.546 9.71998C131.546 8.73535 132.553 7.98613 133.882 7.98613C134.878 7.98613 135.719 8.28582 136.261 8.82096L136.416 8.9708C136.471 9.02429 136.538 9.05641 136.627 9.05641C136.704 9.05641 136.781 9.02429 136.837 8.9601L137.258 8.48915C137.357 8.38213 137.346 8.22158 137.258 8.11456L137.147 7.99684C136.494 7.27974 135.21 6.80884 133.937 6.80884C131.789 6.80884 130.339 7.98613 130.339 9.74139C130.339 12.0318 132.299 12.6419 133.871 13.1449C135.475 13.6479 136.471 14.0225 136.471 15.2534C136.471 16.6554 135.11 17.2869 133.76 17.2869C132.874 17.2869 131.624 16.8909 131.136 16.2487L131.025 16.0989C130.937 15.9704 130.76 15.9383 130.627 16.024L130.096 16.3664C130.029 16.4092 129.985 16.4735 129.974 16.5484C129.963 16.6233 129.974 16.6982 130.018 16.7624L130.129 16.9123C130.749 17.8327 132.52 18.4535 133.782 18.4535C136.15 18.4535 137.689 17.1905 137.689 15.232C137.667 13.0914 135.863 12.5241 134.313 12.0425Z" fill="#4F6FC1"/>
<path d="M78.6714 6.81946C75.1513 6.81946 72.96 9.04566 72.96 12.6311C72.96 16.056 75.4395 18.4427 79.0036 18.4427C80.6969 18.4427 82.3245 17.7471 83.2538 16.6339L83.3646 16.4948C83.4536 16.3878 83.4424 16.2272 83.3428 16.1202L82.9333 15.7242C82.8777 15.6707 82.8003 15.6279 82.7229 15.6386C82.6451 15.6386 82.5677 15.6814 82.5126 15.7349L82.3796 15.8955C81.6156 16.741 80.3319 17.2761 79.0259 17.2761C76.1701 17.2761 74.3878 15.6386 74.2109 12.8666H83.586C83.7413 12.8666 83.8737 12.7381 83.8737 12.5883V12.3956C83.8737 12.3207 83.8737 12.2458 83.8849 12.1602C83.896 12.0639 83.896 11.9676 83.896 11.8605C83.8737 8.89582 81.7375 6.81946 78.6714 6.81946ZM74.222 11.7106C74.5537 9.36676 76.1701 7.98609 78.5718 7.98609C79.8005 7.98609 80.8299 8.36068 81.5494 9.07778C82.2138 9.73064 82.59 10.6404 82.6562 11.7106H74.222Z" fill="#4F6FC1"/>
<path d="M66.4411 6.81975C65.1679 6.81975 63.7067 7.31211 62.6333 8.09341V1.54329C62.6333 1.39345 62.5003 1.26501 62.3456 1.26501H61.7034C61.5487 1.26501 61.4157 1.39345 61.4157 1.54329V16.7948C61.4157 16.8804 61.4486 16.9553 61.5153 17.0088L61.5816 17.0624C62.7106 18.0042 64.1274 18.4644 65.9097 18.4644C69.5623 18.4644 72.0196 16.067 72.0196 12.4816C72.0307 9.04596 69.8393 6.81975 66.4411 6.81975ZM62.6333 9.65599C63.3194 8.84258 64.9353 7.9971 66.4411 7.9971C69.1416 7.9971 70.8132 9.74165 70.8132 12.5565C70.8132 13.9371 70.3485 15.1144 69.4515 15.9814C68.5662 16.8376 67.3487 17.2978 65.9319 17.2978C65.0021 17.2978 63.8953 17.1908 62.6221 16.3774V9.65599H62.6333Z" fill="#4F6FC1"/>
<path d="M105.338 7.00159H104.707C104.552 7.00159 104.42 7.13002 104.42 7.27986V15.414C103.777 16.1953 102.139 17.287 100.468 17.287C97.933 17.287 96.848 16.0562 96.848 13.1878V7.27986C96.848 7.13002 96.7155 7.00159 96.5603 7.00159H95.9293C95.7745 7.00159 95.6416 7.13002 95.6416 7.27986V13.252C95.6416 16.7518 97.2024 18.4536 100.424 18.4536C101.984 18.4536 103.456 17.7365 104.431 16.998V17.9934C104.431 18.1432 104.563 18.2717 104.718 18.2717H105.349C105.504 18.2717 105.637 18.1432 105.637 17.9934V7.29057C105.637 7.13002 105.504 7.00159 105.338 7.00159Z" fill="#4F6FC1"/>
<path d="M120.403 17.9828L124.908 7.38696C124.941 7.30131 124.93 7.205 124.886 7.1301C124.83 7.05516 124.742 7.00167 124.642 7.00167H123.945C123.823 7.00167 123.724 7.06586 123.679 7.17288L119.783 16.4415L114.879 7.15152C114.835 7.05516 114.735 7.00167 114.625 7.00167H113.916C113.906 7.00167 113.906 7.00167 113.894 7.00167H108.902V4.41157C108.902 4.26173 108.77 4.1333 108.614 4.1333H107.983C107.829 4.1333 107.696 4.26173 107.696 4.41157V13.8729C107.696 16.8482 108.98 18.3573 111.526 18.3573C112.289 18.3573 113.108 18.1112 113.706 17.6938L113.861 17.5868C113.994 17.5011 114.027 17.3298 113.938 17.2014L113.573 16.6663C113.529 16.6021 113.463 16.5593 113.374 16.5485C113.296 16.5378 113.208 16.5593 113.153 16.6021L112.997 16.7198C112.688 16.9445 112.112 17.18 111.537 17.18C109.677 17.18 108.913 16.1633 108.913 13.6588V8.17896H114.071L119.196 17.8222L119.041 18.1754C117.957 20.7226 117.093 21.718 115.975 21.718C115.665 21.718 115.3 21.6217 114.791 21.4076L114.614 21.3327C114.47 21.2685 114.304 21.3327 114.237 21.4719L113.983 22.0284C113.95 22.0926 113.95 22.1782 113.972 22.2424C114.005 22.3174 114.06 22.3709 114.127 22.403L114.315 22.4779C114.924 22.7348 115.488 22.8632 116.031 22.8632C117.746 22.8632 118.864 21.6324 120.403 17.9828Z" fill="#4F6FC1"/>
<path d="M89.1444 6.81946C87.9158 6.81946 86.8863 7.11915 85.7022 7.83625L85.5358 7.93256C85.4696 7.97539 85.4251 8.02892 85.4033 8.10382C85.3811 8.17872 85.4033 8.25366 85.4362 8.31785L85.7573 8.82092C85.8346 8.94935 86.0121 8.99213 86.1446 8.91723L86.3109 8.82092C87.2736 8.26437 87.938 7.9968 89.0782 7.9968C91.7236 7.9968 92.1109 9.17409 92.1442 12.0317C91.0374 11.5394 89.8528 11.4538 89.2 11.4538C86.4434 11.4538 84.6505 12.8559 84.6505 15.0178C84.6505 17.0192 86.178 18.3571 88.4583 18.3571C89.9413 18.3571 91.1588 17.9397 92.1442 17.0728V17.9825C92.1442 18.1323 92.2772 18.2608 92.4319 18.2608H93.0629C93.2177 18.2608 93.3506 18.1323 93.3506 17.9825V11.3361C93.384 8.29649 92.0001 6.81946 89.1444 6.81946ZM92.1776 13.391V15.3282C91.4581 16.2594 90.4504 17.1905 88.4694 17.1905C86.9308 17.1905 85.8903 16.3129 85.8903 14.9964C85.8903 14.4078 86.0895 13.9047 86.499 13.5087C87.0855 12.9415 88.0599 12.6204 89.1778 12.6204C90.3291 12.6204 91.3363 12.888 92.1776 13.391Z" fill="#4F6FC1"/>
<path d="M149.809 6.81958C146.289 6.81958 144.097 9.04579 144.097 12.642C144.097 16.0668 146.577 18.4536 150.141 18.4536C151.835 18.4536 153.462 17.7579 154.392 16.6448L154.502 16.5056C154.591 16.3986 154.58 16.2381 154.48 16.1311L154.07 15.7244C154.015 15.6708 153.937 15.6387 153.86 15.6387C153.783 15.6387 153.705 15.6815 153.65 15.7351L153.517 15.8849C152.753 16.7304 151.469 17.2656 150.163 17.2656C147.307 17.2656 145.525 15.628 145.348 12.856H154.735C154.89 12.856 155.023 12.7276 155.023 12.5777V12.385C155.023 12.2994 155.023 12.2245 155.034 12.1389C155.045 12.0426 155.045 11.957 155.045 11.8499C155.011 8.89594 152.864 6.81958 149.809 6.81958ZM145.348 11.7108C145.68 9.36689 147.296 7.98622 149.698 7.98622C150.927 7.98622 151.956 8.3608 152.676 9.07791C153.34 9.73077 153.716 10.6298 153.783 11.7108H145.348Z" stroke="#4F6FC1" stroke-width="0.3"/>
<path d="M173.962 6.81958C172.634 6.81958 171.206 7.27982 170.155 8.02904V7.27982C170.155 7.12998 170.022 7.00154 169.867 7.00154H169.236C169.081 7.00154 168.948 7.12998 168.948 7.27982V22.5848C168.948 22.7347 169.081 22.8631 169.236 22.8631H169.867C170.022 22.8631 170.155 22.7347 170.155 22.5848V17.6936C171.14 18.186 172.368 18.4536 173.675 18.4536C177.139 18.4536 179.552 15.9919 179.552 12.4707C179.541 9.03508 177.35 6.81958 173.962 6.81958ZM178.346 12.5349C178.334 15.3283 176.431 17.2762 173.696 17.2762C172.324 17.2762 171.162 16.9552 170.155 16.2809V9.57022C170.83 8.77822 172.413 7.97551 173.962 7.97551C176.663 7.98622 178.346 9.73077 178.346 12.5349Z" stroke="#4F6FC1" stroke-width="0.3"/>
<path d="M161.93 6.81958C158.411 6.81958 156.219 9.04579 156.219 12.642C156.219 16.0668 158.698 18.4536 162.262 18.4536C163.945 18.4536 165.572 17.7579 166.513 16.6448L166.623 16.5056C166.712 16.3986 166.701 16.2381 166.602 16.1311L166.181 15.7244C166.125 15.6708 166.037 15.628 165.971 15.6387C165.893 15.6387 165.815 15.6815 165.76 15.7351L165.627 15.8849C164.864 16.7304 163.58 17.2656 162.274 17.2656C159.418 17.2656 157.635 15.628 157.459 12.856H166.845C167 12.856 167.132 12.7276 167.132 12.5777V12.385C167.132 12.3101 167.132 12.2352 167.144 12.1496C167.155 12.0533 167.155 11.957 167.155 11.8499C167.155 10.405 166.634 9.11003 165.694 8.20025C164.742 7.31194 163.414 6.81958 161.93 6.81958ZM157.491 11.7108C157.824 9.36689 159.429 7.98622 161.842 7.98622C163.07 7.98622 164.1 8.3608 164.819 9.07791C165.473 9.72006 165.86 10.6298 165.926 11.7108H157.491Z" stroke="#4F6FC1" stroke-width="0.3"/>
<path d="M144.044 16.6553C144 16.591 143.933 16.5482 143.856 16.5375C143.778 16.5268 143.701 16.5375 143.634 16.591L143.468 16.7088C143.169 16.9335 142.583 17.169 142.007 17.169C141.077 17.169 140.568 16.8051 140.568 14.9V1.53218C140.568 1.38234 140.436 1.25391 140.28 1.25391H139.649C139.495 1.25391 139.362 1.38234 139.362 1.53218V15.2425C139.362 17.3188 140.225 18.3249 142.007 18.3249C142.771 18.3249 143.59 18.0787 144.188 17.6613L144.342 17.5543C144.475 17.4687 144.498 17.2974 144.42 17.169L144.044 16.6553Z" stroke="#4F6FC1" stroke-width="0.3"/>
<path d="M134.313 12.0425C134.302 12.0318 134.28 12.0318 134.269 12.0211C132.808 11.5609 131.546 11.1649 131.546 9.71998C131.546 8.73535 132.553 7.98613 133.882 7.98613C134.878 7.98613 135.719 8.28582 136.261 8.82096L136.416 8.9708C136.471 9.02429 136.538 9.05641 136.627 9.05641C136.704 9.05641 136.781 9.02429 136.837 8.9601L137.258 8.48915C137.357 8.38213 137.346 8.22158 137.258 8.11456L137.147 7.99684C136.494 7.27974 135.21 6.80884 133.937 6.80884C131.789 6.80884 130.339 7.98613 130.339 9.74139C130.339 12.0318 132.299 12.6419 133.871 13.1449C135.475 13.6479 136.471 14.0225 136.471 15.2534C136.471 16.6554 135.11 17.2869 133.76 17.2869C132.874 17.2869 131.624 16.8909 131.136 16.2487L131.025 16.0989C130.937 15.9704 130.76 15.9383 130.627 16.024L130.096 16.3664C130.029 16.4092 129.985 16.4735 129.974 16.5484C129.963 16.6233 129.974 16.6982 130.018 16.7624L130.129 16.9123C130.749 17.8327 132.52 18.4535 133.782 18.4535C136.15 18.4535 137.689 17.1905 137.689 15.232C137.667 13.0914 135.863 12.5241 134.313 12.0425Z" stroke="#4F6FC1" stroke-width="0.3"/>
<path d="M78.6714 6.81946C75.1513 6.81946 72.96 9.04566 72.96 12.6311C72.96 16.056 75.4395 18.4427 79.0036 18.4427C80.6969 18.4427 82.3245 17.7471 83.2538 16.6339L83.3646 16.4948C83.4536 16.3878 83.4424 16.2272 83.3428 16.1202L82.9333 15.7242C82.8777 15.6707 82.8003 15.6279 82.7229 15.6386C82.6451 15.6386 82.5677 15.6814 82.5126 15.7349L82.3796 15.8955C81.6156 16.741 80.3319 17.2761 79.0259 17.2761C76.1701 17.2761 74.3878 15.6386 74.2109 12.8666H83.586C83.7413 12.8666 83.8737 12.7381 83.8737 12.5883V12.3956C83.8737 12.3207 83.8737 12.2458 83.8849 12.1602C83.896 12.0639 83.896 11.9676 83.896 11.8605C83.8737 8.89582 81.7375 6.81946 78.6714 6.81946ZM74.222 11.7106C74.5537 9.36676 76.1701 7.98609 78.5718 7.98609C79.8005 7.98609 80.8299 8.36068 81.5494 9.07778C82.2138 9.73064 82.59 10.6404 82.6562 11.7106H74.222Z" stroke="#4F6FC1" stroke-width="0.3"/>
<path d="M66.4411 6.81975C65.1679 6.81975 63.7067 7.31211 62.6333 8.09341V1.54329C62.6333 1.39345 62.5003 1.26501 62.3456 1.26501H61.7034C61.5487 1.26501 61.4157 1.39345 61.4157 1.54329V16.7948C61.4157 16.8804 61.4486 16.9554 61.5153 17.0088L61.5816 17.0624C62.7106 18.0042 64.1274 18.4644 65.9097 18.4644C69.5623 18.4644 72.0196 16.067 72.0196 12.4816C72.0307 9.04596 69.8393 6.81975 66.4411 6.81975ZM62.6333 9.65599C63.3194 8.84258 64.9353 7.9971 66.4411 7.9971C69.1416 7.9971 70.8132 9.74165 70.8132 12.5565C70.8132 13.9371 70.3485 15.1144 69.4515 15.9814C68.5662 16.8376 67.3487 17.2978 65.9319 17.2978C65.0021 17.2978 63.8953 17.1908 62.6221 16.3774V9.65599H62.6333Z" stroke="#4F6FC1" stroke-width="0.3"/>
<path d="M105.338 7.00159H104.707C104.552 7.00159 104.42 7.13002 104.42 7.27986V15.414C103.777 16.1953 102.139 17.287 100.468 17.287C97.933 17.287 96.848 16.0562 96.848 13.1878V7.27986C96.848 7.13002 96.7155 7.00159 96.5603 7.00159H95.9293C95.7745 7.00159 95.6416 7.13002 95.6416 7.27986V13.252C95.6416 16.7518 97.2024 18.4536 100.424 18.4536C101.984 18.4536 103.456 17.7365 104.431 16.998V17.9934C104.431 18.1432 104.563 18.2717 104.718 18.2717H105.349C105.504 18.2717 105.637 18.1432 105.637 17.9934V7.29057C105.637 7.13002 105.504 7.00159 105.338 7.00159Z" stroke="#4F6FC1" stroke-width="0.3"/>
<path d="M120.403 17.9828L124.908 7.38696C124.941 7.30131 124.93 7.205 124.886 7.1301C124.83 7.05515 124.742 7.00167 124.642 7.00167H123.945C123.823 7.00167 123.724 7.06586 123.679 7.17288L119.783 16.4415L114.879 7.15152C114.835 7.05516 114.735 7.00167 114.625 7.00167H113.916C113.906 7.00167 113.906 7.00167 113.894 7.00167H108.902V4.41157C108.902 4.26173 108.77 4.1333 108.614 4.1333H107.983C107.829 4.1333 107.696 4.26173 107.696 4.41157V13.8729C107.696 16.8482 108.98 18.3573 111.526 18.3573C112.289 18.3573 113.108 18.1112 113.706 17.6938L113.861 17.5868C113.994 17.5011 114.027 17.3298 113.938 17.2014L113.573 16.6663C113.529 16.6021 113.463 16.5593 113.374 16.5485C113.296 16.5378 113.208 16.5593 113.153 16.6021L112.997 16.7198C112.688 16.9445 112.112 17.18 111.537 17.18C109.677 17.18 108.913 16.1633 108.913 13.6588V8.17896H114.071L119.196 17.8222L119.041 18.1754C117.957 20.7226 117.093 21.718 115.975 21.718C115.665 21.718 115.3 21.6217 114.791 21.4076L114.614 21.3327C114.47 21.2685 114.304 21.3327 114.237 21.4719L113.983 22.0284C113.95 22.0926 113.95 22.1782 113.972 22.2424C114.005 22.3174 114.06 22.3709 114.127 22.403L114.315 22.4779C114.924 22.7348 115.488 22.8632 116.031 22.8632C117.746 22.8632 118.864 21.6324 120.403 17.9828Z" stroke="#4F6FC1" stroke-width="0.3"/>
<path d="M89.1444 6.81946C87.9158 6.81946 86.8863 7.11915 85.7022 7.83625L85.5358 7.93256C85.4696 7.97539 85.4251 8.02892 85.4033 8.10382C85.3811 8.17872 85.4033 8.25366 85.4362 8.31785L85.7573 8.82092C85.8346 8.94935 86.0121 8.99213 86.1446 8.91723L86.3109 8.82092C87.2736 8.26437 87.938 7.9968 89.0782 7.9968C91.7236 7.9968 92.1109 9.17409 92.1442 12.0317C91.0374 11.5394 89.8528 11.4538 89.2 11.4538C86.4434 11.4538 84.6505 12.8559 84.6505 15.0178C84.6505 17.0192 86.178 18.3571 88.4583 18.3571C89.9413 18.3571 91.1588 17.9397 92.1442 17.0728V17.9825C92.1442 18.1323 92.2772 18.2608 92.4319 18.2608H93.0629C93.2177 18.2608 93.3506 18.1323 93.3506 17.9825V11.3361C93.384 8.29649 92.0001 6.81946 89.1444 6.81946ZM92.1776 13.391V15.3282C91.4581 16.2594 90.4504 17.1905 88.4694 17.1905C86.9308 17.1905 85.8903 16.3129 85.8903 14.9964C85.8903 14.4078 86.0895 13.9047 86.499 13.5087C87.0855 12.9415 88.0599 12.6204 89.1778 12.6204C90.3291 12.6204 91.3363 12.888 92.1776 13.391Z" stroke="#4F6FC1" stroke-width="0.3"/>
<path fill-rule="evenodd" clip-rule="evenodd" d="M50.5294 5.87146C51.0929 5.87146 51.6395 5.94192 52.1603 6.07426C49.4173 6.77186 47.3941 9.18628 47.3941 12.0576C47.3941 14.9292 49.4177 17.3439 52.1613 18.0411C51.64 18.1736 51.0934 18.2442 50.5294 18.2442C46.9958 18.2442 44.1313 15.4745 44.1313 12.0578C44.1313 8.64117 46.9958 5.87146 50.5294 5.87146ZM6.50343 18.2459C10.037 18.2459 12.9015 15.4762 12.9015 12.0596C12.9015 8.64293 10.037 5.8732 6.50343 5.8732C2.96988 5.8732 0.105377 8.64293 0.105377 12.0596C0.105377 15.4762 2.96988 18.2459 6.50343 18.2459ZM24.7831 6.1912C26.7782 7.01444 28.2153 9.32948 28.2153 12.0567C28.2153 14.7819 26.7803 17.0955 24.7875 17.9203C24.5637 18.1303 24.1378 18.2442 23.4215 18.2442C23.1404 18.2442 22.8636 18.2267 22.592 18.1926C22.4937 18.1804 22.3961 18.1659 22.2992 18.1494L22.2977 18.1491C19.3 17.6355 17.0234 15.1037 17.0234 12.0578C17.0234 9.02822 19.2756 6.50732 22.2495 5.97502L22.2587 5.97291C22.5987 5.91263 22.9481 5.87835 23.3046 5.87226L23.3091 5.8724C23.3465 5.87177 23.3839 5.87146 23.4215 5.87146C24.1332 5.87146 24.5582 5.98382 24.7831 6.1912ZM32.8161 12.059C32.8161 8.69632 35.5909 5.9602 39.0474 5.87474V18.2433C35.5909 18.1578 32.8161 15.4218 32.8161 12.059Z" fill="url(#paint0_linear)"/>
</g>
<defs>
<linearGradient id="paint0_linear" x1="11.8751" y1="33.2996" x2="58.655" y2="39.9327" gradientUnits="userSpaceOnUse">
<stop stop-color="#F0C9D1"/>
<stop offset="0.75864" stop-color="#4E79C0"/>
</linearGradient>
<clipPath id="clip0">
<rect width="180" height="22" fill="white" transform="translate(-0.00012207 0.997681)"/>
</clipPath>
</defs>
</svg>
