<svg width="141" height="74" viewBox="0 0 141 74" fill="none" xmlns="http://www.w3.org/2000/svg">
<path d="M13.6398 15.3729H10.7172V2.34421H3.94436V15.3729H1.03249V0.167514H13.6398V15.3729Z" fill="#45404A"/>
<path d="M36.2902 7.77019C36.2902 8.88483 36.0997 9.91885 35.7187 10.8723C35.3448 11.8186 34.8127 12.6388 34.1225 13.3329C33.4323 14.0269 32.6019 14.5702 31.6312 14.9628C30.6606 15.3483 29.5822 15.5411 28.3958 15.5411C27.2167 15.5411 26.1418 15.3483 25.1712 14.9628C24.2006 14.5702 23.3666 14.0269 22.6691 13.3329C21.9789 12.6388 21.4433 11.8186 21.0622 10.8723C20.6812 9.91885 20.4906 8.88483 20.4906 7.77019C20.4906 6.65555 20.6812 5.62504 21.0622 4.67865C21.4433 3.72525 21.9789 2.90153 22.6691 2.20751C23.3666 1.51349 24.2006 0.9737 25.1712 0.588133C26.1418 0.195556 27.2167 -0.000732422 28.3958 -0.000732422C29.1867 -0.000732422 29.9309 0.0904012 30.6283 0.272669C31.3257 0.447927 31.9656 0.700298 32.5479 1.02978C33.1303 1.35226 33.6516 1.74834 34.1117 2.21803C34.5791 2.68071 34.9745 3.19947 35.298 3.77432C35.6216 4.34916 35.866 4.97308 36.0314 5.64607C36.204 6.31906 36.2902 7.0271 36.2902 7.77019ZM33.3244 7.77019C33.3244 6.93597 33.2094 6.18937 32.9793 5.5304C32.7493 4.86442 32.4221 4.30009 31.9979 3.83741C31.5737 3.37473 31.0561 3.02071 30.4449 2.77535C29.841 2.52999 29.158 2.40731 28.3958 2.40731C27.6337 2.40731 26.9471 2.52999 26.336 2.77535C25.732 3.02071 25.2143 3.37473 24.783 3.83741C24.3588 4.30009 24.0316 4.86442 23.8015 5.5304C23.5715 6.18937 23.4564 6.93597 23.4564 7.77019C23.4564 8.60442 23.5715 9.35452 23.8015 10.0205C24.0316 10.6795 24.3588 11.2403 24.783 11.703C25.2143 12.1586 25.732 12.5092 26.336 12.7545C26.9471 12.9999 27.6337 13.1226 28.3958 13.1226C29.158 13.1226 29.841 12.9999 30.4449 12.7545C31.0561 12.5092 31.5737 12.1586 31.9979 11.703C32.4221 11.2403 32.7493 10.6795 32.9793 10.0205C33.2094 9.35452 33.3244 8.60442 33.3244 7.77019Z" fill="#45404A"/>
<path d="M48.5873 13.1646C49.1266 13.1646 49.5759 13.1085 49.9354 12.9964C50.3021 12.8772 50.5969 12.716 50.8198 12.5127C51.0427 12.3094 51.2008 12.071 51.2943 11.7976C51.3878 11.5242 51.4345 11.2298 51.4345 10.9143C51.4345 10.5708 51.3878 10.2589 51.2943 9.97844C51.2008 9.69803 51.0427 9.46318 50.8198 9.2739C50.5969 9.07761 50.3057 8.92689 49.9462 8.82174C49.5867 8.71658 49.1374 8.66401 48.5981 8.66401H46.0529V13.1646H48.5873ZM48.5981 6.45576C49.6119 6.45576 50.4783 6.56442 51.1972 6.78174C51.9234 6.99906 52.513 7.297 52.9659 7.67555C53.4261 8.0471 53.764 8.48875 53.9797 9.0005C54.1954 9.50524 54.3032 10.0485 54.3032 10.6304C54.3032 11.3454 54.1738 11.9939 53.915 12.5758C53.6633 13.1576 53.2931 13.6588 52.8042 14.0795C52.3153 14.4931 51.7149 14.812 51.0031 15.0364C50.2985 15.2607 49.4933 15.3729 48.5873 15.3729H43.1518V0.167514H53.7317V2.35473H46.0529V6.45576H48.5981Z" fill="#45404A"/>
<path d="M63.9638 2.41782V6.63452H69.4209V8.81122H63.9638V13.112H70.8876V15.3729H61.0519V0.167514H70.8876V2.41782H63.9638Z" fill="#45404A"/>
<path d="M87.6297 13.1962V2.34421H83.3697C83.2835 3.83741 83.1648 5.16236 83.0138 6.31906C82.87 7.47576 82.7011 8.49225 82.507 9.36854C82.3128 10.2448 82.0971 10.9949 81.8599 11.6189C81.6226 12.2428 81.3674 12.7685 81.0942 13.1962H87.6297ZM92.9681 13.1962V18.1805C92.9681 18.4259 92.8819 18.6221 92.7093 18.7694C92.5439 18.9166 92.3246 18.9902 92.0514 18.9902H90.3043V15.3729H78.8509V18.1805C78.8509 18.4259 78.7647 18.6221 78.5921 18.7694C78.4267 18.9166 78.2075 18.9902 77.9342 18.9902H76.1871V13.1962H77.8911C78.0924 13.091 78.2901 12.9228 78.4843 12.6914C78.6856 12.4601 78.8797 12.1341 79.0666 11.7135C79.2536 11.2929 79.4297 10.7601 79.5951 10.1151C79.7676 9.47019 79.9222 8.68504 80.0588 7.75968C80.1954 6.82731 80.3105 5.7372 80.4039 4.48937C80.5046 3.24153 80.5801 1.80092 80.6304 0.167514H90.5416V13.1962H92.9681Z" fill="#45404A"/>
<path d="M107.819 9.63143L105.921 4.57349C105.827 4.34916 105.73 4.08277 105.629 3.77432C105.529 3.46586 105.428 3.13287 105.327 2.77535C105.234 3.13287 105.137 3.46937 105.036 3.78483C104.936 4.09329 104.839 4.36318 104.745 4.59452L102.858 9.63143H107.819ZM112.941 15.3729H110.698C110.447 15.3729 110.242 15.3133 110.083 15.1941C109.925 15.0679 109.807 14.9137 109.728 14.7314L108.563 11.6294H102.103L100.938 14.7314C100.881 14.8927 100.769 15.0399 100.604 15.1731C100.438 15.3063 100.23 15.3729 99.9782 15.3729H97.7242L103.85 0.167514H106.816L112.941 15.3729Z" fill="#45404A"/>
<path d="M7.58257 54.0623V61.2538H6.74174V55.9693C6.74174 55.899 6.74339 55.8238 6.74669 55.7435C6.75328 55.6632 6.75988 55.5812 6.76647 55.4976L4.333 59.9942C4.25716 60.1447 4.14175 60.22 3.98677 60.22H3.84828C3.6933 60.22 3.5779 60.1447 3.50206 59.9942L1.01912 55.4775C1.03891 55.6548 1.0488 55.8188 1.0488 55.9693V61.2538H0.207964V54.0623H0.915254C1.00099 54.0623 1.06693 54.0706 1.1131 54.0873C1.15926 54.1041 1.20378 54.1509 1.24664 54.2279L3.69495 58.6542C3.73452 58.7345 3.77244 58.8182 3.80871 58.9052C3.84828 58.9922 3.88455 59.0808 3.91753 59.1711C3.9505 59.0808 3.98512 58.9922 4.02139 58.9052C4.05767 58.8148 4.09723 58.7295 4.1401 58.6492L6.5439 54.2279C6.58347 54.1509 6.62633 54.1041 6.6725 54.0873C6.72196 54.0706 6.78955 54.0623 6.87528 54.0623H7.58257Z" fill="#45404A"/>
<path d="M13.123 56.0898C13.489 56.0898 13.8188 56.1516 14.1123 56.2754C14.4057 56.3992 14.6563 56.5749 14.8641 56.8024C15.0718 57.0299 15.2301 57.3059 15.3389 57.6305C15.451 57.9516 15.507 58.3113 15.507 58.7094C15.507 59.1109 15.451 59.4723 15.3389 59.7934C15.2301 60.1146 15.0718 60.389 14.8641 60.6165C14.6563 60.844 14.4057 61.0196 14.1123 61.1434C13.8188 61.2639 13.489 61.3241 13.123 61.3241C12.7537 61.3241 12.4207 61.2639 12.1239 61.1434C11.8305 61.0196 11.5799 60.844 11.3721 60.6165C11.1644 60.389 11.0045 60.1146 10.8924 59.7934C10.7835 59.4723 10.7291 59.1109 10.7291 58.7094C10.7291 58.3113 10.7835 57.9516 10.8924 57.6305C11.0045 57.3059 11.1644 57.0299 11.3721 56.8024C11.5799 56.5749 11.8305 56.3992 12.1239 56.2754C12.4207 56.1516 12.7537 56.0898 13.123 56.0898ZM13.123 60.6265C13.6176 60.6265 13.987 60.4592 14.231 60.1247C14.475 59.7868 14.597 59.3167 14.597 58.7145C14.597 58.1089 14.475 57.6371 14.231 57.2992C13.987 56.9613 13.6176 56.7924 13.123 56.7924C12.8724 56.7924 12.6532 56.8358 12.4652 56.9228C12.2806 57.0098 12.1256 57.1353 12.0003 57.2992C11.8783 57.4632 11.7859 57.6656 11.7233 57.9065C11.6639 58.144 11.6343 58.4133 11.6343 58.7145C11.6343 59.3167 11.7563 59.7868 12.0003 60.1247C12.2476 60.4592 12.6218 60.6265 13.123 60.6265Z" fill="#45404A"/>
<path d="M22.0891 57.0734C22.0627 57.1102 22.0364 57.1386 22.01 57.1587C21.9836 57.1788 21.9473 57.1888 21.9012 57.1888C21.8517 57.1888 21.7973 57.1687 21.738 57.1286C21.6786 57.0851 21.6044 57.0383 21.5154 56.9881C21.4296 56.9379 21.3225 56.8927 21.1939 56.8526C21.0686 56.8091 20.9136 56.7873 20.729 56.7873C20.4816 56.7873 20.264 56.8325 20.0761 56.9228C19.8881 57.0098 19.7298 57.137 19.6012 57.3042C19.4759 57.4715 19.3803 57.6739 19.3144 57.9115C19.2517 58.149 19.2204 58.415 19.2204 58.7094C19.2204 59.0172 19.255 59.2916 19.3243 59.5325C19.3935 59.77 19.4908 59.9708 19.6161 60.1347C19.7447 60.2953 19.898 60.4191 20.0761 60.5061C20.2574 60.5897 20.4602 60.6315 20.6844 60.6315C20.8988 60.6315 21.0752 60.6065 21.2137 60.5563C21.3522 60.5027 21.4659 60.4442 21.5549 60.3806C21.6473 60.3171 21.7231 60.2602 21.7825 60.21C21.8451 60.1565 21.9061 60.1297 21.9655 60.1297C22.038 60.1297 22.0941 60.1581 22.1336 60.215L22.3809 60.5412C22.2721 60.6784 22.1485 60.7955 22.01 60.8925C21.8715 60.9895 21.7215 61.0715 21.5599 61.1384C21.4016 61.202 21.2351 61.2488 21.0603 61.2789C20.8856 61.3091 20.7075 61.3241 20.5262 61.3241C20.2129 61.3241 19.9211 61.2656 19.6507 61.1485C19.3836 61.0314 19.1512 60.8624 18.9533 60.6416C18.7555 60.4174 18.6005 60.1431 18.4884 59.8185C18.3763 59.494 18.3202 59.1243 18.3202 58.7094C18.3202 58.3314 18.3713 57.9817 18.4735 57.6606C18.5791 57.3394 18.7307 57.0634 18.9286 56.8325C19.1297 56.5983 19.3754 56.416 19.6655 56.2855C19.959 56.155 20.2953 56.0898 20.6745 56.0898C21.0274 56.0898 21.3373 56.1483 21.6044 56.2654C21.8748 56.3792 22.1139 56.5414 22.3216 56.7522L22.0891 57.0734Z" fill="#45404A"/>
<path d="M28.3463 56.421C28.3925 56.3474 28.4535 56.2871 28.5293 56.2403C28.6052 56.1935 28.6859 56.1701 28.7717 56.1701H29.4592L28.1584 58.1072C28.0792 58.231 27.9968 58.333 27.9111 58.4133C27.8253 58.4903 27.7198 58.5505 27.5945 58.594C27.7528 58.6375 27.8863 58.7061 27.9951 58.7998C28.1039 58.8901 28.2012 59.0072 28.287 59.1511L29.6026 61.2538H28.9893C28.831 61.2538 28.709 61.2271 28.6233 61.1736C28.5376 61.12 28.4634 61.0431 28.4007 60.9427L27.4263 59.3619C27.2714 59.1009 27.0389 58.9704 26.7289 58.9704H26.1898V61.2589H25.3045V56.1701H26.1898V58.3682H26.6646C26.9284 58.3682 27.1345 58.2544 27.2829 58.0269L28.3463 56.421Z" fill="#45404A"/>
<path d="M34.3216 56.0898C34.6876 56.0898 35.0174 56.1516 35.3109 56.2754C35.6043 56.3992 35.8549 56.5749 36.0627 56.8024C36.2704 57.0299 36.4287 57.3059 36.5375 57.6305C36.6496 57.9516 36.7056 58.3113 36.7056 58.7094C36.7056 59.1109 36.6496 59.4723 36.5375 59.7934C36.4287 60.1146 36.2704 60.389 36.0627 60.6165C35.8549 60.844 35.6043 61.0196 35.3109 61.1434C35.0174 61.2639 34.6876 61.3241 34.3216 61.3241C33.9523 61.3241 33.6193 61.2639 33.3225 61.1434C33.0291 61.0196 32.7785 60.844 32.5707 60.6165C32.363 60.389 32.2031 60.1146 32.091 59.7934C31.9821 59.4723 31.9277 59.1109 31.9277 58.7094C31.9277 58.3113 31.9821 57.9516 32.091 57.6305C32.2031 57.3059 32.363 57.0299 32.5707 56.8024C32.7785 56.5749 33.0291 56.3992 33.3225 56.2754C33.6193 56.1516 33.9523 56.0898 34.3216 56.0898ZM34.3216 60.6265C34.8162 60.6265 35.1856 60.4592 35.4296 60.1247C35.6736 59.7868 35.7956 59.3167 35.7956 58.7145C35.7956 58.1089 35.6736 57.6371 35.4296 57.2992C35.1856 56.9613 34.8162 56.7924 34.3216 56.7924C34.071 56.7924 33.8518 56.8358 33.6638 56.9228C33.4792 57.0098 33.3242 57.1353 33.1989 57.2992C33.0769 57.4632 32.9845 57.6656 32.9219 57.9065C32.8625 58.144 32.8329 58.4133 32.8329 58.7145C32.8329 59.3167 32.9549 59.7868 33.1989 60.1247C33.4462 60.4592 33.8204 60.6265 34.3216 60.6265Z" fill="#45404A"/>
<path d="M41.7248 60.6265C42.0545 60.6265 42.315 60.5496 42.5062 60.3957C42.6975 60.2384 42.7931 60.0243 42.7931 59.7533C42.7931 59.6329 42.775 59.5241 42.7387 59.4271C42.7024 59.3267 42.6431 59.2397 42.5607 59.1661C42.4782 59.0925 42.3678 59.0356 42.2293 58.9955C42.0941 58.9553 41.9276 58.9353 41.7297 58.9353H40.6465V60.6265H41.7248ZM40.6465 56.7723V58.3682H41.611C41.7561 58.3682 41.8896 58.3481 42.0116 58.308C42.1369 58.2645 42.2441 58.2059 42.3331 58.1323C42.4222 58.0554 42.4914 57.965 42.5409 57.8613C42.5903 57.7542 42.6151 57.6371 42.6151 57.51C42.6151 57.4163 42.5986 57.326 42.5656 57.239C42.5326 57.1487 42.4766 57.07 42.3974 57.0031C42.3183 56.9329 42.2144 56.8777 42.0858 56.8375C41.9572 56.794 41.799 56.7723 41.611 56.7723H40.6465ZM41.6357 56.1701C41.9457 56.1701 42.2111 56.2018 42.4321 56.2654C42.653 56.329 42.8343 56.416 42.9761 56.5264C43.1179 56.6334 43.2218 56.7606 43.2877 56.9078C43.3537 57.055 43.3866 57.2122 43.3866 57.3795C43.3866 57.4899 43.3718 57.6054 43.3421 57.7258C43.3125 57.8462 43.2597 57.9617 43.1839 58.0721C43.1113 58.1825 43.0107 58.2829 42.8821 58.3732C42.7568 58.4602 42.5986 58.5288 42.4073 58.579C42.7898 58.6459 43.0849 58.7814 43.2927 58.9855C43.5004 59.1862 43.6043 59.4522 43.6043 59.7834C43.6043 60.031 43.5548 60.2468 43.4559 60.4308C43.3603 60.6115 43.2267 60.7637 43.0553 60.8875C42.8871 61.0113 42.6893 61.1033 42.4617 61.1635C42.2342 61.2237 41.9902 61.2538 41.7297 61.2538H39.8007V56.1701H41.6357Z" fill="#45404A"/>
<path d="M50.1736 57.0734C50.1472 57.1102 50.1208 57.1386 50.0945 57.1587C50.0681 57.1788 50.0318 57.1888 49.9856 57.1888C49.9362 57.1888 49.8818 57.1687 49.8224 57.1286C49.7631 57.0851 49.6889 57.0383 49.5999 56.9881C49.5141 56.9379 49.407 56.8927 49.2784 56.8526C49.1531 56.8091 48.9981 56.7873 48.8134 56.7873C48.5661 56.7873 48.3485 56.8325 48.1605 56.9228C47.9726 57.0098 47.8143 57.137 47.6857 57.3042C47.5604 57.4715 47.4648 57.6739 47.3988 57.9115C47.3362 58.149 47.3049 58.415 47.3049 58.7094C47.3049 59.0172 47.3395 59.2916 47.4087 59.5325C47.478 59.77 47.5753 59.9708 47.7006 60.1347C47.8292 60.2953 47.9825 60.4191 48.1605 60.5061C48.3419 60.5897 48.5447 60.6315 48.7689 60.6315C48.9832 60.6315 49.1597 60.6065 49.2981 60.5563C49.4366 60.5027 49.5504 60.4442 49.6394 60.3806C49.7318 60.3171 49.8076 60.2602 49.8669 60.21C49.9296 60.1565 49.9906 60.1297 50.0499 60.1297C50.1225 60.1297 50.1785 60.1581 50.2181 60.215L50.4654 60.5412C50.3566 60.6784 50.233 60.7955 50.0945 60.8925C49.956 60.9895 49.8059 61.0715 49.6444 61.1384C49.4861 61.202 49.3196 61.2488 49.1448 61.2789C48.9701 61.3091 48.792 61.3241 48.6106 61.3241C48.2974 61.3241 48.0056 61.2656 47.7352 61.1485C47.4681 61.0314 47.2356 60.8624 47.0378 60.6416C46.8399 60.4174 46.685 60.1431 46.5729 59.8185C46.4607 59.494 46.4047 59.1243 46.4047 58.7094C46.4047 58.3314 46.4558 57.9817 46.558 57.6606C46.6635 57.3394 46.8152 57.0634 47.0131 56.8325C47.2142 56.5983 47.4599 56.416 47.75 56.2855C48.0435 56.155 48.3798 56.0898 48.759 56.0898C49.1118 56.0898 49.4218 56.1483 49.6889 56.2654C49.9593 56.3792 50.1983 56.5414 50.4061 56.7522L50.1736 57.0734Z" fill="#45404A"/>
<path d="M56.4308 56.421C56.4769 56.3474 56.5379 56.2871 56.6138 56.2403C56.6896 56.1935 56.7704 56.1701 56.8561 56.1701H57.5436L56.2428 58.1072C56.1637 58.231 56.0813 58.333 55.9955 58.4133C55.9098 58.4903 55.8043 58.5505 55.679 58.594C55.8372 58.6375 55.9708 58.7061 56.0796 58.7998C56.1884 58.8901 56.2857 59.0072 56.3714 59.1511L57.6871 61.2538H57.0738C56.9155 61.2538 56.7935 61.2271 56.7078 61.1736C56.622 61.12 56.5478 61.0431 56.4852 60.9427L55.5108 59.3619C55.3558 59.1009 55.1234 58.9704 54.8134 58.9704H54.2743V61.2589H53.3889V56.1701H54.2743V58.3682H54.7491C55.0129 58.3682 55.219 58.2544 55.3674 58.0269L56.4308 56.421Z" fill="#45404A"/>
<path d="M63.2027 58.9654C62.7972 58.9788 62.4509 59.0122 62.1641 59.0658C61.8805 59.1159 61.648 59.1829 61.4667 59.2665C61.2886 59.3501 61.1584 59.4488 61.0759 59.5626C60.9968 59.6763 60.9572 59.8035 60.9572 59.944C60.9572 60.0778 60.9787 60.1933 61.0215 60.2903C61.0644 60.3873 61.1221 60.4676 61.1946 60.5312C61.2705 60.5914 61.3579 60.6366 61.4568 60.6667C61.559 60.6934 61.6678 60.7068 61.7832 60.7068C61.9382 60.7068 62.08 60.6918 62.2086 60.6617C62.3372 60.6282 62.4575 60.5814 62.5696 60.5211C62.6851 60.4609 62.7939 60.389 62.8961 60.3053C63.0016 60.2217 63.1038 60.1263 63.2027 60.0193V58.9654ZM60.3587 56.8877C60.6357 56.6167 60.9341 56.4143 61.254 56.2805C61.5738 56.1466 61.9283 56.0797 62.3174 56.0797C62.5977 56.0797 62.8466 56.1266 63.0643 56.2202C63.2819 56.3139 63.4649 56.4444 63.6133 56.6117C63.7617 56.779 63.8738 56.9814 63.9496 57.2189C64.0254 57.4565 64.0634 57.7174 64.0634 58.0018V61.2538H63.6726C63.5869 61.2538 63.5209 61.2405 63.4748 61.2137C63.4286 61.1836 63.3923 61.1267 63.366 61.0431L63.267 60.5613C63.1351 60.6851 63.0065 60.7955 62.8812 60.8925C62.7559 60.9862 62.6241 61.0665 62.4856 61.1334C62.3471 61.197 62.1987 61.2455 62.0404 61.2789C61.8854 61.3157 61.7123 61.3341 61.5211 61.3341C61.3265 61.3341 61.1435 61.3074 60.9721 61.2538C60.8006 61.197 60.6506 61.1133 60.522 61.0029C60.3967 60.8925 60.2961 60.7537 60.2203 60.5864C60.1477 60.4157 60.1114 60.215 60.1114 59.9842C60.1114 59.7834 60.1658 59.591 60.2747 59.407C60.3835 59.2197 60.5599 59.054 60.8039 58.9102C61.0479 58.7663 61.3661 58.6492 61.7585 58.5589C62.1509 58.4652 62.6323 58.4117 63.2027 58.3983V58.0018C63.2027 57.607 63.1187 57.3093 62.9505 57.1085C62.7823 56.9044 62.5367 56.8024 62.2135 56.8024C61.9959 56.8024 61.8129 56.8308 61.6645 56.8877C61.5194 56.9412 61.3925 57.0031 61.2837 57.0734C61.1781 57.1403 61.0858 57.2022 61.0067 57.2591C60.9308 57.3126 60.855 57.3394 60.7792 57.3394C60.7198 57.3394 60.6687 57.3243 60.6258 57.2942C60.583 57.2608 60.5467 57.2206 60.517 57.1738L60.3587 56.8877Z" fill="#45404A"/>
<path d="M70.0191 58.5438V56.7723H69.1783C68.9904 56.7723 68.8321 56.8007 68.7035 56.8576C68.5749 56.9111 68.471 56.9814 68.3919 57.0684C68.316 57.152 68.2616 57.2474 68.2287 57.3544C68.1957 57.4581 68.1792 57.5619 68.1792 57.6656C68.1792 57.9399 68.2781 58.1557 68.476 58.313C68.6738 58.4669 68.9442 58.5438 69.2871 58.5438H70.0191ZM70.86 56.1701V61.2538H70.0191V59.1109H69.6333C69.541 59.1109 69.4635 59.1193 69.4009 59.136C69.3415 59.1494 69.2888 59.1695 69.2426 59.1962C69.1997 59.223 69.1618 59.2581 69.1288 59.3016C69.0959 59.3418 69.0612 59.3886 69.025 59.4421L67.9269 60.9427C67.8709 61.0498 67.8016 61.1284 67.7192 61.1786C67.6401 61.2288 67.523 61.2538 67.368 61.2538H66.7547L68.2089 59.3368C68.3276 59.136 68.4842 59.0022 68.6787 58.9353C68.4249 58.9018 68.2105 58.8416 68.0358 58.7546C67.861 58.6676 67.7176 58.5656 67.6054 58.4485C67.4966 58.328 67.4175 58.1959 67.368 58.052C67.3186 57.9081 67.2938 57.7626 67.2938 57.6154C67.2938 57.4414 67.3268 57.2674 67.3928 57.0935C67.462 56.9195 67.5708 56.7656 67.7192 56.6318C67.8676 56.4946 68.0588 56.3842 68.293 56.3005C68.5304 56.2135 68.8172 56.1701 69.1536 56.1701H70.86Z" fill="#45404A"/>
<path d="M81.9988 56.8526H79.6346V61.2538H78.7492V56.1701H81.9988V56.8526Z" fill="#45404A"/>
<path d="M86.6844 56.0898C87.0504 56.0898 87.3802 56.1516 87.6736 56.2754C87.9671 56.3992 88.2177 56.5749 88.4254 56.8024C88.6332 57.0299 88.7915 57.3059 88.9003 57.6305C89.0124 57.9516 89.0684 58.3113 89.0684 58.7094C89.0684 59.1109 89.0124 59.4723 88.9003 59.7934C88.7915 60.1146 88.6332 60.389 88.4254 60.6165C88.2177 60.844 87.9671 61.0196 87.6736 61.1434C87.3802 61.2639 87.0504 61.3241 86.6844 61.3241C86.3151 61.3241 85.9821 61.2639 85.6853 61.1434C85.3918 61.0196 85.1413 60.844 84.9335 60.6165C84.7258 60.389 84.5658 60.1146 84.4537 59.7934C84.3449 59.4723 84.2905 59.1109 84.2905 58.7094C84.2905 58.3113 84.3449 57.9516 84.4537 57.6305C84.5658 57.3059 84.7258 57.0299 84.9335 56.8024C85.1413 56.5749 85.3918 56.3992 85.6853 56.2754C85.9821 56.1516 86.3151 56.0898 86.6844 56.0898ZM86.6844 60.6265C87.179 60.6265 87.5483 60.4592 87.7923 60.1247C88.0364 59.7868 88.1584 59.3167 88.1584 58.7145C88.1584 58.1089 88.0364 57.6371 87.7923 57.2992C87.5483 56.9613 87.179 56.7924 86.6844 56.7924C86.4338 56.7924 86.2145 56.8358 86.0266 56.9228C85.8419 57.0098 85.687 57.1353 85.5617 57.2992C85.4397 57.4632 85.3473 57.6656 85.2847 57.9065C85.2253 58.144 85.1956 58.4133 85.1956 58.7145C85.1956 59.3167 85.3176 59.7868 85.5617 60.1247C85.809 60.4592 86.1832 60.6265 86.6844 60.6265Z" fill="#45404A"/>
<path d="M93.0489 60.0293C93.2104 60.2501 93.3869 60.4057 93.5781 60.496C93.7694 60.5864 93.9837 60.6315 94.2211 60.6315C94.6893 60.6315 95.0487 60.4626 95.2993 60.1247C95.5499 59.7868 95.6752 59.305 95.6752 58.6793C95.6752 58.3481 95.6456 58.0637 95.5862 57.8262C95.5302 57.5886 95.4477 57.3946 95.3389 57.244C95.2301 57.0901 95.0965 56.978 94.9383 56.9078C94.78 56.8375 94.6003 56.8024 94.3992 56.8024C94.1123 56.8024 93.86 56.8693 93.6424 57.0031C93.4281 57.137 93.2302 57.326 93.0489 57.5702V60.0293ZM93.0044 56.958C93.2154 56.6937 93.4594 56.4812 93.7364 56.3206C94.0134 56.16 94.3299 56.0797 94.686 56.0797C94.9762 56.0797 95.2383 56.1366 95.4725 56.2503C95.7066 56.3608 95.9061 56.5264 96.0709 56.7472C96.2358 56.9647 96.3628 57.2357 96.4518 57.5602C96.5408 57.8847 96.5853 58.2578 96.5853 58.6793C96.5853 59.054 96.5359 59.4037 96.4369 59.7282C96.338 60.0494 96.1946 60.3288 96.0066 60.5663C95.822 60.8005 95.5945 60.9862 95.3241 61.1234C95.057 61.2572 94.7553 61.3241 94.4189 61.3241C94.1123 61.3241 93.8485 61.2723 93.6276 61.1685C93.4099 61.0615 93.217 60.9143 93.0489 60.7269V62.9752H92.1635V56.1701H92.6928C92.8181 56.1701 92.8955 56.2319 92.9252 56.3557L93.0044 56.958Z" fill="#45404A"/>
<path d="M101.789 56.0898C102.155 56.0898 102.485 56.1516 102.779 56.2754C103.072 56.3992 103.323 56.5749 103.53 56.8024C103.738 57.0299 103.896 57.3059 104.005 57.6305C104.117 57.9516 104.173 58.3113 104.173 58.7094C104.173 59.1109 104.117 59.4723 104.005 59.7934C103.896 60.1146 103.738 60.389 103.53 60.6165C103.323 60.844 103.072 61.0196 102.779 61.1434C102.485 61.2639 102.155 61.3241 101.789 61.3241C101.42 61.3241 101.087 61.2639 100.79 61.1434C100.497 61.0196 100.246 60.844 100.038 60.6165C99.8307 60.389 99.6707 60.1146 99.5586 59.7934C99.4498 59.4723 99.3954 59.1109 99.3954 58.7094C99.3954 58.3113 99.4498 57.9516 99.5586 57.6305C99.6707 57.3059 99.8307 57.0299 100.038 56.8024C100.246 56.5749 100.497 56.3992 100.79 56.2754C101.087 56.1516 101.42 56.0898 101.789 56.0898ZM101.789 60.6265C102.284 60.6265 102.653 60.4592 102.897 60.1247C103.141 59.7868 103.263 59.3167 103.263 58.7145C103.263 58.1089 103.141 57.6371 102.897 57.2992C102.653 56.9613 102.284 56.7924 101.789 56.7924C101.539 56.7924 101.319 56.8358 101.131 56.9228C100.947 57.0098 100.792 57.1353 100.667 57.2992C100.545 57.4632 100.452 57.6656 100.39 57.9065C100.33 58.144 100.301 58.4133 100.301 58.7145C100.301 59.3167 100.423 59.7868 100.667 60.1247C100.914 60.4592 101.288 60.6265 101.789 60.6265Z" fill="#45404A"/>
<path d="M110.537 60.6014V56.8726H108.95C108.917 57.3946 108.87 57.8563 108.811 58.2578C108.752 58.6593 108.682 59.0122 108.603 59.3167C108.527 59.6178 108.442 59.8737 108.346 60.0845C108.254 60.2953 108.157 60.4676 108.054 60.6014H110.537ZM112.308 60.5763V62.7293C112.308 62.8163 112.283 62.8832 112.234 62.93C112.188 62.9802 112.127 63.0053 112.051 63.0053H111.512V61.2538H107.298V62.7494C107.298 62.8129 107.278 62.8715 107.238 62.925C107.202 62.9786 107.141 63.0053 107.055 63.0053H106.501V60.6014H106.664C106.78 60.6014 106.894 60.5814 107.006 60.5412C107.121 60.5011 107.232 60.4258 107.337 60.3154C107.443 60.2016 107.542 60.0427 107.634 59.8386C107.729 59.6345 107.815 59.3685 107.891 59.0407C107.967 58.7128 108.033 58.3146 108.089 57.8462C108.145 57.3745 108.189 56.8158 108.222 56.1701H111.393V60.5763H112.308Z" fill="#45404A"/>
<path d="M118.578 57.0734C118.552 57.1102 118.526 57.1386 118.499 57.1587C118.473 57.1788 118.437 57.1888 118.39 57.1888C118.341 57.1888 118.286 57.1687 118.227 57.1286C118.168 57.0851 118.094 57.0383 118.005 56.9881C117.919 56.9379 117.812 56.8927 117.683 56.8526C117.558 56.8091 117.403 56.7873 117.218 56.7873C116.971 56.7873 116.753 56.8325 116.565 56.9228C116.377 57.0098 116.219 57.137 116.09 57.3042C115.965 57.4715 115.87 57.6739 115.804 57.9115C115.741 58.149 115.71 58.415 115.71 58.7094C115.71 59.0172 115.744 59.2916 115.813 59.5325C115.883 59.77 115.98 59.9708 116.105 60.1347C116.234 60.2953 116.387 60.4191 116.565 60.5061C116.747 60.5897 116.949 60.6315 117.174 60.6315C117.388 60.6315 117.564 60.6065 117.703 60.5563C117.841 60.5027 117.955 60.4442 118.044 60.3806C118.136 60.3171 118.212 60.2602 118.272 60.21C118.334 60.1565 118.395 60.1297 118.455 60.1297C118.527 60.1297 118.583 60.1581 118.623 60.215L118.87 60.5412C118.761 60.6784 118.638 60.7955 118.499 60.8925C118.361 60.9895 118.211 61.0715 118.049 61.1384C117.891 61.202 117.724 61.2488 117.55 61.2789C117.375 61.3091 117.197 61.3241 117.015 61.3241C116.702 61.3241 116.41 61.2656 116.14 61.1485C115.873 61.0314 115.64 60.8624 115.442 60.6416C115.245 60.4174 115.09 60.1431 114.978 59.8185C114.865 59.494 114.809 59.1243 114.809 58.7094C114.809 58.3314 114.86 57.9817 114.963 57.6606C115.068 57.3394 115.22 57.0634 115.418 56.8325C115.619 56.5983 115.865 56.416 116.155 56.2855C116.448 56.155 116.785 56.0898 117.164 56.0898C117.517 56.0898 117.826 56.1483 118.094 56.2654C118.364 56.3792 118.603 56.5414 118.811 56.7522L118.578 57.0734Z" fill="#45404A"/>
<path d="M124.835 56.421C124.882 56.3474 124.943 56.2871 125.018 56.2403C125.094 56.1935 125.175 56.1701 125.261 56.1701H125.948L124.648 58.1072C124.568 58.231 124.486 58.333 124.4 58.4133C124.314 58.4903 124.209 58.5505 124.084 58.594C124.242 58.6375 124.376 58.7061 124.484 58.7998C124.593 58.8901 124.69 59.0072 124.776 59.1511L126.092 61.2538H125.478C125.32 61.2538 125.198 61.2271 125.112 61.1736C125.027 61.12 124.953 61.0431 124.89 60.9427L123.916 59.3619C123.761 59.1009 123.528 58.9704 123.218 58.9704H122.679V61.2589H121.794V56.1701H122.679V58.3682H123.154C123.418 58.3682 123.624 58.2544 123.772 58.0269L124.835 56.421Z" fill="#45404A"/>
<path d="M131.607 58.9654C131.202 58.9788 130.856 59.0122 130.569 59.0658C130.285 59.1159 130.053 59.1829 129.871 59.2665C129.693 59.3501 129.563 59.4488 129.481 59.5626C129.402 59.6763 129.362 59.8035 129.362 59.944C129.362 60.0778 129.383 60.1933 129.426 60.2903C129.469 60.3873 129.527 60.4676 129.599 60.5312C129.675 60.5914 129.763 60.6366 129.861 60.6667C129.964 60.6934 130.073 60.7068 130.188 60.7068C130.343 60.7068 130.485 60.6918 130.613 60.6617C130.742 60.6282 130.862 60.5814 130.974 60.5211C131.09 60.4609 131.199 60.389 131.301 60.3053C131.406 60.2217 131.509 60.1263 131.607 60.0193V58.9654ZM128.763 56.8877C129.04 56.6167 129.339 56.4143 129.659 56.2805C129.979 56.1466 130.333 56.0797 130.722 56.0797C131.002 56.0797 131.251 56.1266 131.469 56.2202C131.687 56.3139 131.87 56.4444 132.018 56.6117C132.166 56.779 132.278 56.9814 132.354 57.2189C132.43 57.4565 132.468 57.7174 132.468 58.0018V61.2538H132.077C131.992 61.2538 131.926 61.2405 131.879 61.2137C131.833 61.1836 131.797 61.1267 131.771 61.0431L131.672 60.5613C131.54 60.6851 131.411 60.7955 131.286 60.8925C131.161 60.9862 131.029 61.0665 130.89 61.1334C130.752 61.197 130.603 61.2455 130.445 61.2789C130.29 61.3157 130.117 61.3341 129.926 61.3341C129.731 61.3341 129.548 61.3074 129.377 61.2538C129.205 61.197 129.055 61.1133 128.927 61.0029C128.801 60.8925 128.701 60.7537 128.625 60.5864C128.552 60.4157 128.516 60.215 128.516 59.9842C128.516 59.7834 128.571 59.591 128.679 59.407C128.788 59.2197 128.965 59.054 129.209 58.9102C129.453 58.7663 129.771 58.6492 130.163 58.5589C130.556 58.4652 131.037 58.4117 131.607 58.3983V58.0018C131.607 57.607 131.523 57.3093 131.355 57.1085C131.187 56.9044 130.941 56.8024 130.618 56.8024C130.401 56.8024 130.218 56.8308 130.069 56.8877C129.924 56.9412 129.797 57.0031 129.688 57.0734C129.583 57.1403 129.491 57.2022 129.411 57.2591C129.336 57.3126 129.26 57.3394 129.184 57.3394C129.125 57.3394 129.073 57.3243 129.031 57.2942C128.988 57.2608 128.951 57.2206 128.922 57.1738L128.763 56.8877Z" fill="#45404A"/>
<path d="M138.424 58.5438V56.7723H137.583C137.395 56.7723 137.237 56.8007 137.108 56.8576C136.98 56.9111 136.876 56.9814 136.797 57.0684C136.721 57.152 136.666 57.2474 136.633 57.3544C136.6 57.4581 136.584 57.5619 136.584 57.6656C136.584 57.9399 136.683 58.1557 136.881 58.313C137.079 58.4669 137.349 58.5438 137.692 58.5438H138.424ZM139.265 56.1701V61.2538H138.424V59.1109H138.038C137.946 59.1109 137.868 59.1193 137.806 59.136C137.746 59.1494 137.693 59.1695 137.647 59.1962C137.604 59.223 137.567 59.2581 137.534 59.3016C137.501 59.3418 137.466 59.3886 137.43 59.4421L136.332 60.9427C136.276 61.0498 136.206 61.1284 136.124 61.1786C136.045 61.2288 135.928 61.2538 135.773 61.2538H135.159L136.614 59.3368C136.732 59.136 136.889 59.0022 137.083 58.9353C136.83 58.9018 136.615 58.8416 136.44 58.7546C136.266 58.6676 136.122 58.5656 136.01 58.4485C135.901 58.328 135.822 58.1959 135.773 58.052C135.723 57.9081 135.699 57.7626 135.699 57.6154C135.699 57.4414 135.732 57.2674 135.797 57.0935C135.867 56.9195 135.976 56.7656 136.124 56.6318C136.272 56.4946 136.464 56.3842 136.698 56.3005C136.935 56.2135 137.222 56.1701 137.558 56.1701H139.265Z" fill="#45404A"/>
<path d="M3.04207 67.2945C3.08823 67.2209 3.14924 67.1607 3.22508 67.1139C3.30092 67.067 3.3817 67.0436 3.46743 67.0436H4.15494L2.85412 68.9808C2.77498 69.1045 2.69255 69.2066 2.60681 69.2869C2.52108 69.3638 2.41557 69.4241 2.29027 69.4676C2.44854 69.511 2.58208 69.5796 2.6909 69.6733C2.79971 69.7636 2.89698 69.8807 2.98272 70.0246L4.29837 72.1274H3.68506C3.52679 72.1274 3.40478 72.1006 3.31905 72.0471C3.23332 71.9936 3.15913 71.9166 3.09648 71.8162L2.1221 70.2354C1.96712 69.9744 1.73466 69.8439 1.4247 69.8439H0.885578V72.1324H0.000228882V67.0436H0.885578V69.2417H1.3604C1.62419 69.2417 1.83028 69.128 1.97866 68.9005L3.04207 67.2945Z" fill="#45404A"/>
<path d="M9.0174 66.9633C9.38341 66.9633 9.71315 67.0252 10.0066 67.149C10.3001 67.2728 10.5507 67.4484 10.7584 67.6759C10.9662 67.9034 11.1244 68.1795 11.2332 68.504C11.3454 68.8252 11.4014 69.1848 11.4014 69.583C11.4014 69.9845 11.3454 70.3458 11.2332 70.667C11.1244 70.9882 10.9662 71.2625 10.7584 71.49C10.5507 71.7175 10.3001 71.8932 10.0066 72.017C9.71315 72.1374 9.38341 72.1976 9.0174 72.1976C8.64809 72.1976 8.31506 72.1374 8.01829 72.017C7.72483 71.8932 7.47422 71.7175 7.26649 71.49C7.05875 71.2625 6.89883 70.9882 6.78672 70.667C6.6779 70.3458 6.6235 69.9845 6.6235 69.583C6.6235 69.1848 6.6779 68.8252 6.78672 68.504C6.89883 68.1795 7.05875 67.9034 7.26649 67.6759C7.47422 67.4484 7.72483 67.2728 8.01829 67.149C8.31506 67.0252 8.64809 66.9633 9.0174 66.9633ZM9.0174 71.5001C9.51201 71.5001 9.88132 71.3328 10.1253 70.9982C10.3693 70.6603 10.4913 70.1902 10.4913 69.588C10.4913 68.9824 10.3693 68.5107 10.1253 68.1728C9.88132 67.8349 9.51201 67.6659 9.0174 67.6659C8.7668 67.6659 8.54752 67.7094 8.35957 67.7964C8.17492 67.8834 8.01994 68.0088 7.89464 68.1728C7.77264 68.3367 7.68031 68.5391 7.61766 68.78C7.55831 69.0176 7.52863 69.2869 7.52863 69.588C7.52863 70.1902 7.65063 70.6603 7.89464 70.9982C8.14194 71.3328 8.5162 71.5001 9.0174 71.5001Z" fill="#45404A"/>
<path d="M18.7437 72.1274H17.8633V67.7462H16.2806C16.241 68.3919 16.1816 68.9506 16.1025 69.4224C16.0234 69.8908 15.9277 70.2906 15.8156 70.6218C15.7068 70.9497 15.5832 71.2174 15.4447 71.4248C15.3095 71.6289 15.1661 71.7878 15.0144 71.9016C14.866 72.0153 14.711 72.0923 14.5494 72.1324C14.3912 72.1726 14.2329 72.1926 14.0746 72.1926C13.7943 72.1926 13.6542 72.1475 13.6542 72.0571V71.49H13.9114C14.0235 71.49 14.1373 71.47 14.2527 71.4298C14.3681 71.3897 14.4802 71.3127 14.589 71.199C14.7011 71.0852 14.8083 70.9263 14.9105 70.7222C15.0127 70.5148 15.1051 70.2471 15.1875 69.9192C15.2732 69.588 15.3458 69.1882 15.4051 68.7198C15.4678 68.248 15.5156 67.6893 15.5485 67.0436H18.7437V72.1274Z" fill="#45404A"/>
<path d="M26.5087 72.1274H25.6283V67.7462H24.0455C24.006 68.3919 23.9466 68.9506 23.8675 69.4224C23.7883 69.8908 23.6927 70.2906 23.5806 70.6218C23.4718 70.9497 23.3481 71.2174 23.2096 71.4248C23.0745 71.6289 22.931 71.7878 22.7793 71.9016C22.631 72.0153 22.476 72.0923 22.3144 72.1324C22.1561 72.1726 21.9979 72.1926 21.8396 72.1926C21.5593 72.1926 21.4192 72.1475 21.4192 72.0571V71.49H21.6764C21.7885 71.49 21.9022 71.47 22.0176 71.4298C22.133 71.3897 22.2452 71.3127 22.354 71.199C22.4661 71.0852 22.5732 70.9263 22.6755 70.7222C22.7777 70.5148 22.87 70.2471 22.9524 69.9192C23.0382 69.588 23.1107 69.1882 23.1701 68.7198C23.2327 68.248 23.2805 67.6893 23.3135 67.0436H26.5087V72.1274Z" fill="#45404A"/>
<path d="M33.235 69.0309C33.235 68.8235 33.2053 68.6345 33.1459 68.4638C33.0899 68.2899 33.0058 68.141 32.8937 68.0172C32.7849 67.8901 32.6513 67.793 32.4931 67.7261C32.3348 67.6559 32.1551 67.6207 31.9539 67.6207C31.5319 67.6207 31.1972 67.7462 30.9499 67.9971C30.7059 68.2447 30.5542 68.5893 30.4948 69.0309H33.235ZM33.9472 71.4148C33.8384 71.5486 33.7081 71.6657 33.5565 71.7661C33.4048 71.8631 33.2416 71.9434 33.0668 72.0069C32.8953 72.0705 32.7173 72.1174 32.5326 72.1475C32.348 72.1809 32.165 72.1976 31.9836 72.1976C31.6374 72.1976 31.3175 72.1391 31.0241 72.022C30.7339 71.9016 30.4816 71.7276 30.2673 71.5001C30.0563 71.2692 29.8914 70.9848 29.7727 70.6469C29.654 70.309 29.5947 69.9209 29.5947 69.4826C29.5947 69.128 29.6474 68.7967 29.7529 68.4889C29.8617 68.1811 30.0167 67.9151 30.2179 67.691C30.419 67.4635 30.6647 67.2862 30.9548 67.159C31.245 67.0285 31.5714 66.9633 31.9341 66.9633C32.2342 66.9633 32.5112 67.0152 32.7651 67.1189C33.0223 67.2192 33.2432 67.3665 33.4279 67.5605C33.6158 67.7512 33.7626 67.9888 33.8681 68.2731C33.9736 68.5542 34.0263 68.8754 34.0263 69.2367C34.0263 69.3772 34.0115 69.4709 33.9818 69.5177C33.9521 69.5646 33.8961 69.588 33.8137 69.588H30.4652C30.4751 69.9092 30.5179 70.1886 30.5938 70.4261C30.6729 70.6636 30.7817 70.8627 30.9202 71.0233C31.0587 71.1806 31.2236 71.2993 31.4148 71.3796C31.6061 71.4566 31.8204 71.4951 32.0578 71.4951C32.2787 71.4951 32.4683 71.47 32.6266 71.4198C32.7882 71.3662 32.9267 71.3094 33.0421 71.2491C33.1575 71.1889 33.2531 71.1337 33.3289 71.0835C33.4081 71.03 33.4757 71.0032 33.5317 71.0032C33.6043 71.0032 33.6603 71.0317 33.6999 71.0885L33.9472 71.4148Z" fill="#45404A"/>
<path d="M40.3358 67.7261H37.9715V72.1274H37.0862V67.0436H40.3358V67.7261Z" fill="#45404A"/>
<path d="M47.4491 67.0436V72.1274H46.5687V68.6746C46.5687 68.6077 46.572 68.5358 46.5786 68.4588C46.5852 68.3819 46.5934 68.3049 46.6033 68.228C46.5736 68.2949 46.5439 68.3568 46.5143 68.4137C46.4846 68.4705 46.4533 68.5224 46.4203 68.5692L44.0017 71.9066C43.9654 71.9601 43.9192 72.012 43.8632 72.0621C43.8104 72.109 43.7511 72.1324 43.6851 72.1324H43.1509V67.0486H44.0363V70.5014C44.0363 70.5649 44.033 70.6352 44.0264 70.7122C44.0198 70.7858 44.0116 70.861 44.0017 70.938C44.0313 70.8744 44.061 70.8159 44.0907 70.7623C44.1204 70.7055 44.15 70.6536 44.1797 70.6068L46.5984 67.2694C46.6346 67.2159 46.6808 67.1657 46.7368 67.1189C46.7929 67.0687 46.8539 67.0436 46.9198 67.0436H47.4491Z" fill="#45404A"/>
<path d="M53.4556 69.4174V67.6458H52.6147C52.4268 67.6458 52.2685 67.6743 52.1399 67.7311C52.0113 67.7847 51.9074 67.8549 51.8283 67.9419C51.7525 68.0256 51.6981 68.1209 51.6651 68.228C51.6321 68.3317 51.6156 68.4354 51.6156 68.5391C51.6156 68.8135 51.7145 69.0293 51.9124 69.1865C52.1102 69.3404 52.3806 69.4174 52.7235 69.4174H53.4556ZM54.2964 67.0436V72.1274H53.4556V69.9845H53.0698C52.9774 69.9845 52.9 69.9928 52.8373 70.0096C52.7779 70.0229 52.7252 70.043 52.679 70.0698C52.6362 70.0965 52.5982 70.1317 52.5653 70.1752C52.5323 70.2153 52.4977 70.2622 52.4614 70.3157L51.3634 71.8162C51.3073 71.9233 51.2381 72.0019 51.1556 72.0521C51.0765 72.1023 50.9594 72.1274 50.8045 72.1274H50.1911L51.6453 70.2103C51.764 70.0096 51.9206 69.8757 52.1152 69.8088C51.8613 69.7754 51.6469 69.7151 51.4722 69.6281C51.2974 69.5412 51.154 69.4391 51.0419 69.322C50.9331 69.2016 50.8539 69.0694 50.8045 68.9255C50.755 68.7817 50.7303 68.6361 50.7303 68.4889C50.7303 68.315 50.7632 68.141 50.8292 67.967C50.8984 67.793 51.0072 67.6391 51.1556 67.5053C51.304 67.3681 51.4953 67.2577 51.7294 67.1741C51.9668 67.0871 52.2537 67.0436 52.59 67.0436H54.2964Z" fill="#45404A"/>
<path d="M64.901 69.8389C64.4954 69.8523 64.1492 69.8858 63.8623 69.9393C63.5788 69.9895 63.3463 70.0564 63.165 70.14C62.9869 70.2237 62.8566 70.3224 62.7742 70.4361C62.6951 70.5499 62.6555 70.677 62.6555 70.8175C62.6555 70.9514 62.6769 71.0668 62.7198 71.1638C62.7627 71.2609 62.8204 71.3411 62.8929 71.4047C62.9688 71.4649 63.0561 71.5101 63.1551 71.5402C63.2573 71.567 63.3661 71.5804 63.4815 71.5804C63.6365 71.5804 63.7783 71.5653 63.9069 71.5352C64.0355 71.5017 64.1558 71.4549 64.2679 71.3947C64.3833 71.3345 64.4921 71.2625 64.5944 71.1789C64.6999 71.0952 64.8021 70.9999 64.901 70.8928V69.8389ZM62.057 67.7612C62.334 67.4902 62.6324 67.2878 62.9523 67.154C63.2721 67.0202 63.6266 66.9533 64.0157 66.9533C64.296 66.9533 64.5449 67.0001 64.7625 67.0938C64.9802 67.1875 65.1632 67.3179 65.3116 67.4852C65.4599 67.6525 65.572 67.8549 65.6479 68.0925C65.7237 68.33 65.7616 68.591 65.7616 68.8754V72.1274H65.3709C65.2852 72.1274 65.2192 72.114 65.1731 72.0872C65.1269 72.0571 65.0906 72.0003 65.0642 71.9166L64.9653 71.4348C64.8334 71.5586 64.7048 71.669 64.5795 71.7661C64.4542 71.8597 64.3223 71.94 64.1838 72.0069C64.0454 72.0705 63.897 72.119 63.7387 72.1525C63.5837 72.1893 63.4106 72.2077 63.2194 72.2077C63.0248 72.2077 62.8418 72.1809 62.6703 72.1274C62.4989 72.0705 62.3488 71.9869 62.2202 71.8765C62.0949 71.7661 61.9944 71.6272 61.9185 71.4599C61.846 71.2893 61.8097 71.0885 61.8097 70.8577C61.8097 70.657 61.8641 70.4646 61.9729 70.2806C62.0818 70.0932 62.2582 69.9276 62.5022 69.7837C62.7462 69.6399 63.0644 69.5228 63.4568 69.4324C63.8492 69.3387 64.3306 69.2852 64.901 69.2718V68.8754C64.901 68.4806 64.8169 68.1828 64.6488 67.9821C64.4806 67.778 64.235 67.6759 63.9118 67.6759C63.6942 67.6759 63.5112 67.7044 63.3628 67.7612C63.2177 67.8148 63.0908 67.8767 62.9819 67.9469C62.8764 68.0138 62.7841 68.0757 62.705 68.1326C62.6291 68.1861 62.5533 68.2129 62.4774 68.2129C62.4181 68.2129 62.367 68.1979 62.3241 68.1677C62.2812 68.1343 62.245 68.0941 62.2153 68.0473L62.057 67.7612Z" fill="#45404A"/>
<path d="M72.5335 71.475V67.7462H70.9458C70.9129 68.2681 70.8667 68.7298 70.8074 69.1313C70.748 69.5328 70.6787 69.8858 70.5996 70.1902C70.5238 70.4913 70.438 70.7473 70.3424 70.9581C70.2501 71.1688 70.1528 71.3411 70.0506 71.475H72.5335ZM74.3042 71.4499V73.6028C74.3042 73.6898 74.2795 73.7567 74.23 73.8036C74.1839 73.8538 74.1229 73.8789 74.047 73.8789H73.5079V72.1274H69.2938V73.6229C69.2938 73.6865 69.2741 73.745 69.2345 73.7986C69.1982 73.8521 69.1372 73.8789 69.0515 73.8789H68.4975V71.475H68.6607C68.7762 71.475 68.8899 71.4549 69.002 71.4148C69.1174 71.3746 69.2279 71.2993 69.3334 71.1889C69.4389 71.0752 69.5378 70.9162 69.6302 70.7122C69.7258 70.5081 69.8115 70.2421 69.8874 69.9142C69.9632 69.5863 70.0292 69.1882 70.0852 68.7198C70.1413 68.248 70.1858 67.6893 70.2188 67.0436H73.3892V71.4499H74.3042Z" fill="#45404A"/>
<path d="M79.0986 71.5001C79.4283 71.5001 79.6888 71.4231 79.8801 71.2692C80.0713 71.112 80.167 70.8978 80.167 70.6268C80.167 70.5064 80.1488 70.3977 80.1125 70.3006C80.0763 70.2003 80.0169 70.1133 79.9345 70.0397C79.8521 69.9661 79.7416 69.9092 79.6031 69.869C79.4679 69.8289 79.3014 69.8088 79.1035 69.8088H78.0204V71.5001H79.0986ZM78.0204 67.6458V69.2417H78.9848C79.1299 69.2417 79.2635 69.2216 79.3855 69.1815C79.5108 69.138 79.6179 69.0795 79.707 69.0058C79.796 68.9289 79.8652 68.8386 79.9147 68.7348C79.9642 68.6278 79.9889 68.5107 79.9889 68.3835C79.9889 68.2899 79.9724 68.1995 79.9394 68.1125C79.9065 68.0222 79.8504 67.9436 79.7713 67.8767C79.6921 67.8064 79.5883 67.7512 79.4597 67.7111C79.3311 67.6676 79.1728 67.6458 78.9848 67.6458H78.0204ZM79.0096 67.0436C79.3195 67.0436 79.585 67.0754 79.8059 67.1389C80.0268 67.2025 80.2082 67.2895 80.35 67.3999C80.4917 67.507 80.5956 67.6341 80.6616 67.7813C80.7275 67.9285 80.7605 68.0858 80.7605 68.2531C80.7605 68.3635 80.7456 68.4789 80.716 68.5993C80.6863 68.7198 80.6335 68.8352 80.5577 68.9456C80.4852 69.056 80.3846 69.1564 80.256 69.2467C80.1307 69.3337 79.9724 69.4023 79.7812 69.4525C80.1637 69.5194 80.4588 69.6549 80.6665 69.859C80.8742 70.0597 80.9781 70.3257 80.9781 70.657C80.9781 70.9045 80.9286 71.1203 80.8297 71.3043C80.7341 71.485 80.6006 71.6372 80.4291 71.761C80.2609 71.8848 80.0631 71.9768 79.8356 72.0371C79.608 72.0973 79.364 72.1274 79.1035 72.1274H77.1746V67.0436H79.0096Z" fill="#45404A"/>
<path d="M86.1724 66.9633C86.5384 66.9633 86.8682 67.0252 87.1616 67.149C87.4551 67.2728 87.7057 67.4484 87.9135 67.6759C88.1212 67.9034 88.2795 68.1795 88.3883 68.504C88.5004 68.8252 88.5564 69.1848 88.5564 69.583C88.5564 69.9845 88.5004 70.3458 88.3883 70.667C88.2795 70.9882 88.1212 71.2625 87.9135 71.49C87.7057 71.7175 87.4551 71.8932 87.1616 72.017C86.8682 72.1374 86.5384 72.1976 86.1724 72.1976C85.8031 72.1976 85.4701 72.1374 85.1733 72.017C84.8798 71.8932 84.6292 71.7175 84.4215 71.49C84.2138 71.2625 84.0539 70.9882 83.9417 70.667C83.8329 70.3458 83.7785 69.9845 83.7785 69.583C83.7785 69.1848 83.8329 68.8252 83.9417 68.504C84.0539 68.1795 84.2138 67.9034 84.4215 67.6759C84.6292 67.4484 84.8798 67.2728 85.1733 67.149C85.4701 67.0252 85.8031 66.9633 86.1724 66.9633ZM86.1724 71.5001C86.667 71.5001 87.0363 71.3328 87.2803 70.9982C87.5244 70.6603 87.6464 70.1902 87.6464 69.588C87.6464 68.9824 87.5244 68.5107 87.2803 68.1728C87.0363 67.8349 86.667 67.6659 86.1724 67.6659C85.9218 67.6659 85.7025 67.7094 85.5146 67.7964C85.3299 67.8834 85.175 68.0088 85.0497 68.1728C84.9277 68.3367 84.8353 68.5391 84.7727 68.78C84.7133 69.0176 84.6837 69.2869 84.6837 69.588C84.6837 70.1902 84.8057 70.6603 85.0497 70.9982C85.297 71.3328 85.6712 71.5001 86.1724 71.5001Z" fill="#45404A"/>
<path d="M94.6934 67.2945C94.7395 67.2209 94.8005 67.1607 94.8764 67.1139C94.9522 67.067 95.033 67.0436 95.1187 67.0436H95.8062L94.5054 68.9808C94.4263 69.1045 94.3438 69.2066 94.2581 69.2869C94.1724 69.3638 94.0669 69.4241 93.9416 69.4676C94.0998 69.511 94.2334 69.5796 94.3422 69.6733C94.451 69.7636 94.5483 69.8807 94.634 70.0246L95.9497 72.1274H95.3364C95.1781 72.1274 95.0561 72.1006 94.9704 72.0471C94.8846 71.9936 94.8104 71.9166 94.7478 71.8162L93.7734 70.2354C93.6184 69.9744 93.3859 69.8439 93.076 69.8439H92.5369V72.1324H91.6515V67.0436H92.5369V69.2417H93.0117C93.2755 69.2417 93.4816 69.128 93.63 68.9005L94.6934 67.2945Z" fill="#45404A"/>
<path d="M101.465 69.8389C101.06 69.8523 100.714 69.8858 100.427 69.9393C100.143 69.9895 99.9106 70.0564 99.7293 70.14C99.5512 70.2237 99.4209 70.3224 99.3385 70.4361C99.2594 70.5499 99.2198 70.677 99.2198 70.8175C99.2198 70.9514 99.2412 71.0668 99.2841 71.1638C99.327 71.2609 99.3847 71.3411 99.4572 71.4047C99.5331 71.4649 99.6204 71.5101 99.7194 71.5402C99.8216 71.567 99.9304 71.5804 100.046 71.5804C100.201 71.5804 100.343 71.5653 100.471 71.5352C100.6 71.5017 100.72 71.4549 100.832 71.3947C100.948 71.3345 101.056 71.2625 101.159 71.1789C101.264 71.0952 101.366 70.9999 101.465 70.8928V69.8389ZM98.6213 67.7612C98.8983 67.4902 99.1967 67.2878 99.5166 67.154C99.8364 67.0202 100.191 66.9533 100.58 66.9533C100.86 66.9533 101.109 67.0001 101.327 67.0938C101.544 67.1875 101.727 67.3179 101.876 67.4852C102.024 67.6525 102.136 67.8549 102.212 68.0925C102.288 68.33 102.326 68.591 102.326 68.8754V72.1274H101.935C101.849 72.1274 101.784 72.114 101.737 72.0872C101.691 72.0571 101.655 72.0003 101.629 71.9166L101.53 71.4348C101.398 71.5586 101.269 71.669 101.144 71.7661C101.019 71.8597 100.887 71.94 100.748 72.0069C100.61 72.0705 100.461 72.119 100.303 72.1525C100.148 72.1893 99.9749 72.2077 99.7837 72.2077C99.5891 72.2077 99.4061 72.1809 99.2346 72.1274C99.0632 72.0705 98.9132 71.9869 98.7846 71.8765C98.6593 71.7661 98.5587 71.6272 98.4828 71.4599C98.4103 71.2893 98.374 71.0885 98.374 70.8577C98.374 70.657 98.4284 70.4646 98.5372 70.2806C98.6461 70.0932 98.8225 69.9276 99.0665 69.7837C99.3105 69.6399 99.6287 69.5228 100.021 69.4324C100.413 69.3387 100.895 69.2852 101.465 69.2718V68.8754C101.465 68.4806 101.381 68.1828 101.213 67.9821C101.045 67.778 100.799 67.6759 100.476 67.6759C100.258 67.6759 100.075 67.7044 99.9271 67.7612C99.782 67.8148 99.6551 67.8767 99.5462 67.9469C99.4407 68.0138 99.3484 68.0757 99.2693 68.1326C99.1934 68.1861 99.1176 68.2129 99.0417 68.2129C98.9824 68.2129 98.9313 68.1979 98.8884 68.1677C98.8456 68.1343 98.8093 68.0941 98.7796 68.0473L98.6213 67.7612Z" fill="#45404A"/>
<path d="M109.684 67.7261H107.76V72.1274H106.88V67.7261H104.956V67.0436H109.684V67.7261Z" fill="#45404A"/>
<path d="M114.411 66.9633C114.777 66.9633 115.107 67.0252 115.401 67.149C115.694 67.2728 115.945 67.4484 116.152 67.6759C116.36 67.9034 116.519 68.1795 116.627 68.504C116.739 68.8252 116.795 69.1848 116.795 69.583C116.795 69.9845 116.739 70.3458 116.627 70.667C116.519 70.9882 116.36 71.2625 116.152 71.49C115.945 71.7175 115.694 71.8932 115.401 72.017C115.107 72.1374 114.777 72.1976 114.411 72.1976C114.042 72.1976 113.709 72.1374 113.412 72.017C113.119 71.8932 112.868 71.7175 112.661 71.49C112.453 71.2625 112.293 70.9882 112.181 70.667C112.072 70.3458 112.018 69.9845 112.018 69.583C112.018 69.1848 112.072 68.8252 112.181 68.504C112.293 68.1795 112.453 67.9034 112.661 67.6759C112.868 67.4484 113.119 67.2728 113.412 67.149C113.709 67.0252 114.042 66.9633 114.411 66.9633ZM114.411 71.5001C114.906 71.5001 115.275 71.3328 115.519 70.9982C115.763 70.6603 115.885 70.1902 115.885 69.588C115.885 68.9824 115.763 68.5107 115.519 68.1728C115.275 67.8349 114.906 67.6659 114.411 67.6659C114.161 67.6659 113.942 67.7094 113.754 67.7964C113.569 67.8834 113.414 68.0088 113.289 68.1728C113.167 68.3367 113.074 68.5391 113.012 68.78C112.952 69.0176 112.923 69.2869 112.923 69.588C112.923 70.1902 113.045 70.6603 113.289 70.9982C113.536 71.3328 113.91 71.5001 114.411 71.5001Z" fill="#45404A"/>
<path d="M121.815 71.5001C122.144 71.5001 122.405 71.4231 122.596 71.2692C122.787 71.112 122.883 70.8978 122.883 70.6268C122.883 70.5064 122.865 70.3977 122.829 70.3006C122.792 70.2003 122.733 70.1133 122.65 70.0397C122.568 69.9661 122.458 69.9092 122.319 69.869C122.184 69.8289 122.017 69.8088 121.82 69.8088H120.736V71.5001H121.815ZM120.736 67.6458V69.2417H121.701C121.846 69.2417 121.979 69.2216 122.101 69.1815C122.227 69.138 122.334 69.0795 122.423 69.0058C122.512 68.9289 122.581 68.8386 122.631 68.7348C122.68 68.6278 122.705 68.5107 122.705 68.3835C122.705 68.2899 122.688 68.1995 122.655 68.1125C122.622 68.0222 122.566 67.9436 122.487 67.8767C122.408 67.8064 122.304 67.7512 122.176 67.7111C122.047 67.6676 121.889 67.6458 121.701 67.6458H120.736ZM121.726 67.0436C122.036 67.0436 122.301 67.0754 122.522 67.1389C122.743 67.2025 122.924 67.2895 123.066 67.3999C123.208 67.507 123.312 67.6341 123.378 67.7813C123.443 67.9285 123.476 68.0858 123.476 68.2531C123.476 68.3635 123.462 68.4789 123.432 68.5993C123.402 68.7198 123.35 68.8352 123.274 68.9456C123.201 69.056 123.101 69.1564 122.972 69.2467C122.847 69.3337 122.688 69.4023 122.497 69.4525C122.88 69.5194 123.175 69.6549 123.382 69.859C123.59 70.0597 123.694 70.3257 123.694 70.657C123.694 70.9045 123.645 71.1203 123.546 71.3043C123.45 71.485 123.317 71.6372 123.145 71.761C122.977 71.8848 122.779 71.9768 122.552 72.0371C122.324 72.0973 122.08 72.1274 121.82 72.1274H119.891V67.0436H121.726Z" fill="#45404A"/>
<path d="M0.828201 43.1312L123.708 33.5735C124.414 33.5186 124.84 32.7679 124.527 32.1333L114.395 11.6437V11.1259L128.429 33.5726C128.83 34.2143 128.401 35.0517 127.646 35.1007L0.828201 43.3278V43.1312Z" fill="url(#paint0_linear)"/>
<path d="M3.31507 45.6083L134.285 38.5038C135.041 38.4628 135.479 37.629 135.083 36.9832L121.027 14.0158V13.6029L139.003 38.4406C139.47 39.086 139.032 39.9919 138.236 40.026L3.31507 45.8049V45.6083Z" fill="url(#paint1_linear)"/>
<defs>
<linearGradient id="paint0_linear" x1="-269.345" y1="53.9545" x2="-30.5814" y2="-185.753" gradientUnits="userSpaceOnUse">
<stop stop-color="#A98D7F"/>
<stop offset="1" stop-color="#FFC664"/>
</linearGradient>
<linearGradient id="paint1_linear" x1="-269.345" y1="53.9545" x2="-30.5814" y2="-185.753" gradientUnits="userSpaceOnUse">
<stop stop-color="#A98D7F"/>
<stop offset="1" stop-color="#FFC664"/>
</linearGradient>
</defs>
</svg>
