<svg width="244" height="34" viewBox="0 0 244 34" fill="none" xmlns="http://www.w3.org/2000/svg">
<path d="M67.3367 10.6751C66.7938 11.9997 66.2509 13.3222 65.7456 14.6448C66.2322 14.6448 66.7188 14.6448 67.2244 14.6448C67.1306 14.8925 67.0185 15.1402 66.9248 15.3862C64.9968 15.3882 63.0876 15.3862 61.1782 15.3882C61.2719 15.1421 61.3844 14.8961 61.4778 14.6484C61.9646 14.6465 62.4512 14.6466 62.9565 14.6466C63.387 13.5719 63.8261 12.4983 64.2668 11.4219C64.7057 10.3508 65.134 9.27113 65.5584 8.19384C65.9199 7.27666 66.2698 6.37915 66.6253 5.50935C67.318 4.66615 68.1403 3.99864 69.096 3.51809C70.068 3.02912 71.0427 2.79095 71.9972 2.79095C72.9519 2.79095 73.7038 2.93905 74.2623 3.25245C74.8078 3.55905 75.1778 3.98367 75.3292 4.52894C75.4773 5.06269 75.4179 5.6624 75.1606 6.32025C74.9124 6.95472 74.5656 7.52263 74.0937 8.0601C73.6481 8.56762 73.1209 8.99225 72.5402 9.29191C71.9605 9.59096 71.3795 9.74117 70.7994 9.74117C70.5187 9.74117 70.2967 9.70281 70.1631 9.64466C69.9973 9.57252 69.8031 9.46414 69.5265 9.28462C69.3912 9.19677 69.2644 9.12613 69.2083 9.09062C68.572 9.6198 67.9544 10.1474 67.3367 10.6751ZM67.7486 9.61979C68.3473 9.14381 68.9089 8.66808 69.4705 8.19186C69.5452 8.27587 69.6349 8.35444 69.7326 8.40245C69.8599 8.46493 69.9571 8.48807 70.0318 8.48807C70.3126 8.48807 70.6275 8.32673 70.9866 8.02447C71.3573 7.71193 71.6894 7.13165 72.0159 6.28288C72.3444 5.42929 72.5306 4.7618 72.5028 4.27036C72.4746 3.77792 72.1659 3.53072 71.5856 3.53072C71.155 3.53072 70.7475 3.69057 70.425 3.99221C70.0926 4.30351 69.8069 4.67852 69.5826 5.12443C69.3577 5.57121 69.1152 6.13713 68.8526 6.81231C68.7972 6.95497 68.7404 7.09763 68.6843 7.23831C68.3849 8.03337 68.0854 8.82658 67.7486 9.61979ZM83.2093 2.54844C83.3217 2.54844 83.4003 2.59176 83.434 2.65894C83.4761 2.74245 83.5816 2.89736 83.7336 3.14939C83.9746 3.54964 84.358 4.06014 84.8565 4.69832C85.3686 5.35408 85.7159 6.01464 85.886 6.6767C86.0531 7.32676 85.9423 8.14225 85.5678 9.10806C85.2498 9.92825 84.8059 10.6535 84.2576 11.2705C83.7018 11.8955 83.1575 12.4015 82.6291 12.7839C82.0909 13.1732 81.0514 13.8973 79.4657 14.9888C78.9924 15.3146 78.6609 15.5493 78.4551 15.6715C78.2493 15.7934 78.0619 15.8551 77.9309 15.8551C77.7999 15.8551 77.6679 15.7758 77.5004 15.6216C77.331 15.466 77.0348 15.1272 76.5832 14.5682C76.1548 14.0376 75.8729 13.6368 75.7222 13.4079C75.5738 13.1824 75.4146 12.8706 75.2729 12.4664C75.1336 12.0685 75.0673 11.6124 75.0857 11.1101C75.1044 10.6029 75.2634 10.0387 75.5163 9.39857C75.9183 8.38092 76.5775 7.37712 77.5193 6.41676C78.4679 5.44872 79.7089 4.51594 81.2253 3.61088C81.674 3.34314 82.0322 3.12476 82.2548 2.95674C82.612 2.68665 82.9285 2.54844 83.2093 2.54844ZM81.1503 4.88168C80.7197 4.94057 80.2731 5.10711 79.8401 5.37016C79.3934 5.64174 79.0292 5.95712 78.6983 6.34178C78.3745 6.71816 78.1369 7.10134 77.987 7.47722C77.8752 7.75709 77.828 8.04549 77.8375 8.34541C77.8464 8.64284 77.8765 8.96664 77.9683 9.29352C78.0638 9.63377 78.2192 9.96536 78.3989 10.3186C78.5745 10.6642 78.8067 11.0701 79.1102 11.5502C79.4617 12.1061 79.6609 12.5134 79.7465 12.7551C79.8295 12.9896 79.8215 13.2669 79.7278 13.5771C80.3268 13.381 80.9447 13.0531 81.5809 12.5914C82.2172 12.1297 82.7059 11.6555 82.9658 11.1401C83.062 10.95 83.1376 10.7477 83.1907 10.5398C83.2502 10.3054 83.2374 10.056 83.2093 9.7982C83.1811 9.5406 83.0885 9.29315 83.0035 9.04397C82.9199 8.79936 82.8043 8.52332 82.6477 8.23826C82.4864 7.94404 82.3021 7.61369 82.1048 7.22766C81.9279 6.88086 81.7544 6.5901 81.6185 6.3382C81.4921 6.10448 81.3845 5.89847 81.3189 5.74084C81.2536 5.58433 81.216 5.43833 81.1879 5.30966C81.1599 5.18309 81.1503 5.03856 81.1503 4.88168ZM89.9664 9.71803C90.0789 9.37729 90.2097 9.0353 90.3409 8.69295C90.4717 8.7052 90.6405 8.71114 90.9023 8.7109C91.6137 8.70953 92.2114 8.62763 92.6431 8.47371C93.0913 8.31423 93.4413 8.07791 93.6913 7.77317C93.9468 7.46113 94.1958 7.04145 94.4025 6.50027C94.4762 6.30751 94.5548 6.1161 94.6272 5.92086C94.8917 5.20906 94.9922 4.62768 94.9644 4.17608C94.9366 3.72917 94.6085 3.50139 93.9906 3.50201C93.5232 3.50275 93.0179 3.64924 92.5497 3.93715C92.0823 4.22469 91.7159 4.72108 91.4452 5.42905C91.3977 5.55376 91.3603 5.69433 91.3329 5.8355C91.3043 5.98199 91.2704 6.07255 91.2579 6.12055C91.233 6.21731 91.2021 6.27856 91.1458 6.29539C91.0901 6.31221 90.9397 6.32025 90.7152 6.32025C90.4533 6.32025 90.1349 6.33868 89.7233 6.36491C89.349 6.38854 88.8447 6.45486 88.2632 6.52885C88.189 6.53838 88.1322 6.52885 88.0572 6.52885C88.0385 6.49668 88.0749 6.3789 88.1509 6.17587C88.4865 5.2791 89.0283 4.57323 89.7791 4.06719C90.5441 3.55199 91.3144 3.21014 92.1191 3.03321C92.9424 2.8522 93.6726 2.76299 94.3651 2.76237C95.1701 2.76162 95.9028 2.88102 96.5176 3.1474C97.1005 3.39968 97.5365 3.77457 97.7718 4.26515C98.0044 4.74966 98.0091 5.325 97.7718 5.96565C97.5228 6.6386 97.1391 7.17372 96.6489 7.57546C96.1474 7.98636 95.6731 8.26239 95.2262 8.43437C94.8119 8.59385 94.2726 8.76818 93.635 8.93707C93.5802 8.95155 93.5596 8.9534 93.5229 8.9638C93.5031 8.96949 93.4856 8.97629 93.448 8.98507C93.3919 9.09395 93.3543 9.2011 93.3169 9.30775C93.5229 9.33102 93.843 9.4003 94.2529 9.53417C94.8726 9.73684 95.3442 10.052 95.6941 10.4738C96.0367 10.8861 96.0074 11.5624 95.638 12.4933C95.3709 13.1665 94.9778 13.7608 94.4401 14.2829C93.9112 14.7963 93.2973 15.2012 92.6431 15.4826C91.9874 15.7643 91.3329 15.9086 90.7152 15.9086C90.3783 15.9086 90.0613 15.8667 89.7607 15.8035C89.2568 15.6976 88.768 15.5705 88.2819 15.4132C87.795 15.2552 87.4769 15.1724 87.3272 15.1724C86.8406 15.1724 86.4632 15.5366 86.1855 16.267C86.1453 16.3727 86.1102 16.4953 86.0731 16.6289C86.0355 16.764 86.0339 16.8491 86.0168 16.8856C85.9405 17.0504 85.8487 17.1384 85.7175 17.1384C85.6239 17.1384 85.4928 17.1217 85.3244 17.0958C85.1935 17.0758 84.9689 17.0628 84.688 17.0637C84.5012 17.0642 84.3318 17.1034 84.1453 17.1902C83.976 17.2691 83.8457 17.3132 83.7896 17.3132C83.4527 17.3132 83.4213 16.9093 83.7523 16.0924C84.02 15.4315 84.4083 14.8938 84.9499 14.4933C85.4936 14.0915 85.9795 13.89 86.4663 13.889C86.6905 13.8886 86.8966 13.9184 87.1026 13.9799C87.3083 14.0412 87.5552 14.1306 87.9075 14.2741C88.2289 14.405 88.4497 14.5083 88.6001 14.5576C89.2731 14.7771 89.7607 14.8855 90.0976 14.8855C90.6592 14.8855 91.1093 14.6687 91.4639 14.2349C91.8205 13.7989 92.1539 13.2194 92.4747 12.5004C92.6216 12.1714 92.7534 11.8487 92.8679 11.5131C93.0718 10.914 93.0075 10.4695 92.7556 10.1601C92.5209 9.87194 92.1002 9.71519 91.5199 9.71605C90.9962 9.71655 90.4717 9.71803 89.9664 9.71803ZM104.754 3.47726C104.286 3.47887 103.818 3.47887 103.369 3.48073C103.443 3.23476 103.537 2.98867 103.631 2.74109C105.484 2.73589 107.355 2.73206 109.208 2.72687C109.115 2.97457 109.021 3.22054 108.928 3.46824C108.441 3.46824 107.973 3.47009 107.505 3.47207C107.374 5.32574 107.243 7.18102 107.075 9.03333C106.906 10.889 106.719 12.7429 106.55 14.5966C106.962 14.5947 107.374 14.5931 107.786 14.5931C107.692 14.8407 107.58 15.0868 107.505 15.3327C105.69 15.3366 103.893 15.3399 102.114 15.3434C102.189 15.0974 102.302 14.8516 102.395 14.6037C102.844 14.602 103.312 14.602 103.761 14.602C103.818 13.841 103.883 13.0752 103.967 12.3149C104.052 11.5528 104.136 10.791 104.229 10.0281C103.874 10.6143 103.418 11.2314 102.882 11.896C102.351 12.5538 101.801 13.1741 101.216 13.7286C100.622 14.2917 100.003 14.7478 99.419 15.0816C98.8054 15.4321 98.2769 15.5958 97.7718 15.5965C97.2289 15.5975 96.8097 15.4274 96.5552 15.0741C96.3047 14.7267 96.3148 14.1932 96.5926 13.4861C96.8386 12.8599 97.271 12.1723 97.8466 11.4148C98.4127 10.6696 99.0637 9.90696 99.8122 9.14567C100.561 8.38326 101.367 7.56927 102.283 6.69996C102.34 6.64602 102.601 6.37679 103.106 5.89612C103.611 5.41606 103.967 5.05391 104.155 4.80336C104.341 4.55504 104.497 4.29337 104.604 4.00855C104.665 3.84622 104.716 3.66792 104.754 3.47726ZM104.361 8.35234C104.435 7.41858 104.51 6.48245 104.585 5.54671C103.574 6.4629 102.686 7.35943 101.89 8.21339C101.319 8.82633 100.822 9.37853 100.392 9.89063C99.9611 10.4052 99.6065 10.9536 99.3253 11.5378C99.2509 11.6928 99.1655 11.8355 99.1196 11.9977C98.9591 12.5641 99.2132 12.8607 99.7935 12.8588C100.243 12.8573 100.789 12.5993 101.403 12.0672C102.006 11.5442 102.576 10.9162 103.125 10.2081C103.681 9.49185 104.08 8.87657 104.361 8.35234ZM116.209 14.5753C116.565 13.643 116.931 12.704 117.295 11.7749C117.661 10.8392 118.038 9.91166 118.399 8.97084C118.936 7.57137 119.471 6.40401 120.065 5.50737C120.669 4.59637 121.391 3.90375 122.273 3.41664C123.169 2.92174 124.239 2.67997 125.53 2.67502C126.092 2.67292 126.597 2.74814 127.009 2.89785C127.42 3.04743 127.734 3.26408 127.945 3.52527C128.164 3.79709 128.32 4.10109 128.357 4.43973C128.395 4.78542 128.34 5.14287 128.207 5.51282C127.891 6.3888 127.381 7.02327 126.672 7.42921C125.977 7.82737 125.25 8.03486 124.501 8.03696C123.996 8.03832 123.509 7.84964 123.06 7.47178C122.685 7.7999 122.311 8.12617 121.936 8.45045C122.217 8.78377 122.539 9.04397 122.854 9.24552C123.157 9.43952 123.528 9.59207 123.902 9.68227C124.276 9.77185 124.688 9.81751 125.193 9.8159C125.231 9.8159 125.287 9.81615 125.343 9.8159C125.718 9.81454 125.98 9.85537 126.129 9.94086C126.279 10.0265 126.354 10.1511 126.335 10.3222C126.317 10.4968 126.25 10.7425 126.129 11.0532C125.764 11.9937 125.41 12.9346 125.025 13.8676C124.998 13.9333 124.977 13.9986 124.95 14.0638C124.92 14.1384 124.862 14.2277 124.819 14.3454C124.731 14.588 124.632 14.7693 124.538 14.8925C124.444 15.0167 124.277 15.121 124.071 15.1921C123.847 15.2689 123.528 15.3034 123.078 15.3044C120.177 15.3106 117.313 15.3151 114.431 15.3202C114.525 15.0725 114.618 14.8266 114.711 14.5771C115.198 14.5771 115.685 14.5771 116.209 14.5753ZM118.979 14.5698C119.709 14.5682 120.458 14.5656 121.188 14.5646C121.487 14.5642 121.715 14.4956 121.899 14.34C122.071 14.1942 122.252 13.8702 122.442 13.381C122.701 12.7136 122.978 12.0521 123.247 11.381C123.352 11.1199 123.377 10.9212 123.34 10.8016C123.302 10.6789 123.139 10.5183 122.872 10.3347C122.372 9.99073 122.013 9.73572 121.806 9.54865C121.601 9.3633 121.431 9.10805 121.244 8.78735C120.87 9.7518 120.495 10.7181 120.121 11.6805C119.747 12.643 119.372 13.6075 118.979 14.5698ZM121.487 8.16539C121.993 7.70005 122.517 7.23125 123.022 6.7643C123.34 6.96387 123.565 7.06447 123.752 7.06372C123.996 7.06261 124.319 6.92861 124.669 6.64478C125.011 6.36875 125.308 5.90033 125.549 5.23653C125.776 4.6137 125.8 4.1486 125.643 3.85685C125.482 3.56028 125.193 3.41763 124.782 3.41837C124.164 3.41924 123.614 3.74005 123.172 4.38987C122.735 5.03213 122.311 5.89611 121.918 6.96746C121.862 7.12051 121.779 7.31378 121.693 7.55034C121.61 7.78072 121.562 7.98895 121.487 8.16539ZM134.496 9.08332C134.702 9.08332 134.927 9.08332 135.17 9.08332C135.189 8.73936 135.131 8.46542 134.983 8.2953C134.812 8.0987 134.627 8.02607 134.421 8.02607C134.047 8.02607 133.653 8.0956 133.224 8.23826C132.811 8.37522 132.418 8.58247 132.1 8.84241C131.913 9.64293 131.807 10.3174 131.763 10.8625C131.714 11.4865 131.633 11.9767 131.576 12.34C131.521 12.6956 131.379 13.1652 131.165 13.7322C131.042 14.0546 130.846 14.3667 130.622 14.6733C130.753 14.7537 130.959 14.7934 131.239 14.7927C132.269 14.7898 133.156 14.5296 133.897 13.9834C134.615 13.4547 135.189 12.8267 135.6 12.1278C135.301 12.1278 135.002 12.1295 134.702 12.1314C134.796 11.8892 134.889 11.6467 134.983 11.4023C136.555 11.399 138.127 11.3951 139.7 11.3917C139.606 11.6342 139.513 11.8766 139.419 12.1188C139.194 12.1261 138.97 12.1333 138.745 12.1385C138.146 12.7626 137.469 13.3299 136.705 13.8552C135.953 14.3724 135.189 14.7859 134.403 15.085C133.617 15.3846 132.905 15.535 132.194 15.5363C131.726 15.5366 131.202 15.5119 130.659 15.4577C130.154 15.4071 129.704 15.3221 129.368 15.2062C129.461 14.9942 129.535 14.8404 129.574 14.7431C129.741 14.32 129.807 13.9286 129.761 13.5771C129.714 13.221 129.588 12.8354 129.405 12.406C129.121 11.7408 128.908 11.1899 128.806 10.7627C128.702 10.3274 128.675 9.94086 128.713 9.58947C128.75 9.23685 128.872 8.82844 129.049 8.35605C129.564 6.98541 130.262 5.85727 131.183 5.00467C132.115 4.14267 133.11 3.53666 134.159 3.17958C135.225 2.81669 136.256 2.6384 137.229 2.63407C137.828 2.63147 138.408 2.70793 138.989 2.8569C139.568 3.0055 140.075 3.28561 140.505 3.69489C140.936 4.1053 141.16 4.67135 141.197 5.39887C141.478 5.39689 141.759 5.39688 142.058 5.39688C141.965 5.64644 141.89 5.89438 141.796 6.14208C140.299 6.14567 138.82 6.15112 137.341 6.15433C137.416 5.90676 137.51 5.65906 137.603 5.41136C137.772 5.4095 137.959 5.4095 138.165 5.4095C138.259 4.88552 138.196 4.41685 137.959 3.99766C137.728 3.58788 137.266 3.37272 136.518 3.37544C135.937 3.37767 135.376 3.57179 134.852 3.95151C134.328 4.33098 133.886 4.82613 133.504 5.41816C133.119 6.0165 132.796 6.62994 132.568 7.27023C132.459 7.57806 132.362 7.86919 132.306 8.15289C133.429 7.4041 134.571 7.02995 135.713 7.02611C136.162 7.02475 136.574 7.10393 136.967 7.26341C137.36 7.42302 137.661 7.65464 137.884 7.96197C138.11 8.27141 138.221 8.64111 138.221 9.07428C138.446 9.07428 138.689 9.07428 138.933 9.07267C138.839 9.32198 138.745 9.57018 138.652 9.81775C137.173 9.82109 135.676 9.82493 134.197 9.8284C134.309 9.58082 134.403 9.33288 134.496 9.08332ZM144.417 14.5234C145.128 12.7037 145.829 10.8851 146.513 9.06364C147.195 7.24684 147.823 5.422 148.479 3.60025C148.198 3.60186 147.955 3.60186 147.692 3.60384C147.543 3.60384 147.412 3.60519 147.281 3.60569C146.963 3.6068 146.664 3.66174 146.438 3.75713C146.196 3.85945 145.919 4.10035 145.615 4.46485C145.302 4.83987 144.897 5.40901 144.417 6.20073C144.204 6.55162 144.047 6.79834 143.949 6.91043C143.841 7.03366 143.705 7.08414 143.518 7.085C143.312 7.08574 143.209 7.01696 143.2 6.86923C143.191 6.71878 143.204 6.5249 143.294 6.27225C143.466 5.78514 143.533 5.2703 143.518 4.73222C143.515 4.59686 143.499 4.35412 143.462 4.00855C143.425 3.661 143.432 3.42654 143.481 3.29724C143.544 3.12873 143.668 2.96911 143.855 2.82992C144.042 2.6911 144.267 2.62293 144.51 2.62157C144.585 2.62132 144.754 2.64545 144.978 2.70175C145.203 2.75755 145.447 2.79689 145.727 2.8319C145.971 2.86259 146.345 2.88127 146.831 2.88016C146.906 2.87991 147.019 2.87756 147.168 2.87112C147.299 2.86543 147.393 2.86074 147.468 2.86049C149.246 2.85368 151.005 2.84589 152.765 2.83896C152.858 2.83871 152.952 2.84155 153.102 2.84626C153.233 2.85034 153.327 2.85529 153.42 2.85504C153.888 2.85368 154.263 2.8376 154.581 2.79974C154.861 2.76633 155.142 2.71783 155.404 2.66079C155.666 2.60412 155.835 2.57716 155.909 2.57691C156.19 2.57542 156.346 2.63951 156.434 2.7839C156.514 2.91591 156.533 3.07812 156.471 3.25084C156.421 3.3888 156.282 3.63143 156.022 3.94582C155.739 4.28792 155.538 4.52189 155.423 4.69288C155.051 5.24556 154.719 5.75655 154.543 6.23835C154.345 6.7799 154.094 7.05643 153.738 7.05643C153.626 7.05643 153.525 7.01733 153.476 6.91922C153.431 6.83001 153.411 6.71383 153.42 6.59134C153.429 6.46192 153.497 6.12959 153.532 5.58755C153.572 4.9756 153.54 4.52288 153.457 4.24363C153.372 3.95597 153.179 3.77482 152.971 3.70009C152.748 3.61992 152.447 3.58577 152.016 3.58775C151.754 3.58911 151.492 3.58936 151.249 3.59121C150.612 5.41296 149.984 7.23979 149.302 9.05659C148.618 10.8795 147.898 12.6982 147.206 14.5202C147.692 14.518 148.179 14.518 148.685 14.5164C148.591 14.7678 148.497 15.0155 148.404 15.2632C146.494 15.267 144.566 15.2687 142.657 15.2722C142.751 15.0229 142.844 14.7747 142.938 14.5254C143.425 14.5254 143.911 14.5234 144.417 14.5234ZM159.26 10.4986C158.755 11.8357 158.231 13.1688 157.725 14.5039C158.212 14.5022 158.717 14.5022 159.223 14.5006C159.129 14.7517 159.035 14.9997 158.942 15.249C157.014 15.251 155.105 15.2543 153.177 15.2564C153.27 15.0085 153.364 14.7605 153.457 14.5093C153.944 14.5093 154.431 14.5074 154.936 14.5074C155.348 13.4238 155.778 12.3382 156.19 11.2545C156.602 10.1707 157.021 9.08591 157.426 7.99774C157.77 7.07177 158.081 6.16881 158.418 5.28998C159.092 4.43787 159.861 3.76963 160.832 3.27571C161.789 2.78934 162.742 2.53781 163.715 2.53422C164.651 2.53076 165.401 2.68208 165.98 2.99251C166.561 3.30405 166.926 3.73461 167.084 4.27579C167.244 4.8218 167.22 5.4173 166.99 6.08505C166.771 6.72385 166.449 7.31687 165.998 7.8463C165.551 8.37164 165.03 8.79726 164.464 9.09222C163.87 9.40142 163.284 9.54581 162.723 9.54692C162.442 9.54717 162.217 9.51648 162.068 9.45041C161.918 9.38472 161.729 9.26854 161.431 9.09062C161.28 8.99955 161.169 8.93163 161.113 8.89426C160.495 9.43074 159.878 9.96375 159.26 10.4986ZM159.672 9.43271C160.234 8.95129 160.795 8.47012 161.375 7.98709C161.431 8.07247 161.541 8.14856 161.637 8.2009C161.747 8.26078 161.843 8.28465 161.899 8.28465C162.199 8.28465 162.526 8.13631 162.891 7.81574C163.237 7.51224 163.565 6.91736 163.865 6.05672C164.163 5.19731 164.295 4.51879 164.258 4.02277C164.22 3.52737 163.902 3.27918 163.322 3.28116C162.873 3.28252 162.475 3.43507 162.161 3.74996C161.857 4.05544 161.58 4.44506 161.375 4.89418C161.169 5.34653 160.948 5.91715 160.701 6.60012C160.649 6.74414 160.589 6.8873 160.533 7.02797C160.252 7.83207 159.971 8.63233 159.672 9.43271ZM174.927 2.25794C175.058 2.25744 175.126 2.29778 175.17 2.36842C175.22 2.44748 175.305 2.61774 175.451 2.8621C175.698 3.27448 176.082 3.79189 176.611 4.42909C177.168 5.0982 177.546 5.75556 177.735 6.42554C177.92 7.08389 177.835 7.91137 177.473 8.88522C177.161 9.72063 176.743 10.4457 176.2 11.0744C175.657 11.702 175.123 12.2229 174.609 12.6073C174.074 13.0074 173.034 13.7393 171.483 14.8375C171.012 15.1703 170.678 15.4049 170.472 15.5288C170.267 15.6523 170.079 15.7127 169.948 15.7127C169.817 15.7127 169.694 15.6235 169.536 15.4771C169.357 15.3115 169.039 14.9742 168.6 14.4149C168.178 13.8757 167.865 13.4793 167.702 13.2437C167.547 13.0194 167.402 12.698 167.253 12.2936C167.103 11.8892 167.047 11.4309 167.047 10.9247C167.047 10.413 167.175 9.84361 167.421 9.19565C167.811 8.16773 168.432 7.15454 169.349 6.1797C170.266 5.20461 171.484 4.25698 172.98 3.3346C173.412 3.06822 173.753 2.84675 173.972 2.67316C174.314 2.40294 174.627 2.25893 174.927 2.25794ZM172.924 4.61814C172.475 4.68038 172.063 4.84506 171.632 5.11701C171.202 5.38847 170.857 5.72451 170.547 6.09927C170.22 6.49458 169.995 6.86452 169.854 7.24894C169.752 7.52745 169.705 7.82316 169.724 8.12617C169.742 8.42707 169.78 8.74802 169.892 9.08493C170.004 9.42369 170.146 9.76974 170.322 10.1189C170.502 10.4755 170.768 10.8776 171.071 11.3614C171.423 11.9225 171.651 12.3403 171.726 12.5806C171.801 12.8195 171.801 13.0975 171.726 13.4111C172.325 13.2116 172.936 12.8716 173.542 12.4132C174.172 11.936 174.659 11.462 174.889 10.9443C174.978 10.7466 175.053 10.544 175.114 10.3363C175.184 10.0996 175.179 9.84807 175.133 9.58602C175.086 9.3257 175.028 9.06933 174.927 8.82312C174.823 8.57022 174.694 8.30495 174.534 8.01023C174.376 7.72022 174.183 7.38406 173.953 6.98875C173.752 6.64219 173.599 6.33745 173.467 6.09049C173.337 5.84761 173.212 5.64013 173.149 5.48609C173.081 5.3224 173.009 5.18358 172.98 5.05293C172.952 4.9245 172.924 4.77849 172.924 4.61814ZM178.09 14.47C178.446 13.5273 178.818 12.5903 179.176 11.6412C179.529 10.7059 179.895 9.76344 180.243 8.80864C180.756 7.39754 181.253 6.2235 181.834 5.30966C182.413 4.39841 183.107 3.69292 183.986 3.19739C184.866 2.70199 185.952 2.45219 187.224 2.4486C187.805 2.44724 188.292 2.52061 188.722 2.67502C189.134 2.82312 189.452 3.03742 189.677 3.30789C189.901 3.57724 190.042 3.89026 190.088 4.23298C190.135 4.58202 190.116 4.94528 189.995 5.3167C189.704 6.20221 189.171 6.84559 188.479 7.25092C187.786 7.65637 187.075 7.86213 186.326 7.86398C185.802 7.86547 185.315 7.67691 184.866 7.29373C184.492 7.62507 184.136 7.95319 183.762 8.28107C184.061 8.61797 184.378 8.88956 184.679 9.08493C184.995 9.29031 185.352 9.43767 185.727 9.52725C186.119 9.62128 186.532 9.6626 187.019 9.6626C187.075 9.6626 187.131 9.66285 187.187 9.6626C187.561 9.66148 187.824 9.70381 187.973 9.78918C188.123 9.8748 188.216 10.0042 188.198 10.1759C188.179 10.3534 188.115 10.5918 187.992 10.9121C187.628 11.8574 187.277 12.8075 186.925 13.7553C186.902 13.8162 186.86 13.8834 186.832 13.9551C186.804 14.0233 186.774 14.1187 186.719 14.2383C186.606 14.4821 186.532 14.6683 186.438 14.7927C186.345 14.9174 186.178 15.0232 185.97 15.0941C185.747 15.1708 185.428 15.2055 184.978 15.2062C182.096 15.2121 179.213 15.2188 176.331 15.2242C176.424 14.9744 176.518 14.725 176.611 14.4736C177.098 14.472 177.585 14.47 178.09 14.47ZM180.879 14.4648C181.609 14.4629 182.339 14.4622 183.088 14.4611C183.369 14.4608 183.608 14.3794 183.78 14.2313C183.963 14.0747 184.133 13.7577 184.323 13.2633C184.583 12.5886 184.849 11.9164 185.091 11.2421C185.186 10.9753 185.239 10.7744 185.203 10.6571C185.163 10.5282 184.997 10.3787 184.716 10.1884C184.211 9.84596 183.848 9.59208 183.631 9.39177C183.436 9.21224 183.256 8.94609 183.069 8.62342C182.713 9.59665 182.339 10.5736 181.984 11.545C181.628 12.518 181.253 13.4933 180.879 14.4648ZM183.313 7.99576C183.799 7.52362 184.305 7.05308 184.81 6.5807C185.128 6.78014 185.372 6.88061 185.54 6.88C185.802 6.87901 186.107 6.74562 186.457 6.45957C186.799 6.18044 187.088 5.70162 187.299 5.03523C187.5 4.40236 187.524 3.94062 187.356 3.64306C187.187 3.3455 186.925 3.19788 186.495 3.199C185.877 3.2011 185.327 3.52453 184.903 4.18127C184.485 4.83084 184.081 5.70236 183.705 6.78385C183.651 6.94123 183.575 7.13685 183.5 7.37193C183.425 7.60738 183.369 7.81574 183.313 7.99576ZM201.488 15.176C201.169 15.176 200.87 15.176 200.552 15.1778C200.29 15.7446 200.08 16.2017 199.953 16.5539C199.856 16.8219 199.745 17.0916 199.653 17.3612C199.445 17.9738 199.308 18.594 199.204 19.2046C199.177 19.3621 199.091 19.5041 199.036 19.6519C198.455 19.6947 197.875 19.7375 197.332 19.7785C197.725 18.6859 198.226 17.5451 198.83 16.3417C198.956 16.0883 199.129 15.6948 199.41 15.1778C198.867 15.1797 198.324 15.1797 197.781 15.1814C198.006 13.2205 198.268 11.2604 198.511 9.29711C198.754 7.33864 198.923 5.37535 199.091 3.41292C198.848 3.41292 198.586 3.41502 198.362 3.41502C198.437 3.17066 198.53 2.92457 198.605 2.67885C200.215 2.67316 201.824 2.66796 203.434 2.66438C203.341 2.91208 203.247 3.15829 203.172 3.40055C202.76 3.40228 202.348 3.40228 201.956 3.40414C201.787 4.99402 201.693 6.58873 201.488 8.17231C201.281 9.76578 201.057 11.3489 200.832 12.939C201.937 11.0673 202.905 9.45512 203.715 8.09041C204.515 6.74204 205.201 5.63654 205.736 4.78753C206.024 4.33172 206.322 3.93381 206.598 3.59839C206.864 3.27423 207.2 2.98756 207.59 2.74456C207.968 2.50824 208.376 2.38377 208.844 2.38266C209.087 2.38191 209.35 2.42831 209.667 2.51987C209.986 2.61167 210.173 2.73392 210.21 2.88016C210.135 3.04224 210.02 3.21893 209.873 3.41664C209.74 3.59642 209.6 3.807 209.499 4.02983C209.394 4.25971 209.218 4.69102 209.031 5.33279C208.937 5.33279 208.844 5.33465 208.75 5.33465C208.713 5.29901 208.674 5.28095 208.638 5.26511C208.617 5.2562 208.565 5.21921 208.488 5.17059C208.209 4.99316 207.982 4.90816 207.833 4.90866C207.402 4.90965 206.934 5.15821 206.448 5.65733C205.961 6.15632 205.473 6.7721 204.988 7.49689C204.5 8.22638 204.034 9.00005 203.565 9.8159C203.098 10.629 202.734 11.284 202.461 11.7554C201.742 12.9969 201.188 13.8783 200.851 14.4256C201.132 14.4237 201.45 14.4237 201.75 14.422C201.656 14.6751 201.581 14.9247 201.488 15.176Z" fill="#E31E24"/>
<path d="M212.813 10.3737C212.326 11.7193 211.82 13.0618 211.315 14.4057C211.802 14.4057 212.307 14.4038 212.813 14.4038C212.719 14.6552 212.644 14.9065 212.55 15.1563C210.623 15.1597 208.695 15.1615 206.785 15.1651C206.879 14.9154 206.954 14.6659 207.048 14.4129C207.534 14.4129 208.021 14.4111 208.526 14.4111C208.938 13.3201 209.358 12.2303 209.762 11.1347C210.163 10.0468 210.573 8.95838 210.959 7.85672C211.284 6.931 211.577 6.01369 211.895 5.13127C212.532 4.27372 213.318 3.59619 214.273 3.10438C215.227 2.61257 216.163 2.3645 217.118 2.36277C218.072 2.36116 218.837 2.522 219.401 2.8281C219.997 3.15127 220.347 3.57801 220.524 4.1224C220.703 4.67051 220.706 5.27207 220.487 5.94032C220.275 6.58567 219.945 7.1787 219.514 7.71047C219.085 8.23903 218.562 8.66082 217.997 8.96197C217.42 9.27018 216.837 9.41729 216.275 9.41828C215.976 9.41877 215.767 9.3955 215.601 9.32176C215.467 9.26188 215.246 9.13482 214.965 8.95838C214.815 8.86398 214.703 8.79964 214.647 8.76203C214.029 9.30049 213.412 9.83721 212.813 10.3737ZM213.224 9.30234C213.767 8.81931 214.329 8.3343 214.89 7.84941C214.965 7.93503 215.075 8.01101 215.171 8.06347C215.281 8.12335 215.377 8.14883 215.433 8.14883C215.714 8.14883 216.047 7.9844 216.388 7.67669C216.74 7.35896 217.078 6.78017 217.361 5.90839C217.64 5.04924 217.726 4.36552 217.679 3.86381C217.633 3.36556 217.342 3.11218 216.743 3.11342C216.313 3.11391 215.943 3.27735 215.62 3.5858C215.288 3.90279 215.032 4.27892 214.834 4.73547C214.639 5.18645 214.429 5.76624 214.198 6.45205C214.148 6.59892 214.104 6.74083 214.048 6.88349C213.786 7.69093 213.505 8.49663 213.224 9.30234ZM227.132 3.09733C226.664 3.09733 226.215 3.09733 225.765 3.09894C225.84 2.84778 225.934 2.59822 226.009 2.34693C227.862 2.34334 229.734 2.34148 231.586 2.33789C231.512 2.58943 231.418 2.83874 231.343 3.09028C230.856 3.09213 230.389 3.09213 229.902 3.09213C229.846 4.97426 229.827 6.86059 229.715 8.73913C229.603 10.624 229.434 12.5038 229.303 14.3842C229.696 14.3842 230.108 14.3842 230.538 14.3842C230.445 14.6357 230.332 14.8852 230.258 15.1348C228.479 15.1367 226.682 15.1384 224.886 15.14C224.96 14.8907 225.073 14.6409 225.166 14.3896C225.616 14.3896 226.065 14.388 226.514 14.388C226.57 13.6161 226.626 12.8425 226.701 12.069C226.776 11.2971 226.832 10.5199 226.888 9.74615C226.533 10.3399 226.12 10.9723 225.597 11.641C225.072 12.3124 224.527 12.9284 223.931 13.5017C223.348 14.0636 222.759 14.5387 222.19 14.8726C221.579 15.2318 221.048 15.395 220.543 15.395C220 15.395 219.575 15.2129 219.326 14.862C219.07 14.5001 219.032 13.9619 219.308 13.249C219.556 12.6071 219.974 11.922 220.543 11.149C221.097 10.3962 221.723 9.61884 222.452 8.84604C223.183 8.07176 223.95 7.24501 224.811 6.36469C224.867 6.30766 225.157 6.04586 225.634 5.54996C226.093 5.07287 226.407 4.70008 226.608 4.4415C226.8 4.19404 226.937 3.92036 227.019 3.63381C227.068 3.46566 227.094 3.288 227.132 3.09733ZM226.982 8.04577C227.001 7.0974 227.057 6.14545 227.076 5.19536C226.121 6.12578 225.261 7.02775 224.493 7.90114C223.952 8.51581 223.443 9.08236 223.033 9.60188C222.62 10.1233 222.272 10.6748 222.003 11.2738C221.935 11.4257 221.871 11.5803 221.835 11.7409C221.703 12.3194 221.928 12.6169 222.527 12.6161C222.976 12.6154 223.509 12.358 224.118 11.814C224.707 11.2885 225.253 10.645 225.784 9.92802C226.32 9.20298 226.72 8.57866 226.982 8.04577ZM237.052 14.3774C237.445 14.3774 237.82 14.3774 238.213 14.3774C238.25 13.4521 238.344 12.5097 238.456 11.5448C238.568 10.5807 238.69 9.72796 238.793 8.97806C238.896 8.23409 238.993 7.49927 239.093 6.78883C239.18 6.1556 239.261 5.66044 239.261 5.30065C238.812 5.67467 238.339 6.22303 237.745 6.91355C236.261 8.63855 235.261 10.0712 234.843 11.231C234.644 11.7839 234.497 12.1847 234.45 12.4377C234.404 12.6892 234.389 12.8408 234.432 12.9191C234.465 12.9806 234.544 13.0223 234.638 13.0223C234.657 13.0223 234.675 13.0223 234.712 13.0223C234.712 13.0223 234.731 13.0223 234.75 13.0223C234.881 13.0223 234.937 13.1377 234.937 13.372C234.937 13.6059 234.764 14.1065 234.488 14.8833C234.428 15.0529 234.301 15.1805 234.095 15.2578C233.964 15.3068 233.833 15.3273 233.683 15.3273C233.533 15.3273 233.347 15.2999 233.084 15.2578C232.991 15.2432 232.841 15.2417 232.616 15.2417C232.354 15.2417 232.186 15.2552 232.036 15.2578C231.699 15.264 231.456 15.2173 231.343 15.1348C231.232 15.0534 231.187 14.8812 231.268 14.6305C231.337 14.4197 231.409 14.2098 231.493 14.0028C231.671 13.5626 231.906 13.1299 232.167 12.6999C232.43 12.2672 232.747 11.7655 233.196 11.1934C233.645 10.6229 234.234 9.89512 234.993 9.03671C235.563 8.39283 236.017 7.86266 236.378 7.43259C236.747 6.99298 236.939 6.76446 236.959 6.74256C237.556 6.08396 238.026 5.50739 238.419 5.00828C238.812 4.50768 239.046 4.10322 239.149 3.79774C239.215 3.60052 239.226 3.47346 239.149 3.42706C239.057 3.372 238.905 3.35159 238.699 3.35209C238.288 3.35332 237.876 3.35393 237.464 3.35393C237.539 3.10438 237.632 2.85297 237.708 2.60168C239.673 2.60007 241.638 2.60007 243.622 2.59821C243.547 2.84962 243.454 3.10092 243.379 3.35048C243.005 3.35048 242.649 3.35048 242.275 3.35209C242.143 4.07947 242.031 4.8514 241.919 5.66589C241.807 6.47878 241.732 7.33632 241.62 8.23284C241.507 9.12937 241.432 9.99027 241.339 10.8086C241.245 11.6247 241.194 12.4044 241.133 13.1385C241.1 13.5309 241.058 13.9423 241.02 14.3754C241.451 14.3754 241.881 14.3754 242.349 14.3735C242.256 14.6267 242.181 14.8765 242.087 15.1278C240.309 15.1294 238.55 15.1294 236.79 15.131C236.884 14.8801 236.959 14.6305 237.052 14.3774Z" fill="#E31E24"/>
<path d="M44.5309 27.5787C44.5309 18.1404 37.6565 10.4891 28.7424 10.4891C19.8281 10.4891 12.9268 18.1404 12.9268 27.5787" stroke="white" stroke-width="0.107745" stroke-miterlimit="22.9256"/>
<path d="M11.3921 27.1462C11.3921 17.0005 19.16 8.776 28.7424 8.776C38.3247 8.776 46.0926 17.0005 46.0926 27.1462" stroke="white" stroke-width="0.107745" stroke-miterlimit="22.9256"/>
<path fill-rule="evenodd" clip-rule="evenodd" d="M9.18066 27.1856L25.8106 24.1642L26.2886 31.0245L9.18066 27.1856ZM11.2038 27.1234L24.3769 27.6091L24.2674 25.3375L11.2038 27.1234Z" fill="#E31E24"/>
<path d="M25.8106 24.1642L25.8536 24.1612L25.8502 24.1132L25.8029 24.1218L25.8106 24.1642ZM9.18066 27.1856L9.17296 27.1432L8.96402 27.1812L9.17123 27.2277L9.18066 27.1856ZM26.2886 31.0245L26.2792 31.0665L26.3356 31.0792L26.3316 31.0215L26.2886 31.0245ZM24.3769 27.6091L24.3754 27.6522L24.4223 27.6539L24.42 27.607L24.3769 27.6091ZM11.2038 27.1234L11.198 27.0807L10.7047 27.1481L11.2022 27.1665L11.2038 27.1234ZM24.2674 25.3375L24.3105 25.3355L24.3082 25.2885L24.2616 25.2948L24.2674 25.3375ZM25.8029 24.1218L9.17296 27.1432L9.18837 27.228L25.8183 24.2066L25.8029 24.1218ZM26.3316 31.0215L25.8536 24.1612L25.7676 24.1672L26.2456 31.0275L26.3316 31.0215ZM9.17123 27.2277L26.2792 31.0665L26.298 30.9824L9.1901 27.1436L9.17123 27.2277ZM24.3785 27.566L11.2054 27.0803L11.2022 27.1665L24.3754 27.6522L24.3785 27.566ZM24.2244 25.3396L24.3339 27.6112L24.42 27.607L24.3105 25.3355L24.2244 25.3396ZM11.2096 27.1661L24.2733 25.3802L24.2616 25.2948L11.198 27.0807L11.2096 27.1661Z" fill="white"/>
<path fill-rule="evenodd" clip-rule="evenodd" d="M48.73 27.1858L32.1001 24.1644L31.6221 31.0247L48.73 27.1858ZM46.7072 27.1234L33.534 27.6091L33.6436 25.3375L46.7072 27.1234Z" fill="#E31E24"/>
<path d="M32.1001 24.1644L32.1078 24.122L32.0604 24.1134L32.0571 24.1614L32.1001 24.1644ZM48.73 27.1858L48.7394 27.2279L48.9466 27.1814L48.7377 27.1434L48.73 27.1858ZM31.6221 31.0247L31.5791 31.0217L31.5751 31.0794L31.6315 31.0667L31.6221 31.0247ZM33.534 27.6091L33.491 27.607L33.4887 27.6539L33.5356 27.6522L33.534 27.6091ZM46.7072 27.1234L46.7088 27.1665L47.2063 27.1481L46.713 27.0807L46.7072 27.1234ZM33.6436 25.3375L33.6494 25.2948L33.6028 25.2885L33.6005 25.3355L33.6436 25.3375ZM32.0924 24.2068L48.7223 27.2282L48.7377 27.1434L32.1078 24.122L32.0924 24.2068ZM31.6651 31.0277L32.1431 24.1674L32.0571 24.1614L31.5791 31.0217L31.6651 31.0277ZM48.7206 27.1438L31.6126 30.9826L31.6315 31.0667L48.7394 27.2279L48.7206 27.1438ZM33.5356 27.6522L46.7088 27.1665L46.7056 27.0803L33.5325 27.566L33.5356 27.6522ZM33.6005 25.3355L33.491 27.607L33.5771 27.6112L33.6866 25.3396L33.6005 25.3355ZM46.713 27.0807L33.6494 25.2948L33.6378 25.3802L46.7014 27.1661L46.713 27.0807Z" fill="white"/>
<path fill-rule="evenodd" clip-rule="evenodd" d="M29.1509 6.58582L32.1723 23.2157L25.312 23.6938L29.1509 6.58582ZM29.2135 8.60918L28.7278 21.7823L30.9994 21.6728L29.2135 8.60918Z" fill="#E31E24"/>
<path d="M32.1723 23.2157L32.1753 23.2587L32.2233 23.2553L32.2147 23.208L32.1723 23.2157ZM29.1509 6.58582L29.1933 6.57811L29.1553 6.36917L29.1088 6.57638L29.1509 6.58582ZM25.312 23.6938L25.27 23.6843L25.2573 23.7408L25.315 23.7367L25.312 23.6938ZM28.7278 21.7823L28.6847 21.7807L28.683 21.8276L28.7299 21.8254L28.7278 21.7823ZM29.2135 8.60918L29.2562 8.60334L29.1888 8.11011L29.1704 8.60759L29.2135 8.60918ZM30.9994 21.6728L31.0014 21.7158L31.0484 21.7136L31.0421 21.667L30.9994 21.6728ZM32.2147 23.208L29.1933 6.57811L29.1085 6.59352L32.1299 23.2234L32.2147 23.208ZM25.315 23.7367L32.1753 23.2587L32.1693 23.1727L25.309 23.6508L25.315 23.7367ZM29.1088 6.57638L25.27 23.6843L25.3541 23.7032L29.1929 6.59525L29.1088 6.57638ZM28.7709 21.7839L29.2566 8.61077L29.1704 8.60759L28.6847 21.7807L28.7709 21.7839ZM30.9973 21.6297L28.7257 21.7393L28.7299 21.8254L31.0014 21.7158L30.9973 21.6297ZM29.1708 8.61502L30.9567 21.6786L31.0421 21.667L29.2562 8.60334L29.1708 8.61502Z" fill="white"/>
<path fill-rule="evenodd" clip-rule="evenodd" d="M4.04793 24.1415C4.84793 24.1415 4.17404 24.9585 3.90285 25.1572C3.78201 24.6385 3.38401 24.1415 4.04793 24.1415ZM3.03222 28.7848C3.17191 28.1852 3.44644 27.9019 3.61263 27.1886C4.33021 27.7145 3.9149 28.5555 4.77345 28.7848C5.14579 28.512 5.1669 28.1075 5.35447 27.6246L6.34165 24.9842C6.74229 23.9814 6.90686 24.5565 7.09517 23.8513H5.49898C5.61571 24.2884 5.49717 24.1699 5.93435 24.2866C5.91591 25.1129 5.33938 26.0054 5.06368 27.1886C4.67986 26.9075 4.80954 27.0072 4.5927 26.4912C4.46159 26.1793 4.32235 25.9629 4.42889 25.5504C4.45967 25.4313 4.76356 24.7473 4.83536 24.6388C5.15693 24.153 5.19374 24.451 5.35387 23.8513H2.16158C2.30636 24.3935 2.32066 24.145 2.59063 24.5831L3.40505 26.3777C3.4904 26.8438 3.29689 26.8205 3.17733 27.3338C2.82874 27.0784 2.89094 26.9576 2.68965 26.5155C2.51552 26.1332 2.44691 26.0052 2.28626 25.6128C2.17396 25.3385 1.93891 24.949 1.85826 24.721C1.59129 23.9664 1.80162 24.656 2.01651 23.8513C1.63182 23.8513 1.2106 23.8318 0.832991 23.8405C-0.468466 23.8706 0.142165 24.1088 0.149052 24.1186C0.20663 24.1997 0.455873 24.2673 0.717007 24.713C0.880748 24.9925 1.00674 25.3191 1.12555 25.6128L2.27666 28.2344C2.49512 28.7141 2.42968 28.7347 3.03222 28.7848Z" fill="#E31E24"/>
<path fill-rule="evenodd" clip-rule="evenodd" d="M50.7994 24.2832C51.8624 24.3069 51.5251 24.9832 51.5251 27.9116C51.5251 28.4285 51.1809 28.4804 50.6543 28.4921V28.9275H55.1535L55.2986 27.9116C55.2986 27.3567 55.3432 27.8587 55.1535 27.4762C54.0946 28.252 55.7938 28.347 52.6862 28.347V26.6053C54.2908 26.6053 54.2239 26.4796 54.2827 27.1859H54.7181C54.7181 24.1979 54.4716 26.0248 53.8473 26.0248H52.6862V24.4283C56.1129 24.4283 53.5826 24.7733 55.0083 25.154V23.8478H50.7994V24.2832Z" fill="#E31E24"/>
<path fill-rule="evenodd" clip-rule="evenodd" d="M26.3374 0.1415C26.8114 1.31576 26.9034 -1.24572 26.9034 3.67869C26.9034 4.65549 26.5375 4.061 26.3374 4.81057H27.8938V4.38611C27.1078 4.3207 27.3073 4.03244 27.3229 3.11766C27.3334 2.50311 27.3278 1.88808 27.3278 1.27338C27.6061 1.47728 28.4815 2.62628 28.7442 2.96968C29.0353 3.35008 29.9089 4.40933 30.0161 4.81057H30.582V0.848922C30.582 0.42115 30.7485 0.457691 31.148 0.424461V0H29.4501V0.424461C30.0585 0.475115 29.7051 0.40444 30.1576 0.707422V3.11273C29.8536 2.90917 29.723 2.68428 29.4901 2.36541L28.2588 0.766882C27.8313 0.17868 27.8295 0.0311976 27.5537 0H26.7619C26.5967 0 26.3709 0.100668 26.3374 0.1415Z" fill="#E31E24"/>
<path fill-rule="evenodd" clip-rule="evenodd" d="M18.5981 17.147L25.3175 25.9525L28.3791 23.1076L18.5981 17.147ZM19.5413 18.082L26.3456 23.488L25.1328 24.5647L19.5413 18.082Z" fill="#E31E24"/>
<path d="M25.3175 25.9525L25.2832 25.9787L25.312 26.0164L25.3468 25.9841L25.3175 25.9525ZM18.5981 17.147L18.6206 17.1102L18.4248 16.9909L18.5639 17.1731L18.5981 17.147ZM28.3791 23.1076L28.4084 23.1392L28.4502 23.1005L28.4015 23.0708L28.3791 23.1076ZM26.3456 23.488L26.3743 23.5203L26.4126 23.4862L26.3725 23.4543L26.3456 23.488ZM19.5413 18.082L19.5681 18.0483L19.2096 17.7634L19.5087 18.1102L19.5413 18.082ZM25.1328 24.5647L25.1002 24.5928L25.1287 24.6259L25.1614 24.5969L25.1328 24.5647ZM25.3517 25.9264L18.6324 17.1208L18.5639 17.1731L25.2832 25.9787L25.3517 25.9264ZM28.3498 23.0761L25.2881 25.921L25.3468 25.9841L28.4084 23.1392L28.3498 23.0761ZM18.5757 17.1838L28.3567 23.1444L28.4015 23.0708L18.6206 17.1102L18.5757 17.1838ZM26.3725 23.4543L19.5681 18.0483L19.5145 18.1158L26.3188 23.5218L26.3725 23.4543ZM25.1614 24.5969L26.3743 23.5203L26.317 23.4558L25.1042 24.5325L25.1614 24.5969ZM19.5087 18.1102L25.1002 24.5928L25.1655 24.5365L19.574 18.0539L19.5087 18.1102Z" fill="#FEFEFE"/>
<path fill-rule="evenodd" clip-rule="evenodd" d="M39.0681 16.9661L32.3488 25.7716L29.2871 22.9267L39.0681 16.9661ZM38.124 17.9013L31.3197 23.3073L32.5325 24.384L38.124 17.9013Z" fill="#E31E24"/>
<path d="M32.3488 25.7716L32.3195 25.8032L32.3543 25.8355L32.3831 25.7978L32.3488 25.7716ZM39.0681 16.9661L39.1024 16.9922L39.2414 16.81L39.0457 16.9293L39.0681 16.9661ZM29.2871 22.9267L29.2647 22.8899L29.2161 22.9196L29.2578 22.9583L29.2871 22.9267ZM31.3197 23.3073L31.2929 23.2735L31.2527 23.3054L31.2911 23.3395L31.3197 23.3073ZM38.124 17.9013L38.1566 17.9295L38.4557 17.5827L38.0972 17.8676L38.124 17.9013ZM32.5325 24.384L32.5039 24.4162L32.5366 24.4452L32.5652 24.4121L32.5325 24.384ZM32.3831 25.7978L39.1024 16.9922L39.0339 16.9399L32.3145 25.7455L32.3831 25.7978ZM29.2578 22.9583L32.3195 25.8032L32.3781 25.7401L29.3164 22.8952L29.2578 22.9583ZM39.0457 16.9293L29.2647 22.8899L29.3095 22.9635L39.0905 17.0029L39.0457 16.9293ZM31.3465 23.341L38.1508 17.9351L38.0972 17.8676L31.2929 23.2735L31.3465 23.341ZM32.5611 24.3517L31.3483 23.275L31.2911 23.3395L32.5039 24.4162L32.5611 24.3517ZM38.0914 17.8732L32.4999 24.3558L32.5652 24.4121L38.1566 17.9295L38.0914 17.8732Z" fill="white"/>
<path d="M28.7416 33.2355C32.4024 33.2355 35.37 30.2678 35.37 26.6071C35.37 22.9464 32.4024 19.9788 28.7416 19.9788C25.0809 19.9788 22.1133 22.9464 22.1133 26.6071C22.1133 30.2678 25.0809 33.2355 28.7416 33.2355Z" fill="#FEFEFE" stroke="#E31E24" stroke-width="0.0861957" stroke-miterlimit="22.9256"/>
<path fill-rule="evenodd" clip-rule="evenodd" d="M31.1624 26.4279C30.2543 24.9996 28.2787 25.584 27.5972 27.1991C28.2779 26.8894 28.7812 26.3647 29.7812 26.5272C30.6704 26.6714 31.1646 27.7098 31.6401 28.3166C31.9709 27.1076 32.1022 26.2347 32.5807 25.593C32.8586 25.22 33.4656 25.1202 34.0855 24.8826C33.4715 24.5269 32.7648 24.3714 32.3174 24.6341C31.5251 25.0993 31.1983 26.3569 31.1624 26.4279Z" fill="#E31E24"/>
<path fill-rule="evenodd" clip-rule="evenodd" d="M17.0421 30.481L16.9375 30.5669C16.3556 30.9918 15.8727 31.2468 15.2808 31.8416C14.6687 32.4569 14.3296 32.7836 13.8423 33.5114C14.1836 33.4318 14.2699 33.2964 14.5366 33.1086C15.3274 32.552 15.8602 32.2741 16.7373 31.8353C17.5886 31.4095 19.0476 30.7687 20.2562 30.7687C20.651 30.7593 20.682 30.6623 21.1554 30.6706C21.9122 30.684 23.2926 30.9375 24.0091 31.1155C24.6434 31.2731 25.0758 31.4338 25.6826 31.6361C27.0312 32.0859 28.5225 32.5634 29.8951 32.909C30.3672 33.0278 30.8067 33.1193 31.2309 33.219C32.4843 33.5135 34.4319 33.6527 35.6165 33.5269C37.6082 33.3148 38.7476 32.929 40.2655 31.7762C40.7211 31.4302 41.5798 30.637 41.6349 29.9322H41.5436C41.0309 30.7719 39.0608 31.6474 37.9207 31.9912C36.707 32.3574 35.4519 32.3787 34.1742 32.1955C32.2162 31.9147 32.029 31.7611 30.0851 31.1666C27.4924 30.314 25.0828 29.402 22.2802 29.3156L20.4519 29.4201C19.8361 29.4981 19.1349 29.6666 18.5951 29.8524C18.0734 30.0319 17.4635 30.1252 17.0421 30.481Z" fill="#FEFEFE" stroke="#E31E24" stroke-width="0.0861957" stroke-miterlimit="22.9256"/>
<path fill-rule="evenodd" clip-rule="evenodd" d="M16.0371 33.1459C16.4667 33.0458 16.7502 32.8038 17.1711 32.6342C17.5352 32.4874 18.1496 32.3094 18.516 32.2421C20.0708 31.9564 20.1033 32.0488 21.7166 32.0488C23.9644 32.246 26.021 33.7858 31.7619 33.7858L31.2347 33.5817C28.7406 32.9632 27.2233 32.3817 24.8254 31.58C22.5222 30.8099 16.7004 30.6613 16.0371 33.1459Z" fill="#FEFEFE" stroke="#E31E24" stroke-width="0.0861957" stroke-miterlimit="22.9256"/>
<path fill-rule="evenodd" clip-rule="evenodd" d="M26.2091 24.2914C25.4566 23.1078 23.8196 23.5921 23.2549 24.9304C23.819 24.6738 24.236 24.239 25.0646 24.3737C25.8014 24.4932 26.2109 25.3535 26.6049 25.8564C26.879 24.8546 26.9878 24.1313 27.3842 23.5996C27.6145 23.2905 28.1175 23.2078 28.6312 23.0109C28.1224 22.7162 27.5368 22.5873 27.1661 22.805C26.5096 23.1905 26.2388 24.2325 26.2091 24.2914Z" fill="#E31E24"/>
<path d="M33.6601 1.80188L32.5981 1.64856L32.0712 5.29836L33.1332 5.45168L33.6601 1.80188Z" fill="#E31E24"/>
<path d="M43.0515 5.56109L42.1543 4.97266L40.132 8.0563L41.0292 8.64473L43.0515 5.56109Z" fill="#E31E24"/>
<path d="M36.1155 3.49567L35.8792 3.42055C35.7181 3.3693 35.5546 3.43084 35.5142 3.558L34.8691 5.58695C34.8286 5.71412 34.9265 5.85875 35.0877 5.90999L35.3239 5.98511C35.4851 6.03636 35.6485 5.97482 35.689 5.84766L36.3341 3.81871C36.3745 3.69155 36.2767 3.54692 36.1155 3.49567Z" fill="#E31E24"/>
<path d="M39.0681 4.60386L38.8424 4.50148C38.6883 4.43162 38.5188 4.47351 38.4637 4.59504L37.5844 6.53403C37.5293 6.65555 37.6095 6.81069 37.7635 6.88054L37.9893 6.98292C38.1433 7.05277 38.3129 7.01088 38.368 6.88936L39.2473 4.95037C39.3024 4.82885 39.2222 4.67371 39.0681 4.60386Z" fill="#E31E24"/>
<path d="M50.7223 12.7939L50.0889 11.9279L47.1125 14.105L47.746 14.971L50.7223 12.7939Z" fill="#E31E24"/>
<path d="M54.6847 20.9182L54.3477 19.8995L50.8467 21.0578L51.1837 22.0765L54.6847 20.9182Z" fill="#E31E24"/>
<path d="M44.8392 8.20784L44.6527 8.04452C44.5255 7.9331 44.3511 7.92415 44.2632 8.02454L42.8606 9.62625C42.7727 9.72663 42.8045 9.89834 42.9318 10.0098L43.1183 10.1731C43.2455 10.2845 43.4199 10.2935 43.5078 10.1931L44.9105 8.59135C44.9984 8.49097 44.9665 8.31926 44.8392 8.20784Z" fill="#E31E24"/>
<path d="M47.2335 10.3688L47.0663 10.1858C46.9523 10.0608 46.78 10.0325 46.6814 10.1225L45.1091 11.558C45.0106 11.6479 45.0231 11.8221 45.1371 11.947L45.3043 12.1301C45.4183 12.255 45.5906 12.2833 45.6892 12.1934L47.2615 10.7579C47.3601 10.6679 47.3475 10.4937 47.2335 10.3688Z" fill="#E31E24"/>
<path d="M51.1152 15.5391L50.9968 15.3213C50.916 15.1727 50.7555 15.1039 50.6383 15.1676L48.7676 16.1841C48.6504 16.2479 48.6208 16.42 48.7015 16.5686L48.8199 16.7864C48.9007 16.935 49.0612 17.0038 49.1784 16.9401L51.0491 15.9236C51.1663 15.8599 51.1959 15.6877 51.1152 15.5391Z" fill="#E31E24"/>
<path d="M52.5492 18.4502L52.4577 18.2198C52.3953 18.0626 52.2442 17.9751 52.1202 18.0243L50.1414 18.81C50.0174 18.8593 49.9675 19.0266 50.0299 19.1838L50.1214 19.4142C50.1838 19.5714 50.3349 19.6589 50.4589 19.6097L52.4377 18.824C52.5617 18.7747 52.6116 18.6074 52.5492 18.4502Z" fill="#E31E24"/>
<path d="M23.8233 1.802L24.8853 1.64868L25.4122 5.29849L24.3502 5.45181L23.8233 1.802Z" fill="#E31E24"/>
<path d="M14.4333 5.56121L15.3306 4.97278L17.3529 8.05642L16.4556 8.64485L14.4333 5.56121Z" fill="#E31E24"/>
<path d="M21.3679 3.49579L21.6042 3.42068C21.7653 3.36943 21.9288 3.43097 21.9692 3.55813L22.6143 5.58708C22.6548 5.71424 22.5569 5.85887 22.3957 5.91012L22.1595 5.98524C21.9983 6.03648 21.8349 5.97494 21.7944 5.84778L21.1493 3.81883C21.1089 3.69167 21.2067 3.54704 21.3679 3.49579Z" fill="#E31E24"/>
<path d="M18.4162 4.60398L18.642 4.5016C18.796 4.43175 18.9656 4.47364 19.0207 4.59516L19.9 6.53415C19.9551 6.65567 19.8749 6.81081 19.7209 6.88066L19.4951 6.98304C19.3411 7.05289 19.1715 7.01101 19.1164 6.88948L18.2371 4.95049C18.182 4.82897 18.2622 4.67383 18.4162 4.60398Z" fill="#E31E24"/>
<path d="M6.76154 12.794L7.39502 11.928L10.3714 14.1051L9.73789 14.9712L6.76154 12.794Z" fill="#E31E24"/>
<path d="M2.79969 20.9185L3.13672 19.8998L6.63771 21.0581L6.30068 22.0768L2.79969 20.9185Z" fill="#E31E24"/>
<path d="M12.6446 8.20796L12.8311 8.04464C12.9584 7.93322 13.1328 7.92427 13.2207 8.02466L14.6233 9.62637C14.7112 9.72676 14.6793 9.89846 14.5521 10.0099L14.3656 10.1732C14.2384 10.2846 14.064 10.2936 13.976 10.1932L12.5734 8.59147C12.4855 8.49109 12.5174 8.31939 12.6446 8.20796Z" fill="#E31E24"/>
<path d="M10.2509 10.369L10.418 10.1859C10.5321 10.061 10.7044 10.0326 10.8029 10.1226L12.3753 11.5581C12.4738 11.6481 12.4613 11.8222 12.3472 11.9471L12.1801 12.1302C12.0661 12.2551 11.8937 12.2835 11.7952 12.1935L10.2228 10.758C10.1243 10.668 10.1369 10.4939 10.2509 10.369Z" fill="#E31E24"/>
<path d="M6.36872 15.5393L6.48709 15.3214C6.56784 15.1728 6.72834 15.104 6.84559 15.1677L8.71628 16.1843C8.83352 16.248 8.8631 16.4201 8.78235 16.5687L8.66398 16.7865C8.58323 16.9351 8.42272 17.0039 8.30548 16.9402L6.43479 15.9237C6.31755 15.86 6.28797 15.6879 6.36872 15.5393Z" fill="#E31E24"/>
<path d="M4.93466 18.4504L5.02615 18.22C5.08856 18.0629 5.2397 17.9753 5.36371 18.0246L7.34248 18.8103C7.46649 18.8595 7.51643 19.0269 7.45401 19.1841L7.36253 19.4145C7.30011 19.5717 7.14898 19.6592 7.02496 19.6099L5.0462 18.8242C4.92218 18.775 4.87225 18.6076 4.93466 18.4504Z" fill="#E31E24"/>
<path d="M67.4518 22.9823L67.529 24.7564H67.3158C67.2758 24.4431 67.219 24.2203 67.1483 24.0842C67.0347 23.8702 66.8802 23.7108 66.6912 23.6086C66.4992 23.5049 66.2468 23.4523 65.9349 23.4523H64.8723V29.2477C64.8723 29.7151 64.9218 30.0071 65.0225 30.1233C65.1631 30.2794 65.3818 30.3578 65.677 30.3578H65.9376V30.5628H62.7233V30.3578H62.9932C63.3136 30.3578 63.5407 30.2613 63.6759 30.0668C63.7568 29.948 63.7979 29.6742 63.7979 29.2477V23.4523H62.889C62.5353 23.4523 62.2838 23.4824 62.1346 23.5325C61.941 23.603 61.7753 23.7383 61.6375 23.9399C61.5005 24.1405 61.4166 24.4135 61.3907 24.7564H61.1782L61.2685 22.9823H67.4518ZM78.8477 27.0142V29.222C78.8477 29.6993 78.8998 29.997 79.0021 30.1132C79.1447 30.2761 79.358 30.3578 79.6439 30.3578H79.9327V30.5628H76.6864V30.3578H76.9739C77.2953 30.3578 77.5227 30.2536 77.6621 30.0447C77.7359 29.9293 77.7722 29.6549 77.7722 29.222V24.322C77.7722 23.8444 77.7238 23.5482 77.6231 23.4334C77.4771 23.2665 77.2611 23.1856 76.9739 23.1856H76.6864V22.9823H79.4661C80.1428 22.9823 80.6794 23.052 81.0702 23.1916C81.4617 23.3315 81.7892 23.5667 82.0604 23.8985C82.3257 24.2297 82.4607 24.6241 82.4607 25.0785C82.4607 25.6977 82.2568 26.2018 81.8497 26.5896C81.4402 26.9774 80.8646 27.1711 80.1224 27.1711C79.938 27.1711 79.7397 27.1581 79.5282 27.1321C79.318 27.1057 79.0871 27.0657 78.8477 27.0142ZM78.8477 26.6957C79.0432 26.7315 79.2182 26.7596 79.373 26.7811C79.5237 26.7978 79.6532 26.8066 79.7621 26.8066C80.1493 26.8066 80.4836 26.6572 80.7622 26.3568C81.0443 26.0572 81.1841 25.6687 81.1841 25.1905C81.1841 24.8605 81.119 24.5577 80.9837 24.2761C80.8489 23.9948 80.6608 23.7853 80.4141 23.6455C80.171 23.5049 79.8896 23.4338 79.577 23.4338C79.3888 23.4338 79.1447 23.4702 78.8477 23.5409V26.6957ZM154.739 30.3578C155.152 30.3153 155.489 30.2073 155.744 30.0439C156 29.8772 156.309 29.544 156.668 29.0438L158.238 26.874C157.602 26.7315 157.132 26.4886 156.827 26.1474C156.528 25.8048 156.372 25.3994 156.372 24.933C156.372 24.4958 156.507 24.1216 156.774 23.8063C157.038 23.4906 157.365 23.2755 157.744 23.1576C158.129 23.0395 158.721 22.9823 159.524 22.9823H162.283V23.1856H161.999C161.709 23.1856 161.5 23.2665 161.354 23.4334C161.248 23.5482 161.198 23.8444 161.198 24.322V29.222C161.198 29.6549 161.235 29.9293 161.312 30.0447C161.45 30.2536 161.679 30.3578 161.999 30.3578H162.283V30.5628H159.037V30.3578H159.333C159.613 30.3578 159.825 30.2761 159.968 30.1132C160.07 29.997 160.124 29.6993 160.124 29.222V27.0181L159.952 27.0263L159.796 27.0297C159.679 27.0297 159.527 27.0263 159.338 27.0181L156.766 30.5628H154.739V30.3578ZM160.124 23.5115C159.757 23.4437 159.468 23.4084 159.253 23.4084C158.772 23.4084 158.382 23.557 158.092 23.8523C157.798 24.1505 157.651 24.5333 157.651 25.0075C157.651 25.4902 157.834 25.8909 158.195 26.2028C158.558 26.5154 159.097 26.6716 159.814 26.6716L159.941 26.6707L160.124 26.6674V23.5115ZM151.548 28.0343H148.594L148.084 29.222C147.955 29.5182 147.893 29.737 147.893 29.8828C147.893 29.9991 147.947 30.0992 148.057 30.1878C148.167 30.2746 148.405 30.3315 148.772 30.3578V30.5628H146.377V30.3578C146.693 30.3023 146.899 30.2297 146.992 30.1393C147.184 29.9597 147.394 29.5956 147.625 29.046L150.3 22.809H150.493L153.134 29.1156C153.348 29.6247 153.541 29.9517 153.717 30.1035C153.889 30.2552 154.129 30.3392 154.438 30.3578V30.5628H151.448V30.3578C151.749 30.3449 151.956 30.2933 152.061 30.2073C152.167 30.122 152.22 30.017 152.22 29.8919C152.22 29.7276 152.142 29.4684 151.995 29.1142L151.548 28.0343ZM151.371 27.618L150.09 24.555L148.772 27.618H151.371ZM145.976 30.3564V30.5628H144.016C143.807 30.2245 143.356 29.5851 142.678 28.6414C141.991 27.7005 141.575 27.1792 141.426 27.0751C141.277 26.9729 141.052 26.9208 140.749 26.9164V29.1837C140.749 29.6812 140.816 30.0004 140.941 30.1337C141.074 30.2695 141.374 30.3449 141.849 30.3578V30.5628H138.579V30.3578C139.046 30.3449 139.345 30.2704 139.482 30.1369C139.611 30.0056 139.677 29.6866 139.677 29.1837V24.3607C139.677 23.8604 139.611 23.5432 139.482 23.4097C139.351 23.2755 139.052 23.202 138.579 23.1856V22.9823H141.849V23.1856C141.374 23.202 141.074 23.2755 140.941 23.4097C140.816 23.5432 140.749 23.8604 140.749 24.3607V26.482C141.157 26.478 141.437 26.4513 141.596 26.3995C141.751 26.3484 141.928 26.2344 142.125 26.0559C142.32 25.8763 142.473 25.6836 142.588 25.4763C142.7 25.2668 142.847 24.9279 143.025 24.4539C143.194 24.0093 143.328 23.7008 143.44 23.5268C143.542 23.3535 143.715 23.2043 143.949 23.0791C144.184 22.9552 144.462 22.8915 144.787 22.8915C145.364 22.8915 145.646 23.093 145.646 23.4954C145.646 23.639 145.592 23.762 145.481 23.8652C145.364 23.9703 145.233 24.023 145.088 24.023C144.986 24.023 144.809 23.9626 144.564 23.8444C144.348 23.7383 144.198 23.6852 144.112 23.6852C143.994 23.6852 143.888 23.7462 143.807 23.8702C143.721 23.9947 143.584 24.3125 143.396 24.8241C143.039 25.7767 142.58 26.3801 142.028 26.6385C142.363 26.6979 142.834 27.1624 143.435 28.0302C144.071 28.9515 144.54 29.5657 144.838 29.8752C145.138 30.1844 145.516 30.3449 145.976 30.3564ZM137.345 22.809L137.518 25.3841H137.345C137.114 24.6108 136.786 24.054 136.359 23.7145C135.932 23.374 135.417 23.2043 134.82 23.2043C134.317 23.2043 133.862 23.3328 133.46 23.5856C133.051 23.8444 132.734 24.2514 132.5 24.8119C132.268 25.3704 132.151 26.0667 132.151 26.8974C132.151 27.5838 132.263 28.1786 132.482 28.682C132.701 29.1877 133.033 29.5706 133.471 29.8412C133.91 30.1096 134.415 30.2441 134.98 30.2441C135.469 30.2441 135.903 30.1369 136.278 29.9266C136.653 29.716 137.067 29.2994 137.518 28.6735L137.691 28.7876C137.312 29.4609 136.868 29.9533 136.361 30.2656C135.855 30.5794 135.257 30.7354 134.559 30.7354C133.305 30.7354 132.332 30.2695 131.643 29.3379C131.133 28.6458 130.877 27.8287 130.877 26.8891C130.877 26.1327 131.044 25.4388 131.381 24.8034C131.724 24.1713 132.187 23.6791 132.78 23.3315C133.373 22.984 134.023 22.809 134.725 22.809C135.274 22.809 135.811 22.9422 136.344 23.2097C136.502 23.2915 136.614 23.3328 136.679 23.3328C136.777 23.3328 136.868 23.2955 136.942 23.2247C137.037 23.1279 137.106 22.986 137.147 22.809H137.345ZM125.57 23.3953V26.3842H127.238C127.672 26.3842 127.96 26.3214 128.108 26.1914C128.304 26.0188 128.411 25.7194 128.43 25.2868H128.636V27.9332H128.43C128.38 27.5625 128.33 27.3247 128.276 27.2217C128.209 27.0903 128.099 26.988 127.946 26.9131C127.79 26.8373 127.558 26.8009 127.238 26.8009H125.57V29.2984C125.57 29.6337 125.585 29.8374 125.616 29.9089L125.772 30.0826C125.847 30.1259 125.986 30.1477 126.198 30.1477H127.482C127.912 30.1477 128.225 30.116 128.418 30.0582C128.607 29.9991 128.795 29.8812 128.973 29.7065C129.206 29.4745 129.443 29.1279 129.683 28.66H129.908L129.254 30.5628H123.413V30.3578H123.682C123.86 30.3578 124.029 30.3153 124.19 30.2297C124.31 30.1709 124.391 30.0809 124.434 29.9597C124.476 29.8374 124.5 29.5943 124.5 29.222V24.3035C124.5 23.8198 124.449 23.5236 124.355 23.4097C124.216 23.2607 123.995 23.1856 123.682 23.1856H123.413V22.9823H129.263L129.339 24.6475H129.125C129.044 24.2485 128.957 23.9716 128.861 23.824C128.769 23.6718 128.628 23.559 128.441 23.4824C128.292 23.423 128.028 23.3953 127.654 23.3953H125.57ZM120.518 26.6729V24.3924C120.518 23.9626 120.49 23.6852 120.439 23.5647C120.387 23.4424 120.279 23.3509 120.118 23.2858C119.959 23.2233 119.725 23.1893 119.417 23.1856V22.9823H122.689V23.1856C122.376 23.1893 122.138 23.2233 121.982 23.2858C121.825 23.3509 121.721 23.4464 121.668 23.5757C121.616 23.7046 121.589 23.9767 121.589 24.3924V29.1523C121.589 29.589 121.621 29.8711 121.683 29.9954C121.745 30.116 121.849 30.2064 121.995 30.2608C122.144 30.3153 122.376 30.3464 122.689 30.3578V30.5628H119.417V30.3578C119.746 30.3507 119.984 30.3162 120.13 30.2552C120.275 30.1943 120.377 30.1022 120.431 29.9836C120.49 29.8618 120.518 29.5851 120.518 29.1523V27.1205C119.58 27.5408 118.814 27.7526 118.221 27.7526C117.777 27.7526 117.419 27.6646 117.141 27.4904C116.864 27.3153 116.69 27.1244 116.622 26.9174C116.553 26.7097 116.518 26.2977 116.518 25.6795V24.3924C116.518 23.9703 116.49 23.6956 116.436 23.5667C116.383 23.44 116.273 23.3458 116.113 23.2825C115.95 23.2233 115.718 23.1893 115.42 23.1856V22.9823H118.695V23.1856C118.378 23.1856 118.138 23.2216 117.973 23.2915C117.803 23.363 117.697 23.4677 117.655 23.6093C117.612 23.7479 117.592 24.0087 117.592 24.3891V25.4411C117.592 25.934 117.62 26.2847 117.675 26.4929C117.732 26.6998 117.845 26.8577 118.015 26.9664C118.186 27.0774 118.405 27.1327 118.67 27.1327C119.228 27.1327 119.843 26.9808 120.518 26.6729ZM112.788 24.2332C112.788 23.7777 112.715 23.4892 112.568 23.3672C112.421 23.2461 112.123 23.1856 111.675 23.1856V22.9823H114.958V23.1856C114.488 23.202 114.188 23.2755 114.057 23.4097C113.927 23.5432 113.861 23.8604 113.861 24.3607V29.1837C113.861 29.6812 113.927 30.0004 114.057 30.1337C114.188 30.2695 114.488 30.3449 114.958 30.3578V30.5628H111.675V30.3578C112.156 30.3449 112.462 30.2695 112.594 30.1304C112.723 29.9954 112.788 29.6793 112.788 29.1837V24.8335L109.276 29.3379C109.279 29.6612 109.301 29.8812 109.338 29.9913C109.379 30.1021 109.472 30.1878 109.612 30.2515C109.754 30.3153 110.011 30.3507 110.372 30.3578V30.5628H107.105V30.3578C107.575 30.3449 107.875 30.2695 108.005 30.1337C108.135 30.0004 108.202 29.6812 108.202 29.1837V24.3607C108.202 23.8604 108.135 23.5432 108.005 23.4097C107.875 23.2755 107.575 23.202 107.105 23.1856V22.9823H110.372V23.1856C109.9 23.202 109.599 23.2755 109.472 23.4097C109.34 23.5432 109.276 23.8604 109.276 24.3607V28.7283L112.788 24.2332ZM106.245 22.9823L106.321 24.7564H106.11C106.066 24.4431 106.014 24.2203 105.941 24.0842C105.826 23.8702 105.673 23.7108 105.481 23.6086C105.29 23.5049 105.039 23.4523 104.728 23.4523H103.663V29.2477C103.663 29.7151 103.714 30.0071 103.817 30.1233C103.957 30.2794 104.174 30.3578 104.468 30.3578H104.733V30.5628H101.52V30.3578H101.785C102.105 30.3578 102.335 30.2613 102.468 30.0668C102.55 29.948 102.59 29.6742 102.59 29.2477V23.4523H101.681C101.329 23.4523 101.078 23.4824 100.928 23.5325C100.733 23.603 100.568 23.7383 100.432 23.9399C100.292 24.1405 100.209 24.4135 100.183 24.7564H99.9708L100.062 22.9823H106.245ZM98.5908 22.809L98.7659 25.3841H98.5908C98.36 24.6108 98.0329 24.054 97.6064 23.7145C97.1771 23.374 96.6632 23.2043 96.0661 23.2043C95.5643 23.2043 95.1081 23.3328 94.7039 23.5856C94.2998 23.8444 93.9795 24.2514 93.7485 24.8119C93.515 25.3704 93.4003 26.0667 93.4003 26.8974C93.4003 27.5838 93.5093 28.1786 93.7262 28.682C93.9479 29.1877 94.2774 29.5706 94.7188 29.8412C95.1582 30.1096 95.6612 30.2441 96.2283 30.2441C96.7172 30.2441 97.152 30.1369 97.5264 29.9266C97.9017 29.716 98.315 29.2994 98.7659 28.6735L98.9354 28.7876C98.5598 29.4609 98.1158 29.9533 97.6085 30.2656C97.1036 30.5794 96.5049 30.7354 95.8074 30.7354C94.5522 30.7354 93.581 30.2695 92.8919 29.3379C92.3777 28.6458 92.121 27.8287 92.121 26.8891C92.121 26.1327 92.2922 25.4388 92.6295 24.8034C92.9684 24.1713 93.433 23.6791 94.026 23.3315C94.62 22.984 95.2702 22.809 95.9724 22.809C96.5198 22.809 97.0589 22.9422 97.5914 23.2097C97.7491 23.2915 97.8579 23.3328 97.925 23.3328C98.0256 23.3328 98.1147 23.2955 98.1858 23.2247C98.2846 23.1279 98.3543 22.986 98.3962 22.809H98.5908ZM89.0385 24.2332C89.0385 23.7777 88.965 23.4892 88.817 23.3672C88.6698 23.2461 88.371 23.1856 87.9275 23.1856V22.9823H91.2111V23.1856C90.7382 23.202 90.4362 23.2755 90.3059 23.4097C90.1764 23.5432 90.1113 23.8604 90.1113 24.3607V29.1837C90.1113 29.6812 90.1764 30.0004 90.3059 30.1337C90.4362 30.2695 90.7382 30.3449 91.2111 30.3578V30.5628H87.9275V30.3578C88.4064 30.3449 88.7118 30.2695 88.8411 30.1304C88.9735 29.9954 89.0385 29.6793 89.0385 29.1837V24.8335L85.526 29.3379C85.528 29.6612 85.5494 29.8812 85.5877 29.9913C85.6276 30.1021 85.7189 30.1878 85.8623 30.2515C86.0028 30.3153 86.2599 30.3507 86.6222 30.3578V30.5628H83.3519V30.3578C83.824 30.3449 84.1249 30.2695 84.2552 30.1337C84.3854 30.0004 84.4516 29.6812 84.4516 29.1837V24.3607C84.4516 23.8604 84.3854 23.5432 84.2552 23.4097C84.1249 23.2755 83.824 23.202 83.3519 23.1856V22.9823H86.6222V23.1856C86.1511 23.202 85.8513 23.2755 85.7189 23.4097C85.5877 23.5432 85.526 23.8604 85.526 24.3607V28.7283L89.0385 24.2332ZM68.2528 22.9823H71.3265V23.1856C70.7835 23.2074 70.5134 23.3535 70.5134 23.623C70.5134 23.8136 70.7137 24.2594 71.1142 24.9554L72.7634 27.8621L73.9656 24.9554C74.2132 24.3431 74.3396 23.9339 74.3396 23.7239C74.3396 23.4334 74.1043 23.2512 73.632 23.1856V22.9823H76.0206V23.1856C75.4592 23.2512 75.0309 23.6337 74.7384 24.3266L73.3033 27.7765C72.9309 28.66 72.6281 29.2888 72.3927 29.6606C72.1552 30.0311 71.8991 30.3032 71.6227 30.4768C71.3441 30.6498 71.0557 30.7354 70.7555 30.7354C70.4987 30.7354 70.2807 30.6813 70.102 30.5699C69.9241 30.4605 69.8366 30.3126 69.8366 30.1219C69.8366 29.9854 69.885 29.8712 69.9772 29.7786C70.0703 29.6895 70.1949 29.6434 70.3561 29.6434C70.5118 29.6434 70.697 29.7065 70.9148 29.8334C71.0583 29.9101 71.1691 29.95 71.2426 29.95C71.5351 29.95 71.8645 29.642 72.2324 29.0223L69.4809 24.1977C69.287 23.8566 69.1059 23.6144 68.9344 23.4728C68.763 23.3299 68.5348 23.2331 68.2528 23.1856V22.9823Z" fill="#E31E24"/>
<path d="M229.386 31.085C229.798 31.0425 230.134 30.9344 230.394 30.7711C230.65 30.6043 230.957 30.271 231.312 29.7706L232.885 27.6001C232.248 27.4574 231.781 27.2144 231.476 26.8731C231.172 26.5304 231.021 26.125 231.021 25.6583C231.021 25.2211 231.153 24.8467 231.421 24.5313C231.687 24.2155 232.008 24.0004 232.391 23.8825C232.776 23.7643 233.365 23.707 234.17 23.707H236.933V23.9103H236.647C236.363 23.9103 236.144 23.9914 235.999 24.1583C235.897 24.2732 235.846 24.5694 235.846 25.0472V29.9488C235.846 30.382 235.885 30.6564 235.959 30.7718C236.098 30.9808 236.326 31.085 236.647 31.085H236.933V31.2901H233.686V31.085H233.982C234.262 31.085 234.474 31.0032 234.615 30.8402C234.72 30.724 234.77 30.4264 234.77 29.9488V27.7442L234.601 27.7524L234.446 27.7557C234.326 27.7557 234.175 27.7524 233.987 27.7442L231.414 31.2901H229.386V31.085ZM234.77 24.2363C234.405 24.1685 234.115 24.1334 233.903 24.1334C233.418 24.1334 233.034 24.282 232.737 24.5773C232.446 24.8756 232.3 25.2587 232.3 25.7329C232.3 26.2158 232.478 26.6166 232.843 26.9286C233.206 27.2414 233.748 27.3975 234.461 27.3975L234.588 27.3967L234.77 27.3933V24.2363ZM226.829 24.9584C226.829 24.5028 226.758 24.2142 226.608 24.0921C226.462 23.9709 226.166 23.9103 225.718 23.9103V23.707H229.003V23.9103C228.531 23.9269 228.232 24.0004 228.099 24.1345C227.968 24.268 227.902 24.5854 227.902 25.086V29.9106C227.902 30.4082 227.968 30.7275 228.099 30.8609C228.232 30.9967 228.531 31.0721 229.003 31.085V31.2901H225.718V31.085C226.199 31.0721 226.506 30.9967 226.634 30.8576C226.765 30.7224 226.829 30.4063 226.829 29.9106V25.5588L223.315 30.0647C223.318 30.3881 223.342 30.6082 223.379 30.7184C223.419 30.8292 223.511 30.915 223.654 30.9787C223.798 31.0425 224.049 31.0779 224.415 31.085V31.2901H221.14V31.085C221.614 31.0721 221.913 30.9967 222.047 30.8609C222.176 30.7275 222.244 30.4082 222.244 29.9106V25.086C222.244 24.5854 222.176 24.268 222.047 24.1345C221.913 24.0004 221.614 23.9269 221.14 23.9103V23.707H224.415V23.9103C223.941 23.9269 223.64 24.0004 223.511 24.1345C223.379 24.268 223.315 24.5854 223.315 25.086V29.455L226.829 24.9584ZM214.736 27.2206H218.254V25.0472C218.254 24.6608 218.23 24.4064 218.183 24.284C218.144 24.1908 218.065 24.1098 217.948 24.0448C217.785 23.956 217.618 23.9103 217.437 23.9103H217.17V23.707H220.415V23.9103H220.143C219.969 23.9103 219.797 23.9552 219.635 24.039C219.517 24.0978 219.435 24.1879 219.392 24.3097C219.35 24.4297 219.329 24.6767 219.329 25.0472V29.9488C219.329 30.3336 219.354 30.5866 219.404 30.7107C219.441 30.8021 219.513 30.8835 219.631 30.9538C219.797 31.0425 219.969 31.085 220.143 31.085H220.415V31.2901H217.17V31.085H217.437C217.745 31.085 217.973 30.995 218.115 30.8105C218.212 30.6931 218.254 30.4031 218.254 29.9488V27.6351H214.736V29.9488C214.736 30.3336 214.759 30.5866 214.808 30.7107C214.843 30.8021 214.921 30.8835 215.041 30.9538C215.2 31.0425 215.371 31.085 215.549 31.085H215.82V31.2901H212.575V31.085H212.845C213.159 31.085 213.383 30.995 213.528 30.8105C213.618 30.6931 213.66 30.4031 213.66 29.9488V25.0472C213.66 24.6608 213.639 24.4064 213.588 24.284C213.552 24.1908 213.475 24.1098 213.359 24.0448C213.195 23.956 213.023 23.9103 212.845 23.9103H212.575V23.707H215.82V23.9103H215.549C215.371 23.9103 215.2 23.9552 215.041 24.039C214.928 24.0978 214.847 24.1879 214.801 24.3097C214.756 24.4297 214.736 24.6767 214.736 25.0472V27.2206ZM209.081 28.7608H206.127L205.617 29.9488C205.489 30.245 205.427 30.4641 205.427 30.6097C205.427 30.7262 205.482 30.8263 205.593 30.915C205.701 31.0018 205.941 31.0587 206.303 31.085V31.2901H203.911V31.085C204.229 31.0295 204.434 30.9568 204.526 30.8663C204.716 30.6868 204.927 30.3226 205.158 29.7727L207.834 23.5337H208.03L210.67 29.8424C210.883 30.3516 211.077 30.6788 211.249 30.8306C211.423 30.9824 211.665 31.0664 211.974 31.085V31.2901H208.983V31.085C209.285 31.0721 209.488 31.0205 209.595 30.9344C209.702 30.849 209.752 30.7441 209.752 30.619C209.752 30.4547 209.681 30.1952 209.531 29.841L209.081 28.7608ZM208.905 28.3443L207.627 25.2802L206.307 28.3443H208.905ZM201.163 24.1202H197.652V29.9106C197.652 30.4082 197.714 30.7275 197.844 30.8609C197.973 30.9967 198.273 31.0721 198.749 31.085V31.2901H195.477V31.085C195.951 31.0721 196.248 30.9967 196.38 30.8609C196.511 30.7275 196.574 30.4082 196.574 29.9106V25.086C196.574 24.5854 196.511 24.268 196.38 24.1345C196.248 24.0004 195.951 23.9269 195.477 23.9103V23.707H203.337V23.9103C202.868 23.9269 202.565 24.0004 202.435 24.1345C202.305 24.268 202.238 24.5854 202.238 25.086V29.9106C202.238 30.4082 202.305 30.7275 202.435 30.8609C202.565 30.9967 202.868 31.0721 203.337 31.085V31.2901H200.079V31.085C200.541 31.0721 200.841 30.9975 200.97 30.864C201.099 30.7327 201.163 30.4135 201.163 29.9106V24.1202ZM189.489 31.2901L186.563 24.9094V29.9745C186.563 30.4421 186.613 30.7342 186.715 30.8505C186.852 31.0065 187.069 31.085 187.368 31.085H187.635V31.2901H184.998V31.085H185.266C185.587 31.085 185.812 30.9885 185.948 30.7938C186.03 30.6751 186.072 30.4011 186.072 29.9745V25.0221C186.072 24.6868 186.034 24.4418 185.961 24.2916C185.907 24.1835 185.811 24.0921 185.671 24.0199C185.533 23.9482 185.308 23.9103 184.998 23.9103V23.707H187.151L189.892 29.6365L192.599 23.707H194.741V23.9103H194.48C194.155 23.9103 193.924 24.0073 193.792 24.2029C193.708 24.3207 193.668 24.5953 193.668 25.0221V29.9745C193.668 30.4421 193.721 30.7342 193.826 30.8505C193.961 31.0065 194.18 31.085 194.48 31.085H194.741V31.2901H191.524V31.085H191.792C192.116 31.085 192.343 30.9885 192.473 30.7938C192.555 30.6751 192.594 30.4011 192.594 29.9745V24.9094L189.675 31.2901H189.489ZM180.441 23.5337C181.421 23.5337 182.273 23.9068 182.999 24.6546C183.716 25.4023 184.077 26.3347 184.077 27.4533C184.077 28.6056 183.714 29.5614 182.986 30.3226C182.26 31.0836 181.382 31.4627 180.35 31.4627C179.304 31.4627 178.431 31.0915 177.72 30.3516C177.008 29.6078 176.653 28.6477 176.653 27.4707C176.653 26.2667 177.063 25.283 177.881 24.523C178.595 23.8632 179.448 23.5337 180.441 23.5337ZM180.333 23.9422C179.651 23.9422 179.109 24.1925 178.695 24.6967C178.187 25.3235 177.932 26.2416 177.932 27.4489C177.932 28.6871 178.198 29.6392 178.725 30.3077C179.133 30.8119 179.67 31.0664 180.34 31.0664C181.049 31.0664 181.639 30.7878 182.101 30.2355C182.568 29.6782 182.803 28.8039 182.803 27.6044C182.803 26.3076 182.545 25.3405 182.032 24.7018C181.624 24.1976 181.055 23.9422 180.333 23.9422ZM176.214 31.0836V31.2901H174.255C174.046 30.9517 173.595 30.3121 172.915 29.3681C172.232 28.4268 171.817 27.9054 171.669 27.8011C171.518 27.6989 171.293 27.6469 170.992 27.6425V29.9106C170.992 30.4082 171.054 30.7275 171.184 30.8609C171.311 30.9967 171.613 31.0721 172.089 31.085V31.2901H168.816V31.085C169.284 31.0721 169.584 30.9975 169.716 30.864C169.851 30.7327 169.914 30.4135 169.914 29.9106V25.086C169.914 24.5854 169.851 24.268 169.721 24.1345C169.588 24.0004 169.287 23.9269 168.816 23.9103V23.707H172.089V23.9103C171.613 23.9269 171.311 24.0004 171.184 24.1345C171.054 24.268 170.992 24.5854 170.992 25.086V27.208C171.395 27.2038 171.676 27.1773 171.836 27.1253C171.99 27.0742 172.168 26.9602 172.364 26.7816C172.558 26.602 172.713 26.4093 172.831 26.2019C172.94 25.9923 173.085 25.6533 173.266 25.1793C173.433 24.7345 173.572 24.4258 173.677 24.2517C173.784 24.0783 173.956 23.929 174.192 23.8038C174.425 23.6799 174.706 23.6162 175.031 23.6162C175.603 23.6162 175.891 23.8178 175.891 24.2203C175.891 24.364 175.835 24.4871 175.719 24.5903C175.608 24.6954 175.476 24.7479 175.332 24.7479C175.225 24.7479 175.053 24.6877 174.805 24.5694C174.59 24.4632 174.438 24.4102 174.351 24.4102C174.234 24.4102 174.132 24.4712 174.046 24.5953C173.959 24.7198 173.825 25.0376 173.636 25.5494C173.278 26.5023 172.819 27.1059 172.262 27.3645C172.607 27.4239 173.074 27.8885 173.674 28.7565C174.313 29.6782 174.779 30.2926 175.078 30.6023C175.379 30.9116 175.756 31.0721 176.214 31.0836Z" fill="#E31E24"/>
</svg>
