<svg width="180" height="38" viewBox="0 0 180 38" fill="none" xmlns="http://www.w3.org/2000/svg">
<path d="M-0.602722 17.8814V0.527832H7.85949C8.98779 0.527832 9.89208 0.866644 10.5724 1.54425C11.2527 2.22187 11.5928 3.1226 11.5928 4.24646V5.486C11.5928 6.64291 11.1946 7.53537 10.3981 8.16342C10.0663 8.42785 9.67637 8.60965 9.22838 8.70882V8.95673C9.69295 9.05588 10.1492 9.24595 10.5973 9.52692C11.5099 10.1715 11.9661 11.1382 11.9661 12.4274V14.1628C11.9661 15.2866 11.626 16.1874 10.9457 16.8649C10.2654 17.5427 9.3611 17.8814 8.23281 17.8814H-0.602722ZM3.1306 14.6587H6.73948C7.73504 14.6587 8.23281 14.1628 8.23281 13.1713V12.0556C8.23281 11.0639 7.73504 10.5682 6.73948 10.5682H3.1306V14.6587ZM3.1306 7.46928H6.36616C7.36171 7.46928 7.85949 6.97346 7.85949 5.98183V5.23809C7.85949 4.24646 7.36171 3.75063 6.36616 3.75063H3.1306V7.46928ZM16.3304 14.1628V4.24646C16.3304 3.1226 16.6705 2.22187 17.3509 1.54425C18.0312 0.866644 18.9355 0.527832 20.0638 0.527832H28.1527V2.88296L27.0326 3.99855H21.5571C20.5615 3.99855 20.0638 4.49437 20.0638 5.486V12.9232C20.0638 13.9149 20.5615 14.4106 21.5571 14.4106H28.1527V17.8814H20.0638C18.9355 17.8814 18.0312 17.5427 17.3509 16.8649C16.6705 16.1874 16.3304 15.2866 16.3304 14.1628ZM32.6434 17.8814V0.527832H43.9677V2.88296L42.8477 3.99855H36.3767V7.46928H41.4788V10.8161H36.3767V14.4106H43.9677V17.8814H32.6434ZM56.6533 17.8814V0.527832H68.2265V2.88296L67.1065 3.99855H60.3867V7.22137H65.7376C66.8661 7.22137 67.7702 7.56018 68.4507 8.23779C69.1309 8.91541 69.471 9.81614 69.471 10.94V14.1628C69.471 15.2866 69.1309 16.1874 68.4507 16.8649C67.7702 17.5427 66.8661 17.8814 65.7376 17.8814H56.6533ZM60.3867 14.6587H64.2443C65.2399 14.6587 65.7376 14.1628 65.7376 13.1713V11.9317C65.7376 10.94 65.2399 10.4443 64.2443 10.4443H60.3867V14.6587ZM77.696 11.1879H81.6783L79.8117 3.87459H79.5626L77.696 11.1879ZM72.3449 17.8814V16.1461L77.3227 0.527832H82.0515L87.0294 16.1461V17.8814H83.4204L82.5494 14.4106H76.8248L75.9539 17.8814H72.3449ZM90.8958 17.8814V0.527832H94.6292V7.34532H100.354V0.527832H104.087V17.8814H100.354V10.8161H94.6292V17.8814H90.8958ZM109.317 17.8814V0.527832H113.051V7.34532H115.789L119.273 0.527832H122.509V2.38714L119.024 8.83278L122.758 16.0222V17.8814H119.273L115.789 10.94H113.051V17.8814H109.317ZM126.986 17.8814V0.527832H130.719V8.46091L130.346 11.5597H130.594L136.692 0.527832H140.301V17.8814H136.568V9.94836L136.941 6.8495H136.692L130.594 17.8814H126.986Z" fill="#222222"/>
<path d="M152.995 17.8814V14.6587L159.342 8.213C159.607 7.94857 159.79 7.75023 159.889 7.61802C160.006 7.4858 160.105 7.27921 160.188 6.99824C160.288 6.71728 160.337 6.37848 160.337 5.98183V5.486C160.337 4.49437 159.84 3.99855 158.844 3.99855H154.364L153.244 2.88296V0.527832H160.337C161.466 0.527832 162.37 0.866644 163.05 1.54425C163.731 2.22187 164.071 3.1226 164.071 4.24646V6.60159C164.071 7.18004 163.98 7.70065 163.797 8.16342C163.631 8.62617 163.449 8.97325 163.25 9.20463C163.067 9.43602 162.76 9.76657 162.329 10.1963L158.222 14.2867V14.4106H164.071V17.8814H152.995ZM167.057 14.4106V11.1879L172.284 0.527832H175.271V2.38714L171.164 10.8161V10.94H174.649V7.22137H178.009V10.94H180V14.4106H178.009V17.8814H174.275V14.4106H167.057Z" fill="#71B5E7"/>
<path d="M0.19429 36.5551V36.1856L0.704268 30.09H1.67785L3.04088 34.5232H3.08724L4.41318 30.09H5.38678L5.89676 36.1856V36.5551H5.15497L4.75627 31.4292H4.70991L3.43959 35.6316H2.65144L1.38114 31.4292H1.33478L0.936077 36.5551H0.19429ZM6.91526 36.5551V31.9372H7.65704V33.5073H8.86245C9.19008 33.5073 9.45588 33.612 9.65987 33.8213C9.87004 34.0244 9.97512 34.2893 9.97512 34.6157V35.4468C9.97512 35.7731 9.87004 36.041 9.65987 36.2503C9.45588 36.4535 9.19008 36.5551 8.86245 36.5551H6.91526ZM7.65704 35.8625H8.677C9.0479 35.8625 9.23335 35.6776 9.23335 35.3083V34.7541C9.23335 34.3848 9.0479 34.1999 8.677 34.1999H7.65704V35.8625ZM10.7169 36.5551V31.9372H11.4587V36.5551H10.7169ZM14.4309 36.5551V31.9372H16.5636C16.8912 31.9372 17.157 32.0418 17.361 32.2513C17.5711 32.4545 17.6761 32.7192 17.6761 33.0455V33.2764C17.6761 33.5535 17.5741 33.7875 17.3702 33.9784C17.2962 34.046 17.1972 34.1046 17.0736 34.1537V34.1999C17.222 34.2553 17.3362 34.317 17.4166 34.3848C17.6514 34.5695 17.7689 34.8158 17.7689 35.1236V35.4468C17.7689 35.7731 17.6639 36.041 17.4537 36.2503C17.2498 36.4535 16.9838 36.5551 16.6562 36.5551H14.4309ZM15.1727 33.8768H16.3782C16.749 33.8768 16.9344 33.692 16.9344 33.3226V33.184C16.9344 32.8147 16.749 32.6298 16.3782 32.6298H15.1727V33.8768ZM15.1727 35.8625H16.4708C16.8418 35.8625 17.0272 35.6776 17.0272 35.3083V35.1236C17.0272 34.7541 16.8418 34.5695 16.4708 34.5695H15.1727V35.8625ZM18.6495 35.4468V33.0455C18.6495 32.7192 18.7515 32.4545 18.9555 32.2513C19.1656 32.0418 19.4344 31.9372 19.7621 31.9372H21.4776V32.3989L21.2458 32.6298H19.9477C19.5767 32.6298 19.3913 32.8147 19.3913 33.184V35.3083C19.3913 35.6776 19.5767 35.8625 19.9477 35.8625H21.4776V36.5551H19.7621C19.4344 36.5551 19.1656 36.4535 18.9555 36.2503C18.7515 36.041 18.6495 35.7731 18.6495 35.4468ZM22.9136 34.0153H24.7681V33.0918C24.7681 32.7222 24.5827 32.5376 24.2117 32.5376H23.4699C23.0992 32.5376 22.9136 32.7222 22.9136 33.0918V34.0153ZM22.1718 35.4468V32.9531C22.1718 32.6268 22.2738 32.3621 22.4778 32.1589C22.6879 31.9496 22.9569 31.8449 23.2846 31.8449H24.3971C24.7248 31.8449 24.9907 31.9496 25.1947 32.1589C25.4048 32.3621 25.5099 32.6268 25.5099 32.9531V34.7079H22.9136V35.3083C22.9136 35.6776 23.0992 35.8625 23.4699 35.8625H25.3245V36.5551H23.2846C22.9569 36.5551 22.6879 36.4535 22.4778 36.2503C22.2738 36.041 22.1718 35.7731 22.1718 35.4468ZM26.5285 36.5551V31.9372H29.2638V32.3989L29.032 32.6298H27.2702V36.5551H26.5285ZM29.078 37.6635V35.8625H29.3098C29.4024 35.8132 29.4796 35.7393 29.5416 35.6408C29.6961 35.4437 29.7889 35.1636 29.8197 34.8003L30.0515 31.9372H32.8332V35.8625H33.3432V37.6635H32.6014V36.5551H29.8197V37.6635H29.078ZM30.1443 35.8625H32.0914V32.6298H30.7469L30.5615 34.8003C30.5306 35.1389 30.4534 35.4007 30.3297 35.5854C30.2803 35.6776 30.2183 35.7546 30.1443 35.8163V35.8625ZM33.9492 35.5392V34.8928C33.9492 34.5664 34.0512 34.3015 34.2552 34.0983C34.4653 33.889 34.7341 33.7844 35.0618 33.7844H36.4991V33.184C36.4991 32.8147 36.3135 32.6298 35.9427 32.6298H34.32V31.9372H36.1281C36.4558 31.9372 36.7215 32.0418 36.9255 32.2513C37.1358 32.4545 37.2409 32.7192 37.2409 33.0455V36.5551H36.6845L36.5453 36.0472H36.4991C36.4558 36.1579 36.3877 36.2595 36.2951 36.3519C36.0973 36.549 35.8561 36.6476 35.5718 36.6476H35.0618C34.7341 36.6476 34.4653 36.546 34.2552 36.3428C34.0512 36.1333 33.9492 35.8655 33.9492 35.5392ZM35.2472 35.9547H35.6645C35.9241 35.9547 36.1281 35.8808 36.2765 35.7332C36.4249 35.5854 36.4991 35.3822 36.4991 35.1236V34.477H35.2472C34.8764 34.477 34.691 34.6617 34.691 35.0312V35.4007C34.691 35.7701 34.8764 35.9547 35.2472 35.9547Z" fill="#222222"/>
<path d="M41.4641 35.9538H42.2522C42.6232 35.9538 42.8086 35.7691 42.8086 35.3998V33.0908C42.8086 32.7213 42.6232 32.5366 42.2522 32.5366H41.4641C41.0933 32.5366 40.9079 32.7213 40.9079 33.0908V35.3998C40.9079 35.7691 41.0933 35.9538 41.4641 35.9538ZM40.1659 35.5383V32.9522C40.1659 32.6258 40.2679 32.3611 40.4719 32.158C40.6822 31.9487 40.951 31.844 41.2787 31.844H42.4378C42.7653 31.844 43.0312 31.9487 43.2352 32.158C43.4453 32.3611 43.5504 32.6258 43.5504 32.9522V35.5383C43.5504 35.8646 43.4453 36.1323 43.2352 36.3418C43.0312 36.545 42.7653 36.6466 42.4378 36.6466H41.2787C40.951 36.6466 40.6822 36.545 40.4719 36.3418C40.2679 36.1323 40.1659 35.8646 40.1659 35.5383ZM44.6131 36.5542V31.9362H45.3549V33.8297H47.2094V31.9362H47.9511V36.5542H47.2094V34.5223H45.3549V36.5542H44.6131ZM48.4191 36.6466V35.9538H48.6045C48.8147 35.9538 48.9692 35.8954 49.0681 35.7783C49.167 35.6553 49.229 35.4367 49.2537 35.1227L49.5319 31.9362H52.3136V36.5542H51.5718V32.6289H50.2273L49.9955 35.3074C49.9151 36.2001 49.5133 36.6466 48.7899 36.6466H48.4191ZM53.2382 35.5383V34.8918C53.2382 34.5655 53.3402 34.3006 53.5442 34.0974C53.7543 33.8881 54.0233 33.7835 54.3508 33.7835H55.7881V33.1831C55.7881 32.8137 55.6025 32.6289 55.2317 32.6289H53.609V31.9362H55.4171C55.7448 31.9362 56.0105 32.0409 56.2145 32.2504C56.4248 32.4536 56.5299 32.7183 56.5299 33.0446V36.5542H55.9735L55.8345 36.0462H55.7881C55.7448 36.157 55.6767 36.2586 55.5841 36.351C55.3863 36.5481 55.1453 36.6466 54.8608 36.6466H54.3508C54.0233 36.6466 53.7543 36.545 53.5442 36.3418C53.3402 36.1323 53.2382 35.8646 53.2382 35.5383ZM54.5364 35.9538H54.9536C55.2131 35.9538 55.4171 35.8799 55.5655 35.7323C55.7139 35.5845 55.7881 35.3813 55.7881 35.1227V34.4761H54.5364C54.1654 34.4761 53.98 34.6608 53.98 35.0303V35.3998C53.98 35.7691 54.1654 35.9538 54.5364 35.9538ZM57.6432 36.5542V31.9362H58.385V34.4761L58.3388 35.3074H58.385L60.2859 31.9362H61.0277V36.5542H60.2859V34.0143L60.3229 33.1831H60.2859L58.385 36.5542H57.6432ZM58.1068 30.2739V29.8121H58.756V30.1352C58.756 30.2769 58.7807 30.3755 58.8302 30.4309C58.8858 30.4801 58.9847 30.5048 59.1267 30.5048H59.4977C59.64 30.5048 59.7357 30.4801 59.7851 30.4309C59.8407 30.3755 59.8687 30.2769 59.8687 30.1352V29.8121H60.5177V30.2739C60.5177 30.5325 60.4435 30.7356 60.2951 30.8835C60.1467 31.0313 59.9427 31.105 59.6831 31.105H58.9414C58.6818 31.105 58.4778 31.0313 58.3294 30.8835C58.181 30.7356 58.1068 30.5325 58.1068 30.2739ZM62.1437 36.5542V31.9362H62.8854V33.8297H64.7398V31.9362H65.4817V36.5542H64.7398V34.5223H62.8854V36.5542H62.1437Z" fill="#71B5E7"/>
<path d="M179.066 23.7698H-0.136963V25.6291H179.066V23.7698Z" fill="#71B5E7"/>
</svg>
