<svg width="148" height="30" viewBox="0 0 148 30" fill="none" xmlns="http://www.w3.org/2000/svg">
<path d="M24.0763 19.6662C24.0762 23.3058 22.0086 25.4827 18.6485 26.1774C17.7578 26.3612 16.2059 26.3774 15.1502 26.3783L7.09046 26.3219V29.3796L0 23.5209L7.09046 17.6601V20.7348L16.1425 20.8032C16.9985 20.8179 17.3598 20.3264 17.3598 19.8131C17.3598 18.8857 16.4752 18.571 13.9232 17.3616C9.81853 15.4175 6.60059 14.0122 6.60059 9.51662C6.60059 6.03443 9.11779 3.60768 12.8125 3.12483C13.565 3.02754 14.9392 2.99631 15.8441 3.01062C17.6978 3.04068 22.8689 3.1242 22.8689 3.1242V8.74055L14.3678 8.60159C13.6295 8.58944 13.268 9.06491 13.268 9.55685C13.268 10.2747 13.8565 10.5731 16.2589 11.7054C21.3048 14.0843 24.0763 15.3318 24.0763 19.6662ZM37.3624 19.2084C37.3624 20.2504 36.4704 21.1004 34.7594 21.1004C32.9983 21.1004 32.1562 20.2452 32.1562 19.2084V3.07983H25.317V19.7546C25.317 23.4519 28.3631 26.9264 34.759 26.9264C40.8194 26.9264 44.201 23.4802 44.201 19.7546V3.07983H37.3624V19.2084ZM65.5292 19.3205C65.5292 23.9454 62.4276 26.4256 57.8323 26.4256H46.3693V3.08037H57.4443C62.3877 3.08226 64.913 5.84859 64.913 9.47099C64.913 11.3367 64.0403 12.9089 62.3132 14.0717C64.3163 15.1907 65.5292 16.8705 65.5292 19.3205ZM53.1548 12.3527L56.3241 12.3537C57.5235 12.3537 58.0744 11.4818 58.0744 10.2621C58.0744 8.99444 57.509 8.17148 56.3241 8.17148H53.1548V12.3527ZM58.5846 19.0104C58.5846 17.6154 57.9385 16.7999 56.6568 16.7999H53.1548V21.2322H56.6568C57.9674 21.2312 58.5846 20.3513 58.5846 19.0104Z" fill="#FFC700"/>
<path d="M88.4405 3.07925H95.2666V19.5455C95.2666 23.3504 92.5631 26.8197 86.8585 26.8197C84.4227 26.8197 82.5301 26.0894 81.1435 24.9973C79.7809 26.0854 77.9531 26.8197 75.6624 26.8197C69.5622 26.8197 67.0684 23.3557 67.0684 19.5455V3.07925H73.8941V19.396C73.8941 20.0603 74.2722 20.9001 75.8078 20.9001C77.3633 20.9001 77.7569 20.1021 77.7569 19.396V3.07925H84.579V19.396C84.579 20.0833 84.9425 20.9001 86.5039 20.9001C88.0641 20.9001 88.4405 20.1177 88.4405 19.396V3.07925ZM124.616 12.2564L124.615 3.07979H117.847V12.9274C117.847 16.1857 120.076 18.6618 123.817 19.6742L123.818 26.4273H130.732V19.6742C134.532 18.6395 136.636 16.1732 136.636 12.9274V9.31633C136.636 8.97199 136.807 8.76634 137.203 8.76634L140.239 8.76553V11.7213L147.329 5.86043L140.239 0V2.93786H135.535C131.55 2.93786 129.871 5.24348 129.871 8.57581V12.2564C129.871 13.1355 129.273 14.1643 127.244 14.1643C125.214 14.1643 124.616 13.1355 124.616 12.2564ZM116.162 9.73825V26.4279H109.358V19.6641H104.192L104.193 26.4279H97.3901V9.73825C97.3901 5.54723 100.825 2.39768 106.775 2.39768C112.664 2.39768 116.162 5.52176 116.162 9.73825ZM109.36 14.3063L109.359 10.1384C109.359 9.02806 108.587 8.22796 106.777 8.22796C104.956 8.22796 104.194 9.03814 104.194 10.1384V14.3063H109.36Z" fill="#008A0E"/>
<path d="M135.013 24.9949C135.013 24.7821 134.844 24.6651 134.622 24.6605H134.006V25.8721H134.24V25.4205H134.522C134.674 25.4205 134.766 25.4942 134.766 25.6377V25.8721H135V25.5549C134.996 25.4248 134.922 25.3467 134.813 25.3164V25.3075C134.961 25.2337 135.013 25.1428 135.013 24.9949ZM134.557 25.2251H134.24V24.8602H134.557C134.67 24.8602 134.761 24.9169 134.761 25.0427C134.761 25.1643 134.67 25.2251 134.557 25.2251ZM134.47 24.0439C133.784 24.0439 133.224 24.6042 133.224 25.2901C133.224 25.9764 133.784 26.5365 134.47 26.5365C135.156 26.5365 135.716 25.9764 135.716 25.2901C135.716 24.6042 135.156 24.0439 134.47 24.0439ZM134.47 26.3193C133.906 26.3193 133.441 25.8547 133.441 25.2901C133.441 24.7259 133.906 24.261 134.47 24.261C135.035 24.261 135.499 24.7259 135.499 25.2901C135.499 25.8547 135.035 26.3193 134.47 26.3193Z" fill="#008A0E"/>
</svg>
