<svg width="165" height="48" viewBox="0 0 165 48" fill="none" xmlns="http://www.w3.org/2000/svg">
<path fill-rule="evenodd" clip-rule="evenodd" d="M23.2022 42.9192C7.79157 53.5086 -4.1359 44.94 1.36143 26.9766L2.42748 26.9642C-2.83444 44.2947 8.82559 51.5118 22.0748 42.0287L23.2022 42.9192Z" fill="#E03616"/>
<path fill-rule="evenodd" clip-rule="evenodd" d="M17.1709 4.48408C32.6915 -6.28964 44.5735 3.51001 38.8669 21.543L35.9999 21.5295C39.41 6.17651 29.9854 0.137581 18.0794 6.92219L17.1709 4.48408Z" fill="#37307D"/>
<path fill-rule="evenodd" clip-rule="evenodd" d="M26.118 27.3562L23.9329 21.4662L38.8878 21.4705V26.3074H28.6849V30.2352H37.3942V34.7777H28.6849V43.9731H21.7075V27.3562H26.118Z" fill="#37307D"/>
<path fill-rule="evenodd" clip-rule="evenodd" d="M17.2696 23.2644H9.44727L8.37155 26.9791H1.35498L9.7057 4.4762H17.1911L25.5454 26.9791H18.3609L17.2696 23.2644ZM15.83 18.3981L13.3737 10.3082L10.9311 18.3981H15.83Z" fill="#E03616"/>
<path d="M69.6776 26.1833H62.842L60.775 29.9785H57.1304L66.876 12.8021H70.8175L73.6152 29.9785H70.2516L69.6776 26.1833ZM69.2401 23.3239L68.2407 16.4093L64.0784 23.3239H69.2401ZM76.2041 17.5371H79.5677L80.4146 23.7318C80.6273 25.3274 80.7437 26.4433 80.7679 27.0831C81.2053 25.8114 81.8075 24.4677 82.578 23.0559L85.5644 17.5371H89.1406L81.4262 31.1982C80.7919 32.3301 80.2902 33.1219 79.9249 33.5737C79.5596 34.0297 79.1222 34.3856 78.6084 34.6415C78.0946 34.8975 77.4765 35.0295 76.758 35.0295C76.0436 35.0295 75.2409 34.9015 74.3458 34.6535L74.6387 32.146C75.0482 32.262 75.4455 32.322 75.8268 32.322C76.8624 32.322 77.7134 31.5422 78.3796 29.9785L76.2041 17.5371ZM97.0198 25.2915L100.299 25.8194C99.7572 27.2711 98.9585 28.3789 97.8987 29.1347C96.8432 29.8945 95.615 30.2704 94.2181 30.2704C92.6287 30.2704 91.3643 29.7985 90.4331 28.8547C89.5018 27.907 89.0323 26.6072 89.0323 24.9516C89.0323 23.5999 89.3172 22.3241 89.8792 21.1204C90.4451 19.9166 91.296 18.9728 92.432 18.2809C93.5679 17.5891 94.8162 17.2412 96.1729 17.2412C97.646 17.2412 98.822 17.6251 99.701 18.3929C100.576 19.1568 101.07 20.1645 101.182 21.4123L97.9711 21.7522C97.8908 21.0604 97.6781 20.5484 97.3288 20.2206C96.9797 19.8926 96.526 19.7286 95.9601 19.7286C95.3099 19.7286 94.6998 19.9686 94.1379 20.4525C93.5719 20.9364 93.1384 21.6602 92.8374 22.628C92.5363 23.5918 92.3838 24.4957 92.3838 25.3395C92.3838 26.0713 92.5645 26.6392 92.9257 27.0391C93.2869 27.4351 93.7366 27.635 94.2783 27.635C94.8203 27.635 95.342 27.439 95.8438 27.0512C96.3455 26.6592 96.7348 26.0713 97.0198 25.2915ZM116.081 12.5101L114.729 18.4729C115.503 17.661 116.479 17.2532 117.655 17.2532C118.839 17.2532 119.822 17.7251 120.601 18.6648C121.384 19.6086 121.773 20.8764 121.773 22.468C121.773 24.4837 121.175 26.2872 119.983 27.875C118.795 29.4666 117.354 30.2584 115.668 30.2584C114.54 30.2584 113.492 29.6945 112.529 28.5588L111.213 34.8535H107.909L109.178 29.1827C108.182 29.8986 107.223 30.2584 106.296 30.2584C105.112 30.2584 104.132 29.7906 103.358 28.8547C102.583 27.9149 102.194 26.6512 102.194 25.0596C102.194 22.98 102.784 21.1603 103.968 19.5967C105.152 18.037 106.561 17.2532 108.19 17.2532C109.475 17.2532 110.55 17.809 111.413 18.9168L112.754 12.5101H116.081ZM105.625 24.7515C105.625 25.5954 105.798 26.3073 106.139 26.8872C106.48 27.4631 106.946 27.751 107.544 27.751C108.311 27.751 108.997 27.2591 109.603 26.2713C110.205 25.2834 110.506 24.1197 110.506 22.784C110.506 21.7842 110.317 21.0404 109.936 20.5524C109.555 20.0645 109.125 19.8206 108.648 19.8206C107.921 19.8206 107.235 20.3525 106.593 21.4123C105.946 22.4761 105.625 23.5878 105.625 24.7515ZM113.46 24.8356C113.46 25.6075 113.629 26.2872 113.97 26.8752C114.311 27.459 114.781 27.751 115.375 27.751C116.142 27.751 116.828 27.2591 117.434 26.2713C118.036 25.2834 118.337 24.1197 118.337 22.784C118.337 21.8242 118.153 21.0884 117.779 20.5804C117.406 20.0726 116.972 19.8206 116.479 19.8206C115.76 19.8206 115.074 20.3485 114.428 21.4083C113.781 22.468 113.46 23.6078 113.46 24.8356ZM135.099 24.7996H126.63C126.622 24.9315 126.618 25.0355 126.618 25.1036C126.618 25.9313 126.854 26.5992 127.328 27.1071C127.806 27.615 128.384 27.8709 129.066 27.8709C130.186 27.8709 131.061 27.291 131.687 26.1353L134.709 26.6392C134.119 27.8509 133.337 28.7588 132.349 29.3627C131.366 29.9705 130.262 30.2704 129.042 30.2704C127.364 30.2704 125.999 29.7425 124.948 28.6828C123.9 27.627 123.374 26.2272 123.374 24.4837C123.374 22.78 123.848 21.2643 124.795 19.9366C126.088 18.141 127.934 17.2412 130.334 17.2412C131.864 17.2412 133.08 17.7131 133.979 18.6529C134.882 19.5967 135.332 20.9124 135.332 22.6081C135.332 23.4199 135.255 24.1517 135.099 24.7996ZM132.253 22.748C132.261 22.6 132.261 22.4881 132.261 22.408C132.261 21.4883 132.056 20.7965 131.639 20.3365C131.226 19.8766 130.668 19.6447 129.969 19.6447C129.271 19.6447 128.649 19.9046 128.095 20.4285C127.541 20.9524 127.167 21.7282 126.971 22.748H132.253ZM138.836 17.5371H142.035L141.766 18.8128C142.448 18.2489 143.086 17.849 143.68 17.6051C144.278 17.3651 144.917 17.2412 145.599 17.2412C146.907 17.2412 147.959 17.6931 148.754 18.5888C149.553 19.4887 149.95 20.8284 149.95 22.6081C149.95 24.8516 149.264 26.7431 147.891 28.2909C146.715 29.6106 145.322 30.2704 143.716 30.2704C142.063 30.2704 140.81 29.6026 139.968 28.2669L138.615 34.7255H135.239L138.836 17.5371ZM140.871 24.6716C140.871 25.6394 141.108 26.3912 141.581 26.9271C142.059 27.4631 142.617 27.727 143.259 27.727C143.813 27.727 144.351 27.527 144.868 27.1271C145.386 26.7232 145.816 26.0553 146.157 25.1235C146.498 24.1877 146.667 23.3239 146.667 22.528C146.667 21.5962 146.446 20.8844 145.996 20.3885C145.551 19.8926 144.985 19.6447 144.295 19.6447C143.648 19.6447 143.062 19.8726 142.536 20.3285C142.007 20.7884 141.597 21.4603 141.304 22.3441C141.015 23.2319 140.871 24.0078 140.871 24.6716ZM153.546 17.5371H156.745L156.476 18.8128C157.159 18.2489 157.797 17.849 158.391 17.6051C158.989 17.3651 159.627 17.2412 160.31 17.2412C161.618 17.2412 162.67 17.6931 163.464 18.5888C164.263 19.4887 164.661 20.8284 164.661 22.6081C164.661 24.8516 163.974 26.7431 162.601 28.2909C161.425 29.6106 160.033 30.2704 158.427 30.2704C156.773 30.2704 155.521 29.6026 154.678 28.2669L153.326 34.7255H149.95L153.546 17.5371ZM155.581 24.6716C155.581 25.6394 155.818 26.3912 156.292 26.9271C156.769 27.4631 157.327 27.727 157.969 27.727C158.523 27.727 159.061 27.527 159.579 27.1271C160.097 26.7232 160.526 26.0553 160.867 25.1235C161.209 24.1877 161.377 23.3239 161.377 22.528C161.377 21.5962 161.156 20.8844 160.707 20.3885C160.261 19.8926 159.695 19.6447 159.005 19.6447C158.359 19.6447 157.773 19.8726 157.247 20.3285C156.717 20.7884 156.308 21.4603 156.015 22.3441C155.726 23.2319 155.581 24.0078 155.581 24.6716Z" fill="#37307D"/>
</svg>
