<svg width="163" height="155" viewBox="0 0 163 155" fill="none" xmlns="http://www.w3.org/2000/svg">
<g clip-path="url(#clip0)" filter="url(#filter0_d)">
<path d="M75.1298 18.3042L75.1299 18.3042C77.1734 18.0626 79.2613 17.9399 81.3349 17.9399C110.099 17.9399 133.5 41.2686 133.5 69.9396C133.5 98.6106 110.1 121.94 81.3353 121.94C70.5793 121.94 60.2534 118.703 51.471 112.58C42.8882 106.596 36.3739 98.3038 32.6298 88.5986C32.2455 87.6023 32.7442 86.482 33.7484 86.098L33.7485 86.098C34.7542 85.7131 35.8793 86.2141 36.2641 87.2116L36.7305 87.0316L36.2641 87.2116C39.7297 96.1945 45.7617 103.871 53.7053 109.41C61.8297 115.074 71.3851 118.068 81.3353 118.068C107.952 118.068 129.607 96.4798 129.607 69.9399C129.607 43.4004 107.952 21.8122 81.3353 21.8122C79.4145 21.8122 77.4815 21.9254 75.5893 22.149L75.5878 22.1491C74.523 22.278 73.5536 21.5156 73.4269 20.4544C73.3004 19.3948 74.0609 18.4302 75.1298 18.3042Z" fill="#FF7369" stroke="#1A1A1A" stroke-width="0.999998"/>
<path d="M33.9006 76.7668L33.9005 76.7668C33.5639 74.497 33.3928 72.174 33.3928 69.8617C33.3928 60.0985 36.3885 50.7212 42.0546 42.747C47.5939 34.9515 55.2728 29.0256 64.2588 25.6117C65.2646 25.2296 65.7522 24.1284 65.3693 23.1578C64.9842 22.1822 63.8576 21.6861 62.8475 22.0699L62.6699 21.6025L62.8475 22.0699C53.1339 25.7605 44.8392 32.1613 38.8563 40.5807M33.9006 76.7668L30.0478 77.3119C29.6841 74.8626 29.5 72.356 29.5 69.8617C29.5 59.3203 32.7351 49.1961 38.8563 40.5807M33.9006 76.7668C34.0533 77.7959 33.3274 78.7667 32.2562 78.9196L33.9006 76.7668ZM38.8563 40.5807L38.4487 40.2911L38.8563 40.5807ZM31.9707 78.9399C31.0131 78.9399 30.1873 78.2508 30.0478 77.3119L32.256 78.9197C32.16 78.9333 32.0645 78.9399 31.9707 78.9399Z" fill="#FF7369" stroke="#1A1A1A" stroke-width="0.999998"/>
<path d="M136.289 98.7191L136.118 99.0445L136.378 99.3043L157.982 120.932C158.424 121.375 158.6 122.018 158.445 122.624C158.289 123.23 157.826 123.708 157.226 123.883L157.226 123.883L140.306 128.825L140.043 128.902L139.966 129.165L135.03 146.105L135.03 146.105C134.855 146.705 134.376 147.169 133.77 147.324C133.624 147.362 133.476 147.38 133.33 147.38C132.866 147.38 132.414 147.197 132.077 146.861L110.399 125.158L110.14 124.899L109.815 125.067C101.347 129.446 91.7416 131.92 81.5678 131.92C71.359 131.92 61.7221 129.428 53.2322 125.021L52.9071 124.852L52.6481 125.112L30.9231 146.861C30.5868 147.197 30.1343 147.38 29.6702 147.38C29.524 147.38 29.3766 147.362 29.2306 147.324C28.6244 147.169 28.1454 146.705 27.9706 146.105L27.9705 146.105L23.0339 129.165L22.9571 128.902L22.694 128.825L5.7742 123.883L5.77408 123.883C5.17398 123.708 4.71071 123.229 4.55534 122.623C4.40032 122.018 4.57625 121.375 5.01791 120.932L26.7108 99.2153L26.9699 98.9559L26.8005 98.6309C22.3659 90.1202 19.8576 80.4531 19.8576 70.21C19.8576 36.1833 47.5412 8.5 81.5675 8.5C115.594 8.5 143.277 36.1833 143.277 70.21C143.277 80.4885 140.752 90.1872 136.289 98.7191ZM10.23 120.725L9.6338 121.322L10.4436 121.558L23.5889 125.397L23.8735 125.48L24.083 125.27L36.4009 112.923L36.7413 112.582L36.4129 112.23C33.6848 109.3 31.2375 106.105 29.1143 102.689L28.7815 102.153L28.3359 102.599L10.23 120.725ZM30.296 141.429L30.5325 142.241L31.1298 141.643L49.2605 123.492L49.7063 123.046L49.1701 122.713C45.7435 120.591 42.5392 118.143 39.6002 115.413L39.2467 115.084L38.9059 115.426L26.5865 127.775L26.3777 127.984L26.4604 128.268L30.296 141.429ZM131.87 141.643L132.467 142.241L132.704 141.429L136.539 128.268L136.622 127.984L136.413 127.775L124.159 115.491L123.819 115.15L123.465 115.478C120.522 118.204 117.313 120.648 113.882 122.765L113.345 123.097L113.791 123.544L131.87 141.643ZM138.917 125.27L139.126 125.48L139.411 125.397L152.556 121.558L153.366 121.321L152.769 120.725L134.747 102.682L134.302 102.237L133.969 102.771C131.841 106.183 129.39 109.373 126.657 112.299L126.328 112.651L126.669 112.993L138.917 125.27ZM81.5675 12.041C49.4925 12.041 23.3986 38.135 23.3986 70.21C23.3986 102.285 49.4925 128.379 81.5675 128.379C113.643 128.379 139.736 102.285 139.736 70.21C139.736 38.135 113.643 12.041 81.5675 12.041Z" fill="#FF7369" stroke="#1A1A1A" stroke-width="0.999998"/>
<path d="M71.4764 79.576C66.1324 79.576 61.8444 77.608 58.6124 73.672L62.7404 69.832C65.2364 72.776 68.1804 74.248 71.5724 74.248C73.2684 74.248 74.6604 73.784 75.7484 72.856C76.8364 71.896 77.3804 70.632 77.3804 69.064C77.3804 67.432 76.6764 66.168 75.2684 65.272C73.8924 64.344 72.0204 63.88 69.6524 63.88H66.9164L65.9564 60.184L75.0284 50.536H60.4844V45.4H82.7084V49.816L73.3484 59.416C76.2924 59.832 78.6764 60.824 80.5004 62.392C82.3244 63.928 83.2364 66.12 83.2364 68.968C83.2364 72.072 82.1324 74.616 79.9244 76.6C77.7484 78.584 74.9324 79.576 71.4764 79.576ZM94.7643 79V51.16L88.7163 52.84L87.4683 48.04L96.4923 45.16H100.62V79H94.7643Z" fill="#FF7369"/>
<path d="M60.7085 98V90.608H62.3885L64.6985 94.038L67.0225 90.608H68.7025V98H66.9945V93.072L64.6705 96.39L62.3605 93.1V98H60.7085ZM74.2137 98.168C73.1311 98.168 72.2257 97.8087 71.4977 97.09C70.7791 96.3713 70.4197 95.4427 70.4197 94.304C70.4197 93.2307 70.7604 92.3207 71.4417 91.574C72.1231 90.8273 72.9864 90.454 74.0317 90.454C75.1517 90.454 76.0197 90.8367 76.6357 91.602C77.2611 92.358 77.5737 93.3007 77.5737 94.43C77.5737 94.6353 77.5644 94.794 77.5457 94.906H72.1137C72.2071 95.494 72.4451 95.956 72.8277 96.292C73.2104 96.6187 73.6817 96.782 74.2417 96.782C74.9697 96.782 75.6371 96.488 76.2437 95.9L77.2377 96.782C76.4724 97.706 75.4644 98.168 74.2137 98.168ZM72.0997 93.786H75.8937C75.8377 93.2167 75.6464 92.75 75.3197 92.386C74.9931 92.022 74.5591 91.84 74.0177 91.84C73.5044 91.84 73.0751 92.022 72.7297 92.386C72.3844 92.7407 72.1744 93.2073 72.0997 93.786ZM82.6909 98.168C81.5989 98.168 80.6889 97.7993 79.9609 97.062C79.2329 96.3153 78.8689 95.41 78.8689 94.346V94.318C78.8689 93.254 79.2329 92.344 79.9609 91.588C80.6983 90.832 81.6129 90.454 82.7049 90.454C83.8996 90.454 84.8843 90.8787 85.6589 91.728L84.6089 92.862C84.0209 92.246 83.3816 91.938 82.6909 91.938C82.0843 91.938 81.5756 92.1667 81.1649 92.624C80.7636 93.0813 80.5629 93.6367 80.5629 94.29V94.318C80.5629 94.99 80.7683 95.5547 81.1789 96.012C81.5989 96.4693 82.1309 96.698 82.7749 96.698C83.4563 96.698 84.0956 96.39 84.6929 95.774L85.7149 96.782C85.3136 97.23 84.8749 97.5753 84.3989 97.818C83.9323 98.0513 83.3629 98.168 82.6909 98.168ZM88.7866 98V92.064H86.4066V90.608H92.8746V92.064H90.4946V98H88.7866ZM97.7323 98.168C96.6123 98.168 95.679 97.7947 94.9323 97.048C94.1856 96.3013 93.8123 95.3913 93.8123 94.318C93.8123 93.2447 94.1903 92.3347 94.9463 91.588C95.7023 90.832 96.6403 90.454 97.7603 90.454C98.8803 90.454 99.8136 90.8273 100.56 91.574C101.316 92.3207 101.694 93.2353 101.694 94.318C101.694 95.382 101.316 96.292 100.56 97.048C99.8043 97.7947 98.8616 98.168 97.7323 98.168ZM97.7603 96.698C98.4323 96.698 98.9736 96.4693 99.3843 96.012C99.795 95.5547 100 94.99 100 94.318C100 93.6553 99.7856 93.0953 99.3563 92.638C98.927 92.1713 98.3856 91.938 97.7323 91.938C97.0696 91.938 96.533 92.1667 96.1223 92.624C95.7116 93.0813 95.5063 93.646 95.5063 94.318C95.5063 94.9713 95.721 95.5313 96.1503 95.998C96.5796 96.4647 97.1163 96.698 97.7603 96.698Z" fill="#FF7369"/>
</g>
<defs>
<filter id="filter0_d" x="0" y="-1" width="163" height="163" filterUnits="userSpaceOnUse" color-interpolation-filters="sRGB">
<feFlood flood-opacity="0" result="BackgroundImageFix"/>
<feColorMatrix in="SourceAlpha" type="matrix" values="0 0 0 0 0 0 0 0 0 0 0 0 0 0 0 0 0 0 127 0"/>
<feOffset dy="3"/>
<feGaussianBlur stdDeviation="2"/>
<feColorMatrix type="matrix" values="0 0 0 0 0 0 0 0 0 0 0 0 0 0 0 0 0 0 0.5 0"/>
<feBlend mode="normal" in2="BackgroundImageFix" result="effect1_dropShadow"/>
<feBlend mode="normal" in="SourceGraphic" in2="effect1_dropShadow" result="shape"/>
</filter>
<clipPath id="clip0">
<rect width="155" height="155" fill="white" transform="translate(4)"/>
</clipPath>
</defs>
</svg>
