<?xml version="1.0" encoding="utf-8"?><svg xmlns="http://www.w3.org/2000/svg" xmlns:xlink="http://www.w3.org/1999/xlink"><symbol viewBox="0 0 126 37" id="AppStore" xmlns="http://www.w3.org/2000/svg"><g clip-path="url(#aaclip0)"><path d="M121.125 0H5.5A4.625 4.625 0 0 0 .875 4.625v27.75A4.625 4.625 0 0 0 5.5 37h115.625a4.625 4.625 0 0 0 4.625-4.625V4.625A4.625 4.625 0 0 0 121.125 0z"/><path d="M30.58 17.865c-.026-2.841 2.326-4.223 2.433-4.287-1.331-1.942-3.396-2.207-4.12-2.228-1.735-.183-3.416 1.037-4.3 1.037-.9 0-2.26-1.02-3.726-.99-1.886.03-3.65 1.121-4.618 2.817-1.997 3.458-.507 8.539 1.406 11.333.957 1.369 2.075 2.897 3.54 2.843 1.432-.059 1.967-.913 3.695-.913 1.712 0 2.215.913 3.708.88 1.537-.026 2.505-1.376 3.428-2.757 1.106-1.569 1.55-3.114 1.568-3.193-.036-.012-2.985-1.138-3.014-4.542zm-2.821-8.354c.77-.963 1.297-2.274 1.15-3.604-1.114.05-2.508.771-3.311 1.714-.71.83-1.345 2.19-1.181 3.47 1.252.094 2.538-.632 3.342-1.58zm23.545 18.682h-2.001l-1.097-3.445h-3.81l-1.045 3.445h-1.949l3.776-11.729h2.332l3.794 11.73zm-3.428-4.89l-.992-3.063c-.105-.313-.301-1.05-.591-2.21h-.035a85.361 85.361 0 0 1-.557 2.21l-.974 3.063h3.149zm13.14.557c0 1.439-.39 2.576-1.166 3.41-.697.743-1.561 1.114-2.593 1.114-1.114 0-1.915-.4-2.402-1.2h-.035v4.455h-1.88v-9.12c0-.903-.023-1.831-.069-2.783h1.653l.105 1.34h.035c.626-1.01 1.577-1.514 2.853-1.514.998 0 1.831.394 2.497 1.183.668.79 1.002 1.828 1.002 3.115zm-1.915.07c0-.824-.185-1.503-.557-2.037-.406-.557-.951-.835-1.636-.835-.463 0-.884.155-1.26.46a2.138 2.138 0 0 0-.74 1.21 2.459 2.459 0 0 0-.087.574v1.41c0 .615.188 1.134.566 1.558.377.424.867.635 1.47.635.707 0 1.258-.273 1.652-.818.395-.545.592-1.264.592-2.158zm11.64-.07c0 1.439-.388 2.576-1.167 3.41-.695.743-1.56 1.114-2.592 1.114-1.114 0-1.914-.4-2.4-1.2h-.036v4.455h-1.879v-9.12c0-.903-.023-1.831-.07-2.783h1.653l.105 1.34h.035c.626-1.01 1.577-1.514 2.854-1.514.997 0 1.83.394 2.498 1.183.665.79 1 1.828 1 3.115zm-1.914.07c0-.824-.186-1.503-.558-2.037-.406-.557-.95-.835-1.635-.835a1.96 1.96 0 0 0-1.262.46 2.136 2.136 0 0 0-.738 1.21 2.508 2.508 0 0 0-.088.574v1.41c0 .615.189 1.134.564 1.558.378.423.868.635 1.472.635.708 0 1.259-.273 1.653-.818.395-.545.592-1.264.592-2.158zm12.793.974c0 .998-.346 1.81-1.042 2.436-.764.685-1.828 1.027-3.195 1.027-1.262 0-2.273-.243-3.04-.73l.436-1.567a5.15 5.15 0 0 0 2.716.75c.708 0 1.259-.161 1.655-.48.394-.32.59-.748.59-1.282 0-.476-.162-.877-.487-1.202-.324-.325-.864-.627-1.618-.907-2.054-.766-3.08-1.888-3.08-3.363 0-.964.36-1.755 1.08-2.37.717-.616 1.674-.924 2.871-.924 1.068 0 1.954.186 2.662.557l-.47 1.532c-.66-.36-1.408-.54-2.244-.54-.661 0-1.178.164-1.548.488-.313.29-.47.644-.47 1.062 0 .464.179.847.539 1.149.312.278.88.58 1.706.905 1.009.406 1.75.881 2.227 1.426.475.543.712 1.222.712 2.033zm6.21-3.758h-2.07v4.106c0 1.045.364 1.566 1.096 1.566.335 0 .614-.029.834-.087l.052 1.427c-.37.138-.857.208-1.461.208-.742 0-1.322-.227-1.74-.679-.418-.453-.627-1.213-.627-2.28v-4.263H82.68v-1.41h1.234v-1.549l1.845-.557v2.106h2.071v1.412zm9.344 2.749c0 1.3-.372 2.368-1.114 3.202-.778.86-1.81 1.288-3.098 1.288-1.241 0-2.23-.412-2.966-1.235-.737-.823-1.105-1.862-1.105-3.115 0-1.31.379-2.384 1.14-3.218.758-.836 1.782-1.253 3.07-1.253 1.24 0 2.24.411 2.993 1.235.72.8 1.08 1.832 1.08 3.096zm-1.95.061c0-.78-.166-1.449-.503-2.007-.394-.675-.957-1.012-1.687-1.012-.756 0-1.33.338-1.723 1.012-.338.56-.504 1.239-.504 2.042 0 .78.166 1.45.504 2.006.406.675.974 1.012 1.706 1.012.718 0 1.28-.344 1.687-1.03.346-.568.52-1.244.52-2.023zm8.059-2.568a3.269 3.269 0 0 0-.593-.052c-.661 0-1.172.25-1.531.75-.313.44-.47.997-.47 1.67v4.437h-1.878l.017-5.794c0-.975-.023-1.862-.07-2.663h1.636l.069 1.619h.052c.199-.556.511-1.004.94-1.34a2.27 2.27 0 0 1 1.358-.453c.174 0 .33.012.47.034v1.792zm8.401 2.176c0 .337-.022.62-.069.853h-5.637c.022.835.295 1.474.818 1.915.475.394 1.089.591 1.844.591.835 0 1.596-.133 2.281-.4l.294 1.305c-.8.349-1.745.522-2.835.522-1.312 0-2.341-.386-3.09-1.157-.747-.771-1.122-1.807-1.122-3.106 0-1.275.348-2.337 1.045-3.184.73-.904 1.716-1.357 2.957-1.357 1.219 0 2.142.453 2.768 1.357.497.718.746 1.607.746 2.661zm-1.792-.487c.013-.557-.11-1.038-.365-1.445-.325-.522-.825-.783-1.497-.783-.614 0-1.114.255-1.496.766-.312.406-.498.894-.556 1.461h3.914v.001zM48.14 13.598h-.978V12.14h-3.905v1.458h-.994l-.032-2.28h.476c.236-.228.425-.56.566-.994a6.37 6.37 0 0 0 .273-1.482L43.7 6.21h3.738v5.107h.754l-.053 2.28zm-4.268-2.28h2.54V7.042h-1.73l-.098 1.67c-.073 1.115-.31 1.984-.712 2.606zm5.23-1.421c0-.432.086-.82.257-1.165.171-.348.411-.614.72-.798a2.02 2.02 0 0 1 1.068-.281c.594 0 1.076.191 1.446.574.371.383.572.89.602 1.523l.004.232c0 .434-.084.823-.252 1.165a1.834 1.834 0 0 1-.717.794 2.04 2.04 0 0 1-1.075.28c-.622 0-1.12-.205-1.495-.618-.372-.415-.558-.968-.558-1.658v-.048zm.99.085c0 .454.094.81.281 1.067.187.255.448.383.782.383s.593-.13.778-.391c.187-.26.28-.642.28-1.144 0-.446-.096-.799-.288-1.06a.911.911 0 0 0-.778-.39.907.907 0 0 0-.77.387c-.19.255-.285.638-.285 1.148zm6.172 1.45a.895.895 0 0 0 .614-.216.738.738 0 0 0 .261-.534h.933a1.467 1.467 0 0 1-.257.77 1.69 1.69 0 0 1-.651.562c-.275.139-.57.208-.888.208-.617 0-1.105-.2-1.466-.599-.361-.399-.542-.95-.542-1.653v-.102c0-.67.18-1.207.538-1.609.358-.404.847-.606 1.466-.606.524 0 .95.153 1.278.46.332.304.505.704.522 1.201h-.933a.902.902 0 0 0-.26-.623.825.825 0 0 0-.615-.244c-.32 0-.568.116-.742.35-.173.23-.262.582-.264 1.055v.159c0 .477.085.834.256 1.07.174.234.424.35.75.35zm6.44-2.912h-1.43v3.62h-.99V8.52h-1.413v-.786h3.833v.786zm2.669 2.203l.896-2.989h1.055l-1.752 5.074c-.268.742-.725 1.112-1.368 1.112-.144 0-.303-.024-.476-.073v-.766l.187.013c.25 0 .437-.047.562-.139.127-.09.228-.242.301-.456l.143-.379-1.548-4.386h1.067l.933 2.99zm6.677 1.417h-.99V8.532h-1.72v3.608h-.99V7.734h3.698v4.406zm5.201 0h-.99v-1.78h-1.714v1.78h-.99V7.734h.99v1.837h1.715V7.734h.99v4.406zm1.289-2.243c0-.432.085-.82.257-1.165.17-.348.41-.614.72-.798a2.02 2.02 0 0 1 1.067-.281c.595 0 1.077.191 1.446.574.372.383.573.89.603 1.523l.004.232c0 .434-.084.823-.252 1.165a1.835 1.835 0 0 1-.717.794 2.04 2.04 0 0 1-1.075.28c-.622 0-1.12-.205-1.495-.618-.372-.415-.558-.968-.558-1.658v-.048zm.99.085c0 .454.093.81.28 1.067.188.255.449.383.783.383s.593-.13.777-.391c.188-.26.281-.642.281-1.144 0-.446-.096-.799-.289-1.06a.912.912 0 0 0-.778-.39.907.907 0 0 0-.77.387c-.19.255-.284.638-.284 1.148zm6.93 2.158V7.734h1.788c.603 0 1.062.106 1.376.318.316.209.473.51.473.904a.869.869 0 0 1-.191.55c-.125.16-.311.283-.558.37.287.06.516.18.684.363a.916.916 0 0 1 .252.643c0 .41-.152.722-.456.937-.301.214-.736.321-1.303.321H86.46zm.99-1.877v1.096h1.083c.508 0 .762-.182.762-.546 0-.367-.258-.55-.774-.55H87.45zm0-.709h.814c.562 0 .843-.165.843-.496 0-.348-.266-.527-.798-.538h-.86v1.034z"/></g><defs><clipPath id="aaclip0"><path transform="translate(.875)" d="M0 0h124.875v37H0z"/></clipPath></defs></symbol><symbol viewBox="0 0 125 37" id="GooglePlay" xmlns="http://www.w3.org/2000/svg"><g clip-path="url(#abclip0)"><path d="M120.25 0H4.625A4.625 4.625 0 0 0 0 4.625v27.75A4.625 4.625 0 0 0 4.625 37H120.25a4.625 4.625 0 0 0 4.625-4.625V4.625A4.625 4.625 0 0 0 120.25 0z"/><path d="M63.027 20.12a3.93 3.93 0 1 0 3.95 3.93 3.876 3.876 0 0 0-3.95-3.93zm0 6.317a2.386 2.386 0 1 1 2.22-2.387 2.275 2.275 0 0 1-2.22 2.387zm-8.612-6.318a3.93 3.93 0 1 0 3.94 3.931 3.876 3.876 0 0 0-3.95-3.93h.01zm0 6.318a2.386 2.386 0 1 1 2.21-2.387 2.275 2.275 0 0 1-2.22 2.387h.01zM44.157 21.33v1.665h3.996a3.487 3.487 0 0 1-.925 2.1 4.089 4.089 0 0 1-3.08 1.22 4.44 4.44 0 0 1 0-8.88 4.255 4.255 0 0 1 3.024 1.194l1.175-1.175a5.818 5.818 0 0 0-4.19-1.73 6.115 6.115 0 1 0 0 12.22 5.55 5.55 0 0 0 4.264-1.712 5.55 5.55 0 0 0 1.443-3.903c.003-.35-.028-.7-.092-1.045l-5.615.046zm41.912 1.295a3.7 3.7 0 0 0-3.368-2.507 3.7 3.7 0 0 0-3.7 3.931 3.848 3.848 0 0 0 3.904 3.932 3.913 3.913 0 0 0 3.275-1.74l-1.342-.924a2.25 2.25 0 0 1-1.933 1.091 1.998 1.998 0 0 1-1.906-1.193l5.264-2.174-.195-.416zm-5.365 1.313a2.153 2.153 0 0 1 2.053-2.294 1.527 1.527 0 0 1 1.462.833l-3.515 1.461zM76.43 27.75h1.73V16.188h-1.73V27.75zm-2.83-6.752h-.065a2.775 2.775 0 0 0-2.072-.925 3.94 3.94 0 0 0 0 7.872 2.682 2.682 0 0 0 2.072-.925h.055v.564c0 1.508-.805 2.312-2.1 2.312a2.174 2.174 0 0 1-1.979-1.396l-1.508.629a3.746 3.746 0 0 0 3.487 2.321c2.026 0 3.7-1.193 3.7-4.097V20.35H73.6v.648zm-1.98 5.439a2.396 2.396 0 0 1 0-4.773 2.219 2.219 0 0 1 2.1 2.386 2.202 2.202 0 0 1-2.11 2.387h.01zm22.551-10.25h-4.134V27.75h1.73v-4.384h2.414a3.599 3.599 0 1 0 0-7.178h-.01zm0 5.55h-2.414v-3.94h2.451a1.984 1.984 0 0 1 0 3.969l-.037-.028zm10.666-1.664a3.237 3.237 0 0 0-3.081 1.767l1.536.638a1.637 1.637 0 0 1 1.572-.851 1.666 1.666 0 0 1 1.85 1.49v.12a3.819 3.819 0 0 0-1.803-.445c-1.656 0-3.33.925-3.33 2.6a2.667 2.667 0 0 0 .896 1.877 2.676 2.676 0 0 0 1.971.666 2.429 2.429 0 0 0 2.22-1.11h.056v.925h1.665v-4.449c0-2.026-1.536-3.2-3.506-3.2l-.046-.028zm-.213 6.336c-.564 0-1.351-.287-1.351-.98 0-.925.981-1.23 1.85-1.23.55-.014 1.093.12 1.573.388a2.093 2.093 0 0 1-2.026 1.85l-.046-.028zm9.833-6.059l-1.98 5.014h-.055l-2.054-5.014h-1.85l3.08 7.012-1.757 3.894h1.804l4.736-10.906h-1.924zm-15.55 7.4h1.73V16.188h-1.73V27.75zM9.746 30.246l11.332-11.753L9.755 6.761c-.302.182-.49.605-.49 1.159v21.178c.005.554.185.946.48 1.148zm11.738-12.078l3.375-3.501-13.745-7.818a1.48 1.48 0 0 0-.762-.213l11.13 11.531.002.001zm-.001.651L10.316 30.4c.28.005.557-.071.798-.22l13.773-7.838-3.404-3.524zm8.352-1.316l-4.574-2.606-3.468 3.597 3.493 3.62 4.547-2.6c.967-.552.967-1.461.002-2.01zm14.075-3.905h-.978V12.14h-3.906v1.458h-.993L38 11.318h.477c.236-.228.424-.56.566-.994.14-.437.232-.931.272-1.482l.155-2.631h3.739v5.107h.753l-.053 2.28zm-4.269-2.28h2.541V7.042h-1.73l-.098 1.67c-.073 1.115-.311 1.984-.713 2.606zm5.231-1.421c0-.432.086-.82.257-1.165.17-.348.41-.614.72-.798a2.02 2.02 0 0 1 1.067-.281c.595 0 1.077.191 1.446.574.372.383.573.89.603 1.523l.004.232c0 .434-.084.823-.253 1.165a1.835 1.835 0 0 1-.716.794 2.04 2.04 0 0 1-1.075.28c-.622 0-1.12-.205-1.495-.618-.372-.415-.558-.968-.558-1.658v-.048zm.99.085c0 .454.093.81.28 1.067.188.255.448.383.782.383s.594-.13.778-.391c.188-.26.281-.642.281-1.144 0-.446-.096-.799-.289-1.06a.912.912 0 0 0-.778-.39.907.907 0 0 0-.77.387c-.19.255-.285.638-.285 1.148zm6.171 1.45a.895.895 0 0 0 .615-.216.738.738 0 0 0 .26-.534h.933c-.01.275-.096.531-.256.77a1.69 1.69 0 0 1-.652.562c-.274.139-.57.208-.888.208-.616 0-1.105-.2-1.466-.599-.361-.399-.541-.95-.541-1.653v-.102c0-.67.179-1.207.537-1.609.358-.404.847-.606 1.466-.606.524 0 .95.153 1.279.46.331.304.505.704.521 1.201h-.932a.902.902 0 0 0-.261-.623.825.825 0 0 0-.615-.244c-.32 0-.567.116-.741.35-.174.23-.262.582-.265 1.055v.159c0 .477.086.834.257 1.07.173.234.423.35.749.35zm6.44-2.912h-1.43v3.62h-.989V8.52h-1.413v-.786h3.832v.786zm2.669 2.203l.896-2.989h1.055l-1.751 5.074c-.269.742-.725 1.112-1.368 1.112a1.77 1.77 0 0 1-.477-.073v-.766l.187.013c.25 0 .438-.047.562-.139.128-.09.228-.242.302-.456l.142-.379-1.547-4.386h1.067l.932 2.99zm6.677 1.417h-.99V8.532h-1.718v3.608h-.99V7.734h3.698v4.406zm5.202 0h-.99v-1.78h-1.714v1.78h-.99V7.734h.99v1.837h1.714V7.734h.99v4.406zm1.289-2.243c0-.432.085-.82.256-1.165.171-.348.411-.614.72-.798a2.02 2.02 0 0 1 1.068-.281c.594 0 1.076.191 1.446.574.372.383.573.89.602 1.523l.004.232c0 .434-.084.823-.252 1.165a1.834 1.834 0 0 1-.717.794 2.04 2.04 0 0 1-1.075.28c-.622 0-1.12-.205-1.494-.618-.372-.415-.558-.968-.558-1.658v-.048zm.99.085c0 .454.093.81.28 1.067.188.255.448.383.782.383s.593-.13.778-.391c.187-.26.28-.642.28-1.144 0-.446-.095-.799-.288-1.06a.912.912 0 0 0-.778-.39.907.907 0 0 0-.77.387c-.19.255-.285.638-.285 1.148zm6.93 2.158V7.734h1.788c.602 0 1.061.106 1.376.318.315.209.472.51.472.904a.869.869 0 0 1-.19.55c-.126.16-.312.283-.559.37.288.06.516.18.684.363a.916.916 0 0 1 .253.643c0 .41-.152.722-.456.937-.302.214-.736.321-1.303.321H82.23zm.99-1.877v1.096h1.083c.507 0 .761-.182.761-.546 0-.367-.258-.55-.774-.55h-1.07zm0-.709h.814c.562 0 .843-.165.843-.496 0-.348-.266-.527-.798-.538h-.86v1.034z"/></g><defs><clipPath id="abclip0"><path d="M0 0h124.875v37H0z"/></clipPath></defs></symbol><symbol id="ad" viewBox="0 0 87.73 88.95" xmlns="http://www.w3.org/2000/svg"><defs><style>.accls-1,.accls-2{fill:none;stroke:#fff;stroke-width:3px}.accls-1{stroke-miterlimit:10}.accls-2{stroke-linecap:round;stroke-linejoin:round}</style></defs><circle class="accls-1" cx="43.88" cy="10.24" r="8.74"/><path class="accls-1" d="M34.57 276.76a3.37 3.37 0 0 1-6.23-1.76" transform="translate(-1.14 -220.53)"/><path class="accls-2" d="M33.43 56.23v31.22"/><path class="accls-1" d="M55.45 276.76a3.37 3.37 0 0 0 6.23-1.76m0 0v-19S62 245.22 45 245.22 28.34 256 28.34 256v19" transform="translate(-1.14 -220.53)"/><path class="accls-2" d="M54.32 56.23v31.22M43.88 60.99v24.07"/><circle class="accls-1" cx="73.94" cy="27.01" r="6.44"/><path class="accls-2" d="M67.38 282.57a2.49 2.49 0 0 1-4.08.2" transform="translate(-1.14 -220.53)"/><path class="accls-2" d="M66.24 62.05v23.01"/><path class="accls-1" d="M82.77 282.57a2.48 2.48 0 0 0 4.59-1.32" transform="translate(-1.14 -220.53)"/><path class="accls-2" d="M87.36 281.25v-14s.22-7.92-12.29-7.92h-7.69" transform="translate(-1.14 -220.53)"/><path class="accls-2" d="M81.64 62.05v23.01m-7.7-19.51V83.3"/><circle class="accls-1" cx="13.79" cy="27.01" r="6.44"/><path class="accls-2" d="M22.62 282.57a2.49 2.49 0 0 0 4.08.2" transform="translate(-1.14 -220.53)"/><path class="accls-2" d="M21.49 62.05v23.01"/><path class="accls-1" d="M7.23 282.57a2.48 2.48 0 0 1-4.59-1.32" transform="translate(-1.14 -220.53)"/><path class="accls-2" d="M2.64 281.25v-14s-.22-7.92 12.29-7.92h7.69" transform="translate(-1.14 -220.53)"/><path class="accls-2" d="M6.09 62.05v23.01m7.7-19.51V83.3"/></symbol><symbol viewBox="0 0 10 5" id="arr" xmlns="http://www.w3.org/2000/svg"><path d="M1.273.586l4 3.586 4-3.586" stroke-linecap="round" stroke-linejoin="round"/></symbol><symbol viewBox="0 0 8 4" id="arr-menu" xmlns="http://www.w3.org/2000/svg"><path d="M4 0l3.464 3.75H.536L4 0z"/></symbol><symbol viewBox="0 0 14 25" id="arr-slider" xmlns="http://www.w3.org/2000/svg"><path d="M12.927 11.695L2.648 1.086a1.091 1.091 0 0 0-1.577.002 1.164 1.164 0 0 0 .002 1.609L10.57 12.5l-9.497 9.803a1.164 1.164 0 0 0-.003 1.608 1.094 1.094 0 0 0 1.578.003l10.277-10.609a1.163 1.163 0 0 0 .001-1.61z" stroke-width=".5"/></symbol><symbol viewBox="0 0 12 8" id="arrow-small" xmlns="http://www.w3.org/2000/svg"><path d="M11.354 4.354a.5.5 0 0 0 0-.708L8.172.464a.5.5 0 1 0-.708.708L10.293 4 7.464 6.828a.5.5 0 1 0 .708.708l3.182-3.182zM0 4.5h11v-1H0v1z"/></symbol><symbol viewBox="0 0 30 30" id="be" xmlns="http://www.w3.org/2000/svg"><path d="M12.04 11.517c0-1.371-.933-1.371-.933-1.371H7.269v2.942h3.6c.622 0 1.17-.2 1.17-1.57zm-.933 3.603H7.269v3.524h3.66c.551-.015 1.568-.188 1.568-1.713 0-1.83-1.39-1.81-1.39-1.81zm9.826-2.032c-2.037 0-2.32 2.032-2.32 2.032h4.33s.027-2.032-2.01-2.032z"/><path d="M14.876 0C6.849 0 .342 6.507.342 14.534c0 8.027 6.507 14.534 14.534 14.534 8.027 0 14.534-6.507 14.534-14.534C29.41 6.507 22.903 0 14.876 0zm3.169 8.579h5.44v1.623h-5.44V8.58zm-2.75 8.516c0 4.024-4.188 3.892-4.188 3.892H4.246V7.802h6.861c2.085 0 3.731 1.151 3.731 3.51 0 2.36-2.012 2.51-2.012 2.51 2.652 0 2.47 3.273 2.47 3.273zm5.664 2.08c2.192 0 2.114-1.419 2.114-1.419h2.32c0 3.764-4.512 3.507-4.512 3.507-5.414 0-5.066-5.04-5.066-5.04s-.004-5.066 5.066-5.066c5.337 0 4.59 5.723 4.59 5.723h-6.833c0 2.45 2.32 2.294 2.32 2.294z"/></symbol><symbol id="corporate" viewBox="0 0 89.86 89.97" xmlns="http://www.w3.org/2000/svg"><defs><style>.aicls-1{fill:none;stroke:#fff;stroke-linecap:round;stroke-linejoin:round;stroke-width:3px}</style></defs><path class="aicls-1" d="M168.09 72.67V39.33h-53.55v33.34h-3s.15 6.29 5 6.29H166c4.89 0 5-6.29 5-6.29z" transform="translate(-110.07 -.01)"/><path class="aicls-1" d="M4.46 72.65h21.41v2.01h10.74v-2.01h21.41m0-19.11h18.15m-12-10.22l2.92 10.22m-8.87-10.22h30.14V1.5H28.43v37.76"/><rect class="aicls-1" x="67.09" y="58.1" width="17.89" height="30.38" rx="2.23"/></symbol><symbol viewBox="0 0 30 30" id="fb" xmlns="http://www.w3.org/2000/svg"><path d="M29.069 14.534C29.069 6.506 22.562 0 14.534 0S0 6.506 0 14.534s6.506 14.534 14.534 14.534c.085 0 .17 0 .256-.005v-11.31h-3.123v-3.639h3.123v-2.68c0-3.105 1.896-4.797 4.667-4.797 1.328 0 2.47.096 2.799.142v3.247h-1.908c-1.505 0-1.8.716-1.8 1.766v2.316h3.605l-.47 3.64h-3.135v10.758c6.075-1.743 10.52-7.335 10.52-13.972z"/></symbol><symbol viewBox="0 0 75 88" id="hand-star" xmlns="http://www.w3.org/2000/svg"><path d="M61.382 32.944l-.001-.002a1.905 1.905 0 1 1 2.694-2.696l.001.001a7.444 7.444 0 0 1 0 10.536l-.001.001a1.906 1.906 0 1 1-2.694-2.696l.001-.002a3.634 3.634 0 0 0 0-5.142z" stroke-width=".35"/><path d="M67.144 43.842a11.768 11.768 0 0 0 0-16.654 2.08 2.08 0 0 1 2.767-3.1l-2.767 19.754zm0 0a2.082 2.082 0 0 0-.453.675m.453-.675l-.453.675m0 0c-.106.253-.16.523-.16.797m.16-.797l-.16.797m0 0a2.06 2.06 0 0 0 .157.798m-.158-.798l.158.798m0 0c.104.253.258.483.451.677m-.451-.677l.451.677m0 0a2.1 2.1 0 0 0 .676.452m-.676-.452l.676.452m0 0c.253.104.524.158.798.158m-.798-.158l.798.158m0 0c.274 0 .545-.055.797-.16m-.797.16l.797-.16m0 0c.253-.105.483-.259.676-.453l-.675.453zm.552-22.872l.047.047a15.752 15.752 0 0 1-.047 22.248 1.907 1.907 0 1 1-2.694-2.696 11.942 11.942 0 0 0 0-16.902 1.906 1.906 0 0 1 2.694-2.697zM14.138 32.94a1.905 1.905 0 1 0-2.694-2.695l-.003.003a7.444 7.444 0 0 0 0 10.536l2.697-7.844zm0 0l-.003.003m.003-.003l-.003.003m0 0a3.635 3.635 0 0 0 0 5.143m0-5.143v5.143m0 0a1.904 1.904 0 0 1-.616 3.11 1.906 1.906 0 0 1-2.078-.412l2.694-2.698z" stroke-width=".35"/><path d="M5.556 24.368a1.905 1.905 0 0 1 2.694 2.696 11.942 11.942 0 0 0 0 16.902 1.906 1.906 0 0 1-2.694 2.697 15.755 15.755 0 0 1 0-22.295z" stroke-width=".35"/><mask id="aka"><path d="M61.341 52.944c-.957 0-1.9.22-2.758.645a6.235 6.235 0 0 0-8.324-2.775 6.236 6.236 0 0 0-7.645-3.061v-6.266l8.146 4.282a2.08 2.08 0 0 0 3.019-2.194L51.295 29.1l10.52-10.253a2.081 2.081 0 0 0-1.154-3.548l-14.59-2.121-6.487-11.865a2.08 2.08 0 0 0-3.652 0l-6.486 11.865-14.59 2.12a2.08 2.08 0 0 0-1.153 3.55L24.222 29.1l-2.484 14.476c-.337 1.639 1.567 3.02 3.02 2.194l5.37-2.825v23.083c-.527-.691-1.01-1.312-1.442-1.856-3.123-3.927-6.962-4.294-9.633-3.911a13.324 13.324 0 0 0-4.887 1.736 2.094 2.094 0 0 0-.528 3.033l16.927 21.79a2.081 2.081 0 0 0 3.287-2.553L18.578 64.605a8.363 8.363 0 0 1 1.184-.24c2.295-.294 4.15.49 5.666 2.397 1.272 1.6 2.987 3.882 5.099 6.786 1.156 1.615 3.78.761 3.763-1.224V38.378a2.08 2.08 0 1 1 4.162 0s.004 22.339.01 22.409a2.081 2.081 0 0 0 4.141 0c.007-.07.01-7.15.01-7.15a2.081 2.081 0 0 1 4.163 0v8.324a2.08 2.08 0 1 0 4.161 0v-5.549a2.08 2.08 0 1 1 4.162 0v6.936a2.08 2.08 0 1 0 4.162 0v-4.161a2.081 2.081 0 0 1 4.161 0v26.357a2.081 2.081 0 0 0 4.162 0V59.187a6.25 6.25 0 0 0-6.243-6.243zm-24.97-20.809a6.249 6.249 0 0 0-6.239 6.106l-3.58 1.882 1.956-11.399a2.08 2.08 0 0 0-.598-1.842l-8.283-8.073 11.446-1.663a2.081 2.081 0 0 0 1.526-1.062l5.16-9.436 5.158 9.436a2.082 2.082 0 0 0 1.526 1.062l11.446 1.663-8.283 8.073a2.081 2.081 0 0 0-.598 1.842l1.955 11.4-6.592-3.466a6.252 6.252 0 0 0-6-4.523z"/></mask><path d="M61.341 52.944c-.957 0-1.9.22-2.758.645a6.235 6.235 0 0 0-8.324-2.775 6.236 6.236 0 0 0-7.645-3.061v-6.266l8.146 4.282a2.08 2.08 0 0 0 3.019-2.194L51.295 29.1l10.52-10.253a2.081 2.081 0 0 0-1.154-3.548l-14.59-2.121-6.487-11.865a2.08 2.08 0 0 0-3.652 0l-6.486 11.865-14.59 2.12a2.08 2.08 0 0 0-1.153 3.55L24.222 29.1l-2.484 14.476c-.337 1.639 1.567 3.02 3.02 2.194l5.37-2.825v23.083c-.527-.691-1.01-1.312-1.442-1.856-3.123-3.927-6.962-4.294-9.633-3.911a13.324 13.324 0 0 0-4.887 1.736 2.094 2.094 0 0 0-.528 3.033l16.927 21.79a2.081 2.081 0 0 0 3.287-2.553L18.578 64.605a8.363 8.363 0 0 1 1.184-.24c2.295-.294 4.15.49 5.666 2.397 1.272 1.6 2.987 3.882 5.099 6.786 1.156 1.615 3.78.761 3.763-1.224V38.378a2.08 2.08 0 1 1 4.162 0s.004 22.339.01 22.409a2.081 2.081 0 0 0 4.141 0c.007-.07.01-7.15.01-7.15a2.081 2.081 0 0 1 4.163 0v8.324a2.08 2.08 0 1 0 4.161 0v-5.549a2.08 2.08 0 1 1 4.162 0v6.936a2.08 2.08 0 1 0 4.162 0v-4.161a2.081 2.081 0 0 1 4.161 0v26.357a2.081 2.081 0 0 0 4.162 0V59.187a6.25 6.25 0 0 0-6.243-6.243zm-24.97-20.809a6.249 6.249 0 0 0-6.239 6.106l-3.58 1.882 1.956-11.399a2.08 2.08 0 0 0-.598-1.842l-8.283-8.073 11.446-1.663a2.081 2.081 0 0 0 1.526-1.062l5.16-9.436 5.158 9.436a2.082 2.082 0 0 0 1.526 1.062l11.446 1.663-8.283 8.073a2.081 2.081 0 0 0-.598 1.842l1.955 11.4-6.592-3.466a6.252 6.252 0 0 0-6-4.523z" stroke-width=".7" mask="url(#aka)"/></symbol><symbol viewBox="0 0 128 113" id="heart" xmlns="http://www.w3.org/2000/svg"><path d="M92.377.753h-.1C81.032.8 70.502 6.07 64 14.904 57.48 6.044 46.906.77 35.624.753 17.09.753.84 17.348.84 36.264c0 18.425 10.807 37.384 31.22 54.833a168.07 168.07 0 0 0 30.93 20.913l.002.001a2.28 2.28 0 0 0 2.018 0l.002-.001A168.068 168.068 0 0 0 95.93 91.097c20.424-17.449 31.23-36.408 31.23-54.833 0-18.916-16.249-35.511-34.782-35.511zM62.083 19.906l.004.006a2.31 2.31 0 0 0 1.913.996c.77 0 1.49-.373 1.914-.996l.004-.006C71.303 10.714 81.41 5.018 92.377 5c16.18 0 30.378 14.609 30.378 31.264 0 19.358-12.757 36.197-26.5 48.718C82.571 97.45 67.928 105.62 64 107.71c-3.928-2.09-18.57-10.259-32.255-22.727-13.743-12.521-26.5-29.36-26.5-48.718C5.245 19.61 19.444 5 35.624 5c10.966.018 21.073 5.713 26.459 14.906z" stroke-width=".2"/></symbol><symbol viewBox="0 0 44 50" id="ic1" xmlns="http://www.w3.org/2000/svg"><path d="M35.457 21.67v-.002a2.094 2.094 0 0 0 0-2.962l-.089.09.089-.091a1.055 1.055 0 1 1 1.492-1.494v.001a4.206 4.206 0 0 1 0 5.95v.001a1.053 1.053 0 0 1-1.501.008 1.056 1.056 0 0 1 .009-1.502zm4.865-7.773l-.027-.027a1.056 1.056 0 0 0-1.492 1.494l1.519-1.467zm0 0a8.927 8.927 0 0 1-.027 12.607 1.057 1.057 0 0 1-1.804-.747 1.055 1.055 0 0 1 .312-.746 6.815 6.815 0 0 0 0-9.647l1.519-1.467zM8.565 18.703l-.002.003a2.093 2.093 0 0 0 0 2.962 1.057 1.057 0 0 1-1.492 1.494 4.203 4.203 0 0 1 0-5.95l.002-.002a1.056 1.056 0 1 1 1.492 1.493z" stroke-width=".254"/><path d="M3.725 13.87a1.056 1.056 0 1 1 1.493 1.494 6.815 6.815 0 0 0 0 9.646 1.057 1.057 0 0 1-1.493 1.494 8.927 8.927 0 0 1 0-12.633z" stroke-width=".254"/><mask id="ama"><path d="M35.415 30.094c-.544 0-1.08.125-1.568.367a3.544 3.544 0 0 0-4.73-1.577 3.544 3.544 0 0 0-4.347-1.74v-3.562l4.63 2.434a1.184 1.184 0 0 0 1.717-1.247l-1.412-8.229 5.98-5.828a1.182 1.182 0 0 0-.657-2.017L26.736 7.49 23.048.746a1.183 1.183 0 0 0-2.075 0L17.285 7.49 8.992 8.695a1.183 1.183 0 0 0-.655 2.018l5.979 5.828-1.412 8.228c-.192.932.891 1.717 1.716 1.247l3.054-1.605v13.12a78.43 78.43 0 0 0-.82-1.054c-1.775-2.233-3.958-2.442-5.476-2.224a7.574 7.574 0 0 0-2.778.987 1.19 1.19 0 0 0-.3 1.724l9.622 12.386a1.183 1.183 0 0 0 1.868-1.45l-8.682-11.176a4.82 4.82 0 0 1 .673-.137c1.305-.167 2.359.279 3.22 1.363.723.909 1.698 2.206 2.899 3.857.657.918 2.149.433 2.14-.696V21.815a1.183 1.183 0 1 1 2.365 0s.002 12.697.006 12.737a1.182 1.182 0 0 0 2.353 0c.004-.04.006-4.064.006-4.064a1.183 1.183 0 0 1 2.366 0v4.732a1.183 1.183 0 1 0 2.366 0v-3.154a1.183 1.183 0 1 1 2.365 0v3.942a1.183 1.183 0 1 0 2.366 0v-2.365a1.183 1.183 0 0 1 2.365 0v14.982a1.183 1.183 0 0 0 2.366 0V33.643a3.552 3.552 0 0 0-3.549-3.549zM21.222 18.266a3.552 3.552 0 0 0-3.547 3.47l-2.034 1.07 1.112-6.479a1.181 1.181 0 0 0-.34-1.047l-4.709-4.589 6.506-.945a1.182 1.182 0 0 0 .867-.603l2.933-5.364 2.933 5.364a1.184 1.184 0 0 0 .867.603l6.506.945-4.708 4.59a1.182 1.182 0 0 0-.34 1.046l1.111 6.48-3.747-1.97a3.555 3.555 0 0 0-3.41-2.57z"/></mask><path d="M35.415 30.094c-.544 0-1.08.125-1.568.367a3.544 3.544 0 0 0-4.73-1.577 3.544 3.544 0 0 0-4.347-1.74v-3.562l4.63 2.434a1.184 1.184 0 0 0 1.717-1.247l-1.412-8.229 5.98-5.828a1.182 1.182 0 0 0-.657-2.017L26.736 7.49 23.048.746a1.183 1.183 0 0 0-2.075 0L17.285 7.49 8.992 8.695a1.183 1.183 0 0 0-.655 2.018l5.979 5.828-1.412 8.228c-.192.932.891 1.717 1.716 1.247l3.054-1.605v13.12a78.43 78.43 0 0 0-.82-1.054c-1.775-2.233-3.958-2.442-5.476-2.224a7.574 7.574 0 0 0-2.778.987 1.19 1.19 0 0 0-.3 1.724l9.622 12.386a1.183 1.183 0 0 0 1.868-1.45l-8.682-11.176a4.82 4.82 0 0 1 .673-.137c1.305-.167 2.359.279 3.22 1.363.723.909 1.698 2.206 2.899 3.857.657.918 2.149.433 2.14-.696V21.815a1.183 1.183 0 1 1 2.365 0s.002 12.697.006 12.737a1.182 1.182 0 0 0 2.353 0c.004-.04.006-4.064.006-4.064a1.183 1.183 0 0 1 2.366 0v4.732a1.183 1.183 0 1 0 2.366 0v-3.154a1.183 1.183 0 1 1 2.365 0v3.942a1.183 1.183 0 1 0 2.366 0v-2.365a1.183 1.183 0 0 1 2.365 0v14.982a1.183 1.183 0 0 0 2.366 0V33.643a3.552 3.552 0 0 0-3.549-3.549zM21.222 18.266a3.552 3.552 0 0 0-3.547 3.47l-2.034 1.07 1.112-6.479a1.181 1.181 0 0 0-.34-1.047l-4.709-4.589 6.506-.945a1.182 1.182 0 0 0 .867-.603l2.933-5.364 2.933 5.364a1.184 1.184 0 0 0 .867.603l6.506.945-4.708 4.59a1.182 1.182 0 0 0-.34 1.046l1.111 6.48-3.747-1.97a3.555 3.555 0 0 0-3.41-2.57z" stroke-width=".509" mask="url(#ama)"/></symbol><symbol viewBox="0 0 93 88" id="ic10" xmlns="http://www.w3.org/2000/svg"><g clip-path="url(#anclip0)"><path d="M36.565 70.46l.026-.197H5.276a4.467 4.467 0 0 1-3.115-1.261 4.245 4.245 0 0 1-1.29-3.033v-60.5a4.245 4.245 0 0 1 1.29-3.033 4.468 4.468 0 0 1 3.115-1.261h78.903a4.468 4.468 0 0 1 3.115 1.26 4.245 4.245 0 0 1 1.29 3.034v60.5a4.245 4.245 0 0 1-1.29 3.033 4.467 4.467 0 0 1-3.115 1.26H52.864l.026.198 1.199 9.355.013.107.102.036a42.267 42.267 0 0 1 8.315 3.978c.282.185.496.452.61.763.114.311.123.65.025.966a1.544 1.544 0 0 1-.572.792 1.615 1.615 0 0 1-.947.306H27.82c-.342 0-.674-.108-.947-.306a1.545 1.545 0 0 1-.572-.792 1.504 1.504 0 0 1 .025-.966 1.55 1.55 0 0 1 .61-.763 42.268 42.268 0 0 1 8.315-3.978l.102-.036.014-.107 1.198-9.355zM5.275 4.263c-.325 0-.637.126-.869.352a1.195 1.195 0 0 0-.362.854v47.956H85.41V5.469c0-.322-.131-.629-.362-.854a1.246 1.246 0 0 0-.87-.353H5.276zM35.06 83.337l.064.338H54.32l.064-.338c-2.811-1.103-6.252-2.075-9.656-2.075-3.415 0-6.857.972-9.667 2.075zm15.473-4.452l.248.061-.032-.253-1.062-8.278-.02-.153h-9.879l-.02.153-1.06 8.278-.032.254.248-.062c3.809-.947 7.8-.947 11.609 0zM85.41 65.969v-9.456H4.044v9.455c0 .322.131.63.362.855.232.226.544.352.87.352h78.903c.326 0 .638-.126.87-.352.231-.226.362-.533.362-.854z" stroke-width=".35"/></g><defs><clipPath id="anclip0"><path transform="translate(.759)" d="M0 0h91.482v88H0z"/></clipPath></defs></symbol><symbol viewBox="0 0 93 88" id="ic11" xmlns="http://www.w3.org/2000/svg"><mask id="aoa"><path d="M80.01 28.489c-3.525 0-6.573.986-8.812 2.853a10.97 10.97 0 0 0-.63.57V5.06A4.56 4.56 0 0 0 66.022.513H24.06a4.56 4.56 0 0 0-4.547 4.546v4.65l-.216-.216A7.344 7.344 0 1 0 8.91 19.88l7.566 7.567a7.346 7.346 0 0 0-3.14 12.245l4.304 4.304a7.343 7.343 0 0 0-4.304 12.482l2.905 2.905a7.343 7.343 0 0 0-4.304 12.482l7.575 7.576v3.951a4.55 4.55 0 0 0 4.547 4.546h33.57a1.749 1.749 0 0 0 1.75-1.748V69.403a9.487 9.487 0 0 1 3.776-7.553l6.714-5.036a1.764 1.764 0 0 0 .7-1.399V41.427c0-6.963 4.25-8.905 7.693-9.337v54.1a1.749 1.749 0 1 0 3.497 0V30.237a1.748 1.748 0 0 0-1.749-1.748zM24.06 4.009h41.963a1.05 1.05 0 0 1 1.05 1.05v5.238H23.008V5.059a1.05 1.05 0 0 1 1.05-1.05zM10.255 14.687c-.035-3.387 4.198-5.138 6.568-2.72l2.69 2.689v10.882l-8.131-8.13a3.822 3.822 0 0 1-1.127-2.721zm5.553 17.093c1.433-1.493 4.009-1.493 5.44 0l7.913 7.912c3.475 3.732-1.722 8.916-5.44 5.44L15.81 37.22a3.851 3.851 0 0 1 0-5.44zm15.826 5.44l-1.9-1.901A15.043 15.043 0 1 1 32.8 46.084a7.356 7.356 0 0 0-1.167-8.865zM15.81 48.564c1.432-1.492 4.008-1.492 5.44 0l7.912 7.913c3.475 3.732-1.722 8.916-5.44 5.44l-7.912-7.913a3.851 3.851 0 0 1 0-5.44zm-1.4 15.387c1.433-1.493 4.009-1.493 5.44 0l7.914 7.913c3.474 3.731-1.723 8.916-5.44 5.44L14.41 69.39a3.851 3.851 0 0 1 0-5.44zm8.6 19.44v-1.748a7.365 7.365 0 0 0 4.988-.335 7.339 7.339 0 0 0 4.358-7.35H55.88V84.44H24.06a1.05 1.05 0 0 1-1.05-1.049zm38.048-24.339a13 13 0 0 0-5.176 10.351v1.056H31.117a7.335 7.335 0 0 0-.882-1.068l-2.905-2.905a7.343 7.343 0 0 0 4.304-12.482L27.33 49.7a7.262 7.262 0 0 0 3.025-1.074 18.528 18.528 0 1 0-3.631-16.318s-3.467-3.435-3.715-3.627V13.793h44.063v40.748l-6.015 4.511z"/></mask><path d="M80.01 28.489c-3.525 0-6.573.986-8.812 2.853a10.97 10.97 0 0 0-.63.57V5.06A4.56 4.56 0 0 0 66.022.513H24.06a4.56 4.56 0 0 0-4.547 4.546v4.65l-.216-.216A7.344 7.344 0 1 0 8.91 19.88l7.566 7.567a7.346 7.346 0 0 0-3.14 12.245l4.304 4.304a7.343 7.343 0 0 0-4.304 12.482l2.905 2.905a7.343 7.343 0 0 0-4.304 12.482l7.575 7.576v3.951a4.55 4.55 0 0 0 4.547 4.546h33.57a1.749 1.749 0 0 0 1.75-1.748V69.403a9.487 9.487 0 0 1 3.776-7.553l6.714-5.036a1.764 1.764 0 0 0 .7-1.399V41.427c0-6.963 4.25-8.905 7.693-9.337v54.1a1.749 1.749 0 1 0 3.497 0V30.237a1.748 1.748 0 0 0-1.749-1.748zM24.06 4.009h41.963a1.05 1.05 0 0 1 1.05 1.05v5.238H23.008V5.059a1.05 1.05 0 0 1 1.05-1.05zM10.255 14.687c-.035-3.387 4.198-5.138 6.568-2.72l2.69 2.689v10.882l-8.131-8.13a3.822 3.822 0 0 1-1.127-2.721zm5.553 17.093c1.433-1.493 4.009-1.493 5.44 0l7.913 7.912c3.475 3.732-1.722 8.916-5.44 5.44L15.81 37.22a3.851 3.851 0 0 1 0-5.44zm15.826 5.44l-1.9-1.901A15.043 15.043 0 1 1 32.8 46.084a7.356 7.356 0 0 0-1.167-8.865zM15.81 48.564c1.432-1.492 4.008-1.492 5.44 0l7.912 7.913c3.475 3.732-1.722 8.916-5.44 5.44l-7.912-7.913a3.851 3.851 0 0 1 0-5.44zm-1.4 15.387c1.433-1.493 4.009-1.493 5.44 0l7.914 7.913c3.474 3.731-1.723 8.916-5.44 5.44L14.41 69.39a3.851 3.851 0 0 1 0-5.44zm8.6 19.44v-1.748a7.365 7.365 0 0 0 4.988-.335 7.339 7.339 0 0 0 4.358-7.35H55.88V84.44H24.06a1.05 1.05 0 0 1-1.05-1.049zm38.048-24.339a13 13 0 0 0-5.176 10.351v1.056H31.117a7.335 7.335 0 0 0-.882-1.068l-2.905-2.905a7.343 7.343 0 0 0 4.304-12.482L27.33 49.7a7.262 7.262 0 0 0 3.025-1.074 18.528 18.528 0 1 0-3.631-16.318s-3.467-3.435-3.715-3.627V13.793h44.063v40.748l-6.015 4.511z" stroke-width=".7" mask="url(#aoa)"/><path d="M46.096 38.455h-2.979a5.769 5.769 0 0 1-.17-11.535l.17-.005V25.69a1.573 1.573 0 1 1 3.147 0v1.225h1.191a4.284 4.284 0 0 1 4.281 4.469 1.574 1.574 0 0 1-3.144-.136v-.014c-.014-.338-.11-.622-.308-.829-.198-.207-.478-.315-.814-.343h-4.353a2.623 2.623 0 0 0 0 5.245h2.971a5.86 5.86 0 0 1 .338 11.704l-.162.012v1.223a1.573 1.573 0 1 1-3.147 0v-1.224h-1.435a4.284 4.284 0 0 1-4.285-4.363l.003-.18a1.574 1.574 0 0 1 3.147.045c-.095.668.406 1.366 1.137 1.35h4.412a2.712 2.712 0 0 0 0-5.42z" stroke-width=".35"/></symbol><symbol viewBox="0 0 93 88" id="ic12" xmlns="http://www.w3.org/2000/svg"><g clip-path="url(#apclip0)"><path d="M10.069 40.528a7.451 7.451 0 0 0 10.328-10.322l10.55-10.547a7.38 7.38 0 0 0 5.395 1.131 7.402 7.402 0 0 0 3.783-1.889l8.844 6.795a7.448 7.448 0 0 0 4.284 9.625 7.454 7.454 0 0 0 9.63-4.282 7.446 7.446 0 0 0-.749-6.794l10.548-10.542a7.478 7.478 0 0 0 10.36-2.107 7.469 7.469 0 0 0-2.108-10.354 7.478 7.478 0 0 0-10.36 2.107 7.468 7.468 0 0 0 0 8.247L60.026 22.138a7.456 7.456 0 0 0-9.379.946c-.028.029-.044.062-.071.088l-8.716-6.695a7.448 7.448 0 0 0-3.778-9.835 7.455 7.455 0 0 0-9.84 3.776 7.446 7.446 0 0 0 .593 7.139L18.289 28.099A7.456 7.456 0 0 0 7.96 30.205a7.447 7.447 0 0 0 2.107 10.323zM76.784 3.027a4.47 4.47 0 1 1 0 8.939 4.47 4.47 0 1 1 0-8.94zM52.753 25.195a4.473 4.473 0 0 1 7.636 3.159 4.468 4.468 0 0 1-1.31 3.162 4.584 4.584 0 0 1-6.324 0 4.468 4.468 0 0 1-.002-6.321zM31.385 10.892a4.444 4.444 0 0 1 3.672-1.906 4.468 4.468 0 0 1 3.654 7.034 4.473 4.473 0 0 1-6.228 1.097 4.468 4.468 0 0 1-1.098-6.225zm-20.37 20.262l.002-.002a4.474 4.474 0 0 1 6.325.002 4.468 4.468 0 0 1-.001 6.32 4.584 4.584 0 0 1-6.324 0 4.468 4.468 0 0 1-.002-6.32z"/><mask id="apa"><rect x="67.759" y="30" width="18" height="58" rx="1.5"/></mask><rect x="67.759" y="30" width="18" height="58" rx="1.5" stroke-width="6" mask="url(#apa)"/><mask id="apb"><rect x="25.759" y="36" width="18" height="52" rx="1.5"/></mask><rect x="25.759" y="36" width="18" height="52" rx="1.5" stroke-width="6" mask="url(#apb)"/><mask id="apc"><rect x="46.759" y="50" width="18" height="38" rx="1.5"/></mask><rect x="46.759" y="50" width="18" height="38" rx="1.5" stroke-width="6" mask="url(#apc)"/><mask id="apd"><rect x="4.759" y="56" width="18" height="32" rx="1.5"/></mask><rect x="4.759" y="56" width="18" height="32" rx="1.5" stroke-width="6" mask="url(#apd)"/><path d="M.759 85h89v3h-89z"/></g><defs><clipPath id="apclip0"><path transform="translate(.759)" d="M0 0h91.482v88H0z"/></clipPath></defs></symbol><symbol viewBox="0 0 93 88" id="ic13" xmlns="http://www.w3.org/2000/svg"><path d="M47.275 0C41.28 0 36.42 4.728 36.42 10.56c.007 5.828 4.862 10.552 10.854 10.559 5.994 0 10.854-4.728 10.854-10.56C58.129 4.728 53.269 0 47.275 0zm0 18.102c-4.282 0-7.753-3.377-7.753-7.543.005-4.163 3.473-7.537 7.753-7.542 4.281 0 7.752 3.377 7.752 7.542 0 4.166-3.47 7.543-7.752 7.543zm4.652 4.525h-9.303c-7.704.008-13.947 5.811-13.955 12.973v24.504h6.202v27.387h3.101V54.338h-3.1v2.883H31.77V35.6c.007-5.57 4.862-10.084 10.854-10.09h9.303c5.992.006 10.847 4.52 10.854 10.09v21.62H59.68v-2.883h-3.101V87.49h3.1V60.104h6.203V35.6c-.009-7.162-6.251-12.965-13.955-12.973z"/><path d="M48.826 60.339h-3.101V87.49h3.1V60.34zm27.909-45.254c-5.138 0-9.303 4.052-9.303 9.05.005 4.997 4.167 9.047 9.303 9.052 5.138 0 9.303-4.052 9.303-9.051 0-4.999-4.165-9.051-9.303-9.051zm0 15.085c-3.425 0-6.202-2.702-6.202-6.034 0-3.333 2.776-6.034 6.202-6.034 3.425 0 6.202 2.701 6.202 6.034 0 3.332-2.777 6.034-6.202 6.034zm4.651 3.017H67.433v2.935h13.954c4.28.005 7.748 3.288 7.753 7.339v19.08h-3.1v-2.936h-3.102v27.887h3.101V65.476h6.202V43.461c-.006-5.672-4.862-10.268-10.853-10.274zM67.433 60.339v2.858H61.23v2.858h6.203v21.436h3.1V60.34h-3.1z"/><path d="M78.286 64.864h-3.101v21.119h3.1V64.864zM16.264 15.085c-5.138 0-9.303 4.052-9.303 9.05.005 4.997 4.167 9.047 9.303 9.052 5.138 0 9.303-4.052 9.303-9.051 0-4.999-4.165-9.051-9.303-9.051zm0 15.085c-3.425 0-6.202-2.702-6.202-6.034 0-3.333 2.777-6.034 6.202-6.034s6.202 2.701 6.202 6.034c0 3.332-2.777 6.034-6.202 6.034z"/><path d="M11.613 33.187C5.62 33.193.766 37.788.759 43.46v22.015H6.96v22.016h3.101V59.605h-3.1v2.936H3.86V43.46c.005-4.051 3.473-7.334 7.753-7.34h13.954v-2.934H11.613zm13.955 30.01v-2.858h-3.101V87.49h3.1V66.055h6.203v-2.858h-6.202z"/><path d="M17.815 64.864h-3.101v21.119h3.101V64.864z"/></symbol><symbol viewBox="0 0 93 88" id="ic14" xmlns="http://www.w3.org/2000/svg"><path d="M56.802 51.334h-1.635a1.462 1.462 0 0 1-1.376-.948c-.182-.47-.377-.928-.586-1.383a1.432 1.432 0 0 1 .297-1.637l1.166-1.151a4.368 4.368 0 0 0-.008-6.217l-4.2-4.145a4.513 4.513 0 0 0-6.304 0L42.991 37a1.487 1.487 0 0 1-1.66.294c-.46-.207-.926-.4-1.403-.587a1.443 1.443 0 0 1-.965-1.361v-1.614c0-2.43-1.996-4.4-4.46-4.4h-5.946c-2.463 0-4.46 1.97-4.46 4.4v1.614a1.444 1.444 0 0 1-.96 1.358c-.476.179-.94.371-1.402.578a1.485 1.485 0 0 1-1.659-.294l-1.167-1.15a4.514 4.514 0 0 0-6.301 0l-4.201 4.159a4.368 4.368 0 0 0 0 6.218l1.164 1.15c.439.43.558 1.084.297 1.637-.21.455-.404.914-.587 1.385a1.46 1.46 0 0 1-1.387.946H6.259c-2.464 0-4.46 1.97-4.46 4.4V61.6c0 2.43 1.996 4.4 4.46 4.4h1.635a1.462 1.462 0 0 1 1.376.948c.182.469.377.928.586 1.383.26.553.142 1.207-.297 1.636L8.393 71.12a4.369 4.369 0 0 0 0 6.217l4.201 4.145a4.513 4.513 0 0 0 6.304 0l1.165-1.149a1.487 1.487 0 0 1 1.659-.293c.46.207.926.399 1.403.587.584.204.974.75.973 1.36V83.6c0 2.43 1.996 4.4 4.46 4.4h5.946c2.463 0 4.46-1.97 4.46-4.4v-1.613a1.444 1.444 0 0 1 .96-1.358 24.46 24.46 0 0 0 1.402-.578 1.485 1.485 0 0 1 1.659.293l1.167 1.15a4.515 4.515 0 0 0 6.301-.007l4.201-4.145a4.369 4.369 0 0 0 0-6.219l-1.164-1.15a1.432 1.432 0 0 1-.297-1.636c.21-.455.404-.914.595-1.385a1.46 1.46 0 0 1 1.38-.952h1.634c2.464 0 4.46-1.97 4.46-4.4v-5.867c0-2.43-1.996-4.4-4.46-4.4zM58.29 61.6c0 .81-.666 1.467-1.487 1.467h-1.635c-1.848.007-3.502 1.134-4.162 2.836-.158.411-.328.815-.512 1.213a4.37 4.37 0 0 0 .892 4.922l1.163 1.149c.58.572.581 1.5 0 2.074v.001l-4.201 4.145a1.5 1.5 0 0 1-2.102 0l-1.166-1.148a4.514 4.514 0 0 0-4.989-.88 21.7 21.7 0 0 1-1.226.504 4.416 4.416 0 0 0-2.874 4.104V83.6c0 .81-.665 1.467-1.486 1.467h-5.947c-.82 0-1.486-.657-1.486-1.467v-1.613a4.417 4.417 0 0 0-2.875-4.107 20.601 20.601 0 0 1-1.23-.504 4.52 4.52 0 0 0-4.989.88l-1.164 1.147a1.5 1.5 0 0 1-2.102 0h-.001l-4.201-4.14a1.453 1.453 0 0 1 0-2.075l1.164-1.15a4.37 4.37 0 0 0 .892-4.922 21.094 21.094 0 0 1-.512-1.21c-.659-1.703-2.311-2.831-4.16-2.84H6.26A1.477 1.477 0 0 1 4.772 61.6v-5.867c0-.81.666-1.466 1.487-1.466h1.635a4.474 4.474 0 0 0 4.162-2.837c.158-.41.328-.815.512-1.213a4.37 4.37 0 0 0-.892-4.922l-1.169-1.148a1.453 1.453 0 0 1 0-2.074v-.002l4.201-4.144a1.5 1.5 0 0 1 2.102 0l1.166 1.148a4.514 4.514 0 0 0 4.989.88c.403-.18.813-.349 1.226-.504a4.415 4.415 0 0 0 2.88-4.104v-1.614c0-.81.665-1.466 1.486-1.466h5.947c.82 0 1.486.656 1.486 1.466v1.614a4.417 4.417 0 0 0 2.875 4.106c.416.156.826.324 1.23.505a4.514 4.514 0 0 0 4.989-.88l1.164-1.147a1.51 1.51 0 0 1 2.103 0l4.201 4.145c.58.573.58 1.501 0 2.074l-1.164 1.15a4.37 4.37 0 0 0-.892 4.922c.183.397.354.802.512 1.21a4.472 4.472 0 0 0 4.16 2.835h1.634c.821 0 1.487.656 1.487 1.466V61.6z"/><path d="M45.986 58.076a12.77 12.77 0 0 0-.273-2.164c-.053-.24-.123-.475-.19-.713-.086-.302-.182-.6-.289-.893a26.863 26.863 0 0 0-.231-.607c-.197-.47-.421-.927-.673-1.372-.02-.034-.032-.07-.051-.104a12.997 12.997 0 0 0-1.372-1.922c-.044-.053-.095-.103-.14-.154-.21-.24-.427-.47-.655-.692-.118-.119-.243-.23-.368-.345a14.278 14.278 0 0 0-1.023-.849l-.25-.178a13.982 13.982 0 0 0-8.174-2.616c-.152 0-.305.022-.457.028a13.766 13.766 0 0 0-1.497.118c-.497.063-.99.152-1.477.266-7.34 1.824-11.753 9.026-9.856 16.086 1.25 4.652 5.029 8.284 9.867 9.483.024 0 .05.007.076.013.526.126 1.06.224 1.597.293.356.042.71.051 1.067.067.238.012.458.046.706.046.435 0 .886-.028 1.346-.072.049 0 .098-.013.153-.02.37-.039.745-.092 1.128-.165.152-.028.294-.064.44-.097.268-.06.535-.123.81-.2.213-.062.42-.134.63-.204.208-.07.424-.147.64-.226.217-.08.399-.17.595-.258.257-.113.511-.224.763-.356h.009a18.043 18.043 0 0 0 3.907-2.714c.316-.284.59-.608.817-.962a15.281 15.281 0 0 0 2.399-6.88c.021-.266.036-.53.043-.794 0-.084.012-.163.012-.246.001-.207-.02-.398-.03-.597zm-3.038.96c0 .122-.01.244-.018.364-.028.355-.075.71-.138 1.066-.57 3.048-2.537 5.687-5.356 7.184-.19.095-.375.185-.561.267l-.127.059c-.885.386-1.82.658-2.78.809-.067.01-.136.022-.204.03-.19.027-.378.05-.564.065-.246.02-.493.032-.744.037h-.319c-.36-.004-.72-.026-1.079-.065l-.183-.02a11.68 11.68 0 0 1-1.245-.226c-5.71-1.405-9.153-6.996-7.692-12.488.966-3.628 3.91-6.462 7.681-7.395v-.001a11.442 11.442 0 0 1 2.678-.323c.436.002.872.03 1.304.085.116.013.23.034.344.05.33.05.656.113.977.192.105.026.21.05.314.078.81.225 1.591.54 2.325.941.117.066.231.135.347.204.241.147.474.293.705.46.123.087.248.172.367.264.3.23.586.475.858.733.108.106.207.222.313.332a10.322 10.322 0 0 1 .837.988c.152.211.304.43.442.654l.23.365c.196.348.372.707.524 1.075.061.146.113.293.168.44.099.27.184.542.259.818.038.146.08.277.113.419.089.396.153.797.193 1.2.01.108.01.216.017.323.022.337.028.676.014 1.016zm44.336-28.295h-4.689a1.454 1.454 0 0 1-1.39-.96 30.18 30.18 0 0 0-1.673-3.969 1.414 1.414 0 0 1 .286-1.652l3.324-3.27a4.336 4.336 0 0 0 0-6.208l-6.338-6.214a4.53 4.53 0 0 0-6.323 0l-3.323 3.262a1.48 1.48 0 0 1-1.681.282 31.3 31.3 0 0 0-4.043-1.652 1.43 1.43 0 0 1-.984-1.365V4.392C60.45 1.966 58.447 0 55.977 0h-8.944c-2.47 0-4.473 1.966-4.473 4.392v4.603a1.43 1.43 0 0 1-.978 1.365 31.4 31.4 0 0 0-4.041 1.651 1.476 1.476 0 0 1-1.683-.281l-3.33-3.264a4.54 4.54 0 0 0-6.321 0l-6.327 6.212a4.336 4.336 0 0 0 0 6.21l4.888 4.809a1.51 1.51 0 0 0 2.108-.033c.559-.567.56-1.466.003-2.034l-4.891-4.808a1.445 1.445 0 0 1 0-2.07l6.326-6.212a1.51 1.51 0 0 1 2.108 0l3.33 3.264a4.493 4.493 0 0 0 5.123.826 28.491 28.491 0 0 1 3.654-1.492c1.807-.6 3.02-2.269 3.013-4.143V4.392c0-.809.667-1.464 1.49-1.464h8.945c.824 0 1.491.655 1.491 1.464v4.603c-.008 1.874 1.206 3.542 3.013 4.142 1.253.412 2.474.911 3.655 1.493 1.71.833 3.773.5 5.121-.827l3.33-3.263a1.51 1.51 0 0 1 2.108 0l6.327 6.214a1.445 1.445 0 0 1 0 2.068l-3.324 3.27a4.298 4.298 0 0 0-.84 5.03 27.42 27.42 0 0 1 1.518 3.588c.612 1.775 2.31 2.967 4.22 2.959h4.688c.823 0 1.49.655 1.49 1.464v8.783c0 .808-.667 1.464-1.49 1.464h-4.689c-1.907-.008-3.606 1.184-4.217 2.958-.42 1.23-.929 2.43-1.52 3.59a4.3 4.3 0 0 0 .841 5.028l3.325 3.27a1.445 1.445 0 0 1 0 2.07l-6.33 6.213a1.51 1.51 0 0 1-2.106 0l-4.9-4.8a1.51 1.51 0 0 0-2.107-.033 1.445 1.445 0 0 0 .003 2.105l4.897 4.8a4.53 4.53 0 0 0 6.323 0l6.326-6.21a4.336 4.336 0 0 0 0-6.21l-3.32-3.266a1.416 1.416 0 0 1-.287-1.651 30.102 30.102 0 0 0 1.683-3.97 1.454 1.454 0 0 1 1.39-.967h4.688c2.47 0 4.472-1.966 4.472-4.391v-8.783c0-2.426-2.002-4.392-4.472-4.392z"/><path d="M64.734 25.988c-7.584-7.273-19.863-7.273-27.448 0a1.395 1.395 0 0 0 .037 2.028 1.537 1.537 0 0 0 2.074 0c6.371-6.204 16.77-6.27 23.226-.15 6.457 6.122 6.526 16.114.156 22.318l-.156.15a1.395 1.395 0 0 0-.036 2.028 1.536 1.536 0 0 0 2.147 0c7.569-7.288 7.569-19.087 0-26.375z"/></symbol><symbol viewBox="0 0 59 59" id="ic2" xmlns="http://www.w3.org/2000/svg"><g clip-path="url(#asclip0)" filter="url(#asfilter0_d)"><path d="M49.782 31.37h-6.783a2.543 2.543 0 0 0-2.543 2.543v13.565a2.543 2.543 0 0 0 2.543 2.543h6.782a2.543 2.543 0 0 0 2.544-2.544V33.913a2.543 2.543 0 0 0-2.544-2.544zm.847 16.107c0 .469-.38.848-.847.848h-6.783a.848.848 0 0 1-.848-.848V33.913c0-.469.38-.848.848-.848h6.782c.469 0 .848.38.848.848v13.565z"/><path d="M51.52 0H21.507a2.499 2.499 0 0 0-2.5 2.496v18.307H8.167a2.499 2.499 0 0 0-2.5 2.496v16.642h-.834a.833.833 0 0 0-.834.832 4.17 4.17 0 0 0 4.168 4.16h26.678a4.16 4.16 0 0 0 4.169-4.151v-.009a.833.833 0 0 0-.834-.832h-.834v-9.153h9.17a.833.833 0 1 0 0-1.664h-4.373l-1.19-4.16H51.52a2.499 2.499 0 0 0 2.5-2.497V2.497A2.499 2.499 0 0 0 51.52 0zM7.335 23.3c0-.46.373-.833.833-.833h26.678c.46 0 .834.373.834.832v16.642H24.008a.833.833 0 0 0-.833.832H19.84a.833.833 0 0 0-.834-.832H7.335V23.3zM36.62 42.535a2.52 2.52 0 0 1-1.774.734H8.168a2.506 2.506 0 0 1-2.358-1.665h12.363c0 .46.373.833.833.833h5.002c.46 0 .834-.373.834-.833h12.363a2.531 2.531 0 0 1-.585.93zm.727-13.412v-4.16h1.873l1.19 4.16h-3.063zm15.006-6.657c0 .46-.373.832-.833.832H37.347a2.499 2.499 0 0 0-2.5-2.496H20.673V2.496c0-.46.373-.832.833-.832H51.52c.46 0 .833.373.833.832v19.971z"/></g><defs><clipPath id="asclip0"><path transform="translate(4)" d="M0 0h52v50.021H0z"/></clipPath><filter id="asfilter0_d" x="0" y="0" width="60" height="58.021" filterUnits="userSpaceOnUse" color-interpolation-filters="sRGB"><feFlood flood-opacity="0" result="BackgroundImageFix"/><feColorMatrix in="SourceAlpha" values="0 0 0 0 0 0 0 0 0 0 0 0 0 0 0 0 0 0 127 0"/><feOffset dy="4"/><feGaussianBlur stdDeviation="2"/><feColorMatrix values="0 0 0 0 0 0 0 0 0 0 0 0 0 0 0 0 0 0 0.25 0"/><feBlend in2="BackgroundImageFix" result="effect1_dropShadow"/><feBlend in="SourceGraphic" in2="effect1_dropShadow" result="shape"/></filter></defs></symbol><symbol viewBox="0 0 51 50" id="ic3" xmlns="http://www.w3.org/2000/svg"><path d="M20.429 40.06l.025-.197H2.568a2.464 2.464 0 0 1-1.717-.695 2.338 2.338 0 0 1-.71-1.67V3.108c0-.625.255-1.226.71-1.67A2.464 2.464 0 0 1 2.568.743h44.85a2.469 2.469 0 0 1 1.718.695c.455.444.71 1.045.71 1.67v34.39c0 .625-.255 1.226-.71 1.67a2.464 2.464 0 0 1-1.718.695H29.533l.026.197.681 5.318.014.107.102.036a23.956 23.956 0 0 1 4.71 2.254.805.805 0 0 1 .317.395.78.78 0 0 1 .013.501.803.803 0 0 1-.297.412.844.844 0 0 1-.494.159H15.383a.844.844 0 0 1-.494-.16.803.803 0 0 1-.297-.41.78.78 0 0 1 .013-.502c.059-.16.17-.3.316-.395a23.957 23.957 0 0 1 4.71-2.254l.103-.036.013-.107.682-5.318zm26.99-37.713H2.569v.175-.175a.787.787 0 0 0-.548.222.755.755 0 0 0-.228.54v27.334h46.401V3.108a.755.755 0 0 0-.229-.54.784.784 0 0 0-.546-.22zM19.47 47.3l.064.338h10.911l.063-.338c-1.602-.629-3.568-1.184-5.515-1.184-1.955 0-3.922.555-5.523 1.184zm8.804-2.387l.248.062-.032-.254-.604-4.705-.02-.153H22.12l-.02.153-.602 4.705-.032.254.248-.062a13.615 13.615 0 0 1 6.562 0zm19.92-7.415v-5.451H1.792v5.451a.76.76 0 0 0 .228.54.784.784 0 0 0 .547.22h44.85a.785.785 0 0 0 .547-.22.755.755 0 0 0 .23-.54z" stroke-width=".35"/><path d="M12.378 7.17l-.03-.085H9.776a.887.887 0 0 1-.62-.25.838.838 0 0 1-.254-.6c0-.225.09-.44.254-.6a.887.887 0 0 1 .62-.25h3.203c.184 0 .364.057.512.161a.85.85 0 0 1 .318.421l4.577 13.4.03.086h8.924l.034-.073a6.121 6.121 0 0 1 2.447-2.68l.403-.236h-8.435a.887.887 0 0 1-.619-.25.838.838 0 0 1-.255-.6c0-.225.091-.44.255-.6a.886.886 0 0 1 .619-.25h8.81l.068.003.098.008.032-.093.936-2.74.057-.168H20.187a.886.886 0 0 1-.619-.25.838.838 0 0 1-.255-.6c0-.224.092-.44.255-.6a.887.887 0 0 1 .62-.25h12.814a.9.9 0 0 1 .399.094.87.87 0 0 1 .31.26.838.838 0 0 1 .12.764l-1.54 4.506-.063.186.196-.018a6.283 6.283 0 0 1 4.012.99 6.063 6.063 0 0 1 2.276 2.705 5.89 5.89 0 0 1 .35 3.48 5.983 5.983 0 0 1-1.69 3.086 6.23 6.23 0 0 1-3.164 1.651 6.324 6.324 0 0 1-3.572-.343 6.15 6.15 0 0 1-2.774-2.221 5.923 5.923 0 0 1-1.011-3.922l.013-.14h-8.946l.384.236c.506.311.879.79 1.052 1.346a2.36 2.36 0 0 1-.111 1.687 2.448 2.448 0 0 1-1.22 1.204 2.538 2.538 0 0 1-1.732.129 2.474 2.474 0 0 1-1.394-1.01 2.367 2.367 0 0 1-.372-1.651 2.4 2.4 0 0 1 .83-1.485 2.517 2.517 0 0 1 1.628-.591v-.128l.101-.077a.84.84 0 0 1-.129-.241l-4.577-13.4zm4.606 16.973a.736.736 0 0 0 .513-.208.707.707 0 0 0 .215-.505.703.703 0 0 0-.124-.398.74.74 0 0 0-1.118-.108.71.71 0 0 0-.158.78.725.725 0 0 0 .672.439zm16.018-6.605c-.876 0-1.733.254-2.461.729a4.352 4.352 0 0 0-1.634 1.942 4.235 4.235 0 0 0-.252 2.502c.171.84.594 1.612 1.214 2.217a4.466 4.466 0 0 0 2.269 1.183c.859.167 1.75.082 2.559-.246a4.411 4.411 0 0 0 1.989-1.593 4.256 4.256 0 0 0 .748-2.406h-.127.127a4.283 4.283 0 0 0-1.301-3.06 4.492 4.492 0 0 0-3.131-1.268z" stroke-width=".254"/><path d="M31.08 22.662l-.07-.036a.857.857 0 0 1-.433-.492.828.828 0 0 1 .048-.643.867.867 0 0 1 .502-.426.897.897 0 0 1 .666.042l.81.396.099.048.062-.091 1.11-1.627a.876.876 0 0 1 .556-.356.895.895 0 0 1 .654.127.849.849 0 0 1 .37.537.83.83 0 0 1-.123.633l-1.602 2.344a.874.874 0 0 1-.502.351.896.896 0 0 1-.617-.062l-1.53-.745z" stroke-width=".254"/></symbol><symbol viewBox="0 0 52 51" id="ic4" xmlns="http://www.w3.org/2000/svg"><mask id="aua"><path d="M45.048 16.193c-2.004 0-3.736.561-5.009 1.622a5.974 5.974 0 0 0-.358.325V2.875A2.592 2.592 0 0 0 37.097.291H13.244a2.592 2.592 0 0 0-2.584 2.584V5.52l-.123-.123A4.174 4.174 0 1 0 4.633 11.3l4.301 4.3a4.176 4.176 0 0 0-1.785 6.961l2.447 2.447a4.173 4.173 0 0 0-2.447 7.094l1.652 1.652a4.173 4.173 0 0 0-2.447 7.094l4.306 4.307V47.4a2.586 2.586 0 0 0 2.584 2.584h19.083a.994.994 0 0 0 .993-.994v-9.54a5.392 5.392 0 0 1 2.147-4.294l3.817-2.862a1.004 1.004 0 0 0 .397-.795v-7.951c0-3.958 2.416-5.062 4.373-5.307v30.75a.993.993 0 1 0 1.988 0V17.187a.994.994 0 0 0-.994-.994zM13.244 2.28h23.853a.597.597 0 0 1 .596.596v2.978H12.648V2.875a.597.597 0 0 1 .596-.596zM5.398 8.348c-.02-1.926 2.386-2.92 3.733-1.547l1.53 1.529v6.185L6.038 9.894a2.172 2.172 0 0 1-.641-1.546zm3.157 9.715c.814-.848 2.278-.848 3.092 0l4.498 4.498c1.975 2.121-.98 5.068-3.093 3.092l-4.497-4.497a2.19 2.19 0 0 1 0-3.093zm8.995 3.093l-1.08-1.08a8.55 8.55 0 1 1 1.744 6.119 4.181 4.181 0 0 0-.664-5.04zm-8.995 6.449c.814-.849 2.278-.849 3.092 0l4.498 4.497c1.975 2.122-.98 5.068-3.093 3.093l-4.497-4.498a2.19 2.19 0 0 1 0-3.092zM7.76 36.35c.814-.849 2.278-.849 3.092 0l4.498 4.497c1.975 2.122-.98 5.068-3.093 3.093L7.76 39.443a2.19 2.19 0 0 1 0-3.092zm4.888 11.05v-.994a4.19 4.19 0 0 0 2.835-.19 4.172 4.172 0 0 0 2.477-4.179h13.373v5.96H13.244a.597.597 0 0 1-.596-.597zm21.627-13.835a7.39 7.39 0 0 0-2.942 5.884v.6H17.257a4.174 4.174 0 0 0-.502-.607l-1.651-1.652a4.174 4.174 0 0 0 2.446-7.094l-2.446-2.447a4.128 4.128 0 0 0 1.72-.61 10.532 10.532 0 1 0-2.065-9.276s-1.97-1.952-2.111-2.061V7.84h25.045v23.162l-3.418 2.564z"/></mask><path d="M45.048 16.193c-2.004 0-3.736.561-5.009 1.622a5.974 5.974 0 0 0-.358.325V2.875A2.592 2.592 0 0 0 37.097.291H13.244a2.592 2.592 0 0 0-2.584 2.584V5.52l-.123-.123A4.174 4.174 0 1 0 4.633 11.3l4.301 4.3a4.176 4.176 0 0 0-1.785 6.961l2.447 2.447a4.173 4.173 0 0 0-2.447 7.094l1.652 1.652a4.173 4.173 0 0 0-2.447 7.094l4.306 4.307V47.4a2.586 2.586 0 0 0 2.584 2.584h19.083a.994.994 0 0 0 .993-.994v-9.54a5.392 5.392 0 0 1 2.147-4.294l3.817-2.862a1.004 1.004 0 0 0 .397-.795v-7.951c0-3.958 2.416-5.062 4.373-5.307v30.75a.993.993 0 1 0 1.988 0V17.187a.994.994 0 0 0-.994-.994zM13.244 2.28h23.853a.597.597 0 0 1 .596.596v2.978H12.648V2.875a.597.597 0 0 1 .596-.596zM5.398 8.348c-.02-1.926 2.386-2.92 3.733-1.547l1.53 1.529v6.185L6.038 9.894a2.172 2.172 0 0 1-.641-1.546zm3.157 9.715c.814-.848 2.278-.848 3.092 0l4.498 4.498c1.975 2.121-.98 5.068-3.093 3.092l-4.497-4.497a2.19 2.19 0 0 1 0-3.093zm8.995 3.093l-1.08-1.08a8.55 8.55 0 1 1 1.744 6.119 4.181 4.181 0 0 0-.664-5.04zm-8.995 6.449c.814-.849 2.278-.849 3.092 0l4.498 4.497c1.975 2.122-.98 5.068-3.093 3.093l-4.497-4.498a2.19 2.19 0 0 1 0-3.092zM7.76 36.35c.814-.849 2.278-.849 3.092 0l4.498 4.497c1.975 2.122-.98 5.068-3.093 3.093L7.76 39.443a2.19 2.19 0 0 1 0-3.092zm4.888 11.05v-.994a4.19 4.19 0 0 0 2.835-.19 4.172 4.172 0 0 0 2.477-4.179h13.373v5.96H13.244a.597.597 0 0 1-.596-.597zm21.627-13.835a7.39 7.39 0 0 0-2.942 5.884v.6H17.257a4.174 4.174 0 0 0-.502-.607l-1.651-1.652a4.174 4.174 0 0 0 2.446-7.094l-2.446-2.447a4.128 4.128 0 0 0 1.72-.61 10.532 10.532 0 1 0-2.065-9.276s-1.97-1.952-2.111-2.061V7.84h25.045v23.162l-3.418 2.564z" stroke-width=".509" mask="url(#aua)"/><path d="M25.771 21.83h-1.694a3.252 3.252 0 0 1-.095-6.501l.123-.004v-.722a.867.867 0 1 1 1.734 0v.723h.704a2.407 2.407 0 0 1 2.406 2.512.866.866 0 1 1-1.732-.075v-.01c-.008-.196-.064-.365-.183-.49-.118-.123-.285-.186-.48-.203h-2.477a1.519 1.519 0 0 0 0 3.037h1.69a3.303 3.303 0 0 1 .19 6.598l-.118.008v.721a.867.867 0 0 1-1.734 0v-.723h-.843a2.41 2.41 0 0 1-2.408-2.452l.002-.103a.867.867 0 0 1 1.733.023c-.055.394.24.807.674.798h2.509a1.57 1.57 0 0 0 0-3.136z" stroke-width=".254"/><path d="M17.905 21.884l-3.695-3.786v-3.32l5.4-5.115L27 8.811l7.958 3.126 1.99 7.39-2.559 8.81-5.116 4.547-8.81-.852-4.263-3.98.848-.636a2.84 2.84 0 0 0 .514-.498l.912-1.14.284.285 1.137-.852-.285-1.99-1.705-1.137z"/></symbol><symbol viewBox="0 0 52 51" id="ic5" xmlns="http://www.w3.org/2000/svg"><g clip-path="url(#avclip0)" stroke-width=".254"><path d="M44.294 5.718c7.19 7.161 7.494 18.706.691 26.236-7.043 7.795-19.07 8.403-26.864 1.359l-.09-.081-.085.085-1.462 1.463-.09.09.09.09a2.9 2.9 0 0 1 0 4.1L6.5 49.044a2.898 2.898 0 0 1-4.098 0L.976 47.619a2.9 2.9 0 0 1 0-4.1l-.09-.09.09.09 9.984-9.986a2.898 2.898 0 0 1 4.099 0l.09.09.09-.09 1.462-1.462.085-.086-.08-.09c-6.79-7.526-6.487-19.056.69-26.215 7.438-7.419 19.48-7.402 26.898.038zM15.24 37.812a1.136 1.136 0 0 0 0-1.605l-1.426-1.427-.003-.002a1.159 1.159 0 0 0-1.601 0l-.002.002-9.984 9.985a1.136 1.136 0 0 0 0 1.605l1.426 1.428a1.135 1.135 0 0 0 1.606 0l-.09-.09.09.09 9.983-9.986zm27.81-6.418c6.734-6.75 6.734-17.679 0-24.43C36.305.22 25.37.22 18.625 6.964c-6.744 6.746-6.745 17.684 0 24.43 6.744 6.746 17.68 6.746 24.424 0z"/><path d="M40.028 28.26a12.917 12.917 0 0 0 0-18.369l1.265-1.235a14.627 14.627 0 0 1 0 20.84l-1.265-1.236z"/></g><defs><clipPath id="avclip0"><path d="M0 0h52v50.021H0z"/></clipPath></defs></symbol><symbol viewBox="0 0 52 51" id="ic6" xmlns="http://www.w3.org/2000/svg"><g clip-path="url(#awclip0)"><path d="M33.24 18.004l-.003.002a2.733 2.733 0 0 1-3.77 0l-.001-.002a2.667 2.667 0 0 1 1.887-4.555l1.887 4.555zm0 0a2.667 2.667 0 0 0-1.887-4.555l1.887 4.555zm-27.5-.385v-.001h.001zm0 0a2.667 2.667 0 0 0 .001 3.772l.003.003a2.733 2.733 0 0 0 3.77 0l.001-.003a2.667 2.667 0 0 0 .001-3.773 2.67 2.67 0 0 0-3.775 0zm5.332-.54l-.073.074.057.087a4.106 4.106 0 0 1-3.428 6.372A4.106 4.106 0 0 1 4.2 17.24a4.11 4.11 0 0 1 5.694-1.162l.087.057.073-.073 5.995-5.992.073-.074-.057-.087a4.106 4.106 0 0 1-.327-3.936 4.11 4.11 0 0 1 5.426-2.081 4.106 4.106 0 0 1 2.082 5.422l-.04.092.08.06 4.953 3.806.089.068.079-.079c.016-.015.027-.032.033-.04l.006-.008.002-.002a4.11 4.11 0 0 1 5.17-.521l.087.057.074-.073 5.995-5.993.074-.073-.058-.087a4.118 4.118 0 0 1 0-4.547l-.106-.07.106.07A4.123 4.123 0 0 1 45.503.812a4.118 4.118 0 0 1 1.162 5.71l.091.06-.091-.06a4.123 4.123 0 0 1-5.713 1.16l-.086-.056-.074.073-5.995 5.992-.074.074.058.087a4.106 4.106 0 0 1 .413 3.745 4.11 4.11 0 0 1-7.672-2.945l.034-.089-.075-.058-5.027-3.862-.086-.066-.078.074a4.08 4.08 0 0 1-2.086 1.041 4.067 4.067 0 0 1-2.974-.623l-.087-.058-.073.074-5.998 5.995zm7.955-12.058a2.653 2.653 0 0 0-1.722 1.096l-.01.016v.001l.001-.002a.126.126 0 0 1 .007-.012 2.667 2.667 0 0 0 .656 3.714 2.67 2.67 0 0 0 3.718-.655 2.667 2.667 0 0 0-2.181-4.198c-.157 0-.314.013-.468.04zm26.857-.76a2.668 2.668 0 1 0-5.337.001 2.668 2.668 0 0 0 5.337-.001z" stroke-width=".254"/><mask id="awa"><rect x="38.084" y="17.052" width="10.232" height="32.968" rx=".853"/></mask><rect x="38.084" y="17.052" width="10.232" height="32.968" rx=".853" stroke-width="2.5" mask="url(#awa)"/><mask id="awb"><rect x="14.21" y="20.463" width="10.232" height="29.558" rx=".853"/></mask><rect x="14.21" y="20.463" width="10.232" height="29.558" rx=".853" stroke-width="2.5" mask="url(#awb)"/><mask id="awc"><rect x="26.147" y="28.421" width="10.232" height="21.6" rx=".853"/></mask><rect x="26.147" y="28.421" width="10.232" height="21.6" rx=".853" stroke-width="2.5" mask="url(#awc)"/><mask id="awd"><rect x="2.273" y="31.831" width="10.232" height="18.189" rx=".853"/></mask><rect x="2.273" y="31.831" width="10.232" height="18.189" rx=".853" stroke-width="2.5" mask="url(#awd)"/><path stroke-width=".45" d="M.225 48.54h50.139v1.255H.225z"/></g><defs><clipPath id="awclip0"><path d="M0 0h52v50.021H0z"/></clipPath></defs></symbol><symbol viewBox="0 0 52 50" id="ic7" xmlns="http://www.w3.org/2000/svg"><path d="M26.441 1.588c-2.5.003-4.531 1.974-4.534 4.414 0 2.441 2.033 4.414 4.534 4.414 2.5 0 4.534-1.973 4.534-4.414s-2.033-4.414-4.534-4.414zm-6.042 4.414c0-3.241 2.702-5.875 6.042-5.875s6.042 2.634 6.042 5.875-2.701 5.875-6.042 5.875c-3.339-.004-6.038-2.635-6.042-5.875zm-.882 28.162v-.127H15.99V20.236c.005-3.992 3.488-7.243 7.806-7.247h5.287c4.318.004 7.8 3.255 7.806 7.247v13.801h-3.526v15.567h-1.508v-18.59h1.508v1.639h2.017V20.236c-.004-3.245-2.83-5.86-6.296-5.863h-5.288c-3.468.004-6.293 2.618-6.297 5.862v12.418h2.017v-1.639h1.508v18.59h-1.508v-15.44z" stroke-width=".254"/><path d="M25.687 34.425h1.508v15.18h-1.508v-15.18zm17.5-15.688c-2.853-.003-5.159-2.251-5.161-5.018 0-2.768 2.307-5.017 5.16-5.017 2.854 0 5.161 2.25 5.161 5.017 0 2.768-2.307 5.018-5.16 5.018zm-3.653-5.018c0 1.968 1.639 3.557 3.653 3.557 2.014 0 3.652-1.59 3.652-3.557 0-1.968-1.639-3.557-3.652-3.557-2.014 0-3.653 1.59-3.653 3.557zm6.296 6.686h-7.804v-1.414h7.805c3.342.004 6.038 2.566 6.042 5.713V37.09h-3.526v12.515H46.84V34.008h1.508v1.668h2.017V24.704c-.003-2.38-2.038-4.296-4.534-4.299z" stroke-width=".254"/><path d="M37.898 34.298v1.624h-3.525v1.625h3.526v12.185h1.762V34.298h-1.763zm6.169 2.572h-1.762v12.004h1.762V36.87zM8.814 8.574c-2.921 0-5.289 2.304-5.289 5.145.003 2.84 2.37 5.142 5.289 5.145 2.92 0 5.288-2.303 5.288-5.145 0-2.841-2.368-5.145-5.288-5.145zm0 8.575c-1.947 0-3.526-1.536-3.526-3.43 0-1.894 1.579-3.43 3.526-3.43 1.947 0 3.525 1.536 3.525 3.43 0 1.894-1.578 3.43-3.525 3.43zM6.17 18.864C2.763 18.867.003 21.48 0 24.704v12.514h3.525v12.514h1.763V33.88H3.525v1.668H1.763V24.704c.003-2.303 1.974-4.169 4.406-4.172h7.933v-1.668H6.169zm7.932 17.058v-1.624h-1.763v15.434h1.763V37.547h3.525v-1.625h-3.525z" stroke-width=".25"/><path d="M9.695 36.87H7.932v12.004h1.763V36.87z" stroke-width=".25"/></symbol><symbol viewBox="0 0 52 51" id="ic8" xmlns="http://www.w3.org/2000/svg"><mask id="aya"><path d="M31.856 29.179h-.93a.831.831 0 0 1-.782-.539 13.425 13.425 0 0 0-.333-.786.814.814 0 0 1 .169-.93l.662-.655a2.483 2.483 0 0 0-.004-3.534L28.25 20.38a2.565 2.565 0 0 0-3.583 0l-.662.653a.845.845 0 0 1-.943.167 18.214 18.214 0 0 0-.798-.334.82.82 0 0 1-.548-.773v-.917c0-1.382-1.135-2.501-2.535-2.501H15.8c-1.4 0-2.535 1.12-2.535 2.5v.918a.821.821 0 0 1-.546.772c-.27.101-.535.21-.797.328a.844.844 0 0 1-.943-.167l-.663-.653a2.565 2.565 0 0 0-3.582 0l-2.388 2.363a2.483 2.483 0 0 0 0 3.535l.661.654c.25.244.318.616.17.93-.12.259-.23.52-.334.787a.83.83 0 0 1-.789.538h-.93c-1.4 0-2.534 1.12-2.534 2.5v3.335c0 1.382 1.135 2.502 2.535 2.502h.93a.83.83 0 0 1 .782.538c.103.267.214.528.333.786a.814.814 0 0 1-.17.93l-.662.655a2.483 2.483 0 0 0 0 3.534l2.388 2.356a2.565 2.565 0 0 0 3.583 0l.662-.653a.845.845 0 0 1 .944-.166c.261.117.526.226.797.333a.82.82 0 0 1 .553.774v.917c0 1.381 1.135 2.5 2.535 2.5h3.38c1.4 0 2.535-1.119 2.535-2.5v-.917a.82.82 0 0 1 .546-.772c.27-.102.535-.211.796-.329a.844.844 0 0 1 .944.167l.663.654c.992.97 2.592.968 3.582-.005l2.388-2.356a2.483 2.483 0 0 0 0-3.534l-.662-.654a.814.814 0 0 1-.169-.93c.12-.259.23-.52.338-.787a.83.83 0 0 1 .784-.541h.93c1.4 0 2.535-1.12 2.535-2.502V31.68c0-1.381-1.135-2.501-2.535-2.501zm.845 5.835a.84.84 0 0 1-.845.834h-.93a2.543 2.543 0 0 0-2.366 1.613c-.09.233-.186.463-.29.689a2.484 2.484 0 0 0 .507 2.798l.66.653c.33.325.33.853.001 1.179l-2.389 2.356a.853.853 0 0 1-1.194 0l-.663-.653a2.566 2.566 0 0 0-2.836-.5c-.229.103-.462.199-.697.287a2.51 2.51 0 0 0-1.633 2.333v.917a.84.84 0 0 1-.845.833H15.8a.84.84 0 0 1-.845-.833v-.917a2.51 2.51 0 0 0-1.634-2.335c-.237-.088-.47-.184-.7-.286a2.57 2.57 0 0 0-2.835.5l-.662.652a.853.853 0 0 1-1.195 0L5.542 42.78a.826.826 0 0 1 0-1.179l.661-.653c.74-.74.942-1.852.507-2.798a11.975 11.975 0 0 1-.29-.688 2.542 2.542 0 0 0-2.365-1.614h-.93a.84.84 0 0 1-.844-.834V31.68a.84.84 0 0 1 .845-.834h.93a2.543 2.543 0 0 0 2.365-1.612c.09-.234.187-.463.291-.69a2.484 2.484 0 0 0-.507-2.797l-.664-.653a.826.826 0 0 1 0-1.18l2.388-2.356a.853.853 0 0 1 1.195 0l.662.653c.749.73 1.877.93 2.836.5.229-.102.462-.198.697-.287a2.51 2.51 0 0 0 1.637-2.332v-.917a.84.84 0 0 1 .845-.834h3.38a.84.84 0 0 1 .845.834v.917a2.51 2.51 0 0 0 1.634 2.334c.237.088.47.184.699.287.959.43 2.087.23 2.836-.5l.661-.652a.858.858 0 0 1 1.196 0l2.388 2.356c.33.325.33.853 0 1.178l-.662.654a2.484 2.484 0 0 0-.507 2.798c.104.226.201.456.291.688a2.542 2.542 0 0 0 2.364 1.611h.93a.84.84 0 0 1 .845.834v3.334z"/></mask><path d="M31.856 29.179h-.93a.831.831 0 0 1-.782-.539 13.425 13.425 0 0 0-.333-.786.814.814 0 0 1 .169-.93l.662-.655a2.483 2.483 0 0 0-.004-3.534L28.25 20.38a2.565 2.565 0 0 0-3.583 0l-.662.653a.845.845 0 0 1-.943.167 18.214 18.214 0 0 0-.798-.334.82.82 0 0 1-.548-.773v-.917c0-1.382-1.135-2.501-2.535-2.501H15.8c-1.4 0-2.535 1.12-2.535 2.5v.918a.821.821 0 0 1-.546.772c-.27.101-.535.21-.797.328a.844.844 0 0 1-.943-.167l-.663-.653a2.565 2.565 0 0 0-3.582 0l-2.388 2.363a2.483 2.483 0 0 0 0 3.535l.661.654c.25.244.318.616.17.93-.12.259-.23.52-.334.787a.83.83 0 0 1-.789.538h-.93c-1.4 0-2.534 1.12-2.534 2.5v3.335c0 1.382 1.135 2.502 2.535 2.502h.93a.83.83 0 0 1 .782.538c.103.267.214.528.333.786a.814.814 0 0 1-.17.93l-.662.655a2.483 2.483 0 0 0 0 3.534l2.388 2.356a2.565 2.565 0 0 0 3.583 0l.662-.653a.845.845 0 0 1 .944-.166c.261.117.526.226.797.333a.82.82 0 0 1 .553.774v.917c0 1.381 1.135 2.5 2.535 2.5h3.38c1.4 0 2.535-1.119 2.535-2.5v-.917a.82.82 0 0 1 .546-.772c.27-.102.535-.211.796-.329a.844.844 0 0 1 .944.167l.663.654c.992.97 2.592.968 3.582-.005l2.388-2.356a2.483 2.483 0 0 0 0-3.534l-.662-.654a.814.814 0 0 1-.169-.93c.12-.259.23-.52.338-.787a.83.83 0 0 1 .784-.541h.93c1.4 0 2.535-1.12 2.535-2.502V31.68c0-1.381-1.135-2.501-2.535-2.501zm.845 5.835a.84.84 0 0 1-.845.834h-.93a2.543 2.543 0 0 0-2.366 1.613c-.09.233-.186.463-.29.689a2.484 2.484 0 0 0 .507 2.798l.66.653c.33.325.33.853.001 1.179l-2.389 2.356a.853.853 0 0 1-1.194 0l-.663-.653a2.566 2.566 0 0 0-2.836-.5c-.229.103-.462.199-.697.287a2.51 2.51 0 0 0-1.633 2.333v.917a.84.84 0 0 1-.845.833H15.8a.84.84 0 0 1-.845-.833v-.917a2.51 2.51 0 0 0-1.634-2.335c-.237-.088-.47-.184-.7-.286a2.57 2.57 0 0 0-2.835.5l-.662.652a.853.853 0 0 1-1.195 0L5.542 42.78a.826.826 0 0 1 0-1.179l.661-.653c.74-.74.942-1.852.507-2.798a11.975 11.975 0 0 1-.29-.688 2.542 2.542 0 0 0-2.365-1.614h-.93a.84.84 0 0 1-.844-.834V31.68a.84.84 0 0 1 .845-.834h.93a2.543 2.543 0 0 0 2.365-1.612c.09-.234.187-.463.291-.69a2.484 2.484 0 0 0-.507-2.797l-.664-.653a.826.826 0 0 1 0-1.18l2.388-2.356a.853.853 0 0 1 1.195 0l.662.653c.749.73 1.877.93 2.836.5.229-.102.462-.198.697-.287a2.51 2.51 0 0 0 1.637-2.332v-.917a.84.84 0 0 1 .845-.834h3.38a.84.84 0 0 1 .845.834v.917a2.51 2.51 0 0 0 1.634 2.334c.237.088.47.184.699.287.959.43 2.087.23 2.836-.5l.661-.652a.858.858 0 0 1 1.196 0l2.388 2.356c.33.325.33.853 0 1.178l-.662.654a2.484 2.484 0 0 0-.507 2.798c.104.226.201.456.291.688a2.542 2.542 0 0 0 2.364 1.611h.93a.84.84 0 0 1 .845.834v3.334z" stroke-width=".3" mask="url(#aya)"/><path d="M24.627 29.749a7.26 7.26 0 0 0-.766-1.074l-.001-.002-.039-.042a1.432 1.432 0 0 1-.038-.042 6.93 6.93 0 0 0-.366-.387l-.001-.001a4.89 4.89 0 0 0-.165-.155l-.04-.037a8.075 8.075 0 0 0-.571-.474l-.141-.1v-.001a7.82 7.82 0 0 0-4.572-1.463c-.038 0-.077.003-.12.006l-.02.002a2.497 2.497 0 0 1-.115.008h-.002a7.667 7.667 0 0 0-.837.066h-.001a8.093 8.093 0 0 0-.826.149c-4.107 1.021-6.568 5.047-5.51 8.987.698 2.594 2.804 4.623 5.506 5.297a.288.288 0 0 1 .05.009h.003c.295.071.593.126.894.165.16.019.32.026.487.033l.11.004c.056.003.111.008.163.013.014 0 .027.002.04.003.065.006.127.01.192.01.242 0 .494-.015.753-.04l.012-.001.022-.002.007-.002.045-.006c.207-.022.417-.052.63-.092h.002c.055-.01.105-.023.16-.035l.085-.02.028.124m4.942-10.9l1.09 3.741-.127-.003v.002a7.706 7.706 0 0 1-.024.442 8.56 8.56 0 0 1-1.344 3.852v.001a2.492 2.492 0 0 1-.442.52l-.001.001c-.65.593-1.378 1.1-2.166 1.51h-.006l-.027.014c-.134.07-.27.13-.412.193l-.014.006-.093.042c-.078.037-.152.07-.237.102a15.198 15.198 0 0 1-.714.24 8.336 8.336 0 0 1-.453.113l.028.124m4.942-10.9a.181.181 0 0 1 .009.018v.001l.02.039c.14.248.265.503.375.764m-.404-.822l.404.822M19.685 40.65a8.43 8.43 0 0 0 .46-.114l-2.713.285.108.004c.053.003.105.008.157.012.08.007.159.014.244.014a8.095 8.095 0 0 0 .817-.046l.035-.006a7.825 7.825 0 0 0 .81-.13l.082-.019zm4.412-6.877v.002a6.445 6.445 0 0 1-.08.618v.001c-.33 1.772-1.474 3.304-3.11 4.173h-.002a7.015 7.015 0 0 1-.324.155l-.07.033h-.003a6.569 6.569 0 0 1-1.612.47l-.032.005c-.027.004-.058.01-.087.013m5.32-5.47l-2.58-5.119m2.58 5.119l.003-.041a5.704 5.704 0 0 0 0-.759v-.002a2.523 2.523 0 0 1-.004-.079v-.008a2.09 2.09 0 0 0-.006-.098v-.001a5.805 5.805 0 0 0-.113-.698 3.029 3.029 0 0 0-.041-.156 4.212 4.212 0 0 1-.024-.087 5.673 5.673 0 0 0-.15-.477h-.001a7.422 7.422 0 0 1-.022-.06c-.024-.064-.048-.13-.075-.195m.433 2.66l-2.372-4.968m-2.948 10.439l-.017-.126m.017.126l-.017-.126m.017.126a6.46 6.46 0 0 1-.326.037 6.585 6.585 0 0 1-.432.022H17.834a6.476 6.476 0 0 1-.625-.038l-.105-.011h-.002a6.775 6.775 0 0 1-.721-.132h-.001c-3.31-.815-5.314-4.06-4.464-7.254l.121.032-.122-.032c.554-2.078 2.222-3.705 4.362-4.27v-.002l.097-.023a6.64 6.64 0 0 1 1.552-.187h.001c.253.001.505.017.756.049m.077 11.683a6.451 6.451 0 0 1-.743.057m.743-.057l.082-.012.034-.006-.86.075m.667-11.74l-.015.126m.015-.126h-.001l-.014.126m.015-.126a3.242 3.242 0 0 1 .198.029h.001c.19.029.38.065.567.111l.065.016.116.029h.001c.47.13.923.314 1.349.546v.001c.058.032.115.066.17.099l.031.018.001.001c.138.084.274.169.408.267m-2.922-.99a6.238 6.238 0 0 0-.741-.05l1.67.23-.11-.027-.068-.016a6.2 6.2 0 0 0-.556-.11l-.071-.01a3.14 3.14 0 0 0-.125-.018zm2.922.99h.001l-.075.103m.074-.103l-.074.103m.074-.103l.036.025c.058.04.119.082.177.128m-.287-.05l.038.027c.058.04.116.08.171.123m.078-.1l-.078.1m.078-.1l-.078.1m.078-.1c.173.133.34.275.498.425v.001c.04.039.082.084.12.126l.062.066a5.959 5.959 0 0 1 .485.573l.002.002c.087.12.175.248.256.379m0 0l-.108.067m.108-.067l-.108.067m.108-.067a19.905 19.905 0 0 0 .13.207l.003.005c.114.202.216.41.305.625m-.546-.77l.06.095.07.112-.382-.579c.087.12.174.245.252.372zm.546.77l-.117.048.117-.049zm-5.647 8.061h-.181.18zm7.014-8.602c.044.113.088.227.13.341l-.13-.34zm.55 2.446l-.42-2.105c.06.164.113.33.16.499l.02.067c.032.113.063.221.087.33a7.119 7.119 0 0 1 .152 1.209z" stroke-width=".254"/><path d="M33.854 5.113a.888.888 0 0 0 .61.847c.785.258 1.55.57 2.29.935a.916.916 0 0 0 1.041-.174l1.889-1.854a2.5 2.5 0 0 1 3.488 0L46.775 8.4a2.39 2.39 0 0 1 0 3.422l.05.051-.05-.05-1.889 1.857a.879.879 0 0 0-.178 1.027c.37.726.687 1.477.948 2.246L33.93 2.497C33.929 1.118 32.791 0 31.387 0h-5.085c-1.404 0-2.542 1.118-2.542 2.496v2.617m10.094 0h.075-.075zm0 0V2.496c0-1.336-1.103-2.421-2.467-2.421h-5.085c-1.363 0-2.467 1.085-2.467 2.421v2.617m0 0h-.075m.075 0h-.075m.075 0a.888.888 0 0 1-.606.847h-.001c-.784.258-1.548.57-2.288.935a.914.914 0 0 1-1.042-.174l-1.892-1.855a2.506 2.506 0 0 0-3.489 0l-3.596 3.53a2.39 2.39 0 0 0 0 3.423l2.778 2.733a.783.783 0 0 0 1.093-.017l.052.051-.052-.051a.746.746 0 0 0 .001-1.051l-2.779-2.732a.896.896 0 0 1 0-1.283l3.596-3.531a.933.933 0 0 1 1.303 0l1.894 1.855a2.479 2.479 0 0 0 2.826.456l2.127-3.136m22.756 13.95h2.666c.508 0 .922.405.922.907v4.992a.915.915 0 0 1-.922.908h-2.665a2.442 2.442 0 0 0-2.327 1.63 15.58 15.58 0 0 1-.868 2.05 2.37 2.37 0 0 0 .464 2.771l1.89 1.86a.895.895 0 0 1 0 1.283l-3.598 3.531a.933.933 0 0 1-1.302 0l-2.785-2.728v-.001a.783.783 0 0 0-1.094-.017l-.044-.047.044.047a.746.746 0 0 0 .002 1.088l2.785 2.73a2.5 2.5 0 0 0 3.488 0l3.597-3.531a2.39 2.39 0 0 0 0-3.423l-.252-14.05zm0 0a2.442 2.442 0 0 1-2.326-1.631l2.327 1.631zM42.08 5.937a.933.933 0 0 0-1.303 0l2.546 9.446a2.368 2.368 0 0 1 .464-2.771l1.89-1.86a.897.897 0 0 0 0-1.282L42.08 5.937zm7.103 21.447h-2.665v-9.835h2.665c1.364 0 2.467 1.085 2.467 2.421v4.992c0 1.337-1.103 2.422-2.467 2.422zm-12.839 2.399l.02-.02c4.303-4.142 4.303-10.849 0-14.991m-.02 15.011l-.051-.055m.05.055a.873.873 0 0 1-1.2-.02.793.793 0 0 1 .021-1.153l.052.055a.718.718 0 0 0-.02 1.045.798.798 0 0 0 1.097.018m.05.055l-.05-.055m0 0a.82.82 0 0 0 .019-.018c4.272-4.114 4.272-10.771 0-14.884m0 0l.053-.054m-.053.054l.053-.054m-.053.054c-4.281-4.106-11.215-4.106-15.497 0m15.55-.054c-4.312-4.134-11.291-4.134-15.602 0m0 0l.052.053m-.052-.053l.051.054h.001m-.052-.054l1.148 1.098m-1.096-1.045a.718.718 0 0 0 .02 1.045c.3.278.776.278 1.076 0m0 0v.001l.052.054m-.052-.055l-1.128.055a.874.874 0 0 0 1.18 0m-.052-.055c3.65-3.554 9.606-3.592 13.305-.085 3.701 3.51 3.741 9.238.09 12.794l-.053-.054.052.054L21.911 15.87zm0 0l.052.055m-.052-.055l.052.055" stroke-width=".15"/></symbol><symbol viewBox="0 0 93 88" id="ic9" xmlns="http://www.w3.org/2000/svg"><g clip-path="url(#azclip0)"><path d="M81.301 55.187H69.37a4.475 4.475 0 0 0-4.475 4.474v23.864A4.475 4.475 0 0 0 69.37 88h11.932a4.475 4.475 0 0 0 4.475-4.475V59.661a4.475 4.475 0 0 0-4.475-4.474zm1.492 28.338c0 .824-.668 1.492-1.492 1.492H69.37a1.492 1.492 0 0 1-1.491-1.492V59.661a1.49 1.49 0 0 1 1.491-1.491h11.932c.824 0 1.492.667 1.492 1.491v23.864z"/><path d="M84.359 0h-52.8c-2.43 0-4.4 1.966-4.4 4.392v32.206H8.092c-2.43 0-4.4 1.966-4.4 4.391v29.278H2.225c-.81 0-1.466.656-1.466 1.464.005 4.04 3.285 7.315 7.333 7.32h46.933c4.046.004 7.33-3.267 7.334-7.305v-.015c0-.808-.657-1.464-1.467-1.464h-1.467V54.165H75.56a1.465 1.465 0 1 0 0-2.928h-7.694l-2.095-7.32H84.36c2.43 0 4.4-1.966 4.4-4.392V4.392A4.396 4.396 0 0 0 84.359 0zM6.625 40.99c0-.81.657-1.465 1.467-1.465h46.933c.81 0 1.467.656 1.467 1.464v29.278H35.96c-.81 0-1.467.656-1.467 1.464h-5.866c0-.808-.657-1.464-1.467-1.464H6.625V40.99zm51.522 33.842a4.43 4.43 0 0 1-3.121 1.291H8.092a4.408 4.408 0 0 1-4.15-2.928h21.75c0 .809.657 1.464 1.467 1.464h8.8c.81 0 1.466-.655 1.466-1.464h21.75a4.453 4.453 0 0 1-1.028 1.637zm1.279-23.595v-7.32h3.294l2.094 7.32h-5.388zm26.4-11.712c0 .809-.657 1.464-1.467 1.464H59.426a4.396 4.396 0 0 0-4.4-4.391H30.091V4.392c0-.809.657-1.464 1.467-1.464h52.8c.81 0 1.467.655 1.467 1.464v35.133z"/></g><defs><clipPath id="azclip0"><path transform="translate(.759)" d="M0 0h91.482v88H0z"/></clipPath></defs></symbol><symbol viewBox="0 0 30 30" id="inst" xmlns="http://www.w3.org/2000/svg"><path d="M17.453 14.534a2.782 2.782 0 1 1-5.564 0 2.782 2.782 0 0 1 5.564 0z"/><path d="M21.177 9.612a2.586 2.586 0 0 0-.625-.96 2.584 2.584 0 0 0-.96-.623c-.293-.115-.735-.25-1.549-.288-.88-.04-1.144-.048-3.372-.048-2.229 0-2.493.008-3.373.048-.813.037-1.255.173-1.55.288-.362.133-.69.347-.959.624-.277.27-.49.597-.624.96-.115.294-.25.736-.288 1.55-.04.88-.048 1.143-.048 3.372 0 2.228.008 2.492.048 3.372.037.814.173 1.256.288 1.55.134.362.347.69.624.96.27.277.597.49.96.624.294.114.736.25 1.55.287.88.04 1.143.049 3.372.049 2.228 0 2.492-.009 3.372-.049.814-.037 1.256-.173 1.55-.287a2.764 2.764 0 0 0 1.584-1.584c.114-.294.25-.736.287-1.55.04-.88.049-1.144.049-3.372 0-2.229-.009-2.493-.049-3.373-.037-.813-.173-1.255-.287-1.55zM14.67 18.82a4.286 4.286 0 1 1 0-8.57 4.286 4.286 0 0 1 0 8.57zm4.455-7.739a1.002 1.002 0 1 1 0-2.003 1.002 1.002 0 0 1 0 2.003z"/><path d="M14.67 0C6.646 0 .138 6.508.138 14.534S6.645 29.068 14.67 29.068s14.534-6.508 14.534-14.534S22.697 0 14.671 0zm8.296 17.975c-.04.888-.181 1.495-.387 2.026a4.267 4.267 0 0 1-2.441 2.44c-.531.207-1.138.348-2.026.389-.89.04-1.174.05-3.44.05-2.268 0-2.552-.01-3.442-.05-.888-.04-1.495-.182-2.026-.388a4.088 4.088 0 0 1-1.478-.963 4.09 4.09 0 0 1-.962-1.478c-.207-.53-.348-1.138-.388-2.026-.041-.89-.05-1.174-.05-3.44 0-2.267.009-2.552.05-3.442.04-.888.18-1.495.387-2.026.21-.556.538-1.06.963-1.478a4.088 4.088 0 0 1 1.478-.962c.531-.207 1.138-.348 2.026-.388.89-.04 1.174-.05 3.44-.05 2.268 0 2.552.01 3.442.05.888.04 1.495.181 2.026.387a4.09 4.09 0 0 1 1.478.963 4.1 4.1 0 0 1 .963 1.478c.206.531.347 1.138.388 2.026.04.89.05 1.175.05 3.441 0 2.267-.01 2.551-.05 3.441z"/></symbol><symbol id="landing" viewBox="0 0 90 90" xml:space="preserve" xmlns="http://www.w3.org/2000/svg"><style>.bbst0{fill:none;stroke:#fff;stroke-width:3;stroke-linecap:round;stroke-linejoin:round;stroke-miterlimit:10}</style><path class="bbst0" d="M48.6 39.1L59 44.5 56.3 29l11.3-11L52 15.7 45 1.5l-7 14.2L22.4 18l11.3 11L31 44.5l8.3-4.3m16.9 14.7c0-2.3-1.9-4.2-4.2-4.2s-4.2 1.9-4.2 4.2"/><path class="bbst0" d="M39.5 39.2c0-2.3 1.9-4.2 4.2-4.2 2.3 0 4.2 1.9 4.2 4.2m16.6 18.4c0-2.3-1.9-4.2-4.2-4.2s-4.2 1.9-4.2 4.2m16.8 2.9c0-2.3-1.9-4.2-4.2-4.2s-4.2 1.9-4.2 4.2M47.8 39.2v15.7m0 0v7.3m8.4-7.3v2.7m0 0v6.6m8.3-6.6V57m0 3.5v5.7m0-8.6v2.9m8.4 0v28M39.5 39.2v35.5c-9-16.5-17-8.9-17-8.9l17 22.7M21.2 41.6c-1.7-1.2-2.8-3.1-2.8-5.4 0-2.2 1.1-4.2 2.8-5.4m-6.5 16.3c-2.9-2.7-4.6-6.6-4.6-10.9 0-4.3 1.8-8.1 4.6-10.8m54.1 16.2c1.7-1.2 2.8-3.1 2.8-5.4 0-2.2-1.1-4.2-2.8-5.4m6.5 16.3c2.9-2.7 4.6-6.6 4.6-10.9 0-4.3-1.8-8.1-4.6-10.8"/></symbol><symbol viewBox="0 0 165 41" id="logo" xmlns="http://www.w3.org/2000/svg"><path fill-rule="evenodd" clip-rule="evenodd" d="M3.308 11.016c1.826 0 3.306 1.418 3.306 3.167v7.392c0 2.705.001 5.41-.006 8.116 0 1.108.94 2.008 2.097 2.008 1.159 0 2.097-.9 2.097-2.009 0-.077-.004-.153-.013-.227V19.316c0-3.912 2.816-7.196 6.612-8.092A8.953 8.953 0 0 1 18.93 11h1.115a8.88 8.88 0 0 1 4.858 1.795 8.908 8.908 0 0 1 5.384-1.789c4.804 0 8.7 3.732 8.7 8.334 0 4.854.007 9.71.012 14.564l-.006.93c0 1.744-1.474 3.16-3.295 3.166h-.02c-1.82-.006-3.295-1.422-3.295-3.167 0-5.156.006-10.313.006-15.469 0-1.11-.939-2.009-2.097-2.009-1.149 0-2.083.887-2.097 1.985-.03 2.695.005 5.396.005 8.092v7.409c0 1.675-1.358 3.047-3.078 3.159h-.454c-1.72-.112-3.078-1.484-3.078-3.16V19.33c-.006-1.105-.943-1.999-2.098-1.999-1.107 0-2.014.822-2.091 1.865a2.083 2.083 0 0 0 0 .289V29.69c-.014 4.582-3.891 8.296-8.675 8.31h-.049C3.89 37.986.012 34.27.003 29.683c-.006-5.17 0-10.34 0-15.51.005-1.744 1.484-3.157 3.305-3.157z"/><path d="M51.602 12.11v7.713c0 .97.22 1.693.662 2.17.44.477 1.131.716 2.072.716 1.244 0 2.151-.34 2.723-1.02.578-.68.868-1.79.868-3.33v-6.25h1.8V24h-1.486l-.26-1.595h-.098a3.583 3.583 0 0 1-1.54 1.345c-.651.311-1.396.467-2.235.467-1.447 0-2.531-.344-3.255-1.03-.716-.688-1.074-1.787-1.074-3.299V12.11h1.823zm17.38-.217c.527 0 1.001.043 1.42.13l-.249 1.67a6.133 6.133 0 0 0-1.302-.162c-.962 0-1.786.39-2.473 1.172-.68.78-1.02 1.753-1.02 2.918V24h-1.8V12.11h1.485l.206 2.202h.087c.442-.774.973-1.37 1.595-1.79a3.59 3.59 0 0 1 2.05-.63zM79.939 24l-.358-1.692h-.087c-.593.744-1.186 1.25-1.78 1.518-.585.26-1.32.391-2.202.391-1.178 0-2.104-.304-2.777-.911-.665-.608-.998-1.472-.998-2.593 0-2.401 1.92-3.66 5.76-3.776l2.019-.065v-.737c0-.933-.203-1.62-.608-2.062-.398-.448-1.038-.672-1.92-.672-.991 0-2.112.303-3.363.911l-.553-1.378a8.48 8.48 0 0 1 1.92-.748 8.403 8.403 0 0 1 2.104-.271c1.418 0 2.467.314 3.147.943.687.63 1.03 1.638 1.03 3.027V24H79.94zm-4.069-1.27c1.121 0 2-.307 2.637-.921.643-.615.965-1.476.965-2.582v-1.075l-1.8.076c-1.433.051-2.467.275-3.103.673-.63.39-.944 1.002-.944 1.834 0 .65.195 1.146.586 1.486.397.34.95.51 1.66.51zM86.795 24h-1.8V7.12h1.8V24zm18.975 0v-7.735c0-.948-.203-1.656-.608-2.127-.405-.477-1.034-.716-1.888-.716-1.121 0-1.949.322-2.484.966-.535.644-.803 1.635-.803 2.973V24h-1.8v-7.735c0-.948-.203-1.656-.608-2.127-.405-.477-1.038-.716-1.899-.716-1.128 0-1.956.34-2.484 1.02-.52.673-.781 1.78-.781 3.32V24h-1.801V12.11h1.465l.292 1.627h.087c.34-.579.817-1.03 1.432-1.356.622-.325 1.317-.488 2.083-.488 1.859 0 3.074.672 3.645 2.018h.087a3.798 3.798 0 0 1 1.541-1.476c.672-.361 1.439-.542 2.3-.542 1.345 0 2.35.347 3.016 1.041.672.687 1.008 1.79 1.008 3.31V24h-1.8zm10.545.217c-1.758 0-3.147-.535-4.166-1.606-1.013-1.07-1.519-2.556-1.519-4.459 0-1.916.47-3.439 1.41-4.567.948-1.128 2.217-1.692 3.808-1.692 1.49 0 2.669.492 3.537 1.475.868.977 1.302 2.268 1.302 3.873v1.14h-8.191c.036 1.395.387 2.455 1.052 3.178.673.723 1.617 1.085 2.832 1.085 1.28 0 2.545-.268 3.797-.803v1.606a9.229 9.229 0 0 1-1.812.585c-.564.123-1.248.185-2.05.185zm-.489-10.816c-.954 0-1.717.31-2.289.933-.564.622-.897 1.482-.998 2.582h6.217c0-1.136-.254-2.004-.76-2.604-.506-.607-1.229-.911-2.17-.911zm16.035 9.004h-.098c-.832 1.208-2.076 1.812-3.732 1.812-1.555 0-2.766-.532-3.634-1.595-.861-1.063-1.291-2.575-1.291-4.535s.434-3.482 1.302-4.567c.868-1.085 2.075-1.627 3.623-1.627 1.613 0 2.85.586 3.71 1.757h.142l-.076-.857-.044-.835V7.119h1.801V24h-1.465l-.238-1.595zm-3.602.304c1.23 0 2.119-.333 2.669-.998.557-.673.835-1.754.835-3.244v-.38c0-1.685-.282-2.885-.846-3.601-.557-.724-1.45-1.085-2.68-1.085-1.056 0-1.866.412-2.43 1.236-.557.818-.835 1.975-.835 3.472 0 1.519.278 2.665.835 3.44.557.773 1.374 1.16 2.452 1.16zM139.195 24h-1.801V12.11h1.801V24zm-1.953-15.112c0-.413.101-.713.304-.9.202-.196.455-.294.759-.294.289 0 .539.098.749.293.209.196.314.496.314.9 0 .406-.105.71-.314.912-.21.195-.46.293-.749.293a1.05 1.05 0 0 1-.759-.293c-.203-.203-.304-.506-.304-.911zM150.325 24l-.358-1.692h-.086c-.593.744-1.187 1.25-1.78 1.518-.585.26-1.32.391-2.202.391-1.179 0-2.105-.304-2.777-.911-.666-.608-.998-1.472-.998-2.593 0-2.401 1.92-3.66 5.76-3.776l2.018-.065v-.737c0-.933-.202-1.62-.607-2.062-.398-.448-1.038-.672-1.92-.672-.991 0-2.112.303-3.364.911l-.553-1.378a8.488 8.488 0 0 1 1.92-.748 8.407 8.407 0 0 1 2.105-.271c1.418 0 2.466.314 3.146.943.687.63 1.031 1.638 1.031 3.027V24h-1.335zm-4.068-1.27c1.121 0 2-.307 2.636-.921.644-.615.966-1.476.966-2.582v-1.075l-1.801.076c-1.432.051-2.466.275-3.103.673-.629.39-.944 1.002-.944 1.834 0 .65.196 1.146.586 1.486.398.34.951.51 1.66.51zm16.794-1.974c0 1.107-.412 1.96-1.237 2.56-.824.6-1.982.901-3.471.901-1.577 0-2.807-.25-3.689-.749v-1.67a8.955 8.955 0 0 0 1.833.683c.659.166 1.291.25 1.899.25.94 0 1.663-.149 2.17-.445.506-.304.759-.763.759-1.378 0-.463-.202-.857-.607-1.182-.398-.333-1.179-.724-2.344-1.172-1.106-.412-1.895-.77-2.365-1.074-.463-.311-.81-.662-1.041-1.052-.224-.391-.337-.858-.337-1.4 0-.97.395-1.732 1.183-2.289.788-.564 1.87-.846 3.244-.846 1.28 0 2.531.26 3.753.78l-.64 1.466c-1.193-.492-2.274-.738-3.243-.738-.854 0-1.498.134-1.931.401-.434.268-.651.637-.651 1.107 0 .318.079.59.238.813.167.225.431.438.792.64.362.203 1.056.496 2.083.88 1.411.513 2.362 1.03 2.853 1.55.499.521.749 1.176.749 1.964zM55.144 33.959c0 1.33-.35 2.338-1.047 3.021-.698.68-1.723 1.02-3.076 1.02h-1.898v-7.93h2.143c1.265 0 2.227.33 2.885.992.662.662.993 1.628.993 2.897zm-.602.021c0-1.135-.29-1.988-.868-2.56-.575-.575-1.421-.862-2.539-.862h-1.459v6.954h1.313c2.369 0 3.553-1.177 3.553-3.532zM57.368 38h-.537v-5.896h.537V38zm-.613-7.535c0-.347.114-.52.342-.52.112 0 .199.045.26.135.065.09.098.22.098.386a.667.667 0 0 1-.098.385.294.294 0 0 1-.26.14c-.228 0-.342-.175-.342-.526zm7.193 1.639v.374l-1.22.076c.325.405.487.85.487 1.334 0 .568-.19 1.03-.57 1.384-.375.35-.882.526-1.518.526a3.31 3.31 0 0 1-.564-.033 1.404 1.404 0 0 0-.488.396.8.8 0 0 0-.169.483c0 .188.071.325.212.412.145.087.385.13.721.13h1.031c.64 0 1.13.13 1.47.39.34.258.51.64.51 1.145 0 .622-.253 1.102-.76 1.438-.502.34-1.22.51-2.153.51-.741 0-1.316-.143-1.725-.429-.405-.285-.607-.683-.607-1.193 0-.405.124-.741.374-1.009.253-.268.595-.45 1.025-.548a1.071 1.071 0 0 1-.428-.32.788.788 0 0 1-.158-.483c0-.394.252-.741.754-1.041a1.685 1.685 0 0 1-.802-.662 1.91 1.91 0 0 1-.288-1.041c0-.59.186-1.062.559-1.416.376-.358.882-.537 1.519-.537.387 0 .687.038.9.114h1.888zm-4.774 6.894c0 .81.602 1.215 1.806 1.215 1.548 0 2.322-.494 2.322-1.48 0-.355-.121-.612-.363-.771-.243-.16-.635-.239-1.177-.239h-.966c-1.081 0-1.622.425-1.622 1.275zm.45-5.055c0 .455.138.81.413 1.063.278.25.649.374 1.112.374.492 0 .868-.125 1.128-.374.264-.25.396-.611.396-1.085 0-.503-.136-.879-.407-1.128-.267-.254-.644-.38-1.128-.38-.47 0-.84.136-1.112.407-.268.267-.402.642-.402 1.123zM65.7 38h-.537v-5.896h.537V38zm-.613-7.535c0-.347.114-.52.341-.52.113 0 .2.045.26.135.066.09.099.22.099.386a.667.667 0 0 1-.098.385.294.294 0 0 1-.26.14c-.228 0-.342-.175-.342-.526zm4.15 7.166c.34 0 .636-.029.889-.087v.434c-.26.087-.56.13-.9.13-.521 0-.906-.139-1.156-.417-.246-.279-.369-.716-.369-1.313V32.57h-.873v-.314l.873-.245.272-1.334h.276v1.427h1.73v.466h-1.73v3.732c0 .452.08.787.239 1.004.159.217.409.325.748.325zM74.98 38l-.136-.933h-.043c-.297.38-.602.65-.917.808-.31.156-.68.233-1.107.233-.578 0-1.028-.148-1.35-.444-.322-.297-.483-.707-.483-1.232 0-.575.239-1.021.716-1.34.481-.318 1.175-.486 2.083-.504l1.123-.032v-.391c0-.56-.114-.984-.342-1.27-.228-.285-.595-.428-1.101-.428-.546 0-1.112.152-1.698.456l-.2-.467c.647-.303 1.287-.455 1.92-.455.647 0 1.13.168 1.448.504.322.336.483.86.483 1.573V38h-.396zm-2.17-.38c.63 0 1.125-.179 1.486-.537.366-.361.548-.862.548-1.502V35l-1.03.043c-.828.04-1.42.17-1.774.39-.351.217-.526.557-.526 1.02 0 .369.112.656.336.862.228.203.548.304.96.304zm5.018.38h-.537v-8.44h.537V38zm1.491-2.777v-.445h2.577v.445H79.32zM86.97 38l-.136-.933h-.043c-.297.38-.602.65-.917.808-.311.156-.68.233-1.107.233-.578 0-1.028-.148-1.35-.444-.322-.297-.483-.707-.483-1.232 0-.575.239-1.021.716-1.34.48-.318 1.175-.486 2.083-.504l1.123-.032v-.391c0-.56-.114-.984-.342-1.27-.228-.285-.595-.428-1.101-.428-.546 0-1.112.152-1.698.456l-.2-.467c.647-.303 1.287-.455 1.92-.455.647 0 1.13.168 1.448.504.322.336.483.86.483 1.573V38h-.396zm-2.17-.38c.63 0 1.125-.179 1.486-.537.365-.361.548-.862.548-1.502V35l-1.03.043c-.829.04-1.42.17-1.774.39-.351.217-.526.557-.526 1.02 0 .369.112.656.336.862.228.203.548.304.96.304zm7.947-5.05h-2.93V38h-.537v-5.896h3.467v.466zm3.59 5.538c-.856 0-1.525-.264-2.006-.791-.478-.528-.716-1.268-.716-2.219 0-.94.231-1.692.694-2.257.463-.567 1.087-.851 1.871-.851.695 0 1.242.242 1.644.727.401.484.602 1.142.602 1.974v.434h-4.247c.007.81.195 1.428.564 1.855.372.427.904.64 1.595.64.336 0 .63-.023.884-.07a5.3 5.3 0 0 0 .97-.304v.488a4.2 4.2 0 0 1-.921.293 4.948 4.948 0 0 1-.933.081zm-.157-5.64c-.567 0-1.023.187-1.367.563-.343.373-.544.912-.602 1.617h3.645c0-.684-.148-1.217-.444-1.6-.297-.387-.707-.58-1.232-.58zm4.41-.364v2.587h3.743v-2.587h.532V38h-.532v-2.842h-3.743V38h-.537v-5.896h.537zm9.997.466h-1.963V38h-.532v-5.43h-2.012v-.466h4.507v.466zm3.57 5.538c-.843 0-1.503-.265-1.98-.797-.478-.532-.716-1.273-.716-2.224 0-.976.247-1.736.743-2.278.495-.546 1.173-.82 2.034-.82.51 0 .998.09 1.465.267l-.147.477c-.51-.17-.953-.255-1.329-.255-.723 0-1.271.224-1.643.673-.373.444-.559 1.086-.559 1.925 0 .796.186 1.42.559 1.872.372.448.893.672 1.562.672.535 0 1.032-.095 1.492-.287v.499c-.377.184-.87.276-1.481.276zm6.672-5.538h-1.964V38h-.532v-5.43h-2.012v-.466h4.508v.466zm5.739.955c0 .372-.093.665-.277.879-.184.21-.485.356-.9.439v.038c.473.054.815.192 1.025.412.213.217.32.53.32.939 0 .567-.188 1.005-.564 1.312-.373.304-.919.456-1.639.456h-2.489v-5.896h2.5c.673 0 1.177.12 1.514.363.34.242.51.595.51 1.058zm-.402 2.696c0-.723-.555-1.085-1.665-1.085h-1.92v2.354h1.996c1.059 0 1.589-.423 1.589-1.27zm-.168-2.653c0-.343-.123-.587-.369-.732-.246-.148-.615-.222-1.106-.222h-1.942v2.018h1.877c.549 0 .943-.085 1.182-.255.239-.17.358-.44.358-.809zm7.214 1.476c0 .962-.233 1.714-.699 2.256-.467.54-1.11.809-1.931.809-.517 0-.973-.125-1.367-.375a2.397 2.397 0 0 1-.906-1.074c-.21-.466-.315-1.005-.315-1.616 0-.962.233-1.71.7-2.246.466-.539 1.107-.808 1.92-.808.81 0 1.445.273 1.904.819.463.542.694 1.287.694 2.235zm-4.654 0c0 .81.178 1.443.532 1.898.358.452.862.678 1.513.678.651 0 1.154-.226 1.508-.678.358-.455.537-1.088.537-1.898 0-.814-.18-1.445-.542-1.893-.358-.449-.863-.673-1.513-.673-.651 0-1.154.224-1.508.673-.351.444-.527 1.075-.527 1.893z"/></symbol><symbol viewBox="0 0 39 27" id="logo-mobile" xmlns="http://www.w3.org/2000/svg"><path fill-rule="evenodd" clip-rule="evenodd" d="M3.308.016c1.826 0 3.306 1.418 3.306 3.167v7.392c0 2.705.001 5.41-.006 8.116 0 1.108.94 2.008 2.097 2.008 1.159 0 2.097-.9 2.097-2.009 0-.077-.004-.153-.013-.227V8.316c0-3.912 2.816-7.196 6.612-8.092A8.95 8.95 0 0 1 18.93 0h1.115a8.88 8.88 0 0 1 4.858 1.795A8.908 8.908 0 0 1 30.288.006c4.804 0 8.7 3.732 8.7 8.334 0 4.854.007 9.71.012 14.564l-.006.93c0 1.744-1.474 3.16-3.295 3.166h-.021c-1.82-.006-3.295-1.422-3.295-3.167 0-5.156.006-10.313.006-15.469 0-1.11-.939-2.009-2.097-2.009-1.149 0-2.083.887-2.097 1.985-.03 2.695.005 5.396.005 8.092v7.409c0 1.675-1.358 3.047-3.078 3.159h-.454c-1.72-.112-3.078-1.484-3.078-3.16V8.33c-.006-1.105-.943-1.999-2.098-1.999-1.107 0-2.014.822-2.091 1.865a2.084 2.084 0 0 0 0 .289V18.69c-.014 4.582-3.891 8.296-8.675 8.31h-.049C3.89 26.986.012 23.27.003 18.683c-.006-5.17 0-10.34 0-15.51C.008 1.43 1.487.016 3.308.016z"/></symbol><symbol id="mobile-app" viewBox="0 0 74.27 89.67" xmlns="http://www.w3.org/2000/svg"><defs><style>.becls-1{fill:none;stroke:#fff;stroke-linecap:round;stroke-linejoin:round;stroke-width:3px}</style></defs><path class="becls-1" d="M80.64 198.52V141s-9-1.48-10.82 8.89m-58.44-20.83a6.26 6.26 0 0 1-1.08-1.22 5.69 5.69 0 0 1 8.77-7.15m-3.72 28.6c-.13-.16-.85-.94-1-1.11a5.69 5.69 0 0 1 8.91-7m7.96 8.05a5.7 5.7 0 0 1 1.9 4.25c0 3.14-2.57 5.34-5.69 5.68-1.41.15-3.11-.89-4.11-1.76" transform="translate(-7.86 -110.35)"/><path class="becls-1" d="M15.46 47.05l-7.97-8.11m-4.7-20.98l20.56 20.92M11.52 10.65l2.55 2.59"/><path class="becls-1" d="M15.58 166.51c-.13-.15-.85-.94-1-1.11a5.6 5.6 0 0 1-.94-3.13 5.69 5.69 0 0 1 9.85-3.87m7.96 8.06a5.68 5.68 0 0 1 1.9 4.24c0 3.14-2.57 5.34-5.69 5.69-1.41.15-3.11-.9-4.11-1.76" transform="translate(-7.86 -110.35)"/><path class="becls-1" d="M15.69 64.27l-7.97-8.11m6.96-9.11l8.9 9.06"/><path class="becls-1" d="M14.08 182.53c-.13-.16-.85-.95-1-1.12a5.58 5.58 0 0 1-.94-3.13 5.68 5.68 0 0 1 9.86-3.87m8 8.06a5.7 5.7 0 0 1 1.9 4.24c0 3.14-2.57 5.35-5.69 5.69-1.41.15-3.11-.9-4.11-1.76" transform="translate(-7.86 -110.35)"/><path class="becls-1" d="M14.19 80.29l-7.97-8.12m7.94-8.11l7.92 8.06m28.25 15.82H14.07v-7.65m0-51.87V1.5h47.89v55.15M14.07 11.94h47.89m-11.63 76V73.78H23.35"/><path class="becls-1" d="M69.82 167s-11.63 4.92-11.63 17.13" transform="translate(-7.86 -110.35)"/></symbol><symbol viewBox="0 0 19 15" id="ok" xmlns="http://www.w3.org/2000/svg"><path d="M16.188.913L6.365 11.142l-3.553-3.7V7.44a1.326 1.326 0 0 0-1.924 0 1.411 1.411 0 0 0 0 1.944l4.516 4.702c.529.55 1.395.55 1.923 0l10.785-11.23a1.411 1.411 0 0 0 0-1.944 1.326 1.326 0 0 0-1.924 0z"/></symbol><symbol id="online-store" viewBox="0 0 89 88.33" xmlns="http://www.w3.org/2000/svg"><defs><style>.bgcls-1{fill:none;stroke:#fff;stroke-width:3px;stroke-linecap:round;stroke-linejoin:round}</style></defs><path class="bgcls-1" d="M265 82c-6.69 0-12.68 2.18-16.69 5.63h33.38c-4.01-3.41-10-5.63-16.69-5.63z" transform="translate(-220.5 -.83)"/><path stroke-miterlimit="10" stroke-width="3" d="M36.44 82.5l2-13.7h12.12l2 13.7"/><path class="bgcls-1" d="M1.5 1.5h86v67.3h-86zm0 53.04h86"/></symbol><symbol id="promotion" viewBox="0 0 88.42 89.19" xmlns="http://www.w3.org/2000/svg"><defs><style>.bhcls-1,.bhcls-2{fill:none;stroke:#fff;stroke-width:3px}.bhcls-1{stroke-linecap:round;stroke-linejoin:round}.bhcls-2{stroke-miterlimit:10}</style></defs><path class="bhcls-1" d="M68.37 32.58h15.56v55.11H68.37zM47.08 52.14h15.56V87.7H47.08zM25.79 37.77h15.56V87.7H25.79zM4.5 57.87h15.56v29.82H4.5zm-3 29.82h85.42"/><circle class="bhcls-1" cx="12.76" cy="35.62" r="6.59"/><circle class="bhcls-1" cx="33.57" cy="14.69" r="6.59"/><circle class="bhcls-1" cx="75.52" cy="8.09" r="6.59"/><circle class="bhcls-1" cx="54.54" cy="29.42" r="6.59"/><path class="bhcls-2" d="M17.1 30.67l11.85-11.28m10.13-1.1l9.85 7.68m10.52-.94L71.1 12.97"/></symbol><symbol id="seo" viewBox="0 0 89.08 89.48" xmlns="http://www.w3.org/2000/svg"><defs><style>.bicls-2{fill:none;stroke:#fff;stroke-width:3px;stroke-linecap:round;stroke-linejoin:round}</style></defs><circle cx="54.73" cy="34.36" r="32.86" stroke-miterlimit="10" stroke-width="3"/><path class="bicls-2" d="M184.23 127.89a25.34 25.34 0 0 1 .07 33.29" transform="translate(-110.46 -110.21)"/><rect class="bicls-2" x="120.92" y="168.19" width="9.99" height="32.1" rx="2.23" transform="rotate(45 203.73 -4.202)"/><path class="bicls-2" d="M27.11 62.37l4.48-4.48"/></symbol><symbol id="support" viewBox="0 0 89.9 89.71" xmlns="http://www.w3.org/2000/svg"><defs><style>.bjcls-2{fill:none;stroke:#fff;stroke-width:3px;stroke-linecap:round;stroke-linejoin:round}</style></defs><circle cx="28.66" cy="61.04" r="11.22" stroke-miterlimit="10" stroke-width="3"/><path class="bjcls-2" d="M164.07 286.42a2.49 2.49 0 0 0 1.61-2.05 25.62 25.62 0 0 0 .19-3.18 26.76 26.76 0 0 0-.24-3.6 2.48 2.48 0 0 0-1.64-2l-3.61-1.25a2.44 2.44 0 0 1-1.46-1.37c-.07-.17-.14-.35-.22-.53a2.45 2.45 0 0 1 0-2l1.61-3.45a2.5 2.5 0 0 0-.32-2.6 27.43 27.43 0 0 0-4.82-4.75 2.49 2.49 0 0 0-2.6-.27l-3.4 1.63a2.39 2.39 0 0 1-2 .07l-.54-.22a2.43 2.43 0 0 1-1.4-1.44l-1.3-3.58a2.49 2.49 0 0 0-2.05-1.61 27.71 27.71 0 0 0-3.18-.19 26.76 26.76 0 0 0-3.6.24 2.51 2.51 0 0 0-2 1.65l-1.25 3.6a2.41 2.41 0 0 1-1.37 1.46l-.53.23a2.41 2.41 0 0 1-2 0l-3.45-1.6a2.5 2.5 0 0 0-2.6.31 27.43 27.43 0 0 0-4.75 4.82 2.5 2.5 0 0 0-.27 2.6l1.66 3.43a2.41 2.41 0 0 1 .07 2c-.08.17-.15.35-.22.53a2.43 2.43 0 0 1-1.44 1.4l-3.6 1.3a2.48 2.48 0 0 0-1.61 2 27.71 27.71 0 0 0-.19 3.18 26.76 26.76 0 0 0 .24 3.6 2.48 2.48 0 0 0 1.65 2l3.6 1.25a2.44 2.44 0 0 1 1.46 1.37c.07.18.15.35.23.53a2.41 2.41 0 0 1 0 2l-1.6 3.46a2.48 2.48 0 0 0 .31 2.59 26.76 26.76 0 0 0 4.82 4.75 2.48 2.48 0 0 0 2.6.28l3.43-1.67a2.45 2.45 0 0 1 2-.06l.53.21a2.4 2.4 0 0 1 1.4 1.44l1.31 3.58a2.48 2.48 0 0 0 2 1.61 25.62 25.62 0 0 0 3.18.19 26.76 26.76 0 0 0 3.6-.24 2.46 2.46 0 0 0 2-1.64l1.25-3.61a2.47 2.47 0 0 1 1.44-1.42l.53-.22a2.41 2.41 0 0 1 2 0l3.46 1.61a2.49 2.49 0 0 0 2.59-.32 26.76 26.76 0 0 0 4.75-4.82 2.48 2.48 0 0 0 .28-2.6l-1.67-3.43a2.42 2.42 0 0 1-.06-2l.21-.54a2.43 2.43 0 0 1 1.44-1.4zm-15.49-36.77a15.56 15.56 0 1 1 22.2 21.59" transform="translate(-110.05 -220.15)"/><path class="bjcls-2" d="M172.91 285.87l2.82 1.21 4.79 2.23a3.46 3.46 0 0 0 3.6-.44 37.88 37.88 0 0 0 6.59-6.68 3.45 3.45 0 0 0 .38-3.61l-2.31-4.76a3.39 3.39 0 0 1-.09-2.77l.3-.74a3.39 3.39 0 0 1 2-1.94l5-1.81a3.45 3.45 0 0 0 2.24-2.83 37.84 37.84 0 0 0 .26-4.41 39 39 0 0 0-.33-5 3.48 3.48 0 0 0-2.29-2.83l-5-1.73a3.36 3.36 0 0 1-2-1.89c-.1-.25-.2-.49-.31-.74a3.37 3.37 0 0 1 0-2.78l2.23-4.78a3.45 3.45 0 0 0-.43-3.6 37.6 37.6 0 0 0-6.69-6.59A3.45 3.45 0 0 0 180 229l-4.75 2.3a3.35 3.35 0 0 1-2.77.1l-.74-.3a3.36 3.36 0 0 1-1.94-2l-1.81-5a3.46 3.46 0 0 0-2.84-2.24 37.72 37.72 0 0 0-9.4.07 3.45 3.45 0 0 0-2.82 2.29l-1.73 5a3.4 3.4 0 0 1-1.9 2l-.73.31a3.37 3.37 0 0 1-2.78 0l-4.79-2.21a3.46 3.46 0 0 0-3.6.44 38.22 38.22 0 0 0-6.59 6.68 3.45 3.45 0 0 0-.38 3.61l2.31 4.76.85 1.54" transform="translate(-110.05 -220.15)"/></symbol><symbol viewBox="0 0 91 88" id="tools" xmlns="http://www.w3.org/2000/svg"><path d="M55.802 51.334h-1.635a1.462 1.462 0 0 1-1.376-.948c-.182-.47-.377-.928-.586-1.383a1.432 1.432 0 0 1 .297-1.637l1.166-1.151a4.368 4.368 0 0 0-.008-6.217l-4.2-4.145a4.513 4.513 0 0 0-6.304 0L41.991 37a1.487 1.487 0 0 1-1.66.294c-.46-.207-.926-.4-1.403-.587a1.443 1.443 0 0 1-.965-1.361v-1.614c0-2.43-1.996-4.4-4.46-4.4h-5.946c-2.463 0-4.46 1.97-4.46 4.4v1.614a1.444 1.444 0 0 1-.96 1.358c-.476.179-.94.371-1.402.578a1.485 1.485 0 0 1-1.659-.294l-1.167-1.15a4.514 4.514 0 0 0-6.301 0l-4.201 4.159a4.368 4.368 0 0 0 0 6.218l1.164 1.15c.439.43.558 1.084.297 1.637-.21.455-.404.914-.587 1.385a1.46 1.46 0 0 1-1.387.946H5.259c-2.464 0-4.46 1.97-4.46 4.4V61.6c0 2.43 1.996 4.4 4.46 4.4h1.635a1.462 1.462 0 0 1 1.376.948c.182.469.377.928.586 1.383.26.553.142 1.207-.297 1.636L7.393 71.12a4.369 4.369 0 0 0 0 6.217l4.201 4.145a4.513 4.513 0 0 0 6.304 0l1.165-1.149a1.487 1.487 0 0 1 1.659-.293c.46.207.926.399 1.403.587.584.204.974.75.973 1.36V83.6c0 2.43 1.996 4.4 4.46 4.4h5.946c2.463 0 4.46-1.97 4.46-4.4v-1.613a1.444 1.444 0 0 1 .96-1.358 24.46 24.46 0 0 0 1.402-.578 1.485 1.485 0 0 1 1.659.293l1.167 1.15a4.515 4.515 0 0 0 6.301-.007l4.201-4.145a4.369 4.369 0 0 0 0-6.219l-1.164-1.15a1.432 1.432 0 0 1-.297-1.636c.21-.455.404-.914.595-1.385a1.46 1.46 0 0 1 1.38-.952h1.634c2.464 0 4.46-1.97 4.46-4.4v-5.867c0-2.43-1.996-4.4-4.46-4.4zM57.29 61.6c0 .81-.666 1.467-1.487 1.467h-1.635c-1.848.007-3.502 1.134-4.162 2.836-.158.411-.328.815-.512 1.213a4.37 4.37 0 0 0 .892 4.922l1.163 1.149c.58.572.581 1.5 0 2.074v.001l-4.201 4.145a1.5 1.5 0 0 1-2.102 0l-1.166-1.148a4.514 4.514 0 0 0-4.989-.88 21.7 21.7 0 0 1-1.226.504 4.416 4.416 0 0 0-2.874 4.104V83.6c0 .81-.665 1.467-1.486 1.467h-5.947c-.82 0-1.486-.657-1.486-1.467v-1.613a4.417 4.417 0 0 0-2.875-4.107 20.601 20.601 0 0 1-1.23-.504 4.52 4.52 0 0 0-4.989.88l-1.164 1.147a1.5 1.5 0 0 1-2.102 0h-.001l-4.201-4.14a1.453 1.453 0 0 1 0-2.075l1.164-1.15a4.37 4.37 0 0 0 .892-4.922 21.094 21.094 0 0 1-.512-1.21c-.659-1.703-2.311-2.831-4.16-2.84H5.26A1.477 1.477 0 0 1 3.772 61.6v-5.867c0-.81.666-1.466 1.487-1.466h1.635a4.474 4.474 0 0 0 4.162-2.837c.158-.41.328-.815.512-1.213a4.37 4.37 0 0 0-.892-4.922l-1.169-1.148a1.453 1.453 0 0 1 0-2.074v-.002l4.201-4.144a1.5 1.5 0 0 1 2.102 0l1.166 1.148a4.514 4.514 0 0 0 4.989.88c.403-.18.813-.349 1.226-.504a4.415 4.415 0 0 0 2.88-4.104v-1.614c0-.81.665-1.466 1.486-1.466h5.947c.82 0 1.486.656 1.486 1.466v1.614a4.417 4.417 0 0 0 2.875 4.106c.416.156.826.324 1.23.505a4.514 4.514 0 0 0 4.989-.88l1.164-1.147a1.51 1.51 0 0 1 2.103 0l4.201 4.145c.58.573.58 1.501 0 2.074l-1.164 1.15a4.37 4.37 0 0 0-.892 4.922c.183.397.354.802.512 1.21a4.472 4.472 0 0 0 4.16 2.835h1.634c.821 0 1.487.656 1.487 1.466V61.6z"/><path d="M44.986 58.076a12.77 12.77 0 0 0-.273-2.164c-.053-.24-.123-.475-.19-.713-.086-.302-.182-.6-.289-.893a26.863 26.863 0 0 0-.231-.607c-.197-.47-.421-.927-.673-1.372-.02-.034-.032-.07-.051-.104a12.997 12.997 0 0 0-1.372-1.922c-.044-.053-.095-.103-.14-.154-.21-.24-.427-.47-.655-.692-.118-.119-.243-.23-.368-.345a14.278 14.278 0 0 0-1.023-.849l-.25-.178a13.982 13.982 0 0 0-8.174-2.616c-.152 0-.305.022-.457.028a13.766 13.766 0 0 0-1.497.118c-.497.063-.99.152-1.477.266-7.34 1.824-11.753 9.026-9.856 16.086 1.25 4.652 5.029 8.284 9.867 9.483.024 0 .05.007.076.013.526.126 1.06.224 1.597.293.356.042.71.051 1.067.067.238.012.458.046.706.046.435 0 .886-.028 1.346-.072.049 0 .098-.013.153-.02.37-.039.745-.092 1.128-.165.152-.028.294-.064.44-.097.268-.06.535-.123.81-.2.213-.062.42-.134.63-.204.208-.07.424-.147.64-.226.217-.08.399-.17.595-.258.257-.113.511-.224.763-.356h.009a18.043 18.043 0 0 0 3.907-2.714c.316-.284.59-.608.817-.962a15.281 15.281 0 0 0 2.399-6.88c.021-.266.036-.53.043-.794 0-.084.012-.163.012-.246.001-.207-.02-.398-.03-.597zm-3.038.96c0 .122-.01.244-.018.364-.028.355-.075.71-.138 1.066-.57 3.048-2.537 5.687-5.356 7.184-.19.095-.375.185-.561.267l-.127.059c-.885.386-1.82.658-2.78.809-.067.01-.136.022-.204.03-.19.027-.378.05-.564.065-.246.02-.493.032-.744.037h-.319c-.36-.004-.72-.026-1.079-.065l-.183-.02a11.68 11.68 0 0 1-1.245-.226c-5.71-1.405-9.153-6.996-7.692-12.488.966-3.628 3.91-6.462 7.681-7.395v-.001a11.442 11.442 0 0 1 2.678-.323c.436.002.872.03 1.304.085.116.013.23.034.344.05.33.05.656.113.977.192.105.026.21.05.314.078.81.225 1.591.54 2.325.941.117.066.231.135.347.204.241.147.474.293.705.46.123.087.248.172.367.264.3.23.586.475.858.733.108.106.207.222.313.332a10.322 10.322 0 0 1 .837.988c.152.211.304.43.442.654l.23.365c.196.348.372.707.524 1.075.061.146.113.293.168.44.099.27.184.542.259.818.038.146.08.277.113.419.089.396.153.797.193 1.2.01.108.01.216.017.323.022.337.028.676.014 1.016zm44.336-28.295h-4.689a1.454 1.454 0 0 1-1.39-.96 30.18 30.18 0 0 0-1.673-3.969 1.414 1.414 0 0 1 .286-1.652l3.324-3.27a4.336 4.336 0 0 0 0-6.208l-6.338-6.214a4.53 4.53 0 0 0-6.323 0l-3.323 3.262a1.48 1.48 0 0 1-1.681.282 31.3 31.3 0 0 0-4.043-1.652 1.43 1.43 0 0 1-.984-1.365V4.392C59.45 1.966 57.447 0 54.977 0h-8.944c-2.47 0-4.473 1.966-4.473 4.392v4.603a1.43 1.43 0 0 1-.978 1.365 31.4 31.4 0 0 0-4.041 1.651 1.476 1.476 0 0 1-1.683-.281l-3.33-3.264a4.54 4.54 0 0 0-6.321 0l-6.327 6.212a4.336 4.336 0 0 0 0 6.21l4.888 4.809a1.51 1.51 0 0 0 2.108-.033c.559-.567.56-1.466.003-2.034l-4.891-4.808a1.445 1.445 0 0 1 0-2.07l6.326-6.212a1.51 1.51 0 0 1 2.108 0l3.33 3.264a4.493 4.493 0 0 0 5.123.826 28.491 28.491 0 0 1 3.654-1.492c1.807-.6 3.02-2.269 3.013-4.143V4.392c0-.809.667-1.464 1.49-1.464h8.945c.824 0 1.491.655 1.491 1.464v4.603c-.008 1.874 1.206 3.542 3.013 4.142 1.253.412 2.474.911 3.655 1.493 1.71.833 3.773.5 5.121-.827l3.33-3.263a1.51 1.51 0 0 1 2.108 0l6.327 6.214a1.445 1.445 0 0 1 0 2.068l-3.324 3.27a4.298 4.298 0 0 0-.84 5.03 27.42 27.42 0 0 1 1.518 3.588c.612 1.775 2.31 2.967 4.22 2.959h4.688c.823 0 1.49.655 1.49 1.464v8.783c0 .808-.667 1.464-1.49 1.464h-4.689c-1.907-.008-3.606 1.184-4.217 2.958-.42 1.23-.929 2.43-1.52 3.59a4.3 4.3 0 0 0 .841 5.028l3.325 3.27a1.445 1.445 0 0 1 0 2.07l-6.33 6.213a1.51 1.51 0 0 1-2.106 0l-4.9-4.8a1.51 1.51 0 0 0-2.107-.033 1.445 1.445 0 0 0 .003 2.105l4.897 4.8a4.53 4.53 0 0 0 6.323 0l6.326-6.21a4.336 4.336 0 0 0 0-6.21l-3.32-3.266a1.416 1.416 0 0 1-.287-1.651 30.102 30.102 0 0 0 1.683-3.97 1.454 1.454 0 0 1 1.39-.967h4.688c2.47 0 4.472-1.966 4.472-4.391v-8.783c0-2.426-2.002-4.392-4.472-4.392z"/><path d="M63.734 25.988c-7.584-7.273-19.864-7.273-27.448 0a1.395 1.395 0 0 0 .037 2.028 1.537 1.537 0 0 0 2.074 0c6.371-6.204 16.77-6.27 23.226-.15 6.457 6.122 6.526 16.114.156 22.318l-.156.15a1.395 1.395 0 0 0-.036 2.028 1.536 1.536 0 0 0 2.147 0c7.569-7.288 7.569-19.087 0-26.375z"/></symbol><symbol viewBox="0 0 30 30" id="twitter" xmlns="http://www.w3.org/2000/svg"><path d="M14.74 0C6.712 0 .204 6.508.204 14.534S6.713 29.068 14.74 29.068s14.534-6.508 14.534-14.534S22.765 0 14.74 0zm6.635 11.332c.007.143.01.287.01.431 0 4.409-3.355 9.492-9.492 9.492a9.443 9.443 0 0 1-5.113-1.498c.26.03.527.046.796.046a6.694 6.694 0 0 0 4.143-1.428 3.34 3.34 0 0 1-3.117-2.317A3.323 3.323 0 0 0 10.11 16a3.337 3.337 0 0 1-2.676-3.27v-.042c.45.25.964.4 1.511.417A3.333 3.333 0 0 1 7.911 8.65a9.471 9.471 0 0 0 6.877 3.486 3.337 3.337 0 0 1 5.685-3.042 6.691 6.691 0 0 0 2.118-.81 3.35 3.35 0 0 1-1.467 1.845 6.653 6.653 0 0 0 1.916-.525 6.781 6.781 0 0 1-1.665 1.727z"/></symbol><symbol viewBox="0 0 30 30" id="vk" xmlns="http://www.w3.org/2000/svg"><path d="M14.603 0C6.576 0 .068 6.507.068 14.534c0 8.027 6.508 14.534 14.535 14.534 8.026 0 14.534-6.507 14.534-14.534C29.137 6.507 22.629 0 14.603 0zm7.372 16.106c.677.662 1.394 1.284 2.002 2.015.27.323.524.657.717 1.032.276.536.027 1.123-.453 1.155h-2.977c-.77.063-1.381-.247-1.897-.773-.412-.42-.794-.867-1.19-1.3a2.782 2.782 0 0 0-.537-.477c-.406-.264-.759-.183-.991.241-.237.431-.291.91-.314 1.39-.032.702-.244.886-.949.919-1.505.07-2.933-.158-4.26-.917-1.172-.67-2.078-1.614-2.868-2.684-1.538-2.085-2.716-4.374-3.774-6.728-.238-.53-.064-.814.52-.825a82.876 82.876 0 0 1 2.916-.001c.396.006.657.232.81.606a18.093 18.093 0 0 0 1.975 3.661c.215.304.435.607.747.821.345.237.608.159.77-.227.105-.244.15-.506.172-.768.078-.899.087-1.797-.047-2.691-.083-.56-.398-.922-.956-1.028-.285-.054-.243-.16-.105-.321.24-.281.465-.455.914-.455h3.365c.53.104.649.342.72.876l.004 3.738c-.007.207.103.82.475.955.297.098.493-.14.671-.329.807-.856 1.382-1.866 1.896-2.912.228-.462.424-.939.614-1.417.142-.354.362-.528.76-.522l3.24.004c.096 0 .193.001.287.018.546.093.696.328.527.86-.266.837-.782 1.534-1.288 2.233-.54.748-1.118 1.47-1.654 2.222-.492.687-.453 1.033.158 1.63z"/></symbol><symbol viewBox="0 0 30 30" id="yt" xmlns="http://www.w3.org/2000/svg"><path d="M12.998 17.257l4.727-2.723-4.727-2.723v5.446z"/><path d="M14.808 0C6.782 0 .273 6.508.273 14.534s6.509 14.534 14.535 14.534 14.534-6.508 14.534-14.534S22.834 0 14.808 0zm9.081 14.55s0 2.947-.374 4.368a2.276 2.276 0 0 1-1.6 1.6c-1.422.375-7.107.375-7.107.375s-5.67 0-7.107-.389A2.276 2.276 0 0 1 6.1 18.903c-.374-1.406-.374-4.369-.374-4.369s0-2.947.374-4.369A2.322 2.322 0 0 1 7.7 8.55c1.422-.375 7.108-.375 7.108-.375s5.685 0 7.106.39a2.273 2.273 0 0 1 1.601 1.6c.39 1.422.374 4.384.374 4.384z"/></symbol></svg>