<?xml version="1.0" encoding="utf-8"?><svg xmlns="http://www.w3.org/2000/svg" xmlns:xlink="http://www.w3.org/1999/xlink"><symbol viewBox="0 0 10 5" id="arr" xmlns="http://www.w3.org/2000/svg"><path d="M1.273.586l4 3.586 4-3.586"/></symbol><symbol viewBox="0 0 30 30" id="be" xmlns="http://www.w3.org/2000/svg"><path d="M12.04 11.517c0-1.371-.933-1.371-.933-1.371H7.269v2.942h3.6c.622 0 1.17-.2 1.17-1.57zm-.933 3.603H7.269v3.524h3.66c.551-.015 1.568-.188 1.568-1.713 0-1.83-1.39-1.81-1.39-1.81zm9.826-2.032c-2.037 0-2.32 2.032-2.32 2.032h4.33s.027-2.032-2.01-2.032z"/><path d="M14.876 0C6.849 0 .342 6.507.342 14.534c0 8.027 6.507 14.534 14.534 14.534 8.027 0 14.534-6.507 14.534-14.534C29.41 6.507 22.903 0 14.876 0zm3.169 8.579h5.44v1.623h-5.44V8.58zm-2.75 8.516c0 4.024-4.188 3.892-4.188 3.892H4.246V7.802h6.861c2.085 0 3.731 1.151 3.731 3.51 0 2.36-2.012 2.51-2.012 2.51 2.652 0 2.47 3.273 2.47 3.273zm5.664 2.08c2.192 0 2.114-1.419 2.114-1.419h2.32c0 3.764-4.512 3.507-4.512 3.507-5.414 0-5.066-5.04-5.066-5.04s-.004-5.066 5.066-5.066c5.337 0 4.59 5.723 4.59 5.723h-6.833c0 2.45 2.32 2.294 2.32 2.294z"/></symbol><symbol viewBox="0 0 30 30" id="fb" xmlns="http://www.w3.org/2000/svg"><path d="M29.069 14.534C29.069 6.506 22.562 0 14.534 0S0 6.506 0 14.534s6.506 14.534 14.534 14.534c.085 0 .17 0 .256-.005v-11.31h-3.123v-3.639h3.123v-2.68c0-3.105 1.896-4.797 4.667-4.797 1.328 0 2.47.096 2.799.142v3.247h-1.908c-1.505 0-1.8.716-1.8 1.766v2.316h3.605l-.47 3.64h-3.135v10.758c6.075-1.743 10.52-7.335 10.52-13.972z"/></symbol><symbol viewBox="0 0 44 50" id="ic1" xmlns="http://www.w3.org/2000/svg"><path d="M35.457 21.67v-.002a2.094 2.094 0 0 0 0-2.962l-.089.09.089-.091a1.055 1.055 0 1 1 1.492-1.494v.001a4.206 4.206 0 0 1 0 5.95v.001a1.053 1.053 0 0 1-1.501.008 1.056 1.056 0 0 1 .009-1.502zm4.865-7.773l-.027-.027a1.056 1.056 0 0 0-1.492 1.494l1.519-1.467zm0 0a8.927 8.927 0 0 1-.027 12.607 1.057 1.057 0 0 1-1.804-.747 1.055 1.055 0 0 1 .312-.746 6.815 6.815 0 0 0 0-9.647l1.519-1.467zM8.565 18.703l-.002.003a2.093 2.093 0 0 0 0 2.962 1.057 1.057 0 0 1-1.492 1.494 4.203 4.203 0 0 1 0-5.95l.002-.002a1.056 1.056 0 1 1 1.492 1.493z"/><path d="M3.725 13.87a1.056 1.056 0 1 1 1.493 1.494 6.815 6.815 0 0 0 0 9.646 1.057 1.057 0 0 1-1.493 1.494 8.927 8.927 0 0 1 0-12.633z"/><mask id="da"><path d="M35.415 30.094c-.544 0-1.08.125-1.568.367a3.544 3.544 0 0 0-4.73-1.577 3.544 3.544 0 0 0-4.347-1.74v-3.562l4.63 2.434a1.184 1.184 0 0 0 1.717-1.247l-1.412-8.229 5.98-5.828a1.182 1.182 0 0 0-.657-2.017L26.736 7.49 23.048.746a1.183 1.183 0 0 0-2.075 0L17.285 7.49 8.992 8.695a1.183 1.183 0 0 0-.655 2.018l5.979 5.828-1.412 8.228c-.192.932.891 1.717 1.716 1.247l3.054-1.605v13.12a78.43 78.43 0 0 0-.82-1.054c-1.775-2.233-3.958-2.442-5.476-2.224a7.574 7.574 0 0 0-2.778.987 1.19 1.19 0 0 0-.3 1.724l9.622 12.386a1.183 1.183 0 0 0 1.868-1.45l-8.682-11.176a4.82 4.82 0 0 1 .673-.137c1.305-.167 2.359.279 3.22 1.363.723.909 1.698 2.206 2.899 3.857.657.918 2.149.433 2.14-.696V21.815a1.183 1.183 0 1 1 2.365 0s.002 12.697.006 12.737a1.182 1.182 0 0 0 2.353 0c.004-.04.006-4.064.006-4.064a1.183 1.183 0 0 1 2.366 0v4.732a1.183 1.183 0 1 0 2.366 0v-3.154a1.183 1.183 0 1 1 2.365 0v3.942a1.183 1.183 0 1 0 2.366 0v-2.365a1.183 1.183 0 0 1 2.365 0v14.982a1.183 1.183 0 0 0 2.366 0V33.643a3.552 3.552 0 0 0-3.549-3.549zM21.222 18.266a3.552 3.552 0 0 0-3.547 3.47l-2.034 1.07 1.112-6.479a1.181 1.181 0 0 0-.34-1.047l-4.709-4.589 6.506-.945a1.182 1.182 0 0 0 .867-.603l2.933-5.364 2.933 5.364a1.184 1.184 0 0 0 .867.603l6.506.945-4.708 4.59a1.182 1.182 0 0 0-.34 1.046l1.111 6.48-3.747-1.97a3.555 3.555 0 0 0-3.41-2.57z"/></mask><path d="M35.415 30.094c-.544 0-1.08.125-1.568.367a3.544 3.544 0 0 0-4.73-1.577 3.544 3.544 0 0 0-4.347-1.74v-3.562l4.63 2.434a1.184 1.184 0 0 0 1.717-1.247l-1.412-8.229 5.98-5.828a1.182 1.182 0 0 0-.657-2.017L26.736 7.49 23.048.746a1.183 1.183 0 0 0-2.075 0L17.285 7.49 8.992 8.695a1.183 1.183 0 0 0-.655 2.018l5.979 5.828-1.412 8.228c-.192.932.891 1.717 1.716 1.247l3.054-1.605v13.12a78.43 78.43 0 0 0-.82-1.054c-1.775-2.233-3.958-2.442-5.476-2.224a7.574 7.574 0 0 0-2.778.987 1.19 1.19 0 0 0-.3 1.724l9.622 12.386a1.183 1.183 0 0 0 1.868-1.45l-8.682-11.176a4.82 4.82 0 0 1 .673-.137c1.305-.167 2.359.279 3.22 1.363.723.909 1.698 2.206 2.899 3.857.657.918 2.149.433 2.14-.696V21.815a1.183 1.183 0 1 1 2.365 0s.002 12.697.006 12.737a1.182 1.182 0 0 0 2.353 0c.004-.04.006-4.064.006-4.064a1.183 1.183 0 0 1 2.366 0v4.732a1.183 1.183 0 1 0 2.366 0v-3.154a1.183 1.183 0 1 1 2.365 0v3.942a1.183 1.183 0 1 0 2.366 0v-2.365a1.183 1.183 0 0 1 2.365 0v14.982a1.183 1.183 0 0 0 2.366 0V33.643a3.552 3.552 0 0 0-3.549-3.549zM21.222 18.266a3.552 3.552 0 0 0-3.547 3.47l-2.034 1.07 1.112-6.479a1.181 1.181 0 0 0-.34-1.047l-4.709-4.589 6.506-.945a1.182 1.182 0 0 0 .867-.603l2.933-5.364 2.933 5.364a1.184 1.184 0 0 0 .867.603l6.506.945-4.708 4.59a1.182 1.182 0 0 0-.34 1.046l1.111 6.48-3.747-1.97a3.555 3.555 0 0 0-3.41-2.57z" mask="url(#da)"/></symbol><symbol viewBox="0 0 59 59" id="ic2" xmlns="http://www.w3.org/2000/svg"><g clip-path="url(#eclip0)" filter="url(#efilter0_d)"><path d="M49.782 31.37h-6.783a2.543 2.543 0 0 0-2.543 2.543v13.565a2.543 2.543 0 0 0 2.543 2.543h6.782a2.543 2.543 0 0 0 2.544-2.544V33.913a2.543 2.543 0 0 0-2.544-2.544zm.847 16.107c0 .469-.38.848-.847.848h-6.783a.848.848 0 0 1-.848-.848V33.913c0-.469.38-.848.848-.848h6.782c.469 0 .848.38.848.848v13.565z"/><path d="M51.52 0H21.507a2.499 2.499 0 0 0-2.5 2.496v18.307H8.167a2.499 2.499 0 0 0-2.5 2.496v16.642h-.834a.833.833 0 0 0-.834.832 4.17 4.17 0 0 0 4.168 4.16h26.678a4.16 4.16 0 0 0 4.169-4.151v-.009a.833.833 0 0 0-.834-.832h-.834v-9.153h9.17a.833.833 0 1 0 0-1.664h-4.373l-1.19-4.16H51.52a2.499 2.499 0 0 0 2.5-2.497V2.497A2.499 2.499 0 0 0 51.52 0zM7.335 23.3c0-.46.373-.833.833-.833h26.678c.46 0 .834.373.834.832v16.642H24.008a.833.833 0 0 0-.833.832H19.84a.833.833 0 0 0-.834-.832H7.335V23.3zM36.62 42.535a2.52 2.52 0 0 1-1.774.734H8.168a2.506 2.506 0 0 1-2.358-1.665h12.363c0 .46.373.833.833.833h5.002c.46 0 .834-.373.834-.833h12.363a2.531 2.531 0 0 1-.585.93zm.727-13.412v-4.16h1.873l1.19 4.16h-3.063zm15.006-6.657c0 .46-.373.832-.833.832H37.347a2.499 2.499 0 0 0-2.5-2.496H20.673V2.496c0-.46.373-.832.833-.832H51.52c.46 0 .833.373.833.832v19.971z"/></g><defs><filter id="efilter0_d" x="0" y="0" width="60" height="58.021" filterUnits="userSpaceOnUse" color-interpolation-filters="sRGB"><feFlood flood-opacity="0" result="BackgroundImageFix"/><feColorMatrix in="SourceAlpha" values="0 0 0 0 0 0 0 0 0 0 0 0 0 0 0 0 0 0 127 0"/><feOffset dy="4"/><feGaussianBlur stdDeviation="2"/><feColorMatrix values="0 0 0 0 0 0 0 0 0 0 0 0 0 0 0 0 0 0 0.25 0"/><feBlend in2="BackgroundImageFix" result="effect1_dropShadow"/><feBlend in="SourceGraphic" in2="effect1_dropShadow" result="shape"/></filter><clipPath id="eclip0"><path transform="translate(4)" d="M0 0h52v50.021H0z"/></clipPath></defs></symbol><symbol viewBox="0 0 51 50" id="ic3" xmlns="http://www.w3.org/2000/svg"><path d="M20.429 40.06l.025-.197H2.568a2.464 2.464 0 0 1-1.717-.695 2.338 2.338 0 0 1-.71-1.67V3.108c0-.625.255-1.226.71-1.67A2.464 2.464 0 0 1 2.568.743h44.85a2.469 2.469 0 0 1 1.718.695c.455.444.71 1.045.71 1.67v34.39c0 .625-.255 1.226-.71 1.67a2.464 2.464 0 0 1-1.718.695H29.533l.026.197.681 5.318.014.107.102.036a23.956 23.956 0 0 1 4.71 2.254.805.805 0 0 1 .317.395.78.78 0 0 1 .013.501.803.803 0 0 1-.297.412.844.844 0 0 1-.494.159H15.383a.844.844 0 0 1-.494-.16.803.803 0 0 1-.297-.41.78.78 0 0 1 .013-.502c.059-.16.17-.3.316-.395a23.957 23.957 0 0 1 4.71-2.254l.103-.036.013-.107.682-5.318zm26.99-37.713H2.569v.175-.175a.787.787 0 0 0-.548.222.755.755 0 0 0-.228.54v27.334h46.401V3.108a.755.755 0 0 0-.229-.54.784.784 0 0 0-.546-.22zM19.47 47.3l.064.338h10.911l.063-.338c-1.602-.629-3.568-1.184-5.515-1.184-1.955 0-3.922.555-5.523 1.184zm8.804-2.387l.248.062-.032-.254-.604-4.705-.02-.153H22.12l-.02.153-.602 4.705-.032.254.248-.062a13.615 13.615 0 0 1 6.562 0zm19.92-7.415v-5.451H1.792v5.451a.76.76 0 0 0 .228.54.784.784 0 0 0 .547.22h44.85a.785.785 0 0 0 .547-.22.755.755 0 0 0 .23-.54z"/><path d="M12.378 7.17l-.03-.085H9.776a.887.887 0 0 1-.62-.25.838.838 0 0 1-.254-.6c0-.225.09-.44.254-.6a.887.887 0 0 1 .62-.25h3.203c.184 0 .364.057.512.161a.85.85 0 0 1 .318.421l4.577 13.4.03.086h8.924l.034-.073a6.121 6.121 0 0 1 2.447-2.68l.403-.236h-8.435a.887.887 0 0 1-.619-.25.838.838 0 0 1-.255-.6c0-.225.091-.44.255-.6a.886.886 0 0 1 .619-.25h8.81l.068.003.098.008.032-.093.936-2.74.057-.168H20.187a.886.886 0 0 1-.619-.25.838.838 0 0 1-.255-.6c0-.224.092-.44.255-.6a.887.887 0 0 1 .62-.25h12.814a.9.9 0 0 1 .399.094.87.87 0 0 1 .31.26.838.838 0 0 1 .12.764l-1.54 4.506-.063.186.196-.018a6.283 6.283 0 0 1 4.012.99 6.063 6.063 0 0 1 2.276 2.705 5.89 5.89 0 0 1 .35 3.48 5.983 5.983 0 0 1-1.69 3.086 6.23 6.23 0 0 1-3.164 1.651 6.324 6.324 0 0 1-3.572-.343 6.15 6.15 0 0 1-2.774-2.221 5.923 5.923 0 0 1-1.011-3.922l.013-.14h-8.946l.384.236c.506.311.879.79 1.052 1.346a2.36 2.36 0 0 1-.111 1.687 2.448 2.448 0 0 1-1.22 1.204 2.538 2.538 0 0 1-1.732.129 2.474 2.474 0 0 1-1.394-1.01 2.367 2.367 0 0 1-.372-1.651 2.4 2.4 0 0 1 .83-1.485 2.517 2.517 0 0 1 1.628-.591v-.128l.101-.077a.84.84 0 0 1-.129-.241l-4.577-13.4zm4.606 16.973a.736.736 0 0 0 .513-.208.707.707 0 0 0 .215-.505.703.703 0 0 0-.124-.398.74.74 0 0 0-1.118-.108.71.71 0 0 0-.158.78.725.725 0 0 0 .672.439zm16.018-6.605c-.876 0-1.733.254-2.461.729a4.352 4.352 0 0 0-1.634 1.942 4.235 4.235 0 0 0-.252 2.502c.171.84.594 1.612 1.214 2.217a4.466 4.466 0 0 0 2.269 1.183c.859.167 1.75.082 2.559-.246a4.411 4.411 0 0 0 1.989-1.593 4.256 4.256 0 0 0 .748-2.406h-.127.127a4.283 4.283 0 0 0-1.301-3.06 4.492 4.492 0 0 0-3.131-1.268z"/><path d="M31.08 22.662l-.07-.036a.857.857 0 0 1-.433-.492.828.828 0 0 1 .048-.643.867.867 0 0 1 .502-.426.897.897 0 0 1 .666.042l.81.396.099.048.062-.091 1.11-1.627a.876.876 0 0 1 .556-.356.895.895 0 0 1 .654.127.849.849 0 0 1 .37.537.83.83 0 0 1-.123.633l-1.602 2.344a.874.874 0 0 1-.502.351.896.896 0 0 1-.617-.062l-1.53-.745z"/></symbol><symbol viewBox="0 0 52 51" id="ic4" xmlns="http://www.w3.org/2000/svg"><mask id="ga"><path d="M45.048 16.193c-2.004 0-3.736.561-5.009 1.622a5.974 5.974 0 0 0-.358.325V2.875A2.592 2.592 0 0 0 37.097.291H13.244a2.592 2.592 0 0 0-2.584 2.584V5.52l-.123-.123A4.174 4.174 0 1 0 4.633 11.3l4.301 4.3a4.176 4.176 0 0 0-1.785 6.961l2.447 2.447a4.173 4.173 0 0 0-2.447 7.094l1.652 1.652a4.173 4.173 0 0 0-2.447 7.094l4.306 4.307V47.4a2.586 2.586 0 0 0 2.584 2.584h19.083a.994.994 0 0 0 .993-.994v-9.54a5.392 5.392 0 0 1 2.147-4.294l3.817-2.862a1.004 1.004 0 0 0 .397-.795v-7.951c0-3.958 2.416-5.062 4.373-5.307v30.75a.993.993 0 1 0 1.988 0V17.187a.994.994 0 0 0-.994-.994zM13.244 2.28h23.853a.597.597 0 0 1 .596.596v2.978H12.648V2.875a.597.597 0 0 1 .596-.596zM5.398 8.348c-.02-1.926 2.386-2.92 3.733-1.547l1.53 1.529v6.185L6.038 9.894a2.172 2.172 0 0 1-.641-1.546zm3.157 9.715c.814-.848 2.278-.848 3.092 0l4.498 4.498c1.975 2.121-.98 5.068-3.093 3.092l-4.497-4.497a2.19 2.19 0 0 1 0-3.093zm8.995 3.093l-1.08-1.08a8.55 8.55 0 1 1 1.744 6.119 4.181 4.181 0 0 0-.664-5.04zm-8.995 6.449c.814-.849 2.278-.849 3.092 0l4.498 4.497c1.975 2.122-.98 5.068-3.093 3.093l-4.497-4.498a2.19 2.19 0 0 1 0-3.092zM7.76 36.35c.814-.849 2.278-.849 3.092 0l4.498 4.497c1.975 2.122-.98 5.068-3.093 3.093L7.76 39.443a2.19 2.19 0 0 1 0-3.092zm4.888 11.05v-.994a4.19 4.19 0 0 0 2.835-.19 4.172 4.172 0 0 0 2.477-4.179h13.373v5.96H13.244a.597.597 0 0 1-.596-.597zm21.627-13.835a7.39 7.39 0 0 0-2.942 5.884v.6H17.257a4.174 4.174 0 0 0-.502-.607l-1.651-1.652a4.174 4.174 0 0 0 2.446-7.094l-2.446-2.447a4.128 4.128 0 0 0 1.72-.61 10.532 10.532 0 1 0-2.065-9.276s-1.97-1.952-2.111-2.061V7.84h25.045v23.162l-3.418 2.564z"/></mask><path d="M45.048 16.193c-2.004 0-3.736.561-5.009 1.622a5.974 5.974 0 0 0-.358.325V2.875A2.592 2.592 0 0 0 37.097.291H13.244a2.592 2.592 0 0 0-2.584 2.584V5.52l-.123-.123A4.174 4.174 0 1 0 4.633 11.3l4.301 4.3a4.176 4.176 0 0 0-1.785 6.961l2.447 2.447a4.173 4.173 0 0 0-2.447 7.094l1.652 1.652a4.173 4.173 0 0 0-2.447 7.094l4.306 4.307V47.4a2.586 2.586 0 0 0 2.584 2.584h19.083a.994.994 0 0 0 .993-.994v-9.54a5.392 5.392 0 0 1 2.147-4.294l3.817-2.862a1.004 1.004 0 0 0 .397-.795v-7.951c0-3.958 2.416-5.062 4.373-5.307v30.75a.993.993 0 1 0 1.988 0V17.187a.994.994 0 0 0-.994-.994zM13.244 2.28h23.853a.597.597 0 0 1 .596.596v2.978H12.648V2.875a.597.597 0 0 1 .596-.596zM5.398 8.348c-.02-1.926 2.386-2.92 3.733-1.547l1.53 1.529v6.185L6.038 9.894a2.172 2.172 0 0 1-.641-1.546zm3.157 9.715c.814-.848 2.278-.848 3.092 0l4.498 4.498c1.975 2.121-.98 5.068-3.093 3.092l-4.497-4.497a2.19 2.19 0 0 1 0-3.093zm8.995 3.093l-1.08-1.08a8.55 8.55 0 1 1 1.744 6.119 4.181 4.181 0 0 0-.664-5.04zm-8.995 6.449c.814-.849 2.278-.849 3.092 0l4.498 4.497c1.975 2.122-.98 5.068-3.093 3.093l-4.497-4.498a2.19 2.19 0 0 1 0-3.092zM7.76 36.35c.814-.849 2.278-.849 3.092 0l4.498 4.497c1.975 2.122-.98 5.068-3.093 3.093L7.76 39.443a2.19 2.19 0 0 1 0-3.092zm4.888 11.05v-.994a4.19 4.19 0 0 0 2.835-.19 4.172 4.172 0 0 0 2.477-4.179h13.373v5.96H13.244a.597.597 0 0 1-.596-.597zm21.627-13.835a7.39 7.39 0 0 0-2.942 5.884v.6H17.257a4.174 4.174 0 0 0-.502-.607l-1.651-1.652a4.174 4.174 0 0 0 2.446-7.094l-2.446-2.447a4.128 4.128 0 0 0 1.72-.61 10.532 10.532 0 1 0-2.065-9.276s-1.97-1.952-2.111-2.061V7.84h25.045v23.162l-3.418 2.564z" mask="url(#ga)"/><path d="M25.771 21.83h-1.694a3.252 3.252 0 0 1-.095-6.501l.123-.004v-.722a.867.867 0 1 1 1.734 0v.723h.704a2.407 2.407 0 0 1 2.406 2.512.866.866 0 1 1-1.732-.075v-.01c-.008-.196-.064-.365-.183-.49-.118-.123-.285-.186-.48-.203h-2.477a1.519 1.519 0 0 0 0 3.037h1.69a3.303 3.303 0 0 1 .19 6.598l-.118.008v.721a.867.867 0 0 1-1.734 0v-.723h-.843a2.41 2.41 0 0 1-2.408-2.452l.002-.103a.867.867 0 0 1 1.733.023c-.055.394.24.807.674.798h2.509a1.57 1.57 0 0 0 0-3.136z"/><path d="M17.905 21.884l-3.695-3.786v-3.32l5.4-5.115L27 8.811l7.958 3.126 1.99 7.39-2.559 8.81-5.116 4.547-8.81-.852-4.263-3.98.848-.636a2.84 2.84 0 0 0 .514-.498l.912-1.14.284.285 1.137-.852-.285-1.99-1.705-1.137z"/></symbol><symbol viewBox="0 0 52 51" id="ic5" xmlns="http://www.w3.org/2000/svg"><g clip-path="url(#hclip0)" stroke-width=".254"><path d="M44.294 5.718c7.19 7.161 7.494 18.706.691 26.236-7.043 7.795-19.07 8.403-26.864 1.359l-.09-.081-.085.085-1.462 1.463-.09.09.09.09a2.9 2.9 0 0 1 0 4.1L6.5 49.044a2.898 2.898 0 0 1-4.098 0L.976 47.619a2.9 2.9 0 0 1 0-4.1l-.09-.09.09.09 9.984-9.986a2.898 2.898 0 0 1 4.099 0l.09.09.09-.09 1.462-1.462.085-.086-.08-.09c-6.79-7.526-6.487-19.056.69-26.215 7.438-7.419 19.48-7.402 26.898.038zM15.24 37.812a1.136 1.136 0 0 0 0-1.605l-1.426-1.427-.003-.002a1.159 1.159 0 0 0-1.601 0l-.002.002-9.984 9.985a1.136 1.136 0 0 0 0 1.605l1.426 1.428a1.135 1.135 0 0 0 1.606 0l-.09-.09.09.09 9.983-9.986zm27.81-6.418c6.734-6.75 6.734-17.679 0-24.43C36.305.22 25.37.22 18.625 6.964c-6.744 6.746-6.745 17.684 0 24.43 6.744 6.746 17.68 6.746 24.424 0z"/><path d="M40.028 28.26a12.917 12.917 0 0 0 0-18.369l1.265-1.235a14.627 14.627 0 0 1 0 20.84l-1.265-1.236z"/></g><defs><clipPath id="hclip0"><path d="M0 0h52v50.021H0z"/></clipPath></defs></symbol><symbol viewBox="0 0 52 51" id="ic6" xmlns="http://www.w3.org/2000/svg"><g clip-path="url(#iclip0)"><path d="M33.24 18.004l-.003.002a2.733 2.733 0 0 1-3.77 0l-.001-.002a2.667 2.667 0 0 1 1.887-4.555l1.887 4.555zm0 0a2.667 2.667 0 0 0-1.887-4.555l1.887 4.555zm-27.5-.385v-.001h.001zm0 0a2.667 2.667 0 0 0 .001 3.772l.003.003a2.733 2.733 0 0 0 3.77 0l.001-.003a2.667 2.667 0 0 0 .001-3.773 2.67 2.67 0 0 0-3.775 0zm5.332-.54l-.073.074.057.087a4.106 4.106 0 0 1-3.428 6.372A4.106 4.106 0 0 1 4.2 17.24a4.11 4.11 0 0 1 5.694-1.162l.087.057.073-.073 5.995-5.992.073-.074-.057-.087a4.106 4.106 0 0 1-.327-3.936 4.11 4.11 0 0 1 5.426-2.081 4.106 4.106 0 0 1 2.082 5.422l-.04.092.08.06 4.953 3.806.089.068.079-.079c.016-.015.027-.032.033-.04l.006-.008.002-.002a4.11 4.11 0 0 1 5.17-.521l.087.057.074-.073 5.995-5.993.074-.073-.058-.087a4.118 4.118 0 0 1 0-4.547l-.106-.07.106.07A4.123 4.123 0 0 1 45.503.812a4.118 4.118 0 0 1 1.162 5.71l.091.06-.091-.06a4.123 4.123 0 0 1-5.713 1.16l-.086-.056-.074.073-5.995 5.992-.074.074.058.087a4.106 4.106 0 0 1 .413 3.745 4.11 4.11 0 0 1-7.672-2.945l.034-.089-.075-.058-5.027-3.862-.086-.066-.078.074a4.08 4.08 0 0 1-2.086 1.041 4.067 4.067 0 0 1-2.974-.623l-.087-.058-.073.074-5.998 5.995zm7.955-12.058a2.653 2.653 0 0 0-1.722 1.096l-.01.016v.001l.001-.002a.126.126 0 0 1 .007-.012 2.667 2.667 0 0 0 .656 3.714 2.67 2.67 0 0 0 3.718-.655 2.667 2.667 0 0 0-2.181-4.198c-.157 0-.314.013-.468.04zm26.857-.76a2.668 2.668 0 1 0-5.337.001 2.668 2.668 0 0 0 5.337-.001z"/><mask id="ia"><rect x="38.084" y="17.052" width="10.232" height="32.968" rx=".853"/></mask><rect x="38.084" y="17.052" width="10.232" height="32.968" rx=".853" mask="url(#ia)"/><mask id="ib"><rect x="14.21" y="20.463" width="10.232" height="29.558" rx=".853"/></mask><rect x="14.21" y="20.463" width="10.232" height="29.558" rx=".853" mask="url(#ib)"/><mask id="ic"><rect x="26.147" y="28.421" width="10.232" height="21.6" rx=".853"/></mask><rect x="26.147" y="28.421" width="10.232" height="21.6" rx=".853" mask="url(#ic)"/><mask id="id"><rect x="2.273" y="31.831" width="10.232" height="18.189" rx=".853"/></mask><rect x="2.273" y="31.831" width="10.232" height="18.189" rx=".853" mask="url(#id)"/><path d="M.225 48.54h50.139v1.255H.225z"/></g><defs><clipPath id="iclip0"><path d="M0 0h52v50.021H0z"/></clipPath></defs></symbol><symbol viewBox="0 0 52 50" id="ic7" xmlns="http://www.w3.org/2000/svg"><path d="M26.441 1.588c-2.5.003-4.531 1.974-4.534 4.414 0 2.441 2.033 4.414 4.534 4.414 2.5 0 4.534-1.973 4.534-4.414s-2.033-4.414-4.534-4.414zm-6.042 4.414c0-3.241 2.702-5.875 6.042-5.875s6.042 2.634 6.042 5.875-2.701 5.875-6.042 5.875c-3.339-.004-6.038-2.635-6.042-5.875zm-.882 28.162v-.127H15.99V20.236c.005-3.992 3.488-7.243 7.806-7.247h5.287c4.318.004 7.8 3.255 7.806 7.247v13.801h-3.526v15.567h-1.508v-18.59h1.508v1.639h2.017V20.236c-.004-3.245-2.83-5.86-6.296-5.863h-5.288c-3.468.004-6.293 2.618-6.297 5.862v12.418h2.017v-1.639h1.508v18.59h-1.508v-15.44z"/><path d="M25.687 34.425h1.508v15.18h-1.508v-15.18zm17.5-15.688c-2.853-.003-5.159-2.251-5.161-5.018 0-2.768 2.307-5.017 5.16-5.017 2.854 0 5.161 2.25 5.161 5.017 0 2.768-2.307 5.018-5.16 5.018zm-3.653-5.018c0 1.968 1.639 3.557 3.653 3.557 2.014 0 3.652-1.59 3.652-3.557 0-1.968-1.639-3.557-3.652-3.557-2.014 0-3.653 1.59-3.653 3.557zm6.296 6.686h-7.804v-1.414h7.805c3.342.004 6.038 2.566 6.042 5.713V37.09h-3.526v12.515H46.84V34.008h1.508v1.668h2.017V24.704c-.003-2.38-2.038-4.296-4.534-4.299z"/><path d="M37.898 34.298v1.624h-3.525v1.625h3.526v12.185h1.762V34.298h-1.763zm6.169 2.572h-1.762v12.004h1.762V36.87zM8.814 8.574c-2.921 0-5.289 2.304-5.289 5.145.003 2.84 2.37 5.142 5.289 5.145 2.92 0 5.288-2.303 5.288-5.145 0-2.841-2.368-5.145-5.288-5.145zm0 8.575c-1.947 0-3.526-1.536-3.526-3.43 0-1.894 1.579-3.43 3.526-3.43 1.947 0 3.525 1.536 3.525 3.43 0 1.894-1.578 3.43-3.525 3.43zM6.17 18.864C2.763 18.867.003 21.48 0 24.704v12.514h3.525v12.514h1.763V33.88H3.525v1.668H1.763V24.704c.003-2.303 1.974-4.169 4.406-4.172h7.933v-1.668H6.169zm7.932 17.058v-1.624h-1.763v15.434h1.763V37.547h3.525v-1.625h-3.525z"/><path d="M9.695 36.87H7.932v12.004h1.763V36.87z"/></symbol><symbol viewBox="0 0 52 51" id="ic8" xmlns="http://www.w3.org/2000/svg"><mask id="ka"><path d="M31.856 29.179h-.93a.831.831 0 0 1-.782-.539 13.425 13.425 0 0 0-.333-.786.814.814 0 0 1 .169-.93l.662-.655a2.483 2.483 0 0 0-.004-3.534L28.25 20.38a2.565 2.565 0 0 0-3.583 0l-.662.653a.845.845 0 0 1-.943.167 18.214 18.214 0 0 0-.798-.334.82.82 0 0 1-.548-.773v-.917c0-1.382-1.135-2.501-2.535-2.501H15.8c-1.4 0-2.535 1.12-2.535 2.5v.918a.821.821 0 0 1-.546.772c-.27.101-.535.21-.797.328a.844.844 0 0 1-.943-.167l-.663-.653a2.565 2.565 0 0 0-3.582 0l-2.388 2.363a2.483 2.483 0 0 0 0 3.535l.661.654c.25.244.318.616.17.93-.12.259-.23.52-.334.787a.83.83 0 0 1-.789.538h-.93c-1.4 0-2.534 1.12-2.534 2.5v3.335c0 1.382 1.135 2.502 2.535 2.502h.93a.83.83 0 0 1 .782.538c.103.267.214.528.333.786a.814.814 0 0 1-.17.93l-.662.655a2.483 2.483 0 0 0 0 3.534l2.388 2.356a2.565 2.565 0 0 0 3.583 0l.662-.653a.845.845 0 0 1 .944-.166c.261.117.526.226.797.333a.82.82 0 0 1 .553.774v.917c0 1.381 1.135 2.5 2.535 2.5h3.38c1.4 0 2.535-1.119 2.535-2.5v-.917a.82.82 0 0 1 .546-.772c.27-.102.535-.211.796-.329a.844.844 0 0 1 .944.167l.663.654c.992.97 2.592.968 3.582-.005l2.388-2.356a2.483 2.483 0 0 0 0-3.534l-.662-.654a.814.814 0 0 1-.169-.93c.12-.259.23-.52.338-.787a.83.83 0 0 1 .784-.541h.93c1.4 0 2.535-1.12 2.535-2.502V31.68c0-1.381-1.135-2.501-2.535-2.501zm.845 5.835a.84.84 0 0 1-.845.834h-.93a2.543 2.543 0 0 0-2.366 1.613c-.09.233-.186.463-.29.689a2.484 2.484 0 0 0 .507 2.798l.66.653c.33.325.33.853.001 1.179l-2.389 2.356a.853.853 0 0 1-1.194 0l-.663-.653a2.566 2.566 0 0 0-2.836-.5c-.229.103-.462.199-.697.287a2.51 2.51 0 0 0-1.633 2.333v.917a.84.84 0 0 1-.845.833H15.8a.84.84 0 0 1-.845-.833v-.917a2.51 2.51 0 0 0-1.634-2.335c-.237-.088-.47-.184-.7-.286a2.57 2.57 0 0 0-2.835.5l-.662.652a.853.853 0 0 1-1.195 0L5.542 42.78a.826.826 0 0 1 0-1.179l.661-.653c.74-.74.942-1.852.507-2.798a11.975 11.975 0 0 1-.29-.688 2.542 2.542 0 0 0-2.365-1.614h-.93a.84.84 0 0 1-.844-.834V31.68a.84.84 0 0 1 .845-.834h.93a2.543 2.543 0 0 0 2.365-1.612c.09-.234.187-.463.291-.69a2.484 2.484 0 0 0-.507-2.797l-.664-.653a.826.826 0 0 1 0-1.18l2.388-2.356a.853.853 0 0 1 1.195 0l.662.653c.749.73 1.877.93 2.836.5.229-.102.462-.198.697-.287a2.51 2.51 0 0 0 1.637-2.332v-.917a.84.84 0 0 1 .845-.834h3.38a.84.84 0 0 1 .845.834v.917a2.51 2.51 0 0 0 1.634 2.334c.237.088.47.184.699.287.959.43 2.087.23 2.836-.5l.661-.652a.858.858 0 0 1 1.196 0l2.388 2.356c.33.325.33.853 0 1.178l-.662.654a2.484 2.484 0 0 0-.507 2.798c.104.226.201.456.291.688a2.542 2.542 0 0 0 2.364 1.611h.93a.84.84 0 0 1 .845.834v3.334z"/></mask><path d="M31.856 29.179h-.93a.831.831 0 0 1-.782-.539 13.425 13.425 0 0 0-.333-.786.814.814 0 0 1 .169-.93l.662-.655a2.483 2.483 0 0 0-.004-3.534L28.25 20.38a2.565 2.565 0 0 0-3.583 0l-.662.653a.845.845 0 0 1-.943.167 18.214 18.214 0 0 0-.798-.334.82.82 0 0 1-.548-.773v-.917c0-1.382-1.135-2.501-2.535-2.501H15.8c-1.4 0-2.535 1.12-2.535 2.5v.918a.821.821 0 0 1-.546.772c-.27.101-.535.21-.797.328a.844.844 0 0 1-.943-.167l-.663-.653a2.565 2.565 0 0 0-3.582 0l-2.388 2.363a2.483 2.483 0 0 0 0 3.535l.661.654c.25.244.318.616.17.93-.12.259-.23.52-.334.787a.83.83 0 0 1-.789.538h-.93c-1.4 0-2.534 1.12-2.534 2.5v3.335c0 1.382 1.135 2.502 2.535 2.502h.93a.83.83 0 0 1 .782.538c.103.267.214.528.333.786a.814.814 0 0 1-.17.93l-.662.655a2.483 2.483 0 0 0 0 3.534l2.388 2.356a2.565 2.565 0 0 0 3.583 0l.662-.653a.845.845 0 0 1 .944-.166c.261.117.526.226.797.333a.82.82 0 0 1 .553.774v.917c0 1.381 1.135 2.5 2.535 2.5h3.38c1.4 0 2.535-1.119 2.535-2.5v-.917a.82.82 0 0 1 .546-.772c.27-.102.535-.211.796-.329a.844.844 0 0 1 .944.167l.663.654c.992.97 2.592.968 3.582-.005l2.388-2.356a2.483 2.483 0 0 0 0-3.534l-.662-.654a.814.814 0 0 1-.169-.93c.12-.259.23-.52.338-.787a.83.83 0 0 1 .784-.541h.93c1.4 0 2.535-1.12 2.535-2.502V31.68c0-1.381-1.135-2.501-2.535-2.501zm.845 5.835a.84.84 0 0 1-.845.834h-.93a2.543 2.543 0 0 0-2.366 1.613c-.09.233-.186.463-.29.689a2.484 2.484 0 0 0 .507 2.798l.66.653c.33.325.33.853.001 1.179l-2.389 2.356a.853.853 0 0 1-1.194 0l-.663-.653a2.566 2.566 0 0 0-2.836-.5c-.229.103-.462.199-.697.287a2.51 2.51 0 0 0-1.633 2.333v.917a.84.84 0 0 1-.845.833H15.8a.84.84 0 0 1-.845-.833v-.917a2.51 2.51 0 0 0-1.634-2.335c-.237-.088-.47-.184-.7-.286a2.57 2.57 0 0 0-2.835.5l-.662.652a.853.853 0 0 1-1.195 0L5.542 42.78a.826.826 0 0 1 0-1.179l.661-.653c.74-.74.942-1.852.507-2.798a11.975 11.975 0 0 1-.29-.688 2.542 2.542 0 0 0-2.365-1.614h-.93a.84.84 0 0 1-.844-.834V31.68a.84.84 0 0 1 .845-.834h.93a2.543 2.543 0 0 0 2.365-1.612c.09-.234.187-.463.291-.69a2.484 2.484 0 0 0-.507-2.797l-.664-.653a.826.826 0 0 1 0-1.18l2.388-2.356a.853.853 0 0 1 1.195 0l.662.653c.749.73 1.877.93 2.836.5.229-.102.462-.198.697-.287a2.51 2.51 0 0 0 1.637-2.332v-.917a.84.84 0 0 1 .845-.834h3.38a.84.84 0 0 1 .845.834v.917a2.51 2.51 0 0 0 1.634 2.334c.237.088.47.184.699.287.959.43 2.087.23 2.836-.5l.661-.652a.858.858 0 0 1 1.196 0l2.388 2.356c.33.325.33.853 0 1.178l-.662.654a2.484 2.484 0 0 0-.507 2.798c.104.226.201.456.291.688a2.542 2.542 0 0 0 2.364 1.611h.93a.84.84 0 0 1 .845.834v3.334z" mask="url(#ka)"/><path d="M24.627 29.749a7.26 7.26 0 0 0-.766-1.074l-.001-.002-.039-.042a1.432 1.432 0 0 1-.038-.042 6.93 6.93 0 0 0-.366-.387l-.001-.001a4.89 4.89 0 0 0-.165-.155l-.04-.037a8.075 8.075 0 0 0-.571-.474l-.141-.1v-.001a7.82 7.82 0 0 0-4.572-1.463c-.038 0-.077.003-.12.006l-.02.002a2.497 2.497 0 0 1-.115.008h-.002a7.667 7.667 0 0 0-.837.066h-.001a8.093 8.093 0 0 0-.826.149c-4.107 1.021-6.568 5.047-5.51 8.987.698 2.594 2.804 4.623 5.506 5.297a.288.288 0 0 1 .05.009h.003c.295.071.593.126.894.165.16.019.32.026.487.033l.11.004c.056.003.111.008.163.013.014 0 .027.002.04.003.065.006.127.01.192.01.242 0 .494-.015.753-.04l.012-.001.022-.002.007-.002.045-.006c.207-.022.417-.052.63-.092h.002c.055-.01.105-.023.16-.035l.085-.02.028.124m4.942-10.9l1.09 3.741-.127-.003v.002a7.706 7.706 0 0 1-.024.442 8.56 8.56 0 0 1-1.344 3.852v.001a2.492 2.492 0 0 1-.442.52l-.001.001c-.65.593-1.378 1.1-2.166 1.51h-.006l-.027.014c-.134.07-.27.13-.412.193l-.014.006-.093.042c-.078.037-.152.07-.237.102a15.198 15.198 0 0 1-.714.24 8.336 8.336 0 0 1-.453.113l.028.124m4.942-10.9a.181.181 0 0 1 .009.018v.001l.02.039c.14.248.265.503.375.764m-.404-.822l.404.822M19.685 40.65a8.43 8.43 0 0 0 .46-.114l-2.713.285.108.004c.053.003.105.008.157.012.08.007.159.014.244.014a8.095 8.095 0 0 0 .817-.046l.035-.006a7.825 7.825 0 0 0 .81-.13l.082-.019zm4.412-6.877v.002a6.445 6.445 0 0 1-.08.618v.001c-.33 1.772-1.474 3.304-3.11 4.173h-.002a7.015 7.015 0 0 1-.324.155l-.07.033h-.003a6.569 6.569 0 0 1-1.612.47l-.032.005c-.027.004-.058.01-.087.013m5.32-5.47l-2.58-5.119m2.58 5.119l.003-.041a5.704 5.704 0 0 0 0-.759v-.002a2.523 2.523 0 0 1-.004-.079v-.008a2.09 2.09 0 0 0-.006-.098v-.001a5.805 5.805 0 0 0-.113-.698 3.029 3.029 0 0 0-.041-.156 4.212 4.212 0 0 1-.024-.087 5.673 5.673 0 0 0-.15-.477h-.001a7.422 7.422 0 0 1-.022-.06c-.024-.064-.048-.13-.075-.195m.433 2.66l-2.372-4.968m-2.948 10.439l-.017-.126m.017.126l-.017-.126m.017.126a6.46 6.46 0 0 1-.326.037 6.585 6.585 0 0 1-.432.022H17.834a6.476 6.476 0 0 1-.625-.038l-.105-.011h-.002a6.775 6.775 0 0 1-.721-.132h-.001c-3.31-.815-5.314-4.06-4.464-7.254l.121.032-.122-.032c.554-2.078 2.222-3.705 4.362-4.27v-.002l.097-.023a6.64 6.64 0 0 1 1.552-.187h.001c.253.001.505.017.756.049m.077 11.683a6.451 6.451 0 0 1-.743.057m.743-.057l.082-.012.034-.006-.86.075m.667-11.74l-.015.126m.015-.126h-.001l-.014.126m.015-.126a3.242 3.242 0 0 1 .198.029h.001c.19.029.38.065.567.111l.065.016.116.029h.001c.47.13.923.314 1.349.546v.001c.058.032.115.066.17.099l.031.018.001.001c.138.084.274.169.408.267m-2.922-.99a6.238 6.238 0 0 0-.741-.05l1.67.23-.11-.027-.068-.016a6.2 6.2 0 0 0-.556-.11l-.071-.01a3.14 3.14 0 0 0-.125-.018zm2.922.99h.001l-.075.103m.074-.103l-.074.103m.074-.103l.036.025c.058.04.119.082.177.128m-.287-.05l.038.027c.058.04.116.08.171.123m.078-.1l-.078.1m.078-.1l-.078.1m.078-.1c.173.133.34.275.498.425v.001c.04.039.082.084.12.126l.062.066a5.959 5.959 0 0 1 .485.573l.002.002c.087.12.175.248.256.379m0 0l-.108.067m.108-.067l-.108.067m.108-.067a19.905 19.905 0 0 0 .13.207l.003.005c.114.202.216.41.305.625m-.546-.77l.06.095.07.112-.382-.579c.087.12.174.245.252.372zm.546.77l-.117.048.117-.049zm-5.647 8.061h-.181.18zm7.014-8.602c.044.113.088.227.13.341l-.13-.34zm.55 2.446l-.42-2.105c.06.164.113.33.16.499l.02.067c.032.113.063.221.087.33a7.119 7.119 0 0 1 .152 1.209zM33.854 5.113a.888.888 0 0 0 .61.847c.785.258 1.55.57 2.29.935a.916.916 0 0 0 1.041-.174l1.889-1.854a2.5 2.5 0 0 1 3.488 0L46.775 8.4a2.39 2.39 0 0 1 0 3.422l.05.051-.05-.05-1.889 1.857a.879.879 0 0 0-.178 1.027c.37.726.687 1.477.948 2.246L33.93 2.497C33.929 1.118 32.791 0 31.387 0h-5.085c-1.404 0-2.542 1.118-2.542 2.496v2.617m10.094 0h.075-.075zm0 0V2.496c0-1.336-1.103-2.421-2.467-2.421h-5.085c-1.363 0-2.467 1.085-2.467 2.421v2.617m0 0h-.075m.075 0h-.075m.075 0a.888.888 0 0 1-.606.847h-.001c-.784.258-1.548.57-2.288.935a.914.914 0 0 1-1.042-.174l-1.892-1.855a2.506 2.506 0 0 0-3.489 0l-3.596 3.53a2.39 2.39 0 0 0 0 3.423l2.778 2.733a.783.783 0 0 0 1.093-.017l.052.051-.052-.051a.746.746 0 0 0 .001-1.051l-2.779-2.732a.896.896 0 0 1 0-1.283l3.596-3.531a.933.933 0 0 1 1.303 0l1.894 1.855a2.479 2.479 0 0 0 2.826.456l2.127-3.136m22.756 13.95h2.666c.508 0 .922.405.922.907v4.992a.915.915 0 0 1-.922.908h-2.665a2.442 2.442 0 0 0-2.327 1.63 15.58 15.58 0 0 1-.868 2.05 2.37 2.37 0 0 0 .464 2.771l1.89 1.86a.895.895 0 0 1 0 1.283l-3.598 3.531a.933.933 0 0 1-1.302 0l-2.785-2.728v-.001a.783.783 0 0 0-1.094-.017l-.044-.047.044.047a.746.746 0 0 0 .002 1.088l2.785 2.73a2.5 2.5 0 0 0 3.488 0l3.597-3.531a2.39 2.39 0 0 0 0-3.423l-.252-14.05zm0 0a2.442 2.442 0 0 1-2.326-1.631l2.327 1.631zM42.08 5.937a.933.933 0 0 0-1.303 0l2.546 9.446a2.368 2.368 0 0 1 .464-2.771l1.89-1.86a.897.897 0 0 0 0-1.282L42.08 5.937zm7.103 21.447h-2.665v-9.835h2.665c1.364 0 2.467 1.085 2.467 2.421v4.992c0 1.337-1.103 2.422-2.467 2.422zm-12.839 2.399l.02-.02c4.303-4.142 4.303-10.849 0-14.991m-.02 15.011l-.051-.055m.05.055a.873.873 0 0 1-1.2-.02.793.793 0 0 1 .021-1.153l.052.055a.718.718 0 0 0-.02 1.045.798.798 0 0 0 1.097.018m.05.055l-.05-.055m0 0a.82.82 0 0 0 .019-.018c4.272-4.114 4.272-10.771 0-14.884m0 0l.053-.054m-.053.054l.053-.054m-.053.054c-4.281-4.106-11.215-4.106-15.497 0m15.55-.054c-4.312-4.134-11.291-4.134-15.602 0m0 0l.052.053m-.052-.053l.051.054h.001m-.052-.054l1.148 1.098m-1.096-1.045a.718.718 0 0 0 .02 1.045c.3.278.776.278 1.076 0m0 0v.001l.052.054m-.052-.055l-1.128.055a.874.874 0 0 0 1.18 0m-.052-.055c3.65-3.554 9.606-3.592 13.305-.085 3.701 3.51 3.741 9.238.09 12.794l-.053-.054.052.054L21.911 15.87zm0 0l.052.055m-.052-.055l.052.055"/></symbol><symbol viewBox="0 0 30 30" id="inst" xmlns="http://www.w3.org/2000/svg"><path d="M17.453 14.534a2.782 2.782 0 1 1-5.564 0 2.782 2.782 0 0 1 5.564 0z"/><path d="M21.177 9.612a2.586 2.586 0 0 0-.625-.96 2.584 2.584 0 0 0-.96-.623c-.293-.115-.735-.25-1.549-.288-.88-.04-1.144-.048-3.372-.048-2.229 0-2.493.008-3.373.048-.813.037-1.255.173-1.55.288-.362.133-.69.347-.959.624-.277.27-.49.597-.624.96-.115.294-.25.736-.288 1.55-.04.88-.048 1.143-.048 3.372 0 2.228.008 2.492.048 3.372.037.814.173 1.256.288 1.55.134.362.347.69.624.96.27.277.597.49.96.624.294.114.736.25 1.55.287.88.04 1.143.049 3.372.049 2.228 0 2.492-.009 3.372-.049.814-.037 1.256-.173 1.55-.287a2.764 2.764 0 0 0 1.584-1.584c.114-.294.25-.736.287-1.55.04-.88.049-1.144.049-3.372 0-2.229-.009-2.493-.049-3.373-.037-.813-.173-1.255-.287-1.55zM14.67 18.82a4.286 4.286 0 1 1 0-8.57 4.286 4.286 0 0 1 0 8.57zm4.455-7.739a1.002 1.002 0 1 1 0-2.003 1.002 1.002 0 0 1 0 2.003z"/><path d="M14.67 0C6.646 0 .138 6.508.138 14.534S6.645 29.068 14.67 29.068s14.534-6.508 14.534-14.534S22.697 0 14.671 0zm8.296 17.975c-.04.888-.181 1.495-.387 2.026a4.267 4.267 0 0 1-2.441 2.44c-.531.207-1.138.348-2.026.389-.89.04-1.174.05-3.44.05-2.268 0-2.552-.01-3.442-.05-.888-.04-1.495-.182-2.026-.388a4.088 4.088 0 0 1-1.478-.963 4.09 4.09 0 0 1-.962-1.478c-.207-.53-.348-1.138-.388-2.026-.041-.89-.05-1.174-.05-3.44 0-2.267.009-2.552.05-3.442.04-.888.18-1.495.387-2.026.21-.556.538-1.06.963-1.478a4.088 4.088 0 0 1 1.478-.962c.531-.207 1.138-.348 2.026-.388.89-.04 1.174-.05 3.44-.05 2.268 0 2.552.01 3.442.05.888.04 1.495.181 2.026.387a4.09 4.09 0 0 1 1.478.963 4.1 4.1 0 0 1 .963 1.478c.206.531.347 1.138.388 2.026.04.89.05 1.175.05 3.441 0 2.267-.01 2.551-.05 3.441z"/></symbol><symbol viewBox="0 0 165 41" id="logo" xmlns="http://www.w3.org/2000/svg"><path fill-rule="evenodd" clip-rule="evenodd" d="M3.308 11.016c1.826 0 3.306 1.418 3.306 3.167v7.392c0 2.705.001 5.41-.006 8.116 0 1.108.94 2.008 2.097 2.008 1.159 0 2.097-.9 2.097-2.009 0-.077-.004-.153-.013-.227V19.316c0-3.912 2.816-7.196 6.612-8.092A8.953 8.953 0 0 1 18.93 11h1.115a8.88 8.88 0 0 1 4.858 1.795 8.908 8.908 0 0 1 5.384-1.789c4.804 0 8.7 3.732 8.7 8.334 0 4.854.007 9.71.012 14.564l-.006.93c0 1.744-1.474 3.16-3.295 3.166h-.02c-1.82-.006-3.295-1.422-3.295-3.167 0-5.156.006-10.313.006-15.469 0-1.11-.939-2.009-2.097-2.009-1.149 0-2.083.887-2.097 1.985-.03 2.695.005 5.396.005 8.092v7.409c0 1.675-1.358 3.047-3.078 3.159h-.454c-1.72-.112-3.078-1.484-3.078-3.16V19.33c-.006-1.105-.943-1.999-2.098-1.999-1.107 0-2.014.822-2.091 1.865a2.083 2.083 0 0 0 0 .289V29.69c-.014 4.582-3.891 8.296-8.675 8.31h-.049C3.89 37.986.012 34.27.003 29.683c-.006-5.17 0-10.34 0-15.51.005-1.744 1.484-3.157 3.305-3.157z"/><path d="M51.602 12.11v7.713c0 .97.22 1.693.662 2.17.44.477 1.131.716 2.072.716 1.244 0 2.151-.34 2.723-1.02.578-.68.868-1.79.868-3.33v-6.25h1.8V24h-1.486l-.26-1.595h-.098a3.583 3.583 0 0 1-1.54 1.345c-.651.311-1.396.467-2.235.467-1.447 0-2.531-.344-3.255-1.03-.716-.688-1.074-1.787-1.074-3.299V12.11h1.823zm17.38-.217c.527 0 1.001.043 1.42.13l-.249 1.67a6.133 6.133 0 0 0-1.302-.162c-.962 0-1.786.39-2.473 1.172-.68.78-1.02 1.753-1.02 2.918V24h-1.8V12.11h1.485l.206 2.202h.087c.442-.774.973-1.37 1.595-1.79a3.59 3.59 0 0 1 2.05-.63zM79.939 24l-.358-1.692h-.087c-.593.744-1.186 1.25-1.78 1.518-.585.26-1.32.391-2.202.391-1.178 0-2.104-.304-2.777-.911-.665-.608-.998-1.472-.998-2.593 0-2.401 1.92-3.66 5.76-3.776l2.019-.065v-.737c0-.933-.203-1.62-.608-2.062-.398-.448-1.038-.672-1.92-.672-.991 0-2.112.303-3.363.911l-.553-1.378a8.48 8.48 0 0 1 1.92-.748 8.403 8.403 0 0 1 2.104-.271c1.418 0 2.467.314 3.147.943.687.63 1.03 1.638 1.03 3.027V24H79.94zm-4.069-1.27c1.121 0 2-.307 2.637-.921.643-.615.965-1.476.965-2.582v-1.075l-1.8.076c-1.433.051-2.467.275-3.103.673-.63.39-.944 1.002-.944 1.834 0 .65.195 1.146.586 1.486.397.34.95.51 1.66.51zM86.795 24h-1.8V7.12h1.8V24zm18.975 0v-7.735c0-.948-.203-1.656-.608-2.127-.405-.477-1.034-.716-1.888-.716-1.121 0-1.949.322-2.484.966-.535.644-.803 1.635-.803 2.973V24h-1.8v-7.735c0-.948-.203-1.656-.608-2.127-.405-.477-1.038-.716-1.899-.716-1.128 0-1.956.34-2.484 1.02-.52.673-.781 1.78-.781 3.32V24h-1.801V12.11h1.465l.292 1.627h.087c.34-.579.817-1.03 1.432-1.356.622-.325 1.317-.488 2.083-.488 1.859 0 3.074.672 3.645 2.018h.087a3.798 3.798 0 0 1 1.541-1.476c.672-.361 1.439-.542 2.3-.542 1.345 0 2.35.347 3.016 1.041.672.687 1.008 1.79 1.008 3.31V24h-1.8zm10.545.217c-1.758 0-3.147-.535-4.166-1.606-1.013-1.07-1.519-2.556-1.519-4.459 0-1.916.47-3.439 1.41-4.567.948-1.128 2.217-1.692 3.808-1.692 1.49 0 2.669.492 3.537 1.475.868.977 1.302 2.268 1.302 3.873v1.14h-8.191c.036 1.395.387 2.455 1.052 3.178.673.723 1.617 1.085 2.832 1.085 1.28 0 2.545-.268 3.797-.803v1.606a9.229 9.229 0 0 1-1.812.585c-.564.123-1.248.185-2.05.185zm-.489-10.816c-.954 0-1.717.31-2.289.933-.564.622-.897 1.482-.998 2.582h6.217c0-1.136-.254-2.004-.76-2.604-.506-.607-1.229-.911-2.17-.911zm16.035 9.004h-.098c-.832 1.208-2.076 1.812-3.732 1.812-1.555 0-2.766-.532-3.634-1.595-.861-1.063-1.291-2.575-1.291-4.535s.434-3.482 1.302-4.567c.868-1.085 2.075-1.627 3.623-1.627 1.613 0 2.85.586 3.71 1.757h.142l-.076-.857-.044-.835V7.119h1.801V24h-1.465l-.238-1.595zm-3.602.304c1.23 0 2.119-.333 2.669-.998.557-.673.835-1.754.835-3.244v-.38c0-1.685-.282-2.885-.846-3.601-.557-.724-1.45-1.085-2.68-1.085-1.056 0-1.866.412-2.43 1.236-.557.818-.835 1.975-.835 3.472 0 1.519.278 2.665.835 3.44.557.773 1.374 1.16 2.452 1.16zM139.195 24h-1.801V12.11h1.801V24zm-1.953-15.112c0-.413.101-.713.304-.9.202-.196.455-.294.759-.294.289 0 .539.098.749.293.209.196.314.496.314.9 0 .406-.105.71-.314.912-.21.195-.46.293-.749.293a1.05 1.05 0 0 1-.759-.293c-.203-.203-.304-.506-.304-.911zM150.325 24l-.358-1.692h-.086c-.593.744-1.187 1.25-1.78 1.518-.585.26-1.32.391-2.202.391-1.179 0-2.105-.304-2.777-.911-.666-.608-.998-1.472-.998-2.593 0-2.401 1.92-3.66 5.76-3.776l2.018-.065v-.737c0-.933-.202-1.62-.607-2.062-.398-.448-1.038-.672-1.92-.672-.991 0-2.112.303-3.364.911l-.553-1.378a8.488 8.488 0 0 1 1.92-.748 8.407 8.407 0 0 1 2.105-.271c1.418 0 2.466.314 3.146.943.687.63 1.031 1.638 1.031 3.027V24h-1.335zm-4.068-1.27c1.121 0 2-.307 2.636-.921.644-.615.966-1.476.966-2.582v-1.075l-1.801.076c-1.432.051-2.466.275-3.103.673-.629.39-.944 1.002-.944 1.834 0 .65.196 1.146.586 1.486.398.34.951.51 1.66.51zm16.794-1.974c0 1.107-.412 1.96-1.237 2.56-.824.6-1.982.901-3.471.901-1.577 0-2.807-.25-3.689-.749v-1.67a8.955 8.955 0 0 0 1.833.683c.659.166 1.291.25 1.899.25.94 0 1.663-.149 2.17-.445.506-.304.759-.763.759-1.378 0-.463-.202-.857-.607-1.182-.398-.333-1.179-.724-2.344-1.172-1.106-.412-1.895-.77-2.365-1.074-.463-.311-.81-.662-1.041-1.052-.224-.391-.337-.858-.337-1.4 0-.97.395-1.732 1.183-2.289.788-.564 1.87-.846 3.244-.846 1.28 0 2.531.26 3.753.78l-.64 1.466c-1.193-.492-2.274-.738-3.243-.738-.854 0-1.498.134-1.931.401-.434.268-.651.637-.651 1.107 0 .318.079.59.238.813.167.225.431.438.792.64.362.203 1.056.496 2.083.88 1.411.513 2.362 1.03 2.853 1.55.499.521.749 1.176.749 1.964zM55.144 33.959c0 1.33-.35 2.338-1.047 3.021-.698.68-1.723 1.02-3.076 1.02h-1.898v-7.93h2.143c1.265 0 2.227.33 2.885.992.662.662.993 1.628.993 2.897zm-.602.021c0-1.135-.29-1.988-.868-2.56-.575-.575-1.421-.862-2.539-.862h-1.459v6.954h1.313c2.369 0 3.553-1.177 3.553-3.532zM57.368 38h-.537v-5.896h.537V38zm-.613-7.535c0-.347.114-.52.342-.52.112 0 .199.045.26.135.065.09.098.22.098.386a.667.667 0 0 1-.098.385.294.294 0 0 1-.26.14c-.228 0-.342-.175-.342-.526zm7.193 1.639v.374l-1.22.076c.325.405.487.85.487 1.334 0 .568-.19 1.03-.57 1.384-.375.35-.882.526-1.518.526a3.31 3.31 0 0 1-.564-.033 1.404 1.404 0 0 0-.488.396.8.8 0 0 0-.169.483c0 .188.071.325.212.412.145.087.385.13.721.13h1.031c.64 0 1.13.13 1.47.39.34.258.51.64.51 1.145 0 .622-.253 1.102-.76 1.438-.502.34-1.22.51-2.153.51-.741 0-1.316-.143-1.725-.429-.405-.285-.607-.683-.607-1.193 0-.405.124-.741.374-1.009.253-.268.595-.45 1.025-.548a1.071 1.071 0 0 1-.428-.32.788.788 0 0 1-.158-.483c0-.394.252-.741.754-1.041a1.685 1.685 0 0 1-.802-.662 1.91 1.91 0 0 1-.288-1.041c0-.59.186-1.062.559-1.416.376-.358.882-.537 1.519-.537.387 0 .687.038.9.114h1.888zm-4.774 6.894c0 .81.602 1.215 1.806 1.215 1.548 0 2.322-.494 2.322-1.48 0-.355-.121-.612-.363-.771-.243-.16-.635-.239-1.177-.239h-.966c-1.081 0-1.622.425-1.622 1.275zm.45-5.055c0 .455.138.81.413 1.063.278.25.649.374 1.112.374.492 0 .868-.125 1.128-.374.264-.25.396-.611.396-1.085 0-.503-.136-.879-.407-1.128-.267-.254-.644-.38-1.128-.38-.47 0-.84.136-1.112.407-.268.267-.402.642-.402 1.123zM65.7 38h-.537v-5.896h.537V38zm-.613-7.535c0-.347.114-.52.341-.52.113 0 .2.045.26.135.066.09.099.22.099.386a.667.667 0 0 1-.098.385.294.294 0 0 1-.26.14c-.228 0-.342-.175-.342-.526zm4.15 7.166c.34 0 .636-.029.889-.087v.434c-.26.087-.56.13-.9.13-.521 0-.906-.139-1.156-.417-.246-.279-.369-.716-.369-1.313V32.57h-.873v-.314l.873-.245.272-1.334h.276v1.427h1.73v.466h-1.73v3.732c0 .452.08.787.239 1.004.159.217.409.325.748.325zM74.98 38l-.136-.933h-.043c-.297.38-.602.65-.917.808-.31.156-.68.233-1.107.233-.578 0-1.028-.148-1.35-.444-.322-.297-.483-.707-.483-1.232 0-.575.239-1.021.716-1.34.481-.318 1.175-.486 2.083-.504l1.123-.032v-.391c0-.56-.114-.984-.342-1.27-.228-.285-.595-.428-1.101-.428-.546 0-1.112.152-1.698.456l-.2-.467c.647-.303 1.287-.455 1.92-.455.647 0 1.13.168 1.448.504.322.336.483.86.483 1.573V38h-.396zm-2.17-.38c.63 0 1.125-.179 1.486-.537.366-.361.548-.862.548-1.502V35l-1.03.043c-.828.04-1.42.17-1.774.39-.351.217-.526.557-.526 1.02 0 .369.112.656.336.862.228.203.548.304.96.304zm5.018.38h-.537v-8.44h.537V38zm1.491-2.777v-.445h2.577v.445H79.32zM86.97 38l-.136-.933h-.043c-.297.38-.602.65-.917.808-.311.156-.68.233-1.107.233-.578 0-1.028-.148-1.35-.444-.322-.297-.483-.707-.483-1.232 0-.575.239-1.021.716-1.34.48-.318 1.175-.486 2.083-.504l1.123-.032v-.391c0-.56-.114-.984-.342-1.27-.228-.285-.595-.428-1.101-.428-.546 0-1.112.152-1.698.456l-.2-.467c.647-.303 1.287-.455 1.92-.455.647 0 1.13.168 1.448.504.322.336.483.86.483 1.573V38h-.396zm-2.17-.38c.63 0 1.125-.179 1.486-.537.365-.361.548-.862.548-1.502V35l-1.03.043c-.829.04-1.42.17-1.774.39-.351.217-.526.557-.526 1.02 0 .369.112.656.336.862.228.203.548.304.96.304zm7.947-5.05h-2.93V38h-.537v-5.896h3.467v.466zm3.59 5.538c-.856 0-1.525-.264-2.006-.791-.478-.528-.716-1.268-.716-2.219 0-.94.231-1.692.694-2.257.463-.567 1.087-.851 1.871-.851.695 0 1.242.242 1.644.727.401.484.602 1.142.602 1.974v.434h-4.247c.007.81.195 1.428.564 1.855.372.427.904.64 1.595.64.336 0 .63-.023.884-.07a5.3 5.3 0 0 0 .97-.304v.488a4.2 4.2 0 0 1-.921.293 4.948 4.948 0 0 1-.933.081zm-.157-5.64c-.567 0-1.023.187-1.367.563-.343.373-.544.912-.602 1.617h3.645c0-.684-.148-1.217-.444-1.6-.297-.387-.707-.58-1.232-.58zm4.41-.364v2.587h3.743v-2.587h.532V38h-.532v-2.842h-3.743V38h-.537v-5.896h.537zm9.997.466h-1.963V38h-.532v-5.43h-2.012v-.466h4.507v.466zm3.57 5.538c-.843 0-1.503-.265-1.98-.797-.478-.532-.716-1.273-.716-2.224 0-.976.247-1.736.743-2.278.495-.546 1.173-.82 2.034-.82.51 0 .998.09 1.465.267l-.147.477c-.51-.17-.953-.255-1.329-.255-.723 0-1.271.224-1.643.673-.373.444-.559 1.086-.559 1.925 0 .796.186 1.42.559 1.872.372.448.893.672 1.562.672.535 0 1.032-.095 1.492-.287v.499c-.377.184-.87.276-1.481.276zm6.672-5.538h-1.964V38h-.532v-5.43h-2.012v-.466h4.508v.466zm5.739.955c0 .372-.093.665-.277.879-.184.21-.485.356-.9.439v.038c.473.054.815.192 1.025.412.213.217.32.53.32.939 0 .567-.188 1.005-.564 1.312-.373.304-.919.456-1.639.456h-2.489v-5.896h2.5c.673 0 1.177.12 1.514.363.34.242.51.595.51 1.058zm-.402 2.696c0-.723-.555-1.085-1.665-1.085h-1.92v2.354h1.996c1.059 0 1.589-.423 1.589-1.27zm-.168-2.653c0-.343-.123-.587-.369-.732-.246-.148-.615-.222-1.106-.222h-1.942v2.018h1.877c.549 0 .943-.085 1.182-.255.239-.17.358-.44.358-.809zm7.214 1.476c0 .962-.233 1.714-.699 2.256-.467.54-1.11.809-1.931.809-.517 0-.973-.125-1.367-.375a2.397 2.397 0 0 1-.906-1.074c-.21-.466-.315-1.005-.315-1.616 0-.962.233-1.71.7-2.246.466-.539 1.107-.808 1.92-.808.81 0 1.445.273 1.904.819.463.542.694 1.287.694 2.235zm-4.654 0c0 .81.178 1.443.532 1.898.358.452.862.678 1.513.678.651 0 1.154-.226 1.508-.678.358-.455.537-1.088.537-1.898 0-.814-.18-1.445-.542-1.893-.358-.449-.863-.673-1.513-.673-.651 0-1.154.224-1.508.673-.351.444-.527 1.075-.527 1.893z"/></symbol><symbol viewBox="0 0 30 30" id="twitter" xmlns="http://www.w3.org/2000/svg"><path d="M14.74 0C6.712 0 .204 6.508.204 14.534S6.713 29.068 14.74 29.068s14.534-6.508 14.534-14.534S22.765 0 14.74 0zm6.635 11.332c.007.143.01.287.01.431 0 4.409-3.355 9.492-9.492 9.492a9.443 9.443 0 0 1-5.113-1.498c.26.03.527.046.796.046a6.694 6.694 0 0 0 4.143-1.428 3.34 3.34 0 0 1-3.117-2.317A3.323 3.323 0 0 0 10.11 16a3.337 3.337 0 0 1-2.676-3.27v-.042c.45.25.964.4 1.511.417A3.333 3.333 0 0 1 7.911 8.65a9.471 9.471 0 0 0 6.877 3.486 3.337 3.337 0 0 1 5.685-3.042 6.691 6.691 0 0 0 2.118-.81 3.35 3.35 0 0 1-1.467 1.845 6.653 6.653 0 0 0 1.916-.525 6.781 6.781 0 0 1-1.665 1.727z"/></symbol><symbol viewBox="0 0 30 30" id="vk" xmlns="http://www.w3.org/2000/svg"><path d="M14.603 0C6.576 0 .068 6.507.068 14.534c0 8.027 6.508 14.534 14.535 14.534 8.026 0 14.534-6.507 14.534-14.534C29.137 6.507 22.629 0 14.603 0zm7.372 16.106c.677.662 1.394 1.284 2.002 2.015.27.323.524.657.717 1.032.276.536.027 1.123-.453 1.155h-2.977c-.77.063-1.381-.247-1.897-.773-.412-.42-.794-.867-1.19-1.3a2.782 2.782 0 0 0-.537-.477c-.406-.264-.759-.183-.991.241-.237.431-.291.91-.314 1.39-.032.702-.244.886-.949.919-1.505.07-2.933-.158-4.26-.917-1.172-.67-2.078-1.614-2.868-2.684-1.538-2.085-2.716-4.374-3.774-6.728-.238-.53-.064-.814.52-.825a82.876 82.876 0 0 1 2.916-.001c.396.006.657.232.81.606a18.093 18.093 0 0 0 1.975 3.661c.215.304.435.607.747.821.345.237.608.159.77-.227.105-.244.15-.506.172-.768.078-.899.087-1.797-.047-2.691-.083-.56-.398-.922-.956-1.028-.285-.054-.243-.16-.105-.321.24-.281.465-.455.914-.455h3.365c.53.104.649.342.72.876l.004 3.738c-.007.207.103.82.475.955.297.098.493-.14.671-.329.807-.856 1.382-1.866 1.896-2.912.228-.462.424-.939.614-1.417.142-.354.362-.528.76-.522l3.24.004c.096 0 .193.001.287.018.546.093.696.328.527.86-.266.837-.782 1.534-1.288 2.233-.54.748-1.118 1.47-1.654 2.222-.492.687-.453 1.033.158 1.63z"/></symbol><symbol viewBox="0 0 30 30" id="yt" xmlns="http://www.w3.org/2000/svg"><path d="M12.998 17.257l4.727-2.723-4.727-2.723v5.446z"/><path d="M14.808 0C6.782 0 .273 6.508.273 14.534s6.509 14.534 14.535 14.534 14.534-6.508 14.534-14.534S22.834 0 14.808 0zm9.081 14.55s0 2.947-.374 4.368a2.276 2.276 0 0 1-1.6 1.6c-1.422.375-7.107.375-7.107.375s-5.67 0-7.107-.389A2.276 2.276 0 0 1 6.1 18.903c-.374-1.406-.374-4.369-.374-4.369s0-2.947.374-4.369A2.322 2.322 0 0 1 7.7 8.55c1.422-.375 7.108-.375 7.108-.375s5.685 0 7.106.39a2.273 2.273 0 0 1 1.601 1.6c.39 1.422.374 4.384.374 4.384z"/></symbol></svg>