<?xml version="1.0" encoding="utf-8"?><svg xmlns="http://www.w3.org/2000/svg" xmlns:xlink="http://www.w3.org/1999/xlink"><symbol viewBox="0 0 165 41" id="logo" xmlns="http://www.w3.org/2000/svg"><path fill-rule="evenodd" clip-rule="evenodd" d="M3.308 11.016c1.826 0 3.306 1.418 3.306 3.167v7.392c0 2.705.001 5.41-.006 8.116 0 1.108.94 2.008 2.097 2.008 1.159 0 2.097-.9 2.097-2.009 0-.077-.004-.153-.013-.227V19.316c0-3.912 2.816-7.196 6.612-8.092A8.953 8.953 0 0 1 18.93 11h1.115a8.88 8.88 0 0 1 4.858 1.795 8.908 8.908 0 0 1 5.384-1.789c4.804 0 8.7 3.732 8.7 8.334 0 4.854.007 9.71.012 14.564l-.006.93c0 1.744-1.474 3.16-3.295 3.166h-.02c-1.82-.006-3.295-1.422-3.295-3.167 0-5.156.006-10.313.006-15.469 0-1.11-.939-2.009-2.097-2.009-1.149 0-2.083.887-2.097 1.985-.03 2.695.005 5.396.005 8.092v7.409c0 1.675-1.358 3.047-3.078 3.159h-.454c-1.72-.112-3.078-1.484-3.078-3.16V19.33c-.006-1.105-.943-1.999-2.098-1.999-1.107 0-2.014.822-2.091 1.865a2.083 2.083 0 0 0 0 .289V29.69c-.014 4.582-3.891 8.296-8.675 8.31h-.049C3.89 37.986.012 34.27.003 29.683c-.006-5.17 0-10.34 0-15.51.005-1.744 1.484-3.157 3.305-3.157z"/><path d="M51.602 12.11v7.713c0 .97.22 1.693.662 2.17.44.477 1.131.716 2.072.716 1.244 0 2.151-.34 2.723-1.02.578-.68.868-1.79.868-3.33v-6.25h1.8V24h-1.486l-.26-1.595h-.098a3.583 3.583 0 0 1-1.54 1.345c-.651.311-1.396.467-2.235.467-1.447 0-2.531-.344-3.255-1.03-.716-.688-1.074-1.787-1.074-3.299V12.11h1.823zm17.38-.217c.527 0 1.001.043 1.42.13l-.249 1.67a6.133 6.133 0 0 0-1.302-.162c-.962 0-1.786.39-2.473 1.172-.68.78-1.02 1.753-1.02 2.918V24h-1.8V12.11h1.485l.206 2.202h.087c.442-.774.973-1.37 1.595-1.79a3.59 3.59 0 0 1 2.05-.63zM79.939 24l-.358-1.692h-.087c-.593.744-1.186 1.25-1.78 1.518-.585.26-1.32.391-2.202.391-1.178 0-2.104-.304-2.777-.911-.665-.608-.998-1.472-.998-2.593 0-2.401 1.92-3.66 5.76-3.776l2.019-.065v-.737c0-.933-.203-1.62-.608-2.062-.398-.448-1.038-.672-1.92-.672-.991 0-2.112.303-3.363.911l-.553-1.378a8.48 8.48 0 0 1 1.92-.748 8.403 8.403 0 0 1 2.104-.271c1.418 0 2.467.314 3.147.943.687.63 1.03 1.638 1.03 3.027V24H79.94zm-4.069-1.27c1.121 0 2-.307 2.637-.921.643-.615.965-1.476.965-2.582v-1.075l-1.8.076c-1.433.051-2.467.275-3.103.673-.63.39-.944 1.002-.944 1.834 0 .65.195 1.146.586 1.486.397.34.95.51 1.66.51zM86.795 24h-1.8V7.12h1.8V24zm18.975 0v-7.735c0-.948-.203-1.656-.608-2.127-.405-.477-1.034-.716-1.888-.716-1.121 0-1.949.322-2.484.966-.535.644-.803 1.635-.803 2.973V24h-1.8v-7.735c0-.948-.203-1.656-.608-2.127-.405-.477-1.038-.716-1.899-.716-1.128 0-1.956.34-2.484 1.02-.52.673-.781 1.78-.781 3.32V24h-1.801V12.11h1.465l.292 1.627h.087c.34-.579.817-1.03 1.432-1.356.622-.325 1.317-.488 2.083-.488 1.859 0 3.074.672 3.645 2.018h.087a3.798 3.798 0 0 1 1.541-1.476c.672-.361 1.439-.542 2.3-.542 1.345 0 2.35.347 3.016 1.041.672.687 1.008 1.79 1.008 3.31V24h-1.8zm10.545.217c-1.758 0-3.147-.535-4.166-1.606-1.013-1.07-1.519-2.556-1.519-4.459 0-1.916.47-3.439 1.41-4.567.948-1.128 2.217-1.692 3.808-1.692 1.49 0 2.669.492 3.537 1.475.868.977 1.302 2.268 1.302 3.873v1.14h-8.191c.036 1.395.387 2.455 1.052 3.178.673.723 1.617 1.085 2.832 1.085 1.28 0 2.545-.268 3.797-.803v1.606a9.229 9.229 0 0 1-1.812.585c-.564.123-1.248.185-2.05.185zm-.489-10.816c-.954 0-1.717.31-2.289.933-.564.622-.897 1.482-.998 2.582h6.217c0-1.136-.254-2.004-.76-2.604-.506-.607-1.229-.911-2.17-.911zm16.035 9.004h-.098c-.832 1.208-2.076 1.812-3.732 1.812-1.555 0-2.766-.532-3.634-1.595-.861-1.063-1.291-2.575-1.291-4.535s.434-3.482 1.302-4.567c.868-1.085 2.075-1.627 3.623-1.627 1.613 0 2.85.586 3.71 1.757h.142l-.076-.857-.044-.835V7.119h1.801V24h-1.465l-.238-1.595zm-3.602.304c1.23 0 2.119-.333 2.669-.998.557-.673.835-1.754.835-3.244v-.38c0-1.685-.282-2.885-.846-3.601-.557-.724-1.45-1.085-2.68-1.085-1.056 0-1.866.412-2.43 1.236-.557.818-.835 1.975-.835 3.472 0 1.519.278 2.665.835 3.44.557.773 1.374 1.16 2.452 1.16zM139.195 24h-1.801V12.11h1.801V24zm-1.953-15.112c0-.413.101-.713.304-.9.202-.196.455-.294.759-.294.289 0 .539.098.749.293.209.196.314.496.314.9 0 .406-.105.71-.314.912-.21.195-.46.293-.749.293a1.05 1.05 0 0 1-.759-.293c-.203-.203-.304-.506-.304-.911zM150.325 24l-.358-1.692h-.086c-.593.744-1.187 1.25-1.78 1.518-.585.26-1.32.391-2.202.391-1.179 0-2.105-.304-2.777-.911-.666-.608-.998-1.472-.998-2.593 0-2.401 1.92-3.66 5.76-3.776l2.018-.065v-.737c0-.933-.202-1.62-.607-2.062-.398-.448-1.038-.672-1.92-.672-.991 0-2.112.303-3.364.911l-.553-1.378a8.488 8.488 0 0 1 1.92-.748 8.407 8.407 0 0 1 2.105-.271c1.418 0 2.466.314 3.146.943.687.63 1.031 1.638 1.031 3.027V24h-1.335zm-4.068-1.27c1.121 0 2-.307 2.636-.921.644-.615.966-1.476.966-2.582v-1.075l-1.801.076c-1.432.051-2.466.275-3.103.673-.629.39-.944 1.002-.944 1.834 0 .65.196 1.146.586 1.486.398.34.951.51 1.66.51zm16.794-1.974c0 1.107-.412 1.96-1.237 2.56-.824.6-1.982.901-3.471.901-1.577 0-2.807-.25-3.689-.749v-1.67a8.955 8.955 0 0 0 1.833.683c.659.166 1.291.25 1.899.25.94 0 1.663-.149 2.17-.445.506-.304.759-.763.759-1.378 0-.463-.202-.857-.607-1.182-.398-.333-1.179-.724-2.344-1.172-1.106-.412-1.895-.77-2.365-1.074-.463-.311-.81-.662-1.041-1.052-.224-.391-.337-.858-.337-1.4 0-.97.395-1.732 1.183-2.289.788-.564 1.87-.846 3.244-.846 1.28 0 2.531.26 3.753.78l-.64 1.466c-1.193-.492-2.274-.738-3.243-.738-.854 0-1.498.134-1.931.401-.434.268-.651.637-.651 1.107 0 .318.079.59.238.813.167.225.431.438.792.64.362.203 1.056.496 2.083.88 1.411.513 2.362 1.03 2.853 1.55.499.521.749 1.176.749 1.964zM55.144 33.959c0 1.33-.35 2.338-1.047 3.021-.698.68-1.723 1.02-3.076 1.02h-1.898v-7.93h2.143c1.265 0 2.227.33 2.885.992.662.662.993 1.628.993 2.897zm-.602.021c0-1.135-.29-1.988-.868-2.56-.575-.575-1.421-.862-2.539-.862h-1.459v6.954h1.313c2.369 0 3.553-1.177 3.553-3.532zM57.368 38h-.537v-5.896h.537V38zm-.613-7.535c0-.347.114-.52.342-.52.112 0 .199.045.26.135.065.09.098.22.098.386a.667.667 0 0 1-.098.385.294.294 0 0 1-.26.14c-.228 0-.342-.175-.342-.526zm7.193 1.639v.374l-1.22.076c.325.405.487.85.487 1.334 0 .568-.19 1.03-.57 1.384-.375.35-.882.526-1.518.526a3.31 3.31 0 0 1-.564-.033 1.404 1.404 0 0 0-.488.396.8.8 0 0 0-.169.483c0 .188.071.325.212.412.145.087.385.13.721.13h1.031c.64 0 1.13.13 1.47.39.34.258.51.64.51 1.145 0 .622-.253 1.102-.76 1.438-.502.34-1.22.51-2.153.51-.741 0-1.316-.143-1.725-.429-.405-.285-.607-.683-.607-1.193 0-.405.124-.741.374-1.009.253-.268.595-.45 1.025-.548a1.071 1.071 0 0 1-.428-.32.788.788 0 0 1-.158-.483c0-.394.252-.741.754-1.041a1.685 1.685 0 0 1-.802-.662 1.91 1.91 0 0 1-.288-1.041c0-.59.186-1.062.559-1.416.376-.358.882-.537 1.519-.537.387 0 .687.038.9.114h1.888zm-4.774 6.894c0 .81.602 1.215 1.806 1.215 1.548 0 2.322-.494 2.322-1.48 0-.355-.121-.612-.363-.771-.243-.16-.635-.239-1.177-.239h-.966c-1.081 0-1.622.425-1.622 1.275zm.45-5.055c0 .455.138.81.413 1.063.278.25.649.374 1.112.374.492 0 .868-.125 1.128-.374.264-.25.396-.611.396-1.085 0-.503-.136-.879-.407-1.128-.267-.254-.644-.38-1.128-.38-.47 0-.84.136-1.112.407-.268.267-.402.642-.402 1.123zM65.7 38h-.537v-5.896h.537V38zm-.613-7.535c0-.347.114-.52.341-.52.113 0 .2.045.26.135.066.09.099.22.099.386a.667.667 0 0 1-.098.385.294.294 0 0 1-.26.14c-.228 0-.342-.175-.342-.526zm4.15 7.166c.34 0 .636-.029.889-.087v.434c-.26.087-.56.13-.9.13-.521 0-.906-.139-1.156-.417-.246-.279-.369-.716-.369-1.313V32.57h-.873v-.314l.873-.245.272-1.334h.276v1.427h1.73v.466h-1.73v3.732c0 .452.08.787.239 1.004.159.217.409.325.748.325zM74.98 38l-.136-.933h-.043c-.297.38-.602.65-.917.808-.31.156-.68.233-1.107.233-.578 0-1.028-.148-1.35-.444-.322-.297-.483-.707-.483-1.232 0-.575.239-1.021.716-1.34.481-.318 1.175-.486 2.083-.504l1.123-.032v-.391c0-.56-.114-.984-.342-1.27-.228-.285-.595-.428-1.101-.428-.546 0-1.112.152-1.698.456l-.2-.467c.647-.303 1.287-.455 1.92-.455.647 0 1.13.168 1.448.504.322.336.483.86.483 1.573V38h-.396zm-2.17-.38c.63 0 1.125-.179 1.486-.537.366-.361.548-.862.548-1.502V35l-1.03.043c-.828.04-1.42.17-1.774.39-.351.217-.526.557-.526 1.02 0 .369.112.656.336.862.228.203.548.304.96.304zm5.018.38h-.537v-8.44h.537V38zm1.491-2.777v-.445h2.577v.445H79.32zM86.97 38l-.136-.933h-.043c-.297.38-.602.65-.917.808-.311.156-.68.233-1.107.233-.578 0-1.028-.148-1.35-.444-.322-.297-.483-.707-.483-1.232 0-.575.239-1.021.716-1.34.48-.318 1.175-.486 2.083-.504l1.123-.032v-.391c0-.56-.114-.984-.342-1.27-.228-.285-.595-.428-1.101-.428-.546 0-1.112.152-1.698.456l-.2-.467c.647-.303 1.287-.455 1.92-.455.647 0 1.13.168 1.448.504.322.336.483.86.483 1.573V38h-.396zm-2.17-.38c.63 0 1.125-.179 1.486-.537.365-.361.548-.862.548-1.502V35l-1.03.043c-.829.04-1.42.17-1.774.39-.351.217-.526.557-.526 1.02 0 .369.112.656.336.862.228.203.548.304.96.304zm7.947-5.05h-2.93V38h-.537v-5.896h3.467v.466zm3.59 5.538c-.856 0-1.525-.264-2.006-.791-.478-.528-.716-1.268-.716-2.219 0-.94.231-1.692.694-2.257.463-.567 1.087-.851 1.871-.851.695 0 1.242.242 1.644.727.401.484.602 1.142.602 1.974v.434h-4.247c.007.81.195 1.428.564 1.855.372.427.904.64 1.595.64.336 0 .63-.023.884-.07a5.3 5.3 0 0 0 .97-.304v.488a4.2 4.2 0 0 1-.921.293 4.948 4.948 0 0 1-.933.081zm-.157-5.64c-.567 0-1.023.187-1.367.563-.343.373-.544.912-.602 1.617h3.645c0-.684-.148-1.217-.444-1.6-.297-.387-.707-.58-1.232-.58zm4.41-.364v2.587h3.743v-2.587h.532V38h-.532v-2.842h-3.743V38h-.537v-5.896h.537zm9.997.466h-1.963V38h-.532v-5.43h-2.012v-.466h4.507v.466zm3.57 5.538c-.843 0-1.503-.265-1.98-.797-.478-.532-.716-1.273-.716-2.224 0-.976.247-1.736.743-2.278.495-.546 1.173-.82 2.034-.82.51 0 .998.09 1.465.267l-.147.477c-.51-.17-.953-.255-1.329-.255-.723 0-1.271.224-1.643.673-.373.444-.559 1.086-.559 1.925 0 .796.186 1.42.559 1.872.372.448.893.672 1.562.672.535 0 1.032-.095 1.492-.287v.499c-.377.184-.87.276-1.481.276zm6.672-5.538h-1.964V38h-.532v-5.43h-2.012v-.466h4.508v.466zm5.739.955c0 .372-.093.665-.277.879-.184.21-.485.356-.9.439v.038c.473.054.815.192 1.025.412.213.217.32.53.32.939 0 .567-.188 1.005-.564 1.312-.373.304-.919.456-1.639.456h-2.489v-5.896h2.5c.673 0 1.177.12 1.514.363.34.242.51.595.51 1.058zm-.402 2.696c0-.723-.555-1.085-1.665-1.085h-1.92v2.354h1.996c1.059 0 1.589-.423 1.589-1.27zm-.168-2.653c0-.343-.123-.587-.369-.732-.246-.148-.615-.222-1.106-.222h-1.942v2.018h1.877c.549 0 .943-.085 1.182-.255.239-.17.358-.44.358-.809zm7.214 1.476c0 .962-.233 1.714-.699 2.256-.467.54-1.11.809-1.931.809-.517 0-.973-.125-1.367-.375a2.397 2.397 0 0 1-.906-1.074c-.21-.466-.315-1.005-.315-1.616 0-.962.233-1.71.7-2.246.466-.539 1.107-.808 1.92-.808.81 0 1.445.273 1.904.819.463.542.694 1.287.694 2.235zm-4.654 0c0 .81.178 1.443.532 1.898.358.452.862.678 1.513.678.651 0 1.154-.226 1.508-.678.358-.455.537-1.088.537-1.898 0-.814-.18-1.445-.542-1.893-.358-.449-.863-.673-1.513-.673-.651 0-1.154.224-1.508.673-.351.444-.527 1.075-.527 1.893z"/></symbol></svg>